<?xml version="1.0" encoding="us-ascii" standalone="no"?><svg xmlns="http://www.w3.org/2000/svg" xmlns:xlink="http://www.w3.org/1999/xlink" contentStyleType="text/css" height="266.6667px" preserveAspectRatio="none" style="width:582px;height:266px;" version="1.1" viewBox="0 0 582 266" width="582.2917px" zoomAndPan="magnify"><defs/><g><path d="M208.3333,51.18 L208.6253,51.18 L207.7579,61.5184 L208.6018,71.8567 L208.8884,82.195 L207.3425,92.5334 L208.2254,102.8717 L207.741,113.21 L207.8007,123.5484 L208.2387,133.8867 L207.3731,144.2251 L209.1023,154.5634 L207.4579,164.9017 L208.0587,175.2401 L208.9333,185.5784 L208.2142,195.9167 L208.4281,206.2551 L208.3333,216.5934 " fill="none" style="stroke:#555555;stroke-width:1.0416666666666667;stroke-dasharray:5.0,5.0;"/><path d="M462.5,51.18 L462.7919,51.18 L461.9246,61.5184 L462.7685,71.8567 L463.0551,82.195 L461.5092,92.5334 L462.3921,102.8717 L461.9076,113.21 L461.9674,123.5484 L462.4053,133.8867 L461.5398,144.2251 L463.2689,154.5634 L461.6246,164.9017 L462.2253,175.2401 L463.0999,185.5784 L462.3809,195.9167 L462.5948,206.2551 L462.5,216.5934 " fill="none" style="stroke:#555555;stroke-width:1.0416666666666667;stroke-dasharray:5.0,5.0;"/><polygon fill="none" points="160.4167,10.4167,160.4167,10.6356,171.0648,9.9851,181.713,10.618,192.3611,10.833,203.0093,9.6735,213.6574,10.3357,224.3056,9.9724,234.9537,10.0172,245.6019,10.3457,256.25,10.4167,256.1581,10.1949,256.9128,10.8383,257.3448,10.7026,257.9915,11.0855,258.6644,11.5315,259.1963,11.6371,259.1688,11.6257,259.4622,12.2354,259.6742,12.8113,259.9858,13.4285,260.2493,14.0259,260.4167,14.5833,260.62,14.5833,260.6497,20.861,260.6525,27.1387,260.5051,33.4163,260.5776,39.694,260.4167,45.9717,260.6419,46.065,259.9412,46.4651,260.1462,47.2403,259.5893,47.7,259.6116,48.3996,259.1963,48.918,259.1305,48.7592,258.5979,49.1401,258.1163,49.644,257.422,49.6346,256.8532,49.928,256.25,50.1383,256.25,50.4911,245.6019,50.5719,234.9537,50.1343,224.3056,50.4375,213.6574,49.5421,203.0093,50.4346,192.3611,50.7094,181.713,50.6014,171.0648,50.7769,160.4167,50.1383,160.3525,49.9834,159.7408,49.6851,159.1556,49.4509,158.6411,49.3872,158.0335,49.099,157.4704,48.918,157.689,49.0085,157.1703,48.3055,156.8722,47.6939,156.8114,47.1805,156.2802,46.4723,156.25,45.9717,156.0697,45.9717,156.4753,39.694,156.4013,33.4163,156.505,27.1387,156.1383,20.861,156.25,14.5833,156.3524,14.6257,156.6835,14.0725,156.5866,13.3421,156.9515,12.8028,157.2667,12.2431,157.4704,11.6371,157.557,11.8461,158.0591,11.3916,158.7104,11.2973,159.1646,10.7272,159.7374,10.4435,160.4167,10.4167" style="stroke:#333333;stroke-width:1.0416666666666667;"/><text fill="#2E2E2E" font-family="Segoe Print" font-size="12.5" lengthAdjust="spacing" textLength="79.1667" x="168.75" y="35.0016">&#23458;&#25143;&#31471;(Client)</text><polygon fill="none" points="160.4167,215.5518,160.4167,215.7707,171.0648,215.1202,181.713,215.7531,192.3611,215.9681,203.0093,214.8086,213.6574,215.4708,224.3056,215.1075,234.9537,215.1523,245.6019,215.4808,256.25,215.5518,256.1581,215.33,256.9128,215.9734,257.3448,215.8377,257.9915,216.2205,258.6644,216.6666,259.1963,216.7721,259.1688,216.7607,259.4622,217.3705,259.6742,217.9464,259.9858,218.5636,260.2493,219.1609,260.4167,219.7184,260.62,219.7184,260.6497,225.9961,260.6525,232.2738,260.5051,238.5514,260.5776,244.8291,260.4167,251.1068,260.6419,251.2001,259.9412,251.6002,260.1462,252.3754,259.5893,252.8351,259.6116,253.5347,259.1963,254.053,259.1305,253.8942,258.5979,254.2752,258.1163,254.7791,257.422,254.7696,256.8532,255.0631,256.25,255.2734,256.25,255.6262,245.6019,255.707,234.9537,255.2694,224.3056,255.5726,213.6574,254.6772,203.0093,255.5697,192.3611,255.8445,181.713,255.7365,171.0648,255.912,160.4167,255.2734,160.3525,255.1185,159.7408,254.8201,159.1556,254.5859,158.6411,254.5223,158.0335,254.2341,157.4704,254.053,157.689,254.1436,157.1703,253.4406,156.8722,252.829,156.8114,252.3156,156.2802,251.6074,156.25,251.1068,156.0697,251.1068,156.4753,244.8291,156.4013,238.5514,156.505,232.2738,156.1383,225.9961,156.25,219.7184,156.3524,219.7608,156.6835,219.2076,156.5866,218.4771,156.9515,217.9379,157.2667,217.3781,157.4704,216.7721,157.557,216.9812,158.0591,216.5267,158.7104,216.4324,159.1646,215.8623,159.7374,215.5786,160.4167,215.5518" style="stroke:#333333;stroke-width:1.0416666666666667;"/><text fill="#2E2E2E" font-family="Segoe Print" font-size="12.5" lengthAdjust="spacing" textLength="79.1667" x="168.75" y="240.1367">&#23458;&#25143;&#31471;(Client)</text><polygon fill="none" points="358.3333,10.4167,358.3333,10.6356,368.75,9.9851,379.1667,10.618,389.5833,10.833,400,9.6735,410.4167,10.3357,420.8333,9.9724,431.25,10.0172,441.6667,10.3457,452.0833,9.6965,462.5,10.9934,472.9167,9.7601,483.3333,10.2107,493.75,10.8666,504.1667,10.3273,514.5833,10.4877,525,10.3834,535.4167,10.6026,545.8333,10.6658,556.25,11.0268,566.6667,10.4167,566.7558,10.6319,567.3462,10.8786,567.879,10.9865,568.496,11.2976,569.117,11.6182,569.6129,11.6371,569.3816,11.5412,570.0747,12.3165,570.006,12.7762,570.5164,13.4758,570.4305,13.9283,570.8333,14.5833,570.8095,14.5833,571.0908,20.861,570.8164,27.1387,570.8699,33.4163,570.9509,39.694,570.8333,45.9717,570.9669,46.027,570.588,46.5604,570.4373,47.1884,569.9175,47.6634,569.9483,48.3665,569.6129,48.918,569.6858,49.0938,569.0828,49.3046,568.5159,49.6028,567.781,49.4952,567.1693,49.6851,566.6667,50.1383,566.6667,49.4911,556.25,50.077,545.8333,49.9336,535.4167,50.8481,525,49.9564,514.5833,49.781,504.1667,50.3761,493.75,49.4437,483.3333,49.5976,472.9167,50.8143,462.5,50.5922,452.0833,50.9034,441.6667,49.8031,431.25,50.4708,420.8333,50.7534,410.4167,49.6463,400,50.0385,389.5833,50.2696,379.1667,50.8173,368.75,50.134,358.3333,50.1383,358.3948,50.2867,357.6705,49.7166,357.0648,49.4329,356.6325,49.5677,355.881,48.932,355.3871,48.918,355.5503,48.9856,355.2093,48.3562,354.813,47.7038,354.5413,47.1032,354.5579,46.6219,354.1667,45.9717,354.0627,45.9717,354.3722,39.694,353.9747,33.4163,354.3811,27.1387,354.3348,20.861,354.1667,14.5833,354.2453,14.6159,354.4259,14.0004,354.8879,13.5014,355.0957,12.8971,355.1973,12.2488,355.3871,11.6371,355.4227,11.7231,355.959,11.3512,356.6608,11.3787,357.1754,10.9545,357.767,10.7161,358.3333,10.4167" style="stroke:#333333;stroke-width:1.0416666666666667;"/><text fill="#2E2E2E" font-family="Segoe Print" font-size="12.5" lengthAdjust="spacing" textLength="191.6667" x="366.6667" y="35.0016">&#25480;&#26435;&#26381;&#21153;&#22120;(Authorization Server)</text><polygon fill="none" points="358.3333,215.5518,358.3333,215.7707,368.75,215.1202,379.1667,215.7531,389.5833,215.9681,400,214.8086,410.4167,215.4708,420.8333,215.1075,431.25,215.1523,441.6667,215.4808,452.0833,214.8316,462.5,216.1285,472.9167,214.8952,483.3333,215.3458,493.75,216.0017,504.1667,215.4624,514.5833,215.6228,525,215.5185,535.4167,215.7377,545.8333,215.8009,556.25,216.1619,566.6667,215.5518,566.7558,215.767,567.3462,216.0137,567.879,216.1216,568.496,216.4327,569.117,216.7533,569.6129,216.7721,569.3816,216.6763,570.0747,217.4516,570.006,217.9113,570.5164,218.6108,570.4305,219.0634,570.8333,219.7184,570.8095,219.7184,571.0908,225.9961,570.8164,232.2738,570.8699,238.5514,570.9509,244.8291,570.8333,251.1068,570.9669,251.1621,570.588,251.6955,570.4373,252.3234,569.9175,252.7985,569.9483,253.5016,569.6129,254.053,569.6858,254.2289,569.0828,254.4397,568.5159,254.7379,567.781,254.6303,567.1693,254.8201,566.6667,255.2734,566.6667,254.6261,556.25,255.2121,545.8333,255.0687,535.4167,255.9832,525,255.0915,514.5833,254.9161,504.1667,255.5112,493.75,254.5788,483.3333,254.7327,472.9167,255.9494,462.5,255.7273,452.0833,256.0385,441.6667,254.9382,431.25,255.6059,420.8333,255.8885,410.4167,254.7813,400,255.1736,389.5833,255.4047,379.1667,255.9524,368.75,255.2691,358.3333,255.2734,358.3948,255.4218,357.6705,254.8517,357.0648,254.568,356.6325,254.7028,355.881,254.0671,355.3871,254.053,355.5503,254.1207,355.2093,253.4912,354.813,252.8389,354.5413,252.2383,354.5579,251.757,354.1667,251.1068,354.0627,251.1068,354.3722,244.8291,353.9747,238.5514,354.3811,232.2738,354.3348,225.9961,354.1667,219.7184,354.2453,219.751,354.4259,219.1354,354.8879,218.6365,355.0957,218.0322,355.1973,217.3839,355.3871,216.7721,355.4227,216.8582,355.959,216.4863,356.6608,216.5138,357.1754,216.0896,357.767,215.8512,358.3333,215.5518" style="stroke:#333333;stroke-width:1.0416666666666667;"/><text fill="#2E2E2E" font-family="Segoe Print" font-size="12.5" lengthAdjust="spacing" textLength="191.6667" x="366.6667" y="240.1367">&#25480;&#26435;&#26381;&#21153;&#22120;(Authorization Server)</text><polygon fill="#333333" points="450,121.3867,450.0271,121.4545,452.0299,122.0865,454.1916,123.1157,456.3015,124.0156,458.2413,124.4901,460.4167,125.5534,460.4066,125.5283,458.2783,126.2492,456.2005,127.0964,454.1579,128.0314,451.9942,128.6638,450,129.7201,450.1359,129.856,450.6786,128.732,451.6181,128.0048,452.6061,127.3261,453.3123,126.3657,454.1667,125.5534,454.1834,125.5701,453.3255,124.7122,452.5438,123.9306,451.7254,123.1121,450.9771,122.3639,450,121.3867" style="stroke:#333333;stroke-width:1.0416666666666667;"/><path d="M208.3333,125.5534 L208.3333,125.8453 L218.6632,124.9779 L228.9931,125.8218 L239.3229,126.1085 L249.6528,124.5626 L259.9826,125.4455 L270.3125,124.961 L280.6424,125.0207 L290.9722,125.4587 L301.3021,124.5932 L311.6319,126.3223 L321.9618,124.678 L332.2917,125.2787 L342.6215,126.1533 L352.9514,125.4343 L363.2813,125.6482 L373.6111,125.509 L383.941,125.8013 L394.2708,125.8855 L404.6007,126.3668 L414.9306,126.4854 L425.2604,126.4968 L435.5903,125.907 L445.9201,126.1973 L456.25,125.5534 " fill="none" style="stroke:#333333;stroke-width:3.125;"/><text fill="#2E2E2E" font-family="Segoe Print" font-size="12.5" lengthAdjust="spacing" textLength="80.2083" x="295.3125" y="115.625">refresh token</text><path d="M15.625,70.9717 L16.2088,70.9717 L14.4741,81.6488 L16.1619,92.3258 L16.7352,103.0029 L13.6433,113.68 L15.4091,124.3571 L14.4403,135.0342 L14.5597,145.7113 L15.625,156.3883 L19.7917,160.555 L19.7917,160.3657 L30.3309,158.6345 L40.8701,162.0929 L51.4093,158.8042 L61.9485,160.0057 L72.4877,161.7549 L83.027,160.3167 L93.5662,160.7446 L104.1054,160.4663 L114.6446,161.0509 L125.1838,161.2193 L135.723,162.1819 L146.2623,162.4191 L156.8015,162.4418 L167.3407,161.2623 L177.8799,161.8427 L188.4191,162.5057 L198.9583,160.555 L203.125,156.3883 L201.1217,156.3883 L205.0098,146.4925 L202.3014,136.5967 L204.6078,126.7008 L201.7499,116.805 L202.9347,106.9092 L205.185,97.0133 L202.9896,87.1175 L203.125,77.2217 L203.1939,77.2906 L201.2634,75.3601 L199.2309,73.3275 L196.8724,70.9691 L194.9797,69.0764 L192.7083,66.805 L192.7083,65.215 L182.5368,67.595 L172.3652,68.3278 L162.1936,68.0398 L152.0221,68.5079 L141.8505,65.4631 L131.6789,64.9934 L121.5074,65.0789 L111.3358,66.6415 L101.1642,66.2591 L90.9926,68.6978 L80.8211,66.3198 L70.6495,65.8521 L60.4779,67.4391 L50.3064,64.9527 L40.1348,65.363 L29.9632,68.6077 L19.7917,66.805 L15.625,70.9717 " fill="#17A2B8" style="stroke:#1592A6;stroke-width:1.0416666666666667;"/><path d="M192.7083,66.805 L193.1117,66.805 L193.3884,68.4717 L192.4104,70.1383 L193.0039,71.805 L193.255,73.4717 L192.7083,75.1383 L194.7917,77.2217 L194.7917,76.7843 L196.4583,77.1329 L198.125,77.3383 L199.7917,77.8252 L201.4583,77.2178 L203.125,77.2217 L203.4279,77.5245 L200.6791,74.7758 L198.5149,72.6116 L197.2047,71.3014 L194.3223,68.4189 L192.7083,66.805 " fill="#17A2B8" style="stroke:#1592A6;stroke-width:1.0416666666666667;"/><text fill="#FFFFFF" font-family="Segoe Print" font-size="12.5" lengthAdjust="spacing" textLength="48.9583" x="27.0833" y="89.3066">client_id</text><text fill="#FFFFFF" font-family="Segoe Print" font-size="12.5" lengthAdjust="spacing" textLength="73.9583" x="27.0833" y="104.0283">client_secret</text><text fill="#FFFFFF" font-family="Segoe Print" font-size="12.5" lengthAdjust="spacing" textLength="82.2917" x="27.0833" y="118.75">refresh_token</text><text fill="#FFFFFF" font-family="Segoe Print" font-size="12.5" lengthAdjust="spacing" textLength="35.4167" x="27.0833" y="133.4717">scope</text><text fill="#FFFFFF" font-family="Segoe Print" font-size="12.5" lengthAdjust="spacing" textLength="155.2083" x="27.0833" y="148.1934">grant_type: Refresh token</text><polygon fill="#333333" points="219.7917,193.6768,219.8188,193.7445,217.6549,194.3765,215.6499,195.4057,213.5932,196.3056,211.3663,196.7801,209.375,197.8434,209.365,197.8184,211.4033,198.5393,213.4922,199.3865,215.6162,200.3215,217.6192,200.9539,219.7917,202.0101,219.9276,202.146,218.8036,201.022,218.0764,200.2949,217.3977,199.6161,216.4373,198.6557,215.625,197.8434,215.6418,197.8602,216.4505,197.0022,217.3355,196.2206,218.1837,195.4021,219.1021,194.6539,219.7917,193.6768" style="stroke:#333333;stroke-width:1.0416666666666667;"/><path d="M213.5417,197.8434 L213.5417,198.1353 L223.8715,197.268 L234.2014,198.1119 L244.5313,198.3985 L254.8611,196.8526 L265.191,197.7355 L275.5208,197.2511 L285.8507,197.3108 L296.1806,197.7488 L306.5104,196.8832 L316.8403,198.6124 L327.1701,196.968 L337.5,197.5687 L347.8299,198.4434 L358.1597,197.7243 L368.4896,197.9382 L378.8194,197.7991 L389.1493,198.0914 L399.4792,198.1756 L409.809,198.6569 L420.1389,198.7754 L430.4688,198.7868 L440.7986,198.1971 L451.1285,198.4873 L461.4583,197.8434 " fill="none" style="stroke:#333333;stroke-width:3.125;"/><text fill="#2E2E2E" font-family="Segoe Print" font-size="12.5" lengthAdjust="spacing" textLength="77.0833" x="296.875" y="187.915">access token</text><!--SRC=[XPF1Ji9048RlVOgrUj03YGe84ZL14azwqGSWwp1jDosxTNQGuDKBCT6xYHxqP6AYHvy8V0rNMXEWW8TDDZlV_y-_qwwDbKuboMvY8CQE8DFJ7J2aaSJEjcVdoXQlUgW1pz1Q6M8pKQ4MW9gH2gmaClsMIGo9zQg46fGN8oT6Suxr8yLOeDoU5QXKQZwM48UJZBcYl5_PhTHNIQRigpM0kbpfRwY3jDfR0XlwD_I4ch5RqZq3v-_59BLrc1ljqezmgWAtDCvqaS6bX4f1emrZeKbGAUzLgmlPmlsyDOwmYyB6o10DIgR7YUljpZSWKIwcE1J-wEDrFFpwVl_SR4tEjdnNbZsEBf2ktH_baF73SFnyEtww7zszZ1xVDfkkQaZTI5P6YunpCi_FRNrHEXB-b8dV48G1eOq4cnYrznjN91YmbodQglEtimY4xELyE-Cjc1Izq0sOspn8iI7EP_nGPoEOpd1GciyW0TmRo2NU3m00]--></g></svg>