<?xml version="1.0" encoding="us-ascii" standalone="no"?><svg xmlns="http://www.w3.org/2000/svg" xmlns:xlink="http://www.w3.org/1999/xlink" contentStyleType="text/css" height="395.8333px" preserveAspectRatio="none" style="width:1281px;height:395px;" version="1.1" viewBox="0 0 1281 395" width="1281.25px" zoomAndPan="magnify"><defs/><g><path d="M202.0833,51.18 L202.3753,51.18 L201.5079,61.7254 L202.3518,72.2709 L202.6384,82.8163 L201.0925,93.3617 L201.9754,103.9071 L201.491,114.4525 L201.5507,124.998 L201.9887,135.5434 L201.1231,146.0888 L202.8523,156.6342 L201.2079,167.1797 L201.8087,177.7251 L202.6833,188.2705 L201.9642,198.8159 L202.1781,209.3613 L202.039,219.9068 L202.3313,230.4522 L202.4155,240.9976 L202.8968,251.543 L203.0154,262.0884 L203.0267,272.6339 L202.437,283.1793 L202.7272,293.7247 L203.0587,304.2701 L201.0817,314.8156 L203.0257,325.361 L201.6715,335.9064 L202.0833,346.4518 " fill="none" style="stroke:#555555;stroke-width:1.0416666666666667;stroke-dasharray:5.0,5.0;"/><path d="M754.6875,51.18 L754.9794,51.18 L754.1121,61.7254 L754.956,72.2709 L755.2426,82.8163 L753.6967,93.3617 L754.5796,103.9071 L754.0951,114.4525 L754.1549,124.998 L754.5928,135.5434 L753.7273,146.0888 L755.4564,156.6342 L753.8121,167.1797 L754.4128,177.7251 L755.2874,188.2705 L754.5684,198.8159 L754.7823,209.3613 L754.6431,219.9068 L754.9355,230.4522 L755.0196,240.9976 L755.501,251.543 L755.6195,262.0884 L755.6309,272.6339 L755.0411,283.1793 L755.3314,293.7247 L755.6628,304.2701 L753.6859,314.8156 L755.6299,325.361 L754.2757,335.9064 L754.6875,346.4518 " fill="none" style="stroke:#555555;stroke-width:1.0416666666666667;stroke-dasharray:5.0,5.0;"/><path d="M1013.0208,51.18 L1013.3128,51.18 L1012.4454,61.7254 L1013.2893,72.2709 L1013.5759,82.8163 L1012.03,93.3617 L1012.9129,103.9071 L1012.4285,114.4525 L1012.4882,124.998 L1012.9262,135.5434 L1012.0606,146.0888 L1013.7898,156.6342 L1012.1454,167.1797 L1012.7462,177.7251 L1013.6208,188.2705 L1012.9017,198.8159 L1013.1156,209.3613 L1012.9765,219.9068 L1013.2688,230.4522 L1013.353,240.9976 L1013.8343,251.543 L1013.9529,262.0884 L1013.9642,272.6339 L1013.3745,283.1793 L1013.6647,293.7247 L1013.9962,304.2701 L1012.0192,314.8156 L1013.9632,325.361 L1012.609,335.9064 L1013.0208,346.4518 " fill="none" style="stroke:#555555;stroke-width:1.0416666666666667;stroke-dasharray:5.0,5.0;"/><polygon fill="none" points="130.2083,10.4167,130.2083,10.6356,140.5506,9.9851,150.8929,10.618,161.2351,10.833,171.5774,9.6735,181.9196,10.3357,192.2619,9.9724,202.6042,10.0172,212.9464,10.3457,223.2887,9.6965,233.631,10.9934,243.9732,9.7601,254.3155,10.2107,264.6577,10.8666,275,10.4167,274.9886,10.3892,275.5983,10.6826,276.1743,10.8946,276.7915,11.2062,277.3888,11.4697,277.9463,11.6371,278.1342,11.7149,278.4056,12.3155,278.6523,12.9058,278.7602,13.4387,279.0713,14.0557,279.1667,14.5833,279.4105,14.5833,278.9163,20.861,279.4023,27.1387,279.0637,33.4163,279.352,39.694,279.1667,45.9717,279.0079,45.9059,278.9006,46.5518,278.9164,47.2487,278.4188,47.733,278.2241,48.3427,277.9463,48.918,277.9913,49.0266,277.4123,49.2956,276.7672,49.4049,276.2167,49.7423,275.5132,49.7106,275,50.1383,275,50.4346,264.6577,50.7094,254.3155,50.6014,243.9732,50.7769,233.631,49.6351,223.2887,49.459,212.9464,49.4911,202.6042,50.077,192.2619,49.9336,181.9196,50.8481,171.5774,49.9564,161.2351,49.781,150.8929,50.3761,140.5506,49.4437,130.2083,50.1383,130.1394,49.9718,129.7053,50.1024,129.0877,49.7899,128.5382,49.6417,127.8086,49.0588,127.2621,48.918,127.3645,48.9604,127.2074,48.4072,126.6224,47.6767,126.4991,47.1375,126.3262,46.5777,126.0417,45.9717,126.268,45.9717,126.0402,39.694,126.2023,33.4163,125.8494,27.1387,125.8065,20.861,126.0417,14.5833,126.2032,14.6503,126.0558,13.8988,126.6931,13.4725,126.8402,12.843,126.932,12.1907,127.2621,11.6371,127.215,11.5236,127.9123,11.5401,128.4008,11.0529,129.1085,11.0947,129.5456,10.4834,130.2083,10.4167" style="stroke:#333333;stroke-width:1.0416666666666667;"/><text fill="#2E2E2E" font-family="Segoe Print" font-size="12.5" lengthAdjust="spacing" textLength="128.125" x="138.5417" y="35.0016">&#29992;&#25143;&#20195;&#29702; (User Agent)</text><polygon fill="none" points="130.2083,345.4102,130.2083,345.6291,140.5506,344.9786,150.8929,345.6115,161.2351,345.8265,171.5774,344.667,181.9196,345.3292,192.2619,344.9659,202.6042,345.0107,212.9464,345.3392,223.2887,344.69,233.631,345.9869,243.9732,344.7536,254.3155,345.2041,264.6577,345.8601,275,345.4102,274.9886,345.3826,275.5983,345.6761,276.1743,345.8881,276.7915,346.1997,277.3888,346.4632,277.9463,346.6305,278.1342,346.7084,278.4056,347.309,278.6523,347.8993,278.7602,348.4321,279.0713,349.0492,279.1667,349.5768,279.4105,349.5768,278.9163,355.8545,279.4023,362.1322,279.0637,368.4098,279.352,374.6875,279.1667,380.9652,279.0079,380.8994,278.9006,381.5453,278.9164,382.2422,278.4188,382.7265,278.2241,383.3362,277.9463,383.9114,277.9913,384.0201,277.4123,384.289,276.7672,384.3983,276.2167,384.7358,275.5132,384.7041,275,385.1318,275,385.4281,264.6577,385.7029,254.3155,385.5949,243.9732,385.7704,233.631,384.6286,223.2887,384.4525,212.9464,384.4845,202.6042,385.0705,192.2619,384.9271,181.9196,385.8416,171.5774,384.9499,161.2351,384.7745,150.8929,385.3696,140.5506,384.4372,130.2083,385.1318,130.1394,384.9653,129.7053,385.0959,129.0877,384.7834,128.5382,384.6352,127.8086,384.0523,127.2621,383.9114,127.3645,383.9539,127.2074,383.4006,126.6224,382.6702,126.4991,382.1309,126.3262,381.5712,126.0417,380.9652,126.268,380.9652,126.0402,374.6875,126.2023,368.4098,125.8494,362.1322,125.8065,355.8545,126.0417,349.5768,126.2032,349.6437,126.0558,348.8923,126.6931,348.4659,126.8402,347.8365,126.932,347.1842,127.2621,346.6305,127.215,346.5171,127.9123,346.5336,128.4008,346.0464,129.1085,346.0882,129.5456,345.4769,130.2083,345.4102" style="stroke:#333333;stroke-width:1.0416666666666667;"/><text fill="#2E2E2E" font-family="Segoe Print" font-size="12.5" lengthAdjust="spacing" textLength="128.125" x="138.5417" y="369.9951">&#29992;&#25143;&#20195;&#29702; (User Agent)</text><polygon fill="none" points="704.6875,10.4167,704.6875,10.6356,714.6875,9.9851,724.6875,10.618,734.6875,10.833,744.6875,9.6735,754.6875,10.3357,764.6875,9.9724,774.6875,10.0172,784.6875,10.3457,794.6875,9.6965,804.6875,10.4167,804.7611,10.5943,805.193,10.4586,805.8397,10.8414,806.5127,11.2875,807.0331,11.3655,807.6338,11.6371,807.6557,11.6461,807.8676,12.2221,808.1792,12.8393,808.4427,13.4366,808.798,14.0719,808.8542,14.5833,809.0872,14.5833,809.09,20.861,808.9426,27.1387,809.0151,33.4163,809.098,39.694,808.8542,45.9717,808.6228,45.8759,808.8277,46.6511,808.2709,47.1108,808.2932,47.8104,807.7191,48.2629,807.6338,48.918,807.6247,48.896,807.1431,49.3999,806.4488,49.3905,805.88,49.684,805.3218,50.0029,804.6875,50.1383,804.6875,50.5719,794.6875,50.1343,784.6875,50.4375,774.6875,49.5421,764.6875,50.4346,754.6875,50.7094,744.6875,50.6014,734.6875,50.7769,724.6875,49.6351,714.6875,49.459,704.6875,50.1383,704.6049,49.939,704.0904,49.8754,703.4829,49.5871,703.0103,49.6247,702.3073,49.106,701.7412,48.918,701.6312,48.8724,701.5704,48.359,701.0392,47.6508,700.8425,47.0812,700.9731,46.6472,700.5208,45.9717,700.6721,45.9717,700.7759,39.694,700.4091,33.4163,700.6317,27.1387,700.7258,20.861,700.5208,14.5833,700.3693,14.5206,700.7342,13.9813,701.0494,13.4216,701.4621,12.9022,701.4958,12.2258,701.7412,11.6371,701.8027,11.7854,702.2569,11.2153,702.8297,10.9316,703.5759,11.0664,704.003,10.4308,704.6875,10.4167" style="stroke:#333333;stroke-width:1.0416666666666667;"/><text fill="#2E2E2E" font-family="Segoe Print" font-size="12.5" lengthAdjust="spacing" textLength="83.3333" x="713.0208" y="35.0016">&#23458;&#25143;&#31471; (Client)</text><polygon fill="none" points="704.6875,345.4102,704.6875,345.6291,714.6875,344.9786,724.6875,345.6115,734.6875,345.8265,744.6875,344.667,754.6875,345.3292,764.6875,344.9659,774.6875,345.0107,784.6875,345.3392,794.6875,344.69,804.6875,345.4102,804.7611,345.5878,805.193,345.452,805.8397,345.8349,806.5127,346.281,807.0331,346.359,807.6338,346.6305,807.6557,346.6396,807.8676,347.2156,808.1792,347.8328,808.4427,348.4301,808.798,349.0654,808.8542,349.5768,809.0872,349.5768,809.09,355.8545,808.9426,362.1322,809.0151,368.4098,809.098,374.6875,808.8542,380.9652,808.6228,380.8693,808.8277,381.6446,808.2709,382.1043,808.2932,382.8039,807.7191,383.2564,807.6338,383.9114,807.6247,383.8895,807.1431,384.3934,806.4488,384.384,805.88,384.6775,805.3218,384.9964,804.6875,385.1318,804.6875,385.5654,794.6875,385.1278,784.6875,385.431,774.6875,384.5356,764.6875,385.4281,754.6875,385.7029,744.6875,385.5949,734.6875,385.7704,724.6875,384.6286,714.6875,384.4525,704.6875,385.1318,704.6049,384.9325,704.0904,384.8689,703.4829,384.5806,703.0103,384.6182,702.3073,384.0995,701.7412,383.9114,701.6312,383.8659,701.5704,383.3525,701.0392,382.6443,700.8425,382.0747,700.9731,381.6407,700.5208,380.9652,700.6721,380.9652,700.7759,374.6875,700.4091,368.4098,700.6317,362.1322,700.7258,355.8545,700.5208,349.5768,700.3693,349.5141,700.7342,348.9748,701.0494,348.4151,701.4621,347.8957,701.4958,347.2192,701.7412,346.6305,701.8027,346.7789,702.2569,346.2088,702.8297,345.9251,703.5759,346.0599,704.003,345.4242,704.6875,345.4102" style="stroke:#333333;stroke-width:1.0416666666666667;"/><text fill="#2E2E2E" font-family="Segoe Print" font-size="12.5" lengthAdjust="spacing" textLength="83.3333" x="713.0208" y="369.9951">&#23458;&#25143;&#31471; (Client)</text><polygon fill="none" points="906.7708,10.4167,906.7708,10.6356,917.3958,9.9851,928.0208,10.618,938.6458,10.833,949.2708,9.6735,959.8958,10.3357,970.5208,9.9724,981.1458,10.0172,991.7708,10.3457,1002.3958,9.6965,1013.0208,10.9934,1023.6458,9.7601,1034.2708,10.2107,1044.8958,10.8666,1055.5208,10.3273,1066.1458,10.4877,1076.7708,10.3834,1087.3958,10.6026,1098.0208,10.6658,1108.6458,11.0268,1119.2708,10.4167,1119.36,10.6319,1119.9503,10.8786,1120.4832,10.9865,1121.1002,11.2976,1121.7212,11.6182,1122.2171,11.6371,1121.9858,11.5412,1122.6788,12.3165,1122.6102,12.7762,1123.1206,13.4758,1123.0346,13.9283,1123.4375,14.5833,1123.4137,14.5833,1123.695,20.861,1123.4206,27.1387,1123.4741,33.4163,1123.5551,39.694,1123.4375,45.9717,1123.571,46.027,1123.1922,46.5604,1123.0415,47.1884,1122.5216,47.6634,1122.5524,48.3665,1122.2171,48.918,1122.29,49.0938,1121.6869,49.3046,1121.1201,49.6028,1120.3852,49.4952,1119.7734,49.6851,1119.2708,50.1383,1119.2708,49.4911,1108.6458,50.077,1098.0208,49.9336,1087.3958,50.8481,1076.7708,49.9564,1066.1458,49.781,1055.5208,50.3761,1044.8958,49.4437,1034.2708,49.5976,1023.6458,50.8143,1013.0208,50.5922,1002.3958,50.9034,991.7708,49.8031,981.1458,50.4708,970.5208,50.7534,959.8958,49.6463,949.2708,50.0385,938.6458,50.2696,928.0208,50.8173,917.3958,50.134,906.7708,50.1383,906.8323,50.2867,906.108,49.7166,905.5023,49.4329,905.07,49.5677,904.3185,48.932,903.8246,48.918,903.9878,48.9856,903.6468,48.3562,903.2505,47.7038,902.9788,47.1032,902.9954,46.6219,902.6042,45.9717,902.5002,45.9717,902.8097,39.694,902.4122,33.4163,902.8186,27.1387,902.7723,20.861,902.6042,14.5833,902.6828,14.6159,902.8634,14.0004,903.3254,13.5014,903.5332,12.8971,903.6348,12.2488,903.8246,11.6371,903.8602,11.7231,904.3965,11.3512,905.0983,11.3787,905.6129,10.9545,906.2045,10.7161,906.7708,10.4167" style="stroke:#333333;stroke-width:1.0416666666666667;"/><text fill="#2E2E2E" font-family="Segoe Print" font-size="12.5" lengthAdjust="spacing" textLength="195.8333" x="915.1042" y="35.0016">&#25480;&#26435;&#26381;&#21153;&#22120; (Authorization Server)</text><polygon fill="none" points="906.7708,345.4102,906.7708,345.6291,917.3958,344.9786,928.0208,345.6115,938.6458,345.8265,949.2708,344.667,959.8958,345.3292,970.5208,344.9659,981.1458,345.0107,991.7708,345.3392,1002.3958,344.69,1013.0208,345.9869,1023.6458,344.7536,1034.2708,345.2041,1044.8958,345.8601,1055.5208,345.3208,1066.1458,345.4812,1076.7708,345.3769,1087.3958,345.5961,1098.0208,345.6593,1108.6458,346.0202,1119.2708,345.4102,1119.36,345.6254,1119.9503,345.8721,1120.4832,345.98,1121.1002,346.2911,1121.7212,346.6117,1122.2171,346.6305,1121.9858,346.5347,1122.6788,347.31,1122.6102,347.7697,1123.1206,348.4692,1123.0346,348.9218,1123.4375,349.5768,1123.4137,349.5768,1123.695,355.8545,1123.4206,362.1322,1123.4741,368.4098,1123.5551,374.6875,1123.4375,380.9652,1123.571,381.0205,1123.1922,381.5539,1123.0415,382.1818,1122.5216,382.6569,1122.5524,383.36,1122.2171,383.9114,1122.29,384.0873,1121.6869,384.2981,1121.1201,384.5963,1120.3852,384.4887,1119.7734,384.6785,1119.2708,385.1318,1119.2708,384.4845,1108.6458,385.0705,1098.0208,384.9271,1087.3958,385.8416,1076.7708,384.9499,1066.1458,384.7745,1055.5208,385.3696,1044.8958,384.4372,1034.2708,384.5911,1023.6458,385.8078,1013.0208,385.5857,1002.3958,385.8969,991.7708,384.7966,981.1458,385.4643,970.5208,385.7469,959.8958,384.6397,949.2708,385.032,938.6458,385.2631,928.0208,385.8108,917.3958,385.1275,906.7708,385.1318,906.8323,385.2802,906.108,384.7101,905.5023,384.4264,905.07,384.5612,904.3185,383.9255,903.8246,383.9114,903.9878,383.9791,903.6468,383.3496,903.2505,382.6973,902.9788,382.0967,902.9954,381.6154,902.6042,380.9652,902.5002,380.9652,902.8097,374.6875,902.4122,368.4098,902.8186,362.1322,902.7723,355.8545,902.6042,349.5768,902.6828,349.6094,902.8634,348.9938,903.3254,348.4949,903.5332,347.8906,903.6348,347.2423,903.8246,346.6305,903.8602,346.7166,904.3965,346.3447,905.0983,346.3722,905.6129,345.948,906.2045,345.7096,906.7708,345.4102" style="stroke:#333333;stroke-width:1.0416666666666667;"/><text fill="#2E2E2E" font-family="Segoe Print" font-size="12.5" lengthAdjust="spacing" textLength="195.8333" x="915.1042" y="369.9951">&#25480;&#26435;&#26381;&#21153;&#22120; (Authorization Server)</text><polygon fill="#333333" points="1000.5208,121.3867,1000.5479,121.4545,1002.5507,122.0865,1004.7124,123.1157,1006.8224,124.0156,1008.7622,124.4901,1010.9375,125.5534,1010.9275,125.5283,1008.7992,126.2492,1006.7214,127.0964,1004.6787,128.0314,1002.515,128.6638,1000.5208,129.7201,1000.6568,129.856,1001.1994,128.732,1002.1389,128.0048,1003.1269,127.3261,1003.8331,126.3657,1004.6875,125.5534,1004.7043,125.5701,1003.8463,124.7122,1003.0647,123.9306,1002.2462,123.1121,1001.498,122.3639,1000.5208,121.3867" style="stroke:#333333;stroke-width:1.0416666666666667;"/><path d="M202.6042,125.5534 L202.6042,125.8453 L213.0479,124.9779 L223.4916,125.8218 L233.9353,126.1085 L244.3791,124.5626 L254.8228,125.4455 L265.2665,124.961 L275.7102,125.0207 L286.154,125.4587 L296.5977,124.5932 L307.0414,126.3223 L317.4851,124.678 L327.9288,125.2787 L338.3726,126.1533 L348.8163,125.4343 L359.26,125.6482 L369.7037,125.509 L380.1475,125.8013 L390.5912,125.8855 L401.0349,126.3668 L411.4786,126.4854 L421.9223,126.4968 L432.3661,125.907 L442.8098,126.1973 L453.2535,126.5287 L463.6972,124.5517 L474.141,126.4958 L484.5847,125.1416 L495.0284,126.2948 L505.4721,124.8659 L515.9159,125.4582 L526.3596,126.5834 L536.8033,125.4857 L547.247,125.6996 L557.6907,126.0237 L568.1345,126.1315 L578.5782,125.548 L589.0219,125.9523 L599.4656,124.7584 L609.9094,125.9484 L620.3531,126.3148 L630.7968,126.1708 L641.2405,126.4048 L651.6843,124.8824 L662.128,124.6476 L672.5717,124.6903 L683.0154,125.4716 L693.4591,125.2804 L703.9029,126.4998 L714.3466,125.3108 L724.7903,125.0769 L735.234,125.8704 L745.6778,124.6272 L756.1215,124.8324 L766.5652,126.4547 L777.0089,126.1585 L787.4527,126.5735 L797.8964,125.1064 L808.3401,125.9967 L818.7838,126.3734 L829.2275,124.8973 L839.6713,125.4202 L850.115,125.7284 L860.5587,126.4586 L871.0024,125.5476 L881.4462,126.1958 L891.8899,124.7842 L902.3336,124.6128 L912.7773,126.2528 L923.221,124.5576 L933.6648,126.2603 L944.1085,125.8404 L954.5522,125.1813 L964.9959,125.062 L975.4397,126.1906 L985.8834,125.1376 L996.3271,126.3754 L1006.7708,125.5534 " fill="none" style="stroke:#333333;stroke-width:3.125;"/><text fill="#2E2E2E" font-family="Segoe Print" font-size="12.5" lengthAdjust="spacing" textLength="265.625" x="475" y="115.625">1.&#37325;&#23450;&#21521;&#21040;&#25480;&#26435;&#31471;&#28857; (endpoint)&#65292;&#21551;&#21160;&#25480;&#26435;&#27969;&#31243;</text><path d="M15.625,70.9717 L16.2088,70.9717 L14.4741,81.6488 L16.1619,92.3258 L16.7352,103.0029 L13.6433,113.68 L15.4091,124.3571 L14.4403,135.0342 L14.5597,145.7113 L15.625,156.3883 L19.7917,160.555 L19.7917,160.3657 L30.0245,158.6345 L40.2574,162.0929 L50.4902,158.8042 L60.723,160.0057 L70.9559,161.7549 L81.1887,160.3167 L91.4216,160.7446 L101.6544,160.4663 L111.8873,161.0509 L122.1201,161.2193 L132.3529,162.1819 L142.5858,162.4191 L152.8186,162.4418 L163.0515,161.2623 L173.2843,161.8427 L183.5172,162.5057 L193.75,160.555 L197.9167,156.3883 L195.9134,156.3883 L199.8014,146.4925 L197.093,136.5967 L199.3995,126.7008 L196.5416,116.805 L197.7264,106.9092 L199.9767,97.0133 L197.7813,87.1175 L197.9167,77.2217 L197.9856,77.2906 L196.055,75.3601 L194.0225,73.3275 L191.6641,70.9691 L189.7714,69.0764 L187.5,66.805 L187.5,65.215 L177.0182,67.595 L166.5365,68.3278 L156.0547,68.0398 L145.5729,68.5079 L135.0911,65.4631 L124.6094,64.9934 L114.1276,65.0789 L103.6458,66.6415 L93.1641,66.2591 L82.6823,68.6978 L72.2005,66.3198 L61.7188,65.8521 L51.237,67.4391 L40.7552,64.9527 L30.2734,65.363 L19.7917,66.805 L15.625,70.9717 " fill="#17A2B8" style="stroke:#1592A6;stroke-width:1.0416666666666667;"/><path d="M187.5,66.805 L188.1009,66.805 L187.9034,68.4717 L188.1801,70.1383 L187.202,71.805 L187.7956,73.4717 L187.5,75.1383 L189.5833,77.2217 L189.5833,77.7684 L191.25,76.7843 L192.9167,77.1329 L194.5833,77.3383 L196.25,77.8252 L197.9167,77.2217 L197.9139,77.2189 L196.1362,75.4412 L193.3874,72.6924 L191.2232,70.5283 L189.9131,69.2181 L187.5,66.805 " fill="#17A2B8" style="stroke:#1592A6;stroke-width:1.0416666666666667;"/><text fill="#FFFFFF" font-family="Segoe Print" font-size="12.5" lengthAdjust="spacing" textLength="150" x="27.0833" y="89.3066">response_type: token (R)</text><text fill="#FFFFFF" font-family="Segoe Print" font-size="12.5" lengthAdjust="spacing" textLength="69.7917" x="27.0833" y="104.0283">client_id (R)</text><text fill="#FFFFFF" font-family="Segoe Print" font-size="12.5" lengthAdjust="spacing" textLength="68.75" x="27.0833" y="118.75">redirect_uri</text><text fill="#FFFFFF" font-family="Segoe Print" font-size="12.5" lengthAdjust="spacing" textLength="35.4167" x="27.0833" y="133.4717">scope</text><text fill="#FFFFFF" font-family="Segoe Print" font-size="12.5" lengthAdjust="spacing" textLength="57.2917" x="27.0833" y="148.1934">state (RE)</text><polygon fill="#333333" points="1000.5208,193.6768,1000.5479,193.7445,1002.5507,194.3765,1004.7124,195.4057,1006.8224,196.3056,1008.7622,196.7801,1010.9375,197.8434,1010.9275,197.8184,1008.7992,198.5393,1006.7214,199.3865,1004.6787,200.3215,1002.515,200.9539,1000.5208,202.0101,1000.6568,202.146,1001.1994,201.022,1002.1389,200.2949,1003.1269,199.6161,1003.8331,198.6557,1004.6875,197.8434,1004.7043,197.8602,1003.8463,197.0022,1003.0647,196.2206,1002.2462,195.4021,1001.498,194.6539,1000.5208,193.6768" style="stroke:#333333;stroke-width:1.0416666666666667;"/><path d="M202.6042,197.8434 L202.6042,198.1353 L213.0479,197.268 L223.4916,198.1119 L233.9353,198.3985 L244.3791,196.8526 L254.8228,197.7355 L265.2665,197.2511 L275.7102,197.3108 L286.154,197.7488 L296.5977,196.8832 L307.0414,198.6124 L317.4851,196.968 L327.9288,197.5687 L338.3726,198.4434 L348.8163,197.7243 L359.26,197.9382 L369.7037,197.7991 L380.1475,198.0914 L390.5912,198.1756 L401.0349,198.6569 L411.4786,198.7754 L421.9223,198.7868 L432.3661,198.1971 L442.8098,198.4873 L453.2535,198.8187 L463.6972,196.8418 L474.141,198.7858 L484.5847,197.4316 L495.0284,198.5848 L505.4721,197.1559 L515.9159,197.7483 L526.3596,198.8734 L536.8033,197.7757 L547.247,197.9897 L557.6907,198.3137 L568.1345,198.4215 L578.5782,197.838 L589.0219,198.2423 L599.4656,197.0484 L609.9094,198.2384 L620.3531,198.6048 L630.7968,198.4608 L641.2405,198.6948 L651.6843,197.1725 L662.128,196.9376 L672.5717,196.9804 L683.0154,197.7616 L693.4591,197.5705 L703.9029,198.7898 L714.3466,197.6008 L724.7903,197.367 L735.234,198.1605 L745.6778,196.9173 L756.1215,197.1224 L766.5652,198.7447 L777.0089,198.4485 L787.4527,198.8636 L797.8964,197.3965 L808.3401,198.2868 L818.7838,198.6635 L829.2275,197.1873 L839.6713,197.7103 L850.115,198.0184 L860.5587,198.7486 L871.0024,197.8376 L881.4462,198.4859 L891.8899,197.0743 L902.3336,196.9028 L912.7773,198.5429 L923.221,196.8477 L933.6648,198.5503 L944.1085,198.1304 L954.5522,197.4713 L964.9959,197.3521 L975.4397,198.4806 L985.8834,197.4277 L996.3271,198.6655 L1006.7708,197.8434 " fill="none" style="stroke:#333333;stroke-width:3.125;"/><text fill="#2E2E2E" font-family="Segoe Print" font-size="12.5" lengthAdjust="spacing" textLength="250" x="482.8125" y="187.915">2.&#36164;&#28304;&#25152;&#26377;&#32773;&#36523;&#20221;&#35748;&#35777;&#65292;&#24182;&#20915;&#23450;&#26159;&#21542;&#25480;&#20104;&#35775;&#38382;</text><polygon fill="#333333" points="214.0625,258.606,214.0896,258.6737,211.9257,259.3057,209.9208,260.3349,207.864,261.2348,205.6372,261.7093,203.6458,262.7726,203.6358,262.7476,205.6742,263.4685,207.763,264.3157,209.887,265.2507,211.89,265.8831,214.0625,266.9393,214.1984,267.0752,213.0744,265.9512,212.3473,265.2241,211.6686,264.5453,210.7081,263.5849,209.8958,262.7726,209.9126,262.7894,210.7213,261.9314,211.6063,261.1498,212.4545,260.3313,213.373,259.5831,214.0625,258.606" style="stroke:#333333;stroke-width:1.0416666666666667;"/><path d="M207.8125,262.7726 L207.8125,263.0645 L218.2562,262.1972 L228.6999,263.0411 L239.1437,263.3277 L249.5874,261.7818 L260.0311,262.6647 L270.4748,262.1803 L280.9186,262.24 L291.3623,262.678 L301.806,261.8124 L312.2497,263.5416 L322.6935,261.8972 L333.1372,262.4979 L343.5809,263.3726 L354.0246,262.6535 L364.4683,262.8674 L374.9121,262.7283 L385.3558,263.0206 L395.7995,263.1048 L406.2432,263.5861 L416.687,263.7046 L427.1307,263.716 L437.5744,263.1263 L448.0181,263.4165 L458.4619,263.7479 L468.9056,261.771 L479.3493,263.715 L489.793,262.3608 L500.2367,263.514 L510.6805,262.0851 L521.1242,262.6775 L531.5679,263.8026 L542.0116,262.7049 L552.4554,262.9189 L562.8991,263.2429 L573.3428,263.3507 L583.7865,262.7672 L594.2302,263.1715 L604.674,261.9776 L615.1177,263.1676 L625.5614,263.534 L636.0051,263.39 L646.4489,263.624 L656.8926,262.1017 L667.3363,261.8668 L677.78,261.9096 L688.2238,262.6908 L698.6675,262.4997 L709.1112,263.719 L719.5549,262.53 L729.9986,262.2962 L740.4424,263.0897 L750.8861,261.8465 L761.3298,262.0516 L771.7735,263.6739 L782.2173,263.3777 L792.661,263.7927 L803.1047,262.3257 L813.5484,263.216 L823.9922,263.5927 L834.4359,262.1165 L844.8796,262.6395 L855.3233,262.9476 L865.767,263.6778 L876.2108,262.7668 L886.6545,263.4151 L897.0982,262.0035 L907.5419,261.832 L917.9857,263.4721 L928.4294,261.7769 L938.8731,263.4795 L949.3168,263.0596 L959.7606,262.4005 L970.2043,262.2813 L980.648,263.4098 L991.0917,262.3569 L1001.5354,263.5947 L1011.9792,262.7726 " fill="none" style="stroke:#333333;stroke-width:3.125;"/><text fill="#2E2E2E" font-family="Segoe Print" font-size="12.5" lengthAdjust="spacing" textLength="214.5833" x="500.5208" y="252.8442">&#36820;&#22238;&#21253;&#21547; Access Token &#30340;&#37325;&#23450;&#21521; URI</text><path d="M1017.7083,215.5518 L1018.2922,215.5518 L1016.5574,225.6708 L1018.2452,235.7899 L1018.8186,245.9089 L1015.7267,256.0279 L1017.4925,266.147 L1016.5236,276.266 L1017.7083,286.3851 L1021.875,290.5518 L1021.875,289.4865 L1032.4275,290.3624 L1042.9801,288.6313 L1053.5326,292.0897 L1064.0851,288.801 L1074.6377,290.0024 L1085.1902,291.7516 L1095.7428,290.3135 L1106.2953,290.7413 L1116.8478,290.463 L1127.4004,291.0477 L1137.9529,291.216 L1148.5054,292.1787 L1159.058,292.4158 L1169.6105,292.4386 L1180.163,291.2591 L1190.7156,291.8395 L1201.2681,292.5024 L1211.8207,288.5485 L1222.3732,292.4365 L1232.9257,289.7281 L1243.4783,292.0346 L1254.0308,289.1767 L1264.5833,290.5518 L1268.75,286.3851 L1268.5597,286.3851 L1270.81,275.6212 L1268.6146,264.8573 L1269.0425,254.0934 L1269.6906,243.3295 L1269.9062,232.5656 L1268.75,221.8018 L1268.7474,221.7992 L1266.8547,219.9065 L1264.2086,217.2603 L1262.6862,215.738 L1260.7756,213.8273 L1258.3333,211.3851 L1258.3333,212.6199 L1248.0525,213.0879 L1237.7717,210.0432 L1227.4909,209.5735 L1217.2101,209.659 L1206.9293,211.2215 L1196.6486,210.8392 L1186.3678,213.2779 L1176.087,210.8999 L1165.8062,210.4322 L1155.5254,212.0192 L1145.2446,209.5328 L1134.9638,209.9431 L1124.683,213.1877 L1114.4022,212.5953 L1104.1214,213.4253 L1093.8406,210.4912 L1083.5598,212.2718 L1073.279,213.0251 L1062.9982,210.0729 L1052.7174,211.1188 L1042.4366,211.735 L1032.1558,213.1955 L1021.875,211.3851 L1017.7083,215.5518 " fill="#17A2B8" style="stroke:#1592A6;stroke-width:1.0416666666666667;"/><path d="M1258.3333,211.3851 L1258.3295,211.3851 L1258.7616,213.0518 L1257.8206,214.7184 L1257.7062,216.3851 L1258.7996,218.0518 L1258.3333,219.7184 L1260.4167,221.8018 L1260.4167,221.1379 L1262.0833,222.273 L1263.75,221.9931 L1265.4167,221.5537 L1267.0833,221.4742 L1268.75,221.8018 L1269.0504,222.1021 L1266.4707,219.5224 L1264.9708,218.0226 L1262.1381,215.1899 L1260.8209,213.8727 L1258.3333,211.3851 " fill="#17A2B8" style="stroke:#1592A6;stroke-width:1.0416666666666667;"/><text fill="#FFFFFF" font-family="Segoe Print" font-size="12.5" lengthAdjust="spacing" textLength="218.75" x="1029.1667" y="233.8867">redirect_uri: client.abc.com/callback</text><text fill="#FFFFFF" font-family="Segoe Print" font-size="12.5" lengthAdjust="spacing" textLength="4.1667" x="1029.1667" y="248.6084">&#160;</text><text fill="#FFFFFF" font-family="Segoe Print" font-size="12.5" lengthAdjust="spacing" textLength="100" x="1029.1667" y="263.3301">access_token (R)</text><text fill="#FFFFFF" font-family="Segoe Print" font-size="12.5" lengthAdjust="spacing" textLength="50" x="1029.1667" y="278.0518">state (R)</text><polygon fill="#333333" points="742.1875,323.5352,742.2146,323.6029,744.2174,324.2349,746.3791,325.2641,748.489,326.164,750.4288,326.6385,752.6042,327.7018,752.5941,327.6768,750.4658,328.3977,748.388,329.2449,746.3454,330.1799,744.1817,330.8123,742.1875,331.8685,742.3234,332.0044,742.8661,330.8804,743.8056,330.1533,744.7936,329.4745,745.4998,328.5141,746.3542,327.7018,746.3709,327.7186,745.513,326.8606,744.7313,326.079,743.9129,325.2605,743.1646,324.5123,742.1875,323.5352" style="stroke:#333333;stroke-width:1.0416666666666667;"/><path d="M202.6042,327.7018 L202.6042,327.9937 L213.101,327.1264 L223.5978,327.9703 L234.0946,328.2569 L244.5913,326.711 L255.0881,327.5939 L265.5849,327.1095 L276.0817,327.1692 L286.5785,327.6072 L297.0753,326.7416 L307.5721,328.4708 L318.0689,326.8264 L328.5657,327.4271 L339.0625,328.3017 L349.5593,327.5827 L360.0561,327.7966 L370.5529,327.6575 L381.0497,327.9498 L391.5465,328.034 L402.0433,328.5153 L412.5401,328.6338 L423.0369,328.6452 L433.5337,328.0555 L444.0304,328.3457 L454.5272,328.6771 L465.024,326.7002 L475.5208,328.6442 L486.0176,327.29 L496.5144,328.4432 L507.0112,327.0143 L517.508,327.6067 L528.0048,328.7318 L538.5016,327.6341 L548.9984,327.8481 L559.4952,328.1721 L569.992,328.2799 L580.4888,327.6964 L590.9856,328.1007 L601.4824,326.9068 L611.9792,328.0968 L622.476,328.4632 L632.9728,328.3192 L643.4696,328.5532 L653.9663,327.0309 L664.4631,326.796 L674.9599,326.8388 L685.4567,327.62 L695.9535,327.4289 L706.4503,328.6482 L716.9471,327.4592 L727.4439,327.2254 L737.9407,328.0189 L748.4375,327.7018 " fill="none" style="stroke:#333333;stroke-width:3.125;"/><text fill="#2E2E2E" font-family="Segoe Print" font-size="12.5" lengthAdjust="spacing" textLength="516.6667" x="220.3125" y="317.7734">3.&#37325;&#23450;&#21521;&#21040; client.abc.com/callback?access_token=&lt;Access Token&gt;&amp;state=&lt;State&gt;&#12290;</text><!--SRC=[XLDRJnD157wVNp5YOje7ghq9De2fH1CIVIdot0pJqtRIPQREJYNuL12m89YQaAY89bvYcf2q9WODeE77o6oN9_-2msw5BgNrORDxCj_vBkVCsYN6oqIIEKlG4kIm51MUeq9oa3Xw0zaNZcruL05EuG7ODYb0sc85ZYbm1R87IwGKyvF24X9VJH8wGkENG-u9hZgm-I9Jq8CotufHLYPStI6qLF0yTZhYjnAnnEYWbYxwv0YbesGWlv0va8Ev2LL2_jUqXmhGzL7tWHTpAKcuRM1cj7sNS9_bpSCXe4BoiuGcUdguKD0Zaa_4RoQJbs9xyg4hgWXpWEqIA5fS61OLPHbjXBgcXuVQMmsdzkFuy5Exlef3CxQvHUc2oH0UmiJ65LDx9VOSusYmMJS_ckRsRWk79YrsraMzxqvBBDZYlAWvxvuwEvjw_OD-qy2XT4KLXMHFY6A2uscGZq7wDCIS-7M7AeuGEdSqFD65IE5evEJPfcvkw_fBNVlgonXdxQLz70AUAmjcxFtvkQ7hBRtUwDZOMsmtdgFJyM4ByWf9iCk2sv1L2sL8OILAm74e4qP-f2pBUPM479D0LROY6RAfA9lRf8WX2MNkXf5HypOom6miukujEmTrPwtgxAovrHNtOFVuy9VR_Eos5azDxd_NgzzC6kTrIzU_6BV71pMtUNJogjdDEZOSO7MFjlJRztfZHTTtSPfIyylZXrw4zlRosNJmJ6RAZonPeQW2OLATtKN8B8rGCNUT4iiorxE44F7uikSZ-PUuRs2VAeNZWStqKxZTBJ0-rcr_ufgdDJusVVgQ-5rTGdy1]--></g></svg>