<?xml version="1.0" encoding="us-ascii" standalone="no"?><svg xmlns="http://www.w3.org/2000/svg" xmlns:xlink="http://www.w3.org/1999/xlink" contentStyleType="text/css" height="561.4583px" preserveAspectRatio="none" style="width:1234px;height:561px;" version="1.1" viewBox="0 0 1234 561" width="1234.375px" zoomAndPan="magnify"><defs/><g><path d="M197.9167,51.18 L198.2086,51.18 L197.3412,61.6533 L198.1851,72.1265 L198.4718,82.5998 L196.9258,93.0731 L197.8087,103.5463 L197.3243,114.0196 L197.384,124.4929 L197.822,134.9661 L196.9564,145.4394 L198.6856,155.9126 L197.0413,166.3859 L197.642,176.8592 L198.5166,187.3324 L197.7975,197.8057 L198.0114,208.279 L197.8723,218.7522 L198.1646,229.2255 L198.2488,239.6987 L198.7301,250.172 L198.8487,260.6453 L198.8601,271.1185 L198.2703,281.5918 L198.5605,292.0651 L198.892,302.5383 L196.915,313.0116 L198.859,323.4848 L197.5049,333.9581 L198.6581,344.4314 L197.2291,354.9046 L197.8215,365.3779 L198.9467,375.8512 L197.849,386.3244 L198.0629,396.7977 L198.387,407.271 L198.4948,417.7442 L197.9112,428.2175 L198.3156,438.6907 L197.1216,449.164 L198.3116,459.6373 L198.678,470.1105 L198.5341,480.5838 L198.7681,491.0571 L197.2457,501.5303 L197.9167,512.0036 " fill="none" style="stroke:#555555;stroke-width:1.0416666666666667;stroke-dasharray:5.0,5.0;"/><path d="M707.8125,51.18 L708.1044,51.18 L707.2371,61.6533 L708.081,72.1265 L708.3676,82.5998 L706.8217,93.0731 L707.7046,103.5463 L707.2201,114.0196 L707.2799,124.4929 L707.7178,134.9661 L706.8523,145.4394 L708.5814,155.9126 L706.9371,166.3859 L707.5378,176.8592 L708.4124,187.3324 L707.6934,197.8057 L707.9073,208.279 L707.7681,218.7522 L708.0605,229.2255 L708.1446,239.6987 L708.626,250.172 L708.7445,260.6453 L708.7559,271.1185 L708.1661,281.5918 L708.4564,292.0651 L708.7878,302.5383 L706.8109,313.0116 L708.7549,323.4848 L707.4007,333.9581 L708.5539,344.4314 L707.125,354.9046 L707.7174,365.3779 L708.8425,375.8512 L707.7448,386.3244 L707.9588,396.7977 L708.2828,407.271 L708.3906,417.7442 L707.8071,428.2175 L708.2114,438.6907 L707.0175,449.164 L708.2075,459.6373 L708.5739,470.1105 L708.4299,480.5838 L708.6639,491.0571 L707.1416,501.5303 L707.8125,512.0036 " fill="none" style="stroke:#555555;stroke-width:1.0416666666666667;stroke-dasharray:5.0,5.0;"/><path d="M966.1458,51.18 L966.4378,51.18 L965.5704,61.6533 L966.4143,72.1265 L966.7009,82.5998 L965.155,93.0731 L966.0379,103.5463 L965.5535,114.0196 L965.6132,124.4929 L966.0512,134.9661 L965.1856,145.4394 L966.9148,155.9126 L965.2704,166.3859 L965.8712,176.8592 L966.7458,187.3324 L966.0267,197.8057 L966.2406,208.279 L966.1015,218.7522 L966.3938,229.2255 L966.478,239.6987 L966.9593,250.172 L967.0779,260.6453 L967.0892,271.1185 L966.4995,281.5918 L966.7897,292.0651 L967.1212,302.5383 L965.1442,313.0116 L967.0882,323.4848 L965.734,333.9581 L966.8872,344.4314 L965.4583,354.9046 L966.0507,365.3779 L967.1758,375.8512 L966.0781,386.3244 L966.2921,396.7977 L966.6161,407.271 L966.7239,417.7442 L966.1404,428.2175 L966.5447,438.6907 L965.3508,449.164 L966.5408,459.6373 L966.9072,470.1105 L966.7632,480.5838 L966.9973,491.0571 L965.4749,501.5303 L966.1458,512.0036 " fill="none" style="stroke:#555555;stroke-width:1.0416666666666667;stroke-dasharray:5.0,5.0;"/><polygon fill="none" points="126.0417,10.4167,126.0417,10.6356,136.3839,9.9851,146.7262,10.618,157.0685,10.833,167.4107,9.6735,177.753,10.3357,188.0952,9.9724,198.4375,10.0172,208.7798,10.3457,219.122,9.6965,229.4643,10.9934,239.8065,9.7601,250.1488,10.2107,260.4911,10.8666,270.8333,10.4167,270.8219,10.3892,271.4317,10.6826,272.0076,10.8946,272.6248,11.2062,273.2221,11.4697,273.7796,11.6371,273.9675,11.7149,274.239,12.3155,274.4857,12.9058,274.5935,13.4387,274.9046,14.0557,275,14.5833,275.2438,14.5833,274.7496,20.861,275.2356,27.1387,274.897,33.4163,275.1854,39.694,275,45.9717,274.8412,45.9059,274.7339,46.5518,274.7497,47.2487,274.2521,47.733,274.0575,48.3427,273.7796,48.918,273.8246,49.0266,273.2457,49.2956,272.6006,49.4049,272.05,49.7423,271.3465,49.7106,270.8333,50.1383,270.8333,50.4346,260.4911,50.7094,250.1488,50.6014,239.8065,50.7769,229.4643,49.6351,219.122,49.459,208.7798,49.4911,198.4375,50.077,188.0952,49.9336,177.753,50.8481,167.4107,49.9564,157.0685,49.781,146.7262,50.3761,136.3839,49.4437,126.0417,50.1383,125.9727,49.9718,125.5386,50.1024,124.921,49.7899,124.3715,49.6417,123.6419,49.0588,123.0954,48.918,123.1978,48.9604,123.0407,48.4072,122.4557,47.6767,122.3324,47.1375,122.1595,46.5777,121.875,45.9717,122.1013,45.9717,121.8735,39.694,122.0356,33.4163,121.6827,27.1387,121.6398,20.861,121.875,14.5833,122.0366,14.6503,121.8891,13.8988,122.5264,13.4725,122.6735,12.843,122.7654,12.1907,123.0954,11.6371,123.0484,11.5236,123.7456,11.5401,124.2341,11.0529,124.9418,11.0947,125.379,10.4834,126.0417,10.4167" style="stroke:#333333;stroke-width:1.0416666666666667;"/><text fill="#2E2E2E" font-family="Segoe Print" font-size="12.5" lengthAdjust="spacing" textLength="128.125" x="134.375" y="35.0016">&#29992;&#25143;&#20195;&#29702; (User Agent)</text><polygon fill="none" points="126.0417,510.9619,126.0417,511.1809,136.3839,510.5303,146.7262,511.1633,157.0685,511.3782,167.4107,510.2188,177.753,510.881,188.0952,510.5176,198.4375,510.5624,208.7798,510.8909,219.122,510.2417,229.4643,511.5386,239.8065,510.3054,250.1488,510.7559,260.4911,511.4119,270.8333,510.9619,270.8219,510.9344,271.4317,511.2279,272.0076,511.4398,272.6248,511.7514,273.2221,512.0149,273.7796,512.1823,273.9675,512.2601,274.239,512.8607,274.4857,513.4511,274.5935,513.9839,274.9046,514.6009,275,515.1286,275.2438,515.1286,274.7496,521.4063,275.2356,527.6839,274.897,533.9616,275.1854,540.2393,275,546.5169,274.8412,546.4512,274.7339,547.0971,274.7497,547.794,274.2521,548.2782,274.0575,548.8879,273.7796,549.4632,273.8246,549.5718,273.2457,549.8408,272.6006,549.9501,272.05,550.2876,271.3465,550.2559,270.8333,550.6836,270.8333,550.9798,260.4911,551.2546,250.1488,551.1466,239.8065,551.3222,229.4643,550.1804,219.122,550.0042,208.7798,550.0363,198.4375,550.6223,188.0952,550.4789,177.753,551.3934,167.4107,550.5016,157.0685,550.3262,146.7262,550.9214,136.3839,549.989,126.0417,550.6836,125.9727,550.5171,125.5386,550.6477,124.921,550.3352,124.3715,550.187,123.6419,549.6041,123.0954,549.4632,123.1978,549.5056,123.0407,548.9524,122.4557,548.2219,122.3324,547.6827,122.1595,547.1229,121.875,546.5169,122.1013,546.5169,121.8735,540.2393,122.0356,533.9616,121.6827,527.6839,121.6398,521.4063,121.875,515.1286,122.0366,515.1955,121.8891,514.4441,122.5264,514.0177,122.6735,513.3883,122.7654,512.736,123.0954,512.1823,123.0484,512.0688,123.7456,512.0854,124.2341,511.5981,124.9418,511.6399,125.379,511.0287,126.0417,510.9619" style="stroke:#333333;stroke-width:1.0416666666666667;"/><text fill="#2E2E2E" font-family="Segoe Print" font-size="12.5" lengthAdjust="spacing" textLength="128.125" x="134.375" y="535.5469">&#29992;&#25143;&#20195;&#29702; (User Agent)</text><polygon fill="none" points="657.8125,10.4167,657.8125,10.6356,667.8125,9.9851,677.8125,10.618,687.8125,10.833,697.8125,9.6735,707.8125,10.3357,717.8125,9.9724,727.8125,10.0172,737.8125,10.3457,747.8125,9.6965,757.8125,10.4167,757.8861,10.5943,758.318,10.4586,758.9647,10.8414,759.6377,11.2875,760.1581,11.3655,760.7588,11.6371,760.7807,11.6461,760.9926,12.2221,761.3042,12.8393,761.5677,13.4366,761.923,14.0719,761.9792,14.5833,762.2122,14.5833,762.215,20.861,762.0676,27.1387,762.1401,33.4163,762.223,39.694,761.9792,45.9717,761.7478,45.8759,761.9527,46.6511,761.3959,47.1108,761.4182,47.8104,760.8441,48.2629,760.7588,48.918,760.7497,48.896,760.2681,49.3999,759.5738,49.3905,759.005,49.684,758.4468,50.0029,757.8125,50.1383,757.8125,50.5719,747.8125,50.1343,737.8125,50.4375,727.8125,49.5421,717.8125,50.4346,707.8125,50.7094,697.8125,50.6014,687.8125,50.7769,677.8125,49.6351,667.8125,49.459,657.8125,50.1383,657.7299,49.939,657.2154,49.8754,656.6079,49.5871,656.1353,49.6247,655.4323,49.106,654.8662,48.918,654.7562,48.8724,654.6954,48.359,654.1642,47.6508,653.9675,47.0812,654.0981,46.6472,653.6458,45.9717,653.7971,45.9717,653.9009,39.694,653.5341,33.4163,653.7567,27.1387,653.8508,20.861,653.6458,14.5833,653.4943,14.5206,653.8592,13.9813,654.1744,13.4216,654.5871,12.9022,654.6208,12.2258,654.8662,11.6371,654.9277,11.7854,655.3819,11.2153,655.9547,10.9316,656.7009,11.0664,657.128,10.4308,657.8125,10.4167" style="stroke:#333333;stroke-width:1.0416666666666667;"/><text fill="#2E2E2E" font-family="Segoe Print" font-size="12.5" lengthAdjust="spacing" textLength="83.3333" x="666.1458" y="35.0016">&#23458;&#25143;&#31471; (Client)</text><polygon fill="none" points="657.8125,510.9619,657.8125,511.1809,667.8125,510.5303,677.8125,511.1633,687.8125,511.3782,697.8125,510.2188,707.8125,510.881,717.8125,510.5176,727.8125,510.5624,737.8125,510.8909,747.8125,510.2417,757.8125,510.9619,757.8861,511.1395,758.318,511.0038,758.9647,511.3866,759.6377,511.8327,760.1581,511.9107,760.7588,512.1823,760.7807,512.1914,760.9926,512.7673,761.3042,513.3845,761.5677,513.9818,761.923,514.6171,761.9792,515.1286,762.2122,515.1286,762.215,521.4063,762.0676,527.6839,762.1401,533.9616,762.223,540.2393,761.9792,546.5169,761.7478,546.4211,761.9527,547.1963,761.3959,547.656,761.4182,548.3556,760.8441,548.8082,760.7588,549.4632,760.7497,549.4412,760.2681,549.9452,759.5738,549.9357,759.005,550.2292,758.4468,550.5481,757.8125,550.6836,757.8125,551.1172,747.8125,550.6795,737.8125,550.9828,727.8125,550.0873,717.8125,550.9798,707.8125,551.2546,697.8125,551.1466,687.8125,551.3222,677.8125,550.1804,667.8125,550.0042,657.8125,550.6836,657.7299,550.4843,657.2154,550.4206,656.6079,550.1324,656.1353,550.17,655.4323,549.6512,654.8662,549.4632,654.7562,549.4176,654.6954,548.9043,654.1642,548.1961,653.9675,547.6265,654.0981,547.1924,653.6458,546.5169,653.7971,546.5169,653.9009,540.2393,653.5341,533.9616,653.7567,527.6839,653.8508,521.4063,653.6458,515.1286,653.4943,515.0658,653.8592,514.5266,654.1744,513.9668,654.5871,513.4474,654.6208,512.771,654.8662,512.1823,654.9277,512.3307,655.3819,511.7606,655.9547,511.4769,656.7009,511.6116,657.128,510.976,657.8125,510.9619" style="stroke:#333333;stroke-width:1.0416666666666667;"/><text fill="#2E2E2E" font-family="Segoe Print" font-size="12.5" lengthAdjust="spacing" textLength="83.3333" x="666.1458" y="535.5469">&#23458;&#25143;&#31471; (Client)</text><polygon fill="none" points="859.8958,10.4167,859.8958,10.6356,870.5208,9.9851,881.1458,10.618,891.7708,10.833,902.3958,9.6735,913.0208,10.3357,923.6458,9.9724,934.2708,10.0172,944.8958,10.3457,955.5208,9.6965,966.1458,10.9934,976.7708,9.7601,987.3958,10.2107,998.0208,10.8666,1008.6458,10.3273,1019.2708,10.4877,1029.8958,10.3834,1040.5208,10.6026,1051.1458,10.6658,1061.7708,11.0268,1072.3958,10.4167,1072.485,10.6319,1073.0753,10.8786,1073.6082,10.9865,1074.2252,11.2976,1074.8462,11.6182,1075.3421,11.6371,1075.1108,11.5412,1075.8038,12.3165,1075.7352,12.7762,1076.2456,13.4758,1076.1596,13.9283,1076.5625,14.5833,1076.5387,14.5833,1076.82,20.861,1076.5456,27.1387,1076.5991,33.4163,1076.6801,39.694,1076.5625,45.9717,1076.696,46.027,1076.3172,46.5604,1076.1665,47.1884,1075.6466,47.6634,1075.6774,48.3665,1075.3421,48.918,1075.415,49.0938,1074.8119,49.3046,1074.2451,49.6028,1073.5102,49.4952,1072.8984,49.6851,1072.3958,50.1383,1072.3958,49.4911,1061.7708,50.077,1051.1458,49.9336,1040.5208,50.8481,1029.8958,49.9564,1019.2708,49.781,1008.6458,50.3761,998.0208,49.4437,987.3958,49.5976,976.7708,50.8143,966.1458,50.5922,955.5208,50.9034,944.8958,49.8031,934.2708,50.4708,923.6458,50.7534,913.0208,49.6463,902.3958,50.0385,891.7708,50.2696,881.1458,50.8173,870.5208,50.134,859.8958,50.1383,859.9573,50.2867,859.233,49.7166,858.6273,49.4329,858.195,49.5677,857.4435,48.932,856.9496,48.918,857.1128,48.9856,856.7718,48.3562,856.3755,47.7038,856.1038,47.1032,856.1204,46.6219,855.7292,45.9717,855.6252,45.9717,855.9347,39.694,855.5372,33.4163,855.9436,27.1387,855.8973,20.861,855.7292,14.5833,855.8078,14.6159,855.9884,14.0004,856.4504,13.5014,856.6582,12.8971,856.7598,12.2488,856.9496,11.6371,856.9852,11.7231,857.5215,11.3512,858.2233,11.3787,858.7379,10.9545,859.3295,10.7161,859.8958,10.4167" style="stroke:#333333;stroke-width:1.0416666666666667;"/><text fill="#2E2E2E" font-family="Segoe Print" font-size="12.5" lengthAdjust="spacing" textLength="195.8333" x="868.2292" y="35.0016">&#25480;&#26435;&#26381;&#21153;&#22120; (Authorization Server)</text><polygon fill="none" points="859.8958,510.9619,859.8958,511.1809,870.5208,510.5303,881.1458,511.1633,891.7708,511.3782,902.3958,510.2188,913.0208,510.881,923.6458,510.5176,934.2708,510.5624,944.8958,510.8909,955.5208,510.2417,966.1458,511.5386,976.7708,510.3054,987.3958,510.7559,998.0208,511.4119,1008.6458,510.8726,1019.2708,511.033,1029.8958,510.9286,1040.5208,511.1479,1051.1458,511.211,1061.7708,511.572,1072.3958,510.9619,1072.485,511.1772,1073.0753,511.4239,1073.6082,511.5318,1074.2252,511.8429,1074.8462,512.1635,1075.3421,512.1823,1075.1108,512.0865,1075.8038,512.8617,1075.7352,513.3214,1076.2456,514.021,1076.1596,514.4735,1076.5625,515.1286,1076.5387,515.1286,1076.82,521.4063,1076.5456,527.6839,1076.5991,533.9616,1076.6801,540.2393,1076.5625,546.5169,1076.696,546.5722,1076.3172,547.1057,1076.1665,547.7336,1075.6466,548.2086,1075.6774,548.9117,1075.3421,549.4632,1075.415,549.6391,1074.8119,549.8499,1074.2451,550.148,1073.5102,550.0405,1072.8984,550.2303,1072.3958,550.6836,1072.3958,550.0363,1061.7708,550.6223,1051.1458,550.4789,1040.5208,551.3934,1029.8958,550.5016,1019.2708,550.3262,1008.6458,550.9214,998.0208,549.989,987.3958,550.1428,976.7708,551.3596,966.1458,551.1374,955.5208,551.4487,944.8958,550.3484,934.2708,551.0161,923.6458,551.2986,913.0208,550.1915,902.3958,550.5837,891.7708,550.8148,881.1458,551.3625,870.5208,550.6792,859.8958,550.6836,859.9573,550.832,859.233,550.2619,858.6273,549.9782,858.195,550.1129,857.4435,549.4773,856.9496,549.4632,857.1128,549.5308,856.7718,548.9014,856.3755,548.2491,856.1038,547.6484,856.1204,547.1671,855.7292,546.5169,855.6252,546.5169,855.9347,540.2393,855.5372,533.9616,855.9436,527.6839,855.8973,521.4063,855.7292,515.1286,855.8078,515.1611,855.9884,514.5456,856.4504,514.0466,856.6582,513.4423,856.7598,512.794,856.9496,512.1823,856.9852,512.2683,857.5215,511.8964,858.2233,511.924,858.7379,511.4997,859.3295,511.2614,859.8958,510.9619" style="stroke:#333333;stroke-width:1.0416666666666667;"/><text fill="#2E2E2E" font-family="Segoe Print" font-size="12.5" lengthAdjust="spacing" textLength="195.8333" x="868.2292" y="535.5469">&#25480;&#26435;&#26381;&#21153;&#22120; (Authorization Server)</text><polygon fill="#333333" points="953.6458,121.3867,953.6729,121.4545,955.6757,122.0865,957.8374,123.1157,959.9474,124.0156,961.8872,124.4901,964.0625,125.5534,964.0525,125.5283,961.9242,126.2492,959.8464,127.0964,957.8037,128.0314,955.64,128.6638,953.6458,129.7201,953.7818,129.856,954.3244,128.732,955.2639,128.0048,956.2519,127.3261,956.9581,126.3657,957.8125,125.5534,957.8293,125.5701,956.9713,124.7122,956.1897,123.9306,955.3712,123.1121,954.623,122.3639,953.6458,121.3867" style="stroke:#333333;stroke-width:1.0416666666666667;"/><path d="M198.4375,125.5534 L198.4375,125.8453 L208.8684,124.9779 L219.2994,125.8218 L229.7303,126.1085 L240.1612,124.5626 L250.5922,125.4455 L261.0231,124.961 L271.4541,125.0207 L281.885,125.4587 L292.3159,124.5932 L302.7469,126.3223 L313.1778,124.678 L323.6087,125.2787 L334.0397,126.1533 L344.4706,125.4343 L354.9015,125.6482 L365.3325,125.509 L375.7634,125.8013 L386.1943,125.8855 L396.6253,126.3668 L407.0562,126.4854 L417.4872,126.4968 L427.9181,125.907 L438.349,126.1973 L448.78,126.5287 L459.2109,124.5517 L469.6418,126.4958 L480.0728,125.1416 L490.5037,126.2948 L500.9346,124.8659 L511.3656,125.4582 L521.7965,126.5834 L532.2275,125.4857 L542.6584,125.6996 L553.0893,126.0237 L563.5203,126.1315 L573.9512,125.548 L584.3821,125.9523 L594.8131,124.7584 L605.244,125.9484 L615.6749,126.3148 L626.1059,126.1708 L636.5368,126.4048 L646.9678,124.8824 L657.3987,124.6476 L667.8296,124.6903 L678.2606,125.4716 L688.6915,125.2804 L699.1224,126.4998 L709.5534,125.3108 L719.9843,125.0769 L730.4152,125.8704 L740.8462,124.6272 L751.2771,124.8324 L761.708,126.4547 L772.139,126.1585 L782.5699,126.5735 L793.0009,125.1064 L803.4318,125.9967 L813.8627,126.3734 L824.2937,124.8973 L834.7246,125.4202 L845.1555,125.7284 L855.5865,126.4586 L866.0174,125.5476 L876.4483,126.1958 L886.8793,124.7842 L897.3102,124.6128 L907.7412,126.2528 L918.1721,124.5576 L928.603,126.2603 L939.034,125.8404 L949.4649,125.1813 L959.8958,125.5534 " fill="none" style="stroke:#333333;stroke-width:3.125;"/><text fill="#2E2E2E" font-family="Segoe Print" font-size="12.5" lengthAdjust="spacing" textLength="253.125" x="455.7292" y="115.625">&#37325;&#23450;&#21521;&#21040;&#25480;&#26435;&#31471;&#28857; (endpoint)&#65292;&#21551;&#21160;&#25480;&#26435;&#27969;&#31243;</text><path d="M15.625,70.9717 L16.2088,70.9717 L14.4741,81.6488 L16.1619,92.3258 L16.7352,103.0029 L13.6433,113.68 L15.4091,124.3571 L14.4403,135.0342 L14.5597,145.7113 L15.625,156.3883 L19.7917,160.555 L19.7917,160.3657 L30.4036,158.6345 L41.0156,162.0929 L51.6276,158.8042 L62.2396,160.0057 L72.8516,161.7549 L83.4635,160.3167 L94.0755,160.7446 L104.6875,160.4663 L115.2995,161.0509 L125.9115,161.2193 L136.5234,162.1819 L147.1354,162.4191 L157.7474,162.4418 L168.3594,161.2623 L178.9714,161.8427 L189.5833,160.555 L193.75,156.3883 L195.7006,156.3883 L191.7467,146.4925 L195.6348,136.5967 L192.9264,126.7008 L195.2328,116.805 L192.3749,106.9092 L193.5597,97.0133 L195.81,87.1175 L193.75,77.2217 L193.7181,77.1898 L191.7356,75.2073 L189.805,73.2767 L187.7725,71.2442 L185.4141,68.8858 L183.3333,66.805 L183.3333,67.6028 L173.112,65.215 L162.8906,67.595 L152.6693,68.3278 L142.4479,68.0398 L132.2266,68.5079 L122.0052,65.4631 L111.7839,64.9934 L101.5625,65.0789 L91.3411,66.6415 L81.1198,66.2591 L70.8984,68.6978 L60.6771,66.3198 L50.4557,65.8521 L40.2344,67.4391 L30.013,64.9527 L19.7917,66.805 L15.625,70.9717 " fill="#17A2B8" style="stroke:#1592A6;stroke-width:1.0416666666666667;"/><path d="M183.3333,66.805 L182.8527,66.805 L183.9342,68.4717 L183.7367,70.1383 L184.0134,71.805 L183.0354,73.4717 L183.3333,75.1383 L185.4167,77.2217 L185.4167,77.5172 L187.0833,77.7684 L188.75,76.7843 L190.4167,77.1329 L192.0833,77.3383 L193.75,77.2217 L194.1767,77.6484 L191.6639,75.1356 L189.8862,73.3579 L187.1374,70.6091 L184.9732,68.4449 L183.3333,66.805 " fill="#17A2B8" style="stroke:#1592A6;stroke-width:1.0416666666666667;"/><text fill="#FFFFFF" font-family="Segoe Print" font-size="12.5" lengthAdjust="spacing" textLength="145.8333" x="27.0833" y="89.3066">response_type: code (R)</text><text fill="#FFFFFF" font-family="Segoe Print" font-size="12.5" lengthAdjust="spacing" textLength="69.7917" x="27.0833" y="104.0283">client_id (R)</text><text fill="#FFFFFF" font-family="Segoe Print" font-size="12.5" lengthAdjust="spacing" textLength="68.75" x="27.0833" y="118.75">redirect_uri</text><text fill="#FFFFFF" font-family="Segoe Print" font-size="12.5" lengthAdjust="spacing" textLength="35.4167" x="27.0833" y="133.4717">scope</text><text fill="#FFFFFF" font-family="Segoe Print" font-size="12.5" lengthAdjust="spacing" textLength="57.2917" x="27.0833" y="148.1934">state (RE)</text><polygon fill="#333333" points="953.6458,193.6768,953.6729,193.7445,955.6757,194.3765,957.8374,195.4057,959.9474,196.3056,961.8872,196.7801,964.0625,197.8434,964.0525,197.8184,961.9242,198.5393,959.8464,199.3865,957.8037,200.3215,955.64,200.9539,953.6458,202.0101,953.7818,202.146,954.3244,201.022,955.2639,200.2949,956.2519,199.6161,956.9581,198.6557,957.8125,197.8434,957.8293,197.8602,956.9713,197.0022,956.1897,196.2206,955.3712,195.4021,954.623,194.6539,953.6458,193.6768" style="stroke:#333333;stroke-width:1.0416666666666667;"/><path d="M198.4375,197.8434 L198.4375,198.1353 L208.8684,197.268 L219.2994,198.1119 L229.7303,198.3985 L240.1612,196.8526 L250.5922,197.7355 L261.0231,197.2511 L271.4541,197.3108 L281.885,197.7488 L292.3159,196.8832 L302.7469,198.6124 L313.1778,196.968 L323.6087,197.5687 L334.0397,198.4434 L344.4706,197.7243 L354.9015,197.9382 L365.3325,197.7991 L375.7634,198.0914 L386.1943,198.1756 L396.6253,198.6569 L407.0562,198.7754 L417.4872,198.7868 L427.9181,198.1971 L438.349,198.4873 L448.78,198.8187 L459.2109,196.8418 L469.6418,198.7858 L480.0728,197.4316 L490.5037,198.5848 L500.9346,197.1559 L511.3656,197.7483 L521.7965,198.8734 L532.2275,197.7757 L542.6584,197.9897 L553.0893,198.3137 L563.5203,198.4215 L573.9512,197.838 L584.3821,198.2423 L594.8131,197.0484 L605.244,198.2384 L615.6749,198.6048 L626.1059,198.4608 L636.5368,198.6948 L646.9678,197.1725 L657.3987,196.9376 L667.8296,196.9804 L678.2606,197.7616 L688.6915,197.5705 L699.1224,198.7898 L709.5534,197.6008 L719.9843,197.367 L730.4152,198.1605 L740.8462,196.9173 L751.2771,197.1224 L761.708,198.7447 L772.139,198.4485 L782.5699,198.8636 L793.0009,197.3965 L803.4318,198.2868 L813.8627,198.6635 L824.2937,197.1873 L834.7246,197.7103 L845.1555,198.0184 L855.5865,198.7486 L866.0174,197.8376 L876.4483,198.4859 L886.8793,197.0743 L897.3102,196.9028 L907.7412,198.5429 L918.1721,196.8477 L928.603,198.5503 L939.034,198.1304 L949.4649,197.4713 L959.8958,197.8434 " fill="none" style="stroke:#333333;stroke-width:3.125;"/><text fill="#2E2E2E" font-family="Segoe Print" font-size="12.5" lengthAdjust="spacing" textLength="237.5" x="463.5417" y="187.915">&#36164;&#28304;&#25152;&#26377;&#32773;&#36523;&#20221;&#35748;&#35777;&#65292;&#24182;&#20915;&#23450;&#26159;&#21542;&#25480;&#20104;&#35775;&#38382;</text><polygon fill="#333333" points="209.8958,258.606,209.9229,258.6737,207.7591,259.3057,205.7541,260.3349,203.6974,261.2348,201.4705,261.7093,199.4792,262.7726,199.4691,262.7476,201.5075,263.4685,203.5964,264.3157,205.7204,265.2507,207.7233,265.8831,209.8958,266.9393,210.0318,267.0752,208.9078,265.9512,208.1806,265.2241,207.5019,264.5453,206.5414,263.5849,205.7292,262.7726,205.7459,262.7894,206.5547,261.9314,207.4397,261.1498,208.2879,260.3313,209.2063,259.5831,209.8958,258.606" style="stroke:#333333;stroke-width:1.0416666666666667;"/><path d="M203.6458,262.7726 L203.6458,263.0645 L214.0768,262.1972 L224.5077,263.0411 L234.9386,263.3277 L245.3696,261.7818 L255.8005,262.6647 L266.2314,262.1803 L276.6624,262.24 L287.0933,262.678 L297.5243,261.8124 L307.9552,263.5416 L318.3861,261.8972 L328.8171,262.4979 L339.248,263.3726 L349.6789,262.6535 L360.1099,262.8674 L370.5408,262.7283 L380.9717,263.0206 L391.4027,263.1048 L401.8336,263.5861 L412.2646,263.7046 L422.6955,263.716 L433.1264,263.1263 L443.5574,263.4165 L453.9883,263.7479 L464.4192,261.771 L474.8502,263.715 L485.2811,262.3608 L495.712,263.514 L506.143,262.0851 L516.5739,262.6775 L527.0049,263.8026 L537.4358,262.7049 L547.8667,262.9189 L558.2977,263.2429 L568.7286,263.3507 L579.1595,262.7672 L589.5905,263.1715 L600.0214,261.9776 L610.4523,263.1676 L620.8833,263.534 L631.3142,263.39 L641.7451,263.624 L652.1761,262.1017 L662.607,261.8668 L673.038,261.9096 L683.4689,262.6908 L693.8998,262.4997 L704.3308,263.719 L714.7617,262.53 L725.1926,262.2962 L735.6236,263.0897 L746.0545,261.8465 L756.4854,262.0516 L766.9164,263.6739 L777.3473,263.3777 L787.7783,263.7927 L798.2092,262.3257 L808.6401,263.216 L819.0711,263.5927 L829.502,262.1165 L839.9329,262.6395 L850.3639,262.9476 L860.7948,263.6778 L871.2257,262.7668 L881.6567,263.4151 L892.0876,262.0035 L902.5186,261.832 L912.9495,263.4721 L923.3804,261.7769 L933.8114,263.4795 L944.2423,263.0596 L954.6732,262.4005 L965.1042,262.7726 " fill="none" style="stroke:#333333;stroke-width:3.125;"/><text fill="#2E2E2E" font-family="Segoe Print" font-size="12.5" lengthAdjust="spacing" textLength="246.875" x="458.8542" y="252.8442">&#36820;&#22238;&#21253;&#21547; Authorization Code &#30340;&#37325;&#23450;&#21521; URI</text><path d="M970.8333,215.5518 L971.4172,215.5518 L969.6824,225.6708 L971.3702,235.7899 L971.9436,245.9089 L968.8517,256.0279 L970.6175,266.147 L969.6486,276.266 L970.8333,286.3851 L975,290.5518 L975,289.4865 L985.5525,290.3624 L996.1051,288.6313 L1006.6576,292.0897 L1017.2101,288.801 L1027.7627,290.0024 L1038.3152,291.7516 L1048.8678,290.3135 L1059.4203,290.7413 L1069.9728,290.463 L1080.5254,291.0477 L1091.0779,291.216 L1101.6304,292.1787 L1112.183,292.4158 L1122.7355,292.4386 L1133.288,291.2591 L1143.8406,291.8395 L1154.3931,292.5024 L1164.9457,288.5485 L1175.4982,292.4365 L1186.0507,289.7281 L1196.6033,292.0346 L1207.1558,289.1767 L1217.7083,290.5518 L1221.875,286.3851 L1221.6847,286.3851 L1223.935,275.6212 L1221.7396,264.8573 L1222.1675,254.0934 L1222.8156,243.3295 L1223.0312,232.5656 L1221.875,221.8018 L1221.8724,221.7992 L1219.9797,219.9065 L1217.3336,217.2603 L1215.8112,215.738 L1213.9006,213.8273 L1211.4583,211.3851 L1211.4583,212.6199 L1201.1775,213.0879 L1190.8967,210.0432 L1180.6159,209.5735 L1170.3351,209.659 L1160.0543,211.2215 L1149.7736,210.8392 L1139.4928,213.2779 L1129.212,210.8999 L1118.9312,210.4322 L1108.6504,212.0192 L1098.3696,209.5328 L1088.0888,209.9431 L1077.808,213.1877 L1067.5272,212.5953 L1057.2464,213.4253 L1046.9656,210.4912 L1036.6848,212.2718 L1026.404,213.0251 L1016.1232,210.0729 L1005.8424,211.1188 L995.5616,211.735 L985.2808,213.1955 L975,211.3851 L970.8333,215.5518 " fill="#17A2B8" style="stroke:#1592A6;stroke-width:1.0416666666666667;"/><path d="M1211.4583,211.3851 L1211.4545,211.3851 L1211.8866,213.0518 L1210.9456,214.7184 L1210.8312,216.3851 L1211.9246,218.0518 L1211.4583,219.7184 L1213.5417,221.8018 L1213.5417,221.1379 L1215.2083,222.273 L1216.875,221.9931 L1218.5417,221.5537 L1220.2083,221.4742 L1221.875,221.8018 L1222.1754,222.1021 L1219.5957,219.5224 L1218.0958,218.0226 L1215.2631,215.1899 L1213.9459,213.8727 L1211.4583,211.3851 " fill="#17A2B8" style="stroke:#1592A6;stroke-width:1.0416666666666667;"/><text fill="#FFFFFF" font-family="Segoe Print" font-size="12.5" lengthAdjust="spacing" textLength="218.75" x="982.2917" y="233.8867">redirect_uri: client.abc.com/callback</text><text fill="#FFFFFF" font-family="Segoe Print" font-size="12.5" lengthAdjust="spacing" textLength="4.1667" x="982.2917" y="248.6084">&#160;</text><text fill="#FFFFFF" font-family="Segoe Print" font-size="12.5" lengthAdjust="spacing" textLength="50" x="982.2917" y="263.3301">code (R)</text><text fill="#FFFFFF" font-family="Segoe Print" font-size="12.5" lengthAdjust="spacing" textLength="50" x="982.2917" y="278.0518">state (R)</text><polygon fill="#333333" points="695.3125,323.5352,695.3396,323.6029,697.3424,324.2349,699.5041,325.2641,701.614,326.164,703.5538,326.6385,705.7292,327.7018,705.7191,327.6768,703.5908,328.3977,701.513,329.2449,699.4704,330.1799,697.3067,330.8123,695.3125,331.8685,695.4484,332.0044,695.9911,330.8804,696.9306,330.1533,697.9186,329.4745,698.6248,328.5141,699.4792,327.7018,699.4959,327.7186,698.638,326.8606,697.8563,326.079,697.0379,325.2605,696.2896,324.5123,695.3125,323.5352" style="stroke:#333333;stroke-width:1.0416666666666667;"/><path d="M198.4375,327.7018 L198.4375,327.9937 L208.9193,327.1264 L219.401,327.9703 L229.8828,328.2569 L240.3646,326.711 L250.8464,327.5939 L261.3281,327.1095 L271.8099,327.1692 L282.2917,327.6072 L292.7734,326.7416 L303.2552,328.4708 L313.737,326.8264 L324.2188,327.4271 L334.7005,328.3017 L345.1823,327.5827 L355.6641,327.7966 L366.1458,327.6575 L376.6276,327.9498 L387.1094,328.034 L397.5911,328.5153 L408.0729,328.6338 L418.5547,328.6452 L429.0365,328.0555 L439.5182,328.3457 L450,328.6771 L460.4818,326.7002 L470.9635,328.6442 L481.4453,327.29 L491.9271,328.4432 L502.4089,327.0143 L512.8906,327.6067 L523.3724,328.7318 L533.8542,327.6341 L544.3359,327.8481 L554.8177,328.1721 L565.2995,328.2799 L575.7813,327.6964 L586.263,328.1007 L596.7448,326.9068 L607.2266,328.0968 L617.7083,328.4632 L628.1901,328.3192 L638.6719,328.5532 L649.1536,327.0309 L659.6354,326.796 L670.1172,326.8388 L680.599,327.62 L691.0807,327.4289 L701.5625,327.7018 " fill="none" style="stroke:#333333;stroke-width:3.125;"/><text fill="#2E2E2E" font-family="Segoe Print" font-size="12.5" lengthAdjust="spacing" textLength="473.9583" x="216.1458" y="317.7734">&#37325;&#23450;&#21521;&#22238; client.abc.com/callback?code=&lt;Authorization Code&gt;&amp;state=&lt;State&gt;</text><polygon fill="#333333" points="953.6458,395.8252,953.6729,395.893,955.6757,396.525,957.8374,397.5542,959.9474,398.454,961.8872,398.9285,964.0625,399.9919,964.0525,399.9668,961.9242,400.6877,959.8464,401.5349,957.8037,402.4699,955.64,403.1023,953.6458,404.1585,953.7818,404.2945,954.3244,403.1704,955.2639,402.4433,956.2519,401.7646,956.9581,400.8041,957.8125,399.9919,957.8293,400.0086,956.9713,399.1507,956.1897,398.369,955.3712,397.5506,954.623,396.8023,953.6458,395.8252" style="stroke:#333333;stroke-width:1.0416666666666667;"/><path d="M707.8125,399.9919 L707.8125,400.2838 L718.316,399.4164 L728.8194,400.2603 L739.3229,400.547 L749.8264,399.001 L760.3299,399.8839 L770.8333,399.3995 L781.3368,399.4592 L791.8403,399.8972 L802.3438,399.0316 L812.8472,400.7608 L823.3507,399.1165 L833.8542,399.7172 L844.3576,400.5918 L854.8611,399.8727 L865.3646,400.0866 L875.8681,399.9475 L886.3715,400.2398 L896.875,400.324 L907.3785,400.8053 L917.8819,400.9239 L928.3854,400.9353 L938.8889,400.3455 L949.3924,400.6357 L959.8958,399.9919 " fill="none" style="stroke:#333333;stroke-width:3.125;"/><text fill="#2E2E2E" font-family="Segoe Print" font-size="12.5" lengthAdjust="spacing" textLength="185.4167" x="744.2708" y="390.0635">&#35831;&#27714;&#33719;&#21462;&#35775;&#38382;&#20196;&#29260;(access token)</text><path d="M463.5417,345.4102 L464.1255,345.4102 L462.3908,356.0872 L464.0786,366.7643 L464.6519,377.4414 L461.56,388.1185 L463.3258,398.7956 L462.357,409.4727 L462.4764,420.1497 L463.5417,430.8268 L467.7083,434.9935 L467.7083,434.8042 L478.1723,433.073 L488.6364,436.5314 L499.1004,433.2427 L509.5644,434.4441 L520.0284,436.1933 L530.4924,434.7552 L540.9564,435.183 L551.4205,434.9047 L561.8845,435.4894 L572.3485,435.6578 L582.8125,436.6204 L593.2765,436.8575 L603.7405,436.8803 L614.2045,435.7008 L624.6686,436.2812 L635.1326,436.9441 L645.5966,432.9902 L656.0606,436.8782 L666.5246,434.1699 L676.9886,436.4763 L687.4527,433.6184 L697.9167,434.9935 L702.0833,430.8268 L701.8931,430.8268 L704.1433,420.931 L701.948,411.0352 L702.3758,401.1393 L703.024,391.2435 L703.2395,381.3477 L702.0725,371.4518 L702.8811,361.556 L702.0833,351.6602 L701.7086,351.2854 L700.1862,349.763 L698.2756,347.8524 L696.1244,345.7012 L694.1514,343.7282 L691.6667,341.2435 L691.6667,339.9016 L681.4867,339.4319 L671.3068,339.5174 L661.1269,341.0799 L650.947,340.6976 L640.767,343.1363 L630.5871,340.7583 L620.4072,340.2906 L610.2273,341.8776 L600.0473,339.3912 L589.8674,339.8015 L579.6875,343.0461 L569.5076,342.4537 L559.3277,343.2837 L549.1477,340.3496 L538.9678,342.1301 L528.7879,342.8835 L518.608,339.9313 L508.428,340.9772 L498.2481,341.5934 L488.0682,343.0539 L477.8883,341.2318 L467.7083,341.2435 L463.5417,345.4102 " fill="#17A2B8" style="stroke:#1592A6;stroke-width:1.0416666666666667;"/><path d="M691.6667,341.2435 L692.095,341.2435 L691.1539,342.9102 L691.0396,344.5768 L692.133,346.2435 L691.0028,347.9102 L691.6667,349.5768 L693.75,351.6602 L693.75,352.1314 L695.4167,351.8515 L697.0833,351.4121 L698.75,351.3326 L700.4167,352.0849 L702.0833,351.6602 L701.8874,351.4642 L700.3875,349.9643 L697.5548,347.1316 L696.2376,345.8144 L694.0671,343.6439 L691.6667,341.2435 " fill="#17A2B8" style="stroke:#1592A6;stroke-width:1.0416666666666667;"/><text fill="#FFFFFF" font-family="Segoe Print" font-size="12.5" lengthAdjust="spacing" textLength="50" x="475" y="363.7451">code (R)</text><text fill="#FFFFFF" font-family="Segoe Print" font-size="12.5" lengthAdjust="spacing" textLength="69.7917" x="475" y="378.4668">client_id (R)</text><text fill="#FFFFFF" font-family="Segoe Print" font-size="12.5" lengthAdjust="spacing" textLength="94.7917" x="475" y="393.1885">client_secret (R)</text><text fill="#FFFFFF" font-family="Segoe Print" font-size="12.5" lengthAdjust="spacing" textLength="89.5833" x="475" y="407.9102">redirect_uri (R)</text><text fill="#FFFFFF" font-family="Segoe Print" font-size="12.5" lengthAdjust="spacing" textLength="206.25" x="475" y="422.6318">grant_type: authorization_code (R)</text><polygon fill="#333333" points="719.2708,478.6011,719.2979,478.6688,717.1341,479.3008,715.1291,480.3301,713.0724,481.2299,710.8455,481.7044,708.8542,482.7677,708.8441,482.7427,710.8825,483.4636,712.9714,484.3108,715.0954,485.2458,717.0983,485.8782,719.2708,486.9344,719.4068,487.0703,718.2828,485.9463,717.5556,485.2192,716.8769,484.5405,715.9164,483.58,715.1042,482.7677,715.1209,482.7845,715.9297,481.9266,716.8147,481.1449,717.6629,480.3265,718.5813,479.5782,719.2708,478.6011" style="stroke:#333333;stroke-width:1.0416666666666667;"/><path d="M713.0208,482.7677 L713.0208,483.0597 L723.5243,482.1923 L734.0278,483.0362 L744.5313,483.3229 L755.0347,481.7769 L765.5382,482.6598 L776.0417,482.1754 L786.5451,482.2351 L797.0486,482.6731 L807.5521,481.8075 L818.0556,483.5367 L828.559,481.8924 L839.0625,482.4931 L849.566,483.3677 L860.0694,482.6486 L870.5729,482.8625 L881.0764,482.7234 L891.5799,483.0157 L902.0833,483.0999 L912.5868,483.5812 L923.0903,483.6998 L933.5938,483.7112 L944.0972,483.1214 L954.6007,483.4116 L965.1042,482.7677 " fill="none" style="stroke:#333333;stroke-width:3.125;"/><text fill="#2E2E2E" font-family="Segoe Print" font-size="12.5" lengthAdjust="spacing" textLength="160.4167" x="756.7708" y="472.8394">&#36820;&#22238;&#35775;&#38382;&#20196;&#29260;(access token)</text><path d="M970.8333,450.2686 L971.0279,450.2686 L970.4497,458.6019 L971.0123,466.9352 L971.2034,475.2686 L970.1728,483.6019 L970.8333,491.9352 L975,496.1019 L975,495.886 L985.1563,494.9172 L995.3125,495.0366 L1005.4688,495.9126 L1015.625,494.1814 L1025.7813,497.6398 L1035.9375,494.3511 L1046.0938,495.5525 L1056.25,497.3017 L1066.4063,495.8636 L1076.5625,496.2914 L1086.7188,496.0131 L1096.875,496.1019 L1101.0417,491.9352 L1101.207,491.9352 L1101.2631,484.8519 L1101.584,477.7686 L1101.663,470.6852 L1101.6706,463.6019 L1101.0417,456.5186 L1101.2084,456.6853 L1099.2619,454.7387 L1097.3348,452.8117 L1094.3195,449.7964 L1093.1526,448.6295 L1090.625,446.1019 L1090.625,445.2783 L1080.1136,447.5847 L1069.6023,444.7268 L1059.0909,445.9116 L1048.5795,448.1619 L1038.0682,445.9665 L1027.5568,446.3944 L1017.0455,447.0425 L1006.5341,447.2581 L996.0227,446.091 L985.5114,446.8997 L975,446.1019 L970.8333,450.2686 " fill="#17A2B8" style="stroke:#1592A6;stroke-width:1.0416666666666667;"/><path d="M1090.625,446.1019 L1090.095,446.1019 L1090.8883,447.7686 L1091.1326,449.4352 L1091.0366,451.1019 L1091.1926,452.7686 L1090.625,454.4352 L1092.7083,456.5186 L1092.7083,456.0713 L1094.375,455.9147 L1096.0417,455.9432 L1097.7083,456.464 L1099.375,456.3366 L1101.0417,456.5186 L1101.4878,456.9647 L1098.844,454.3209 L1096.6504,452.1273 L1094.9411,450.418 L1092.2717,447.7486 L1090.625,446.1019 " fill="#17A2B8" style="stroke:#1592A6;stroke-width:1.0416666666666667;"/><text fill="#FFFFFF" font-family="Segoe Print" font-size="12.5" lengthAdjust="spacing" textLength="97.9167" x="982.2917" y="468.6035">access token (R)</text><text fill="#FFFFFF" font-family="Segoe Print" font-size="12.5" lengthAdjust="spacing" textLength="80.2083" x="982.2917" y="483.3252">refresh token</text><!--SRC=[XLHTJnD157sVNp5YOje7K6WhI023H1CJVO7mt0opj-scoqoTdKhm2H2m861DY1-092enJKXQZK42QFWptUtov5zmkhkMNROj3qrtTiuzzvnxRclcTLOWWimQdEP1mu8NcKQvO21m_nraNhasuLaH68MdO9ea2-E6dcMO0fCW8bWY19-Ru0ON-6QAq46QQ0zvn9dqONCvNK84fPwbJlK2OV81eVcigz6lIDnB3YI7kfK4w5E3b0wHhlnSQ22wSnCgkRXMj8iAqNNexW6l-fA2C5F1r6WxXl14pwWFWr0NafaXD1cfOLn2f4accRYRIhN5HloX6p87iu3DF4YQc-_bHMcetWW5feTx6jiLktHSF_lQAA_YsBIfjcWygpp4Up0nSL6TtIDs5UF-SB5L_QAA6uSr79imz5OLTP_zae5mYRrLiZ-zjFSshVNFriSAZeqNPOuB_GMHEcTu2iHp41uDKJVUsQTA88Gk5VME1H33-EBLfbNTiSflhT9thudIrLWwmJ5WMe7hIjpVtnjMkMQjLtmHHukDoclK71us82EH0BF0cGbfEL-0OKov1ZWs6KUUdxIkkIS1cYw0odHHwCYalA1MIHBPX3wC8zNCZQEBKkTesJujssiBzjwQix3Yd1xMp_uurGEdjjXKUFBBMlsfhDWVQbRvcv9QFoqvrVEBzzKWvqXlcFDyszhTjpPMhF8X3ezqeccZiRFS6X2UddpikHPwDYT3XeRzyFh83EsZVFOs9OQXzZEFK6iS_zrsDEjH12FPtU_4Uxz9EpeIbJnso-qpEZBL_1fJqVjhTNMQjMFxnvApTMozUUUDgNvsq5ZRY15ArNyUbZmFB1v8kKEi_ia4Aa16WdPVPDLFNFhBGOA2qotEouduQjlcT9rEBvVWXIyeerOqvxsvRFKF]--></g></svg>