<?xml version="1.0" encoding="us-ascii" standalone="no"?><svg xmlns="http://www.w3.org/2000/svg" xmlns:xlink="http://www.w3.org/1999/xlink" contentStyleType="text/css" height="272.9167px" preserveAspectRatio="none" style="width:612px;height:272px;" version="1.1" viewBox="0 0 612 272" width="612.5px" zoomAndPan="magnify"><defs/><g><path d="M204.1667,51.18 L204.4586,51.18 L203.5912,61.909 L204.4351,72.6379 L204.7218,83.3669 L203.1758,94.0959 L204.0587,104.8248 L203.5743,115.5538 L203.634,126.2828 L204.072,137.0117 L203.2064,147.7407 L204.9356,158.4696 L203.2913,169.1986 L203.892,179.9276 L204.7666,190.6565 L204.0475,201.3855 L204.2614,212.1145 L204.1667,222.8434 " fill="none" style="stroke:#555555;stroke-width:1.0416666666666667;stroke-dasharray:5.0,5.0;"/><path d="M462.5,51.18 L462.7919,51.18 L461.9246,61.909 L462.7685,72.6379 L463.0551,83.3669 L461.5092,94.0959 L462.3921,104.8248 L461.9076,115.5538 L461.9674,126.2828 L462.4053,137.0117 L461.5398,147.7407 L463.2689,158.4696 L461.6246,169.1986 L462.2253,179.9276 L463.0999,190.6565 L462.3809,201.3855 L462.5948,212.1145 L462.5,222.8434 " fill="none" style="stroke:#555555;stroke-width:1.0416666666666667;stroke-dasharray:5.0,5.0;"/><polygon fill="none" points="154.1667,10.4167,154.1667,10.6356,164.1667,9.9851,174.1667,10.618,184.1667,10.833,194.1667,9.6735,204.1667,10.3357,214.1667,9.9724,224.1667,10.0172,234.1667,10.3457,244.1667,9.6965,254.1667,10.4167,254.2402,10.5943,254.6722,10.4586,255.3189,10.8414,255.9918,11.2875,256.5123,11.3655,257.1129,11.6371,257.1348,11.6461,257.3468,12.2221,257.6584,12.8393,257.9219,13.4366,258.2771,14.0719,258.3333,14.5833,258.5663,14.5833,258.5692,20.861,258.4217,27.1387,258.4943,33.4163,258.5772,39.694,258.3333,45.9717,258.102,45.8759,258.3069,46.6511,257.7501,47.1108,257.7723,47.8104,257.1982,48.2629,257.1129,48.918,257.1038,48.896,256.6222,49.3999,255.928,49.3905,255.3592,49.684,254.8009,50.0029,254.1667,50.1383,254.1667,50.5719,244.1667,50.1343,234.1667,50.4375,224.1667,49.5421,214.1667,50.4346,204.1667,50.7094,194.1667,50.6014,184.1667,50.7769,174.1667,49.6351,164.1667,49.459,154.1667,50.1383,154.0841,49.939,153.5696,49.8754,152.962,49.5871,152.4894,49.6247,151.7864,49.106,151.2204,48.918,151.1103,48.8724,151.0495,48.359,150.5183,47.6508,150.3216,47.0812,150.4523,46.6472,150,45.9717,150.1513,45.9717,150.255,39.694,149.8883,33.4163,150.1108,27.1387,150.205,20.861,150,14.5833,149.8485,14.5206,150.2133,13.9813,150.5286,13.4216,150.9413,12.9022,150.975,12.2258,151.2204,11.6371,151.2819,11.7854,151.7361,11.2153,152.3089,10.9316,153.0551,11.0664,153.4821,10.4308,154.1667,10.4167" style="stroke:#333333;stroke-width:1.0416666666666667;"/><text fill="#2E2E2E" font-family="Segoe Print" font-size="12.5" lengthAdjust="spacing" textLength="83.3333" x="162.5" y="35.0016">&#23458;&#25143;&#31471; (Client)</text><polygon fill="none" points="154.1667,221.8018,154.1667,222.0207,164.1667,221.3702,174.1667,222.0031,184.1667,222.2181,194.1667,221.0586,204.1667,221.7208,214.1667,221.3575,224.1667,221.4023,234.1667,221.7308,244.1667,221.0816,254.1667,221.8018,254.2402,221.9794,254.6722,221.8436,255.3189,222.2265,255.9918,222.6726,256.5123,222.7506,257.1129,223.0221,257.1348,223.0312,257.3468,223.6072,257.6584,224.2244,257.9219,224.8217,258.2771,225.457,258.3333,225.9684,258.5663,225.9684,258.5692,232.2461,258.4217,238.5238,258.4943,244.8014,258.5772,251.0791,258.3333,257.3568,258.102,257.2609,258.3069,258.0362,257.7501,258.4959,257.7723,259.1955,257.1982,259.648,257.1129,260.303,257.1038,260.2811,256.6222,260.785,255.928,260.7756,255.3592,261.0691,254.8009,261.388,254.1667,261.5234,254.1667,261.957,244.1667,261.5194,234.1667,261.8226,224.1667,260.9272,214.1667,261.8197,204.1667,262.0945,194.1667,261.9865,184.1667,262.162,174.1667,261.0202,164.1667,260.8441,154.1667,261.5234,154.0841,261.3241,153.5696,261.2605,152.962,260.9722,152.4894,261.0098,151.7864,260.4911,151.2204,260.303,151.1103,260.2575,151.0495,259.7441,150.5183,259.0359,150.3216,258.4663,150.4523,258.0323,150,257.3568,150.1513,257.3568,150.255,251.0791,149.8883,244.8014,150.1108,238.5238,150.205,232.2461,150,225.9684,149.8485,225.9057,150.2133,225.3664,150.5286,224.8067,150.9413,224.2873,150.975,223.6108,151.2204,223.0221,151.2819,223.1705,151.7361,222.6004,152.3089,222.3167,153.0551,222.4515,153.4821,221.8158,154.1667,221.8018" style="stroke:#333333;stroke-width:1.0416666666666667;"/><text fill="#2E2E2E" font-family="Segoe Print" font-size="12.5" lengthAdjust="spacing" textLength="83.3333" x="162.5" y="246.3867">&#23458;&#25143;&#31471; (Client)</text><polygon fill="none" points="356.25,10.4167,356.25,10.6356,366.875,9.9851,377.5,10.618,388.125,10.833,398.75,9.6735,409.375,10.3357,420,9.9724,430.625,10.0172,441.25,10.3457,451.875,9.6965,462.5,10.9934,473.125,9.7601,483.75,10.2107,494.375,10.8666,505,10.3273,515.625,10.4877,526.25,10.3834,536.875,10.6026,547.5,10.6658,558.125,11.0268,568.75,10.4167,568.8392,10.6319,569.4295,10.8786,569.9623,10.9865,570.5794,11.2976,571.2003,11.6182,571.6963,11.6371,571.4649,11.5412,572.158,12.3165,572.0893,12.7762,572.5998,13.4758,572.5138,13.9283,572.9167,14.5833,572.8929,14.5833,573.1742,20.861,572.8997,27.1387,572.9532,33.4163,573.0342,39.694,572.9167,45.9717,573.0502,46.027,572.6713,46.5604,572.5206,47.1884,572.0008,47.6634,572.0316,48.3665,571.6963,48.918,571.7691,49.0938,571.1661,49.3046,570.5992,49.6028,569.8643,49.4952,569.2526,49.6851,568.75,50.1383,568.75,49.4911,558.125,50.077,547.5,49.9336,536.875,50.8481,526.25,49.9564,515.625,49.781,505,50.3761,494.375,49.4437,483.75,49.5976,473.125,50.8143,462.5,50.5922,451.875,50.9034,441.25,49.8031,430.625,50.4708,420,50.7534,409.375,49.6463,398.75,50.0385,388.125,50.2696,377.5,50.8173,366.875,50.134,356.25,50.1383,356.3115,50.2867,355.5872,49.7166,354.9815,49.4329,354.5492,49.5677,353.7977,48.932,353.3037,48.918,353.467,48.9856,353.1259,48.3562,352.7296,47.7038,352.458,47.1032,352.4746,46.6219,352.0833,45.9717,351.9794,45.9717,352.2888,39.694,351.8914,33.4163,352.2977,27.1387,352.2515,20.861,352.0833,14.5833,352.1619,14.6159,352.3426,14.0004,352.8046,13.5014,353.0124,12.8971,353.1139,12.2488,353.3037,11.6371,353.3394,11.7231,353.8757,11.3512,354.5774,11.3787,355.0921,10.9545,355.6837,10.7161,356.25,10.4167" style="stroke:#333333;stroke-width:1.0416666666666667;"/><text fill="#2E2E2E" font-family="Segoe Print" font-size="12.5" lengthAdjust="spacing" textLength="195.8333" x="364.5833" y="35.0016">&#25480;&#26435;&#26381;&#21153;&#22120; (Authorization Server)</text><polygon fill="none" points="356.25,221.8018,356.25,222.0207,366.875,221.3702,377.5,222.0031,388.125,222.2181,398.75,221.0586,409.375,221.7208,420,221.3575,430.625,221.4023,441.25,221.7308,451.875,221.0816,462.5,222.3785,473.125,221.1452,483.75,221.5958,494.375,222.2517,505,221.7124,515.625,221.8728,526.25,221.7685,536.875,221.9877,547.5,222.0509,558.125,222.4119,568.75,221.8018,568.8392,222.017,569.4295,222.2637,569.9623,222.3716,570.5794,222.6827,571.2003,223.0033,571.6963,223.0221,571.4649,222.9263,572.158,223.7016,572.0893,224.1613,572.5998,224.8608,572.5138,225.3134,572.9167,225.9684,572.8929,225.9684,573.1742,232.2461,572.8997,238.5238,572.9532,244.8014,573.0342,251.0791,572.9167,257.3568,573.0502,257.4121,572.6713,257.9455,572.5206,258.5734,572.0008,259.0485,572.0316,259.7516,571.6963,260.303,571.7691,260.4789,571.1661,260.6897,570.5992,260.9879,569.8643,260.8803,569.2526,261.0701,568.75,261.5234,568.75,260.8761,558.125,261.4621,547.5,261.3187,536.875,262.2332,526.25,261.3415,515.625,261.1661,505,261.7612,494.375,260.8288,483.75,260.9827,473.125,262.1994,462.5,261.9773,451.875,262.2885,441.25,261.1882,430.625,261.8559,420,262.1385,409.375,261.0313,398.75,261.4236,388.125,261.6547,377.5,262.2024,366.875,261.5191,356.25,261.5234,356.3115,261.6718,355.5872,261.1017,354.9815,260.818,354.5492,260.9528,353.7977,260.3171,353.3037,260.303,353.467,260.3707,353.1259,259.7412,352.7296,259.0889,352.458,258.4883,352.4746,258.007,352.0833,257.3568,351.9794,257.3568,352.2888,251.0791,351.8914,244.8014,352.2977,238.5238,352.2515,232.2461,352.0833,225.9684,352.1619,226.001,352.3426,225.3854,352.8046,224.8865,353.0124,224.2822,353.1139,223.6339,353.3037,223.0221,353.3394,223.1082,353.8757,222.7363,354.5774,222.7638,355.0921,222.3396,355.6837,222.1012,356.25,221.8018" style="stroke:#333333;stroke-width:1.0416666666666667;"/><text fill="#2E2E2E" font-family="Segoe Print" font-size="12.5" lengthAdjust="spacing" textLength="195.8333" x="364.5833" y="246.3867">&#25480;&#26435;&#26381;&#21153;&#22120; (Authorization Server)</text><polygon fill="#333333" points="450,114.0259,450.0271,114.0936,452.0299,114.7256,454.1916,115.7549,456.3015,116.6547,458.2413,117.1292,460.4167,118.1925,460.4066,118.1675,458.2783,118.8884,456.2005,119.7356,454.1579,120.6706,451.9942,121.303,450,122.3592,450.1359,122.4951,450.6786,121.3711,451.6181,120.644,452.6061,119.9653,453.3123,119.0048,454.1667,118.1925,454.1834,118.2093,453.3255,117.3514,452.5438,116.5697,451.7254,115.7513,450.9771,115.003,450,114.0259" style="stroke:#333333;stroke-width:1.0416666666666667;"/><path d="M204.1667,118.1925 L204.1667,118.4845 L214.6701,117.6171 L225.1736,118.461 L235.6771,118.7477 L246.1806,117.2017 L256.684,118.0846 L267.1875,117.6002 L277.691,117.6599 L288.1944,118.0979 L298.6979,117.2323 L309.2014,118.9615 L319.7049,117.3172 L330.2083,117.9179 L340.7118,118.7925 L351.2153,118.0734 L361.7188,118.2873 L372.2222,118.1482 L382.7257,118.4405 L393.2292,118.5247 L403.7326,119.006 L414.2361,119.1246 L424.7396,119.136 L435.2431,118.5462 L445.7465,118.8364 L456.25,118.1925 " fill="none" style="stroke:#333333;stroke-width:3.125;"/><text fill="#2E2E2E" font-family="Segoe Print" font-size="12.5" lengthAdjust="spacing" textLength="111.4583" x="277.6042" y="108.2642">&#35831;&#27714; Access Token</text><path d="M15.625,70.9717 L16.2088,70.9717 L14.4741,81.0907 L16.1619,91.2098 L16.7352,101.3288 L13.6433,111.4479 L15.4091,121.5669 L14.4403,131.686 L15.625,141.805 L19.7917,145.9717 L19.7917,144.9064 L30.0858,145.7824 L40.3799,144.0512 L50.674,147.5096 L60.9681,144.2209 L71.2623,145.4223 L81.5564,147.1715 L91.8505,145.7334 L102.1446,146.1612 L112.4387,145.8829 L122.7328,146.4676 L133.027,146.6359 L143.3211,147.5986 L153.6152,147.8357 L163.9093,147.8585 L174.2034,146.679 L184.4975,147.2594 L194.7917,145.9717 L198.9583,141.805 L200.909,141.805 L196.955,131.0411 L200.8431,120.2772 L198.1347,109.5133 L200.4411,98.7495 L197.5833,87.9856 L198.9583,77.2217 L198.9135,77.1768 L197.3606,75.6239 L194.7598,73.0231 L192.7773,71.0406 L190.8467,69.1101 L188.5417,66.805 L188.5417,67.9612 L177.9948,66.7942 L167.4479,67.6028 L156.901,65.215 L146.3542,67.595 L135.8073,68.3278 L125.2604,68.0398 L114.7135,68.5079 L104.1667,65.4631 L93.6198,64.9934 L83.0729,65.0789 L72.526,66.6415 L61.9792,66.2591 L51.4323,68.6978 L40.8854,66.3198 L30.3385,65.8521 L19.7917,66.805 L15.625,70.9717 " fill="#17A2B8" style="stroke:#1592A6;stroke-width:1.0416666666666667;"/><path d="M188.5417,66.805 L188.753,66.805 L187.9242,68.4717 L188.061,70.1383 L189.1425,71.805 L188.9451,73.4717 L188.5417,75.1383 L190.625,77.2217 L190.625,77.9018 L192.2917,76.9237 L193.9583,77.5172 L195.625,77.7684 L197.2917,76.7843 L198.9583,77.2217 L198.8956,77.1589 L196.9575,75.2208 L195.2184,73.4817 L192.7056,70.9689 L190.9279,69.1912 L188.5417,66.805 " fill="#17A2B8" style="stroke:#1592A6;stroke-width:1.0416666666666667;"/><text fill="#FFFFFF" font-family="Segoe Print" font-size="12.5" lengthAdjust="spacing" textLength="80.2083" x="27.0833" y="89.3066">username (R)</text><text fill="#FFFFFF" font-family="Segoe Print" font-size="12.5" lengthAdjust="spacing" textLength="79.1667" x="27.0833" y="104.0283">password (R)</text><text fill="#FFFFFF" font-family="Segoe Print" font-size="12.5" lengthAdjust="spacing" textLength="151.0417" x="27.0833" y="118.75">grant_type: password (R)</text><text fill="#FFFFFF" font-family="Segoe Print" font-size="12.5" lengthAdjust="spacing" textLength="35.4167" x="27.0833" y="133.4717">scope</text><polygon fill="#333333" points="215.625,189.4409,215.6521,189.5087,213.4882,190.1407,211.4833,191.1699,209.4265,192.0698,207.1997,192.5443,205.2083,193.6076,205.1983,193.5825,207.2367,194.3034,209.3255,195.1506,211.4495,196.0856,213.4525,196.718,215.625,197.7743,215.7609,197.9102,214.6369,196.7862,213.9098,196.059,213.2311,195.3803,212.2706,194.4199,211.4583,193.6076,211.4751,193.6243,212.2838,192.7664,213.1688,191.9848,214.017,191.1663,214.9355,190.4181,215.625,189.4409" style="stroke:#333333;stroke-width:1.0416666666666667;"/><path d="M209.375,193.6076 L209.375,193.8995 L219.8785,193.0321 L230.3819,193.876 L240.8854,194.1627 L251.3889,192.6168 L261.8924,193.4996 L272.3958,193.0152 L282.8993,193.0749 L293.4028,193.5129 L303.9063,192.6474 L314.4097,194.3765 L324.9132,192.7322 L335.4167,193.3329 L345.9201,194.2075 L356.4236,193.4885 L366.9271,193.7024 L377.4306,193.5632 L387.934,193.8555 L398.4375,193.9397 L408.941,194.421 L419.4444,194.5396 L429.9479,194.551 L440.4514,193.9612 L450.9549,194.2515 L461.4583,193.6076 " fill="none" style="stroke:#333333;stroke-width:3.125;"/><text fill="#2E2E2E" font-family="Segoe Print" font-size="12.5" lengthAdjust="spacing" textLength="111.4583" x="277.6042" y="183.6792">&#36820;&#22238; Access Token</text><path d="M467.7083,161.1084 L467.9029,161.1084 L467.3247,169.4417 L467.8873,177.7751 L468.0784,186.1084 L467.0478,194.4417 L467.7083,202.7751 L471.875,206.9417 L471.875,206.7259 L482.2049,205.757 L492.5347,205.8765 L502.8646,206.7524 L513.1944,205.0213 L523.5243,208.4796 L533.8542,205.191 L544.184,206.3924 L554.5139,208.1416 L564.8438,206.7035 L575.1736,207.1313 L585.5035,206.853 L595.8333,206.9417 L600,202.7751 L600.1653,202.7751 L600.2214,195.6917 L600.5423,188.6084 L600.6213,181.5251 L600.6289,174.4417 L600,167.3584 L600.1667,167.5251 L598.2202,165.5786 L596.2931,163.6515 L593.2778,160.6362 L592.1109,159.4693 L589.5833,156.9417 L589.5833,156.1181 L578.8826,158.4245 L568.1818,155.5667 L557.4811,156.7515 L546.7803,159.0017 L536.0795,156.8064 L525.3788,157.2342 L514.678,157.8824 L503.9773,158.0979 L493.2765,156.9309 L482.5758,157.7395 L471.875,156.9417 L467.7083,161.1084 " fill="#17A2B8" style="stroke:#1592A6;stroke-width:1.0416666666666667;"/><path d="M589.5833,156.9417 L589.0533,156.9417 L589.8467,158.6084 L590.0909,160.2751 L589.9949,161.9417 L590.1509,163.6084 L589.5833,165.2751 L591.6667,167.3584 L591.6667,166.9111 L593.3333,166.7545 L595,166.783 L596.6667,167.3039 L598.3333,167.1764 L600,167.3584 L600.4461,167.8045 L597.8023,165.1607 L595.6087,162.9671 L593.8995,161.2579 L591.2301,158.5885 L589.5833,156.9417 " fill="#17A2B8" style="stroke:#1592A6;stroke-width:1.0416666666666667;"/><text fill="#FFFFFF" font-family="Segoe Print" font-size="12.5" lengthAdjust="spacing" textLength="100" x="479.1667" y="179.4434">access_token (R)</text><text fill="#FFFFFF" font-family="Segoe Print" font-size="12.5" lengthAdjust="spacing" textLength="82.2917" x="479.1667" y="194.165">refresh_token</text><!--SRC=[XLAnRXD14EtlAuPB2gUmHB2TX2WWcKYfe07wQ1dFtQtkidlCpiLAIcWY9AZI80WIL4X8H5Gf-HeVV4OcPqlOESSKAzs-UVFUcxaDkNMbONDKUCnf1EmhDqBFZXWsxqVXLZdGwueSqZCAmQGqB6pg0Ca9SOjhcFrutnUUOMrWS1jxooa7ticCDiwiK8kbtsBHbiR94uDvscISTVGUzX_qTrQrpCaFjX5tp4fzpoFYrTe6nVD_GpUi1RaxtAV4stC96nUKfgkzyoSyjOaUHmik9dbbiD_gSLwePPBqUrk3mL9kQxxedcHqH11o4inEkhwIGhqLNyV2Qanu1F7avxVwxEhFZqlex3VWHgnrfl22-5XVb5Bg3sVrnTlwy_l9kw-JZz-XCwmaysnFZLZlO4hKjYYUwSRGVGpnFv5u5_vUNjM_ti0GKPyXlFGvkUWcD1IKI5G5OcSqQkVvHbIQ4CQwd-QIwbBbK4vAseM5Ga1VKaHkElkyzrvtmHlK_FVvvDEN9UPiqqmYq-27SeCtsao9zcTJPCxZ6W00]--></g></svg>