<?xml version="1.0" encoding="us-ascii" standalone="no"?><svg xmlns="http://www.w3.org/2000/svg" xmlns:xlink="http://www.w3.org/1999/xlink" contentStyleType="text/css" height="236.4583px" preserveAspectRatio="none" style="width:629px;height:236px;" version="1.1" viewBox="0 0 629 236" width="629.1667px" zoomAndPan="magnify"><defs/><g><path d="M248.9583,51.18 L249.2503,51.18 L248.3829,61.6392 L249.2268,72.0985 L249.5134,82.5577 L247.9675,93.017 L248.8504,103.4762 L248.366,113.9354 L248.4257,124.3947 L248.8637,134.8539 L247.9981,145.3131 L249.7273,155.7724 L248.0829,166.2316 L248.6837,176.6908 L248.9583,187.1501 " fill="none" style="stroke:#555555;stroke-width:1.0416666666666667;stroke-dasharray:5.0,5.0;"/><path d="M507.2917,51.18 L507.5836,51.18 L506.7162,61.6392 L507.5601,72.0985 L507.8468,82.5577 L506.3008,93.017 L507.1837,103.4762 L506.6993,113.9354 L506.759,124.3947 L507.197,134.8539 L506.3314,145.3131 L508.0606,155.7724 L506.4163,166.2316 L507.017,176.6908 L507.2917,187.1501 " fill="none" style="stroke:#555555;stroke-width:1.0416666666666667;stroke-dasharray:5.0,5.0;"/><polygon fill="none" points="198.9583,10.4167,198.9583,10.6356,208.9583,9.9851,218.9583,10.618,228.9583,10.833,238.9583,9.6735,248.9583,10.3357,258.9583,9.9724,268.9583,10.0172,278.9583,10.3457,288.9583,9.6965,298.9583,10.4167,299.0319,10.5943,299.4638,10.4586,300.1106,10.8414,300.7835,11.2875,301.304,11.3655,301.9046,11.6371,301.9265,11.6461,302.1384,12.2221,302.45,12.8393,302.7136,13.4366,303.0688,14.0719,303.125,14.5833,303.358,14.5833,303.3609,20.861,303.2134,27.1387,303.286,33.4163,303.3688,39.694,303.125,45.9717,302.8936,45.8759,303.0986,46.6511,302.5417,47.1108,302.564,47.8104,301.9899,48.2629,301.9046,48.918,301.8955,48.896,301.4139,49.3999,300.7196,49.3905,300.1508,49.684,299.5926,50.0029,298.9583,50.1383,298.9583,50.5719,288.9583,50.1343,278.9583,50.4375,268.9583,49.5421,258.9583,50.4346,248.9583,50.7094,238.9583,50.6014,228.9583,50.7769,218.9583,49.6351,208.9583,49.459,198.9583,50.1383,198.8758,49.939,198.3613,49.8754,197.7537,49.5871,197.2811,49.6247,196.5781,49.106,196.0121,48.918,195.902,48.8724,195.8412,48.359,195.31,47.6508,195.1133,47.0812,195.2439,46.6472,194.7917,45.9717,194.9429,45.9717,195.0467,39.694,194.6799,33.4163,194.9025,27.1387,194.9967,20.861,194.7917,14.5833,194.6401,14.5206,195.005,13.9813,195.3202,13.4216,195.733,12.9022,195.7666,12.2258,196.0121,11.6371,196.0735,11.7854,196.5277,11.2153,197.1006,10.9316,197.8467,11.0664,198.2738,10.4308,198.9583,10.4167" style="stroke:#333333;stroke-width:1.0416666666666667;"/><text fill="#2E2E2E" font-family="Segoe Print" font-size="12.5" lengthAdjust="spacing" textLength="83.3333" x="207.2917" y="35.0016">&#23458;&#25143;&#31471; (Client)</text><polygon fill="none" points="198.9583,186.1084,198.9583,186.3273,208.9583,185.6768,218.9583,186.3097,228.9583,186.5247,238.9583,185.3653,248.9583,186.0274,258.9583,185.6641,268.9583,185.7089,278.9583,186.0374,288.9583,185.3882,298.9583,186.1084,299.0319,186.286,299.4638,186.1503,300.1106,186.5331,300.7835,186.9792,301.304,187.0572,301.9046,187.3288,301.9265,187.3379,302.1384,187.9138,302.45,188.531,302.7136,189.1283,303.0688,189.7636,303.125,190.2751,303.358,190.2751,303.3609,196.5527,303.2134,202.8304,303.286,209.1081,303.3688,215.3857,303.125,221.6634,302.8936,221.5676,303.0986,222.3428,302.5417,222.8025,302.564,223.5021,301.9899,223.9547,301.9046,224.6097,301.8955,224.5877,301.4139,225.0917,300.7196,225.0822,300.1508,225.3757,299.5926,225.6946,298.9583,225.8301,298.9583,226.2637,288.9583,225.826,278.9583,226.1293,268.9583,225.2338,258.9583,226.1263,248.9583,226.4011,238.9583,226.2931,228.9583,226.4686,218.9583,225.3269,208.9583,225.1507,198.9583,225.8301,198.8758,225.6307,198.3613,225.5671,197.7537,225.2789,197.2811,225.3164,196.5781,224.7977,196.0121,224.6097,195.902,224.5641,195.8412,224.0508,195.31,223.3426,195.1133,222.7729,195.2439,222.3389,194.7917,221.6634,194.9429,221.6634,195.0467,215.3857,194.6799,209.1081,194.9025,202.8304,194.9967,196.5527,194.7917,190.2751,194.6401,190.2123,195.005,189.6731,195.3202,189.1133,195.733,188.5939,195.7666,187.9175,196.0121,187.3288,196.0735,187.4772,196.5277,186.9071,197.1006,186.6234,197.8467,186.7581,198.2738,186.1225,198.9583,186.1084" style="stroke:#333333;stroke-width:1.0416666666666667;"/><text fill="#2E2E2E" font-family="Segoe Print" font-size="12.5" lengthAdjust="spacing" textLength="83.3333" x="207.2917" y="210.6934">&#23458;&#25143;&#31471; (Client)</text><polygon fill="none" points="401.0417,10.4167,401.0417,10.6356,411.6667,9.9851,422.2917,10.618,432.9167,10.833,443.5417,9.6735,454.1667,10.3357,464.7917,9.9724,475.4167,10.0172,486.0417,10.3457,496.6667,9.6965,507.2917,10.9934,517.9167,9.7601,528.5417,10.2107,539.1667,10.8666,549.7917,10.3273,560.4167,10.4877,571.0417,10.3834,581.6667,10.6026,592.2917,10.6658,602.9167,11.0268,613.5417,10.4167,613.6308,10.6319,614.2212,10.8786,614.754,10.9865,615.371,11.2976,615.992,11.6182,616.4879,11.6371,616.2566,11.5412,616.9497,12.3165,616.881,12.7762,617.3914,13.4758,617.3055,13.9283,617.7083,14.5833,617.6845,14.5833,617.9658,20.861,617.6914,27.1387,617.7449,33.4163,617.8259,39.694,617.7083,45.9717,617.8419,46.027,617.463,46.5604,617.3123,47.1884,616.7925,47.6634,616.8233,48.3665,616.4879,48.918,616.5608,49.0938,615.9578,49.3046,615.3909,49.6028,614.656,49.4952,614.0443,49.6851,613.5417,50.1383,613.5417,49.4911,602.9167,50.077,592.2917,49.9336,581.6667,50.8481,571.0417,49.9564,560.4167,49.781,549.7917,50.3761,539.1667,49.4437,528.5417,49.5976,517.9167,50.8143,507.2917,50.5922,496.6667,50.9034,486.0417,49.8031,475.4167,50.4708,464.7917,50.7534,454.1667,49.6463,443.5417,50.0385,432.9167,50.2696,422.2917,50.8173,411.6667,50.134,401.0417,50.1383,401.1031,50.2867,400.3788,49.7166,399.7732,49.4329,399.3408,49.5677,398.5894,48.932,398.0954,48.918,398.2587,48.9856,397.9176,48.3562,397.5213,47.7038,397.2497,47.1032,397.2662,46.6219,396.875,45.9717,396.7711,45.9717,397.0805,39.694,396.6831,33.4163,397.0894,27.1387,397.0432,20.861,396.875,14.5833,396.9536,14.6159,397.1342,14.0004,397.5962,13.5014,397.8041,12.8971,397.9056,12.2488,398.0954,11.6371,398.131,11.7231,398.6673,11.3512,399.3691,11.3787,399.8837,10.9545,400.4753,10.7161,401.0417,10.4167" style="stroke:#333333;stroke-width:1.0416666666666667;"/><text fill="#2E2E2E" font-family="Segoe Print" font-size="12.5" lengthAdjust="spacing" textLength="195.8333" x="409.375" y="35.0016">&#25480;&#26435;&#26381;&#21153;&#22120; (Authorization Server)</text><polygon fill="none" points="401.0417,186.1084,401.0417,186.3273,411.6667,185.6768,422.2917,186.3097,432.9167,186.5247,443.5417,185.3653,454.1667,186.0274,464.7917,185.6641,475.4167,185.7089,486.0417,186.0374,496.6667,185.3882,507.2917,186.6851,517.9167,185.4519,528.5417,185.9024,539.1667,186.5583,549.7917,186.019,560.4167,186.1795,571.0417,186.0751,581.6667,186.2944,592.2917,186.3575,602.9167,186.7185,613.5417,186.1084,613.6308,186.3237,614.2212,186.5704,614.754,186.6782,615.371,186.9893,615.992,187.31,616.4879,187.3288,616.2566,187.233,616.9497,188.0082,616.881,188.4679,617.3914,189.1675,617.3055,189.62,617.7083,190.2751,617.6845,190.2751,617.9658,196.5527,617.6914,202.8304,617.7449,209.1081,617.8259,215.3857,617.7083,221.6634,617.8419,221.7187,617.463,222.2521,617.3123,222.8801,616.7925,223.3551,616.8233,224.0582,616.4879,224.6097,616.5608,224.7855,615.9578,224.9964,615.3909,225.2945,614.656,225.187,614.0443,225.3768,613.5417,225.8301,613.5417,225.1828,602.9167,225.7687,592.2917,225.6254,581.6667,226.5399,571.0417,225.6481,560.4167,225.4727,549.7917,226.0679,539.1667,225.1355,528.5417,225.2893,517.9167,226.5061,507.2917,226.2839,496.6667,226.5952,486.0417,225.4949,475.4167,226.1626,464.7917,226.4451,454.1667,225.338,443.5417,225.7302,432.9167,225.9613,422.2917,226.509,411.6667,225.8257,401.0417,225.8301,401.1031,225.9785,400.3788,225.4084,399.7732,225.1247,399.3408,225.2594,398.5894,224.6238,398.0954,224.6097,398.2587,224.6773,397.9176,224.0479,397.5213,223.3956,397.2497,222.7949,397.2662,222.3136,396.875,221.6634,396.7711,221.6634,397.0805,215.3857,396.6831,209.1081,397.0894,202.8304,397.0432,196.5527,396.875,190.2751,396.9536,190.3076,397.1342,189.6921,397.5962,189.1931,397.8041,188.5888,397.9056,187.9405,398.0954,187.3288,398.131,187.4148,398.6673,187.0429,399.3691,187.0705,399.8837,186.6462,400.4753,186.4078,401.0417,186.1084" style="stroke:#333333;stroke-width:1.0416666666666667;"/><text fill="#2E2E2E" font-family="Segoe Print" font-size="12.5" lengthAdjust="spacing" textLength="195.8333" x="409.375" y="210.6934">&#25480;&#26435;&#26381;&#21153;&#22120; (Authorization Server)</text><polygon fill="#333333" points="494.7917,106.665,494.8188,106.7328,496.8216,107.3648,498.9833,108.394,501.0932,109.2939,503.033,109.7684,505.2083,110.8317,505.1983,110.8067,503.07,111.5275,500.9922,112.3747,498.9495,113.3097,496.7858,113.9422,494.7917,114.9984,494.9276,115.1343,495.4703,114.0103,496.4098,113.2831,497.3977,112.6044,498.1039,111.644,498.9583,110.8317,498.9751,110.8485,498.1172,109.9905,497.3355,109.2089,496.517,108.3904,495.7688,107.6422,494.7917,106.665" style="stroke:#333333;stroke-width:1.0416666666666667;"/><path d="M248.9583,110.8317 L248.9583,111.1236 L259.4618,110.2563 L269.9653,111.1002 L280.4688,111.3868 L290.9722,109.8409 L301.4757,110.7238 L311.9792,110.2394 L322.4826,110.2991 L332.9861,110.737 L343.4896,109.8715 L353.9931,111.6007 L364.4965,109.9563 L375,110.557 L385.5035,111.4316 L396.0069,110.7126 L406.5104,110.9265 L417.0139,110.7873 L427.5174,111.0797 L438.0208,111.1638 L448.5243,111.6452 L459.0278,111.7637 L469.5313,111.7751 L480.0347,111.1854 L490.5382,111.4756 L501.0417,110.8317 " fill="none" style="stroke:#333333;stroke-width:3.125;"/><text fill="#2E2E2E" font-family="Segoe Print" font-size="12.5" lengthAdjust="spacing" textLength="111.4583" x="322.3958" y="100.9033">&#35831;&#27714; Access Token</text><path d="M15.625,70.9717 L16.2088,70.9717 L14.4741,82.2217 L16.1619,93.4717 L16.7352,104.7217 L13.6433,115.9717 L15.625,127.2217 L19.7917,131.3883 L19.7917,131.1725 L30.2579,130.2036 L40.7242,130.3231 L51.1905,131.199 L61.6567,129.4679 L72.123,132.9262 L82.5893,129.6376 L93.0556,130.839 L103.5218,132.5882 L113.9881,131.1501 L124.4544,131.5779 L134.9206,131.2996 L145.3869,131.8843 L155.8532,132.0526 L166.3194,133.0153 L176.7857,133.2524 L187.252,133.2752 L197.7183,132.0956 L208.1845,132.6761 L218.6508,133.339 L229.1171,129.3851 L239.5833,131.3883 L243.75,127.2217 L245.6348,127.2217 L242.9264,117.2217 L245.2328,107.2217 L242.3749,97.2217 L243.5597,87.2217 L243.75,77.2217 L244.2356,77.7072 L241.6348,75.1064 L239.6523,73.124 L237.7217,71.1934 L235.6892,69.1609 L233.3333,66.805 L233.3333,66.7942 L223.1647,67.6028 L212.996,65.215 L202.8274,67.595 L192.6587,68.3278 L182.4901,68.0398 L172.3214,68.5079 L162.1528,65.4631 L151.9841,64.9934 L141.8155,65.0789 L131.6468,66.6415 L121.4782,66.2591 L111.3095,68.6978 L101.1409,66.3198 L90.9722,65.8521 L80.8036,67.4391 L70.6349,64.9527 L60.4663,65.363 L50.2976,68.6077 L40.129,68.0152 L29.9603,68.8453 L19.7917,66.805 L15.625,70.9717 " fill="#17A2B8" style="stroke:#1592A6;stroke-width:1.0416666666666667;"/><path d="M233.3333,66.805 L233.0354,66.805 L233.6289,68.4717 L233.88,70.1383 L232.8959,71.805 L233.2446,73.4717 L233.3333,75.1383 L235.4167,77.2217 L235.4167,77.3383 L237.0833,77.8252 L238.75,77.2178 L240.4167,77.65 L242.0833,76.7089 L243.75,77.2217 L243.3066,76.7783 L241.9964,75.4681 L239.1139,72.5856 L237.8332,71.3049 L235.552,69.0236 L233.3333,66.805 " fill="#17A2B8" style="stroke:#1592A6;stroke-width:1.0416666666666667;"/><text fill="#FFFFFF" font-family="Segoe Print" font-size="12.5" lengthAdjust="spacing" textLength="121.875" x="27.0833" y="89.3066">client credentials (R)</text><text fill="#FFFFFF" font-family="Segoe Print" font-size="12.5" lengthAdjust="spacing" textLength="195.8333" x="27.0833" y="104.0283">grant_type: client_credentials (R)</text><text fill="#FFFFFF" font-family="Segoe Print" font-size="12.5" lengthAdjust="spacing" textLength="35.4167" x="27.0833" y="118.75">scope</text><polygon fill="#333333" points="260.4167,164.2334,260.4438,164.3012,258.2799,164.9332,256.2749,165.9624,254.2182,166.8623,251.9913,167.3367,250,168.4001,249.99,168.375,252.0283,169.0959,254.1172,169.9431,256.2412,170.8781,258.2442,171.5105,260.4167,172.5667,260.5526,172.7027,259.4286,171.5786,258.7014,170.8515,258.0227,170.1728,257.0623,169.2123,256.25,168.4001,256.2668,168.4168,257.0755,167.5589,257.9605,166.7772,258.8087,165.9588,259.7271,165.2105,260.4167,164.2334" style="stroke:#333333;stroke-width:1.0416666666666667;"/><path d="M254.1667,168.4001 L254.1667,168.692 L264.6701,167.8246 L275.1736,168.6685 L285.6771,168.9552 L296.1806,167.4092 L306.684,168.2921 L317.1875,167.8077 L327.691,167.8674 L338.1944,168.3054 L348.6979,167.4398 L359.2014,169.169 L369.7049,167.5247 L380.2083,168.1254 L390.7118,169 L401.2153,168.2809 L411.7188,168.4948 L422.2222,168.3557 L432.7257,168.648 L443.2292,168.7322 L453.7326,169.2135 L464.2361,169.3321 L474.7396,169.3435 L485.2431,168.7537 L495.7465,169.0439 L506.25,168.4001 " fill="none" style="stroke:#333333;stroke-width:3.125;"/><text fill="#2E2E2E" font-family="Segoe Print" font-size="12.5" lengthAdjust="spacing" textLength="106.25" x="325" y="158.4717">&#36820;&#22238; access token</text><!--SRC=[XPAnRXD148RxVOhXeB0BImJRsB44ah6K2XgWjvRns5xTUTViZcCbPMWY9AXe8Y1Ig92GiAXSvcbyy1YCxwvmVBPJdFQqyyt__pkx8JPsghsU90vZ6e1tCpj0vorvE7gimbOvqFiPMQHN588UKJSn8mj8bicNMEszc_TSuZmyR6fiONqtSk8i5zXyR9XAbFopGJFLbbzeZ4TPngAZVjnuqcWVQjcGRxOGs_gWllC3yeUrDRBpzuREg3joUznpSFjSxBKDWibezrx2IpEKpz8T5pryfx5Hwh6EgMGoRDIVDfixsTBvr0CUquGWnCGuFgkv6IVYBVkFC34I4vv1jFhz8xrS_lsrW4elswn6KjSp7hyXVofFIfZqysNw_KFwxTFguytgwYTKkb9stfnhDiv23agVYWhX26hF8TfGYJhmRx5C_rn05r4U8hnrCLcrZWq93LaLWT3JG5QZam2LrrKrafbody-cr84SwMyZ0TsK5Dby2EiC6xPvZYAKPBZzilfwBVUNPU0iWrB_0G00]--></g></svg>