<?xml version="1.0" encoding="utf-8" standalone="no"?>
<!DOCTYPE svg PUBLIC "-//W3C//DTD SVG 1.1//EN"
  "http://www.w3.org/Graphics/SVG/1.1/DTD/svg11.dtd">
<svg xmlns:xlink="http://www.w3.org/1999/xlink" width="460.8pt" height="345.6pt" viewBox="0 0 460.8 345.6" xmlns="http://www.w3.org/2000/svg" version="1.1">
 <metadata>
  <rdf:RDF xmlns:dc="http://purl.org/dc/elements/1.1/" xmlns:cc="http://creativecommons.org/ns#" xmlns:rdf="http://www.w3.org/1999/02/22-rdf-syntax-ns#">
   <cc:Work>
    <dc:type rdf:resource="http://purl.org/dc/dcmitype/StillImage"/>
    <dc:date>2024-06-09T13:26:10.367200</dc:date>
    <dc:format>image/svg+xml</dc:format>
    <dc:creator>
     <cc:Agent>
      <dc:title>Matplotlib v3.9.0, https://matplotlib.org/</dc:title>
     </cc:Agent>
    </dc:creator>
   </cc:Work>
  </rdf:RDF>
 </metadata>
 <defs>
  <style type="text/css">*{stroke-linejoin: round; stroke-linecap: butt}</style>
 </defs>
 <g id="figure_1">
  <g id="patch_1">
   <path d="M 0 345.6 
L 460.8 345.6 
L 460.8 0 
L 0 0 
L 0 345.6 
z
" style="fill: none"/>
  </g>
  <g id="axes_1">
   <g id="patch_2">
    <path d="M 46.08 293.76 
L 414.72 293.76 
L 414.72 34.56 
L 46.08 34.56 
L 46.08 293.76 
z
" style="fill: none"/>
   </g>
   <g id="matplotlib.axis_1">
    <g id="xtick_1">
     <g id="line2d_1">
      <defs>
       <path id="m05ce138136" d="M 0 0 
L 0 3.5 
" style="stroke: #000000; stroke-width: 0.8"/>
      </defs>
      <g>
       <use xlink:href="#m05ce138136" x="107.52" y="293.76" style="stroke: #000000; stroke-width: 0.8"/>
      </g>
     </g>
     <g id="text_1">
      <!-- A -->
      <g transform="translate(104.349688 307.719375) scale(0.1 -0.1)">
       <defs>
        <path id="HannotateSC-W5-41" d="M 3738 422 
C 3738 474 3731 544 3725 646 
C 3712 749 3706 864 3693 998 
C 3680 1126 3661 1274 3648 1434 
L 3584 1914 
L 3520 2374 
L 3443 2848 
L 3347 3309 
C 3309 3462 3270 3610 3226 3757 
C 3200 3834 3168 3910 3130 3987 
C 3091 4064 3040 4141 2989 4205 
C 2931 4269 2867 4326 2790 4371 
C 2714 4410 2637 4435 2547 4435 
C 2406 4435 2266 4378 2138 4269 
C 2003 4160 1875 4019 1754 3846 
C 1626 3667 1510 3469 1408 3251 
C 1293 3034 1197 2816 1107 2605 
C 1018 2387 934 2182 870 1990 
C 806 1792 755 1632 723 1510 
C 646 1530 589 1542 550 1555 
C 499 1568 461 1574 422 1574 
C 371 1574 333 1568 307 1555 
C 275 1542 250 1523 237 1504 
C 218 1466 205 1440 198 1421 
C 186 1395 173 1363 160 1325 
C 173 1274 192 1229 218 1197 
C 230 1165 256 1139 288 1126 
C 314 1107 358 1094 410 1088 
C 454 1075 518 1069 595 1069 
C 570 960 544 864 525 787 
L 474 538 
C 448 448 435 365 422 288 
C 410 205 410 128 410 58 
C 410 19 422 0 461 -26 
C 486 -45 525 -64 570 -83 
C 608 -96 653 -109 704 -122 
C 749 -122 787 -128 813 -128 
C 870 -128 928 -96 979 -45 
C 1030 6 1056 58 1056 109 
C 1056 250 1062 410 1075 576 
C 1088 742 1107 909 1139 1075 
L 1651 1114 
C 1811 1126 1971 1139 2131 1165 
C 2285 1184 2445 1210 2611 1242 
C 2765 1267 2938 1306 3130 1350 
C 3130 1254 3136 1146 3149 1030 
C 3149 915 3155 832 3155 794 
C 3155 749 3149 710 3142 672 
C 3130 634 3123 589 3110 550 
C 3098 512 3085 480 3078 442 
C 3066 403 3066 371 3066 333 
C 3066 262 3104 198 3187 147 
C 3264 96 3341 70 3424 70 
C 3533 70 3610 102 3661 173 
C 3712 243 3738 326 3738 422 
z
M 3078 1722 
C 2771 1645 2470 1587 2176 1549 
C 1882 1504 1574 1478 1242 1478 
C 1350 1875 1485 2266 1645 2643 
C 1798 3021 1990 3360 2221 3667 
C 2285 3757 2349 3827 2413 3878 
C 2477 3930 2528 3955 2566 3955 
C 2573 3955 2586 3949 2611 3936 
C 2624 3923 2637 3910 2650 3891 
C 2688 3808 2720 3718 2746 3616 
L 2816 3328 
C 2835 3232 2854 3142 2867 3053 
C 2880 2963 2899 2874 2918 2797 
C 2944 2637 2970 2464 2995 2285 
C 3021 2099 3046 1914 3078 1722 
z
" transform="scale(0.015625)"/>
       </defs>
       <use xlink:href="#HannotateSC-W5-41"/>
      </g>
     </g>
    </g>
    <g id="xtick_2">
     <g id="line2d_2">
      <g>
       <use xlink:href="#m05ce138136" x="230.4" y="293.76" style="stroke: #000000; stroke-width: 0.8"/>
      </g>
     </g>
     <g id="text_2">
      <!-- B -->
      <g transform="translate(227.220313 307.719375) scale(0.1 -0.1)">
       <defs>
        <path id="HannotateSC-W5-42" d="M 3750 1254 
C 3750 1472 3654 1677 3475 1869 
C 3290 2054 3008 2189 2630 2278 
C 2810 2355 2963 2438 3085 2534 
C 3200 2624 3290 2726 3360 2829 
C 3424 2931 3475 3034 3501 3142 
C 3526 3245 3539 3354 3539 3456 
C 3539 3603 3514 3744 3469 3872 
C 3418 4000 3347 4109 3251 4205 
C 3155 4301 3034 4378 2893 4435 
C 2746 4486 2579 4512 2387 4512 
C 2202 4512 2010 4474 1811 4397 
C 1606 4320 1408 4224 1203 4109 
C 1190 4230 1178 4326 1152 4397 
C 1120 4461 1069 4499 998 4499 
C 934 4499 877 4480 819 4454 
C 762 4422 717 4384 691 4339 
L 717 4090 
L 710 3738 
C 646 3680 621 3635 621 3610 
C 621 3597 627 3578 640 3565 
C 653 3546 672 3526 710 3501 
L 710 2970 
C 710 2842 704 2707 704 2579 
L 704 2208 
C 704 1978 698 1747 685 1517 
C 672 1286 646 1050 621 794 
C 512 781 435 755 390 717 
C 339 672 320 627 320 576 
C 320 512 346 467 397 442 
C 442 416 499 390 570 365 
L 570 243 
C 570 224 576 205 589 192 
C 602 166 627 147 666 134 
C 698 115 730 109 768 109 
C 800 109 838 122 883 147 
C 922 166 954 205 979 269 
C 1037 250 1114 237 1203 224 
C 1293 205 1382 192 1485 179 
C 1581 166 1677 154 1779 147 
C 1869 134 1952 134 2029 134 
C 2163 134 2285 134 2400 147 
C 2509 147 2611 160 2714 179 
C 2810 192 2906 218 2995 256 
C 3085 288 3181 333 3283 397 
C 3424 474 3533 582 3622 723 
C 3706 858 3750 1037 3750 1254 
z
M 3066 3469 
C 3066 3123 2906 2874 2598 2714 
C 2278 2547 1805 2445 1178 2394 
L 1190 2714 
L 1190 3277 
C 1190 3366 1197 3469 1197 3578 
C 1274 3629 1357 3693 1459 3757 
C 1555 3821 1658 3878 1766 3936 
C 1869 3987 1978 4026 2086 4064 
C 2189 4102 2291 4122 2394 4122 
C 2496 4122 2592 4102 2682 4064 
C 2765 4026 2835 3974 2893 3910 
C 2944 3846 2989 3782 3021 3706 
C 3046 3629 3066 3546 3066 3469 
z
M 3258 1184 
C 3258 992 3162 838 2970 717 
C 2778 589 2470 531 2035 531 
C 1933 531 1830 531 1741 544 
C 1651 557 1562 570 1485 589 
C 1408 595 1344 608 1286 621 
L 1094 659 
C 1120 896 1133 1120 1139 1331 
C 1139 1536 1139 1760 1152 2003 
L 1498 2003 
C 1562 1997 1632 1997 1696 1997 
L 1862 1997 
C 2003 1997 2150 1984 2317 1965 
C 2477 1939 2624 1901 2765 1843 
C 2906 1779 3021 1696 3117 1594 
C 3206 1485 3258 1350 3258 1184 
z
" transform="scale(0.015625)"/>
       </defs>
       <use xlink:href="#HannotateSC-W5-42"/>
      </g>
     </g>
    </g>
    <g id="xtick_3">
     <g id="line2d_3">
      <g>
       <use xlink:href="#m05ce138136" x="353.28" y="293.76" style="stroke: #000000; stroke-width: 0.8"/>
      </g>
     </g>
     <g id="text_3">
      <!-- C -->
      <g transform="translate(350.269844 307.719375) scale(0.1 -0.1)">
       <defs>
        <path id="HannotateSC-W5-43" d="M 3533 1267 
C 3533 1325 3501 1370 3443 1408 
C 3386 1440 3328 1459 3270 1459 
C 3219 1459 3181 1446 3155 1434 
C 3123 1414 3098 1389 3078 1363 
C 3040 1318 3008 1274 2982 1235 
C 2944 1190 2912 1152 2874 1114 
C 2797 1030 2714 954 2624 877 
C 2522 800 2419 730 2310 672 
C 2195 608 2080 563 1965 531 
C 1843 493 1722 474 1606 474 
C 1504 474 1408 493 1318 531 
C 1216 570 1133 634 1062 723 
C 986 800 922 909 877 1043 
C 826 1171 806 1331 806 1517 
C 806 1632 806 1766 819 1914 
C 832 2054 845 2189 858 2310 
C 896 2586 954 2835 1037 3066 
C 1114 3283 1203 3475 1306 3629 
C 1408 3782 1517 3904 1632 3994 
C 1747 4077 1856 4122 1965 4122 
C 2016 4122 2067 4109 2118 4096 
C 2163 4077 2208 4051 2253 4026 
C 2310 3981 2368 3936 2419 3885 
C 2470 3834 2522 3776 2566 3725 
C 2592 3680 2618 3648 2643 3635 
C 2669 3610 2701 3584 2739 3571 
C 2765 3552 2797 3546 2835 3546 
C 2893 3546 2950 3558 3008 3590 
C 3059 3622 3091 3667 3091 3731 
C 3091 3750 3085 3770 3072 3795 
L 3046 3846 
C 2982 3917 2912 3987 2835 4064 
C 2752 4141 2662 4205 2566 4269 
C 2464 4326 2362 4378 2253 4416 
C 2144 4454 2035 4474 1920 4474 
C 1766 4474 1626 4442 1491 4384 
C 1350 4320 1235 4250 1139 4160 
C 973 4006 832 3827 723 3616 
C 608 3405 518 3181 448 2950 
C 378 2707 326 2470 301 2234 
C 269 1990 256 1773 256 1581 
C 256 1446 269 1312 294 1184 
C 314 1050 352 922 410 806 
C 467 685 544 576 646 474 
C 742 371 864 282 1011 211 
C 1203 109 1414 64 1645 64 
C 1888 64 2099 96 2291 160 
C 2483 224 2650 314 2803 416 
C 2950 518 3085 640 3200 774 
C 3309 902 3405 1030 3494 1158 
L 3520 1210 
C 3526 1222 3533 1242 3533 1267 
z
" transform="scale(0.015625)"/>
       </defs>
       <use xlink:href="#HannotateSC-W5-43"/>
      </g>
     </g>
    </g>
    <g id="text_4">
     <!-- 组别 -->
     <g transform="translate(220.4 321.069375) scale(0.1 -0.1)">
      <defs>
       <path id="HannotateSC-W5-7ec4" d="M 4742 2566 
C 4806 2566 4902 2560 5030 2560 
C 5030 2176 5024 1805 5024 1446 
C 4998 1446 4986 1440 4973 1440 
C 4954 1427 4915 1414 4858 1414 
C 4512 1389 4218 1363 3981 1338 
C 3738 1312 3610 1299 3590 1299 
C 3514 1299 3437 1299 3373 1306 
C 3366 1574 3366 1869 3366 2195 
L 3366 2413 
C 3405 2413 3514 2432 3686 2464 
C 3859 2490 4051 2515 4256 2541 
C 4461 2554 4627 2566 4742 2566 
z
M 5030 2950 
L 5018 2950 
C 4992 2950 4973 2944 4960 2944 
C 4941 2931 4902 2918 4845 2918 
C 4499 2886 4205 2861 3962 2835 
C 3718 2810 3584 2797 3565 2797 
L 3373 2797 
C 3379 3104 3392 3475 3411 3910 
C 3411 3942 3411 3981 3418 4019 
C 3443 4019 3514 4045 3629 4096 
C 4051 4256 4429 4339 4755 4339 
C 4870 4339 4941 4301 4979 4237 
C 5018 4160 5037 4064 5037 3942 
C 5037 3603 5030 3270 5030 2950 
z
M 3469 4429 
C 3450 4454 3418 4480 3373 4512 
C 3296 4563 3232 4589 3181 4595 
C 3053 4595 2995 4544 2995 4448 
C 2995 4429 3002 4397 3008 4358 
C 3008 4307 3014 4269 3014 4237 
C 2989 3366 2976 2682 2976 2195 
C 2976 787 3002 -109 3059 -518 
C 2874 -531 2675 -550 2470 -576 
C 2432 -576 2419 -595 2419 -627 
C 2419 -678 2445 -742 2496 -832 
C 2534 -909 2592 -954 2656 -954 
C 2701 -954 2752 -947 2803 -934 
C 2854 -922 2925 -915 3002 -909 
C 3347 -858 3782 -819 4307 -800 
C 4838 -774 5216 -762 5446 -762 
C 5504 -762 5568 -768 5645 -781 
C 5709 -794 5779 -806 5843 -806 
C 5946 -794 6003 -742 6003 -640 
C 6003 -589 5939 -525 5824 -448 
C 5709 -384 5632 -352 5581 -352 
C 5517 -358 5466 -365 5421 -371 
C 5446 -90 5466 403 5466 1120 
L 5466 3987 
C 5459 4147 5434 4282 5382 4384 
C 5325 4474 5248 4544 5158 4608 
C 5062 4659 4960 4685 4851 4685 
C 4474 4685 4013 4595 3469 4429 
z
M 4915 -410 
C 4774 -410 4608 -422 4416 -435 
C 4128 -448 3827 -461 3514 -486 
L 3482 -486 
L 3482 -461 
C 3469 -435 3456 -384 3443 -301 
C 3424 -205 3411 -109 3405 -13 
C 3398 90 3392 314 3386 659 
C 3386 736 3379 826 3379 922 
C 3405 922 3514 934 3712 966 
C 3878 992 4070 1011 4275 1037 
C 4480 1050 4640 1062 4755 1062 
C 4813 1062 4902 1056 5018 1056 
L 5018 922 
C 4992 122 4973 -288 4960 -314 
C 4941 -346 4928 -378 4915 -410 
z
M 659 -109 
L 563 -122 
C 544 -211 538 -282 538 -339 
C 538 -403 550 -448 589 -486 
C 621 -525 659 -544 710 -544 
C 774 -544 864 -518 973 -474 
C 1075 -422 1274 -346 1562 -243 
C 1843 -141 2067 -70 2227 -38 
C 2342 -6 2438 6 2509 19 
L 2566 58 
C 2592 83 2605 122 2605 166 
C 2598 205 2579 243 2554 294 
C 2515 339 2470 365 2406 365 
C 2349 365 2240 339 2080 294 
C 1920 243 1734 186 1530 122 
C 1318 51 1146 0 1018 -38 
C 890 -77 768 -96 659 -109 
z
M 1331 762 
C 1517 762 1715 800 1920 877 
C 2112 928 2291 1018 2458 1133 
C 2515 1171 2547 1229 2547 1299 
C 2547 1427 2483 1491 2355 1491 
C 2336 1485 2317 1478 2291 1466 
C 1882 1229 1555 1114 1306 1114 
C 1210 1114 1165 1146 1165 1222 
C 1165 1446 1325 1760 1658 2170 
C 1978 2566 2214 2803 2381 2893 
C 2419 2918 2451 2938 2470 2957 
C 2490 2970 2502 2995 2502 3034 
C 2502 3098 2458 3168 2381 3238 
C 2304 3302 2227 3334 2150 3341 
C 2086 3341 2048 3328 2035 3309 
C 2035 3283 2022 3264 2010 3245 
C 1894 3149 1760 3008 1606 2822 
L 1600 2822 
C 1376 2746 1190 2714 1037 2714 
C 941 2714 890 2752 890 2822 
C 890 3021 1043 3322 1350 3725 
C 1645 4064 1888 4288 2080 4390 
C 2125 4410 2150 4442 2150 4486 
C 2150 4544 2106 4614 2016 4691 
C 1920 4755 1843 4787 1779 4787 
C 1741 4787 1715 4774 1696 4762 
C 1683 4736 1670 4717 1645 4691 
C 1491 4576 1299 4358 1062 4051 
C 813 3738 653 3475 576 3270 
C 493 3066 454 2912 454 2822 
C 454 2528 646 2387 1024 2387 
C 1107 2387 1197 2394 1286 2406 
C 1094 2144 966 1920 890 1741 
C 794 1536 749 1363 749 1229 
C 749 915 947 762 1331 762 
z
" transform="scale(0.015625)"/>
       <path id="HannotateSC-W5-522b" d="M 1158 4563 
C 1139 4602 1101 4634 1037 4646 
C 973 4659 902 4672 838 4672 
C 749 4672 704 4627 704 4538 
C 704 4525 704 4499 710 4474 
L 723 4365 
L 858 2502 
C 858 2458 877 2413 922 2362 
C 966 2310 1043 2291 1152 2291 
C 1229 2304 1267 2349 1267 2426 
L 1267 2445 
C 1293 2451 1325 2458 1363 2470 
C 1549 2496 1779 2522 2061 2541 
C 1984 2381 1894 2163 1786 1894 
L 1696 1664 
C 1306 1600 883 1504 435 1376 
L 422 1318 
C 422 1126 506 1011 672 973 
C 685 973 717 986 781 1011 
C 832 1037 883 1056 928 1069 
C 1120 1139 1318 1197 1523 1248 
C 1440 1043 1357 845 1280 653 
C 1114 262 998 -6 934 -160 
C 864 -314 806 -435 762 -531 
C 710 -621 691 -685 691 -730 
C 691 -774 723 -838 787 -915 
C 851 -986 909 -1024 960 -1024 
C 1024 -1024 1082 -992 1120 -934 
C 1158 -845 1216 -685 1293 -467 
C 1370 -250 1562 230 1856 986 
C 1901 1107 1946 1222 1997 1338 
C 2240 1376 2490 1395 2758 1402 
C 3034 1402 3174 1299 3174 1094 
C 3174 506 3046 -83 2790 -685 
C 2771 -710 2752 -730 2739 -749 
C 2720 -762 2714 -787 2714 -813 
C 2714 -870 2746 -928 2822 -992 
C 2899 -1056 2963 -1088 3014 -1088 
C 3053 -1088 3085 -1069 3117 -1043 
C 3142 -1011 3168 -973 3194 -922 
C 3258 -781 3334 -525 3424 -154 
C 3520 224 3571 634 3571 1069 
C 3571 1267 3520 1414 3430 1510 
C 3341 1606 3232 1677 3110 1715 
C 2982 1741 2854 1760 2720 1760 
C 2541 1760 2349 1747 2150 1728 
C 2278 2048 2368 2259 2432 2362 
C 2470 2438 2502 2509 2528 2566 
C 2733 2573 2893 2579 3002 2579 
C 3053 2579 3117 2573 3181 2560 
C 3245 2547 3302 2541 3360 2541 
C 3450 2541 3501 2592 3501 2694 
C 3501 2733 3443 2790 3341 2854 
C 3379 2938 3411 3059 3443 3219 
C 3514 3578 3552 3891 3552 4160 
C 3552 4288 3501 4390 3411 4474 
C 3322 4557 3219 4614 3104 4646 
C 2995 4672 2886 4685 2784 4685 
C 2278 4685 1734 4640 1158 4557 
L 1158 4563 
z
M 1242 2803 
C 1242 2829 1235 2854 1235 2886 
C 1210 3142 1190 3424 1178 3738 
C 1165 3904 1152 4045 1152 4173 
L 1235 4192 
C 1363 4224 1581 4256 1894 4288 
C 2202 4314 2509 4326 2803 4326 
C 2995 4326 3091 4275 3091 4179 
C 3091 3808 3040 3430 2950 3046 
L 2906 2938 
L 2899 2925 
C 2886 2918 2880 2918 2867 2918 
C 2784 2906 2586 2893 2272 2880 
C 2080 2867 1882 2848 1670 2835 
C 1536 2822 1395 2816 1242 2803 
z
M 4467 2982 
C 4467 3155 4480 3296 4499 3398 
C 4518 3494 4531 3558 4531 3597 
C 4531 3629 4493 3667 4429 3712 
C 4358 3757 4288 3782 4218 3782 
C 4128 3782 4077 3731 4077 3642 
C 4083 3603 4090 3571 4090 3558 
L 4141 563 
C 4141 454 4166 365 4218 301 
C 4262 224 4339 186 4448 186 
C 4550 186 4608 237 4614 346 
C 4614 384 4595 474 4570 614 
C 4538 755 4518 922 4506 1120 
C 4480 1389 4467 2010 4467 2982 
z
M 5722 1203 
L 5747 3552 
C 5747 3802 5747 4000 5760 4154 
C 5766 4307 5779 4435 5805 4538 
C 5818 4634 5830 4698 5830 4723 
C 5830 4762 5798 4800 5747 4832 
C 5696 4858 5645 4877 5600 4877 
C 5549 4877 5485 4838 5414 4774 
C 5331 4717 5293 4659 5293 4608 
C 5293 4576 5299 4531 5318 4480 
C 5318 4416 5325 4346 5338 4269 
C 5344 4179 5350 3981 5350 3667 
L 5350 1075 
C 5350 512 5344 19 5338 -390 
L 5338 -749 
C 5338 -986 5446 -1107 5670 -1107 
C 5709 -1107 5754 -1094 5798 -1069 
C 5837 -1043 5856 -1005 5856 -960 
C 5856 -922 5850 -890 5837 -858 
C 5824 -826 5818 -794 5805 -762 
C 5779 -640 5760 -525 5760 -416 
C 5734 58 5722 602 5722 1203 
z
" transform="scale(0.015625)"/>
      </defs>
      <use xlink:href="#HannotateSC-W5-7ec4"/>
      <use xlink:href="#HannotateSC-W5-522b" x="99.999985"/>
     </g>
    </g>
   </g>
   <g id="matplotlib.axis_2">
    <g id="ytick_1">
     <g id="line2d_4">
      <defs>
       <path id="mfce19ac3c5" d="M 0 0 
L -3.5 0 
" style="stroke: #000000; stroke-width: 0.8"/>
      </defs>
      <g>
       <use xlink:href="#mfce19ac3c5" x="46.08" y="259.536623" style="stroke: #000000; stroke-width: 0.8"/>
      </g>
     </g>
     <g id="text_5">
      <!-- 80 -->
      <g transform="translate(26.939375 263.016311) scale(0.1 -0.1)">
       <defs>
        <path id="HannotateSC-W5-38" d="M 3578 1299 
C 3578 1453 3526 1619 3430 1786 
C 3328 1952 3136 2112 2861 2259 
C 2771 2298 2682 2336 2592 2374 
C 2496 2406 2381 2445 2246 2490 
L 2458 2643 
C 2515 2694 2573 2739 2630 2784 
C 2682 2829 2739 2874 2790 2925 
C 2842 2963 2906 3014 2970 3066 
C 3142 3206 3258 3315 3315 3398 
C 3366 3482 3398 3558 3398 3629 
C 3398 3686 3379 3744 3341 3795 
C 3296 3840 3238 3878 3168 3904 
C 3168 3930 3174 3955 3174 3974 
L 3174 4013 
C 3174 4077 3136 4128 3066 4179 
C 3027 4198 2982 4218 2925 4243 
L 2835 4269 
C 2803 4275 2771 4288 2739 4301 
C 2675 4326 2598 4346 2522 4371 
C 2438 4397 2355 4416 2278 4442 
C 2189 4461 2112 4480 2035 4493 
C 1952 4506 1888 4512 1837 4512 
C 1568 4512 1350 4474 1178 4397 
C 998 4320 851 4218 742 4102 
C 634 3987 557 3859 512 3718 
C 461 3578 442 3450 442 3328 
C 442 3136 506 2957 646 2797 
C 781 2630 973 2483 1216 2355 
C 1101 2278 1005 2214 922 2157 
C 838 2093 768 2029 710 1971 
C 570 1830 467 1702 403 1581 
C 339 1453 307 1325 307 1203 
C 307 1050 339 909 403 768 
C 467 627 563 499 704 390 
C 832 282 1005 198 1210 134 
C 1414 64 1658 32 1946 32 
C 2214 32 2458 58 2662 122 
C 2867 186 3034 269 3174 384 
C 3302 493 3405 627 3475 787 
C 3539 941 3578 1107 3578 1299 
z
M 2861 3725 
C 2835 3680 2810 3642 2790 3616 
L 2726 3539 
L 2496 3309 
C 2413 3226 2330 3142 2240 3066 
C 2150 2982 2054 2906 1965 2835 
C 1869 2758 1779 2694 1696 2643 
C 1491 2714 1318 2810 1190 2925 
C 1062 3040 998 3181 998 3347 
C 998 3443 1011 3539 1043 3629 
C 1069 3718 1114 3795 1178 3866 
C 1242 3930 1318 3987 1421 4026 
C 1517 4064 1638 4090 1779 4090 
C 1920 4090 2061 4064 2202 4026 
C 2342 3981 2464 3936 2560 3891 
C 2611 3866 2662 3834 2707 3808 
C 2746 3782 2797 3750 2861 3725 
z
M 3066 1216 
C 3066 1088 3034 979 2970 877 
C 2906 774 2822 691 2720 621 
C 2618 544 2496 493 2368 454 
C 2234 410 2099 390 1958 390 
C 1760 390 1587 410 1446 454 
C 1306 499 1184 557 1094 634 
C 998 710 928 794 883 890 
C 832 986 813 1088 813 1190 
C 813 1261 838 1350 896 1466 
C 947 1568 1056 1690 1222 1824 
C 1293 1882 1370 1939 1446 2003 
C 1523 2054 1613 2112 1715 2170 
C 2611 1907 3066 1587 3066 1216 
z
" transform="scale(0.015625)"/>
        <path id="HannotateSC-W5-30" d="M 3398 2662 
C 3398 3814 2989 4397 2176 4397 
C 1664 4397 1248 4115 928 3552 
C 634 3034 486 2419 486 1709 
C 486 1184 595 787 826 506 
C 1050 224 1382 83 1818 83 
C 2362 83 2778 371 3059 954 
C 3283 1414 3398 1984 3398 2662 
z
M 2918 2605 
C 2918 2067 2822 1600 2630 1190 
C 2413 742 2144 518 1818 518 
C 1254 518 973 922 973 1741 
C 973 2330 1088 2848 1318 3296 
C 1549 3738 1818 3962 2131 3962 
C 2656 3962 2918 3507 2918 2605 
z
" transform="scale(0.015625)"/>
       </defs>
       <use xlink:href="#HannotateSC-W5-38"/>
       <use xlink:href="#HannotateSC-W5-30" x="60.699997"/>
      </g>
     </g>
    </g>
    <g id="ytick_2">
     <g id="line2d_5">
      <g>
       <use xlink:href="#mfce19ac3c5" x="46.08" y="203.432727" style="stroke: #000000; stroke-width: 0.8"/>
      </g>
     </g>
     <g id="text_6">
      <!-- 85 -->
      <g transform="translate(26.939375 206.912415) scale(0.1 -0.1)">
       <defs>
        <path id="HannotateSC-W5-35" d="M 3507 1523 
C 3507 1869 3366 2144 3098 2355 
C 2957 2451 2810 2515 2650 2541 
C 2483 2560 2323 2573 2157 2573 
C 2003 2573 1843 2554 1690 2528 
C 1536 2490 1370 2445 1190 2394 
C 1210 2637 1229 2861 1254 3066 
L 1306 3712 
C 1536 3731 1754 3757 1958 3782 
L 2566 3878 
C 2605 3885 2650 3891 2701 3898 
C 2746 3898 2790 3898 2842 3910 
L 2976 3936 
C 3014 3936 3059 3949 3098 3968 
C 3123 3981 3142 3994 3155 4006 
C 3162 4019 3168 4045 3168 4083 
C 3168 4109 3149 4141 3117 4179 
C 3078 4211 3040 4243 2995 4269 
C 2944 4294 2893 4320 2842 4346 
C 2790 4358 2746 4371 2720 4371 
C 2694 4371 2675 4365 2650 4358 
C 2624 4346 2605 4339 2579 4333 
L 2496 4307 
C 2464 4294 2438 4288 2419 4282 
C 2253 4237 2074 4205 1882 4179 
C 1683 4154 1491 4147 1306 4147 
C 1261 4186 1222 4218 1190 4230 
C 1152 4243 1107 4256 1069 4256 
C 1030 4256 998 4250 960 4237 
C 915 4224 883 4211 858 4198 
C 819 4122 794 4006 781 3853 
C 762 3693 749 3520 742 3341 
C 730 3149 717 2963 717 2784 
C 704 2605 698 2464 691 2368 
L 678 2285 
L 666 2195 
C 653 2131 646 2074 646 2016 
C 646 1997 653 1978 672 1952 
C 685 1926 710 1907 736 1888 
C 762 1869 787 1856 813 1843 
C 838 1830 858 1824 883 1824 
C 928 1824 973 1830 1011 1843 
C 1043 1856 1082 1869 1126 1894 
C 1165 1914 1210 1939 1254 1965 
C 1293 1984 1338 2003 1389 2022 
C 1517 2061 1638 2093 1760 2106 
C 1875 2118 2003 2131 2144 2131 
C 2246 2131 2349 2118 2451 2093 
C 2547 2067 2637 2029 2714 1978 
C 2790 1926 2848 1856 2899 1766 
C 2944 1677 2970 1568 2970 1440 
C 2970 1254 2931 1094 2867 954 
C 2790 813 2701 698 2586 608 
C 2470 512 2336 442 2189 390 
C 2035 339 1882 320 1728 320 
C 1574 320 1434 339 1318 378 
C 1190 416 1088 461 998 512 
C 947 531 909 557 870 582 
C 832 602 800 621 768 640 
C 730 653 698 672 672 685 
C 640 691 614 698 595 698 
C 531 698 486 672 448 634 
C 403 582 384 525 384 454 
C 384 378 410 314 461 262 
C 512 205 570 160 640 134 
C 691 109 768 83 870 58 
C 960 26 1062 0 1165 -19 
C 1267 -38 1370 -58 1472 -70 
C 1568 -83 1651 -96 1715 -96 
C 1958 -96 2189 -64 2406 0 
C 2624 64 2816 160 2982 301 
C 3142 429 3270 595 3366 800 
C 3456 1005 3507 1242 3507 1523 
z
" transform="scale(0.015625)"/>
       </defs>
       <use xlink:href="#HannotateSC-W5-38"/>
       <use xlink:href="#HannotateSC-W5-35" x="60.699997"/>
      </g>
     </g>
    </g>
    <g id="ytick_3">
     <g id="line2d_6">
      <g>
       <use xlink:href="#mfce19ac3c5" x="46.08" y="147.328831" style="stroke: #000000; stroke-width: 0.8"/>
      </g>
     </g>
     <g id="text_7">
      <!-- 90 -->
      <g transform="translate(26.939375 150.808519) scale(0.1 -0.1)">
       <defs>
        <path id="HannotateSC-W5-39" d="M 3501 3718 
C 3501 3744 3488 3776 3469 3808 
C 3443 3834 3418 3853 3392 3878 
C 3360 3898 3328 3917 3296 3930 
C 3258 3942 3226 3949 3200 3949 
L 3168 3949 
C 3155 3942 3149 3936 3136 3936 
L 3098 3923 
C 3078 3917 3059 3904 3046 3891 
C 3008 3981 2963 4058 2906 4128 
C 2842 4198 2778 4256 2707 4307 
C 2630 4358 2554 4397 2477 4422 
C 2394 4448 2317 4467 2253 4467 
C 2010 4467 1773 4416 1549 4314 
C 1318 4211 1120 4070 947 3898 
C 774 3718 640 3520 538 3290 
C 435 3059 384 2816 384 2560 
C 384 2381 410 2221 474 2080 
C 538 1933 621 1811 723 1715 
C 826 1613 941 1542 1069 1491 
C 1197 1434 1325 1408 1459 1408 
C 1677 1408 1875 1446 2067 1530 
C 2253 1606 2458 1741 2682 1920 
L 2650 1690 
C 2637 1594 2624 1491 2611 1389 
L 2560 1050 
L 2522 723 
C 2509 646 2502 576 2490 506 
C 2477 429 2464 352 2458 288 
L 2432 179 
C 2426 141 2426 102 2426 64 
C 2426 26 2451 -6 2509 -45 
C 2560 -70 2624 -90 2701 -90 
C 2758 -90 2816 -70 2867 -45 
C 2918 -6 2944 38 2957 102 
C 2976 224 2995 352 3008 480 
C 3021 608 3040 736 3053 864 
L 3142 1632 
L 3232 2406 
C 3238 2483 3251 2566 3264 2662 
C 3270 2752 3283 2848 3296 2950 
C 3309 3046 3322 3142 3341 3232 
C 3354 3322 3373 3405 3398 3482 
C 3405 3501 3418 3520 3430 3546 
C 3437 3565 3450 3584 3462 3610 
C 3469 3629 3475 3648 3488 3667 
C 3494 3680 3501 3693 3501 3718 
z
M 2810 3053 
C 2810 2963 2803 2874 2790 2784 
L 2752 2502 
L 2483 2253 
C 2387 2170 2291 2093 2189 2029 
C 2086 1958 1978 1901 1869 1862 
C 1754 1824 1632 1805 1510 1805 
C 1434 1805 1357 1818 1280 1856 
C 1203 1888 1133 1939 1075 2003 
C 1011 2061 966 2131 934 2221 
C 896 2304 877 2400 877 2502 
C 877 2669 915 2842 992 3021 
C 1069 3200 1165 3360 1293 3514 
C 1421 3667 1562 3789 1715 3891 
C 1869 3987 2022 4038 2176 4038 
C 2291 4038 2387 4000 2470 3936 
C 2547 3859 2618 3776 2669 3680 
C 2720 3578 2752 3469 2778 3360 
C 2797 3245 2810 3142 2810 3053 
z
" transform="scale(0.015625)"/>
       </defs>
       <use xlink:href="#HannotateSC-W5-39"/>
       <use xlink:href="#HannotateSC-W5-30" x="60.699997"/>
      </g>
     </g>
    </g>
    <g id="ytick_4">
     <g id="line2d_7">
      <g>
       <use xlink:href="#mfce19ac3c5" x="46.08" y="91.224935" style="stroke: #000000; stroke-width: 0.8"/>
      </g>
     </g>
     <g id="text_8">
      <!-- 95 -->
      <g transform="translate(26.939375 94.704623) scale(0.1 -0.1)">
       <use xlink:href="#HannotateSC-W5-39"/>
       <use xlink:href="#HannotateSC-W5-35" x="60.699997"/>
      </g>
     </g>
    </g>
    <g id="ytick_5">
     <g id="line2d_8">
      <g>
       <use xlink:href="#mfce19ac3c5" x="46.08" y="35.121039" style="stroke: #000000; stroke-width: 0.8"/>
      </g>
     </g>
     <g id="text_9">
      <!-- 100 -->
      <g transform="translate(20.869063 38.600726) scale(0.1 -0.1)">
       <defs>
        <path id="HannotateSC-W5-31" d="M 2624 4160 
C 2624 4243 2598 4307 2547 4346 
C 2490 4384 2419 4410 2330 4410 
C 2291 4410 2259 4390 2221 4365 
C 2182 4333 2150 4307 2131 4288 
C 2080 4237 2042 4192 2010 4141 
C 1971 4090 1926 4038 1888 3994 
C 1766 3853 1638 3699 1498 3546 
C 1350 3386 1210 3245 1075 3117 
C 1062 3104 1043 3091 1030 3078 
L 979 3053 
C 960 3040 941 3034 928 3021 
L 870 2982 
C 838 2957 813 2938 794 2918 
C 768 2893 762 2874 762 2854 
C 762 2778 794 2720 870 2675 
C 934 2624 1011 2605 1088 2605 
C 1146 2605 1197 2618 1248 2643 
C 1293 2669 1338 2707 1389 2758 
C 1421 2797 1459 2842 1510 2899 
L 1638 3040 
C 1670 3072 1722 3123 1786 3194 
C 1850 3264 1920 3347 2010 3443 
C 1990 3341 1971 3219 1958 3078 
C 1933 2938 1914 2797 1894 2643 
L 1843 2189 
C 1830 2035 1818 1888 1811 1760 
C 1798 1517 1786 1274 1779 1030 
C 1766 787 1760 576 1760 397 
C 1760 294 1786 218 1843 160 
C 1901 96 1978 70 2080 70 
C 2131 70 2189 83 2253 109 
C 2304 134 2336 166 2336 205 
C 2336 224 2330 262 2330 326 
C 2317 384 2310 454 2304 531 
C 2291 602 2278 678 2278 762 
C 2266 845 2266 922 2266 986 
C 2266 1434 2278 1882 2317 2336 
C 2355 2784 2426 3232 2541 3674 
C 2547 3712 2560 3750 2573 3795 
L 2598 3917 
L 2618 4038 
C 2618 4077 2624 4115 2624 4160 
z
" transform="scale(0.015625)"/>
       </defs>
       <use xlink:href="#HannotateSC-W5-31"/>
       <use xlink:href="#HannotateSC-W5-30" x="60.699997"/>
       <use xlink:href="#HannotateSC-W5-30" x="121.399994"/>
      </g>
     </g>
    </g>
    <g id="text_10">
     <!-- 成绩 -->
     <g transform="translate(14.659688 174.16) rotate(-90) scale(0.1 -0.1)">
      <defs>
       <path id="HannotateSC-W5-6210" d="M 787 3590 
C 723 3539 685 3482 685 3430 
C 685 3379 691 3341 704 3309 
C 723 3270 749 3232 787 3206 
C 826 3168 864 3149 909 3149 
C 934 3149 979 3149 1050 3162 
L 1037 3021 
C 787 1485 666 339 666 -410 
C 666 -544 666 -666 672 -768 
C 685 -877 717 -960 755 -1018 
C 800 -1082 864 -1120 941 -1120 
C 1037 -1120 1088 -1075 1088 -992 
C 1088 -973 1075 -947 1062 -915 
C 1050 -877 1050 -851 1050 -838 
C 1056 -141 1114 614 1216 1440 
C 1229 1434 1242 1434 1261 1434 
L 1344 1485 
C 1581 1613 1786 1683 1965 1683 
C 2157 1677 2291 1626 2355 1523 
C 2394 1453 2413 1370 2413 1267 
C 2413 826 2387 384 2349 -64 
C 2336 -173 2317 -243 2304 -275 
C 2259 -326 2240 -365 2240 -390 
C 2240 -416 2266 -467 2323 -531 
C 2387 -595 2432 -627 2470 -634 
C 2522 -634 2579 -608 2643 -557 
C 2707 -506 2746 -448 2765 -378 
C 2771 -326 2778 -269 2784 -198 
C 2784 -128 2790 -32 2797 90 
C 2816 576 2829 1005 2835 1389 
C 2835 1530 2797 1645 2726 1734 
C 2650 1811 2554 1882 2451 1946 
C 2330 1997 2189 2022 2022 2022 
C 1818 2022 1568 1978 1280 1894 
C 1331 2221 1389 2560 1453 2912 
C 1472 3027 1491 3117 1510 3168 
L 1523 3219 
L 1606 3232 
C 1978 3283 2547 3334 3315 3373 
C 3334 3373 3360 3373 3392 3379 
C 3494 2317 3693 1485 3981 890 
L 4090 659 
C 3923 410 3795 218 3718 77 
C 3578 -141 3462 -326 3366 -480 
C 3315 -538 3277 -582 3264 -614 
C 3251 -634 3245 -653 3245 -678 
C 3245 -742 3264 -806 3309 -877 
C 3347 -934 3392 -966 3443 -966 
C 3520 -966 3571 -947 3610 -909 
L 3718 -730 
C 3846 -429 4038 -90 4288 294 
C 4608 -243 4979 -646 5402 -909 
C 5542 -998 5683 -1043 5811 -1043 
C 5946 -1043 6016 -979 6016 -858 
C 6016 -749 5971 -666 5894 -608 
C 5856 -614 5824 -621 5798 -621 
C 5389 -474 4979 -26 4570 730 
C 4883 1203 5126 1523 5299 1690 
C 5504 1894 5632 2003 5696 2029 
C 5734 2086 5760 2150 5760 2221 
C 5760 2304 5696 2349 5568 2362 
C 5466 2349 5344 2272 5190 2125 
C 5024 1971 4774 1651 4429 1152 
C 4416 1133 4397 1114 4384 1088 
L 4384 1094 
C 4102 1715 3910 2483 3821 3405 
C 4320 3437 4698 3456 4954 3456 
C 5005 3456 5050 3450 5088 3450 
C 5120 3450 5158 3443 5197 3443 
C 5242 3430 5274 3430 5293 3430 
C 5350 3430 5395 3450 5427 3488 
C 5459 3526 5478 3571 5478 3622 
C 5478 3686 5459 3731 5427 3770 
C 5376 3808 5331 3834 5286 3859 
C 5248 3872 5197 3885 5146 3885 
C 5088 3885 4947 3866 4723 3834 
C 4582 3814 4275 3789 3795 3757 
C 3782 3840 3776 3930 3776 4026 
C 3770 4262 3770 4429 3770 4531 
C 3776 4582 3795 4634 3834 4672 
C 3834 4749 3782 4813 3693 4864 
C 3648 4883 3597 4896 3533 4896 
C 3392 4883 3328 4787 3328 4608 
C 3328 4442 3328 4243 3341 4019 
C 3341 3917 3347 3821 3360 3725 
L 2739 3680 
C 1626 3597 1043 3558 992 3558 
C 954 3558 928 3558 902 3565 
C 864 3565 838 3571 826 3571 
L 787 3590 
z
M 5978 3962 
C 5971 4051 5875 4205 5690 4435 
C 5498 4666 5338 4787 5197 4800 
C 5114 4800 5050 4768 5011 4710 
C 4960 4653 4941 4589 4941 4525 
C 4941 4474 4966 4435 5030 4416 
C 5082 4390 5152 4346 5229 4294 
C 5293 4243 5382 4166 5485 4064 
C 5587 3942 5645 3859 5664 3814 
C 5677 3763 5696 3738 5722 3738 
C 5786 3738 5850 3763 5907 3821 
C 5952 3872 5978 3923 5978 3962 
z
" transform="scale(0.015625)"/>
       <path id="HannotateSC-W5-7ee9" d="M 4442 4781 
C 4442 4813 4410 4845 4346 4870 
C 4269 4896 4198 4909 4134 4909 
C 4032 4909 3987 4864 3987 4781 
L 3981 4397 
C 3910 4390 3840 4384 3770 4378 
C 3392 4333 3181 4314 3142 4314 
C 3027 4301 2938 4301 2874 4301 
C 2829 4301 2797 4288 2784 4275 
C 2758 4256 2752 4230 2752 4198 
C 2752 4160 2771 4102 2816 4038 
C 2861 3968 2912 3936 2970 3936 
C 2989 3936 3085 3955 3264 3994 
C 3482 4032 3718 4064 3974 4096 
L 3962 3648 
C 3910 3635 3853 3629 3795 3622 
L 3277 3558 
C 3181 3546 3104 3546 3053 3546 
C 3014 3546 2982 3539 2963 3526 
C 2938 3514 2931 3488 2931 3456 
C 2931 3411 2950 3360 3002 3296 
C 3040 3226 3091 3194 3142 3194 
C 3155 3194 3238 3213 3379 3251 
C 3558 3290 3750 3328 3955 3354 
L 3949 2906 
L 3571 2867 
C 3238 2835 2886 2790 2509 2726 
C 2477 2720 2464 2707 2464 2682 
C 2464 2630 2483 2566 2534 2496 
C 2573 2419 2618 2381 2675 2381 
C 2726 2381 2778 2387 2829 2406 
C 2880 2419 2944 2438 3027 2464 
C 3373 2541 3821 2592 4358 2630 
C 4896 2669 5274 2694 5504 2694 
C 5562 2694 5626 2688 5690 2675 
C 5747 2656 5805 2650 5869 2650 
C 5958 2650 6010 2707 6010 2810 
C 6010 2848 5952 2899 5850 2976 
C 5747 3040 5677 3072 5632 3072 
L 5376 3034 
C 5248 3021 4954 2995 4480 2957 
L 4358 2944 
L 4371 3405 
C 4563 3424 4717 3437 4845 3437 
C 4902 3437 5005 3430 5152 3430 
C 5338 3430 5434 3469 5440 3546 
C 5434 3597 5389 3654 5306 3718 
C 5216 3763 5152 3789 5101 3789 
C 5075 3789 5062 3782 5050 3782 
C 5037 3776 4998 3770 4934 3763 
C 4742 3738 4557 3718 4378 3699 
L 4384 4134 
C 4653 4147 4877 4160 5050 4160 
C 5114 4160 5222 4154 5370 4154 
C 5562 4154 5664 4192 5670 4269 
C 5664 4326 5619 4384 5536 4448 
C 5446 4499 5370 4525 5318 4525 
C 5293 4525 5280 4518 5267 4512 
C 5248 4506 5210 4499 5152 4493 
C 4883 4474 4627 4454 4390 4435 
L 4397 4582 
C 4397 4608 4403 4646 4416 4691 
C 4429 4730 4442 4755 4442 4781 
z
M 3379 2086 
C 3366 2112 3334 2138 3296 2163 
C 3232 2195 3168 2214 3110 2214 
C 3059 2214 3027 2202 3002 2182 
C 2976 2163 2963 2144 2963 2118 
L 2963 2054 
C 2963 2035 2970 2010 2970 1971 
C 2957 1664 2957 1453 2957 1331 
C 2957 614 2976 179 3014 32 
C 3027 -6 3046 -51 3078 -90 
C 3117 -115 3168 -134 3238 -134 
C 3290 -134 3328 -115 3366 -90 
C 3405 -51 3424 -13 3424 38 
C 3424 77 3418 122 3405 173 
L 3386 307 
C 3366 435 3360 774 3360 1325 
C 3360 1421 3360 1542 3373 1696 
C 3386 1702 3424 1722 3488 1747 
C 3981 1907 4410 1990 4768 1990 
C 4922 1984 5024 1939 5075 1850 
C 5101 1786 5120 1709 5120 1619 
C 5120 1235 5114 845 5114 461 
L 5114 275 
C 5062 211 5043 173 5043 154 
C 5043 122 5075 77 5139 13 
C 5190 -51 5242 -83 5280 -90 
C 5331 -90 5395 -64 5459 -13 
C 5517 38 5555 96 5574 166 
C 5568 211 5568 269 5568 333 
C 5568 390 5562 474 5562 582 
C 5549 1005 5549 1389 5549 1728 
C 5549 1856 5517 1952 5453 2029 
C 5382 2106 5299 2170 5197 2227 
C 5094 2266 4966 2291 4819 2291 
C 4422 2291 3942 2221 3379 2086 
z
M 5670 -698 
C 5670 -685 5658 -672 5632 -666 
C 5613 -653 5594 -640 5568 -634 
L 5306 -422 
C 5158 -301 5030 -205 4928 -128 
C 4819 -58 4749 -13 4717 13 
C 4678 45 4653 64 4634 64 
C 4589 64 4544 32 4506 -26 
C 4467 -77 4448 -122 4448 -160 
C 4448 -192 4461 -224 4499 -256 
C 4518 -275 4550 -301 4589 -333 
C 4627 -358 4672 -384 4723 -416 
C 4870 -531 5005 -646 5126 -755 
C 5229 -858 5299 -934 5331 -973 
C 5363 -1011 5395 -1030 5421 -1030 
C 5466 -1030 5510 -1018 5549 -1005 
C 5587 -979 5619 -941 5645 -890 
C 5658 -838 5670 -774 5670 -698 
z
M 4032 1280 
C 4038 1229 4045 1133 4045 998 
C 4045 858 4013 710 3962 563 
C 3898 410 3795 224 3648 13 
C 3494 -192 3360 -358 3232 -474 
C 3104 -589 3008 -659 2950 -698 
L 2822 -762 
C 2848 -966 2912 -1088 3027 -1114 
C 3091 -1114 3168 -1075 3264 -1005 
C 3354 -934 3469 -813 3622 -646 
C 3776 -480 3962 -224 4173 134 
C 4256 282 4320 429 4358 576 
C 4390 704 4416 845 4435 986 
C 4448 1126 4454 1229 4454 1293 
C 4454 1325 4429 1363 4378 1402 
C 4326 1434 4256 1453 4173 1453 
C 4134 1453 4096 1434 4064 1408 
C 4038 1370 4032 1331 4032 1280 
z
M 659 -109 
L 563 -122 
C 544 -211 538 -282 538 -339 
C 538 -403 550 -448 589 -486 
C 621 -525 659 -544 710 -544 
C 774 -544 864 -518 973 -474 
C 1075 -422 1274 -346 1562 -243 
C 1843 -141 2067 -70 2227 -38 
C 2342 -6 2438 6 2509 19 
L 2566 58 
C 2592 83 2605 122 2605 166 
C 2598 205 2579 243 2554 294 
C 2515 339 2470 365 2406 365 
C 2349 365 2240 339 2080 294 
C 1920 243 1734 186 1530 122 
C 1318 51 1146 0 1018 -38 
C 890 -77 768 -96 659 -109 
z
M 1331 762 
C 1517 762 1715 800 1920 877 
C 2112 928 2291 1018 2458 1133 
C 2515 1171 2547 1229 2547 1299 
C 2547 1427 2483 1491 2355 1491 
C 2336 1485 2317 1478 2291 1466 
C 1882 1229 1555 1114 1306 1114 
C 1210 1114 1165 1146 1165 1222 
C 1165 1446 1325 1760 1658 2170 
C 1978 2566 2214 2803 2381 2893 
C 2419 2918 2451 2938 2470 2957 
C 2490 2970 2502 2995 2502 3034 
C 2502 3098 2458 3168 2381 3238 
C 2304 3302 2227 3334 2150 3341 
C 2086 3341 2048 3328 2035 3309 
C 2035 3283 2022 3264 2010 3245 
C 1894 3149 1760 3008 1606 2822 
L 1600 2822 
C 1376 2746 1190 2714 1037 2714 
C 941 2714 890 2752 890 2822 
C 890 3021 1043 3322 1350 3725 
C 1645 4064 1888 4288 2080 4390 
C 2125 4410 2150 4442 2150 4486 
C 2150 4544 2106 4614 2016 4691 
C 1920 4755 1843 4787 1779 4787 
C 1741 4787 1715 4774 1696 4762 
C 1683 4736 1670 4717 1645 4691 
C 1491 4576 1299 4358 1062 4051 
C 813 3738 653 3475 576 3270 
C 493 3066 454 2912 454 2822 
C 454 2528 646 2387 1024 2387 
C 1107 2387 1197 2394 1286 2406 
C 1094 2144 966 1920 890 1741 
C 794 1536 749 1363 749 1229 
C 749 915 947 762 1331 762 
z
" transform="scale(0.015625)"/>
      </defs>
      <use xlink:href="#HannotateSC-W5-6210"/>
      <use xlink:href="#HannotateSC-W5-7ee9" x="99.999985"/>
     </g>
    </g>
   </g>
   <g id="line2d_9">
    <path d="M 89.088 180.991169 
L 125.952 180.991169 
L 125.952 150.134026 
L 89.088 150.134026 
L 89.088 180.991169 
" clip-path="url(#p852edb533d)" style="fill: none; stroke: #1f77b4; stroke-linecap: square"/>
   </g>
   <g id="line2d_10">
    <path d="M 107.52 180.991169 
L 107.52 203.432727 
" clip-path="url(#p852edb533d)" style="fill: none; stroke: #1f77b4; stroke-linecap: square"/>
   </g>
   <g id="line2d_11">
    <path d="M 107.52 150.134026 
L 107.52 124.887273 
" clip-path="url(#p852edb533d)" style="fill: none; stroke: #1f77b4; stroke-linecap: square"/>
   </g>
   <g id="line2d_12">
    <path d="M 98.304 203.432727 
L 116.736 203.432727 
" clip-path="url(#p852edb533d)" style="fill: none; stroke: #000000; stroke-linecap: square"/>
   </g>
   <g id="line2d_13">
    <path d="M 98.304 124.887273 
L 116.736 124.887273 
" clip-path="url(#p852edb533d)" style="fill: none; stroke: #000000; stroke-linecap: square"/>
   </g>
   <g id="line2d_14"/>
   <g id="line2d_15">
    <path d="M 211.968 256.731429 
L 248.832 256.731429 
L 248.832 217.458701 
L 211.968 217.458701 
L 211.968 256.731429 
" clip-path="url(#p852edb533d)" style="fill: none; stroke: #1f77b4; stroke-linecap: square"/>
   </g>
   <g id="line2d_16">
    <path d="M 230.4 256.731429 
L 230.4 281.978182 
" clip-path="url(#p852edb533d)" style="fill: none; stroke: #1f77b4; stroke-linecap: square"/>
   </g>
   <g id="line2d_17">
    <path d="M 230.4 217.458701 
L 230.4 192.211948 
" clip-path="url(#p852edb533d)" style="fill: none; stroke: #1f77b4; stroke-linecap: square"/>
   </g>
   <g id="line2d_18">
    <path d="M 221.184 281.978182 
L 239.616 281.978182 
" clip-path="url(#p852edb533d)" style="fill: none; stroke: #000000; stroke-linecap: square"/>
   </g>
   <g id="line2d_19">
    <path d="M 221.184 192.211948 
L 239.616 192.211948 
" clip-path="url(#p852edb533d)" style="fill: none; stroke: #000000; stroke-linecap: square"/>
   </g>
   <g id="line2d_20"/>
   <g id="line2d_21">
    <path d="M 334.848 99.640519 
L 371.712 99.640519 
L 371.712 68.783377 
L 334.848 68.783377 
L 334.848 99.640519 
" clip-path="url(#p852edb533d)" style="fill: none; stroke: #1f77b4; stroke-linecap: square"/>
   </g>
   <g id="line2d_22">
    <path d="M 353.28 99.640519 
L 353.28 124.887273 
" clip-path="url(#p852edb533d)" style="fill: none; stroke: #1f77b4; stroke-linecap: square"/>
   </g>
   <g id="line2d_23">
    <path d="M 353.28 68.783377 
L 353.28 46.341818 
" clip-path="url(#p852edb533d)" style="fill: none; stroke: #1f77b4; stroke-linecap: square"/>
   </g>
   <g id="line2d_24">
    <path d="M 344.064 124.887273 
L 362.496 124.887273 
" clip-path="url(#p852edb533d)" style="fill: none; stroke: #000000; stroke-linecap: square"/>
   </g>
   <g id="line2d_25">
    <path d="M 344.064 46.341818 
L 362.496 46.341818 
" clip-path="url(#p852edb533d)" style="fill: none; stroke: #000000; stroke-linecap: square"/>
   </g>
   <g id="line2d_26"/>
   <g id="line2d_27">
    <path d="M 89.088 169.77039 
L 125.952 169.77039 
" clip-path="url(#p852edb533d)" style="fill: none; stroke: #2ca02c"/>
   </g>
   <g id="line2d_28">
    <path d="M 211.968 231.484675 
L 248.832 231.484675 
" clip-path="url(#p852edb533d)" style="fill: none; stroke: #2ca02c"/>
   </g>
   <g id="line2d_29">
    <path d="M 334.848 80.004156 
L 371.712 80.004156 
" clip-path="url(#p852edb533d)" style="fill: none; stroke: #2ca02c"/>
   </g>
   <g id="patch_3">
    <path d="M 46.08 293.76 
L 46.08 34.56 
" style="fill: none; stroke: #000000; stroke-width: 0.8; stroke-linejoin: miter; stroke-linecap: square"/>
   </g>
   <g id="patch_4">
    <path d="M 414.72 293.76 
L 414.72 34.56 
" style="fill: none; stroke: #000000; stroke-width: 0.8; stroke-linejoin: miter; stroke-linecap: square"/>
   </g>
   <g id="patch_5">
    <path d="M 46.08 293.76 
L 414.72 293.76 
" style="fill: none; stroke: #000000; stroke-width: 0.8; stroke-linejoin: miter; stroke-linecap: square"/>
   </g>
   <g id="patch_6">
    <path d="M 46.08 34.56 
L 414.72 34.56 
" style="fill: none; stroke: #000000; stroke-width: 0.8; stroke-linejoin: miter; stroke-linecap: square"/>
   </g>
   <g id="text_11">
    <!-- 各组成绩的箱线图 -->
    <g transform="translate(182.4 28.56) scale(0.12 -0.12)">
     <defs>
      <path id="HannotateSC-W5-5404" d="M 2618 4531 
C 2656 4557 2682 4595 2682 4653 
C 2682 4698 2662 4742 2624 4794 
C 2579 4845 2515 4870 2438 4870 
C 2394 4870 2362 4858 2336 4838 
C 2246 4787 2099 4659 1894 4454 
C 1613 4186 1280 3789 890 3251 
C 730 3021 646 2874 646 2803 
C 646 2618 768 2509 1024 2477 
C 1050 2618 1120 2784 1235 2963 
C 1350 3142 1472 3315 1600 3494 
C 1600 3488 1606 3482 1619 3482 
C 1741 3418 1907 3322 2112 3200 
C 2266 3085 2566 2893 3008 2611 
C 2400 2240 1632 1901 710 1581 
C 582 1542 480 1523 397 1523 
C 397 1472 397 1427 403 1376 
C 435 1235 512 1146 634 1120 
C 730 1120 864 1146 1037 1203 
C 2022 1581 2822 1958 3437 2336 
C 3962 1990 4429 1734 4845 1555 
C 5280 1350 5587 1254 5766 1254 
C 5850 1254 5914 1286 5952 1350 
C 5990 1408 6016 1466 6016 1517 
C 6016 1587 5997 1632 5971 1658 
C 5946 1670 5914 1690 5862 1702 
C 5574 1754 5254 1862 4896 2016 
C 4557 2157 4186 2336 3789 2566 
C 3859 2618 3930 2669 4000 2726 
C 4627 3226 4941 3661 4941 4019 
C 4941 4147 4890 4256 4794 4358 
C 4691 4448 4576 4512 4461 4550 
C 4339 4576 4186 4589 4006 4589 
C 3622 4589 3206 4531 2746 4416 
L 2323 4301 
L 2445 4410 
C 2502 4461 2560 4499 2618 4531 
z
M 1946 3744 
C 2125 3834 2406 3936 2790 4038 
C 3251 4166 3667 4237 4045 4237 
C 4352 4237 4512 4166 4512 4032 
C 4506 3770 4160 3392 3469 2906 
C 3430 2880 3392 2854 3354 2829 
C 3034 3021 2714 3232 2394 3450 
C 2208 3571 2061 3667 1946 3744 
z
M 1907 653 
L 1907 666 
C 1933 666 1971 672 2016 685 
C 2150 704 2432 742 2867 800 
C 3302 851 3757 883 4230 883 
C 4448 883 4576 806 4608 653 
C 4608 352 4557 32 4467 -301 
L 4429 -429 
C 4403 -429 4378 -435 4365 -435 
C 4250 -442 3968 -461 3533 -486 
C 3264 -499 2982 -512 2688 -538 
L 2003 -595 
C 1984 -531 1971 -442 1958 -326 
C 1926 -160 1907 166 1907 653 
z
M 4947 -563 
C 4973 -461 5011 -320 5050 -141 
C 5094 109 5120 378 5120 672 
C 5120 787 5075 883 4992 966 
C 4915 1050 4819 1120 4704 1171 
C 4589 1210 4461 1235 4333 1235 
C 3565 1235 2720 1178 1786 1062 
C 1734 1088 1670 1101 1606 1101 
C 1536 1101 1491 1088 1466 1075 
C 1440 1050 1427 1024 1427 998 
C 1427 973 1427 947 1440 922 
C 1446 883 1453 851 1453 819 
C 1453 64 1523 -518 1664 -934 
C 1664 -973 1690 -1018 1728 -1056 
C 1760 -1094 1818 -1114 1901 -1114 
C 1958 -1114 2010 -1094 2054 -1056 
C 2080 -1030 2099 -998 2112 -954 
C 2138 -947 2170 -941 2208 -934 
C 2528 -890 2938 -858 3437 -838 
C 3930 -813 4282 -800 4499 -800 
C 4563 -800 4627 -806 4691 -819 
C 4755 -832 4826 -845 4890 -845 
C 4986 -838 5037 -781 5037 -678 
C 5037 -646 5005 -608 4947 -563 
z
" transform="scale(0.015625)"/>
      <path id="HannotateSC-W5-7684" d="M 4320 4685 
C 4320 4736 4294 4781 4256 4819 
C 4218 4864 4154 4890 4077 4890 
C 3981 4890 3910 4845 3872 4768 
C 3827 4672 3757 4486 3661 4211 
C 3565 3930 3475 3667 3386 3424 
C 3296 3181 3232 3008 3194 2912 
L 3098 2675 
C 3072 2618 3066 2579 3066 2554 
C 3066 2502 3091 2438 3155 2355 
C 3226 2278 3290 2246 3341 2246 
C 3411 2246 3469 2272 3507 2330 
L 3603 2637 
L 3834 3328 
C 3846 3334 3878 3354 3917 3379 
C 4314 3571 4653 3674 4941 3674 
C 5146 3667 5280 3616 5357 3514 
C 5395 3430 5414 3341 5414 3238 
C 5414 2112 5389 992 5344 -128 
C 5331 -416 5312 -595 5293 -672 
C 5242 -736 5216 -781 5216 -806 
C 5216 -832 5248 -883 5312 -954 
C 5376 -1018 5427 -1056 5466 -1062 
C 5523 -1062 5587 -1030 5658 -979 
C 5722 -928 5760 -864 5786 -787 
C 5792 -666 5798 -525 5805 -358 
C 5811 -192 5818 26 5824 320 
C 5850 1459 5869 2470 5875 3360 
C 5875 3514 5830 3642 5754 3731 
C 5677 3821 5574 3898 5459 3955 
C 5331 4013 5184 4045 5005 4045 
C 4723 4045 4390 3987 4013 3878 
C 4122 4186 4198 4384 4243 4467 
C 4294 4576 4320 4646 4320 4685 
z
M 4845 998 
C 4845 1011 4832 1024 4806 1037 
C 4781 1050 4762 1069 4742 1082 
C 4710 1107 4621 1190 4467 1338 
C 4314 1485 4179 1606 4077 1696 
C 3962 1779 3891 1837 3866 1875 
C 3821 1914 3782 1939 3750 1939 
C 3699 1939 3648 1901 3597 1830 
C 3546 1760 3526 1702 3526 1658 
C 3526 1613 3546 1574 3590 1536 
C 3603 1510 3635 1485 3680 1459 
C 3725 1421 3776 1382 3827 1344 
C 3981 1210 4122 1082 4250 954 
L 4467 698 
C 4506 653 4538 634 4563 634 
C 4614 634 4666 640 4704 666 
C 4749 691 4787 730 4813 794 
C 4832 845 4845 915 4845 998 
z
M 2227 4442 
C 2246 4454 2259 4512 2259 4621 
C 2240 4685 2170 4749 2054 4806 
C 2016 4806 1958 4787 1869 4755 
C 1626 4666 1402 4563 1184 4461 
C 960 4358 768 4269 602 4205 
C 550 4186 486 4166 422 4154 
C 384 4102 365 4032 365 3942 
C 365 3840 422 3776 538 3750 
C 595 3750 646 3757 691 3782 
L 883 3885 
C 1357 4141 1741 4307 2029 4390 
C 2118 4410 2182 4429 2227 4442 
z
M 2387 1824 
L 2298 1811 
C 2202 1792 2099 1779 1984 1766 
C 1869 1754 1696 1741 1466 1715 
C 1235 1683 1101 1670 1050 1670 
L 1018 1670 
L 1018 1939 
C 1018 2202 1030 2586 1069 3091 
L 1133 3110 
C 1498 3232 1818 3296 2099 3296 
C 2214 3296 2291 3258 2330 3181 
C 2368 3098 2394 2989 2394 2854 
C 2394 2496 2387 2157 2387 1824 
z
M 1139 3533 
C 1114 3565 1082 3597 1037 3629 
C 954 3680 883 3712 826 3718 
C 685 3718 621 3667 621 3565 
C 621 3546 627 3507 634 3456 
C 634 3405 640 3366 640 3334 
C 608 2733 595 2272 595 1939 
C 595 550 627 -301 691 -621 
C 736 -742 813 -806 915 -813 
C 992 -813 1050 -774 1088 -704 
C 1101 -672 1107 -634 1120 -595 
C 1376 -538 1619 -499 1850 -486 
C 2118 -454 2285 -442 2355 -442 
C 2387 -442 2438 -448 2515 -461 
C 2592 -461 2643 -467 2669 -467 
C 2829 -461 2912 -397 2912 -275 
C 2912 -224 2874 -173 2810 -115 
C 2835 90 2848 429 2848 902 
L 2848 1632 
C 2854 1658 2861 1683 2861 1709 
C 2861 1722 2854 1734 2848 1747 
L 2848 2906 
C 2842 3085 2816 3232 2765 3354 
C 2707 3450 2630 3533 2528 3603 
C 2426 3654 2317 3680 2202 3680 
C 1907 3680 1549 3629 1139 3533 
z
M 1075 -186 
C 1062 -147 1056 -102 1056 -64 
C 1050 26 1043 230 1037 544 
L 1024 1312 
L 1210 1338 
C 1389 1363 1600 1389 1843 1414 
C 2054 1434 2234 1446 2387 1459 
L 2374 787 
C 2355 339 2336 70 2323 -32 
C 2310 -32 2304 -38 2298 -38 
C 2157 -64 1926 -90 1613 -128 
L 1075 -186 
z
" transform="scale(0.015625)"/>
      <path id="HannotateSC-W5-7bb1" d="M 2086 -742 
C 2029 -634 2003 -397 2003 -32 
L 2003 915 
C 2176 774 2336 646 2483 518 
C 2611 390 2688 301 2726 256 
C 2765 205 2803 186 2829 186 
C 2874 186 2912 192 2950 211 
C 2989 237 3014 269 3040 320 
C 3053 365 3066 422 3066 486 
C 3066 499 3046 512 3021 525 
C 2995 538 2970 557 2944 570 
C 2912 595 2810 678 2630 826 
C 2451 973 2304 1094 2182 1184 
C 2106 1229 2048 1267 2003 1306 
L 2003 1830 
C 2259 1850 2458 1862 2586 1862 
C 2630 1862 2669 1856 2707 1856 
C 2733 1856 2771 1850 2810 1850 
C 2848 1837 2874 1837 2893 1837 
C 2944 1837 2982 1850 3014 1888 
C 3046 1926 3066 1965 3066 2016 
C 3066 2074 3046 2118 3008 2150 
C 2970 2182 2925 2208 2886 2227 
C 2848 2246 2803 2259 2758 2259 
C 2733 2259 2669 2246 2566 2227 
C 2490 2214 2298 2202 2003 2176 
C 2003 2483 2016 2675 2029 2752 
C 2042 2861 2048 2938 2048 2989 
C 2048 3046 2016 3091 1952 3130 
C 1875 3168 1805 3187 1734 3187 
C 1645 3181 1594 3149 1594 3085 
C 1600 2906 1606 2765 1606 2656 
C 1606 2490 1613 2317 1613 2138 
C 1152 2093 909 2074 883 2074 
C 851 2074 826 2074 800 2080 
C 768 2080 742 2080 730 2086 
C 710 2086 698 2093 698 2099 
C 640 2048 608 1997 608 1958 
C 608 1914 614 1875 627 1843 
C 640 1805 666 1779 698 1754 
C 730 1715 768 1702 806 1702 
C 838 1702 941 1715 1114 1747 
C 1235 1760 1402 1779 1613 1798 
C 1613 1709 1619 1613 1619 1510 
C 1606 1504 1587 1491 1574 1478 
C 1485 1389 1350 1229 1184 998 
C 1005 768 864 570 755 397 
C 646 218 582 122 557 102 
C 506 58 467 26 435 6 
C 525 -173 614 -269 710 -269 
C 749 -269 794 -250 832 -224 
C 870 -179 928 -64 1011 115 
C 1101 294 1203 480 1318 672 
C 1414 832 1517 973 1619 1101 
C 1619 730 1626 358 1626 0 
C 1626 -640 1658 -998 1734 -1069 
C 1766 -1107 1818 -1133 1894 -1133 
C 1946 -1133 1990 -1094 2029 -1018 
C 2067 -941 2086 -851 2086 -742 
z
M 5325 1773 
C 5318 1766 5299 1760 5267 1760 
C 5222 1754 5178 1747 5139 1741 
L 4800 1715 
L 4250 1677 
C 4006 1658 3859 1651 3808 1651 
L 3770 1651 
C 3770 1824 3782 2042 3802 2298 
L 3898 2349 
C 4282 2496 4614 2573 4896 2573 
C 5088 2566 5210 2515 5274 2419 
C 5312 2342 5331 2253 5331 2157 
C 5331 2029 5325 1901 5325 1773 
z
M 4947 2925 
C 4634 2925 4256 2867 3808 2758 
C 3795 2765 3782 2778 3757 2797 
C 3667 2842 3603 2867 3552 2874 
C 3424 2874 3360 2822 3360 2726 
C 3360 2707 3366 2675 3366 2624 
C 3366 2573 3373 2534 3373 2509 
C 3360 1990 3360 1587 3360 1299 
C 3360 166 3392 -525 3462 -787 
C 3507 -902 3578 -960 3667 -966 
C 3744 -966 3802 -934 3834 -870 
C 3840 -851 3846 -832 3853 -806 
C 4166 -762 4461 -736 4742 -723 
C 5043 -704 5235 -698 5318 -698 
L 5344 -698 
C 5370 -710 5389 -723 5414 -730 
C 5434 -730 5459 -723 5491 -710 
C 5530 -710 5562 -717 5581 -717 
C 5709 -710 5779 -659 5779 -557 
C 5779 -518 5760 -486 5722 -448 
C 5728 -371 5734 -282 5734 -179 
C 5734 -77 5734 70 5741 262 
C 5754 1018 5766 1690 5773 2278 
C 5773 2419 5734 2534 5664 2624 
C 5587 2714 5491 2784 5382 2842 
C 5261 2893 5114 2925 4947 2925 
z
M 3827 -461 
C 3814 -416 3808 -365 3802 -314 
C 3795 -237 3789 -77 3782 173 
C 3782 243 3776 320 3776 410 
L 4006 429 
C 4186 448 4403 467 4659 493 
C 4915 506 5133 518 5299 531 
L 5280 -13 
C 5267 -179 5254 -294 5242 -352 
C 5235 -352 5222 -358 5210 -358 
L 4454 -416 
L 3827 -461 
z
M 5306 832 
C 5267 819 5229 813 5190 806 
C 5082 794 4966 781 4838 774 
C 4710 762 4525 742 4269 723 
C 4013 698 3866 691 3814 691 
L 3770 691 
C 3763 870 3763 1075 3763 1299 
L 3763 1363 
L 3994 1382 
C 4173 1395 4384 1414 4627 1434 
C 4922 1446 5158 1459 5325 1466 
L 5306 832 
z
M 1850 4474 
C 1888 4499 1907 4538 1907 4589 
C 1907 4634 1888 4678 1850 4723 
C 1811 4768 1754 4794 1677 4794 
C 1638 4794 1606 4781 1587 4768 
C 1530 4730 1434 4640 1306 4493 
C 1133 4301 922 4013 666 3629 
C 570 3462 518 3360 518 3309 
C 518 3142 634 3040 877 3008 
C 890 3110 934 3226 1005 3354 
C 1101 3533 1203 3699 1318 3866 
C 1357 3853 1389 3846 1414 3846 
C 1555 3846 1792 3853 2131 3872 
C 2464 3891 2720 3904 2893 3904 
L 3066 3904 
C 3117 3904 3155 3917 3181 3955 
C 3206 3981 3226 4019 3226 4070 
C 3226 4115 3206 4160 3174 4198 
C 3130 4243 3078 4269 3014 4269 
C 2874 4269 2611 4243 2240 4198 
C 1939 4160 1696 4134 1517 4128 
C 1587 4218 1664 4307 1741 4390 
C 1779 4422 1811 4448 1850 4474 
z
M 2560 3360 
C 2560 3366 2547 3379 2528 3398 
C 2496 3411 2464 3424 2438 3450 
C 2259 3578 2131 3667 2061 3706 
C 1990 3744 1946 3776 1926 3795 
C 1888 3834 1862 3853 1837 3853 
C 1792 3853 1747 3821 1709 3757 
C 1670 3699 1651 3654 1651 3616 
C 1651 3603 1658 3584 1670 3571 
C 1683 3558 1734 3520 1830 3462 
C 1933 3398 2022 3334 2106 3270 
C 2195 3194 2246 3149 2266 3136 
C 2291 3110 2310 3098 2330 3098 
C 2381 3098 2426 3104 2464 3130 
C 2502 3162 2528 3200 2541 3245 
C 2554 3277 2560 3315 2560 3360 
z
M 4442 4480 
C 4474 4499 4493 4538 4493 4589 
C 4493 4634 4474 4678 4442 4717 
C 4403 4762 4352 4787 4275 4787 
C 4237 4787 4205 4774 4186 4762 
C 4141 4730 4058 4653 3942 4531 
C 3789 4365 3597 4128 3379 3808 
C 3296 3667 3251 3578 3251 3533 
C 3251 3366 3366 3264 3597 3238 
C 3610 3322 3648 3418 3712 3533 
C 3789 3674 3872 3808 3962 3936 
C 3968 3923 3981 3917 4000 3917 
C 4038 3904 4077 3898 4102 3898 
C 4192 3898 4326 3898 4506 3910 
C 4499 3898 4493 3891 4480 3878 
C 4442 3821 4422 3770 4422 3731 
C 4422 3718 4429 3699 4448 3686 
C 4461 3674 4525 3635 4640 3584 
C 4749 3520 4851 3456 4947 3386 
C 5050 3315 5107 3270 5133 3258 
C 5158 3232 5184 3219 5203 3219 
C 5254 3219 5299 3226 5338 3251 
C 5376 3283 5408 3322 5421 3360 
C 5434 3392 5440 3430 5440 3482 
C 5440 3488 5421 3501 5395 3520 
C 5357 3533 5325 3546 5293 3571 
C 5082 3699 4934 3789 4858 3827 
C 4774 3866 4723 3891 4698 3910 
L 4691 3917 
C 4723 3917 4762 3917 4806 3923 
C 5133 3949 5382 3962 5549 3962 
C 5587 3962 5645 3955 5722 3955 
C 5773 3955 5818 3974 5843 4013 
C 5869 4038 5888 4077 5888 4134 
C 5888 4173 5869 4218 5830 4262 
C 5792 4307 5734 4333 5670 4333 
C 5530 4333 5274 4307 4909 4262 
C 4582 4211 4326 4186 4147 4179 
C 4211 4256 4275 4333 4352 4410 
C 4384 4435 4416 4461 4442 4480 
z
" transform="scale(0.015625)"/>
      <path id="HannotateSC-W5-7ebf" d="M 5786 -614 
C 5478 -486 5165 -109 4858 506 
C 5037 653 5190 762 5318 832 
C 5555 973 5709 1050 5779 1069 
C 5818 1120 5843 1178 5843 1235 
C 5843 1318 5786 1363 5670 1376 
C 5549 1370 5402 1318 5222 1216 
C 5094 1146 4922 1024 4698 845 
L 4589 1101 
C 4506 1312 4435 1542 4371 1798 
C 4768 1914 5088 1990 5318 2029 
C 5510 2067 5664 2093 5766 2106 
C 5792 2112 5818 2125 5837 2144 
C 5862 2170 5875 2214 5875 2266 
C 5869 2304 5850 2342 5824 2394 
C 5779 2445 5728 2470 5664 2470 
C 5574 2470 5402 2438 5146 2374 
C 4902 2317 4614 2246 4294 2157 
C 4237 2413 4192 2694 4160 2989 
C 4595 3104 4941 3181 5190 3219 
C 5376 3251 5523 3270 5626 3283 
C 5651 3290 5670 3302 5690 3322 
C 5715 3347 5728 3379 5728 3430 
C 5722 3469 5702 3507 5677 3558 
C 5638 3597 5587 3622 5523 3622 
C 5440 3622 5274 3597 5018 3546 
C 4768 3488 4480 3418 4147 3341 
C 4141 3341 4134 3334 4122 3334 
C 4102 3552 4090 3782 4077 4026 
C 4070 4262 4070 4429 4070 4531 
C 4077 4582 4096 4634 4134 4672 
C 4134 4749 4083 4813 3994 4864 
C 3949 4883 3898 4896 3834 4896 
C 3693 4883 3622 4787 3622 4608 
C 3622 4442 3629 4243 3642 4019 
C 3654 3750 3674 3488 3699 3232 
C 3571 3200 3456 3174 3354 3155 
C 3149 3110 2963 3085 2790 3072 
L 2701 3059 
C 2682 2970 2675 2899 2675 2848 
C 2675 2784 2688 2739 2726 2701 
C 2752 2662 2790 2650 2842 2650 
C 2950 2650 3085 2675 3251 2726 
C 3354 2758 3514 2803 3738 2867 
C 3770 2573 3814 2298 3866 2042 
C 3706 1997 3565 1958 3443 1933 
C 3232 1882 3040 1850 2861 1830 
L 2771 1818 
C 2752 1728 2746 1658 2746 1606 
C 2746 1536 2758 1485 2797 1446 
C 2822 1408 2867 1389 2918 1389 
C 3021 1389 3162 1414 3334 1478 
C 3456 1517 3661 1581 3942 1670 
C 4013 1370 4096 1107 4192 883 
C 4237 768 4288 653 4339 544 
C 3942 211 3674 -26 3520 -179 
C 3354 -326 3219 -454 3110 -563 
C 3066 -614 3034 -653 3021 -672 
C 3008 -691 3002 -710 3002 -736 
C 3002 -794 3021 -851 3059 -915 
C 3098 -966 3136 -998 3181 -998 
C 3245 -998 3296 -979 3334 -941 
C 3379 -902 3418 -864 3456 -826 
C 3629 -589 3891 -314 4250 -6 
C 4339 70 4422 141 4506 218 
C 4774 -282 5082 -659 5440 -915 
C 5562 -1005 5683 -1050 5798 -1050 
C 5939 -1050 6010 -986 6010 -858 
C 6010 -742 5965 -659 5888 -595 
C 5843 -608 5811 -614 5786 -614 
z
M 5542 4090 
C 5536 4154 5459 4269 5318 4448 
C 5165 4614 5037 4704 4934 4717 
C 4851 4717 4794 4691 4755 4640 
C 4710 4582 4691 4525 4691 4461 
C 4691 4416 4717 4384 4774 4365 
C 4813 4346 4870 4320 4934 4282 
C 4979 4243 5043 4192 5126 4115 
C 5203 4026 5248 3968 5261 3930 
C 5274 3898 5286 3885 5306 3885 
C 5370 3885 5427 3904 5478 3955 
C 5517 4006 5542 4051 5542 4090 
z
M 659 -109 
L 563 -122 
C 544 -211 538 -282 538 -339 
C 538 -403 550 -448 589 -486 
C 621 -525 659 -544 710 -544 
C 774 -544 864 -518 973 -474 
C 1075 -422 1274 -346 1562 -243 
C 1843 -141 2067 -70 2227 -38 
C 2342 -6 2438 6 2509 19 
L 2566 58 
C 2592 83 2605 122 2605 166 
C 2598 205 2579 243 2554 294 
C 2515 339 2470 365 2406 365 
C 2349 365 2240 339 2080 294 
C 1920 243 1734 186 1530 122 
C 1318 51 1146 0 1018 -38 
C 890 -77 768 -96 659 -109 
z
M 1331 762 
C 1517 762 1715 800 1920 877 
C 2112 928 2291 1018 2458 1133 
C 2515 1171 2547 1229 2547 1299 
C 2547 1427 2483 1491 2355 1491 
C 2336 1485 2317 1478 2291 1466 
C 1882 1229 1555 1114 1306 1114 
C 1210 1114 1165 1146 1165 1222 
C 1165 1446 1325 1760 1658 2170 
C 1978 2566 2214 2803 2381 2893 
C 2419 2918 2451 2938 2470 2957 
C 2490 2970 2502 2995 2502 3034 
C 2502 3098 2458 3168 2381 3238 
C 2304 3302 2227 3334 2150 3341 
C 2086 3341 2048 3328 2035 3309 
C 2035 3283 2022 3264 2010 3245 
C 1894 3149 1760 3008 1606 2822 
L 1600 2822 
C 1376 2746 1190 2714 1037 2714 
C 941 2714 890 2752 890 2822 
C 890 3021 1043 3322 1350 3725 
C 1645 4064 1888 4288 2080 4390 
C 2125 4410 2150 4442 2150 4486 
C 2150 4544 2106 4614 2016 4691 
C 1920 4755 1843 4787 1779 4787 
C 1741 4787 1715 4774 1696 4762 
C 1683 4736 1670 4717 1645 4691 
C 1491 4576 1299 4358 1062 4051 
C 813 3738 653 3475 576 3270 
C 493 3066 454 2912 454 2822 
C 454 2528 646 2387 1024 2387 
C 1107 2387 1197 2394 1286 2406 
C 1094 2144 966 1920 890 1741 
C 794 1536 749 1363 749 1229 
C 749 915 947 762 1331 762 
z
" transform="scale(0.015625)"/>
      <path id="HannotateSC-W5-56fe" d="M 1434 2541 
C 1434 2477 1453 2413 1491 2355 
C 1530 2291 1568 2266 1619 2266 
C 1683 2266 1734 2285 1773 2323 
L 1843 2413 
C 1914 2528 2010 2656 2138 2810 
C 2214 2726 2368 2598 2598 2432 
C 2714 2342 2835 2259 2976 2176 
C 2701 2035 2451 1926 2227 1843 
C 1965 1747 1779 1690 1664 1670 
C 1549 1645 1466 1626 1402 1626 
C 1421 1414 1485 1299 1594 1274 
C 1696 1274 1837 1299 2029 1363 
C 2221 1421 2515 1549 2912 1741 
C 3053 1805 3200 1882 3341 1965 
C 3482 1888 3635 1805 3802 1728 
C 4275 1491 4602 1370 4781 1370 
C 4858 1370 4922 1382 4960 1414 
C 5011 1446 5043 1498 5043 1562 
C 5037 1638 4992 1702 4902 1754 
L 4845 1754 
C 4819 1754 4787 1754 4755 1760 
C 4589 1786 4346 1869 4026 2022 
C 3923 2067 3808 2125 3693 2189 
C 3789 2253 3885 2323 3974 2400 
C 4288 2643 4448 2880 4448 3104 
C 4448 3181 4422 3251 4384 3328 
C 4333 3392 4269 3456 4179 3507 
C 4090 3558 3968 3584 3814 3584 
C 3597 3584 3373 3558 3130 3520 
C 3014 3494 2880 3469 2726 3437 
C 2803 3507 2867 3565 2925 3603 
C 3059 3699 3149 3757 3194 3770 
C 3232 3821 3251 3872 3251 3930 
C 3251 4006 3194 4051 3078 4064 
C 3008 4058 2918 4019 2816 3949 
C 2701 3878 2528 3725 2285 3494 
C 2042 3258 1875 3091 1786 2989 
L 1542 2726 
C 1491 2662 1466 2624 1453 2605 
C 1440 2579 1434 2554 1434 2541 
z
M 2419 3002 
L 2477 3021 
C 2541 3046 2714 3098 2995 3174 
C 3270 3251 3533 3296 3782 3296 
C 3994 3296 4102 3226 4102 3085 
C 4102 2976 4006 2848 3827 2694 
C 3699 2592 3539 2483 3347 2374 
C 3232 2438 3110 2509 2982 2586 
C 2714 2752 2522 2893 2419 3002 
z
M 2694 1344 
C 2643 1344 2598 1331 2566 1312 
C 2528 1280 2515 1235 2515 1171 
C 2515 1094 2528 1043 2554 1018 
C 2579 986 2611 966 2650 966 
C 2682 973 2714 979 2752 979 
C 2963 979 3149 960 3315 928 
C 3469 890 3578 851 3654 826 
C 3750 787 3821 768 3866 768 
C 3904 768 3930 794 3949 851 
C 3968 902 3981 960 3981 1018 
C 3981 1062 3904 1114 3750 1171 
C 3584 1222 3398 1267 3200 1306 
C 2995 1331 2829 1344 2694 1344 
z
M 2451 634 
C 2362 621 2304 595 2272 550 
C 2253 499 2246 461 2246 422 
C 2246 384 2259 358 2278 333 
C 2336 314 2413 288 2509 262 
C 2675 211 3021 90 3558 -96 
C 3674 -134 3776 -173 3859 -198 
C 3936 -218 3987 -230 4013 -230 
C 4058 -230 4096 -224 4128 -211 
C 4154 -192 4173 -160 4198 -115 
C 4218 -70 4230 -26 4237 13 
C 4237 102 4192 154 4109 166 
C 4077 166 4051 173 4032 173 
C 3910 186 3686 250 3354 352 
C 3021 448 2758 531 2560 595 
L 2451 634 
z
M 1088 2342 
C 1088 2707 1101 3232 1126 3923 
C 1126 3962 1126 4006 1133 4045 
C 1242 4058 1434 4077 1702 4115 
C 2963 4262 4083 4339 5056 4339 
C 5171 4339 5248 4301 5286 4237 
C 5325 4160 5344 4058 5344 3936 
C 5344 2784 5338 1754 5325 851 
C 5299 32 5280 -378 5267 -403 
C 5229 -410 5197 -416 5178 -416 
L 3840 -474 
C 3405 -486 2957 -512 2483 -538 
C 2074 -557 1638 -589 1165 -627 
L 1165 -614 
C 1146 -499 1133 -390 1133 -275 
C 1120 -154 1114 109 1107 518 
C 1094 1030 1088 1638 1088 2342 
z
M 1178 4422 
C 1158 4454 1126 4486 1082 4518 
C 992 4570 928 4595 877 4602 
C 742 4602 678 4550 678 4448 
C 678 4429 685 4397 691 4352 
C 691 4301 698 4262 698 4224 
C 678 3418 672 2790 672 2342 
C 672 550 710 -538 787 -947 
C 832 -1069 902 -1133 992 -1139 
C 1075 -1139 1133 -1101 1165 -1037 
C 1165 -1024 1171 -1011 1171 -998 
C 1210 -998 1261 -992 1312 -986 
C 1389 -973 1485 -960 1600 -947 
C 2125 -890 2784 -851 3590 -826 
C 4397 -794 4966 -781 5312 -781 
C 5376 -781 5440 -787 5504 -800 
C 5568 -813 5638 -826 5702 -826 
C 5798 -819 5850 -762 5850 -659 
C 5850 -621 5811 -576 5734 -525 
C 5760 -243 5779 275 5779 1056 
L 5779 3981 
C 5773 4147 5747 4282 5702 4390 
C 5645 4480 5568 4557 5466 4621 
C 5376 4666 5274 4691 5158 4691 
C 4083 4691 2758 4602 1178 4422 
z
" transform="scale(0.015625)"/>
     </defs>
     <use xlink:href="#HannotateSC-W5-5404"/>
     <use xlink:href="#HannotateSC-W5-7ec4" x="99.999985"/>
     <use xlink:href="#HannotateSC-W5-6210" x="199.999969"/>
     <use xlink:href="#HannotateSC-W5-7ee9" x="299.999954"/>
     <use xlink:href="#HannotateSC-W5-7684" x="399.999939"/>
     <use xlink:href="#HannotateSC-W5-7bb1" x="499.999924"/>
     <use xlink:href="#HannotateSC-W5-7ebf" x="599.999908"/>
     <use xlink:href="#HannotateSC-W5-56fe" x="699.999893"/>
    </g>
   </g>
  </g>
 </g>
 <defs>
  <clipPath id="p852edb533d">
   <rect x="46.08" y="34.56" width="368.64" height="259.2"/>
  </clipPath>
 </defs>
</svg>
