<?xml version="1.0" encoding="utf-8" standalone="no"?>
<!DOCTYPE svg PUBLIC "-//W3C//DTD SVG 1.1//EN"
  "http://www.w3.org/Graphics/SVG/1.1/DTD/svg11.dtd">
<svg xmlns:xlink="http://www.w3.org/1999/xlink" width="720pt" height="432pt" viewBox="0 0 720 432" xmlns="http://www.w3.org/2000/svg" version="1.1">
 <metadata>
  <rdf:RDF xmlns:dc="http://purl.org/dc/elements/1.1/" xmlns:cc="http://creativecommons.org/ns#" xmlns:rdf="http://www.w3.org/1999/02/22-rdf-syntax-ns#">
   <cc:Work>
    <dc:type rdf:resource="http://purl.org/dc/dcmitype/StillImage"/>
    <dc:date>2024-06-09T14:12:05.368528</dc:date>
    <dc:format>image/svg+xml</dc:format>
    <dc:creator>
     <cc:Agent>
      <dc:title>Matplotlib v3.9.0, https://matplotlib.org/</dc:title>
     </cc:Agent>
    </dc:creator>
   </cc:Work>
  </rdf:RDF>
 </metadata>
 <defs>
  <style type="text/css">*{stroke-linejoin: round; stroke-linecap: butt}</style>
 </defs>
 <g id="figure_1">
  <g id="patch_1">
   <path d="M 0 432 
L 720 432 
L 720 0 
L 0 0 
L 0 432 
z
" style="fill: none"/>
  </g>
  <g id="axes_1">
   <g id="patch_2">
    <path d="M 90 384.48 
L 648 384.48 
L 648 51.84 
L 90 51.84 
L 90 384.48 
z
" style="fill: none"/>
   </g>
   <g id="matplotlib.axis_1">
    <g id="xtick_1">
     <g id="line2d_1">
      <defs>
       <path id="m85b33136bd" d="M 0 0 
L 0 3.5 
" style="stroke: #000000; stroke-width: 0.8"/>
      </defs>
      <g>
       <use xlink:href="#m85b33136bd" x="154.867486" y="384.48" style="stroke: #000000; stroke-width: 0.8"/>
      </g>
     </g>
     <g id="text_1">
      <!-- 1950 -->
      <g transform="translate(142.726861 398.439375) scale(0.1 -0.1)">
       <defs>
        <path id="HannotateSC-W5-31" d="M 2624 4160 
C 2624 4243 2598 4307 2547 4346 
C 2490 4384 2419 4410 2330 4410 
C 2291 4410 2259 4390 2221 4365 
C 2182 4333 2150 4307 2131 4288 
C 2080 4237 2042 4192 2010 4141 
C 1971 4090 1926 4038 1888 3994 
C 1766 3853 1638 3699 1498 3546 
C 1350 3386 1210 3245 1075 3117 
C 1062 3104 1043 3091 1030 3078 
L 979 3053 
C 960 3040 941 3034 928 3021 
L 870 2982 
C 838 2957 813 2938 794 2918 
C 768 2893 762 2874 762 2854 
C 762 2778 794 2720 870 2675 
C 934 2624 1011 2605 1088 2605 
C 1146 2605 1197 2618 1248 2643 
C 1293 2669 1338 2707 1389 2758 
C 1421 2797 1459 2842 1510 2899 
L 1638 3040 
C 1670 3072 1722 3123 1786 3194 
C 1850 3264 1920 3347 2010 3443 
C 1990 3341 1971 3219 1958 3078 
C 1933 2938 1914 2797 1894 2643 
L 1843 2189 
C 1830 2035 1818 1888 1811 1760 
C 1798 1517 1786 1274 1779 1030 
C 1766 787 1760 576 1760 397 
C 1760 294 1786 218 1843 160 
C 1901 96 1978 70 2080 70 
C 2131 70 2189 83 2253 109 
C 2304 134 2336 166 2336 205 
C 2336 224 2330 262 2330 326 
C 2317 384 2310 454 2304 531 
C 2291 602 2278 678 2278 762 
C 2266 845 2266 922 2266 986 
C 2266 1434 2278 1882 2317 2336 
C 2355 2784 2426 3232 2541 3674 
C 2547 3712 2560 3750 2573 3795 
L 2598 3917 
L 2618 4038 
C 2618 4077 2624 4115 2624 4160 
z
" transform="scale(0.015625)"/>
        <path id="HannotateSC-W5-39" d="M 3501 3718 
C 3501 3744 3488 3776 3469 3808 
C 3443 3834 3418 3853 3392 3878 
C 3360 3898 3328 3917 3296 3930 
C 3258 3942 3226 3949 3200 3949 
L 3168 3949 
C 3155 3942 3149 3936 3136 3936 
L 3098 3923 
C 3078 3917 3059 3904 3046 3891 
C 3008 3981 2963 4058 2906 4128 
C 2842 4198 2778 4256 2707 4307 
C 2630 4358 2554 4397 2477 4422 
C 2394 4448 2317 4467 2253 4467 
C 2010 4467 1773 4416 1549 4314 
C 1318 4211 1120 4070 947 3898 
C 774 3718 640 3520 538 3290 
C 435 3059 384 2816 384 2560 
C 384 2381 410 2221 474 2080 
C 538 1933 621 1811 723 1715 
C 826 1613 941 1542 1069 1491 
C 1197 1434 1325 1408 1459 1408 
C 1677 1408 1875 1446 2067 1530 
C 2253 1606 2458 1741 2682 1920 
L 2650 1690 
C 2637 1594 2624 1491 2611 1389 
L 2560 1050 
L 2522 723 
C 2509 646 2502 576 2490 506 
C 2477 429 2464 352 2458 288 
L 2432 179 
C 2426 141 2426 102 2426 64 
C 2426 26 2451 -6 2509 -45 
C 2560 -70 2624 -90 2701 -90 
C 2758 -90 2816 -70 2867 -45 
C 2918 -6 2944 38 2957 102 
C 2976 224 2995 352 3008 480 
C 3021 608 3040 736 3053 864 
L 3142 1632 
L 3232 2406 
C 3238 2483 3251 2566 3264 2662 
C 3270 2752 3283 2848 3296 2950 
C 3309 3046 3322 3142 3341 3232 
C 3354 3322 3373 3405 3398 3482 
C 3405 3501 3418 3520 3430 3546 
C 3437 3565 3450 3584 3462 3610 
C 3469 3629 3475 3648 3488 3667 
C 3494 3680 3501 3693 3501 3718 
z
M 2810 3053 
C 2810 2963 2803 2874 2790 2784 
L 2752 2502 
L 2483 2253 
C 2387 2170 2291 2093 2189 2029 
C 2086 1958 1978 1901 1869 1862 
C 1754 1824 1632 1805 1510 1805 
C 1434 1805 1357 1818 1280 1856 
C 1203 1888 1133 1939 1075 2003 
C 1011 2061 966 2131 934 2221 
C 896 2304 877 2400 877 2502 
C 877 2669 915 2842 992 3021 
C 1069 3200 1165 3360 1293 3514 
C 1421 3667 1562 3789 1715 3891 
C 1869 3987 2022 4038 2176 4038 
C 2291 4038 2387 4000 2470 3936 
C 2547 3859 2618 3776 2669 3680 
C 2720 3578 2752 3469 2778 3360 
C 2797 3245 2810 3142 2810 3053 
z
" transform="scale(0.015625)"/>
        <path id="HannotateSC-W5-35" d="M 3507 1523 
C 3507 1869 3366 2144 3098 2355 
C 2957 2451 2810 2515 2650 2541 
C 2483 2560 2323 2573 2157 2573 
C 2003 2573 1843 2554 1690 2528 
C 1536 2490 1370 2445 1190 2394 
C 1210 2637 1229 2861 1254 3066 
L 1306 3712 
C 1536 3731 1754 3757 1958 3782 
L 2566 3878 
C 2605 3885 2650 3891 2701 3898 
C 2746 3898 2790 3898 2842 3910 
L 2976 3936 
C 3014 3936 3059 3949 3098 3968 
C 3123 3981 3142 3994 3155 4006 
C 3162 4019 3168 4045 3168 4083 
C 3168 4109 3149 4141 3117 4179 
C 3078 4211 3040 4243 2995 4269 
C 2944 4294 2893 4320 2842 4346 
C 2790 4358 2746 4371 2720 4371 
C 2694 4371 2675 4365 2650 4358 
C 2624 4346 2605 4339 2579 4333 
L 2496 4307 
C 2464 4294 2438 4288 2419 4282 
C 2253 4237 2074 4205 1882 4179 
C 1683 4154 1491 4147 1306 4147 
C 1261 4186 1222 4218 1190 4230 
C 1152 4243 1107 4256 1069 4256 
C 1030 4256 998 4250 960 4237 
C 915 4224 883 4211 858 4198 
C 819 4122 794 4006 781 3853 
C 762 3693 749 3520 742 3341 
C 730 3149 717 2963 717 2784 
C 704 2605 698 2464 691 2368 
L 678 2285 
L 666 2195 
C 653 2131 646 2074 646 2016 
C 646 1997 653 1978 672 1952 
C 685 1926 710 1907 736 1888 
C 762 1869 787 1856 813 1843 
C 838 1830 858 1824 883 1824 
C 928 1824 973 1830 1011 1843 
C 1043 1856 1082 1869 1126 1894 
C 1165 1914 1210 1939 1254 1965 
C 1293 1984 1338 2003 1389 2022 
C 1517 2061 1638 2093 1760 2106 
C 1875 2118 2003 2131 2144 2131 
C 2246 2131 2349 2118 2451 2093 
C 2547 2067 2637 2029 2714 1978 
C 2790 1926 2848 1856 2899 1766 
C 2944 1677 2970 1568 2970 1440 
C 2970 1254 2931 1094 2867 954 
C 2790 813 2701 698 2586 608 
C 2470 512 2336 442 2189 390 
C 2035 339 1882 320 1728 320 
C 1574 320 1434 339 1318 378 
C 1190 416 1088 461 998 512 
C 947 531 909 557 870 582 
C 832 602 800 621 768 640 
C 730 653 698 672 672 685 
C 640 691 614 698 595 698 
C 531 698 486 672 448 634 
C 403 582 384 525 384 454 
C 384 378 410 314 461 262 
C 512 205 570 160 640 134 
C 691 109 768 83 870 58 
C 960 26 1062 0 1165 -19 
C 1267 -38 1370 -58 1472 -70 
C 1568 -83 1651 -96 1715 -96 
C 1958 -96 2189 -64 2406 0 
C 2624 64 2816 160 2982 301 
C 3142 429 3270 595 3366 800 
C 3456 1005 3507 1242 3507 1523 
z
" transform="scale(0.015625)"/>
        <path id="HannotateSC-W5-30" d="M 3398 2662 
C 3398 3814 2989 4397 2176 4397 
C 1664 4397 1248 4115 928 3552 
C 634 3034 486 2419 486 1709 
C 486 1184 595 787 826 506 
C 1050 224 1382 83 1818 83 
C 2362 83 2778 371 3059 954 
C 3283 1414 3398 1984 3398 2662 
z
M 2918 2605 
C 2918 2067 2822 1600 2630 1190 
C 2413 742 2144 518 1818 518 
C 1254 518 973 922 973 1741 
C 973 2330 1088 2848 1318 3296 
C 1549 3738 1818 3962 2131 3962 
C 2656 3962 2918 3507 2918 2605 
z
" transform="scale(0.015625)"/>
       </defs>
       <use xlink:href="#HannotateSC-W5-31"/>
       <use xlink:href="#HannotateSC-W5-39" x="60.699997"/>
       <use xlink:href="#HannotateSC-W5-35" x="121.399994"/>
       <use xlink:href="#HannotateSC-W5-30" x="182.099991"/>
      </g>
     </g>
    </g>
    <g id="xtick_2">
     <g id="line2d_2">
      <g>
       <use xlink:href="#m85b33136bd" x="233.875187" y="384.48" style="stroke: #000000; stroke-width: 0.8"/>
      </g>
     </g>
     <g id="text_2">
      <!-- 1952 -->
      <g transform="translate(221.734562 398.439375) scale(0.1 -0.1)">
       <defs>
        <path id="HannotateSC-W5-32" d="M 3597 390 
C 3597 480 3565 557 3507 634 
C 3450 710 3386 749 3309 749 
C 3251 749 3194 742 3142 730 
L 3053 710 
L 2963 698 
C 2822 685 2682 672 2534 672 
C 2381 672 2240 666 2106 659 
C 1978 646 1843 640 1702 634 
C 1562 621 1382 608 1171 582 
C 1318 704 1440 813 1536 902 
L 1798 1152 
L 2227 1568 
C 2368 1709 2509 1843 2656 1984 
C 2835 2163 2976 2368 3072 2605 
C 3162 2835 3206 3078 3206 3341 
C 3206 3475 3174 3610 3117 3744 
C 3053 3872 2970 3994 2867 4102 
C 2758 4205 2630 4288 2483 4352 
C 2336 4416 2176 4448 2010 4448 
C 1824 4448 1645 4422 1466 4371 
C 1286 4314 1126 4224 986 4102 
C 934 4064 890 4006 838 3942 
C 787 3872 736 3802 698 3725 
C 653 3648 614 3571 589 3494 
C 557 3418 544 3347 544 3290 
C 544 3213 570 3155 634 3104 
C 691 3046 749 3021 813 3021 
C 858 3021 896 3027 928 3053 
C 954 3072 986 3104 1024 3142 
C 1037 3162 1056 3194 1075 3232 
C 1094 3264 1114 3302 1133 3341 
C 1146 3373 1165 3411 1178 3450 
C 1190 3488 1203 3520 1229 3558 
C 1318 3712 1421 3827 1536 3917 
C 1645 4000 1798 4045 1990 4045 
C 2093 4045 2195 4019 2285 3981 
C 2374 3936 2451 3878 2522 3808 
C 2586 3731 2637 3648 2675 3558 
C 2714 3462 2733 3366 2733 3264 
C 2733 3136 2714 3021 2675 2912 
C 2637 2797 2592 2694 2534 2598 
C 2477 2496 2413 2406 2342 2323 
C 2266 2234 2182 2150 2106 2074 
L 1498 1504 
C 1299 1312 1088 1133 870 960 
C 806 909 755 864 704 813 
C 653 762 608 710 557 659 
C 512 614 474 570 448 531 
C 422 480 410 429 410 371 
C 410 282 442 211 512 166 
C 576 115 646 96 730 96 
C 781 96 838 102 902 115 
C 934 122 966 128 998 134 
C 1024 141 1056 147 1088 154 
C 1331 186 1581 211 1843 237 
C 2099 262 2349 275 2592 275 
C 2726 275 2867 262 3008 243 
C 3142 218 3277 211 3418 211 
C 3456 211 3494 224 3533 262 
C 3571 288 3597 333 3597 390 
z
" transform="scale(0.015625)"/>
       </defs>
       <use xlink:href="#HannotateSC-W5-31"/>
       <use xlink:href="#HannotateSC-W5-39" x="60.699997"/>
       <use xlink:href="#HannotateSC-W5-35" x="121.399994"/>
       <use xlink:href="#HannotateSC-W5-32" x="182.099991"/>
      </g>
     </g>
    </g>
    <g id="xtick_3">
     <g id="line2d_3">
      <g>
       <use xlink:href="#m85b33136bd" x="312.991117" y="384.48" style="stroke: #000000; stroke-width: 0.8"/>
      </g>
     </g>
     <g id="text_3">
      <!-- 1954 -->
      <g transform="translate(300.850492 398.439375) scale(0.1 -0.1)">
       <defs>
        <path id="HannotateSC-W5-34" d="M 3667 1376 
C 3667 1530 3578 1613 3411 1613 
C 3309 1613 3213 1606 3123 1594 
C 3027 1574 2957 1562 2906 1549 
C 2899 1632 2899 1702 2899 1766 
C 2899 1824 2899 1882 2906 1946 
C 2906 2035 2906 2144 2912 2285 
C 2912 2419 2918 2573 2931 2739 
C 2931 2906 2944 3078 2957 3270 
C 2963 3456 2976 3648 2989 3840 
C 2989 3910 2995 3981 3008 4051 
C 3021 4122 3027 4192 3027 4269 
C 3027 4307 3008 4339 2982 4371 
C 2950 4397 2918 4422 2880 4448 
C 2835 4474 2790 4486 2746 4499 
C 2694 4512 2656 4518 2624 4518 
C 2586 4518 2547 4506 2509 4493 
C 2464 4474 2432 4448 2406 4422 
C 2374 4384 2349 4352 2330 4320 
C 2304 4282 2278 4250 2259 4218 
C 1978 3840 1690 3475 1395 3123 
C 1101 2765 819 2400 544 2022 
C 506 1978 474 1926 435 1875 
C 397 1818 365 1760 333 1696 
C 301 1632 275 1574 256 1517 
C 230 1453 224 1395 224 1344 
C 224 1254 243 1178 282 1114 
C 320 1043 371 986 435 941 
C 499 896 570 864 653 838 
C 730 813 806 806 883 806 
C 941 806 1005 813 1075 826 
C 1139 832 1210 845 1280 858 
C 1344 870 1408 883 1472 902 
C 1536 915 1600 934 1664 947 
C 1773 973 1888 992 2010 1018 
C 2125 1043 2253 1062 2406 1088 
L 2394 589 
C 2381 435 2381 326 2381 275 
C 2381 26 2483 -96 2688 -96 
C 2752 -96 2816 -77 2874 -45 
C 2925 -6 2957 45 2957 122 
C 2957 230 2944 339 2918 442 
C 2893 544 2886 653 2886 768 
L 2886 1146 
L 3462 1158 
C 3520 1158 3571 1178 3610 1222 
C 3648 1261 3667 1312 3667 1376 
z
M 2496 3840 
L 2413 1491 
C 2317 1466 2202 1440 2061 1414 
L 1638 1338 
C 1498 1312 1363 1286 1235 1274 
C 1107 1254 1005 1248 941 1248 
C 902 1248 870 1254 832 1274 
C 794 1293 774 1318 774 1357 
C 774 1408 794 1485 845 1581 
C 896 1670 954 1766 1024 1869 
C 1088 1965 1152 2054 1216 2144 
C 1280 2234 1338 2298 1376 2349 
C 1542 2560 1722 2790 1914 3046 
C 2099 3296 2291 3558 2496 3840 
z
" transform="scale(0.015625)"/>
       </defs>
       <use xlink:href="#HannotateSC-W5-31"/>
       <use xlink:href="#HannotateSC-W5-39" x="60.699997"/>
       <use xlink:href="#HannotateSC-W5-35" x="121.399994"/>
       <use xlink:href="#HannotateSC-W5-34" x="182.099991"/>
      </g>
     </g>
    </g>
    <g id="xtick_4">
     <g id="line2d_4">
      <g>
       <use xlink:href="#m85b33136bd" x="391.998817" y="384.48" style="stroke: #000000; stroke-width: 0.8"/>
      </g>
     </g>
     <g id="text_4">
      <!-- 1956 -->
      <g transform="translate(379.858192 398.439375) scale(0.1 -0.1)">
       <defs>
        <path id="HannotateSC-W5-36" d="M 3610 1562 
C 3610 1754 3571 1920 3494 2074 
C 3418 2221 3322 2349 3200 2451 
C 3072 2554 2931 2630 2778 2688 
C 2611 2739 2445 2771 2278 2771 
C 2022 2771 1773 2720 1530 2624 
C 1286 2522 1050 2342 832 2080 
C 864 2234 896 2374 934 2490 
C 960 2605 998 2714 1037 2810 
C 1075 2906 1126 2995 1178 3078 
C 1229 3162 1286 3251 1363 3341 
C 1395 3386 1440 3443 1498 3507 
C 1555 3571 1619 3629 1690 3693 
C 1754 3757 1818 3814 1894 3872 
C 1971 3923 2042 3968 2112 4006 
C 2138 4019 2170 4038 2202 4051 
C 2227 4064 2259 4077 2298 4090 
C 2355 4102 2413 4115 2477 4128 
C 2509 4134 2534 4141 2554 4154 
C 2592 4179 2611 4218 2611 4262 
C 2611 4339 2579 4410 2522 4467 
C 2458 4518 2400 4550 2342 4550 
C 2240 4550 2099 4499 1933 4397 
C 1843 4346 1754 4288 1664 4230 
C 1568 4166 1485 4096 1408 4032 
C 1242 3891 1094 3731 960 3552 
C 819 3373 704 3181 602 2982 
C 499 2778 422 2573 371 2355 
C 307 2138 282 1914 282 1696 
C 282 1453 314 1222 384 1018 
C 448 800 550 621 678 467 
C 806 307 973 186 1165 96 
C 1350 6 1568 -38 1811 -38 
C 2029 -38 2253 0 2470 70 
C 2682 141 2874 250 3046 390 
C 3213 525 3354 691 3456 890 
C 3558 1082 3610 1306 3610 1562 
z
M 3104 1613 
C 3104 1434 3066 1261 2995 1107 
C 2925 941 2835 800 2720 685 
C 2605 563 2470 467 2323 403 
C 2170 326 2016 294 1856 294 
C 1702 294 1568 320 1459 378 
C 1344 429 1254 506 1178 602 
C 1094 691 1030 800 979 928 
C 928 1050 883 1178 858 1312 
C 896 1466 966 1606 1062 1741 
C 1152 1869 1267 1984 1395 2080 
C 1517 2176 1651 2253 1805 2310 
C 1952 2362 2106 2394 2259 2394 
C 2362 2394 2458 2374 2560 2342 
C 2662 2304 2752 2259 2835 2195 
C 2912 2125 2982 2042 3034 1946 
C 3078 1843 3104 1734 3104 1613 
z
" transform="scale(0.015625)"/>
       </defs>
       <use xlink:href="#HannotateSC-W5-31"/>
       <use xlink:href="#HannotateSC-W5-39" x="60.699997"/>
       <use xlink:href="#HannotateSC-W5-35" x="121.399994"/>
       <use xlink:href="#HannotateSC-W5-36" x="182.099991"/>
      </g>
     </g>
    </g>
    <g id="xtick_5">
     <g id="line2d_5">
      <g>
       <use xlink:href="#m85b33136bd" x="471.114747" y="384.48" style="stroke: #000000; stroke-width: 0.8"/>
      </g>
     </g>
     <g id="text_5">
      <!-- 1958 -->
      <g transform="translate(458.974122 398.439375) scale(0.1 -0.1)">
       <defs>
        <path id="HannotateSC-W5-38" d="M 3578 1299 
C 3578 1453 3526 1619 3430 1786 
C 3328 1952 3136 2112 2861 2259 
C 2771 2298 2682 2336 2592 2374 
C 2496 2406 2381 2445 2246 2490 
L 2458 2643 
C 2515 2694 2573 2739 2630 2784 
C 2682 2829 2739 2874 2790 2925 
C 2842 2963 2906 3014 2970 3066 
C 3142 3206 3258 3315 3315 3398 
C 3366 3482 3398 3558 3398 3629 
C 3398 3686 3379 3744 3341 3795 
C 3296 3840 3238 3878 3168 3904 
C 3168 3930 3174 3955 3174 3974 
L 3174 4013 
C 3174 4077 3136 4128 3066 4179 
C 3027 4198 2982 4218 2925 4243 
L 2835 4269 
C 2803 4275 2771 4288 2739 4301 
C 2675 4326 2598 4346 2522 4371 
C 2438 4397 2355 4416 2278 4442 
C 2189 4461 2112 4480 2035 4493 
C 1952 4506 1888 4512 1837 4512 
C 1568 4512 1350 4474 1178 4397 
C 998 4320 851 4218 742 4102 
C 634 3987 557 3859 512 3718 
C 461 3578 442 3450 442 3328 
C 442 3136 506 2957 646 2797 
C 781 2630 973 2483 1216 2355 
C 1101 2278 1005 2214 922 2157 
C 838 2093 768 2029 710 1971 
C 570 1830 467 1702 403 1581 
C 339 1453 307 1325 307 1203 
C 307 1050 339 909 403 768 
C 467 627 563 499 704 390 
C 832 282 1005 198 1210 134 
C 1414 64 1658 32 1946 32 
C 2214 32 2458 58 2662 122 
C 2867 186 3034 269 3174 384 
C 3302 493 3405 627 3475 787 
C 3539 941 3578 1107 3578 1299 
z
M 2861 3725 
C 2835 3680 2810 3642 2790 3616 
L 2726 3539 
L 2496 3309 
C 2413 3226 2330 3142 2240 3066 
C 2150 2982 2054 2906 1965 2835 
C 1869 2758 1779 2694 1696 2643 
C 1491 2714 1318 2810 1190 2925 
C 1062 3040 998 3181 998 3347 
C 998 3443 1011 3539 1043 3629 
C 1069 3718 1114 3795 1178 3866 
C 1242 3930 1318 3987 1421 4026 
C 1517 4064 1638 4090 1779 4090 
C 1920 4090 2061 4064 2202 4026 
C 2342 3981 2464 3936 2560 3891 
C 2611 3866 2662 3834 2707 3808 
C 2746 3782 2797 3750 2861 3725 
z
M 3066 1216 
C 3066 1088 3034 979 2970 877 
C 2906 774 2822 691 2720 621 
C 2618 544 2496 493 2368 454 
C 2234 410 2099 390 1958 390 
C 1760 390 1587 410 1446 454 
C 1306 499 1184 557 1094 634 
C 998 710 928 794 883 890 
C 832 986 813 1088 813 1190 
C 813 1261 838 1350 896 1466 
C 947 1568 1056 1690 1222 1824 
C 1293 1882 1370 1939 1446 2003 
C 1523 2054 1613 2112 1715 2170 
C 2611 1907 3066 1587 3066 1216 
z
" transform="scale(0.015625)"/>
       </defs>
       <use xlink:href="#HannotateSC-W5-31"/>
       <use xlink:href="#HannotateSC-W5-39" x="60.699997"/>
       <use xlink:href="#HannotateSC-W5-35" x="121.399994"/>
       <use xlink:href="#HannotateSC-W5-38" x="182.099991"/>
      </g>
     </g>
    </g>
    <g id="xtick_6">
     <g id="line2d_6">
      <g>
       <use xlink:href="#m85b33136bd" x="550.122447" y="384.48" style="stroke: #000000; stroke-width: 0.8"/>
      </g>
     </g>
     <g id="text_6">
      <!-- 1960 -->
      <g transform="translate(537.981822 398.439375) scale(0.1 -0.1)">
       <use xlink:href="#HannotateSC-W5-31"/>
       <use xlink:href="#HannotateSC-W5-39" x="60.699997"/>
       <use xlink:href="#HannotateSC-W5-36" x="121.399994"/>
       <use xlink:href="#HannotateSC-W5-30" x="182.099991"/>
      </g>
     </g>
    </g>
    <g id="xtick_7">
     <g id="line2d_7">
      <g>
       <use xlink:href="#m85b33136bd" x="629.238377" y="384.48" style="stroke: #000000; stroke-width: 0.8"/>
      </g>
     </g>
     <g id="text_7">
      <!-- 1962 -->
      <g transform="translate(617.097752 398.439375) scale(0.1 -0.1)">
       <use xlink:href="#HannotateSC-W5-31"/>
       <use xlink:href="#HannotateSC-W5-39" x="60.699997"/>
       <use xlink:href="#HannotateSC-W5-36" x="121.399994"/>
       <use xlink:href="#HannotateSC-W5-32" x="182.099991"/>
      </g>
     </g>
    </g>
    <g id="text_8">
     <!-- 时间 -->
     <g transform="translate(359 411.789375) scale(0.1 -0.1)">
      <defs>
       <path id="HannotateSC-W5-65f6" d="M 1882 2022 
C 1907 2022 1952 2016 2003 2016 
L 2054 2016 
L 2042 1370 
C 2029 781 2010 480 1997 467 
L 1958 403 
L 1459 346 
L 954 288 
C 941 397 941 531 941 685 
L 941 1888 
C 1133 1939 1318 1971 1498 1984 
C 1696 2010 1824 2022 1882 2022 
z
M 966 -77 
C 1203 -19 1427 13 1638 26 
C 1843 45 1978 58 2029 58 
C 2054 58 2106 51 2170 38 
C 2234 32 2278 32 2304 32 
C 2445 32 2522 90 2522 205 
C 2522 243 2477 301 2400 365 
C 2426 563 2445 941 2445 1498 
L 2445 3616 
C 2438 3770 2413 3891 2368 3994 
C 2317 4083 2253 4154 2170 4211 
C 2086 4256 1997 4282 1901 4282 
C 1658 4282 1357 4224 1005 4122 
C 1005 4160 979 4192 928 4230 
C 845 4275 774 4301 717 4301 
C 589 4301 525 4250 525 4147 
C 538 4096 544 4051 544 4013 
C 550 3923 557 3821 557 3718 
L 557 710 
C 557 602 550 422 550 179 
C 550 102 550 38 563 -19 
C 570 -96 595 -166 640 -243 
C 678 -275 717 -294 768 -294 
C 819 -294 877 -250 934 -166 
C 947 -134 954 -102 966 -77 
z
M 947 3738 
C 960 3731 973 3731 992 3731 
C 1005 3731 1050 3744 1133 3782 
C 1389 3885 1613 3942 1818 3942 
C 1920 3942 1984 3910 2010 3853 
C 2042 3776 2061 3680 2061 3571 
C 2061 3149 2054 2746 2054 2368 
C 2042 2368 2035 2374 2022 2374 
C 2010 2374 1946 2362 1843 2342 
C 1734 2317 1562 2298 1318 2278 
C 1184 2259 1056 2240 941 2227 
L 941 3654 
C 941 3680 941 3706 947 3738 
z
M 5472 2854 
C 5536 2854 5606 2842 5677 2829 
C 5741 2816 5811 2810 5882 2810 
C 5984 2816 6035 2874 6035 2982 
C 6035 3034 5971 3098 5856 3174 
C 5741 3238 5664 3277 5613 3277 
L 5325 3238 
L 5139 3219 
L 5139 3552 
C 5139 3987 5146 4282 5165 4422 
C 5178 4550 5184 4640 5184 4691 
C 5184 4742 5146 4787 5082 4826 
C 5005 4864 4934 4883 4858 4883 
C 4742 4883 4691 4838 4691 4755 
C 4691 4698 4691 4595 4704 4448 
C 4710 4294 4717 4102 4717 3872 
C 4717 3731 4717 3507 4723 3194 
L 4493 3174 
C 4224 3149 3936 3123 3642 3098 
C 3341 3072 3014 3027 2656 2976 
C 2618 2970 2605 2950 2605 2925 
C 2605 2861 2630 2797 2688 2720 
C 2733 2630 2784 2586 2848 2586 
C 2893 2586 2944 2592 2995 2611 
C 3040 2624 3098 2637 3174 2656 
C 3494 2726 3904 2778 4403 2810 
C 4518 2816 4621 2822 4723 2829 
L 4723 -493 
C 4723 -557 4717 -621 4710 -685 
C 4698 -749 4691 -800 4685 -826 
C 4672 -845 4666 -870 4666 -902 
C 4666 -947 4698 -986 4774 -1024 
C 4838 -1056 4909 -1075 4986 -1075 
C 5037 -1075 5075 -1056 5107 -1030 
C 5139 -1005 5158 -966 5158 -915 
C 5158 -890 5152 -826 5146 -730 
C 5139 -634 5139 -557 5139 -506 
L 5139 2848 
C 5267 2848 5382 2854 5472 2854 
z
M 4147 1069 
C 4147 1082 4134 1094 4122 1107 
L 4070 1146 
C 4045 1171 3974 1248 3853 1382 
C 3725 1510 3616 1619 3533 1709 
C 3437 1786 3379 1837 3354 1869 
C 3315 1907 3283 1926 3258 1926 
C 3206 1926 3162 1894 3117 1830 
C 3078 1766 3059 1715 3059 1677 
C 3059 1638 3072 1606 3104 1568 
C 3117 1542 3142 1517 3181 1491 
C 3219 1459 3258 1427 3296 1389 
C 3424 1261 3533 1146 3635 1030 
C 3725 915 3789 832 3814 794 
C 3840 749 3866 730 3885 730 
C 3936 730 3987 736 4026 762 
C 4064 787 4096 826 4122 883 
C 4134 928 4147 992 4147 1069 
z
" transform="scale(0.015625)"/>
       <path id="HannotateSC-W5-95f4" d="M 2547 2835 
L 2496 2867 
C 2432 2899 2368 2918 2304 2918 
C 2246 2918 2208 2906 2189 2893 
C 2163 2874 2150 2854 2150 2829 
C 2150 2810 2150 2790 2163 2765 
C 2163 2733 2170 2701 2170 2675 
C 2170 1414 2202 435 2278 -256 
C 2278 -294 2298 -326 2330 -358 
C 2362 -384 2413 -403 2490 -403 
C 2534 -403 2579 -384 2624 -358 
C 2650 -333 2662 -301 2669 -256 
C 2950 -198 3213 -160 3469 -147 
C 3731 -122 3898 -109 3968 -109 
C 4000 -109 4045 -115 4109 -128 
C 4179 -128 4224 -134 4250 -134 
C 4390 -128 4467 -70 4467 38 
C 4467 64 4454 90 4429 122 
C 4429 128 4435 141 4435 154 
C 4448 1638 4454 2451 4454 2586 
C 4454 2701 4397 2797 4294 2874 
C 4186 2944 4083 2982 3981 2982 
C 3686 2982 3392 2963 3085 2925 
C 2893 2899 2714 2867 2547 2835 
z
M 2637 102 
C 2618 237 2598 467 2586 794 
C 2579 883 2573 1005 2573 1158 
C 2624 1158 2694 1171 2784 1190 
C 2950 1210 3130 1229 3328 1254 
C 3520 1274 3674 1286 3789 1286 
C 3827 1286 3898 1280 3994 1280 
C 3981 768 3974 422 3974 256 
L 3904 243 
C 3763 218 3539 192 3232 160 
C 3014 141 2816 122 2637 102 
z
M 4000 1638 
L 3994 1638 
C 3974 1626 3936 1619 3878 1619 
C 3546 1594 3270 1568 3046 1542 
C 2810 1517 2682 1504 2662 1504 
L 2566 1504 
C 2560 1747 2560 2054 2560 2426 
L 2643 2458 
C 2733 2496 2893 2534 3123 2573 
C 3347 2611 3584 2630 3827 2630 
C 3891 2630 3936 2618 3968 2592 
C 4000 2566 4019 2522 4019 2470 
C 4019 2381 4013 2106 4000 1638 
z
M 1805 3936 
C 1805 4000 1754 4109 1658 4262 
C 1555 4416 1453 4538 1363 4614 
C 1274 4691 1203 4730 1146 4730 
C 1069 4730 1005 4698 966 4646 
C 928 4589 909 4531 909 4467 
C 909 4435 915 4410 934 4397 
C 947 4390 966 4378 1005 4365 
C 1043 4346 1094 4307 1165 4243 
C 1235 4186 1306 4102 1376 3994 
C 1446 3878 1491 3802 1510 3750 
C 1517 3725 1530 3712 1549 3712 
C 1645 3718 1709 3750 1741 3802 
C 1779 3846 1805 3891 1805 3936 
z
M 1235 1421 
C 1235 1760 1248 2246 1280 2886 
C 1286 3021 1299 3117 1325 3168 
L 1344 3213 
C 1357 3232 1363 3251 1363 3277 
C 1363 3334 1318 3392 1242 3443 
C 1165 3494 1101 3520 1050 3526 
C 922 3526 864 3475 864 3379 
C 864 3360 870 3328 877 3290 
C 877 3238 883 3200 883 3168 
C 858 2419 845 1837 845 1421 
C 845 166 877 -595 947 -883 
C 992 -992 1062 -1050 1158 -1056 
C 1229 -1056 1280 -1024 1318 -960 
C 1344 -890 1357 -813 1357 -736 
C 1344 -717 1325 -672 1312 -608 
C 1293 -531 1280 -454 1280 -378 
C 1267 -288 1261 -109 1254 166 
C 1242 518 1235 934 1235 1421 
z
M 4730 4627 
C 4051 4627 3155 4518 2054 4301 
L 2035 4275 
C 2035 4019 2125 3898 2298 3898 
C 2310 3898 2349 3904 2406 3923 
C 2464 3936 2528 3955 2598 3974 
C 3418 4179 4147 4282 4774 4288 
C 5056 4288 5222 4179 5261 3968 
C 5267 3891 5274 3802 5274 3706 
L 5229 -531 
C 5216 -710 5216 -832 5216 -896 
C 5280 -1024 5338 -1094 5389 -1101 
C 5466 -1101 5542 -1069 5613 -1005 
C 5683 -941 5722 -883 5722 -826 
C 5702 -723 5696 -627 5696 -550 
L 5696 294 
L 5715 3808 
C 5715 3917 5683 4038 5619 4173 
C 5549 4301 5453 4403 5325 4493 
C 5197 4582 4998 4627 4730 4627 
z
" transform="scale(0.015625)"/>
      </defs>
      <use xlink:href="#HannotateSC-W5-65f6"/>
      <use xlink:href="#HannotateSC-W5-95f4" x="99.999985"/>
     </g>
    </g>
   </g>
   <g id="matplotlib.axis_2">
    <g id="ytick_1">
     <g id="line2d_8">
      <defs>
       <path id="m993d7b6ae1" d="M 0 0 
L -3.5 0 
" style="stroke: #000000; stroke-width: 0.8"/>
      </defs>
      <g>
       <use xlink:href="#m993d7b6ae1" x="90" y="371.558233" style="stroke: #000000; stroke-width: 0.8"/>
      </g>
     </g>
     <g id="text_9">
      <!-- 100 -->
      <g transform="translate(64.789062 375.03792) scale(0.1 -0.1)">
       <use xlink:href="#HannotateSC-W5-31"/>
       <use xlink:href="#HannotateSC-W5-30" x="60.699997"/>
       <use xlink:href="#HannotateSC-W5-30" x="121.399994"/>
      </g>
     </g>
    </g>
    <g id="ytick_2">
     <g id="line2d_9">
      <g>
       <use xlink:href="#m993d7b6ae1" x="90" y="316.602413" style="stroke: #000000; stroke-width: 0.8"/>
      </g>
     </g>
     <g id="text_10">
      <!-- 200 -->
      <g transform="translate(64.789062 320.0821) scale(0.1 -0.1)">
       <use xlink:href="#HannotateSC-W5-32"/>
       <use xlink:href="#HannotateSC-W5-30" x="60.699997"/>
       <use xlink:href="#HannotateSC-W5-30" x="121.399994"/>
      </g>
     </g>
    </g>
    <g id="ytick_3">
     <g id="line2d_10">
      <g>
       <use xlink:href="#m993d7b6ae1" x="90" y="261.646592" style="stroke: #000000; stroke-width: 0.8"/>
      </g>
     </g>
     <g id="text_11">
      <!-- 300 -->
      <g transform="translate(64.789062 265.12628) scale(0.1 -0.1)">
       <defs>
        <path id="HannotateSC-W5-33" d="M 3546 1530 
C 3546 1670 3520 1798 3469 1914 
C 3411 2022 3334 2118 3245 2208 
C 3149 2285 3034 2355 2906 2413 
C 2778 2470 2630 2522 2477 2560 
C 2682 2694 2829 2835 2918 2976 
C 3002 3117 3046 3283 3046 3482 
C 3046 3661 3008 3814 2931 3942 
C 2854 4064 2752 4166 2624 4243 
C 2496 4314 2355 4365 2202 4397 
C 2048 4422 1894 4442 1741 4442 
C 1619 4442 1491 4422 1357 4397 
C 1216 4358 1094 4320 979 4269 
C 864 4218 768 4154 691 4090 
C 614 4026 582 3955 582 3891 
C 582 3821 602 3757 653 3706 
C 698 3654 749 3629 806 3629 
C 858 3629 928 3642 1011 3680 
L 1126 3738 
C 1165 3757 1203 3776 1248 3802 
C 1338 3846 1434 3891 1549 3942 
C 1651 3987 1760 4013 1862 4013 
C 1939 4013 2016 4000 2099 3987 
C 2182 3974 2259 3949 2330 3910 
C 2394 3872 2445 3821 2490 3757 
C 2528 3686 2554 3603 2554 3501 
C 2554 3373 2522 3258 2464 3168 
C 2400 3066 2330 2982 2240 2912 
C 2150 2842 2061 2784 1965 2746 
C 1862 2701 1779 2669 1709 2656 
C 1638 2637 1568 2630 1491 2630 
L 1395 2630 
C 1331 2630 1274 2618 1216 2605 
C 1152 2586 1114 2566 1094 2547 
C 1056 2509 1037 2458 1037 2394 
C 1037 2317 1069 2253 1139 2195 
C 1203 2138 1267 2112 1338 2112 
C 1389 2112 1440 2118 1491 2138 
C 1542 2150 1587 2170 1638 2189 
C 1690 2208 1741 2227 1792 2240 
C 1843 2253 1894 2259 1952 2259 
C 1997 2259 2042 2253 2086 2240 
C 2125 2227 2170 2214 2214 2208 
C 2298 2182 2381 2157 2470 2118 
C 2560 2080 2637 2035 2714 1984 
C 2784 1926 2842 1856 2893 1779 
C 2938 1696 2963 1600 2963 1498 
C 2963 1325 2925 1178 2854 1056 
C 2778 928 2675 819 2560 736 
C 2445 653 2310 589 2163 550 
C 2016 506 1875 486 1734 486 
C 1574 486 1402 518 1222 589 
C 1158 608 1094 634 1037 672 
C 979 704 922 736 864 774 
C 826 794 794 813 768 826 
C 742 838 717 851 698 864 
C 646 890 602 909 570 909 
C 506 909 454 883 410 838 
C 358 794 339 736 339 666 
C 339 589 365 518 422 467 
C 474 403 531 358 595 326 
C 672 288 762 250 870 218 
C 973 179 1082 154 1197 128 
C 1306 102 1414 83 1523 70 
C 1626 51 1715 45 1792 45 
C 1997 45 2208 77 2419 147 
C 2624 211 2816 301 2982 429 
C 3149 557 3283 710 3392 896 
C 3494 1075 3546 1286 3546 1530 
z
" transform="scale(0.015625)"/>
       </defs>
       <use xlink:href="#HannotateSC-W5-33"/>
       <use xlink:href="#HannotateSC-W5-30" x="60.699997"/>
       <use xlink:href="#HannotateSC-W5-30" x="121.399994"/>
      </g>
     </g>
    </g>
    <g id="ytick_4">
     <g id="line2d_11">
      <g>
       <use xlink:href="#m993d7b6ae1" x="90" y="206.690772" style="stroke: #000000; stroke-width: 0.8"/>
      </g>
     </g>
     <g id="text_12">
      <!-- 400 -->
      <g transform="translate(64.789062 210.17046) scale(0.1 -0.1)">
       <use xlink:href="#HannotateSC-W5-34"/>
       <use xlink:href="#HannotateSC-W5-30" x="60.699997"/>
       <use xlink:href="#HannotateSC-W5-30" x="121.399994"/>
      </g>
     </g>
    </g>
    <g id="ytick_5">
     <g id="line2d_12">
      <g>
       <use xlink:href="#m993d7b6ae1" x="90" y="151.734952" style="stroke: #000000; stroke-width: 0.8"/>
      </g>
     </g>
     <g id="text_13">
      <!-- 500 -->
      <g transform="translate(64.789062 155.21464) scale(0.1 -0.1)">
       <use xlink:href="#HannotateSC-W5-35"/>
       <use xlink:href="#HannotateSC-W5-30" x="60.699997"/>
       <use xlink:href="#HannotateSC-W5-30" x="121.399994"/>
      </g>
     </g>
    </g>
    <g id="ytick_6">
     <g id="line2d_13">
      <g>
       <use xlink:href="#m993d7b6ae1" x="90" y="96.779132" style="stroke: #000000; stroke-width: 0.8"/>
      </g>
     </g>
     <g id="text_14">
      <!-- 600 -->
      <g transform="translate(64.789062 100.258819) scale(0.1 -0.1)">
       <use xlink:href="#HannotateSC-W5-36"/>
       <use xlink:href="#HannotateSC-W5-30" x="60.699997"/>
       <use xlink:href="#HannotateSC-W5-30" x="121.399994"/>
      </g>
     </g>
    </g>
    <g id="text_15">
     <!-- 乘客数量 -->
     <g transform="translate(58.579687 238.16) rotate(-90) scale(0.1 -0.1)">
      <defs>
       <path id="HannotateSC-W5-4e58" d="M 5363 3354 
C 5427 3354 5491 3347 5562 3341 
C 5632 3322 5696 3315 5760 3315 
C 5862 3322 5920 3379 5920 3482 
C 5920 3533 5856 3590 5741 3667 
C 5626 3731 5549 3770 5498 3770 
L 5216 3731 
C 5018 3718 4531 3699 3763 3674 
L 3424 3661 
C 3424 3731 3424 3795 3430 3859 
C 3443 4000 3456 4115 3475 4211 
L 3494 4301 
C 3904 4333 4237 4358 4499 4371 
C 4755 4384 4954 4390 5094 4397 
C 5126 4403 5152 4416 5171 4429 
C 5190 4454 5203 4499 5203 4557 
C 5197 4595 5184 4640 5158 4691 
C 5107 4742 5050 4768 4986 4768 
C 4870 4768 4640 4749 4294 4723 
C 3955 4698 3565 4659 3117 4621 
C 2682 4576 2317 4544 2035 4518 
C 1754 4493 1498 4480 1261 4474 
L 1190 4461 
C 1178 4390 1171 4333 1171 4294 
C 1171 4237 1178 4192 1203 4160 
C 1229 4134 1267 4122 1306 4122 
C 1446 4122 1632 4128 1856 4154 
C 2054 4173 2413 4205 2931 4250 
C 2931 4211 2944 4173 2957 4128 
C 2963 4058 2970 3981 2982 3898 
C 2982 3846 2989 3763 2995 3648 
C 2765 3635 2522 3622 2272 3616 
C 1747 3590 1171 3552 550 3507 
C 512 3501 499 3482 499 3456 
C 499 3398 525 3328 576 3251 
C 621 3162 672 3123 736 3123 
C 813 3123 896 3130 986 3142 
L 1306 3187 
C 1766 3238 2330 3277 2995 3302 
L 2995 1331 
C 2931 1306 2848 1261 2752 1203 
C 2573 1088 2323 883 1997 582 
C 1664 282 1395 19 1190 -211 
C 986 -442 858 -570 813 -595 
C 762 -634 723 -666 685 -691 
C 774 -883 877 -986 979 -986 
C 1018 -986 1062 -966 1107 -934 
C 1184 -883 1306 -736 1478 -506 
C 1645 -262 1850 -26 2093 205 
C 2330 448 2566 653 2803 826 
C 2867 870 2931 915 2995 960 
C 2995 467 2989 38 2982 -320 
L 2982 -698 
C 2982 -954 3098 -1082 3334 -1082 
C 3379 -1082 3424 -1062 3475 -1037 
C 3514 -1011 3533 -973 3533 -922 
C 3533 -883 3526 -851 3514 -813 
C 3501 -774 3494 -742 3482 -710 
C 3456 -595 3437 -493 3430 -397 
C 3398 19 3386 493 3386 1018 
L 3443 960 
C 3635 774 3923 512 4301 179 
C 4678 -154 4992 -410 5235 -589 
C 5478 -768 5645 -858 5741 -858 
C 5805 -858 5856 -838 5894 -800 
C 5920 -762 5946 -717 5965 -666 
C 5978 -614 5990 -570 5990 -544 
C 5990 -493 5971 -461 5933 -442 
C 5869 -416 5818 -410 5792 -410 
C 5600 -352 5402 -250 5184 -96 
C 4966 58 4717 250 4442 493 
C 4173 723 3917 966 3680 1229 
C 3565 1350 3469 1446 3392 1523 
L 3418 3290 
L 3418 3315 
L 3482 3315 
C 4358 3341 4986 3354 5363 3354 
z
M 2317 2061 
C 2317 2234 2317 2387 2330 2515 
C 2330 2637 2336 2726 2349 2784 
C 2362 2829 2374 2861 2374 2886 
C 2368 2925 2349 2963 2317 2989 
C 2285 3014 2240 3027 2189 3027 
C 2138 3027 2080 3002 2003 2963 
C 1933 2925 1901 2874 1901 2822 
C 1901 2803 1901 2778 1914 2752 
C 1920 2720 1926 2656 1933 2566 
L 1933 2528 
C 1914 2522 1862 2515 1786 2509 
C 1683 2490 1517 2470 1286 2458 
C 1056 2432 864 2419 710 2406 
C 672 2406 653 2381 653 2342 
C 653 2291 666 2227 691 2157 
C 717 2074 749 2035 787 2035 
C 800 2035 826 2042 851 2054 
C 1069 2112 1274 2150 1466 2163 
C 1645 2182 1766 2195 1818 2195 
C 1843 2195 1882 2189 1939 2182 
L 1939 1696 
C 1907 1683 1869 1677 1830 1670 
C 1702 1638 1562 1600 1395 1562 
C 1229 1523 1088 1491 979 1472 
C 877 1446 781 1434 691 1427 
L 614 1421 
C 595 1338 589 1274 589 1229 
C 589 1171 602 1126 634 1094 
C 659 1056 691 1043 742 1043 
C 794 1043 864 1056 947 1088 
C 1037 1114 1197 1165 1434 1229 
C 1638 1293 1811 1331 1939 1357 
C 1939 1171 2042 1082 2246 1082 
C 2285 1082 2323 1094 2355 1120 
C 2381 1139 2400 1171 2400 1222 
C 2400 1235 2394 1261 2387 1286 
C 2349 1395 2330 1491 2330 1574 
C 2317 1670 2317 1830 2317 2061 
z
M 4762 1459 
C 4653 1459 4576 1472 4531 1504 
C 4486 1536 4467 1594 4467 1683 
C 4467 1805 4467 1933 4480 2067 
C 4506 2074 4544 2086 4589 2106 
C 4992 2227 5318 2310 5562 2355 
C 5632 2362 5690 2368 5728 2381 
C 5741 2387 5747 2432 5747 2522 
C 5734 2573 5683 2624 5587 2675 
C 5555 2675 5504 2662 5434 2650 
C 5229 2598 5037 2554 4858 2509 
C 4730 2470 4608 2432 4499 2406 
L 4525 2650 
C 4531 2726 4544 2790 4563 2848 
C 4576 2874 4589 2893 4589 2918 
C 4589 2970 4550 3008 4486 3040 
C 4416 3072 4346 3091 4282 3091 
C 4192 3085 4141 3059 4141 3014 
C 4141 2970 4134 2893 4134 2784 
C 4096 2387 4083 2042 4083 1747 
C 4083 1530 4134 1370 4250 1267 
C 4358 1165 4525 1120 4749 1120 
C 5094 1120 5408 1165 5683 1267 
C 5760 1306 5805 1357 5805 1408 
C 5805 1459 5786 1498 5754 1536 
C 5722 1574 5690 1594 5651 1606 
C 5613 1613 5568 1619 5530 1619 
C 5517 1606 5498 1600 5478 1594 
C 5229 1504 4992 1459 4762 1459 
z
" transform="scale(0.015625)"/>
       <path id="HannotateSC-W5-5ba2" d="M 870 1914 
C 870 1850 890 1792 928 1741 
C 966 1677 1005 1651 1050 1651 
C 1114 1651 1165 1670 1203 1709 
L 1293 1798 
C 1408 1946 1574 2118 1792 2310 
C 1914 2221 2150 2086 2496 1920 
C 2611 1856 2746 1798 2893 1734 
C 2752 1690 2598 1645 2432 1600 
C 1760 1402 1306 1286 1075 1248 
C 826 1210 634 1190 506 1190 
C 531 941 614 800 755 774 
C 902 774 1120 806 1414 883 
C 1690 947 2163 1094 2842 1331 
C 3034 1395 3219 1466 3398 1530 
C 3661 1427 3955 1318 4282 1216 
C 4986 973 5472 851 5741 851 
C 5818 851 5875 864 5914 896 
C 5965 922 5990 966 5990 1024 
C 5984 1101 5939 1158 5850 1210 
C 5824 1210 5805 1216 5792 1216 
C 5773 1216 5747 1216 5722 1222 
C 5472 1248 5101 1338 4614 1498 
C 4397 1568 4166 1651 3923 1747 
C 4096 1824 4250 1901 4378 1978 
C 4710 2170 4883 2362 4883 2541 
C 4883 2618 4851 2701 4800 2790 
C 4749 2861 4672 2918 4570 2963 
C 4454 3008 4339 3034 4224 3034 
C 3693 3034 3110 2976 2470 2874 
C 2573 2950 2669 3008 2746 3059 
C 2931 3162 3053 3219 3104 3232 
C 3142 3283 3162 3334 3162 3392 
C 3162 3469 3104 3514 2995 3526 
C 2899 3520 2784 3482 2643 3405 
C 2502 3328 2272 3168 1952 2912 
C 1632 2662 1414 2483 1299 2368 
C 1171 2253 1069 2163 979 2086 
L 890 1978 
C 877 1952 870 1933 870 1914 
z
M 3462 1926 
C 3322 1978 3181 2042 3034 2106 
C 2701 2253 2445 2381 2278 2483 
C 2291 2483 2317 2490 2342 2496 
C 2547 2534 2829 2573 3187 2611 
C 3539 2650 3898 2675 4269 2675 
C 4410 2675 4480 2630 4480 2541 
C 4480 2426 4301 2291 3955 2125 
C 3814 2061 3654 1990 3462 1926 
z
M 2010 749 
C 2003 755 1990 768 1965 781 
C 1894 819 1824 838 1754 838 
C 1690 838 1651 826 1626 813 
C 1594 794 1581 768 1581 742 
C 1581 717 1581 698 1594 672 
C 1600 640 1606 608 1606 576 
C 1606 -51 1632 -544 1696 -890 
C 1696 -922 1715 -960 1747 -998 
C 1786 -1030 1843 -1050 1926 -1050 
C 1978 -1050 2029 -1030 2074 -998 
L 2080 -992 
C 2093 -992 2106 -986 2131 -986 
C 2170 -973 2221 -960 2285 -954 
C 2573 -909 2938 -877 3373 -858 
C 3808 -832 4122 -826 4314 -826 
C 4371 -826 4435 -832 4506 -845 
C 4576 -858 4640 -870 4704 -870 
C 4806 -858 4858 -800 4858 -698 
C 4858 -666 4826 -627 4768 -582 
C 4794 -506 4826 -403 4864 -275 
C 4909 -77 4934 128 4934 346 
C 4934 461 4890 557 4813 646 
C 4730 723 4634 794 4531 845 
C 4416 890 4294 915 4166 915 
C 3514 915 2797 858 2010 749 
z
M 2080 -602 
C 2074 -538 2067 -467 2061 -378 
C 2048 -250 2035 -13 2035 339 
C 2061 339 2093 346 2131 358 
C 2246 384 2496 422 2880 474 
C 3264 525 3661 557 4077 557 
C 4288 557 4410 480 4435 326 
C 4435 109 4390 -122 4307 -371 
C 4294 -390 4288 -416 4275 -442 
C 4230 -442 4198 -448 4173 -454 
C 4070 -461 3827 -474 3443 -499 
C 3200 -512 2950 -525 2694 -544 
C 2502 -557 2298 -576 2080 -602 
z
M 4934 4230 
C 4474 4230 3974 4205 3450 4166 
C 3424 4224 3386 4301 3334 4390 
C 3226 4557 3123 4678 3027 4762 
C 2938 4851 2861 4896 2803 4896 
C 2726 4896 2662 4864 2624 4806 
C 2579 4749 2560 4691 2560 4634 
C 2560 4595 2566 4570 2586 4557 
C 2605 4550 2630 4538 2662 4518 
C 2701 4499 2758 4454 2822 4390 
C 2893 4326 2963 4243 3040 4128 
C 2426 4070 1766 3987 1069 3878 
L 1069 3955 
C 1075 4013 1082 4051 1082 4070 
C 1062 4109 1024 4141 960 4154 
C 896 4166 832 4173 762 4173 
C 672 4173 634 4128 634 4045 
C 634 4032 634 4019 640 4006 
L 653 3930 
L 794 2765 
C 794 2720 813 2675 858 2624 
C 909 2573 986 2554 1088 2554 
C 1165 2566 1203 2611 1203 2688 
C 1203 2726 1190 2822 1171 2982 
L 1114 3437 
C 1139 3443 1184 3456 1235 3469 
C 1293 3488 1370 3507 1472 3526 
C 2662 3750 3834 3866 4986 3866 
C 5203 3866 5312 3795 5312 3667 
C 5312 3450 5242 3226 5114 3002 
L 5075 2944 
C 5062 2931 5056 2912 5056 2899 
C 5056 2835 5088 2778 5165 2726 
C 5235 2662 5299 2637 5350 2637 
C 5389 2637 5434 2656 5472 2707 
C 5530 2771 5594 2886 5658 3066 
C 5715 3245 5747 3443 5747 3654 
C 5747 3795 5702 3910 5619 4006 
C 5523 4102 5414 4166 5293 4192 
C 5171 4218 5050 4230 4934 4230 
z
" transform="scale(0.015625)"/>
       <path id="HannotateSC-W5-6570" d="M 1114 3814 
C 1158 3814 1203 3840 1254 3891 
C 1280 3923 1299 3949 1299 3968 
C 1299 3981 1286 4000 1274 4019 
C 1261 4032 1242 4051 1229 4064 
C 1203 4083 1178 4115 1146 4166 
C 1101 4218 1069 4282 1056 4346 
C 1030 4403 1024 4435 1024 4448 
C 1018 4493 992 4531 947 4570 
C 896 4589 845 4602 794 4608 
C 736 4602 698 4582 678 4557 
C 653 4518 646 4474 646 4422 
C 646 4371 666 4301 717 4205 
C 768 4109 838 4019 922 3936 
C 998 3853 1062 3814 1114 3814 
z
M 2822 3392 
C 2874 3392 2931 3386 2995 3373 
C 3046 3360 3104 3354 3162 3354 
C 3251 3354 3296 3405 3296 3501 
C 3296 3539 3245 3590 3142 3654 
C 3046 3712 2976 3744 2938 3744 
C 2822 3725 2739 3712 2701 3712 
C 2598 3699 2362 3686 2003 3667 
L 2003 4365 
C 2003 4429 2010 4486 2029 4550 
C 2048 4608 2061 4646 2061 4666 
C 2061 4710 2022 4755 1958 4800 
C 1882 4838 1818 4858 1760 4858 
C 1670 4858 1626 4819 1626 4749 
C 1632 4672 1638 4614 1638 4589 
C 1638 4269 1645 3955 1645 3648 
L 1254 3622 
C 998 3603 717 3578 410 3546 
C 384 3539 378 3526 378 3501 
C 378 3450 397 3392 435 3328 
C 474 3251 525 3219 576 3219 
C 614 3219 653 3219 698 3232 
C 736 3245 787 3251 851 3264 
C 1069 3302 1331 3328 1645 3347 
L 1645 3136 
C 1613 3123 1574 3110 1523 3085 
C 1434 3034 1299 2938 1133 2803 
C 960 2662 819 2541 710 2438 
C 608 2336 544 2278 518 2266 
C 467 2227 429 2195 397 2176 
C 486 1984 576 1894 678 1894 
C 717 1894 762 1907 800 1939 
C 838 1965 896 2029 979 2144 
C 1056 2253 1158 2368 1274 2490 
C 1389 2605 1498 2701 1613 2790 
C 1619 2797 1632 2803 1651 2816 
L 1651 2285 
C 1651 2118 1677 1997 1728 1914 
C 1754 1856 1805 1824 1882 1824 
C 1920 1824 1965 1843 2010 1888 
C 2048 1926 2067 1984 2067 2061 
C 2042 2131 2035 2176 2035 2195 
C 2022 2310 2016 2522 2010 2842 
L 2074 2810 
C 2240 2707 2394 2611 2534 2522 
C 2650 2426 2726 2362 2765 2336 
C 2803 2298 2835 2285 2861 2285 
C 2912 2285 2957 2291 2995 2310 
C 3034 2336 3066 2374 3085 2432 
C 3098 2483 3110 2541 3110 2618 
C 3110 2624 3091 2630 3066 2643 
C 3046 2650 3027 2656 3002 2669 
L 2688 2829 
C 2515 2918 2368 2995 2253 3053 
C 2138 3091 2061 3130 2010 3162 
C 2003 3219 2003 3290 2003 3366 
C 2374 3379 2650 3392 2822 3392 
z
M 1690 1805 
C 1626 1798 1594 1773 1587 1722 
L 1562 1638 
C 1549 1600 1498 1491 1402 1299 
C 1376 1248 1350 1197 1325 1146 
C 1062 1101 787 1043 506 966 
L 506 902 
C 512 730 576 640 691 627 
C 710 627 800 646 954 698 
C 1005 710 1075 730 1152 749 
C 1094 589 1062 480 1062 422 
C 1062 307 1107 179 1210 38 
C 1261 -38 1338 -122 1440 -211 
C 1133 -378 922 -474 806 -512 
C 672 -550 570 -576 499 -576 
C 525 -813 608 -947 742 -979 
C 826 -979 947 -941 1107 -877 
C 1248 -813 1478 -685 1811 -480 
C 2029 -621 2240 -730 2451 -800 
C 2675 -870 2842 -909 2950 -909 
C 3078 -902 3149 -838 3168 -717 
C 3162 -614 3110 -538 3021 -499 
C 2989 -499 2957 -506 2918 -506 
C 2867 -506 2778 -493 2650 -467 
C 2522 -435 2355 -371 2150 -275 
L 2144 -269 
C 2387 -102 2586 58 2733 218 
C 2918 410 3014 595 3014 774 
C 3014 851 2989 934 2938 1011 
C 2886 1082 2810 1139 2707 1184 
C 2598 1222 2490 1242 2374 1242 
C 2182 1242 1984 1229 1773 1210 
C 1837 1318 1888 1402 1939 1459 
C 1952 1478 1965 1498 1984 1517 
C 1990 1530 1997 1555 1997 1581 
C 1997 1626 1978 1664 1939 1702 
C 1894 1734 1850 1760 1811 1779 
C 1766 1792 1728 1805 1690 1805 
z
M 1766 -38 
C 1728 -6 1683 26 1645 64 
C 1510 192 1440 307 1440 410 
C 1440 429 1459 506 1498 634 
C 1523 691 1555 762 1594 851 
C 1862 902 2138 934 2419 934 
C 2573 934 2656 877 2656 774 
C 2656 666 2560 531 2368 365 
C 2221 237 2022 102 1766 -38 
z
M 2285 4051 
C 2285 4006 2298 3962 2330 3917 
C 2355 3878 2387 3859 2419 3859 
C 2470 3859 2509 3872 2534 3898 
C 2534 3910 2541 3917 2547 3930 
C 2573 3994 2618 4064 2682 4147 
C 2758 4256 2816 4326 2854 4365 
C 2893 4403 2918 4422 2931 4422 
C 2970 4474 2989 4525 2989 4582 
C 2989 4653 2931 4691 2822 4698 
C 2803 4698 2778 4685 2746 4659 
C 2714 4634 2662 4570 2586 4480 
C 2515 4390 2470 4326 2445 4288 
C 2413 4250 2387 4211 2368 4186 
C 2330 4147 2310 4115 2298 4102 
C 2285 4083 2285 4064 2285 4051 
z
M 5056 3482 
C 5018 3200 4896 2765 4704 2163 
C 4614 1869 4525 1606 4435 1363 
C 4275 1734 4186 1990 4173 2131 
C 4166 2144 4154 2163 4141 2189 
C 4128 2202 4096 2221 4058 2246 
C 4019 2259 3968 2272 3910 2272 
C 3866 2272 3827 2253 3795 2214 
C 3763 2176 3750 2131 3750 2067 
C 3750 1939 3859 1638 4070 1178 
C 4122 1062 4173 954 4230 845 
C 4166 691 4102 550 4038 429 
C 3827 19 3667 -256 3558 -403 
C 3469 -518 3386 -602 3322 -653 
C 3245 -704 3200 -736 3174 -749 
C 3296 -986 3424 -1107 3558 -1107 
C 3616 -1107 3706 -1030 3834 -877 
C 3962 -704 4115 -442 4294 -83 
C 4358 45 4422 198 4499 384 
C 4614 192 4742 0 4890 -192 
C 5222 -640 5498 -928 5722 -1056 
C 5773 -1075 5818 -1088 5856 -1088 
C 5965 -1088 6029 -1037 6042 -941 
C 6042 -883 6029 -845 6010 -826 
C 5984 -787 5958 -768 5926 -762 
L 5837 -723 
C 5670 -614 5459 -371 5197 6 
C 4998 269 4826 550 4678 845 
L 4909 1510 
C 5139 2221 5306 2778 5408 3187 
C 5446 3315 5472 3418 5485 3494 
C 5530 3494 5581 3488 5645 3488 
C 5728 3475 5792 3475 5837 3475 
C 5926 3475 5978 3520 5990 3622 
C 5984 3680 5933 3738 5843 3802 
C 5747 3853 5658 3885 5568 3885 
C 5549 3885 5517 3878 5466 3872 
C 5421 3859 5357 3853 5280 3846 
C 4998 3821 4723 3789 4454 3763 
C 4307 3738 4186 3725 4083 3712 
C 4173 3949 4288 4173 4416 4390 
C 4474 4480 4538 4550 4608 4614 
C 4627 4627 4640 4653 4640 4678 
C 4640 4685 4634 4704 4634 4730 
C 4621 4781 4589 4819 4550 4858 
C 4512 4883 4467 4902 4416 4902 
C 4384 4902 4352 4890 4320 4870 
C 4237 4826 4147 4717 4058 4550 
C 3859 4211 3667 3770 3475 3232 
C 3379 2931 3334 2720 3334 2598 
C 3334 2528 3360 2470 3411 2419 
C 3462 2362 3552 2336 3680 2336 
C 3706 2336 3731 2336 3757 2342 
C 3750 2381 3750 2419 3750 2451 
C 3757 2643 3795 2848 3859 3053 
C 3878 3130 3904 3213 3936 3302 
L 3942 3302 
C 3955 3302 3994 3309 4051 3328 
C 4102 3341 4186 3360 4301 3379 
C 4416 3405 4595 3430 4845 3456 
L 5056 3482 
z
" transform="scale(0.015625)"/>
       <path id="HannotateSC-W5-91cf" d="M 4557 3846 
L 4608 3846 
L 4550 3616 
C 4525 3539 4512 3488 4512 3462 
C 4378 3450 4077 3437 3616 3411 
C 3322 3398 3014 3379 2694 3360 
C 2426 3347 2131 3322 1811 3296 
C 1798 3347 1786 3424 1779 3539 
C 1773 3565 1773 3603 1773 3654 
L 1875 3674 
C 2310 3718 2797 3757 3328 3795 
C 3853 3827 4262 3846 4557 3846 
z
M 1818 3021 
C 1843 3021 1875 3021 1907 3034 
C 1958 3040 2022 3053 2099 3066 
C 2458 3110 2906 3142 3456 3168 
C 4000 3194 4390 3206 4627 3206 
C 4666 3206 4710 3200 4762 3194 
C 4806 3181 4851 3174 4902 3174 
C 4966 3174 5005 3213 5005 3290 
C 5005 3309 4986 3334 4947 3373 
C 4973 3437 4998 3546 5037 3712 
C 5075 3891 5094 4090 5094 4301 
C 5094 4384 5056 4461 4986 4525 
C 4915 4589 4832 4640 4736 4678 
C 4634 4704 4525 4723 4410 4723 
C 3616 4723 2726 4659 1747 4544 
C 1734 4557 1715 4570 1690 4589 
C 1619 4621 1549 4640 1485 4640 
C 1421 4640 1382 4627 1363 4614 
C 1331 4595 1318 4570 1318 4544 
C 1318 4518 1318 4499 1331 4474 
C 1331 4435 1338 4410 1338 4384 
C 1338 3827 1370 3398 1440 3091 
C 1440 3053 1459 3021 1491 2989 
C 1523 2950 1581 2938 1658 2938 
C 1709 2938 1754 2950 1792 2989 
C 1798 2995 1805 3008 1818 3021 
z
M 1754 4237 
C 1792 4237 1837 4250 1894 4262 
C 2042 4288 2355 4326 2835 4384 
C 3315 4435 3814 4461 4333 4461 
C 4518 4461 4627 4403 4653 4288 
C 4653 4224 4646 4154 4640 4077 
L 4627 4077 
C 3859 4038 3206 4000 2675 3962 
C 2138 3917 1843 3898 1792 3898 
L 1760 3898 
C 1754 3987 1754 4102 1754 4230 
L 1754 4237 
z
M 4819 -90 
C 4870 -90 4960 -90 5075 -96 
C 5229 -90 5312 -58 5318 6 
C 5312 58 5274 102 5210 154 
C 5139 186 5082 205 5037 205 
C 5018 205 5005 198 4992 198 
C 4979 186 4947 179 4902 179 
C 4339 154 3821 128 3354 102 
L 3360 557 
C 3398 557 3437 563 3482 563 
C 4051 589 4461 608 4704 608 
C 4749 608 4794 602 4845 595 
C 4896 582 4941 576 4986 576 
C 5056 576 5094 614 5094 691 
C 5094 710 5069 742 5024 781 
C 5056 864 5094 986 5133 1146 
C 5171 1344 5197 1555 5197 1779 
C 5197 1869 5158 1946 5094 2010 
C 5018 2067 4934 2118 4845 2157 
C 4742 2189 4634 2208 4518 2208 
C 3667 2208 2720 2138 1677 2010 
L 1670 2016 
C 1600 2042 1530 2061 1466 2061 
C 1402 2061 1363 2048 1344 2035 
C 1312 2022 1299 1997 1299 1971 
C 1299 1946 1299 1926 1312 1901 
C 1312 1862 1318 1830 1318 1805 
C 1318 1229 1350 781 1421 461 
C 1421 422 1440 390 1472 358 
C 1504 320 1562 307 1638 307 
C 1690 307 1734 320 1773 358 
C 1779 365 1792 378 1805 397 
C 1818 397 1837 397 1856 403 
C 1914 416 1984 422 2061 435 
C 2317 474 2624 506 2982 531 
L 2976 83 
L 2528 58 
C 1875 6 1517 -13 1459 -13 
C 1370 -13 1293 -6 1216 -6 
C 1184 -6 1158 -13 1146 -26 
C 1126 -38 1120 -58 1120 -96 
C 1120 -122 1139 -160 1178 -224 
C 1203 -275 1242 -307 1293 -307 
C 1312 -307 1395 -294 1549 -269 
C 1984 -224 2458 -186 2976 -154 
L 2976 -602 
L 2362 -627 
C 1837 -640 1267 -666 640 -704 
C 614 -704 602 -717 602 -742 
C 602 -781 621 -838 659 -902 
C 685 -960 723 -992 774 -992 
C 851 -992 934 -986 1024 -979 
C 1114 -966 1216 -954 1344 -941 
C 1920 -896 2643 -864 3526 -851 
C 4410 -826 5043 -813 5421 -813 
C 5466 -813 5517 -813 5568 -826 
C 5619 -838 5670 -845 5722 -845 
C 5798 -838 5837 -794 5837 -717 
C 5837 -678 5792 -627 5702 -576 
C 5613 -525 5555 -499 5517 -499 
C 5414 -512 5350 -525 5312 -531 
C 5107 -538 4621 -550 3853 -576 
L 3347 -589 
L 3354 -134 
C 3974 -102 4461 -90 4819 -90 
z
M 3360 794 
L 3360 1229 
C 3392 1229 3430 1235 3469 1235 
C 3968 1261 4358 1280 4646 1280 
L 4698 1280 
C 4678 1197 4659 1114 4634 1030 
C 4608 960 4589 909 4589 870 
L 3654 813 
C 3558 806 3462 800 3360 794 
z
M 1792 678 
C 1779 730 1766 813 1760 928 
C 1754 966 1747 1018 1747 1082 
C 1811 1082 1920 1094 2067 1120 
C 2355 1152 2662 1178 2982 1203 
L 2982 774 
L 2688 755 
C 2413 730 2112 704 1792 678 
z
M 4742 1530 
C 4730 1523 4723 1523 4710 1523 
C 4205 1498 3757 1472 3360 1446 
L 3360 1754 
C 3360 1773 3366 1805 3379 1850 
L 3398 1907 
C 3731 1933 4077 1946 4435 1946 
C 4621 1946 4730 1882 4755 1766 
C 4755 1690 4749 1606 4742 1530 
z
M 2982 1875 
L 2982 1421 
L 2810 1408 
C 2285 1370 2003 1350 1952 1350 
L 1741 1338 
C 1734 1427 1734 1536 1734 1658 
L 1734 1709 
C 1773 1709 1818 1722 1882 1734 
C 2035 1760 2368 1798 2867 1862 
L 2982 1875 
z
M 5440 2554 
C 5491 2554 5542 2547 5606 2541 
C 5664 2528 5722 2522 5773 2522 
C 5862 2522 5907 2573 5907 2662 
C 5907 2701 5856 2758 5754 2822 
C 5658 2874 5587 2906 5549 2906 
C 5434 2886 5350 2874 5312 2874 
C 5101 2861 4602 2835 3808 2803 
C 3322 2778 2810 2752 2272 2726 
C 1734 2688 1139 2643 493 2586 
C 467 2579 454 2566 454 2547 
C 454 2496 474 2438 518 2368 
C 557 2298 608 2266 659 2266 
C 736 2266 819 2272 915 2285 
C 1005 2298 1114 2317 1242 2336 
C 1830 2413 2579 2464 3488 2502 
C 4397 2534 5050 2554 5440 2554 
z
" transform="scale(0.015625)"/>
      </defs>
      <use xlink:href="#HannotateSC-W5-4e58"/>
      <use xlink:href="#HannotateSC-W5-5ba2" x="99.999985"/>
      <use xlink:href="#HannotateSC-W5-6570" x="199.999969"/>
      <use xlink:href="#HannotateSC-W5-91cf" x="299.999954"/>
     </g>
    </g>
   </g>
   <g id="line2d_14">
    <path d="M 115.363636 364.963534 
L 118.718758 361.666185 
L 121.74919 353.97237 
L 125.104312 355.621045 
L 128.351204 360.017511 
L 131.706325 352.323696 
L 134.953217 345.179439 
L 138.308338 345.179439 
L 141.66346 351.774138 
L 144.910352 361.116627 
L 148.265473 369.36 
L 151.512365 361.666185 
L 154.867486 363.31486 
L 158.222608 357.26972 
L 161.25304 349.026347 
L 164.608162 352.323696 
L 167.855054 357.819278 
L 171.210175 344.629881 
L 174.457067 333.089159 
L 177.812188 333.089159 
L 181.16731 339.683857 
L 184.414202 353.422812 
L 187.769323 363.864418 
L 191.016215 349.575905 
L 197.726458 344.080323 
L 200.75689 328.692693 
L 204.112012 336.936066 
L 207.358904 331.990042 
L 210.714025 328.692693 
L 213.960917 317.151971 
L 217.316039 317.151971 
L 220.67116 325.395344 
L 223.918052 337.485624 
L 227.273173 346.278556 
L 230.520065 335.287391 
L 233.875187 332.5396 
L 237.230308 327.593577 
L 240.36897 320.44932 
L 243.724092 327.044018 
L 246.970984 325.944902 
L 250.326105 306.710365 
L 256.928118 293.520968 
L 260.28324 311.656389 
L 266.885253 331.990042 
L 270.132145 319.899762 
L 273.487267 318.800645 
L 276.842388 318.800645 
L 279.87282 296.818317 
L 283.227942 297.367876 
L 286.474834 300.665225 
L 289.829955 292.97141 
L 293.076847 281.430688 
L 296.431969 277.034222 
L 299.78709 296.268759 
L 303.033982 310.557272 
L 306.389103 327.593577 
L 309.635995 316.052854 
L 312.991117 314.40418 
L 316.346238 323.197111 
L 319.37667 297.367876 
L 322.731792 301.764341 
L 325.978684 297.917434 
L 329.333805 281.430688 
L 332.580697 260.547476 
L 335.935819 265.4935 
L 339.29094 284.178479 
L 342.537832 300.665225 
L 345.892953 314.953738 
L 349.139845 300.665225 
L 352.494967 293.520968 
L 355.850088 298.466992 
L 358.880521 279.782013 
L 362.235642 278.682897 
L 365.482534 278.133339 
L 368.837655 253.403219 
L 372.084547 226.474868 
L 375.439669 235.817357 
L 378.79479 255.051894 
L 382.041682 275.935106 
L 385.396804 296.268759 
L 388.643695 273.736873 
L 391.998817 270.439524 
L 395.353938 274.286431 
L 398.4926 252.304103 
L 401.847722 254.502336 
L 405.094614 251.754545 
L 408.449735 220.979286 
L 411.696627 199.546516 
L 415.051749 203.942981 
L 421.653762 258.349243 
L 425.008883 277.58378 
L 428.255775 258.349243 
L 431.610897 253.403219 
L 434.966018 261.097034 
L 437.996451 230.871333 
L 441.351572 235.267799 
L 444.598464 231.420891 
L 447.953585 194.600492 
L 451.200477 170.969489 
L 454.555599 169.870373 
L 457.91072 204.49254 
L 461.157612 235.817357 
L 464.512733 258.898801 
L 467.759625 241.862497 
L 471.114747 239.664264 
L 474.469868 251.754545 
L 477.500301 227.573984 
L 480.855422 235.267799 
L 484.102314 227.024426 
L 487.457435 187.456235 
L 490.704327 156.680976 
L 494.059449 148.987161 
L 497.41457 204.49254 
L 500.661462 229.222659 
L 504.016584 256.15101 
L 507.263475 241.312939 
L 510.618597 228.6731 
L 513.973718 238.565148 
L 517.004151 203.393423 
L 520.359272 208.889005 
L 523.606164 195.699608 
L 526.961286 167.122582 
L 530.208177 125.356158 
L 533.563299 119.311018 
L 536.91842 172.068606 
L 540.165312 202.843865 
L 543.520434 227.573984 
L 546.767325 203.942981 
L 550.122447 197.348283 
L 553.477569 211.636796 
L 556.616231 196.249166 
L 559.971352 173.167722 
L 563.218244 167.122582 
L 566.573365 132.500415 
L 569.820257 84.688852 
L 573.175379 93.481783 
L 576.5305 147.338487 
L 579.777392 173.167722 
L 583.132514 212.186354 
L 586.379405 189.10491 
L 586.379405 189.10491 
" clip-path="url(#pb274513b93)" style="fill: none; stroke: #1f77b4; stroke-width: 1.5; stroke-linecap: square"/>
   </g>
   <g id="line2d_15">
    <path d="M 589.734527 181.61172 
L 593.089648 195.482519 
L 596.120081 179.653417 
L 599.475202 156.21936 
L 602.722094 149.869476 
L 606.077216 114.990133 
L 609.324107 66.96 
L 612.679229 75.567563 
L 616.03435 129.266958 
L 619.281242 154.962722 
L 622.636364 193.868101 
" clip-path="url(#pb274513b93)" style="fill: none; stroke: #ff7f0e; stroke-width: 1.5; stroke-linecap: square"/>
   </g>
   <g id="patch_3">
    <path d="M 90 384.48 
L 90 51.84 
" style="fill: none; stroke: #000000; stroke-width: 0.8; stroke-linejoin: miter; stroke-linecap: square"/>
   </g>
   <g id="patch_4">
    <path d="M 648 384.48 
L 648 51.84 
" style="fill: none; stroke: #000000; stroke-width: 0.8; stroke-linejoin: miter; stroke-linecap: square"/>
   </g>
   <g id="patch_5">
    <path d="M 90 384.48 
L 648 384.48 
" style="fill: none; stroke: #000000; stroke-width: 0.8; stroke-linejoin: miter; stroke-linecap: square"/>
   </g>
   <g id="patch_6">
    <path d="M 90 51.84 
L 648 51.84 
" style="fill: none; stroke: #000000; stroke-width: 0.8; stroke-linejoin: miter; stroke-linecap: square"/>
   </g>
   <g id="text_16">
    <!-- 月度航班乘客数量预测 -->
    <g transform="translate(309 45.84) scale(0.12 -0.12)">
     <defs>
      <path id="HannotateSC-W5-6708" d="M 1971 4397 
C 1958 4410 1933 4429 1901 4454 
C 1824 4493 1760 4518 1709 4518 
C 1638 4518 1587 4506 1555 4480 
C 1510 4454 1491 4416 1491 4365 
C 1491 4301 1485 4230 1485 4154 
C 1485 4064 1478 3962 1478 3846 
L 1440 2726 
C 1427 2714 1427 2688 1427 2662 
C 1427 2650 1427 2630 1434 2611 
C 1421 2061 1408 1574 1402 1139 
C 1389 1126 1389 1107 1389 1082 
C 1389 1069 1389 1050 1402 1030 
C 1389 493 1382 45 1382 -301 
C 1382 -640 1408 -858 1472 -947 
C 1523 -1037 1613 -1088 1754 -1088 
C 1798 -1088 1843 -1069 1888 -1043 
C 1914 -1018 1933 -973 1933 -922 
C 1933 -909 1914 -870 1888 -806 
C 1862 -749 1837 -659 1818 -531 
C 1798 -416 1792 -326 1792 -269 
C 1792 102 1792 461 1798 806 
L 1978 838 
C 2374 890 2810 928 3296 966 
C 3770 1005 4141 1024 4410 1024 
L 4595 1024 
C 4582 595 4563 154 4550 -301 
C 4538 -518 4518 -666 4499 -742 
C 4435 -826 4410 -883 4410 -909 
C 4410 -922 4448 -960 4525 -1030 
C 4595 -1088 4653 -1120 4704 -1126 
C 4768 -1126 4826 -1094 4890 -1030 
C 4928 -973 4960 -922 4979 -877 
C 5005 -755 5018 -582 5030 -358 
L 5069 1101 
C 5082 1114 5088 1126 5088 1152 
C 5088 1165 5082 1184 5069 1210 
C 5088 2208 5101 3130 5107 3981 
C 5107 4102 5056 4224 4960 4352 
C 4870 4448 4781 4518 4678 4570 
C 4570 4608 4442 4634 4294 4634 
C 3661 4634 2886 4550 1971 4397 
z
M 4250 4269 
C 4422 4269 4538 4230 4595 4154 
C 4621 4102 4640 4038 4640 3962 
C 4640 3654 4634 3341 4634 3014 
C 4621 3002 4576 2995 4512 2995 
C 3795 2944 3194 2893 2701 2842 
C 2202 2790 1933 2771 1882 2771 
L 1869 2771 
C 1901 3334 1933 3725 1958 3949 
C 2010 3962 2099 3981 2214 4019 
C 2938 4179 3616 4262 4250 4269 
z
M 4608 1408 
C 4589 1402 4557 1395 4518 1395 
C 3789 1344 3174 1299 2675 1254 
C 2170 1210 1894 1190 1843 1190 
L 1805 1190 
C 1818 1626 1830 2029 1850 2394 
C 1888 2394 1946 2406 2010 2419 
C 2400 2470 2835 2522 3309 2560 
C 3776 2598 4141 2624 4403 2624 
C 4454 2624 4525 2618 4627 2618 
L 4608 1408 
z
" transform="scale(0.015625)"/>
      <path id="HannotateSC-W5-5ea6" d="M 5536 2893 
C 5530 2944 5485 3002 5402 3059 
C 5312 3104 5222 3130 5146 3130 
C 5126 3130 5094 3123 5050 3117 
C 4998 3104 4941 3098 4870 3098 
C 4768 3091 4659 3085 4550 3078 
C 4557 3162 4570 3258 4582 3360 
C 4582 3392 4589 3418 4595 3443 
C 4608 3482 4621 3520 4621 3546 
C 4621 3584 4582 3622 4518 3654 
C 4442 3686 4384 3706 4339 3706 
C 4250 3706 4205 3654 4198 3558 
L 4198 3475 
L 4173 3053 
C 3827 3027 3482 3002 3136 2976 
L 2861 2950 
C 2880 3059 2899 3155 2925 3245 
L 2944 3302 
C 2950 3334 2957 3360 2957 3386 
C 2957 3443 2912 3494 2835 3539 
C 2765 3571 2694 3590 2624 3590 
C 2547 3578 2502 3533 2502 3450 
L 2502 3354 
C 2502 3341 2496 3322 2496 3283 
C 2477 3155 2464 3034 2458 2912 
C 2253 2893 2099 2880 1997 2867 
C 1798 2842 1690 2829 1670 2829 
C 1632 2816 1619 2797 1619 2758 
C 1619 2707 1645 2650 1696 2586 
C 1741 2522 1792 2490 1843 2490 
C 1875 2490 1946 2502 2061 2528 
C 2144 2541 2266 2554 2432 2579 
C 2426 2496 2426 2419 2426 2342 
C 2426 2138 2490 1990 2624 1901 
C 2752 1805 2982 1760 3315 1760 
C 3533 1760 3770 1786 4026 1850 
C 4275 1907 4448 1965 4544 2022 
C 4589 2048 4614 2086 4614 2138 
C 4614 2182 4602 2221 4576 2259 
C 4557 2272 4538 2285 4512 2298 
C 4512 2438 4512 2592 4525 2765 
C 4698 2771 4851 2778 4986 2778 
L 5210 2765 
C 5299 2752 5363 2752 5402 2752 
C 5485 2752 5530 2797 5536 2893 
z
M 4186 2202 
C 4096 2170 4000 2138 3891 2112 
C 3674 2054 3482 2029 3328 2029 
C 3123 2029 2982 2048 2918 2093 
C 2842 2131 2810 2208 2810 2336 
C 2810 2432 2810 2528 2822 2630 
C 3053 2656 3366 2682 3776 2714 
L 4160 2739 
L 4160 2509 
C 4160 2368 4166 2272 4179 2208 
L 4186 2202 
z
M 3674 4166 
C 3661 4230 3590 4358 3462 4550 
C 3315 4742 3187 4851 3085 4864 
C 3008 4864 2944 4832 2906 4781 
C 2861 4717 2842 4659 2842 4602 
C 2842 4550 2867 4512 2925 4486 
C 2963 4461 3014 4429 3072 4390 
C 3117 4352 3181 4282 3264 4192 
L 3296 4147 
C 3078 4134 2854 4115 2618 4102 
C 2278 4077 1914 4051 1517 4013 
C 1504 4026 1478 4045 1440 4070 
C 1350 4109 1274 4134 1216 4134 
C 1114 4134 1062 4070 1050 3949 
C 1050 3910 1037 3795 1024 3603 
C 819 1811 723 461 723 -435 
C 723 -576 730 -685 742 -755 
C 755 -826 787 -883 838 -922 
C 883 -960 941 -986 1018 -986 
C 1101 -986 1146 -947 1146 -877 
C 1146 -858 1133 -832 1120 -794 
C 1107 -742 1101 -710 1101 -698 
C 1101 531 1222 1939 1459 3514 
L 1472 3603 
C 1498 3603 1536 3603 1581 3616 
L 1850 3661 
C 2323 3725 2925 3776 3661 3808 
C 4390 3840 4915 3859 5229 3859 
C 5293 3859 5363 3846 5434 3834 
C 5498 3814 5568 3808 5638 3808 
C 5741 3814 5792 3872 5792 3981 
C 5792 4032 5728 4096 5613 4173 
C 5498 4237 5421 4275 5370 4275 
L 5082 4237 
C 4915 4224 4506 4198 3866 4173 
C 3802 4166 3738 4166 3674 4166 
z
M 4307 1178 
C 4589 1178 4730 1114 4730 986 
C 4723 819 4461 576 3936 262 
C 3872 224 3808 186 3738 147 
L 3437 346 
C 3104 576 2867 762 2739 902 
C 2842 928 2957 960 3098 998 
C 3546 1114 3949 1178 4307 1178 
z
M 3354 -45 
C 2931 -237 2426 -416 1837 -589 
C 1747 -608 1664 -621 1600 -627 
C 1600 -666 1600 -704 1606 -755 
C 1632 -883 1702 -960 1805 -992 
C 1882 -992 1984 -973 2118 -934 
C 2758 -717 3302 -499 3750 -282 
C 3955 -397 4186 -518 4442 -646 
C 5030 -941 5434 -1088 5658 -1094 
C 5709 -1094 5754 -1082 5792 -1056 
C 5830 -1030 5856 -998 5856 -947 
C 5850 -883 5811 -838 5741 -800 
L 5702 -800 
C 5683 -800 5658 -794 5632 -794 
C 5427 -755 5126 -634 4723 -429 
C 4531 -326 4326 -218 4115 -90 
C 4218 -26 4314 32 4403 96 
C 4883 435 5126 723 5126 966 
C 5126 1082 5075 1184 4986 1274 
C 4896 1363 4794 1427 4685 1453 
C 4570 1478 4435 1491 4269 1491 
C 3904 1491 3501 1440 3066 1338 
C 2624 1235 2259 1133 1971 1018 
L 1965 992 
C 1978 787 2048 685 2176 685 
C 2214 704 2266 730 2330 755 
C 2406 646 2618 467 2963 218 
C 3078 128 3213 45 3354 -45 
z
" transform="scale(0.015625)"/>
      <path id="HannotateSC-W5-822a" d="M 4646 3981 
C 4640 4070 4544 4224 4358 4442 
C 4173 4659 4013 4781 3872 4794 
C 3782 4794 3718 4762 3680 4698 
C 3629 4640 3603 4576 3603 4506 
C 3603 4454 3635 4416 3699 4397 
C 3750 4371 3821 4333 3898 4282 
C 3962 4230 4045 4160 4147 4064 
C 4192 4013 4230 3962 4269 3917 
C 4102 3904 3936 3885 3757 3872 
C 3488 3846 3200 3808 2880 3763 
C 2842 3757 2829 3738 2829 3712 
C 2829 3648 2854 3584 2912 3507 
C 2957 3418 3008 3373 3072 3373 
C 3110 3373 3149 3379 3200 3392 
L 3360 3437 
C 3648 3494 4013 3539 4454 3571 
C 4902 3597 5216 3616 5408 3616 
C 5472 3616 5536 3603 5606 3590 
C 5677 3571 5747 3565 5811 3565 
C 5914 3571 5971 3629 5971 3738 
C 5971 3789 5907 3853 5786 3930 
C 5670 3994 5594 4032 5542 4032 
L 5254 3994 
C 5165 3981 4960 3962 4640 3942 
C 4640 3955 4646 3968 4646 3981 
z
M 3123 -563 
C 3123 -691 3130 -794 3142 -858 
C 3155 -922 3181 -973 3226 -1011 
C 3270 -1050 3328 -1069 3392 -1069 
C 3469 -1069 3507 -1030 3507 -966 
C 3507 -947 3501 -922 3488 -896 
C 3475 -851 3469 -819 3469 -806 
C 3469 64 3565 1062 3750 2182 
L 3827 2214 
C 3994 2291 4154 2349 4294 2394 
C 4435 2426 4550 2445 4640 2445 
C 4691 2445 4736 2432 4787 2413 
C 4826 2394 4851 2362 4851 2310 
C 4851 2106 4806 1638 4723 902 
C 4666 314 4640 -115 4640 -410 
C 4640 -563 4678 -698 4762 -800 
C 4864 -915 5011 -979 5216 -986 
C 5453 -986 5677 -896 5882 -717 
C 5958 -672 5997 -602 5997 -506 
C 5990 -390 5933 -326 5818 -326 
C 5811 -333 5798 -346 5779 -358 
C 5574 -525 5389 -614 5210 -614 
C 5139 -614 5088 -595 5062 -570 
C 5037 -531 5024 -474 5024 -397 
C 5024 -166 5056 243 5126 858 
C 5216 1600 5261 2086 5261 2310 
C 5261 2400 5229 2483 5165 2560 
C 5120 2611 5050 2669 4954 2720 
C 4838 2758 4736 2784 4646 2784 
C 4544 2784 4422 2771 4288 2752 
C 4141 2720 4000 2682 3872 2637 
C 3866 2630 3853 2624 3840 2624 
C 3827 2650 3795 2675 3738 2707 
C 3654 2746 3590 2771 3539 2771 
C 3437 2771 3386 2714 3373 2598 
C 3373 2566 3366 2483 3354 2342 
C 3200 1056 3123 90 3123 -563 
z
M 2298 4506 
C 2317 4518 2330 4570 2330 4666 
C 2310 4723 2253 4781 2157 4832 
C 2118 4832 2061 4813 1978 4787 
C 1747 4717 1523 4640 1312 4550 
C 1094 4461 909 4390 749 4339 
C 698 4326 640 4307 582 4294 
C 538 4237 518 4166 518 4083 
C 518 3981 576 3910 691 3885 
C 749 3885 800 3891 845 3917 
C 896 3942 960 3974 1024 4013 
C 1472 4237 1837 4384 2118 4454 
C 2195 4467 2259 4486 2298 4506 
z
M 1062 2118 
C 1062 2381 1069 2752 1094 3238 
C 1094 3264 1094 3296 1101 3328 
C 1120 3328 1158 3347 1210 3373 
C 1491 3501 1741 3565 1958 3565 
C 2067 3565 2138 3533 2176 3469 
C 2214 3392 2234 3296 2234 3187 
C 2234 2714 2227 2259 2227 1837 
C 2176 1837 2125 1843 2067 1843 
C 1773 1843 1485 1824 1203 1798 
C 1158 1792 1114 1786 1062 1779 
L 1062 2118 
z
M 2227 1478 
C 2227 1107 2221 755 2214 422 
C 2189 -307 2170 -678 2157 -704 
C 2112 -768 2093 -819 2093 -845 
C 2093 -864 2125 -902 2189 -960 
C 2253 -1018 2304 -1050 2349 -1050 
C 2400 -1050 2458 -1018 2522 -960 
C 2573 -909 2598 -864 2598 -826 
C 2630 -570 2650 -90 2650 602 
L 2650 3232 
C 2643 3386 2618 3514 2566 3616 
C 2515 3699 2445 3770 2342 3834 
C 2253 3872 2157 3898 2042 3898 
C 1773 3898 1453 3834 1069 3706 
C 1062 3706 1056 3706 1050 3718 
C 973 3763 909 3789 864 3795 
C 736 3795 678 3744 678 3654 
C 678 3635 685 3603 691 3565 
C 691 3520 698 3482 698 3450 
C 685 2880 685 2438 685 2118 
L 685 1728 
C 576 1715 467 1696 352 1677 
C 326 1664 314 1638 314 1600 
C 314 1523 326 1453 365 1389 
C 397 1312 435 1280 474 1280 
C 499 1280 550 1293 634 1318 
L 685 1331 
C 691 160 717 -576 762 -883 
C 800 -986 864 -1043 947 -1050 
C 1024 -1050 1075 -1018 1107 -954 
C 1133 -890 1146 -819 1146 -742 
C 1133 -717 1126 -659 1114 -563 
C 1101 -461 1094 -358 1094 -256 
C 1088 -147 1082 90 1075 461 
L 1062 1408 
C 1190 1427 1318 1440 1453 1453 
C 1734 1466 1952 1478 2106 1478 
L 2227 1478 
z
M 1997 2458 
C 1997 2464 1984 2477 1971 2502 
L 1907 2554 
C 1786 2707 1702 2810 1658 2854 
C 1606 2899 1574 2931 1562 2957 
C 1523 2995 1491 3014 1466 3014 
C 1421 3014 1376 2976 1331 2912 
C 1286 2848 1267 2803 1267 2765 
C 1267 2746 1267 2726 1280 2714 
C 1286 2694 1325 2656 1402 2592 
C 1466 2528 1523 2451 1587 2374 
C 1651 2298 1690 2246 1702 2227 
C 1715 2195 1728 2182 1741 2182 
C 1805 2182 1850 2189 1888 2214 
C 1933 2246 1965 2285 1978 2330 
C 1990 2368 1997 2406 1997 2458 
z
M 1997 269 
C 1997 282 1984 294 1971 320 
L 1907 397 
C 1779 589 1690 710 1638 768 
C 1587 826 1549 870 1536 896 
C 1498 934 1466 954 1446 954 
C 1395 954 1350 915 1306 851 
C 1261 787 1242 736 1242 698 
C 1242 678 1242 659 1254 640 
C 1267 621 1306 570 1382 493 
C 1446 410 1517 320 1587 224 
C 1651 128 1690 70 1702 51 
C 1722 13 1734 -6 1747 -6 
C 1811 -6 1856 0 1894 26 
C 1939 58 1971 96 1984 147 
C 1990 179 1997 218 1997 269 
z
" transform="scale(0.015625)"/>
      <path id="HannotateSC-W5-73ed" d="M 3040 -365 
C 3040 -493 3040 -614 3053 -717 
C 3066 -832 3091 -915 3130 -966 
C 3174 -1030 3238 -1069 3322 -1069 
C 3411 -1069 3462 -1024 3462 -941 
C 3462 -922 3450 -896 3437 -864 
C 3424 -826 3424 -800 3424 -787 
C 3424 659 3539 2310 3757 4166 
C 3776 4320 3795 4435 3808 4506 
C 3821 4589 3834 4653 3834 4691 
C 3834 4730 3795 4774 3725 4813 
C 3648 4851 3584 4877 3526 4877 
C 3443 4877 3398 4832 3392 4755 
L 3360 4275 
C 3142 2202 3040 653 3040 -365 
z
M 454 4282 
C 390 4230 358 4179 358 4128 
C 358 4077 365 4038 378 4006 
C 390 3968 416 3936 454 3904 
C 486 3872 525 3859 570 3859 
C 595 3859 666 3866 787 3891 
C 877 3910 1005 3930 1178 3942 
L 1178 3917 
C 1184 3814 1190 3712 1190 3610 
L 1190 2336 
C 909 2298 755 2285 742 2285 
L 659 2285 
C 627 2285 602 2291 589 2291 
L 550 2310 
C 486 2259 454 2214 454 2163 
C 454 2118 461 2080 474 2042 
C 486 2010 512 1978 550 1952 
C 582 1914 621 1901 666 1901 
C 678 1901 742 1914 858 1939 
C 934 1952 1050 1971 1190 1997 
L 1190 1024 
C 1190 909 1184 723 1178 461 
C 1178 384 1178 314 1190 250 
C 1190 230 1190 211 1203 198 
C 1075 173 960 147 870 134 
C 736 102 614 83 512 77 
L 416 58 
C 403 -32 397 -102 397 -154 
C 397 -218 410 -275 442 -320 
C 480 -358 525 -378 576 -378 
C 640 -378 723 -358 832 -326 
C 928 -288 1120 -230 1408 -147 
C 1677 -70 1894 -19 2048 6 
C 2170 32 2259 45 2323 51 
C 2349 58 2374 70 2394 90 
C 2419 115 2432 154 2432 205 
C 2426 243 2406 288 2381 339 
C 2336 390 2285 416 2221 416 
C 2163 416 2054 397 1901 365 
C 1818 346 1728 326 1632 301 
C 1600 467 1587 698 1587 992 
L 1587 2035 
C 1670 2035 1741 2042 1792 2042 
C 1837 2042 1875 2035 1914 2035 
C 1952 2035 1984 2029 2022 2029 
C 2061 2022 2093 2022 2112 2022 
C 2163 2022 2208 2035 2240 2067 
C 2266 2106 2285 2150 2285 2202 
C 2285 2259 2266 2304 2234 2336 
C 2189 2368 2144 2394 2106 2419 
C 2067 2438 2022 2451 1971 2451 
C 1952 2451 1907 2438 1843 2419 
L 1587 2381 
L 1587 3539 
C 1587 3616 1600 3725 1626 3859 
C 1638 3910 1645 3949 1651 3987 
C 1728 3987 1786 3994 1837 3994 
C 1888 3994 1926 3987 1965 3987 
C 1990 3987 2029 3981 2074 3981 
C 2112 3968 2144 3968 2163 3968 
C 2214 3968 2259 3981 2291 4019 
C 2323 4058 2342 4102 2342 4154 
C 2342 4218 2323 4262 2285 4301 
C 2246 4333 2202 4358 2157 4384 
C 2118 4403 2067 4416 2016 4416 
C 2003 4416 1958 4403 1882 4390 
C 1805 4371 1581 4346 1222 4314 
C 851 4269 666 4250 653 4250 
C 621 4250 589 4250 563 4256 
C 531 4256 506 4262 493 4262 
L 454 4282 
z
M 5453 4102 
C 5510 4102 5574 4096 5645 4083 
C 5709 4064 5779 4058 5843 4058 
C 5946 4064 5997 4122 5997 4224 
C 5997 4269 5933 4333 5818 4410 
C 5702 4474 5626 4506 5581 4506 
L 5312 4467 
L 4902 4435 
L 4474 4410 
C 4326 4397 4166 4378 3987 4352 
C 3949 4339 3936 4320 3936 4294 
C 3936 4237 3962 4173 4013 4096 
C 4058 4013 4109 3974 4166 3974 
C 4186 3974 4211 3974 4237 3987 
C 4262 3987 4288 3994 4326 4006 
C 4422 4026 4538 4045 4672 4058 
C 4672 4032 4678 4000 4691 3962 
C 4691 3898 4698 3827 4710 3750 
C 4717 3661 4723 3462 4723 3155 
L 4723 2118 
C 4410 2080 4243 2067 4230 2067 
C 4198 2067 4166 2067 4141 2074 
C 4115 2074 4090 2080 4077 2080 
L 4038 2099 
C 3974 2048 3936 1997 3936 1946 
C 3936 1894 3942 1856 3955 1824 
C 3968 1786 4000 1754 4038 1728 
C 4070 1690 4109 1677 4147 1677 
C 4173 1677 4243 1690 4371 1715 
C 4448 1728 4570 1747 4723 1760 
L 4723 1158 
C 4723 723 4717 346 4710 26 
L 4710 -326 
C 4710 -358 4710 -397 4723 -435 
C 4294 -474 4070 -499 4051 -499 
C 4019 -499 3987 -493 3962 -493 
C 3930 -486 3904 -486 3891 -486 
C 3872 -474 3859 -467 3859 -467 
C 3795 -518 3763 -570 3763 -621 
C 3763 -659 3770 -698 3782 -736 
C 3795 -768 3821 -800 3859 -832 
C 3885 -864 3923 -883 3968 -883 
C 3994 -883 4090 -870 4243 -845 
C 4384 -819 4608 -794 4915 -774 
C 5210 -749 5421 -736 5555 -736 
C 5600 -736 5638 -736 5677 -742 
C 5715 -742 5747 -742 5786 -749 
C 5824 -755 5856 -762 5875 -762 
C 5926 -762 5971 -742 6003 -710 
C 6029 -672 6048 -627 6048 -582 
C 6048 -518 6029 -467 5997 -442 
C 5952 -403 5907 -378 5869 -365 
C 5830 -339 5786 -333 5734 -333 
C 5709 -333 5651 -339 5562 -365 
L 5197 -397 
L 5178 -339 
C 5152 -237 5139 -141 5133 -58 
C 5107 326 5094 768 5094 1254 
L 5101 1792 
C 5229 1805 5338 1811 5414 1811 
C 5459 1811 5498 1805 5536 1805 
C 5568 1805 5606 1798 5651 1798 
C 5690 1786 5722 1786 5734 1786 
C 5786 1786 5830 1798 5869 1837 
C 5901 1875 5920 1920 5920 1971 
C 5920 2035 5901 2080 5862 2118 
C 5818 2150 5773 2176 5734 2202 
C 5696 2221 5645 2234 5594 2234 
C 5574 2234 5530 2221 5459 2208 
C 5408 2195 5286 2176 5107 2163 
L 5126 3219 
C 5126 3430 5126 3597 5139 3725 
C 5146 3853 5158 3955 5184 4045 
C 5184 4058 5190 4070 5190 4096 
C 5293 4096 5382 4102 5453 4102 
z
M 2976 2816 
C 2989 2829 2995 2842 2995 2861 
C 2995 2874 2989 2886 2989 2906 
C 2976 2944 2957 2976 2931 3008 
C 2899 3027 2867 3040 2829 3040 
C 2803 3040 2778 3027 2752 3014 
C 2714 2989 2682 2938 2643 2848 
C 2566 2669 2483 2438 2406 2163 
C 2368 2003 2349 1894 2349 1830 
C 2349 1779 2368 1728 2413 1690 
C 2451 1638 2528 1619 2630 1619 
C 2650 1619 2669 1619 2694 1626 
C 2688 1658 2688 1683 2688 1709 
C 2688 1805 2701 1907 2726 2016 
C 2771 2266 2835 2496 2912 2701 
C 2931 2746 2950 2784 2976 2816 
z
" transform="scale(0.015625)"/>
      <path id="HannotateSC-W5-9884" d="M 2182 4653 
C 1709 4653 1190 4550 627 4358 
L 627 4282 
C 634 4115 691 4026 806 4013 
C 832 4013 909 4038 1037 4090 
C 1158 4134 1331 4179 1549 4230 
C 1766 4282 1978 4307 2170 4307 
C 2323 4307 2400 4262 2400 4179 
C 2400 4096 2368 3994 2310 3878 
C 2253 3750 2157 3616 2022 3469 
C 1926 3366 1824 3270 1722 3187 
C 1542 3366 1408 3488 1325 3558 
C 1210 3648 1139 3712 1107 3750 
C 1069 3789 1037 3808 1011 3808 
C 960 3808 915 3770 877 3706 
C 832 3648 813 3597 813 3558 
C 813 3526 819 3494 845 3469 
C 864 3437 947 3366 1101 3251 
C 1248 3130 1389 2995 1530 2854 
C 1581 2803 1626 2752 1670 2707 
C 1280 2662 858 2586 410 2470 
L 397 2419 
C 397 2240 474 2138 621 2099 
C 634 2099 666 2112 723 2138 
C 749 2150 781 2163 832 2182 
C 1037 2246 1248 2298 1466 2342 
C 1472 2278 1478 2189 1491 2074 
C 1574 1094 1619 314 1619 -275 
C 1619 -480 1600 -608 1574 -672 
C 1536 -723 1491 -755 1440 -755 
C 1325 -755 1242 -691 1197 -570 
C 1184 -531 1165 -499 1139 -486 
C 1114 -467 1088 -461 1062 -461 
C 986 -461 947 -506 947 -589 
C 947 -685 992 -781 1094 -870 
C 1178 -954 1312 -998 1504 -998 
C 1837 -998 2010 -742 2010 -243 
C 2010 198 1990 710 1965 1293 
C 1933 1792 1907 2163 1882 2406 
C 2048 2419 2221 2432 2394 2432 
C 2579 2432 2675 2374 2675 2259 
C 2675 1990 2598 1728 2451 1459 
C 2426 1434 2413 1408 2400 1389 
C 2387 1370 2381 1350 2381 1338 
C 2381 1280 2413 1229 2477 1190 
C 2534 1139 2586 1114 2637 1114 
C 2669 1114 2707 1133 2746 1171 
C 2810 1235 2874 1370 2950 1574 
C 3021 1779 3059 2010 3059 2253 
C 3059 2368 3021 2470 2944 2554 
C 2854 2637 2758 2694 2656 2720 
C 2554 2739 2451 2752 2349 2752 
C 2272 2752 2195 2746 2118 2746 
C 2118 2758 2125 2771 2125 2790 
C 2125 2803 2099 2829 2061 2867 
C 2048 2874 2035 2886 2016 2906 
C 2029 2912 2042 2925 2061 2944 
C 2163 3027 2285 3155 2426 3328 
C 2554 3494 2650 3661 2707 3827 
C 2758 3994 2790 4115 2790 4186 
C 2790 4269 2771 4339 2746 4403 
C 2714 4454 2650 4512 2560 4570 
C 2470 4621 2349 4653 2182 4653 
z
M 5984 -736 
C 5984 -717 5965 -704 5939 -698 
C 5920 -685 5901 -672 5875 -659 
L 5581 -422 
C 5414 -288 5280 -179 5165 -102 
C 5037 -19 4960 32 4934 64 
C 4896 96 4870 115 4845 115 
C 4800 115 4755 83 4717 26 
C 4678 -32 4666 -77 4666 -109 
C 4666 -141 4678 -173 4710 -205 
C 4730 -230 4762 -256 4806 -288 
C 4858 -320 4902 -352 4954 -390 
C 5120 -518 5267 -646 5395 -768 
C 5510 -883 5587 -966 5626 -1011 
C 5664 -1056 5696 -1082 5722 -1082 
C 5773 -1082 5818 -1069 5856 -1050 
C 5894 -1024 5926 -979 5952 -928 
C 5971 -877 5984 -813 5984 -736 
z
M 4819 2413 
C 4819 2458 4781 2502 4704 2554 
C 4646 2579 4582 2598 4518 2598 
C 4429 2598 4384 2560 4384 2490 
C 4384 2240 4346 1882 4275 1421 
C 4198 954 4096 550 3962 218 
C 3821 -115 3674 -384 3520 -576 
C 3456 -627 3418 -659 3398 -672 
L 3315 -723 
C 3418 -954 3520 -1069 3622 -1069 
C 3674 -1069 3770 -979 3898 -813 
C 4026 -646 4160 -397 4288 -64 
C 4416 269 4525 646 4602 1082 
C 4672 1510 4710 1792 4723 1920 
C 4736 2042 4749 2150 4762 2246 
C 4794 2323 4813 2381 4819 2413 
z
M 3174 4499 
C 3110 4448 3078 4397 3078 4358 
C 3078 4314 3085 4275 3098 4243 
C 3110 4205 3136 4179 3174 4154 
C 3206 4115 3245 4102 3283 4102 
C 3322 4102 3450 4115 3674 4154 
C 3827 4173 4045 4192 4326 4218 
C 4269 4096 4211 3949 4154 3782 
C 4128 3667 4109 3584 4109 3526 
C 3974 3501 3834 3469 3693 3430 
C 3680 3437 3667 3450 3642 3462 
C 3571 3501 3501 3520 3424 3520 
C 3334 3514 3290 3475 3290 3411 
C 3296 3296 3302 3200 3302 3130 
C 3315 2515 3322 1933 3322 1376 
C 3322 730 3354 371 3430 307 
C 3462 262 3514 243 3590 243 
C 3642 243 3686 282 3725 358 
C 3763 429 3782 518 3782 634 
C 3725 736 3699 973 3699 1344 
L 3699 2451 
C 3699 2701 3699 2893 3712 3027 
L 3789 3066 
C 4230 3219 4614 3302 4934 3302 
C 5107 3296 5229 3245 5293 3149 
C 5325 3085 5344 3002 5344 2906 
C 5344 2227 5338 1542 5331 864 
C 5325 685 5318 576 5318 531 
C 5274 474 5254 435 5254 422 
C 5254 390 5280 346 5344 288 
C 5402 224 5446 186 5478 186 
C 5530 186 5587 205 5651 256 
C 5702 307 5741 365 5760 429 
L 5760 1120 
C 5754 1830 5754 2464 5754 3021 
C 5754 3149 5715 3258 5651 3347 
C 5574 3424 5491 3488 5389 3546 
C 5274 3597 5139 3622 4986 3622 
C 4832 3622 4666 3610 4486 3584 
C 4486 3590 4486 3603 4493 3616 
C 4544 3802 4614 3968 4704 4122 
C 4723 4154 4749 4179 4774 4205 
C 4781 4211 4787 4230 4794 4256 
C 5133 4282 5382 4294 5549 4294 
C 5594 4294 5632 4288 5670 4288 
C 5696 4288 5734 4282 5773 4282 
C 5811 4269 5837 4269 5856 4269 
C 5907 4269 5946 4282 5978 4320 
C 6003 4358 6022 4397 6022 4442 
C 6022 4506 6003 4550 5971 4582 
C 5933 4614 5888 4640 5850 4659 
C 5811 4678 5766 4691 5722 4691 
C 5690 4691 5606 4678 5478 4653 
C 5350 4634 4973 4602 4352 4557 
C 3712 4499 3379 4474 3354 4474 
C 3328 4474 3302 4474 3277 4480 
C 3245 4480 3219 4480 3206 4486 
C 3187 4486 3174 4493 3174 4499 
z
" transform="scale(0.015625)"/>
      <path id="HannotateSC-W5-6d4b" d="M 4211 -506 
C 4211 -486 4198 -474 4179 -467 
C 4166 -454 4147 -442 4134 -429 
C 4115 -403 4045 -320 3930 -186 
C 3814 -45 3712 58 3629 147 
C 3546 224 3494 282 3469 314 
C 3430 339 3405 358 3379 358 
C 3341 358 3302 326 3264 275 
C 3226 218 3206 173 3206 147 
C 3206 109 3219 77 3251 51 
C 3264 26 3290 0 3322 -32 
L 3418 -141 
C 3533 -275 3635 -403 3725 -531 
C 3808 -653 3859 -736 3878 -781 
C 3904 -826 3930 -851 3949 -851 
C 4000 -851 4051 -838 4090 -819 
C 4128 -794 4154 -749 4179 -698 
C 4198 -646 4211 -582 4211 -506 
z
M 3398 4646 
C 3123 4646 2797 4582 2413 4467 
C 2336 4512 2278 4538 2234 4544 
C 2112 4544 2054 4499 2054 4410 
C 2054 4390 2061 4358 2061 4320 
C 2061 4275 2067 4237 2067 4211 
C 2016 3379 1990 2733 1990 2272 
C 1990 1478 2010 998 2061 819 
C 2099 717 2163 659 2253 659 
C 2317 659 2368 685 2400 742 
C 2426 806 2438 877 2438 954 
C 2426 954 2419 979 2406 1030 
C 2394 1075 2381 1126 2381 1178 
C 2374 1222 2368 1331 2362 1504 
C 2349 1722 2349 1978 2349 2272 
C 2349 2643 2368 3187 2419 3904 
C 2419 3955 2426 4000 2438 4051 
C 2445 4051 2464 4064 2502 4090 
C 2829 4243 3110 4326 3341 4326 
C 3533 4320 3667 4269 3731 4173 
C 3770 4109 3789 4026 3789 3930 
C 3789 3072 3770 2214 3731 1357 
C 3718 1139 3706 998 3693 947 
C 3654 890 3635 851 3635 832 
C 3635 806 3661 762 3712 710 
C 3763 659 3808 627 3840 627 
C 3878 627 3930 646 3994 691 
C 4045 730 4083 787 4102 851 
C 4109 941 4115 1050 4122 1184 
C 4122 1306 4128 1478 4134 1702 
C 4147 2579 4160 3360 4166 4045 
C 4166 4173 4128 4282 4064 4371 
C 3987 4448 3904 4512 3802 4570 
C 3686 4621 3552 4646 3398 4646 
z
M 3354 3514 
C 3354 3558 3315 3603 3251 3642 
C 3194 3667 3136 3686 3072 3686 
C 2982 3686 2944 3648 2944 3584 
C 2944 3251 2912 2771 2848 2150 
C 2784 1523 2694 986 2566 531 
C 2445 83 2317 -269 2176 -525 
C 2125 -602 2086 -653 2067 -666 
C 2035 -691 2010 -710 1997 -730 
C 2086 -928 2176 -1030 2266 -1030 
C 2317 -1030 2400 -915 2522 -691 
C 2637 -474 2752 -141 2867 307 
C 2989 742 3085 1242 3149 1811 
C 3219 2374 3258 2746 3270 2918 
L 3302 3354 
C 3328 3430 3347 3488 3354 3514 
z
M 5754 1184 
L 5786 3558 
C 5786 3808 5786 4013 5798 4166 
C 5805 4320 5818 4454 5837 4557 
C 5850 4646 5862 4710 5862 4742 
C 5862 4781 5830 4813 5779 4838 
C 5728 4864 5683 4883 5645 4883 
C 5594 4883 5536 4851 5466 4787 
C 5395 4730 5363 4678 5363 4634 
C 5363 4602 5370 4563 5382 4512 
C 5389 4448 5395 4384 5402 4314 
C 5408 4230 5414 4045 5414 3757 
L 5414 1050 
C 5414 454 5408 -51 5402 -486 
L 5402 -819 
C 5402 -1037 5504 -1152 5715 -1152 
C 5754 -1152 5792 -1139 5830 -1114 
C 5862 -1088 5882 -1056 5882 -1011 
C 5882 -973 5875 -941 5869 -915 
C 5856 -890 5843 -858 5837 -832 
C 5811 -704 5798 -589 5792 -480 
C 5766 13 5754 570 5754 1184 
z
M 4998 429 
C 4973 570 4966 768 4966 1018 
L 4966 3238 
C 4966 3309 4973 3398 4992 3501 
C 5005 3571 5018 3622 5018 3648 
C 5018 3686 4992 3718 4947 3750 
C 4877 3789 4819 3814 4768 3814 
C 4653 3814 4595 3763 4595 3674 
C 4608 3635 4614 3597 4614 3558 
C 4621 3469 4627 3386 4627 3296 
L 4627 1037 
C 4627 941 4621 781 4621 563 
C 4621 493 4621 435 4634 390 
C 4640 314 4659 243 4691 179 
C 4730 154 4768 141 4813 141 
C 4858 141 4902 173 4954 250 
C 4979 314 4998 378 4998 429 
z
M 416 -211 
C 403 -288 397 -365 397 -442 
C 397 -512 416 -570 454 -608 
C 493 -646 544 -666 614 -672 
C 653 -672 710 -627 800 -544 
C 883 -454 1005 -346 1171 -218 
C 1331 -90 1459 0 1549 51 
C 1645 102 1709 141 1734 154 
C 1779 166 1811 186 1824 218 
C 1830 243 1837 275 1837 307 
C 1830 339 1818 378 1792 422 
C 1754 461 1709 486 1658 486 
C 1606 486 1530 461 1427 410 
C 1318 346 1184 256 1018 147 
C 851 26 717 -58 627 -109 
C 525 -160 454 -192 416 -211 
z
M 762 4582 
C 698 4582 646 4570 614 4544 
C 563 4506 544 4454 544 4378 
C 544 4288 557 4230 595 4192 
C 634 4160 672 4141 710 4141 
C 749 4141 787 4147 826 4147 
C 986 4147 1126 4115 1242 4051 
C 1357 3981 1446 3923 1498 3878 
C 1574 3814 1626 3782 1664 3782 
C 1702 3782 1728 3814 1754 3878 
C 1773 3930 1786 3987 1786 4058 
C 1786 4128 1722 4211 1600 4301 
C 1472 4390 1325 4461 1171 4518 
C 1005 4557 870 4582 762 4582 
z
M 518 2720 
C 454 2720 403 2707 371 2682 
C 320 2643 301 2592 301 2515 
C 301 2426 314 2362 352 2323 
C 390 2291 429 2272 467 2272 
C 506 2278 544 2285 582 2285 
C 749 2285 890 2259 1005 2208 
C 1120 2144 1210 2093 1267 2054 
C 1344 2003 1395 1984 1434 1984 
C 1466 1984 1498 2010 1523 2074 
C 1542 2125 1555 2189 1555 2259 
C 1555 2323 1491 2394 1370 2470 
C 1235 2547 1088 2611 934 2662 
C 762 2701 621 2720 518 2720 
z
" transform="scale(0.015625)"/>
     </defs>
     <use xlink:href="#HannotateSC-W5-6708"/>
     <use xlink:href="#HannotateSC-W5-5ea6" x="99.999985"/>
     <use xlink:href="#HannotateSC-W5-822a" x="199.999969"/>
     <use xlink:href="#HannotateSC-W5-73ed" x="299.999954"/>
     <use xlink:href="#HannotateSC-W5-4e58" x="399.999939"/>
     <use xlink:href="#HannotateSC-W5-5ba2" x="499.999924"/>
     <use xlink:href="#HannotateSC-W5-6570" x="599.999908"/>
     <use xlink:href="#HannotateSC-W5-91cf" x="699.999893"/>
     <use xlink:href="#HannotateSC-W5-9884" x="799.999878"/>
     <use xlink:href="#HannotateSC-W5-6d4b" x="899.999863"/>
    </g>
   </g>
   <g id="legend_1">
    <g id="patch_7">
     <path d="M 97 88.70875 
L 169 88.70875 
Q 171 88.70875 171 86.70875 
L 171 58.84 
Q 171 56.84 169 56.84 
L 97 56.84 
Q 95 56.84 95 58.84 
L 95 86.70875 
Q 95 88.70875 97 88.70875 
z
" style="fill: #ffffff; opacity: 0.8; stroke: #cccccc; stroke-linejoin: miter"/>
    </g>
    <g id="line2d_16">
     <path d="M 99 64.54 
L 109 64.54 
L 119 64.54 
" style="fill: none; stroke: #1f77b4; stroke-width: 1.5; stroke-linecap: square"/>
    </g>
    <g id="text_17">
     <!-- 历史数据 -->
     <g transform="translate(127 68.04) scale(0.1 -0.1)">
      <defs>
       <path id="HannotateSC-W5-5386" d="M 4499 2202 
C 4864 2202 5069 2074 5120 1824 
C 5107 1248 5024 499 4864 -435 
C 4826 -570 4787 -659 4742 -704 
C 4691 -749 4672 -787 4672 -813 
C 4762 -992 4845 -1088 4915 -1101 
C 4954 -1101 5011 -1082 5094 -1050 
C 5171 -1011 5216 -979 5229 -960 
C 5242 -934 5267 -851 5299 -717 
C 5325 -602 5338 -518 5344 -454 
C 5485 512 5562 1299 5568 1907 
C 5555 2022 5510 2125 5427 2221 
C 5338 2310 5216 2387 5075 2458 
C 4934 2522 4736 2554 4474 2554 
C 4243 2554 4006 2541 3757 2522 
C 3866 2829 3949 3040 4000 3155 
C 4090 3360 4134 3494 4141 3565 
C 4141 3616 4122 3661 4083 3699 
C 4045 3744 3981 3770 3898 3770 
C 3808 3770 3738 3725 3699 3648 
C 3616 3462 3482 3098 3302 2554 
C 3290 2522 3283 2490 3270 2464 
C 3059 2438 2842 2400 2624 2355 
C 1971 2214 1645 2125 1645 2074 
C 1645 2016 1677 1946 1741 1862 
C 1805 1786 1862 1747 1926 1747 
C 1946 1747 1971 1747 1997 1754 
C 2035 1766 2125 1798 2278 1862 
C 2438 1920 2720 1990 3123 2074 
L 3142 2074 
C 3014 1702 2893 1350 2771 1005 
C 2598 518 2477 186 2406 -6 
C 2330 -198 2272 -352 2234 -467 
C 2182 -582 2157 -666 2157 -717 
C 2157 -762 2189 -826 2259 -915 
C 2323 -992 2381 -1030 2445 -1030 
C 2509 -1030 2566 -998 2611 -934 
L 2803 -358 
C 2880 -83 3078 518 3392 1453 
L 3629 2150 
C 3898 2176 4186 2195 4499 2202 
z
M 4954 4192 
C 5030 4192 5158 4186 5338 4186 
C 5581 4192 5702 4243 5709 4333 
C 5702 4403 5645 4474 5542 4550 
C 5427 4608 5338 4640 5274 4640 
C 5248 4640 5222 4634 5210 4627 
C 5197 4614 5152 4608 5075 4602 
C 4026 4550 3142 4499 2419 4448 
C 1690 4397 1286 4378 1216 4378 
C 1088 4378 973 4378 858 4384 
C 806 4384 768 4371 742 4358 
C 717 4333 704 4301 704 4256 
C 704 4205 730 4141 787 4058 
C 838 3968 902 3930 966 3930 
C 973 3930 992 3930 1018 3936 
C 1005 3853 998 3757 992 3648 
C 832 1882 755 614 755 -147 
C 755 -486 787 -704 858 -800 
C 902 -883 992 -928 1126 -928 
C 1171 -928 1216 -915 1261 -890 
C 1286 -864 1306 -826 1306 -774 
C 1306 -755 1286 -717 1261 -653 
C 1229 -602 1203 -506 1190 -378 
C 1171 -262 1165 -173 1165 -115 
C 1165 1011 1203 1920 1293 2624 
C 1376 3322 1434 3738 1466 3872 
C 1478 3917 1491 3962 1504 4000 
C 2054 4051 2656 4096 3309 4134 
C 4013 4173 4557 4192 4954 4192 
z
" transform="scale(0.015625)"/>
       <path id="HannotateSC-W5-53f2" d="M 3008 4698 
C 3027 4666 3040 4621 3040 4570 
C 3040 4333 3027 4083 3002 3821 
C 2458 3782 1882 3738 1280 3674 
C 1267 3680 1254 3686 1242 3699 
C 1178 3731 1114 3750 1043 3750 
C 979 3750 934 3738 922 3725 
C 890 3706 877 3680 877 3654 
C 877 3629 877 3610 890 3590 
C 896 3552 902 3520 902 3494 
C 902 2694 954 2074 1062 1638 
C 1062 1600 1082 1562 1120 1530 
C 1158 1498 1210 1485 1286 1485 
C 1338 1485 1389 1498 1434 1530 
C 1459 1555 1478 1594 1478 1651 
C 1485 1651 1491 1658 1504 1658 
L 1747 1690 
C 2003 1715 2298 1741 2643 1766 
C 2534 1408 2406 1082 2266 774 
L 1792 979 
C 1600 1069 1504 1114 1498 1114 
C 1402 1101 1338 1069 1299 1018 
C 1274 966 1261 915 1261 870 
C 1261 819 1280 781 1306 755 
C 1459 704 1651 634 1888 538 
L 2099 454 
C 1894 96 1702 -160 1517 -314 
C 1274 -506 1088 -614 947 -646 
C 922 -646 909 -659 909 -685 
C 922 -928 998 -1062 1133 -1094 
C 1248 -1094 1421 -992 1664 -787 
C 1894 -589 2163 -250 2458 237 
L 2490 288 
C 2970 83 3674 -218 4595 -627 
C 4890 -768 5146 -877 5363 -954 
C 5568 -1024 5702 -1062 5760 -1062 
C 5811 -1062 5856 -1050 5888 -1037 
C 5920 -1018 5952 -979 5984 -928 
C 5997 -877 6010 -832 6016 -781 
C 6016 -666 5965 -602 5862 -595 
L 5670 -563 
C 5350 -499 4755 -288 3885 77 
C 3430 269 3021 448 2656 608 
C 2816 941 2957 1338 3078 1786 
L 3424 1798 
C 4102 1824 4582 1837 4877 1837 
C 4934 1837 4998 1830 5069 1818 
C 5133 1798 5197 1792 5261 1792 
C 5363 1792 5414 1850 5414 1958 
C 5414 1990 5370 2042 5280 2106 
C 5318 2202 5357 2336 5402 2509 
C 5459 2752 5491 3021 5491 3309 
C 5491 3424 5453 3520 5382 3610 
C 5306 3686 5216 3757 5114 3808 
C 5005 3853 4890 3878 4774 3878 
C 4346 3878 3898 3866 3424 3846 
C 3437 4051 3450 4269 3456 4499 
C 3469 4589 3482 4666 3482 4730 
C 3411 4845 3302 4902 3149 4902 
C 3098 4902 3066 4883 3040 4845 
C 3014 4806 3008 4755 3008 4698 
z
M 1395 2022 
C 1382 2086 1370 2176 1357 2285 
C 1331 2451 1318 2778 1318 3264 
C 1370 3264 1453 3277 1568 3302 
C 1760 3328 2163 3373 2778 3430 
L 2963 3443 
C 2931 3181 2893 2906 2842 2611 
C 2810 2432 2771 2266 2733 2106 
L 2464 2093 
C 2131 2074 1779 2048 1395 2022 
z
M 3168 2131 
C 3264 2554 3341 3002 3392 3475 
C 3802 3501 4237 3520 4685 3520 
C 4883 3520 4998 3443 5024 3290 
C 5024 2989 4966 2675 4858 2342 
L 4800 2208 
C 4774 2202 4749 2202 4736 2202 
C 4582 2189 4205 2176 3610 2150 
L 3168 2131 
z
" transform="scale(0.015625)"/>
       <path id="HannotateSC-W5-636e" d="M 4986 4717 
C 4397 4717 3706 4634 2925 4467 
L 2912 4422 
C 2912 4275 2963 4173 3066 4122 
C 3053 4026 3040 3923 3021 3808 
C 2701 1901 2547 525 2547 -307 
C 2547 -666 2579 -890 2656 -979 
C 2707 -1069 2797 -1120 2938 -1120 
C 2982 -1120 3027 -1101 3078 -1075 
C 3104 -1050 3123 -1005 3123 -954 
C 3123 -934 3104 -896 3078 -838 
C 3046 -774 3021 -678 3002 -550 
C 2982 -422 2976 -333 2976 -275 
C 2976 947 3046 1939 3187 2707 
C 3200 2784 3213 2867 3232 2944 
L 3264 2944 
L 3635 3002 
C 3853 3034 4102 3066 4390 3098 
C 4390 3078 4397 3059 4397 3034 
C 4397 2931 4403 2829 4403 2726 
L 4403 2099 
C 4288 2086 4179 2074 4064 2067 
C 3821 2042 3558 2010 3277 1971 
C 3251 1965 3238 1946 3238 1920 
C 3238 1869 3258 1811 3309 1747 
C 3341 1670 3386 1632 3443 1632 
C 3475 1632 3514 1638 3558 1651 
C 3590 1664 3635 1677 3699 1690 
C 3891 1728 4128 1760 4403 1786 
L 4403 1254 
C 4403 1178 4403 1114 4410 1056 
C 4410 1050 4410 1043 4416 1030 
C 4243 998 4058 960 3866 909 
C 3853 922 3840 934 3821 947 
C 3757 973 3686 992 3622 992 
C 3558 992 3520 979 3501 966 
C 3469 954 3456 934 3456 909 
C 3456 883 3456 864 3469 838 
C 3475 800 3482 768 3482 742 
C 3482 26 3520 -525 3597 -922 
C 3597 -960 3616 -992 3654 -1030 
C 3686 -1062 3744 -1082 3821 -1082 
C 3872 -1082 3917 -1062 3955 -1030 
C 3994 -998 4013 -954 4013 -890 
L 4013 -864 
L 4032 -858 
C 4230 -806 4486 -768 4794 -749 
C 5101 -723 5318 -710 5459 -710 
C 5510 -710 5562 -717 5626 -730 
C 5690 -742 5747 -749 5798 -749 
C 5888 -742 5939 -698 5939 -608 
C 5939 -563 5882 -506 5779 -435 
L 5773 -429 
C 5786 -346 5798 -179 5824 70 
C 5856 390 5875 570 5882 621 
C 5875 749 5830 845 5754 922 
C 5670 986 5581 1037 5491 1062 
C 5408 1088 5286 1101 5133 1107 
C 5037 1107 4934 1101 4832 1088 
L 4832 1107 
C 4806 1261 4794 1485 4794 1773 
L 4794 1811 
C 5126 1837 5376 1850 5530 1850 
C 5581 1850 5638 1843 5702 1830 
C 5760 1818 5818 1811 5875 1811 
C 5965 1811 6010 1862 6010 1958 
C 6010 1997 5958 2054 5856 2125 
C 5754 2182 5683 2214 5645 2214 
L 5402 2176 
C 5312 2163 5107 2150 4794 2131 
L 4794 2662 
C 4794 2739 4800 2842 4826 2970 
C 4845 3046 4858 3104 4858 3136 
L 4858 3149 
C 5139 3174 5370 3187 5562 3200 
C 5626 3200 5702 3213 5798 3251 
C 5850 3302 5882 3366 5882 3430 
C 5882 3462 5856 3494 5805 3526 
C 5818 3558 5830 3603 5843 3654 
C 5882 3814 5907 3994 5907 4192 
C 5907 4320 5856 4422 5754 4512 
C 5651 4602 5530 4659 5389 4685 
C 5254 4704 5120 4717 4986 4717 
z
M 3533 4205 
C 4038 4320 4544 4384 5043 4384 
C 5286 4384 5414 4320 5414 4198 
C 5414 4006 5370 3821 5280 3629 
L 5254 3590 
C 5242 3578 5242 3565 5242 3552 
C 5242 3539 5242 3533 5248 3526 
C 5120 3501 4979 3475 4838 3462 
C 4653 3437 4378 3405 4019 3360 
C 3654 3315 3430 3296 3354 3296 
L 3296 3296 
C 3373 3706 3430 3955 3475 4058 
C 3494 4109 3514 4154 3533 4205 
z
M 3936 -525 
C 3930 -474 3923 -416 3917 -346 
C 3898 -192 3885 109 3885 563 
C 3891 563 3904 570 3917 576 
C 4154 666 4384 730 4608 768 
C 4621 768 4634 774 4659 774 
C 4787 800 4915 813 5043 813 
C 5216 806 5325 781 5370 742 
C 5408 704 5434 653 5434 589 
C 5395 243 5357 -70 5312 -365 
C 5312 -365 5306 -371 5299 -384 
C 5222 -390 5062 -403 4806 -429 
C 4640 -442 4461 -454 4275 -480 
C 4173 -493 4058 -506 3936 -525 
z
M 2400 3296 
C 2400 3347 2342 3379 2240 3398 
C 2125 3411 2016 3418 1901 3418 
C 1818 3418 1734 3411 1658 3411 
L 1658 3539 
C 1658 3789 1658 3994 1670 4147 
C 1683 4301 1696 4422 1715 4525 
C 1728 4621 1741 4685 1741 4710 
C 1741 4749 1709 4787 1658 4826 
C 1594 4851 1542 4870 1498 4870 
C 1446 4870 1382 4832 1299 4762 
C 1222 4698 1184 4640 1184 4589 
C 1184 4557 1190 4512 1203 4454 
C 1203 4390 1210 4314 1222 4230 
C 1229 4141 1235 3936 1235 3610 
L 1235 3386 
C 1210 3386 1190 3379 1165 3379 
C 922 3354 678 3322 422 3277 
C 397 3264 390 3232 390 3194 
C 390 3117 403 3046 435 2976 
C 474 2899 518 2861 557 2861 
C 576 2861 621 2874 685 2899 
C 858 2944 1043 2976 1235 3002 
L 1235 1574 
C 1139 1523 1037 1466 928 1402 
C 582 1203 416 1062 416 986 
C 422 794 493 672 627 634 
C 755 749 864 838 954 902 
C 1043 966 1139 1037 1235 1101 
L 1235 1075 
C 1235 525 1229 45 1222 -365 
L 1222 -736 
C 1222 -979 1338 -1107 1574 -1107 
C 1619 -1107 1664 -1094 1715 -1069 
C 1747 -1043 1766 -1005 1766 -954 
C 1766 -915 1760 -883 1747 -845 
C 1734 -806 1728 -774 1715 -742 
C 1690 -621 1670 -506 1670 -403 
C 1638 70 1626 602 1626 1197 
L 1626 1350 
C 1811 1453 1997 1542 2176 1619 
C 2323 1664 2400 1690 2406 1702 
C 2432 1722 2451 1792 2451 1914 
C 2413 1978 2342 2010 2240 2016 
C 2170 2016 2016 1958 1786 1856 
L 1632 1786 
L 1651 3027 
C 1766 3027 1862 3034 1939 3034 
C 1978 3034 2048 3027 2150 3027 
C 2234 3021 2298 3021 2336 3021 
C 2362 3021 2374 3046 2387 3104 
C 2394 3155 2400 3219 2400 3296 
z
" transform="scale(0.015625)"/>
      </defs>
      <use xlink:href="#HannotateSC-W5-5386"/>
      <use xlink:href="#HannotateSC-W5-53f2" x="99.999985"/>
      <use xlink:href="#HannotateSC-W5-6570" x="199.999969"/>
      <use xlink:href="#HannotateSC-W5-636e" x="299.999954"/>
     </g>
    </g>
    <g id="line2d_17">
     <path d="M 99 78.999375 
L 109 78.999375 
L 119 78.999375 
" style="fill: none; stroke: #ff7f0e; stroke-width: 1.5; stroke-linecap: square"/>
    </g>
    <g id="text_18">
     <!-- 预测数据 -->
     <g transform="translate(127 82.499375) scale(0.1 -0.1)">
      <use xlink:href="#HannotateSC-W5-9884"/>
      <use xlink:href="#HannotateSC-W5-6d4b" x="99.999985"/>
      <use xlink:href="#HannotateSC-W5-6570" x="199.999969"/>
      <use xlink:href="#HannotateSC-W5-636e" x="299.999954"/>
     </g>
    </g>
   </g>
  </g>
 </g>
 <defs>
  <clipPath id="pb274513b93">
   <rect x="90" y="51.84" width="558" height="332.64"/>
  </clipPath>
 </defs>
</svg>
