<svg xmlns="http://www.w3.org/2000/svg" xmlns:xlink="http://www.w3.org/1999/xlink" contentStyleType="text/css" data-diagram-type="SEQUENCE" height="1206px" preserveAspectRatio="none" style="width:1040px;height:1206px;" version="1.1" viewBox="0 0 1040 1206" width="1040px" zoomAndPan="magnify"><defs/><g><g><title>&#29992;&#25143;</title><rect fill="#000000" fill-opacity="0.00000" height="1044.25" width="8" x="17.9999" y="81.2969"/><line style="stroke:#454645;stroke-width:0.5;stroke-dasharray:5.0,5.0;" x1="21" x2="21" y1="81.2969" y2="1125.5469"/></g><g><title>&#21069;&#31471;&#24212;&#29992;</title><rect fill="#000000" fill-opacity="0.00000" height="1044.25" width="8" x="213.7613" y="81.2969"/><line style="stroke:#454645;stroke-width:0.5;stroke-dasharray:5.0,5.0;" x1="216.7615" x2="216.7615" y1="81.2969" y2="1125.5469"/></g><g><title>API &#26381;&#21153;</title><rect fill="#000000" fill-opacity="0.00000" height="1044.25" width="8" x="606.2555" y="81.2969"/><line style="stroke:#454645;stroke-width:0.5;stroke-dasharray:5.0,5.0;" x1="609.9562" x2="609.9562" y1="81.2969" y2="1125.5469"/></g><g><title>&#25968;&#25454;&#24211;</title><rect fill="#000000" fill-opacity="0.00000" height="1044.25" width="8" x="786.2557" y="81.2969"/><line style="stroke:#454645;stroke-width:0.5;stroke-dasharray:5.0,5.0;" x1="789.2558" x2="789.2558" y1="81.2969" y2="1125.5469"/></g><g><title>Redis</title><rect fill="#000000" fill-opacity="0.00000" height="1044.25" width="8" x="850.4611" y="81.2969"/><line style="stroke:#454645;stroke-width:0.5;stroke-dasharray:5.0,5.0;" x1="854.2556" x2="854.2556" y1="81.2969" y2="1125.5469"/></g><g class="participant participant-head" data-participant="User"><text fill="#454645" font-family="sans-serif" font-size="14" lengthAdjust="spacing" textLength="27.9999" x="5" y="77.9951">&#29992;&#25143;</text><ellipse cx="21.9999" cy="13.5" fill="#454645" rx="8" ry="8" style="stroke:#454645;stroke-width:0.5;"/><path d="M21.9999,21.5 L21.9999,48.5 M8.9999,29.5 L34.9999,29.5 M21.9999,48.5 L8.9999,63.5 M21.9999,48.5 L34.9999,63.5" fill="none" style="stroke:#454645;stroke-width:0.5;"/></g><g class="participant participant-tail" data-participant="User"><text fill="#454645" font-family="sans-serif" font-size="14" lengthAdjust="spacing" textLength="27.9999" x="5" y="1137.542">&#29992;&#25143;</text><ellipse cx="21.9999" cy="1149.3438" fill="#454645" rx="8" ry="8" style="stroke:#454645;stroke-width:0.5;"/><path d="M21.9999,1157.3438 L21.9999,1184.3438 M8.9999,1165.3438 L34.9999,1165.3438 M21.9999,1184.3438 L8.9999,1199.3438 M21.9999,1184.3438 L34.9999,1199.3438" fill="none" style="stroke:#454645;stroke-width:0.5;"/></g><g class="participant participant-head" data-participant="Frontend"><rect fill="#FF6F61" height="30.2969" rx="3.5" ry="3.5" style="stroke:#454645;stroke-width:1.5;" width="69.9998" x="182.7615" y="50"/><text fill="#FFFFFF" font-family="sans-serif" font-size="14" lengthAdjust="spacing" textLength="55.9998" x="189.7615" y="69.9951">&#21069;&#31471;&#24212;&#29992;</text></g><g class="participant participant-tail" data-participant="Frontend"><rect fill="#FF6F61" height="30.2969" rx="3.5" ry="3.5" style="stroke:#454645;stroke-width:1.5;" width="69.9998" x="182.7615" y="1124.5469"/><text fill="#FFFFFF" font-family="sans-serif" font-size="14" lengthAdjust="spacing" textLength="55.9998" x="189.7615" y="1144.542">&#21069;&#31471;&#24212;&#29992;</text></g><g class="participant participant-head" data-participant="API"><rect fill="#FF6F61" height="30.2969" rx="3.5" ry="3.5" style="stroke:#454645;stroke-width:1.5;" width="68.5985" x="575.9562" y="50"/><text fill="#FFFFFF" font-family="sans-serif" font-size="14" lengthAdjust="spacing" textLength="54.5985" x="582.9562" y="69.9951">API &#26381;&#21153;</text></g><g class="participant participant-tail" data-participant="API"><rect fill="#FF6F61" height="30.2969" rx="3.5" ry="3.5" style="stroke:#454645;stroke-width:1.5;" width="68.5985" x="575.9562" y="1124.5469"/><text fill="#FFFFFF" font-family="sans-serif" font-size="14" lengthAdjust="spacing" textLength="54.5985" x="582.9562" y="1144.542">API &#26381;&#21153;</text></g><g class="participant participant-head" data-participant="Database"><rect fill="#FF6F61" height="30.2969" rx="3.5" ry="3.5" style="stroke:#454645;stroke-width:1.5;" width="55.9998" x="762.2558" y="50"/><text fill="#FFFFFF" font-family="sans-serif" font-size="14" lengthAdjust="spacing" textLength="41.9998" x="769.2558" y="69.9951">&#25968;&#25454;&#24211;</text></g><g class="participant participant-tail" data-participant="Database"><rect fill="#FF6F61" height="30.2969" rx="3.5" ry="3.5" style="stroke:#454645;stroke-width:1.5;" width="55.9998" x="762.2558" y="1124.5469"/><text fill="#FFFFFF" font-family="sans-serif" font-size="14" lengthAdjust="spacing" textLength="41.9998" x="769.2558" y="1144.542">&#25968;&#25454;&#24211;</text></g><g class="participant participant-head" data-participant="Redis"><rect fill="#FF6F61" height="30.2969" rx="3.5" ry="3.5" style="stroke:#454645;stroke-width:1.5;" width="52.4111" x="828.2556" y="50"/><text fill="#FFFFFF" font-family="sans-serif" font-size="14" lengthAdjust="spacing" textLength="38.4111" x="835.2556" y="69.9951">Redis</text></g><g class="participant participant-tail" data-participant="Redis"><rect fill="#FF6F61" height="30.2969" rx="3.5" ry="3.5" style="stroke:#454645;stroke-width:1.5;" width="52.4111" x="828.2556" y="1124.5469"/><text fill="#FFFFFF" font-family="sans-serif" font-size="14" lengthAdjust="spacing" textLength="38.4111" x="835.2556" y="1144.542">Redis</text></g><rect fill="#EEEEEE" height="3" rx="3.5" ry="3.5" style="stroke:#EEEEEE;stroke-width:1;" width="1033.4613" x="0" y="111.8633"/><line style="stroke:#454645;stroke-width:0.5;" x1="0" x2="1033.4613" y1="111.8633" y2="111.8633"/><line style="stroke:#454645;stroke-width:0.5;" x1="0" x2="1033.4613" y1="114.8633" y2="114.8633"/><rect fill="#EEEEEE" height="23.1328" rx="3.5" ry="3.5" style="stroke:#454645;stroke-width:1;" width="70.5259" x="481.4677" y="101.2969"/><text fill="#454645" font-family="sans-serif" font-size="13" font-weight="bold" lengthAdjust="spacing" textLength="52.0001" x="487.4677" y="117.3638">&#29992;&#25143;&#30331;&#24405;</text><g class="message" data-participant-1="User" data-participant-2="Frontend"><polygon fill="#454645" points="205.7613,151.5625,215.7613,155.5625,205.7613,159.5625,209.7613,155.5625" style="stroke:#454645;stroke-width:1;"/><line style="stroke:#454645;stroke-width:1;" x1="21.9999" x2="211.7613" y1="155.5625" y2="155.5625"/><text fill="#000000" font-family="sans-serif" font-size="13" lengthAdjust="spacing" textLength="134.38" x="28.9999" y="150.4966">&#36755;&#20837;&#29992;&#25143;&#21517;/&#23494;&#30721;&#24182;&#25552;&#20132;</text></g><g class="message" data-participant-1="Frontend" data-participant-2="API"><polygon fill="#454645" points="598.2555,180.6953,608.2555,184.6953,598.2555,188.6953,602.2555,184.6953" style="stroke:#454645;stroke-width:1;"/><line style="stroke:#454645;stroke-width:1;" x1="217.7613" x2="604.2555" y1="184.6953" y2="184.6953"/><text fill="#000000" font-family="sans-serif" font-size="13" lengthAdjust="spacing" textLength="230.5532" x="224.7613" y="179.6294">POST /login {username, password}</text></g><g class="message" data-participant-1="API" data-participant-2="Database"><polygon fill="#454645" points="778.2557,209.8281,788.2557,213.8281,778.2557,217.8281,782.2557,213.8281" style="stroke:#454645;stroke-width:1;"/><line style="stroke:#454645;stroke-width:1;" x1="610.2555" x2="784.2557" y1="213.8281" y2="213.8281"/><text fill="#000000" font-family="sans-serif" font-size="13" lengthAdjust="spacing" textLength="156.0002" x="617.2555" y="208.7622">&#26597;&#35810;&#29992;&#25143;&#20449;&#24687;&#65288;&#26657;&#39564;&#23494;&#30721;&#65289;</text></g><g class="message" data-participant-1="Database" data-participant-2="API"><polygon fill="#454645" points="621.2555,238.9609,611.2555,242.9609,621.2555,246.9609,617.2555,242.9609" style="stroke:#454645;stroke-width:1;"/><line style="stroke:#454645;stroke-width:1;stroke-dasharray:2.0,2.0;" x1="615.2555" x2="789.2557" y1="242.9609" y2="242.9609"/><text fill="#000000" font-family="sans-serif" font-size="13" lengthAdjust="spacing" textLength="156.0002" x="627.2555" y="237.895">&#36820;&#22238;&#29992;&#25143;&#25968;&#25454;&#65288;&#26657;&#39564;&#25104;&#21151;&#65289;</text></g><g class="message" data-participant-1="API" data-participant-2="API"><line style="stroke:#454645;stroke-width:1;" x1="610.2555" x2="652.2555" y1="272.0938" y2="272.0938"/><line style="stroke:#454645;stroke-width:1;" x1="652.2555" x2="652.2555" y1="272.0938" y2="285.0938"/><line style="stroke:#454645;stroke-width:1;" x1="611.2555" x2="652.2555" y1="285.0938" y2="285.0938"/><polygon fill="#454645" points="621.2555,281.0938,611.2555,285.0938,621.2555,289.0938,617.2555,285.0938" style="stroke:#454645;stroke-width:1;"/><text fill="#000000" font-family="sans-serif" font-size="13" lengthAdjust="spacing" textLength="155.4225" x="617.2555" y="267.0278">&#29983;&#25104; JWT&#65288;&#21547; jti &#21644; exp&#65289;</text></g><g class="message" data-participant-1="API" data-participant-2="Frontend"><polygon fill="#454645" points="228.7613,310.2266,218.7613,314.2266,228.7613,318.2266,224.7613,314.2266" style="stroke:#454645;stroke-width:1;"/><line style="stroke:#454645;stroke-width:1;stroke-dasharray:2.0,2.0;" x1="222.7613" x2="609.2555" y1="314.2266" y2="314.2266"/><text fill="#000000" font-family="sans-serif" font-size="13" lengthAdjust="spacing" textLength="128.4639" x="234.7613" y="309.1606">200 OK&#65288;&#36820;&#22238; JWT&#65289;</text></g><g class="message" data-participant-1="Frontend" data-participant-2="User"><polygon fill="#454645" points="32.9999,339.3594,22.9999,343.3594,32.9999,347.3594,28.9999,343.3594" style="stroke:#454645;stroke-width:1;"/><line style="stroke:#454645;stroke-width:1;" x1="26.9999" x2="216.7613" y1="343.3594" y2="343.3594"/><text fill="#000000" font-family="sans-serif" font-size="13" lengthAdjust="spacing" textLength="132.7614" x="38.9999" y="338.2935">&#30331;&#24405;&#25104;&#21151;&#65288;&#23384;&#20648; JWT&#65289;</text></g><g class="message" data-participant-1="User" data-participant-2="Frontend"><polygon fill="#454645" points="205.7613,368.4922,215.7613,372.4922,205.7613,376.4922,209.7613,372.4922" style="stroke:#454645;stroke-width:1;"/><line style="stroke:#454645;stroke-width:1;" x1="21.9999" x2="211.7613" y1="372.4922" y2="372.4922"/><text fill="#000000" font-family="sans-serif" font-size="13" lengthAdjust="spacing" textLength="91.0001" x="28.9999" y="367.4263">&#35775;&#38382;&#21463;&#20445;&#25252;&#36164;&#28304;</text></g><g class="message" data-participant-1="Frontend" data-participant-2="API"><polygon fill="#454645" points="598.2555,397.625,608.2555,401.625,598.2555,405.625,602.2555,401.625" style="stroke:#454645;stroke-width:1;"/><line style="stroke:#454645;stroke-width:1;" x1="217.7613" x2="604.2555" y1="401.625" y2="401.625"/><text fill="#000000" font-family="sans-serif" font-size="13" lengthAdjust="spacing" textLength="351.3618" x="224.7613" y="396.5591">GET /resource (Header: Authorization: Bearer &lt;JWT&gt;)</text></g><g class="message" data-participant-1="API" data-participant-2="API"><line style="stroke:#454645;stroke-width:1;" x1="610.2555" x2="652.2555" y1="430.7578" y2="430.7578"/><line style="stroke:#454645;stroke-width:1;" x1="652.2555" x2="652.2555" y1="430.7578" y2="443.7578"/><line style="stroke:#454645;stroke-width:1;" x1="611.2555" x2="652.2555" y1="443.7578" y2="443.7578"/><polygon fill="#454645" points="621.2555,439.7578,611.2555,443.7578,621.2555,447.7578,617.2555,443.7578" style="stroke:#454645;stroke-width:1;"/><text fill="#000000" font-family="sans-serif" font-size="13" lengthAdjust="spacing" textLength="110.2144" x="617.2555" y="425.6919">&#35299;&#26512; JWT&#65292;&#25552;&#21462; jti</text></g><g class="message" data-participant-1="API" data-participant-2="Redis"><polygon fill="#454645" points="842.4611,468.8906,852.4611,472.8906,842.4611,476.8906,846.4611,472.8906" style="stroke:#454645;stroke-width:1;"/><line style="stroke:#454645;stroke-width:1;" x1="610.2555" x2="848.4611" y1="472.8906" y2="472.8906"/><text fill="#000000" font-family="sans-serif" font-size="13" lengthAdjust="spacing" textLength="100.3374" x="617.2555" y="467.8247">EXISTS jti:&lt;jti&gt;</text></g><g class="message" data-participant-1="Redis" data-participant-2="API"><polygon fill="#454645" points="621.2555,501.0234,611.2555,505.0234,621.2555,509.0234,617.2555,505.0234" style="stroke:#454645;stroke-width:1;"/><line style="stroke:#454645;stroke-width:1;stroke-dasharray:2.0,2.0;" x1="615.2555" x2="853.4611" y1="505.0234" y2="505.0234"/><text fill="#000000" font-family="sans-serif" font-size="13" lengthAdjust="spacing" textLength="38.4034" x="627.2555" y="499.9575">&#36820;&#22238; 0</text></g><path d="M859,489.3906 L859,507.3906 A3.5,3.5 0 0 0 862.5,510.8906 L1019.5,510.8906 A3.5,3.5 0 0 0 1023,507.3906 L1023,495.8906 L1013,485.8906 L862.5,485.8906 A3.5,3.5 0 0 0 859,489.3906" fill="#90EE90" style="stroke:#454645;stroke-width:1;"/><path d="M1013,485.8906 L1013,494.1406 A1.75,1.75 0 0 0 1014.75,495.8906 L1023,495.8906 L1013,485.8906" fill="#90EE90" style="stroke:#454645;stroke-width:1;"/><text fill="#454645" font-family="sans-serif" font-size="13" lengthAdjust="spacing" textLength="143.0002" x="865" y="502.9575">&#20196;&#29260;&#26377;&#25928;&#65288;&#26410;&#22312;&#40657;&#21517;&#21333;&#65289;</text><g class="message" data-participant-1="API" data-participant-2="Database"><polygon fill="#454645" points="778.2557,533.1563,788.2557,537.1563,778.2557,541.1563,782.2557,537.1563" style="stroke:#454645;stroke-width:1;"/><line style="stroke:#454645;stroke-width:1;" x1="610.2555" x2="784.2557" y1="537.1563" y2="537.1563"/><text fill="#000000" font-family="sans-serif" font-size="13" lengthAdjust="spacing" textLength="78.0001" x="617.2555" y="532.0903">&#26597;&#35810;&#36164;&#28304;&#25968;&#25454;</text></g><g class="message" data-participant-1="Database" data-participant-2="API"><polygon fill="#454645" points="621.2555,562.2891,611.2555,566.2891,621.2555,570.2891,617.2555,566.2891" style="stroke:#454645;stroke-width:1;"/><line style="stroke:#454645;stroke-width:1;stroke-dasharray:2.0,2.0;" x1="615.2555" x2="789.2557" y1="566.2891" y2="566.2891"/><text fill="#000000" font-family="sans-serif" font-size="13" lengthAdjust="spacing" textLength="52.0001" x="627.2555" y="561.2231">&#36820;&#22238;&#25968;&#25454;</text></g><g class="message" data-participant-1="API" data-participant-2="Frontend"><polygon fill="#454645" points="228.7613,591.4219,218.7613,595.4219,228.7613,599.4219,224.7613,595.4219" style="stroke:#454645;stroke-width:1;"/><line style="stroke:#454645;stroke-width:1;stroke-dasharray:2.0,2.0;" x1="222.7613" x2="609.2555" y1="595.4219" y2="595.4219"/><text fill="#000000" font-family="sans-serif" font-size="13" lengthAdjust="spacing" textLength="125.7027" x="234.7613" y="590.356">200 OK&#65288;&#36820;&#22238;&#36164;&#28304;&#65289;</text></g><g class="message" data-participant-1="Frontend" data-participant-2="User"><polygon fill="#454645" points="32.9999,620.5547,22.9999,624.5547,32.9999,628.5547,28.9999,624.5547" style="stroke:#454645;stroke-width:1;"/><line style="stroke:#454645;stroke-width:1;stroke-dasharray:2.0,2.0;" x1="26.9999" x2="216.7613" y1="624.5547" y2="624.5547"/><text fill="#000000" font-family="sans-serif" font-size="13" lengthAdjust="spacing" textLength="52.0001" x="38.9999" y="619.4888">&#26174;&#31034;&#36164;&#28304;</text></g><rect fill="#EEEEEE" height="3" rx="3.5" ry="3.5" style="stroke:#EEEEEE;stroke-width:1;" width="1033.4613" x="0" y="653.1211"/><line style="stroke:#454645;stroke-width:0.5;" x1="0" x2="1033.4613" y1="653.1211" y2="653.1211"/><line style="stroke:#454645;stroke-width:0.5;" x1="0" x2="1033.4613" y1="656.1211" y2="656.1211"/><rect fill="#EEEEEE" height="23.1328" rx="3.5" ry="3.5" style="stroke:#454645;stroke-width:1;" width="70.5259" x="481.4677" y="642.5547"/><text fill="#454645" font-family="sans-serif" font-size="13" font-weight="bold" lengthAdjust="spacing" textLength="52.0001" x="487.4677" y="658.6216">&#29992;&#25143;&#27880;&#38144;</text><g class="message" data-participant-1="User" data-participant-2="Frontend"><polygon fill="#454645" points="205.7613,692.8203,215.7613,696.8203,205.7613,700.8203,209.7613,696.8203" style="stroke:#454645;stroke-width:1;"/><line style="stroke:#454645;stroke-width:1;" x1="21.9999" x2="211.7613" y1="696.8203" y2="696.8203"/><text fill="#000000" font-family="sans-serif" font-size="13" lengthAdjust="spacing" textLength="52.0001" x="28.9999" y="691.7544">&#28857;&#20987;&#27880;&#38144;</text></g><g class="message" data-participant-1="Frontend" data-participant-2="API"><polygon fill="#454645" points="598.2555,721.9531,608.2555,725.9531,598.2555,729.9531,602.2555,725.9531" style="stroke:#454645;stroke-width:1;"/><line style="stroke:#454645;stroke-width:1;" x1="217.7613" x2="604.2555" y1="725.9531" y2="725.9531"/><text fill="#000000" font-family="sans-serif" font-size="13" lengthAdjust="spacing" textLength="343.7065" x="224.7613" y="720.8872">POST /logout (Header: Authorization: Bearer &lt;JWT&gt;)</text></g><g class="message" data-participant-1="API" data-participant-2="API"><line style="stroke:#454645;stroke-width:1;" x1="610.2555" x2="652.2555" y1="755.0859" y2="755.0859"/><line style="stroke:#454645;stroke-width:1;" x1="652.2555" x2="652.2555" y1="755.0859" y2="768.0859"/><line style="stroke:#454645;stroke-width:1;" x1="611.2555" x2="652.2555" y1="768.0859" y2="768.0859"/><polygon fill="#454645" points="621.2555,764.0859,611.2555,768.0859,621.2555,772.0859,617.2555,768.0859" style="stroke:#454645;stroke-width:1;"/><text fill="#000000" font-family="sans-serif" font-size="13" lengthAdjust="spacing" textLength="155.4225" x="617.2555" y="750.02">&#35299;&#26512; JWT&#65292;&#25552;&#21462; jti &#21644; exp</text></g><g class="message" data-participant-1="API" data-participant-2="Redis"><polygon fill="#454645" points="842.4611,793.2188,852.4611,797.2188,842.4611,801.2188,846.4611,797.2188" style="stroke:#454645;stroke-width:1;"/><line style="stroke:#454645;stroke-width:1;" x1="610.2555" x2="848.4611" y1="797.2188" y2="797.2188"/><text fill="#000000" font-family="sans-serif" font-size="13" lengthAdjust="spacing" textLength="203.9185" x="617.2555" y="792.1528">SET jti:&lt;jti&gt; 1 EX &lt;&#21097;&#20313;&#26377;&#25928;&#26399;&gt;</text></g><g class="message" data-participant-1="Redis" data-participant-2="API"><polygon fill="#454645" points="621.2555,822.3516,611.2555,826.3516,621.2555,830.3516,617.2555,826.3516" style="stroke:#454645;stroke-width:1;"/><line style="stroke:#454645;stroke-width:1;stroke-dasharray:2.0,2.0;" x1="615.2555" x2="853.4611" y1="826.3516" y2="826.3516"/><text fill="#000000" font-family="sans-serif" font-size="13" lengthAdjust="spacing" textLength="52.0001" x="627.2555" y="821.2856">&#25805;&#20316;&#25104;&#21151;</text></g><g class="message" data-participant-1="API" data-participant-2="Frontend"><polygon fill="#454645" points="228.7613,851.4844,218.7613,855.4844,228.7613,859.4844,224.7613,855.4844" style="stroke:#454645;stroke-width:1;"/><line style="stroke:#454645;stroke-width:1;stroke-dasharray:2.0,2.0;" x1="222.7613" x2="609.2555" y1="855.4844" y2="855.4844"/><text fill="#000000" font-family="sans-serif" font-size="13" lengthAdjust="spacing" textLength="47.7026" x="234.7613" y="850.4185">200 OK</text></g><g class="message" data-participant-1="Frontend" data-participant-2="User"><polygon fill="#454645" points="32.9999,880.6172,22.9999,884.6172,32.9999,888.6172,28.9999,884.6172" style="stroke:#454645;stroke-width:1;"/><line style="stroke:#454645;stroke-width:1;" x1="26.9999" x2="216.7613" y1="884.6172" y2="884.6172"/><text fill="#000000" font-family="sans-serif" font-size="13" lengthAdjust="spacing" textLength="145.7614" x="38.9999" y="879.5513">&#28165;&#38500; JWT&#65292;&#25552;&#31034;&#27880;&#38144;&#25104;&#21151;</text></g><g class="message" data-participant-1="User" data-participant-2="Frontend"><polygon fill="#454645" points="205.7613,909.75,215.7613,913.75,205.7613,917.75,209.7613,913.75" style="stroke:#454645;stroke-width:1;"/><line style="stroke:#454645;stroke-width:1;" x1="21.9999" x2="211.7613" y1="913.75" y2="913.75"/><text fill="#000000" font-family="sans-serif" font-size="13" lengthAdjust="spacing" textLength="171.7614" x="28.9999" y="908.6841">&#20877;&#27425;&#35775;&#38382;&#36164;&#28304;&#65288;&#25658;&#24102;&#26087; JWT&#65289;</text></g><g class="message" data-participant-1="Frontend" data-participant-2="API"><polygon fill="#454645" points="598.2555,938.8828,608.2555,942.8828,598.2555,946.8828,602.2555,942.8828" style="stroke:#454645;stroke-width:1;"/><line style="stroke:#454645;stroke-width:1;" x1="217.7613" x2="604.2555" y1="942.8828" y2="942.8828"/><text fill="#000000" font-family="sans-serif" font-size="13" lengthAdjust="spacing" textLength="368.4941" x="224.7613" y="937.8169">GET /resource (Header: Authorization: Bearer &lt;&#26087; JWT&gt;)</text></g><g class="message" data-participant-1="API" data-participant-2="API"><line style="stroke:#454645;stroke-width:1;" x1="610.2555" x2="652.2555" y1="972.0156" y2="972.0156"/><line style="stroke:#454645;stroke-width:1;" x1="652.2555" x2="652.2555" y1="972.0156" y2="985.0156"/><line style="stroke:#454645;stroke-width:1;" x1="611.2555" x2="652.2555" y1="985.0156" y2="985.0156"/><polygon fill="#454645" points="621.2555,981.0156,611.2555,985.0156,621.2555,989.0156,617.2555,985.0156" style="stroke:#454645;stroke-width:1;"/><text fill="#000000" font-family="sans-serif" font-size="13" lengthAdjust="spacing" textLength="110.2144" x="617.2555" y="966.9497">&#35299;&#26512; JWT&#65292;&#25552;&#21462; jti</text></g><g class="message" data-participant-1="API" data-participant-2="Redis"><polygon fill="#454645" points="842.4611,1010.1484,852.4611,1014.1484,842.4611,1018.1484,846.4611,1014.1484" style="stroke:#454645;stroke-width:1;"/><line style="stroke:#454645;stroke-width:1;" x1="610.2555" x2="848.4611" y1="1014.1484" y2="1014.1484"/><text fill="#000000" font-family="sans-serif" font-size="13" lengthAdjust="spacing" textLength="100.3374" x="617.2555" y="1009.0825">EXISTS jti:&lt;jti&gt;</text></g><g class="message" data-participant-1="Redis" data-participant-2="API"><polygon fill="#454645" points="621.2555,1042.2813,611.2555,1046.2813,621.2555,1050.2813,617.2555,1046.2813" style="stroke:#454645;stroke-width:1;"/><line style="stroke:#454645;stroke-width:1;stroke-dasharray:2.0,2.0;" x1="615.2555" x2="853.4611" y1="1046.2813" y2="1046.2813"/><text fill="#000000" font-family="sans-serif" font-size="13" lengthAdjust="spacing" textLength="38.4034" x="627.2555" y="1041.2153">&#36820;&#22238; 1</text></g><path d="M859,1030.6484 L859,1048.6484 A3.5,3.5 0 0 0 862.5,1052.1484 L1019.5,1052.1484 A3.5,3.5 0 0 0 1023,1048.6484 L1023,1037.1484 L1013,1027.1484 L862.5,1027.1484 A3.5,3.5 0 0 0 859,1030.6484" fill="#90EE90" style="stroke:#454645;stroke-width:1;"/><path d="M1013,1027.1484 L1013,1035.3984 A1.75,1.75 0 0 0 1014.75,1037.1484 L1023,1037.1484 L1013,1027.1484" fill="#90EE90" style="stroke:#454645;stroke-width:1;"/><text fill="#454645" font-family="sans-serif" font-size="13" lengthAdjust="spacing" textLength="143.0002" x="865" y="1044.2153">&#20196;&#29260;&#26080;&#25928;&#65288;&#23384;&#22312;&#40657;&#21517;&#21333;&#65289;</text><g class="message" data-participant-1="API" data-participant-2="Frontend"><polygon fill="#454645" points="228.7613,1074.4141,218.7613,1078.4141,228.7613,1082.4141,224.7613,1078.4141" style="stroke:#454645;stroke-width:1;"/><line style="stroke:#454645;stroke-width:1;stroke-dasharray:2.0,2.0;" x1="222.7613" x2="609.2555" y1="1078.4141" y2="1078.4141"/><text fill="#000000" font-family="sans-serif" font-size="13" lengthAdjust="spacing" textLength="116.2256" x="234.7613" y="1073.3481">401 Unauthorized</text></g><g class="message" data-participant-1="Frontend" data-participant-2="User"><polygon fill="#454645" points="32.9999,1103.5469,22.9999,1107.5469,32.9999,1111.5469,28.9999,1107.5469" style="stroke:#454645;stroke-width:1;"/><line style="stroke:#454645;stroke-width:1;stroke-dasharray:2.0,2.0;" x1="26.9999" x2="216.7613" y1="1107.5469" y2="1107.5469"/><text fill="#000000" font-family="sans-serif" font-size="13" lengthAdjust="spacing" textLength="78.0001" x="38.9999" y="1102.481">&#25552;&#31034;&#37325;&#26032;&#30331;&#24405;</text></g><!--SRC=[hLHTJzDG6Bu_l-ALAqqa3EDLmvQWeg8N40VHsyFMG0NQfJsBNp4H8h2HDKpP6CJ9c0wPe8p4gB01-pCxfziLVy7JddMaK3Gnt3JhtkVzUfxdxHKo8K_BGBGN21cJYXh3Efw6CHoP7DUrk1gzhKrfEX0TgmOFoIf1A1W4ArDcYT_MMeqUPI4OH0X728U9lm4RC6h8Ek89H8aeCQmIwA99qzgfq6g6Wxfio5rTKuciHhsm_k51O7cJBXOT47_rnbbsZvcxjBhiXEzWWiUm8NinZ-IeOZXnvnT2zZJG7UgqbA1vl4pdDiMyD6tsqCgyjJ533twnfNIZMa8kqixYCqWmF1GUWPufRLnHuLMSrrFnj7mTOjWmdcbwz3Mo1-TWTo89M66pMVaaMZJgHJPJEJbCi8rYQpibkfqS9f4BXswtKREUeH_MHPfOjfF64ccwMB3JsisS12jJu05uy7Y40sbw1vuI1UZx5CZFOnsiP_aRWG0CFUHeqKka9Zqxsupnqex0Rji4_RvAPyikt8_LtNehjqkNSetwHxPOQlvyowhfyrpU6-1KwhAXnVM835VlopXgT-kFambDLrvYecYg1BTaxZST-dYxq3NFnisjpsozlN6A2qQNLkobNOmZkWG3JmR38s4x8FNnHmWX9t2MQGWWLICowChu196WKIjPoHJB9rasOHEVtwRvSglsZfk4cbc-DroajDXMI7QXhktmFpKHnRogT6HXgyTMgTfcz_GSsOzoA_F6FiVpobYp1tIX9X1_CRSM9vUdXsl2Cxg4kVeTKQ2NwmHzDFcrSRGcM6VvGkYiL6pPR1pbXH4l9C_7m6n_hhLMEfsCqoOuQ9VoOOhEc-nRKJZPLI71qbMw_uNbjlnkvJyytQvqERxsjtMldwrp6yBMzYNxsjf3nSr0BuogkBs27FNreaDgQy5aAtlYS_47]--></g></svg>