<svg xmlns="http://www.w3.org/2000/svg" xmlns:xlink="http://www.w3.org/1999/xlink" contentStyleType="text/css" data-diagram-type="SEQUENCE" height="1403px" preserveAspectRatio="none" style="width:1046px;height:1403px;" version="1.1" viewBox="0 0 1046 1403" width="1046px" zoomAndPan="magnify"><defs/><g><rect fill="none" height="265" rx="3.5" ry="3.5" style="stroke:#454645;stroke-width:1;" width="899.8762" x="10" y="552.1563"/><g><title>&#29992;&#25143;</title><rect fill="#000000" fill-opacity="0.00000" height="1241.8516" width="8" x="32.9999" y="81.2969"/><line style="stroke:#454645;stroke-width:0.5;stroke-dasharray:5.0,5.0;" x1="36" x2="36" y1="81.2969" y2="1323.1484"/></g><g><title>&#21069;&#31471;&#24212;&#29992;</title><rect fill="#000000" fill-opacity="0.00000" height="1241.8516" width="8" x="228.7613" y="81.2969"/><line style="stroke:#454645;stroke-width:0.5;stroke-dasharray:5.0,5.0;" x1="231.7615" x2="231.7615" y1="81.2969" y2="1323.1484"/></g><g><title>API &#26381;&#21153;</title><rect fill="#000000" fill-opacity="0.00000" height="1241.8516" width="8" x="617.1232" y="81.2969"/><line style="stroke:#454645;stroke-width:0.5;stroke-dasharray:5.0,5.0;" x1="620.8239" x2="620.8239" y1="81.2969" y2="1323.1484"/></g><g><title>&#25968;&#25454;&#24211;</title><rect fill="#000000" fill-opacity="0.00000" height="1241.8516" width="8" x="797.1233" y="81.2969"/><line style="stroke:#454645;stroke-width:0.5;stroke-dasharray:5.0,5.0;" x1="800.1234" x2="800.1234" y1="81.2969" y2="1323.1484"/></g><g><title>Redis</title><rect fill="#000000" fill-opacity="0.00000" height="1241.8516" width="8" x="869.6706" y="81.2969"/><line style="stroke:#454645;stroke-width:0.5;stroke-dasharray:5.0,5.0;" x1="873.465" x2="873.465" y1="81.2969" y2="1323.1484"/></g><g class="participant participant-head" data-participant="User"><text fill="#454645" font-family="sans-serif" font-size="14" lengthAdjust="spacing" textLength="27.9999" x="20" y="77.9951">&#29992;&#25143;</text><ellipse cx="36.9999" cy="13.5" fill="#454645" rx="8" ry="8" style="stroke:#454645;stroke-width:0.5;"/><path d="M36.9999,21.5 L36.9999,48.5 M23.9999,29.5 L49.9999,29.5 M36.9999,48.5 L23.9999,63.5 M36.9999,48.5 L49.9999,63.5" fill="none" style="stroke:#454645;stroke-width:0.5;"/></g><g class="participant participant-tail" data-participant="User"><text fill="#454645" font-family="sans-serif" font-size="14" lengthAdjust="spacing" textLength="27.9999" x="20" y="1335.1436">&#29992;&#25143;</text><ellipse cx="36.9999" cy="1346.9453" fill="#454645" rx="8" ry="8" style="stroke:#454645;stroke-width:0.5;"/><path d="M36.9999,1354.9453 L36.9999,1381.9453 M23.9999,1362.9453 L49.9999,1362.9453 M36.9999,1381.9453 L23.9999,1396.9453 M36.9999,1381.9453 L49.9999,1396.9453" fill="none" style="stroke:#454645;stroke-width:0.5;"/></g><g class="participant participant-head" data-participant="Frontend"><rect fill="#FF6F61" height="30.2969" rx="3.5" ry="3.5" style="stroke:#454645;stroke-width:1.5;" width="69.9998" x="197.7615" y="50"/><text fill="#FFFFFF" font-family="sans-serif" font-size="14" lengthAdjust="spacing" textLength="55.9998" x="204.7615" y="69.9951">&#21069;&#31471;&#24212;&#29992;</text></g><g class="participant participant-tail" data-participant="Frontend"><rect fill="#FF6F61" height="30.2969" rx="3.5" ry="3.5" style="stroke:#454645;stroke-width:1.5;" width="69.9998" x="197.7615" y="1322.1484"/><text fill="#FFFFFF" font-family="sans-serif" font-size="14" lengthAdjust="spacing" textLength="55.9998" x="204.7615" y="1342.1436">&#21069;&#31471;&#24212;&#29992;</text></g><g class="participant participant-head" data-participant="API"><rect fill="#FF6F61" height="30.2969" rx="3.5" ry="3.5" style="stroke:#454645;stroke-width:1.5;" width="68.5985" x="586.8239" y="50"/><text fill="#FFFFFF" font-family="sans-serif" font-size="14" lengthAdjust="spacing" textLength="54.5985" x="593.8239" y="69.9951">API &#26381;&#21153;</text></g><g class="participant participant-tail" data-participant="API"><rect fill="#FF6F61" height="30.2969" rx="3.5" ry="3.5" style="stroke:#454645;stroke-width:1.5;" width="68.5985" x="586.8239" y="1322.1484"/><text fill="#FFFFFF" font-family="sans-serif" font-size="14" lengthAdjust="spacing" textLength="54.5985" x="593.8239" y="1342.1436">API &#26381;&#21153;</text></g><g class="participant participant-head" data-participant="Database"><rect fill="#FF6F61" height="30.2969" rx="3.5" ry="3.5" style="stroke:#454645;stroke-width:1.5;" width="55.9998" x="773.1234" y="50"/><text fill="#FFFFFF" font-family="sans-serif" font-size="14" lengthAdjust="spacing" textLength="41.9998" x="780.1234" y="69.9951">&#25968;&#25454;&#24211;</text></g><g class="participant participant-tail" data-participant="Database"><rect fill="#FF6F61" height="30.2969" rx="3.5" ry="3.5" style="stroke:#454645;stroke-width:1.5;" width="55.9998" x="773.1234" y="1322.1484"/><text fill="#FFFFFF" font-family="sans-serif" font-size="14" lengthAdjust="spacing" textLength="41.9998" x="780.1234" y="1342.1436">&#25968;&#25454;&#24211;</text></g><g class="participant participant-head" data-participant="Redis"><rect fill="#FF6F61" height="30.2969" rx="3.5" ry="3.5" style="stroke:#454645;stroke-width:1.5;" width="52.4111" x="847.465" y="50"/><text fill="#FFFFFF" font-family="sans-serif" font-size="14" lengthAdjust="spacing" textLength="38.4111" x="854.465" y="69.9951">Redis</text></g><g class="participant participant-tail" data-participant="Redis"><rect fill="#FF6F61" height="30.2969" rx="3.5" ry="3.5" style="stroke:#454645;stroke-width:1.5;" width="52.4111" x="847.465" y="1322.1484"/><text fill="#FFFFFF" font-family="sans-serif" font-size="14" lengthAdjust="spacing" textLength="38.4111" x="854.465" y="1342.1436">Redis</text></g><rect fill="#EEEEEE" height="3" rx="3.5" ry="3.5" style="stroke:#EEEEEE;stroke-width:1;" width="1039.6707" x="0" y="111.8633"/><line style="stroke:#454645;stroke-width:0.5;" x1="0" x2="1039.6707" y1="111.8633" y2="111.8633"/><line style="stroke:#454645;stroke-width:0.5;" x1="0" x2="1039.6707" y1="114.8633" y2="114.8633"/><rect fill="#EEEEEE" height="23.1328" rx="3.5" ry="3.5" style="stroke:#454645;stroke-width:1;" width="70.5259" x="484.5724" y="101.2969"/><text fill="#454645" font-family="sans-serif" font-size="13" font-weight="bold" lengthAdjust="spacing" textLength="52.0001" x="490.5724" y="117.3638">&#29992;&#25143;&#30331;&#24405;</text><g class="message" data-participant-1="User" data-participant-2="Frontend"><polygon fill="#454645" points="220.7613,151.5625,230.7613,155.5625,220.7613,159.5625,224.7613,155.5625" style="stroke:#454645;stroke-width:1;"/><line style="stroke:#454645;stroke-width:1;" x1="36.9999" x2="226.7613" y1="155.5625" y2="155.5625"/><text fill="#000000" font-family="sans-serif" font-size="13" lengthAdjust="spacing" textLength="134.38" x="43.9999" y="150.4966">&#36755;&#20837;&#29992;&#25143;&#21517;/&#23494;&#30721;&#24182;&#25552;&#20132;</text></g><g class="message" data-participant-1="Frontend" data-participant-2="API"><polygon fill="#454645" points="609.1232,180.6953,619.1232,184.6953,609.1232,188.6953,613.1232,184.6953" style="stroke:#454645;stroke-width:1;"/><line style="stroke:#454645;stroke-width:1;" x1="232.7613" x2="615.1232" y1="184.6953" y2="184.6953"/><text fill="#000000" font-family="sans-serif" font-size="13" lengthAdjust="spacing" textLength="230.5532" x="239.7613" y="179.6294">POST /login {username, password}</text></g><g class="message" data-participant-1="API" data-participant-2="Database"><polygon fill="#454645" points="789.1233,209.8281,799.1233,213.8281,789.1233,217.8281,793.1233,213.8281" style="stroke:#454645;stroke-width:1;"/><line style="stroke:#454645;stroke-width:1;" x1="621.1232" x2="795.1233" y1="213.8281" y2="213.8281"/><text fill="#000000" font-family="sans-serif" font-size="13" lengthAdjust="spacing" textLength="156.0002" x="628.1232" y="208.7622">&#26597;&#35810;&#29992;&#25143;&#20449;&#24687;&#65288;&#26657;&#39564;&#23494;&#30721;&#65289;</text></g><g class="message" data-participant-1="Database" data-participant-2="API"><polygon fill="#454645" points="632.1232,238.9609,622.1232,242.9609,632.1232,246.9609,628.1232,242.9609" style="stroke:#454645;stroke-width:1;"/><line style="stroke:#454645;stroke-width:1;stroke-dasharray:2.0,2.0;" x1="626.1232" x2="800.1233" y1="242.9609" y2="242.9609"/><text fill="#000000" font-family="sans-serif" font-size="13" lengthAdjust="spacing" textLength="156.0002" x="638.1232" y="237.895">&#36820;&#22238;&#29992;&#25143;&#25968;&#25454;&#65288;&#26657;&#39564;&#25104;&#21151;&#65289;</text></g><g class="message" data-participant-1="API" data-participant-2="API"><line style="stroke:#454645;stroke-width:1;" x1="621.1232" x2="663.1232" y1="272.0938" y2="272.0938"/><line style="stroke:#454645;stroke-width:1;" x1="663.1232" x2="663.1232" y1="272.0938" y2="285.0938"/><line style="stroke:#454645;stroke-width:1;" x1="622.1232" x2="663.1232" y1="285.0938" y2="285.0938"/><polygon fill="#454645" points="632.1232,281.0938,622.1232,285.0938,632.1232,289.0938,628.1232,285.0938" style="stroke:#454645;stroke-width:1;"/><text fill="#000000" font-family="sans-serif" font-size="13" lengthAdjust="spacing" textLength="155.4225" x="628.1232" y="267.0278">&#29983;&#25104; JWT&#65288;&#21547; jti &#21644; exp&#65289;</text></g><g class="message" data-participant-1="API" data-participant-2="Redis"><polygon fill="#454645" points="861.6706,313.2266,871.6706,317.2266,861.6706,321.2266,865.6706,317.2266" style="stroke:#454645;stroke-width:1;"/><line style="stroke:#454645;stroke-width:1;" x1="621.1232" x2="867.6706" y1="317.2266" y2="317.2266"/><text fill="#000000" font-family="sans-serif" font-size="13" lengthAdjust="spacing" textLength="228.5474" x="628.1232" y="312.1606">SET jti:&lt;jti&gt; 1 EX &lt;JWT&#21097;&#20313;&#26377;&#25928;&#26399;&gt;</text></g><path d="M878,301.5938 L878,319.5938 A3.5,3.5 0 0 0 881.5,323.0938 L1012.5,323.0938 A3.5,3.5 0 0 0 1016,319.5938 L1016,308.0938 L1006,298.0938 L881.5,298.0938 A3.5,3.5 0 0 0 878,301.5938" fill="#90EE90" style="stroke:#454645;stroke-width:1;"/><path d="M1006,298.0938 L1006,306.3438 A1.75,1.75 0 0 0 1007.75,308.0938 L1016,308.0938 L1006,298.0938" fill="#90EE90" style="stroke:#454645;stroke-width:1;"/><text fill="#454645" font-family="sans-serif" font-size="13" lengthAdjust="spacing" textLength="117.0001" x="884" y="315.1606">&#30331;&#24405;&#26102;&#23384;&#20648;&#21040;&#30333;&#21517;&#21333;</text><g class="message" data-participant-1="Redis" data-participant-2="API"><polygon fill="#454645" points="632.1232,345.3594,622.1232,349.3594,632.1232,353.3594,628.1232,349.3594" style="stroke:#454645;stroke-width:1;"/><line style="stroke:#454645;stroke-width:1;stroke-dasharray:2.0,2.0;" x1="626.1232" x2="872.6706" y1="349.3594" y2="349.3594"/><text fill="#000000" font-family="sans-serif" font-size="13" lengthAdjust="spacing" textLength="52.0001" x="638.1232" y="344.2935">&#25805;&#20316;&#25104;&#21151;</text></g><g class="message" data-participant-1="API" data-participant-2="Frontend"><polygon fill="#454645" points="243.7613,374.4922,233.7613,378.4922,243.7613,382.4922,239.7613,378.4922" style="stroke:#454645;stroke-width:1;"/><line style="stroke:#454645;stroke-width:1;stroke-dasharray:2.0,2.0;" x1="237.7613" x2="620.1232" y1="378.4922" y2="378.4922"/><text fill="#000000" font-family="sans-serif" font-size="13" lengthAdjust="spacing" textLength="128.4639" x="249.7613" y="373.4263">200 OK&#65288;&#36820;&#22238; JWT&#65289;</text></g><g class="message" data-participant-1="Frontend" data-participant-2="User"><polygon fill="#454645" points="47.9999,403.625,37.9999,407.625,47.9999,411.625,43.9999,407.625" style="stroke:#454645;stroke-width:1;"/><line style="stroke:#454645;stroke-width:1;" x1="41.9999" x2="231.7613" y1="407.625" y2="407.625"/><text fill="#000000" font-family="sans-serif" font-size="13" lengthAdjust="spacing" textLength="132.7614" x="53.9999" y="402.5591">&#30331;&#24405;&#25104;&#21151;&#65288;&#23384;&#20648; JWT&#65289;</text></g><g class="message" data-participant-1="User" data-participant-2="Frontend"><polygon fill="#454645" points="220.7613,432.7578,230.7613,436.7578,220.7613,440.7578,224.7613,436.7578" style="stroke:#454645;stroke-width:1;"/><line style="stroke:#454645;stroke-width:1;" x1="36.9999" x2="226.7613" y1="436.7578" y2="436.7578"/><text fill="#000000" font-family="sans-serif" font-size="13" lengthAdjust="spacing" textLength="91.0001" x="43.9999" y="431.6919">&#35775;&#38382;&#21463;&#20445;&#25252;&#36164;&#28304;</text></g><g class="message" data-participant-1="Frontend" data-participant-2="API"><polygon fill="#454645" points="609.1232,461.8906,619.1232,465.8906,609.1232,469.8906,613.1232,465.8906" style="stroke:#454645;stroke-width:1;"/><line style="stroke:#454645;stroke-width:1;" x1="232.7613" x2="615.1232" y1="465.8906" y2="465.8906"/><text fill="#000000" font-family="sans-serif" font-size="13" lengthAdjust="spacing" textLength="351.3618" x="239.7613" y="460.8247">GET /resource (Header: Authorization: Bearer &lt;JWT&gt;)</text></g><g class="message" data-participant-1="API" data-participant-2="API"><line style="stroke:#454645;stroke-width:1;" x1="621.1232" x2="663.1232" y1="495.0234" y2="495.0234"/><line style="stroke:#454645;stroke-width:1;" x1="663.1232" x2="663.1232" y1="495.0234" y2="508.0234"/><line style="stroke:#454645;stroke-width:1;" x1="622.1232" x2="663.1232" y1="508.0234" y2="508.0234"/><polygon fill="#454645" points="632.1232,504.0234,622.1232,508.0234,632.1232,512.0234,628.1232,508.0234" style="stroke:#454645;stroke-width:1;"/><text fill="#000000" font-family="sans-serif" font-size="13" lengthAdjust="spacing" textLength="110.2144" x="628.1232" y="489.9575">&#35299;&#26512; JWT&#65292;&#25552;&#21462; jti</text></g><g class="message" data-participant-1="API" data-participant-2="Redis"><polygon fill="#454645" points="861.6706,533.1563,871.6706,537.1563,861.6706,541.1563,865.6706,537.1563" style="stroke:#454645;stroke-width:1;"/><line style="stroke:#454645;stroke-width:1;" x1="621.1232" x2="867.6706" y1="537.1563" y2="537.1563"/><text fill="#000000" font-family="sans-serif" font-size="13" lengthAdjust="spacing" textLength="100.3374" x="628.1232" y="532.0903">EXISTS jti:&lt;jti&gt;</text></g><path d="M13.5,552.1563 L74.4429,552.1563 L74.4429,559.2891 L64.4429,569.2891 L10,569.2891 L10,555.6563 A3.5,3.5 0 0 1 13.5,552.1563" fill="#EEEEEE" style="stroke:#454645;stroke-width:1.5;"/><rect fill="none" height="265" rx="3.5" ry="3.5" style="stroke:#454645;stroke-width:1;" width="899.8762" x="10" y="552.1563"/><text fill="#454645" font-family="sans-serif" font-size="13" font-weight="bold" lengthAdjust="spacing" textLength="19.4429" x="25" y="565.2231">alt</text><text fill="#454645" font-family="sans-serif" font-size="11" font-weight="bold" lengthAdjust="spacing" textLength="131.0538" x="89.4429" y="564.3667">[&#20196;&#29260;&#22312;&#30333;&#21517;&#21333;&#20013;&#65288;&#23384;&#22312;&#65289;]</text><g class="message" data-participant-1="Redis" data-participant-2="API"><polygon fill="#454645" points="632.1232,586.4219,622.1232,590.4219,632.1232,594.4219,628.1232,590.4219" style="stroke:#454645;stroke-width:1;"/><line style="stroke:#454645;stroke-width:1;stroke-dasharray:2.0,2.0;" x1="626.1232" x2="872.6706" y1="590.4219" y2="590.4219"/><text fill="#000000" font-family="sans-serif" font-size="13" lengthAdjust="spacing" textLength="90.4034" x="638.1232" y="585.356">&#36820;&#22238; 1&#65288;&#23384;&#22312;&#65289;</text></g><g class="message" data-participant-1="API" data-participant-2="Database"><polygon fill="#454645" points="789.1233,615.5547,799.1233,619.5547,789.1233,623.5547,793.1233,619.5547" style="stroke:#454645;stroke-width:1;"/><line style="stroke:#454645;stroke-width:1;" x1="621.1232" x2="795.1233" y1="619.5547" y2="619.5547"/><text fill="#000000" font-family="sans-serif" font-size="13" lengthAdjust="spacing" textLength="78.0001" x="628.1232" y="614.4888">&#26597;&#35810;&#36164;&#28304;&#25968;&#25454;</text></g><g class="message" data-participant-1="Database" data-participant-2="API"><polygon fill="#454645" points="632.1232,644.6875,622.1232,648.6875,632.1232,652.6875,628.1232,648.6875" style="stroke:#454645;stroke-width:1;"/><line style="stroke:#454645;stroke-width:1;stroke-dasharray:2.0,2.0;" x1="626.1232" x2="800.1233" y1="648.6875" y2="648.6875"/><text fill="#000000" font-family="sans-serif" font-size="13" lengthAdjust="spacing" textLength="52.0001" x="638.1232" y="643.6216">&#36820;&#22238;&#25968;&#25454;</text></g><g class="message" data-participant-1="API" data-participant-2="Frontend"><polygon fill="#454645" points="243.7613,673.8203,233.7613,677.8203,243.7613,681.8203,239.7613,677.8203" style="stroke:#454645;stroke-width:1;"/><line style="stroke:#454645;stroke-width:1;stroke-dasharray:2.0,2.0;" x1="237.7613" x2="620.1232" y1="677.8203" y2="677.8203"/><text fill="#000000" font-family="sans-serif" font-size="13" lengthAdjust="spacing" textLength="125.7027" x="249.7613" y="672.7544">200 OK&#65288;&#36820;&#22238;&#36164;&#28304;&#65289;</text></g><g class="message" data-participant-1="Frontend" data-participant-2="User"><polygon fill="#454645" points="47.9999,702.9531,37.9999,706.9531,47.9999,710.9531,43.9999,706.9531" style="stroke:#454645;stroke-width:1;"/><line style="stroke:#454645;stroke-width:1;stroke-dasharray:2.0,2.0;" x1="41.9999" x2="231.7613" y1="706.9531" y2="706.9531"/><text fill="#000000" font-family="sans-serif" font-size="13" lengthAdjust="spacing" textLength="52.0001" x="53.9999" y="701.8872">&#26174;&#31034;&#36164;&#28304;</text></g><line style="stroke:#454645;stroke-width:1;stroke-dasharray:2.0,2.0;" x1="10" x2="909.8762" y1="715.9531" y2="715.9531"/><text fill="#454645" font-family="sans-serif" font-size="11" font-weight="bold" lengthAdjust="spacing" textLength="109.054" x="15" y="726.1636">[&#20196;&#29260;&#26080;&#25928;&#65288;&#19981;&#23384;&#22312;&#65289;]</text><g class="message" data-participant-1="Redis" data-participant-2="API"><polygon fill="#454645" points="632.1232,746.8906,622.1232,750.8906,632.1232,754.8906,628.1232,750.8906" style="stroke:#454645;stroke-width:1;"/><line style="stroke:#454645;stroke-width:1;stroke-dasharray:2.0,2.0;" x1="626.1232" x2="872.6706" y1="750.8906" y2="750.8906"/><text fill="#000000" font-family="sans-serif" font-size="13" lengthAdjust="spacing" textLength="103.4034" x="638.1232" y="745.8247">&#36820;&#22238; 0&#65288;&#19981;&#23384;&#22312;&#65289;</text></g><g class="message" data-participant-1="API" data-participant-2="Frontend"><polygon fill="#454645" points="243.7613,776.0234,233.7613,780.0234,243.7613,784.0234,239.7613,780.0234" style="stroke:#454645;stroke-width:1;"/><line style="stroke:#454645;stroke-width:1;stroke-dasharray:2.0,2.0;" x1="237.7613" x2="620.1232" y1="780.0234" y2="780.0234"/><text fill="#000000" font-family="sans-serif" font-size="13" lengthAdjust="spacing" textLength="116.2256" x="249.7613" y="774.9575">401 Unauthorized</text></g><g class="message" data-participant-1="Frontend" data-participant-2="User"><polygon fill="#454645" points="47.9999,805.1563,37.9999,809.1563,47.9999,813.1563,43.9999,809.1563" style="stroke:#454645;stroke-width:1;"/><line style="stroke:#454645;stroke-width:1;stroke-dasharray:2.0,2.0;" x1="41.9999" x2="231.7613" y1="809.1563" y2="809.1563"/><text fill="#000000" font-family="sans-serif" font-size="13" lengthAdjust="spacing" textLength="78.0001" x="53.9999" y="804.0903">&#25552;&#31034;&#37325;&#26032;&#30331;&#24405;</text></g><rect fill="#EEEEEE" height="3" rx="3.5" ry="3.5" style="stroke:#EEEEEE;stroke-width:1;" width="1039.6707" x="0" y="844.7227"/><line style="stroke:#454645;stroke-width:0.5;" x1="0" x2="1039.6707" y1="844.7227" y2="844.7227"/><line style="stroke:#454645;stroke-width:0.5;" x1="0" x2="1039.6707" y1="847.7227" y2="847.7227"/><rect fill="#EEEEEE" height="23.1328" rx="3.5" ry="3.5" style="stroke:#454645;stroke-width:1;" width="70.5259" x="484.5724" y="834.1563"/><text fill="#454645" font-family="sans-serif" font-size="13" font-weight="bold" lengthAdjust="spacing" textLength="52.0001" x="490.5724" y="850.2231">&#29992;&#25143;&#27880;&#38144;</text><g class="message" data-participant-1="User" data-participant-2="Frontend"><polygon fill="#454645" points="220.7613,884.4219,230.7613,888.4219,220.7613,892.4219,224.7613,888.4219" style="stroke:#454645;stroke-width:1;"/><line style="stroke:#454645;stroke-width:1;" x1="36.9999" x2="226.7613" y1="888.4219" y2="888.4219"/><text fill="#000000" font-family="sans-serif" font-size="13" lengthAdjust="spacing" textLength="52.0001" x="43.9999" y="883.356">&#28857;&#20987;&#27880;&#38144;</text></g><g class="message" data-participant-1="Frontend" data-participant-2="API"><polygon fill="#454645" points="609.1232,913.5547,619.1232,917.5547,609.1232,921.5547,613.1232,917.5547" style="stroke:#454645;stroke-width:1;"/><line style="stroke:#454645;stroke-width:1;" x1="232.7613" x2="615.1232" y1="917.5547" y2="917.5547"/><text fill="#000000" font-family="sans-serif" font-size="13" lengthAdjust="spacing" textLength="343.7065" x="239.7613" y="912.4888">POST /logout (Header: Authorization: Bearer &lt;JWT&gt;)</text></g><g class="message" data-participant-1="API" data-participant-2="API"><line style="stroke:#454645;stroke-width:1;" x1="621.1232" x2="663.1232" y1="946.6875" y2="946.6875"/><line style="stroke:#454645;stroke-width:1;" x1="663.1232" x2="663.1232" y1="946.6875" y2="959.6875"/><line style="stroke:#454645;stroke-width:1;" x1="622.1232" x2="663.1232" y1="959.6875" y2="959.6875"/><polygon fill="#454645" points="632.1232,955.6875,622.1232,959.6875,632.1232,963.6875,628.1232,959.6875" style="stroke:#454645;stroke-width:1;"/><text fill="#000000" font-family="sans-serif" font-size="13" lengthAdjust="spacing" textLength="110.2144" x="628.1232" y="941.6216">&#35299;&#26512; JWT&#65292;&#25552;&#21462; jti</text></g><g class="message" data-participant-1="API" data-participant-2="Redis"><polygon fill="#454645" points="861.6706,987.8203,871.6706,991.8203,861.6706,995.8203,865.6706,991.8203" style="stroke:#454645;stroke-width:1;"/><line style="stroke:#454645;stroke-width:1;" x1="621.1232" x2="867.6706" y1="991.8203" y2="991.8203"/><text fill="#000000" font-family="sans-serif" font-size="13" lengthAdjust="spacing" textLength="80.4058" x="628.1232" y="986.7544">DEL jti:&lt;jti&gt;</text></g><path d="M878,976.1875 L878,994.1875 A3.5,3.5 0 0 0 881.5,997.6875 L1025.5,997.6875 A3.5,3.5 0 0 0 1029,994.1875 L1029,982.6875 L1019,972.6875 L881.5,972.6875 A3.5,3.5 0 0 0 878,976.1875" fill="#90EE90" style="stroke:#454645;stroke-width:1;"/><path d="M1019,972.6875 L1019,980.9375 A1.75,1.75 0 0 0 1020.75,982.6875 L1029,982.6875 L1019,972.6875" fill="#90EE90" style="stroke:#454645;stroke-width:1;"/><text fill="#454645" font-family="sans-serif" font-size="13" lengthAdjust="spacing" textLength="130.0002" x="884" y="989.7544">&#27880;&#38144;&#26102;&#21024;&#38500;&#30333;&#21517;&#21333;&#26465;&#30446;</text><g class="message" data-participant-1="Redis" data-participant-2="API"><polygon fill="#454645" points="632.1232,1019.9531,622.1232,1023.9531,632.1232,1027.9531,628.1232,1023.9531" style="stroke:#454645;stroke-width:1;"/><line style="stroke:#454645;stroke-width:1;stroke-dasharray:2.0,2.0;" x1="626.1232" x2="872.6706" y1="1023.9531" y2="1023.9531"/><text fill="#000000" font-family="sans-serif" font-size="13" lengthAdjust="spacing" textLength="52.0001" x="638.1232" y="1018.8872">&#25805;&#20316;&#25104;&#21151;</text></g><g class="message" data-participant-1="API" data-participant-2="Frontend"><polygon fill="#454645" points="243.7613,1049.0859,233.7613,1053.0859,243.7613,1057.0859,239.7613,1053.0859" style="stroke:#454645;stroke-width:1;"/><line style="stroke:#454645;stroke-width:1;stroke-dasharray:2.0,2.0;" x1="237.7613" x2="620.1232" y1="1053.0859" y2="1053.0859"/><text fill="#000000" font-family="sans-serif" font-size="13" lengthAdjust="spacing" textLength="47.7026" x="249.7613" y="1048.02">200 OK</text></g><g class="message" data-participant-1="Frontend" data-participant-2="User"><polygon fill="#454645" points="47.9999,1078.2188,37.9999,1082.2188,47.9999,1086.2188,43.9999,1082.2188" style="stroke:#454645;stroke-width:1;"/><line style="stroke:#454645;stroke-width:1;" x1="41.9999" x2="231.7613" y1="1082.2188" y2="1082.2188"/><text fill="#000000" font-family="sans-serif" font-size="13" lengthAdjust="spacing" textLength="171.7614" x="53.9999" y="1077.1528">&#28165;&#38500;&#26412;&#22320; JWT&#65292;&#25552;&#31034;&#27880;&#38144;&#25104;&#21151;</text></g><g class="message" data-participant-1="User" data-participant-2="Frontend"><polygon fill="#454645" points="220.7613,1107.3516,230.7613,1111.3516,220.7613,1115.3516,224.7613,1111.3516" style="stroke:#454645;stroke-width:1;"/><line style="stroke:#454645;stroke-width:1;" x1="36.9999" x2="226.7613" y1="1111.3516" y2="1111.3516"/><text fill="#000000" font-family="sans-serif" font-size="13" lengthAdjust="spacing" textLength="171.7614" x="43.9999" y="1106.2856">&#20877;&#27425;&#35775;&#38382;&#36164;&#28304;&#65288;&#25658;&#24102;&#26087; JWT&#65289;</text></g><g class="message" data-participant-1="Frontend" data-participant-2="API"><polygon fill="#454645" points="609.1232,1136.4844,619.1232,1140.4844,609.1232,1144.4844,613.1232,1140.4844" style="stroke:#454645;stroke-width:1;"/><line style="stroke:#454645;stroke-width:1;" x1="232.7613" x2="615.1232" y1="1140.4844" y2="1140.4844"/><text fill="#000000" font-family="sans-serif" font-size="13" lengthAdjust="spacing" textLength="364.3618" x="239.7613" y="1135.4185">GET /resource (Header: Authorization: Bearer &lt;&#26087;JWT&gt;)</text></g><g class="message" data-participant-1="API" data-participant-2="API"><line style="stroke:#454645;stroke-width:1;" x1="621.1232" x2="663.1232" y1="1169.6172" y2="1169.6172"/><line style="stroke:#454645;stroke-width:1;" x1="663.1232" x2="663.1232" y1="1169.6172" y2="1182.6172"/><line style="stroke:#454645;stroke-width:1;" x1="622.1232" x2="663.1232" y1="1182.6172" y2="1182.6172"/><polygon fill="#454645" points="632.1232,1178.6172,622.1232,1182.6172,632.1232,1186.6172,628.1232,1182.6172" style="stroke:#454645;stroke-width:1;"/><text fill="#000000" font-family="sans-serif" font-size="13" lengthAdjust="spacing" textLength="110.2144" x="628.1232" y="1164.5513">&#35299;&#26512; JWT&#65292;&#25552;&#21462; jti</text></g><g class="message" data-participant-1="API" data-participant-2="Redis"><polygon fill="#454645" points="861.6706,1207.75,871.6706,1211.75,861.6706,1215.75,865.6706,1211.75" style="stroke:#454645;stroke-width:1;"/><line style="stroke:#454645;stroke-width:1;" x1="621.1232" x2="867.6706" y1="1211.75" y2="1211.75"/><text fill="#000000" font-family="sans-serif" font-size="13" lengthAdjust="spacing" textLength="100.3374" x="628.1232" y="1206.6841">EXISTS jti:&lt;jti&gt;</text></g><g class="message" data-participant-1="Redis" data-participant-2="API"><polygon fill="#454645" points="632.1232,1239.8828,622.1232,1243.8828,632.1232,1247.8828,628.1232,1243.8828" style="stroke:#454645;stroke-width:1;"/><line style="stroke:#454645;stroke-width:1;stroke-dasharray:2.0,2.0;" x1="626.1232" x2="872.6706" y1="1243.8828" y2="1243.8828"/><text fill="#000000" font-family="sans-serif" font-size="13" lengthAdjust="spacing" textLength="103.4034" x="638.1232" y="1238.8169">&#36820;&#22238; 0&#65288;&#19981;&#23384;&#22312;&#65289;</text></g><path d="M878,1228.25 L878,1246.25 A3.5,3.5 0 0 0 881.5,1249.75 L1012.5,1249.75 A3.5,3.5 0 0 0 1016,1246.25 L1016,1234.75 L1006,1224.75 L881.5,1224.75 A3.5,3.5 0 0 0 878,1228.25" fill="#90EE90" style="stroke:#454645;stroke-width:1;"/><path d="M1006,1224.75 L1006,1233 A1.75,1.75 0 0 0 1007.75,1234.75 L1016,1234.75 L1006,1224.75" fill="#90EE90" style="stroke:#454645;stroke-width:1;"/><text fill="#454645" font-family="sans-serif" font-size="13" lengthAdjust="spacing" textLength="117.0001" x="884" y="1241.8169">&#22240;&#24050;&#21024;&#38500;&#65292;&#20196;&#29260;&#22833;&#25928;</text><g class="message" data-participant-1="API" data-participant-2="Frontend"><polygon fill="#454645" points="243.7613,1272.0156,233.7613,1276.0156,243.7613,1280.0156,239.7613,1276.0156" style="stroke:#454645;stroke-width:1;"/><line style="stroke:#454645;stroke-width:1;stroke-dasharray:2.0,2.0;" x1="237.7613" x2="620.1232" y1="1276.0156" y2="1276.0156"/><text fill="#000000" font-family="sans-serif" font-size="13" lengthAdjust="spacing" textLength="116.2256" x="249.7613" y="1270.9497">401 Unauthorized</text></g><g class="message" data-participant-1="Frontend" data-participant-2="User"><polygon fill="#454645" points="47.9999,1301.1484,37.9999,1305.1484,47.9999,1309.1484,43.9999,1305.1484" style="stroke:#454645;stroke-width:1;"/><line style="stroke:#454645;stroke-width:1;stroke-dasharray:2.0,2.0;" x1="41.9999" x2="231.7613" y1="1305.1484" y2="1305.1484"/><text fill="#000000" font-family="sans-serif" font-size="13" lengthAdjust="spacing" textLength="78.0001" x="53.9999" y="1300.0825">&#25552;&#31034;&#37325;&#26032;&#30331;&#24405;</text></g><!--SRC=[jLHTJnD157tVNt7bIHC9O7ngQ1EKggW9n4BaTQ4RM2cxP7SRls8YH61Bkg6HbjAmq5QBL86sQeHIllxCpcpxn5zmTcVx1KKRedqWBNFcddFFFNTkA9FSD0UA-9fXv2bUc64bTXh6sF6f2KaC2lxxOa2KG95OGIP7dA0mRZUOqInM3yp44Jg9WTlDiECA0T7_0Yl3YCn9384h_3W_mmeATA2GPkxaKIbAG1qMv84a2Wed-9jXVKC3W7KDBQLj4FdPV8vZ1QpbK6d5Fkvd5NQCbRbcp3FEpylskVsDOHXB3dHwQfmkA9-keFajAXX5j2wKNp1Ji-Xm7oz7Z5A6gIAjMqI42uO6VSFG5H0dU07U1aazWPtcRiCCAyilHSd_Zh6K4t1LaWjmSgkS_qGfZBCqdisV7wiubQvy2rEsy-CGKuL3PvMeV1P5wvlq6kssTWsh4RIKjAuvPFO5Cvea1_3u-J01eiWEl51uG1_3mBsQQS3QNhZ0vnss0AvUyiS3FU0TXLvo5OM-6YS9h8TmJCLwqiC8eiA1n4zCAk2YSyRnVRItXkQoI2sOYHFY6j9YZ5sshXwlQCQ9JeLIvYRRxtHtm-0JefDsIKM7cjosPaMQefHEmoebhi9RpJDtLeddq7BSEDl0Ivdohm-u5BaynOUa-ow9ayMWDCx1pKSSwxVO-eBAf2ZnRrY55mKNtED8q2NR5y-j9g_Bsv_nfkDrc4G5BQzQRbxms3iwu1lsrMrcs802nb7638MHdgrvPnJtdDRqhDKMaCy5EnsRUYxXhaWRxPl6niPTbQy6o5-dH8jMcUkUreQ5rqxDJCdnd0iGDjeiZgT8d4WTewYrqsPtA-XbUNUxUs14O9sPSVuhPIr7YApAeePN2pHFZFNUr9ul_3DRYRwtdg_BUJBd3j7Y4KNyuJ4GWyf_Ir6_zsd3fZOj9DLbBQIQgYGojKJXZRIvdhlMJhROGLoS9yMnlelqGbqiiTIXfmLRc8SMDBoRfYjP3O-A8oLK_8BZswsM_XhBIIhzi_riCuwD8q3hANJmW_fFk9pjpdmdWMVQY6nRSVqD]--></g></svg>