<svg xmlns="http://www.w3.org/2000/svg" xmlns:xlink="http://www.w3.org/1999/xlink" contentStyleType="text/css" data-diagram-type="SEQUENCE" height="415px" preserveAspectRatio="none" style="width:643px;height:415px;" version="1.1" viewBox="0 0 643 415" width="643px" zoomAndPan="magnify"><defs/><g><g><title>User</title><rect fill="#000000" fill-opacity="0.00000" height="260.4375" width="8" x="16.5361" y="77.8047"/><line style="stroke:#FF8800;stroke-width:0.5;stroke-dasharray:5.0,5.0;" x1="20" x2="20" y1="77.8047" y2="338.2422"/></g><g><title>Auth Service</title><rect fill="#000000" fill-opacity="0.00000" height="260.4375" width="8" x="196.8716" y="77.8047"/><line style="stroke:#FF8800;stroke-width:0.5;stroke-dasharray:5.0,5.0;" x1="199.9058" x2="199.9058" y1="77.8047" y2="338.2422"/></g><g><title>Service B</title><rect fill="#000000" fill-opacity="0.00000" height="260.4375" width="8" x="281.6859" y="77.8047"/><line style="stroke:#FF8800;stroke-width:0.5;stroke-dasharray:5.0,5.0;" x1="284.8375" x2="284.8375" y1="77.8047" y2="338.2422"/></g><g><title>Service C</title><rect fill="#000000" fill-opacity="0.00000" height="260.4375" width="8" x="460.6847" y="77.8047"/><line style="stroke:#FF8800;stroke-width:0.5;stroke-dasharray:5.0,5.0;" x1="463.7692" x2="463.7692" y1="77.8047" y2="338.2422"/></g><g class="participant participant-head" data-participant="User"><text fill="#000000" font-family="Verdana" font-size="11" lengthAdjust="spacing" textLength="25.0723" x="5" y="75.2104">User</text><ellipse cx="20.5361" cy="13.5" fill="#FF8800" rx="8" ry="8" style="stroke:#BB6600;stroke-width:0.5;"/><path d="M20.5361,21.5 L20.5361,48.5 M7.5361,29.5 L33.5361,29.5 M20.5361,48.5 L7.5361,63.5 M20.5361,48.5 L33.5361,63.5" fill="none" style="stroke:#BB6600;stroke-width:0.5;"/></g><g class="participant participant-tail" data-participant="User"><text fill="#000000" font-family="Verdana" font-size="11" lengthAdjust="spacing" textLength="25.0723" x="5" y="347.4526">User</text><ellipse cx="20.5361" cy="358.5469" fill="#FF8800" rx="8" ry="8" style="stroke:#BB6600;stroke-width:0.5;"/><path d="M20.5361,366.5469 L20.5361,393.5469 M7.5361,374.5469 L33.5361,374.5469 M20.5361,393.5469 L7.5361,408.5469 M20.5361,393.5469 L33.5361,408.5469" fill="none" style="stroke:#BB6600;stroke-width:0.5;"/></g><g class="participant participant-head" data-participant="Auth"><rect fill="#CCCCCC" height="26.8047" rx="2.5" ry="2.5" style="stroke:#AAAAAA;stroke-width:0.5;" width="83.9316" x="158.9058" y="50"/><text fill="#000000" font-family="Verdana" font-size="11" lengthAdjust="spacing" textLength="69.9316" x="165.9058" y="67.2104">Auth Service</text></g><g class="participant participant-tail" data-participant="Auth"><rect fill="#CCCCCC" height="26.8047" rx="2.5" ry="2.5" style="stroke:#AAAAAA;stroke-width:0.5;" width="83.9316" x="158.9058" y="337.2422"/><text fill="#000000" font-family="Verdana" font-size="11" lengthAdjust="spacing" textLength="69.9316" x="165.9058" y="354.4526">Auth Service</text></g><g class="participant participant-head" data-participant="B"><rect fill="#CCCCCC" height="26.8047" rx="2.5" ry="2.5" style="stroke:#AAAAAA;stroke-width:0.5;" width="65.6968" x="252.8375" y="50"/><text fill="#000000" font-family="Verdana" font-size="11" lengthAdjust="spacing" textLength="51.6968" x="259.8375" y="67.2104">Service B</text></g><g class="participant participant-tail" data-participant="B"><rect fill="#CCCCCC" height="26.8047" rx="2.5" ry="2.5" style="stroke:#AAAAAA;stroke-width:0.5;" width="65.6968" x="252.8375" y="337.2422"/><text fill="#000000" font-family="Verdana" font-size="11" lengthAdjust="spacing" textLength="51.6968" x="259.8375" y="354.4526">Service B</text></g><g class="participant participant-head" data-participant="C"><rect fill="#CCCCCC" height="26.8047" rx="2.5" ry="2.5" style="stroke:#AAAAAA;stroke-width:0.5;" width="65.8311" x="431.7692" y="50"/><text fill="#000000" font-family="Verdana" font-size="11" lengthAdjust="spacing" textLength="51.8311" x="438.7692" y="67.2104">Service C</text></g><g class="participant participant-tail" data-participant="C"><rect fill="#CCCCCC" height="26.8047" rx="2.5" ry="2.5" style="stroke:#AAAAAA;stroke-width:0.5;" width="65.8311" x="431.7692" y="337.2422"/><text fill="#000000" font-family="Verdana" font-size="11" lengthAdjust="spacing" textLength="51.8311" x="438.7692" y="354.4526">Service C</text></g><g class="message" data-participant-1="User" data-participant-2="Auth"><polygon fill="#000000" points="188.8716,102.6094,198.8716,106.6094,188.8716,110.6094,192.8716,106.6094" style="stroke:#000000;stroke-width:1;"/><line style="stroke:#000000;stroke-width:1;" x1="20.5361" x2="194.8716" y1="106.6094" y2="106.6094"/><text fill="#333333" font-family="Verdana" font-size="11" lengthAdjust="spacing" textLength="68.3361" x="27.5361" y="102.0151">&#30331;&#24405;&#33719;&#21462; JWT</text></g><g class="message" data-participant-1="Auth" data-participant-2="User"><polygon fill="#000000" points="31.5361,129.4141,21.5361,133.4141,31.5361,137.4141,27.5361,133.4141" style="stroke:#000000;stroke-width:1;"/><line style="stroke:#000000;stroke-width:1;" x1="25.5361" x2="199.8716" y1="133.4141" y2="133.4141"/><text fill="#333333" font-family="Verdana" font-size="11" lengthAdjust="spacing" textLength="156.3355" x="37.5361" y="128.8198">&#36820;&#22238; JWT&#65288;&#21547;&#29992;&#25143;&#35282;&#33394;&#12289;&#26435;&#38480;&#65289;</text></g><g class="message" data-participant-1="User" data-participant-2="B"><polygon fill="#000000" points="273.6859,156.2188,283.6859,160.2188,273.6859,164.2188,277.6859,160.2188" style="stroke:#000000;stroke-width:1;"/><line style="stroke:#000000;stroke-width:1;" x1="20.5361" x2="279.6859" y1="160.2188" y2="160.2188"/><text fill="#333333" font-family="Verdana" font-size="11" lengthAdjust="spacing" textLength="68.3361" x="27.5361" y="155.6245">&#35831;&#27714;&#25658;&#24102; JWT</text></g><g class="message" data-participant-1="B" data-participant-2="B"><line style="stroke:#000000;stroke-width:1;" x1="285.6859" x2="327.6859" y1="187.0234" y2="187.0234"/><line style="stroke:#000000;stroke-width:1;" x1="327.6859" x2="327.6859" y1="187.0234" y2="200.0234"/><line style="stroke:#000000;stroke-width:1;" x1="286.6859" x2="327.6859" y1="200.0234" y2="200.0234"/><polygon fill="#000000" points="296.6859,196.0234,286.6859,200.0234,296.6859,204.0234,292.6859,200.0234" style="stroke:#000000;stroke-width:1;"/><text fill="#333333" font-family="Verdana" font-size="11" lengthAdjust="spacing" textLength="164.9989" x="292.6859" y="182.4292">&#39564;&#35777;&#31614;&#21517;&#21644;&#36807;&#26399;&#26102;&#38388;&#65288;&#26080;&#38656;&#26597;&#24211;&#65289;</text></g><g class="message" data-participant-1="B" data-participant-2="User"><polygon fill="#000000" points="31.5361,222.8281,21.5361,226.8281,31.5361,230.8281,27.5361,226.8281" style="stroke:#000000;stroke-width:1;"/><line style="stroke:#000000;stroke-width:1;" x1="25.5361" x2="284.6859" y1="226.8281" y2="226.8281"/><text fill="#333333" font-family="Verdana" font-size="11" lengthAdjust="spacing" textLength="43.9997" x="37.5361" y="222.2339">&#36820;&#22238;&#25968;&#25454;</text></g><g class="message" data-participant-1="User" data-participant-2="C"><polygon fill="#000000" points="452.6847,249.6328,462.6847,253.6328,452.6847,257.6328,456.6847,253.6328" style="stroke:#000000;stroke-width:1;"/><line style="stroke:#000000;stroke-width:1;" x1="20.5361" x2="458.6847" y1="253.6328" y2="253.6328"/><text fill="#333333" font-family="Verdana" font-size="11" lengthAdjust="spacing" textLength="90.336" x="27.5361" y="249.0386">&#35831;&#27714;&#25658;&#24102;&#21516;&#19968; JWT</text></g><g class="message" data-participant-1="C" data-participant-2="C"><line style="stroke:#000000;stroke-width:1;" x1="464.6847" x2="506.6847" y1="280.4375" y2="280.4375"/><line style="stroke:#000000;stroke-width:1;" x1="506.6847" x2="506.6847" y1="280.4375" y2="293.4375"/><line style="stroke:#000000;stroke-width:1;" x1="465.6847" x2="506.6847" y1="293.4375" y2="293.4375"/><polygon fill="#000000" points="475.6847,289.4375,465.6847,293.4375,475.6847,297.4375,471.6847,293.4375" style="stroke:#000000;stroke-width:1;"/><text fill="#333333" font-family="Verdana" font-size="11" lengthAdjust="spacing" textLength="164.9989" x="471.6847" y="275.8433">&#39564;&#35777;&#31614;&#21517;&#21644;&#36807;&#26399;&#26102;&#38388;&#65288;&#26080;&#38656;&#26597;&#24211;&#65289;</text></g><g class="message" data-participant-1="C" data-participant-2="User"><polygon fill="#000000" points="31.5361,316.2422,21.5361,320.2422,31.5361,324.2422,27.5361,320.2422" style="stroke:#000000;stroke-width:1;"/><line style="stroke:#000000;stroke-width:1;" x1="25.5361" x2="463.6847" y1="320.2422" y2="320.2422"/><text fill="#333333" font-family="Verdana" font-size="11" lengthAdjust="spacing" textLength="43.9997" x="37.5361" y="315.6479">&#36820;&#22238;&#25968;&#25454;</text></g><!--SRC=[bOxDJi9058NtynHNzhm02nFRdLirhiTsqZP0IwQ3ww8B8IdQ84Y8A6xyYKPHOuGWoiFeJDiLh-2qQKWmRDpUxvpptJLcaZ81IdIT4jVDbop3P0x5ja4GSekMNS4Kbs4FQqM3EbLRLvsIGu79X2iHiHd2cYp0ZaieaXTcQLO5smno6rLcmXQX-vP6Se1TI0xBaOo2ad9bDLHJg2AKA22_dkuK8EnzyCzET3pY9sUmkRkDKf_4IQm0qQpDpoyJC9_MUV0Gjkz4VHJTjgB6wxTN4nU7SI-OJnkBLKLsXYFnSY222H_Vf9DA1k9xFnhMmiSl7ZHvouzcHw8_4DttkFicrqNtAkvxOd3D9wV9elBt2z5v5isdXKbTDl70_nbxgK_DyFzywchVBm00]--></g></svg>