<svg xmlns="http://www.w3.org/2000/svg" xmlns:xlink="http://www.w3.org/1999/xlink" contentStyleType="text/css" data-diagram-type="SEQUENCE" height="592px" preserveAspectRatio="none" style="width:493px;height:592px;" version="1.1" viewBox="0 0 493 592" width="493px" zoomAndPan="magnify"><title>Session ID &#35748;&#35777;&#27969;&#31243;</title><defs/><g><text fill="#000000" font-family="sans-serif" font-size="14" font-weight="bold" lengthAdjust="spacing" textLength="143.2058" x="176.3575" y="27.9951">Session ID &#35748;&#35777;&#27969;&#31243;</text><g><title>&#29992;&#25143;</title><rect fill="#000000" fill-opacity="0.00000" height="376.8594" width="8" x="17.9999" y="120.8906"/><line style="stroke:#454645;stroke-width:0.5;stroke-dasharray:5.0,5.0;" x1="21" x2="21" y1="120.8906" y2="497.75"/></g><g><title>Web &#26381;&#21153;&#22120;</title><rect fill="#000000" fill-opacity="0.00000" height="376.8594" width="8" x="188.3198" y="120.8906"/><line style="stroke:#454645;stroke-width:0.5;stroke-dasharray:5.0,5.0;" x1="191.4234" x2="191.4234" y1="120.8906" y2="497.75"/></g><g><title>Session &#23384;&#20648;</title><rect fill="#000000" fill-opacity="0.00000" height="376.8594" width="8" x="326.5649" y="120.8906"/><line style="stroke:#454645;stroke-width:0.5;stroke-dasharray:5.0,5.0;" x1="329.6319" x2="329.6319" y1="120.8906" y2="497.75"/></g><g class="participant participant-head" data-participant="Client"><text fill="#454645" font-family="sans-serif" font-size="14" lengthAdjust="spacing" textLength="27.9999" x="5" y="117.5889">&#29992;&#25143;</text><ellipse cx="21.9999" cy="53.0938" fill="#454645" rx="8" ry="8" style="stroke:#454645;stroke-width:0.5;"/><path d="M21.9999,61.0938 L21.9999,88.0938 M8.9999,69.0938 L34.9999,69.0938 M21.9999,88.0938 L8.9999,103.0938 M21.9999,88.0938 L34.9999,103.0938" fill="none" style="stroke:#454645;stroke-width:0.5;"/></g><g class="participant participant-tail" data-participant="Client"><text fill="#454645" font-family="sans-serif" font-size="14" lengthAdjust="spacing" textLength="27.9999" x="5" y="509.7451">&#29992;&#25143;</text><ellipse cx="21.9999" cy="521.5469" fill="#454645" rx="8" ry="8" style="stroke:#454645;stroke-width:0.5;"/><path d="M21.9999,529.5469 L21.9999,556.5469 M8.9999,537.5469 L34.9999,537.5469 M21.9999,556.5469 L8.9999,571.5469 M21.9999,556.5469 L34.9999,571.5469" fill="none" style="stroke:#454645;stroke-width:0.5;"/></g><g class="participant participant-head" data-participant="Server"><rect fill="#FF6F61" height="30.2969" rx="3.5" ry="3.5" style="stroke:#454645;stroke-width:1.5;" width="91.7928" x="146.4234" y="89.5938"/><text fill="#FFFFFF" font-family="sans-serif" font-size="14" lengthAdjust="spacing" textLength="77.7928" x="153.4234" y="109.5889">Web &#26381;&#21153;&#22120;</text></g><g class="participant participant-tail" data-participant="Server"><rect fill="#FF6F61" height="30.2969" rx="3.5" ry="3.5" style="stroke:#454645;stroke-width:1.5;" width="91.7928" x="146.4234" y="496.75"/><text fill="#FFFFFF" font-family="sans-serif" font-size="14" lengthAdjust="spacing" textLength="77.7928" x="153.4234" y="516.7451">Web &#26381;&#21153;&#22120;</text></g><g class="participant participant-head" data-participant="SessionStore"><text fill="#454645" font-family="sans-serif" font-size="14" lengthAdjust="spacing" textLength="85.8661" x="284.6319" y="101.292">Session &#23384;&#20648;</text><text fill="#454645" font-family="sans-serif" font-size="14" lengthAdjust="spacing" textLength="74.4365" x="290.3466" y="117.5889">(Redis/DB)</text><path d="M312.5649,52.2969 C312.5649,42.2969 330.5649,42.2969 330.5649,42.2969 C330.5649,42.2969 348.5649,42.2969 348.5649,52.2969 L348.5649,78.2969 C348.5649,88.2969 330.5649,88.2969 330.5649,88.2969 C330.5649,88.2969 312.5649,88.2969 312.5649,78.2969 L312.5649,52.2969" fill="#98DDDE" style="stroke:#454645;stroke-width:1.5;"/><path d="M312.5649,52.2969 C312.5649,62.2969 330.5649,62.2969 330.5649,62.2969 C330.5649,62.2969 348.5649,62.2969 348.5649,52.2969" fill="none" style="stroke:#454645;stroke-width:1.5;"/></g><g class="participant participant-tail" data-participant="SessionStore"><text fill="#454645" font-family="sans-serif" font-size="14" lengthAdjust="spacing" textLength="85.8661" x="284.6319" y="509.7451">Session &#23384;&#20648;</text><text fill="#454645" font-family="sans-serif" font-size="14" lengthAdjust="spacing" textLength="74.4365" x="290.3466" y="526.042">(Redis/DB)</text><path d="M312.5649,539.3438 C312.5649,529.3438 330.5649,529.3438 330.5649,529.3438 C330.5649,529.3438 348.5649,529.3438 348.5649,539.3438 L348.5649,565.3438 C348.5649,575.3438 330.5649,575.3438 330.5649,575.3438 C330.5649,575.3438 312.5649,575.3438 312.5649,565.3438 L312.5649,539.3438" fill="#98DDDE" style="stroke:#454645;stroke-width:1.5;"/><path d="M312.5649,539.3438 C312.5649,549.3438 330.5649,549.3438 330.5649,549.3438 C330.5649,549.3438 348.5649,549.3438 348.5649,539.3438" fill="none" style="stroke:#454645;stroke-width:1.5;"/></g><g class="message" data-participant-1="Client" data-participant-2="Server"><polygon fill="#454645" points="180.3198,148.0234,190.3198,152.0234,180.3198,156.0234,184.3198,152.0234" style="stroke:#454645;stroke-width:1;"/><line style="stroke:#454645;stroke-width:1;" x1="21.9999" x2="186.3198" y1="152.0234" y2="152.0234"/><text fill="#000000" font-family="sans-serif" font-size="13" lengthAdjust="spacing" textLength="111.9156" x="28.9999" y="146.9575">1. &#25552;&#20132;&#29992;&#25143;&#21517;/&#23494;&#30721;</text></g><g class="message" data-participant-1="Server" data-participant-2="Server"><line style="stroke:#454645;stroke-width:1;" x1="192.3198" x2="234.3198" y1="181.1563" y2="181.1563"/><line style="stroke:#454645;stroke-width:1;" x1="234.3198" x2="234.3198" y1="181.1563" y2="194.1563"/><line style="stroke:#454645;stroke-width:1;" x1="193.3198" x2="234.3198" y1="194.1563" y2="194.1563"/><polygon fill="#454645" points="203.3198,190.1563,193.3198,194.1563,203.3198,198.1563,199.3198,194.1563" style="stroke:#454645;stroke-width:1;"/><text fill="#000000" font-family="sans-serif" font-size="13" lengthAdjust="spacing" textLength="68.5357" x="199.3198" y="176.0903">2. &#39564;&#35777;&#20973;&#35777;</text></g><g class="message" data-participant-1="Server" data-participant-2="SessionStore"><polygon fill="#454645" points="318.5649,234.4219,328.5649,238.4219,318.5649,242.4219,322.5649,238.4219" style="stroke:#454645;stroke-width:1;"/><line style="stroke:#454645;stroke-width:1;" x1="192.3198" x2="324.5649" y1="238.4219" y2="238.4219"/><text fill="#000000" font-family="sans-serif" font-size="13" lengthAdjust="spacing" textLength="114.2451" x="199.3198" y="218.2231">3. &#29983;&#25104; Session ID</text><text fill="#000000" font-family="sans-serif" font-size="13" lengthAdjust="spacing" textLength="91.0001" x="199.3198" y="233.356">&#24182;&#23384;&#20648;&#29992;&#25143;&#25968;&#25454;</text></g><g class="message" data-participant-1="Server" data-participant-2="Client"><polygon fill="#454645" points="32.9999,278.6875,22.9999,282.6875,32.9999,286.6875,28.9999,282.6875" style="stroke:#454645;stroke-width:1;"/><line style="stroke:#454645;stroke-width:1;stroke-dasharray:2.0,2.0;" x1="26.9999" x2="191.3198" y1="282.6875" y2="282.6875"/><text fill="#000000" font-family="sans-serif" font-size="13" lengthAdjust="spacing" textLength="121.2085" x="38.9999" y="262.4888">4. &#36820;&#22238; Set-Cookie:</text><text fill="#000000" font-family="sans-serif" font-size="13" lengthAdjust="spacing" textLength="136.1763" x="38.9999" y="277.6216">SESSION_ID=abc123</text></g><path d="M197,259.4883 L197,277.4883 A3.5,3.5 0 0 0 200.5,280.9883 L482.5,280.9883 A3.5,3.5 0 0 0 486,277.4883 L486,265.9883 L476,255.9883 L200.5,255.9883 A3.5,3.5 0 0 0 197,259.4883" fill="#90EE90" style="stroke:#454645;stroke-width:1;"/><path d="M476,255.9883 L476,264.2383 A1.75,1.75 0 0 0 477.75,265.9883 L486,265.9883 L476,255.9883" fill="#90EE90" style="stroke:#454645;stroke-width:1;"/><text fill="#454645" font-family="sans-serif" font-size="13" lengthAdjust="spacing" textLength="268.6011" x="203" y="273.0552">Cookie &#23646;&#24615;&#65306;HttpOnly, Secure, SameSite</text><g class="message" data-participant-1="Client" data-participant-2="Server"><polygon fill="#454645" points="180.3198,322.9531,190.3198,326.9531,180.3198,330.9531,184.3198,326.9531" style="stroke:#454645;stroke-width:1;"/><line style="stroke:#454645;stroke-width:1;" x1="21.9999" x2="186.3198" y1="326.9531" y2="326.9531"/><text fill="#000000" font-family="sans-serif" font-size="13" lengthAdjust="spacing" textLength="90.7906" x="28.9999" y="306.7544">5. &#25658;&#24102; Cookie</text><text fill="#000000" font-family="sans-serif" font-size="13" lengthAdjust="spacing" textLength="146.3198" x="28.9999" y="321.8872">(SESSION_ID=abc123)</text></g><g class="message" data-participant-1="Server" data-participant-2="SessionStore"><polygon fill="#454645" points="318.5649,367.2188,328.5649,371.2188,318.5649,375.2188,322.5649,371.2188" style="stroke:#454645;stroke-width:1;"/><line style="stroke:#454645;stroke-width:1;" x1="192.3198" x2="324.5649" y1="371.2188" y2="371.2188"/><text fill="#000000" font-family="sans-serif" font-size="13" lengthAdjust="spacing" textLength="114.2451" x="199.3198" y="351.02">6. &#26597;&#35810; Session ID</text><text fill="#000000" font-family="sans-serif" font-size="13" lengthAdjust="spacing" textLength="91.0001" x="199.3198" y="366.1528">&#23545;&#24212;&#30340;&#29992;&#25143;&#25968;&#25454;</text></g><g class="message" data-participant-1="SessionStore" data-participant-2="Server"><polygon fill="#454645" points="203.3198,396.3516,193.3198,400.3516,203.3198,404.3516,199.3198,400.3516" style="stroke:#454645;stroke-width:1;"/><line style="stroke:#454645;stroke-width:1;stroke-dasharray:2.0,2.0;" x1="197.3198" x2="329.5649" y1="400.3516" y2="400.3516"/><text fill="#000000" font-family="sans-serif" font-size="13" lengthAdjust="spacing" textLength="94.5357" x="209.3198" y="395.2856">7. &#36820;&#22238;&#29992;&#25143;&#20449;&#24687;</text></g><g class="message" data-participant-1="Server" data-participant-2="Client"><polygon fill="#454645" points="32.9999,425.4844,22.9999,429.4844,32.9999,433.4844,28.9999,429.4844" style="stroke:#454645;stroke-width:1;"/><line style="stroke:#454645;stroke-width:1;stroke-dasharray:2.0,2.0;" x1="26.9999" x2="191.3198" y1="429.4844" y2="429.4844"/><text fill="#000000" font-family="sans-serif" font-size="13" lengthAdjust="spacing" textLength="107.5358" x="38.9999" y="424.4185">8. &#36820;&#22238;&#21463;&#20445;&#25252;&#36164;&#28304;</text></g><path d="M148,445.9844 L148,478.9844 A3.5,3.5 0 0 0 151.5,482.4844 L369.5,482.4844 A3.5,3.5 0 0 0 373,478.9844 L373,452.4844 L363,442.4844 L151.5,442.4844 A3.5,3.5 0 0 0 148,445.9844" fill="#90EE90" style="stroke:#454645;stroke-width:1;"/><path d="M363,442.4844 L363,450.7344 A1.75,1.75 0 0 0 364.75,452.4844 L373,452.4844 L363,442.4844" fill="#90EE90" style="stroke:#454645;stroke-width:1;"/><text fill="#454645" font-family="sans-serif" font-size="13" lengthAdjust="spacing" textLength="136.7095" x="187.6825" y="459.5513">Session ID &#26377;&#25928;&#26399;&#31649;&#29702;</text><text fill="#454645" font-family="sans-serif" font-size="13" lengthAdjust="spacing" textLength="117.0001" x="187.6825" y="474.6841">&#33258;&#21160;&#36807;&#26399;&#25110;&#25163;&#21160;&#21024;&#38500;</text><!--SRC=[TLBDJXD17B_FK_pjIH8e0LHC4ptOcjYB9Ex1InCptKvWqdQssHrCk553w59es4CHWKAfgReXeQi7L1gJlandTZdv2aoPLbh5osvsvlUTlSTNI940jzOGSlAKbR2DYv35PdxPjbPPBcaLB1kuZPcZhWZZ277A2mGCuZZKOf1EGTHfHq5PNfH3VniXR7B52Ek-T7y0TY1Pe0EQOdDgqX9c76AlIHPaeoQgBN7WnmOeWzXlYOrocECiTWZ4HlhY_8DuvsVO_LSaHvtPrBEf8Vxcsb1U127j0JDFXpe9c8k3tFNwtROE8hpQh0WsmzCoqeXnx7mShivsL0LHELVF2SIjIm8MugfMKxhUMFaC4vVVTKRj9FU-obhdZuOIqU4Iy20EKQykZauKdSyaBIjFIIB3ZEU6aLvw-IQTUeApvjpy0aBCuWHikhoYM1e7ujk9NF_o-zVX2yvBIwomDgrKp5MRg3Sk4eFoEsTug6RmkkBdvw6Esl4Vlwd_5dwasCrFKV1nid1mARhry73ZhyAtp9lQemYBezeQtk-rP3cuQv_78w3OtU_tZcMr7LrioAuttCCQu3LjUZBcsAye6rjopvMDPjXfXTvcXaMLCr7rerv5dKdtlTpQLf_2FRqwQ5y3]--></g></svg>