<?xml version="1.0" encoding="utf-8" standalone="no"?>
<!DOCTYPE svg PUBLIC "-//W3C//DTD SVG 1.1//EN"
  "http://www.w3.org/Graphics/SVG/1.1/DTD/svg11.dtd">
<svg xmlns:xlink="http://www.w3.org/1999/xlink" width="460.8pt" height="345.6pt" viewBox="0 0 460.8 345.6" xmlns="http://www.w3.org/2000/svg" version="1.1">
 <metadata>
  <rdf:RDF xmlns:dc="http://purl.org/dc/elements/1.1/" xmlns:cc="http://creativecommons.org/ns#" xmlns:rdf="http://www.w3.org/1999/02/22-rdf-syntax-ns#">
   <cc:Work>
    <dc:type rdf:resource="http://purl.org/dc/dcmitype/StillImage"/>
    <dc:date>2024-06-05T12:29:07.562193</dc:date>
    <dc:format>image/svg+xml</dc:format>
    <dc:creator>
     <cc:Agent>
      <dc:title>Matplotlib v3.9.0, https://matplotlib.org/</dc:title>
     </cc:Agent>
    </dc:creator>
   </cc:Work>
  </rdf:RDF>
 </metadata>
 <defs>
  <style type="text/css">*{stroke-linejoin: round; stroke-linecap: butt}</style>
 </defs>
 <g id="figure_1">
  <g id="patch_1">
   <path d="M 0 345.6 
L 460.8 345.6 
L 460.8 0 
L 0 0 
L 0 345.6 
z
" style="fill: none"/>
  </g>
  <g id="axes_1">
   <g id="patch_2">
    <path d="M 57.6 307.584 
L 414.72 307.584 
L 414.72 41.472 
L 57.6 41.472 
L 57.6 307.584 
z
" style="fill: none"/>
   </g>
   <g id="patch_3">
    <path d="M 73.832727 307.584 
L 90.919809 307.584 
L 90.919809 251.264 
L 73.832727 251.264 
z
" clip-path="url(#pec766a2036)" style="fill: #ff0000; opacity: 0.7"/>
   </g>
   <g id="patch_4">
    <path d="M 108.00689 307.584 
L 125.093971 307.584 
L 125.093971 138.624 
L 108.00689 138.624 
z
" clip-path="url(#pec766a2036)" style="fill: #ff0000; opacity: 0.7"/>
   </g>
   <g id="patch_5">
    <path d="M 142.181053 307.584 
L 159.268134 307.584 
L 159.268134 54.144 
L 142.181053 54.144 
z
" clip-path="url(#pec766a2036)" style="fill: #ff0000; opacity: 0.7"/>
   </g>
   <g id="patch_6">
    <path d="M 176.355215 307.584 
L 193.442297 307.584 
L 193.442297 54.144 
L 176.355215 54.144 
z
" clip-path="url(#pec766a2036)" style="fill: #ff0000; opacity: 0.7"/>
   </g>
   <g id="patch_7">
    <path d="M 210.529378 307.584 
L 227.616459 307.584 
L 227.616459 117.504 
L 210.529378 117.504 
z
" clip-path="url(#pec766a2036)" style="fill: #ff0000; opacity: 0.7"/>
   </g>
   <g id="patch_8">
    <path d="M 244.703541 307.584 
L 261.790622 307.584 
L 261.790622 193.536 
L 244.703541 193.536 
z
" clip-path="url(#pec766a2036)" style="fill: #ff0000; opacity: 0.7"/>
   </g>
   <g id="patch_9">
    <path d="M 278.877703 307.584 
L 295.964785 307.584 
L 295.964785 250.56 
L 278.877703 250.56 
z
" clip-path="url(#pec766a2036)" style="fill: #ff0000; opacity: 0.7"/>
   </g>
   <g id="patch_10">
    <path d="M 313.051866 307.584 
L 330.138947 307.584 
L 330.138947 283.145143 
L 313.051866 283.145143 
z
" clip-path="url(#pec766a2036)" style="fill: #ff0000; opacity: 0.7"/>
   </g>
   <g id="patch_11">
    <path d="M 347.226029 307.584 
L 364.31311 307.584 
L 364.31311 298.419429 
L 347.226029 298.419429 
z
" clip-path="url(#pec766a2036)" style="fill: #ff0000; opacity: 0.7"/>
   </g>
   <g id="patch_12">
    <path d="M 381.400191 307.584 
L 398.487273 307.584 
L 398.487273 304.529143 
L 381.400191 304.529143 
z
" clip-path="url(#pec766a2036)" style="fill: #ff0000; opacity: 0.7"/>
   </g>
   <g id="matplotlib.axis_1">
    <g id="xtick_1">
     <g id="line2d_1">
      <defs>
       <path id="m790de1fc6f" d="M 0 0 
L 0 3.5 
" style="stroke: #000000; stroke-width: 0.8"/>
      </defs>
      <g>
       <use xlink:href="#m790de1fc6f" x="82.376268" y="307.584" style="stroke: #000000; stroke-width: 0.8"/>
      </g>
     </g>
     <g id="text_1">
      <!-- 0 -->
      <g transform="translate(79.341112 321.543375) scale(0.1 -0.1)">
       <defs>
        <path id="HannotateSC-W5-30" d="M 3398 2662 
C 3398 3814 2989 4397 2176 4397 
C 1664 4397 1248 4115 928 3552 
C 634 3034 486 2419 486 1709 
C 486 1184 595 787 826 506 
C 1050 224 1382 83 1818 83 
C 2362 83 2778 371 3059 954 
C 3283 1414 3398 1984 3398 2662 
z
M 2918 2605 
C 2918 2067 2822 1600 2630 1190 
C 2413 742 2144 518 1818 518 
C 1254 518 973 922 973 1741 
C 973 2330 1088 2848 1318 3296 
C 1549 3738 1818 3962 2131 3962 
C 2656 3962 2918 3507 2918 2605 
z
" transform="scale(0.015625)"/>
       </defs>
       <use xlink:href="#HannotateSC-W5-30"/>
      </g>
     </g>
    </g>
    <g id="xtick_2">
     <g id="line2d_2">
      <g>
       <use xlink:href="#m790de1fc6f" x="150.724593" y="307.584" style="stroke: #000000; stroke-width: 0.8"/>
      </g>
     </g>
     <g id="text_2">
      <!-- 2 -->
      <g transform="translate(147.689437 321.543375) scale(0.1 -0.1)">
       <defs>
        <path id="HannotateSC-W5-32" d="M 3597 390 
C 3597 480 3565 557 3507 634 
C 3450 710 3386 749 3309 749 
C 3251 749 3194 742 3142 730 
L 3053 710 
L 2963 698 
C 2822 685 2682 672 2534 672 
C 2381 672 2240 666 2106 659 
C 1978 646 1843 640 1702 634 
C 1562 621 1382 608 1171 582 
C 1318 704 1440 813 1536 902 
L 1798 1152 
L 2227 1568 
C 2368 1709 2509 1843 2656 1984 
C 2835 2163 2976 2368 3072 2605 
C 3162 2835 3206 3078 3206 3341 
C 3206 3475 3174 3610 3117 3744 
C 3053 3872 2970 3994 2867 4102 
C 2758 4205 2630 4288 2483 4352 
C 2336 4416 2176 4448 2010 4448 
C 1824 4448 1645 4422 1466 4371 
C 1286 4314 1126 4224 986 4102 
C 934 4064 890 4006 838 3942 
C 787 3872 736 3802 698 3725 
C 653 3648 614 3571 589 3494 
C 557 3418 544 3347 544 3290 
C 544 3213 570 3155 634 3104 
C 691 3046 749 3021 813 3021 
C 858 3021 896 3027 928 3053 
C 954 3072 986 3104 1024 3142 
C 1037 3162 1056 3194 1075 3232 
C 1094 3264 1114 3302 1133 3341 
C 1146 3373 1165 3411 1178 3450 
C 1190 3488 1203 3520 1229 3558 
C 1318 3712 1421 3827 1536 3917 
C 1645 4000 1798 4045 1990 4045 
C 2093 4045 2195 4019 2285 3981 
C 2374 3936 2451 3878 2522 3808 
C 2586 3731 2637 3648 2675 3558 
C 2714 3462 2733 3366 2733 3264 
C 2733 3136 2714 3021 2675 2912 
C 2637 2797 2592 2694 2534 2598 
C 2477 2496 2413 2406 2342 2323 
C 2266 2234 2182 2150 2106 2074 
L 1498 1504 
C 1299 1312 1088 1133 870 960 
C 806 909 755 864 704 813 
C 653 762 608 710 557 659 
C 512 614 474 570 448 531 
C 422 480 410 429 410 371 
C 410 282 442 211 512 166 
C 576 115 646 96 730 96 
C 781 96 838 102 902 115 
C 934 122 966 128 998 134 
C 1024 141 1056 147 1088 154 
C 1331 186 1581 211 1843 237 
C 2099 262 2349 275 2592 275 
C 2726 275 2867 262 3008 243 
C 3142 218 3277 211 3418 211 
C 3456 211 3494 224 3533 262 
C 3571 288 3597 333 3597 390 
z
" transform="scale(0.015625)"/>
       </defs>
       <use xlink:href="#HannotateSC-W5-32"/>
      </g>
     </g>
    </g>
    <g id="xtick_3">
     <g id="line2d_3">
      <g>
       <use xlink:href="#m790de1fc6f" x="219.072919" y="307.584" style="stroke: #000000; stroke-width: 0.8"/>
      </g>
     </g>
     <g id="text_3">
      <!-- 4 -->
      <g transform="translate(216.037762 321.543375) scale(0.1 -0.1)">
       <defs>
        <path id="HannotateSC-W5-34" d="M 3667 1376 
C 3667 1530 3578 1613 3411 1613 
C 3309 1613 3213 1606 3123 1594 
C 3027 1574 2957 1562 2906 1549 
C 2899 1632 2899 1702 2899 1766 
C 2899 1824 2899 1882 2906 1946 
C 2906 2035 2906 2144 2912 2285 
C 2912 2419 2918 2573 2931 2739 
C 2931 2906 2944 3078 2957 3270 
C 2963 3456 2976 3648 2989 3840 
C 2989 3910 2995 3981 3008 4051 
C 3021 4122 3027 4192 3027 4269 
C 3027 4307 3008 4339 2982 4371 
C 2950 4397 2918 4422 2880 4448 
C 2835 4474 2790 4486 2746 4499 
C 2694 4512 2656 4518 2624 4518 
C 2586 4518 2547 4506 2509 4493 
C 2464 4474 2432 4448 2406 4422 
C 2374 4384 2349 4352 2330 4320 
C 2304 4282 2278 4250 2259 4218 
C 1978 3840 1690 3475 1395 3123 
C 1101 2765 819 2400 544 2022 
C 506 1978 474 1926 435 1875 
C 397 1818 365 1760 333 1696 
C 301 1632 275 1574 256 1517 
C 230 1453 224 1395 224 1344 
C 224 1254 243 1178 282 1114 
C 320 1043 371 986 435 941 
C 499 896 570 864 653 838 
C 730 813 806 806 883 806 
C 941 806 1005 813 1075 826 
C 1139 832 1210 845 1280 858 
C 1344 870 1408 883 1472 902 
C 1536 915 1600 934 1664 947 
C 1773 973 1888 992 2010 1018 
C 2125 1043 2253 1062 2406 1088 
L 2394 589 
C 2381 435 2381 326 2381 275 
C 2381 26 2483 -96 2688 -96 
C 2752 -96 2816 -77 2874 -45 
C 2925 -6 2957 45 2957 122 
C 2957 230 2944 339 2918 442 
C 2893 544 2886 653 2886 768 
L 2886 1146 
L 3462 1158 
C 3520 1158 3571 1178 3610 1222 
C 3648 1261 3667 1312 3667 1376 
z
M 2496 3840 
L 2413 1491 
C 2317 1466 2202 1440 2061 1414 
L 1638 1338 
C 1498 1312 1363 1286 1235 1274 
C 1107 1254 1005 1248 941 1248 
C 902 1248 870 1254 832 1274 
C 794 1293 774 1318 774 1357 
C 774 1408 794 1485 845 1581 
C 896 1670 954 1766 1024 1869 
C 1088 1965 1152 2054 1216 2144 
C 1280 2234 1338 2298 1376 2349 
C 1542 2560 1722 2790 1914 3046 
C 2099 3296 2291 3558 2496 3840 
z
" transform="scale(0.015625)"/>
       </defs>
       <use xlink:href="#HannotateSC-W5-34"/>
      </g>
     </g>
    </g>
    <g id="xtick_4">
     <g id="line2d_4">
      <g>
       <use xlink:href="#m790de1fc6f" x="287.421244" y="307.584" style="stroke: #000000; stroke-width: 0.8"/>
      </g>
     </g>
     <g id="text_4">
      <!-- 6 -->
      <g transform="translate(284.386088 321.543375) scale(0.1 -0.1)">
       <defs>
        <path id="HannotateSC-W5-36" d="M 3610 1562 
C 3610 1754 3571 1920 3494 2074 
C 3418 2221 3322 2349 3200 2451 
C 3072 2554 2931 2630 2778 2688 
C 2611 2739 2445 2771 2278 2771 
C 2022 2771 1773 2720 1530 2624 
C 1286 2522 1050 2342 832 2080 
C 864 2234 896 2374 934 2490 
C 960 2605 998 2714 1037 2810 
C 1075 2906 1126 2995 1178 3078 
C 1229 3162 1286 3251 1363 3341 
C 1395 3386 1440 3443 1498 3507 
C 1555 3571 1619 3629 1690 3693 
C 1754 3757 1818 3814 1894 3872 
C 1971 3923 2042 3968 2112 4006 
C 2138 4019 2170 4038 2202 4051 
C 2227 4064 2259 4077 2298 4090 
C 2355 4102 2413 4115 2477 4128 
C 2509 4134 2534 4141 2554 4154 
C 2592 4179 2611 4218 2611 4262 
C 2611 4339 2579 4410 2522 4467 
C 2458 4518 2400 4550 2342 4550 
C 2240 4550 2099 4499 1933 4397 
C 1843 4346 1754 4288 1664 4230 
C 1568 4166 1485 4096 1408 4032 
C 1242 3891 1094 3731 960 3552 
C 819 3373 704 3181 602 2982 
C 499 2778 422 2573 371 2355 
C 307 2138 282 1914 282 1696 
C 282 1453 314 1222 384 1018 
C 448 800 550 621 678 467 
C 806 307 973 186 1165 96 
C 1350 6 1568 -38 1811 -38 
C 2029 -38 2253 0 2470 70 
C 2682 141 2874 250 3046 390 
C 3213 525 3354 691 3456 890 
C 3558 1082 3610 1306 3610 1562 
z
M 3104 1613 
C 3104 1434 3066 1261 2995 1107 
C 2925 941 2835 800 2720 685 
C 2605 563 2470 467 2323 403 
C 2170 326 2016 294 1856 294 
C 1702 294 1568 320 1459 378 
C 1344 429 1254 506 1178 602 
C 1094 691 1030 800 979 928 
C 928 1050 883 1178 858 1312 
C 896 1466 966 1606 1062 1741 
C 1152 1869 1267 1984 1395 2080 
C 1517 2176 1651 2253 1805 2310 
C 1952 2362 2106 2394 2259 2394 
C 2362 2394 2458 2374 2560 2342 
C 2662 2304 2752 2259 2835 2195 
C 2912 2125 2982 2042 3034 1946 
C 3078 1843 3104 1734 3104 1613 
z
" transform="scale(0.015625)"/>
       </defs>
       <use xlink:href="#HannotateSC-W5-36"/>
      </g>
     </g>
    </g>
    <g id="xtick_5">
     <g id="line2d_5">
      <g>
       <use xlink:href="#m790de1fc6f" x="355.769569" y="307.584" style="stroke: #000000; stroke-width: 0.8"/>
      </g>
     </g>
     <g id="text_5">
      <!-- 8 -->
      <g transform="translate(352.734413 321.543375) scale(0.1 -0.1)">
       <defs>
        <path id="HannotateSC-W5-38" d="M 3578 1299 
C 3578 1453 3526 1619 3430 1786 
C 3328 1952 3136 2112 2861 2259 
C 2771 2298 2682 2336 2592 2374 
C 2496 2406 2381 2445 2246 2490 
L 2458 2643 
C 2515 2694 2573 2739 2630 2784 
C 2682 2829 2739 2874 2790 2925 
C 2842 2963 2906 3014 2970 3066 
C 3142 3206 3258 3315 3315 3398 
C 3366 3482 3398 3558 3398 3629 
C 3398 3686 3379 3744 3341 3795 
C 3296 3840 3238 3878 3168 3904 
C 3168 3930 3174 3955 3174 3974 
L 3174 4013 
C 3174 4077 3136 4128 3066 4179 
C 3027 4198 2982 4218 2925 4243 
L 2835 4269 
C 2803 4275 2771 4288 2739 4301 
C 2675 4326 2598 4346 2522 4371 
C 2438 4397 2355 4416 2278 4442 
C 2189 4461 2112 4480 2035 4493 
C 1952 4506 1888 4512 1837 4512 
C 1568 4512 1350 4474 1178 4397 
C 998 4320 851 4218 742 4102 
C 634 3987 557 3859 512 3718 
C 461 3578 442 3450 442 3328 
C 442 3136 506 2957 646 2797 
C 781 2630 973 2483 1216 2355 
C 1101 2278 1005 2214 922 2157 
C 838 2093 768 2029 710 1971 
C 570 1830 467 1702 403 1581 
C 339 1453 307 1325 307 1203 
C 307 1050 339 909 403 768 
C 467 627 563 499 704 390 
C 832 282 1005 198 1210 134 
C 1414 64 1658 32 1946 32 
C 2214 32 2458 58 2662 122 
C 2867 186 3034 269 3174 384 
C 3302 493 3405 627 3475 787 
C 3539 941 3578 1107 3578 1299 
z
M 2861 3725 
C 2835 3680 2810 3642 2790 3616 
L 2726 3539 
L 2496 3309 
C 2413 3226 2330 3142 2240 3066 
C 2150 2982 2054 2906 1965 2835 
C 1869 2758 1779 2694 1696 2643 
C 1491 2714 1318 2810 1190 2925 
C 1062 3040 998 3181 998 3347 
C 998 3443 1011 3539 1043 3629 
C 1069 3718 1114 3795 1178 3866 
C 1242 3930 1318 3987 1421 4026 
C 1517 4064 1638 4090 1779 4090 
C 1920 4090 2061 4064 2202 4026 
C 2342 3981 2464 3936 2560 3891 
C 2611 3866 2662 3834 2707 3808 
C 2746 3782 2797 3750 2861 3725 
z
M 3066 1216 
C 3066 1088 3034 979 2970 877 
C 2906 774 2822 691 2720 621 
C 2618 544 2496 493 2368 454 
C 2234 410 2099 390 1958 390 
C 1760 390 1587 410 1446 454 
C 1306 499 1184 557 1094 634 
C 998 710 928 794 883 890 
C 832 986 813 1088 813 1190 
C 813 1261 838 1350 896 1466 
C 947 1568 1056 1690 1222 1824 
C 1293 1882 1370 1939 1446 2003 
C 1523 2054 1613 2112 1715 2170 
C 2611 1907 3066 1587 3066 1216 
z
" transform="scale(0.015625)"/>
       </defs>
       <use xlink:href="#HannotateSC-W5-38"/>
      </g>
     </g>
    </g>
    <g id="text_6">
     <!-- x -->
     <g transform="translate(233.664687 334.712125) scale(0.1 -0.1)">
      <defs>
       <path id="HannotateSC-W5-78" d="M 2624 109 
C 2688 109 2752 128 2829 179 
C 2893 224 2950 294 3002 390 
C 2861 435 2726 512 2598 621 
C 2458 723 2336 838 2227 966 
C 2144 1050 2061 1139 1984 1235 
L 1734 1542 
C 1850 1677 1958 1798 2061 1901 
C 2163 2003 2272 2112 2387 2221 
C 2419 2246 2458 2285 2509 2336 
L 2650 2477 
C 2688 2515 2726 2554 2758 2592 
C 2784 2630 2803 2656 2803 2669 
C 2803 2746 2771 2810 2714 2861 
C 2650 2912 2586 2938 2515 2938 
C 2477 2938 2419 2906 2355 2848 
C 2278 2784 2189 2707 2086 2605 
C 1971 2490 1862 2374 1773 2272 
C 1677 2170 1574 2048 1459 1907 
C 1357 2042 1261 2163 1184 2278 
C 1101 2387 1024 2496 947 2611 
C 896 2675 838 2733 762 2797 
C 685 2848 614 2880 550 2880 
C 486 2880 422 2854 365 2810 
C 301 2765 275 2720 275 2675 
C 275 2598 288 2541 320 2502 
C 346 2451 384 2406 429 2362 
L 550 2227 
C 589 2182 627 2144 666 2106 
C 736 2016 813 1926 890 1837 
C 966 1747 1050 1638 1146 1523 
C 1056 1408 979 1312 909 1222 
C 832 1126 762 1030 685 941 
C 582 813 506 710 442 627 
C 378 538 326 467 294 416 
C 256 352 230 307 218 275 
C 198 237 192 205 192 186 
C 192 109 218 45 282 -19 
C 346 -77 454 -128 608 -166 
L 832 262 
C 896 371 960 480 1037 595 
C 1088 678 1152 762 1216 851 
C 1274 941 1344 1043 1434 1165 
L 1734 794 
L 2003 461 
C 2106 333 2208 243 2323 192 
C 2432 134 2534 109 2624 109 
z
" transform="scale(0.015625)"/>
      </defs>
      <use xlink:href="#HannotateSC-W5-78"/>
     </g>
    </g>
   </g>
   <g id="matplotlib.axis_2">
    <g id="ytick_1">
     <g id="line2d_6">
      <defs>
       <path id="m657518b66d" d="M 0 0 
L -3.5 0 
" style="stroke: #000000; stroke-width: 0.8"/>
      </defs>
      <g>
       <use xlink:href="#m657518b66d" x="57.6" y="307.584" style="stroke: #000000; stroke-width: 0.8"/>
      </g>
     </g>
     <g id="text_7">
      <!-- 0.00 -->
      <g transform="translate(29.739062 311.063687) scale(0.1 -0.1)">
       <defs>
        <path id="HannotateSC-W5-2e" d="M 1248 250 
C 1248 288 1242 326 1229 365 
C 1216 403 1197 435 1165 467 
C 1133 493 1088 518 1030 544 
C 966 557 890 570 800 570 
C 755 570 710 557 672 544 
C 627 525 589 506 563 480 
C 525 448 499 416 480 384 
C 454 346 448 314 448 282 
C 448 243 454 205 474 179 
C 493 147 525 115 576 83 
C 634 45 685 13 730 -6 
C 774 -26 819 -38 858 -38 
C 998 -38 1101 -6 1165 51 
C 1216 109 1248 173 1248 250 
z
" transform="scale(0.015625)"/>
       </defs>
       <use xlink:href="#HannotateSC-W5-30"/>
       <use xlink:href="#HannotateSC-W5-2e" x="60.699997"/>
       <use xlink:href="#HannotateSC-W5-30" x="87.199982"/>
       <use xlink:href="#HannotateSC-W5-30" x="147.899979"/>
      </g>
     </g>
    </g>
    <g id="ytick_2">
     <g id="line2d_7">
      <g>
       <use xlink:href="#m657518b66d" x="57.6" y="251.023128" style="stroke: #000000; stroke-width: 0.8"/>
      </g>
     </g>
     <g id="text_8">
      <!-- 0.05 -->
      <g transform="translate(29.739062 254.502816) scale(0.1 -0.1)">
       <defs>
        <path id="HannotateSC-W5-35" d="M 3507 1523 
C 3507 1869 3366 2144 3098 2355 
C 2957 2451 2810 2515 2650 2541 
C 2483 2560 2323 2573 2157 2573 
C 2003 2573 1843 2554 1690 2528 
C 1536 2490 1370 2445 1190 2394 
C 1210 2637 1229 2861 1254 3066 
L 1306 3712 
C 1536 3731 1754 3757 1958 3782 
L 2566 3878 
C 2605 3885 2650 3891 2701 3898 
C 2746 3898 2790 3898 2842 3910 
L 2976 3936 
C 3014 3936 3059 3949 3098 3968 
C 3123 3981 3142 3994 3155 4006 
C 3162 4019 3168 4045 3168 4083 
C 3168 4109 3149 4141 3117 4179 
C 3078 4211 3040 4243 2995 4269 
C 2944 4294 2893 4320 2842 4346 
C 2790 4358 2746 4371 2720 4371 
C 2694 4371 2675 4365 2650 4358 
C 2624 4346 2605 4339 2579 4333 
L 2496 4307 
C 2464 4294 2438 4288 2419 4282 
C 2253 4237 2074 4205 1882 4179 
C 1683 4154 1491 4147 1306 4147 
C 1261 4186 1222 4218 1190 4230 
C 1152 4243 1107 4256 1069 4256 
C 1030 4256 998 4250 960 4237 
C 915 4224 883 4211 858 4198 
C 819 4122 794 4006 781 3853 
C 762 3693 749 3520 742 3341 
C 730 3149 717 2963 717 2784 
C 704 2605 698 2464 691 2368 
L 678 2285 
L 666 2195 
C 653 2131 646 2074 646 2016 
C 646 1997 653 1978 672 1952 
C 685 1926 710 1907 736 1888 
C 762 1869 787 1856 813 1843 
C 838 1830 858 1824 883 1824 
C 928 1824 973 1830 1011 1843 
C 1043 1856 1082 1869 1126 1894 
C 1165 1914 1210 1939 1254 1965 
C 1293 1984 1338 2003 1389 2022 
C 1517 2061 1638 2093 1760 2106 
C 1875 2118 2003 2131 2144 2131 
C 2246 2131 2349 2118 2451 2093 
C 2547 2067 2637 2029 2714 1978 
C 2790 1926 2848 1856 2899 1766 
C 2944 1677 2970 1568 2970 1440 
C 2970 1254 2931 1094 2867 954 
C 2790 813 2701 698 2586 608 
C 2470 512 2336 442 2189 390 
C 2035 339 1882 320 1728 320 
C 1574 320 1434 339 1318 378 
C 1190 416 1088 461 998 512 
C 947 531 909 557 870 582 
C 832 602 800 621 768 640 
C 730 653 698 672 672 685 
C 640 691 614 698 595 698 
C 531 698 486 672 448 634 
C 403 582 384 525 384 454 
C 384 378 410 314 461 262 
C 512 205 570 160 640 134 
C 691 109 768 83 870 58 
C 960 26 1062 0 1165 -19 
C 1267 -38 1370 -58 1472 -70 
C 1568 -83 1651 -96 1715 -96 
C 1958 -96 2189 -64 2406 0 
C 2624 64 2816 160 2982 301 
C 3142 429 3270 595 3366 800 
C 3456 1005 3507 1242 3507 1523 
z
" transform="scale(0.015625)"/>
       </defs>
       <use xlink:href="#HannotateSC-W5-30"/>
       <use xlink:href="#HannotateSC-W5-2e" x="60.699997"/>
       <use xlink:href="#HannotateSC-W5-30" x="87.199982"/>
       <use xlink:href="#HannotateSC-W5-35" x="147.899979"/>
      </g>
     </g>
    </g>
    <g id="ytick_3">
     <g id="line2d_8">
      <g>
       <use xlink:href="#m657518b66d" x="57.6" y="194.462256" style="stroke: #000000; stroke-width: 0.8"/>
      </g>
     </g>
     <g id="text_9">
      <!-- 0.10 -->
      <g transform="translate(29.739062 197.941944) scale(0.1 -0.1)">
       <defs>
        <path id="HannotateSC-W5-31" d="M 2624 4160 
C 2624 4243 2598 4307 2547 4346 
C 2490 4384 2419 4410 2330 4410 
C 2291 4410 2259 4390 2221 4365 
C 2182 4333 2150 4307 2131 4288 
C 2080 4237 2042 4192 2010 4141 
C 1971 4090 1926 4038 1888 3994 
C 1766 3853 1638 3699 1498 3546 
C 1350 3386 1210 3245 1075 3117 
C 1062 3104 1043 3091 1030 3078 
L 979 3053 
C 960 3040 941 3034 928 3021 
L 870 2982 
C 838 2957 813 2938 794 2918 
C 768 2893 762 2874 762 2854 
C 762 2778 794 2720 870 2675 
C 934 2624 1011 2605 1088 2605 
C 1146 2605 1197 2618 1248 2643 
C 1293 2669 1338 2707 1389 2758 
C 1421 2797 1459 2842 1510 2899 
L 1638 3040 
C 1670 3072 1722 3123 1786 3194 
C 1850 3264 1920 3347 2010 3443 
C 1990 3341 1971 3219 1958 3078 
C 1933 2938 1914 2797 1894 2643 
L 1843 2189 
C 1830 2035 1818 1888 1811 1760 
C 1798 1517 1786 1274 1779 1030 
C 1766 787 1760 576 1760 397 
C 1760 294 1786 218 1843 160 
C 1901 96 1978 70 2080 70 
C 2131 70 2189 83 2253 109 
C 2304 134 2336 166 2336 205 
C 2336 224 2330 262 2330 326 
C 2317 384 2310 454 2304 531 
C 2291 602 2278 678 2278 762 
C 2266 845 2266 922 2266 986 
C 2266 1434 2278 1882 2317 2336 
C 2355 2784 2426 3232 2541 3674 
C 2547 3712 2560 3750 2573 3795 
L 2598 3917 
L 2618 4038 
C 2618 4077 2624 4115 2624 4160 
z
" transform="scale(0.015625)"/>
       </defs>
       <use xlink:href="#HannotateSC-W5-30"/>
       <use xlink:href="#HannotateSC-W5-2e" x="60.699997"/>
       <use xlink:href="#HannotateSC-W5-31" x="87.199982"/>
       <use xlink:href="#HannotateSC-W5-30" x="147.899979"/>
      </g>
     </g>
    </g>
    <g id="ytick_4">
     <g id="line2d_9">
      <g>
       <use xlink:href="#m657518b66d" x="57.6" y="137.901384" style="stroke: #000000; stroke-width: 0.8"/>
      </g>
     </g>
     <g id="text_10">
      <!-- 0.15 -->
      <g transform="translate(29.739062 141.381072) scale(0.1 -0.1)">
       <use xlink:href="#HannotateSC-W5-30"/>
       <use xlink:href="#HannotateSC-W5-2e" x="60.699997"/>
       <use xlink:href="#HannotateSC-W5-31" x="87.199982"/>
       <use xlink:href="#HannotateSC-W5-35" x="147.899979"/>
      </g>
     </g>
    </g>
    <g id="ytick_5">
     <g id="line2d_10">
      <g>
       <use xlink:href="#m657518b66d" x="57.6" y="81.340512" style="stroke: #000000; stroke-width: 0.8"/>
      </g>
     </g>
     <g id="text_11">
      <!-- 0.20 -->
      <g transform="translate(29.739062 84.8202) scale(0.1 -0.1)">
       <use xlink:href="#HannotateSC-W5-30"/>
       <use xlink:href="#HannotateSC-W5-2e" x="60.699997"/>
       <use xlink:href="#HannotateSC-W5-32" x="87.199982"/>
       <use xlink:href="#HannotateSC-W5-30" x="147.899979"/>
      </g>
     </g>
    </g>
    <g id="text_12">
     <!-- 概率 -->
     <g transform="translate(23.529688 184.528) rotate(-90) scale(0.1 -0.1)">
      <defs>
       <path id="HannotateSC-W5-6982" d="M 3693 -576 
C 3757 -576 3821 -531 3885 -454 
C 3923 -410 3942 -378 3942 -358 
C 3942 -333 3930 -307 3917 -282 
C 3891 -262 3878 -243 3866 -224 
C 3827 -160 3776 -51 3725 102 
C 3661 262 3622 442 3597 634 
C 3565 813 3552 922 3552 954 
C 3546 992 3520 1030 3482 1062 
C 3430 1082 3379 1094 3334 1101 
C 3283 1094 3251 1075 3226 1050 
C 3200 1018 3194 979 3194 934 
C 3194 806 3219 627 3277 397 
C 3315 224 3360 58 3424 -102 
C 3373 -141 3309 -192 3226 -250 
C 3085 -333 2970 -378 2867 -384 
C 2746 -384 2688 -282 2688 -90 
L 2714 1555 
C 2861 1587 3008 1613 3149 1626 
C 3309 1638 3411 1651 3462 1651 
C 3488 1651 3526 1645 3584 1638 
C 3635 1632 3674 1632 3699 1632 
C 3814 1632 3878 1683 3878 1779 
C 3878 1811 3853 1850 3808 1894 
C 3834 3366 3846 4166 3846 4301 
C 3846 4403 3795 4486 3706 4557 
C 3616 4621 3533 4659 3443 4659 
C 3283 4659 3123 4640 2957 4614 
L 2771 4576 
C 2720 4602 2650 4621 2547 4621 
C 2451 4621 2406 4582 2406 4518 
C 2413 4454 2419 4416 2419 4410 
C 2419 4096 2406 3539 2387 2739 
L 2317 -90 
C 2317 -230 2342 -346 2400 -435 
C 2496 -589 2650 -672 2861 -672 
C 3021 -666 3200 -608 3392 -493 
C 3443 -454 3488 -422 3539 -390 
C 3597 -512 3648 -576 3693 -576 
z
M 2720 1862 
L 2733 2662 
L 2746 2861 
C 2854 2886 2963 2899 3072 2912 
C 3200 2925 3283 2931 3322 2931 
C 3341 2931 3379 2925 3437 2925 
L 3450 2925 
C 3430 2438 3418 2118 3418 1952 
C 3334 1939 3194 1920 3002 1894 
C 2899 1882 2810 1869 2720 1862 
z
M 2758 3168 
C 2778 3642 2797 3955 2810 4109 
L 2822 4243 
C 2861 4256 2912 4275 2989 4301 
C 3091 4326 3200 4346 3315 4346 
C 3366 4346 3411 4333 3437 4314 
C 3462 4288 3482 4243 3482 4192 
C 3482 4102 3469 3795 3456 3264 
C 3443 3264 3405 3258 3334 3245 
C 3258 3232 3136 3213 2976 3194 
L 2758 3168 
z
M 5530 4230 
C 5581 4230 5638 4224 5702 4211 
C 5760 4198 5818 4192 5875 4192 
C 5965 4192 6010 4243 6010 4339 
C 6010 4378 5958 4435 5856 4506 
C 5754 4563 5683 4595 5645 4595 
L 5402 4557 
C 5344 4550 5210 4544 4998 4531 
L 4589 4506 
C 4442 4493 4282 4474 4115 4454 
C 4090 4448 4077 4435 4077 4410 
C 4077 4358 4096 4294 4141 4230 
C 4179 4154 4224 4122 4282 4122 
C 4301 4122 4326 4122 4352 4128 
C 4371 4134 4397 4141 4435 4154 
C 4589 4179 4781 4198 5024 4211 
L 5062 4211 
C 5050 3834 5011 3328 4941 2694 
L 4883 2202 
C 4781 2189 4672 2182 4563 2182 
C 4461 2182 4403 2259 4403 2426 
C 4403 2650 4467 2995 4602 3462 
C 4608 3488 4621 3520 4640 3546 
C 4653 3571 4659 3597 4659 3616 
C 4659 3667 4614 3718 4538 3757 
C 4461 3795 4397 3814 4358 3814 
C 4269 3814 4224 3763 4218 3674 
L 4205 3597 
C 4096 3117 4038 2752 4038 2496 
C 4038 2291 4077 2138 4154 2022 
C 4256 1901 4403 1837 4582 1837 
C 4666 1837 4749 1837 4826 1850 
C 4762 1453 4678 1088 4582 768 
C 4416 224 4243 -192 4064 -499 
C 4000 -589 3949 -646 3923 -666 
C 3885 -698 3853 -723 3827 -742 
C 3917 -941 4006 -1043 4102 -1043 
C 4166 -1043 4269 -909 4422 -646 
C 4576 -378 4736 13 4890 544 
C 4915 621 4934 704 4960 794 
L 4947 454 
C 4934 147 4928 -83 4928 -237 
C 4928 -429 4947 -582 4998 -704 
C 5075 -864 5229 -947 5453 -947 
C 5619 -947 5766 -909 5907 -838 
C 5971 -787 6010 -742 6010 -691 
C 6010 -659 5997 -627 5984 -602 
C 5933 -544 5875 -518 5798 -518 
C 5786 -518 5773 -525 5760 -538 
C 5645 -608 5549 -646 5466 -646 
C 5331 -646 5267 -544 5267 -339 
C 5267 -160 5280 96 5312 454 
C 5338 832 5357 1114 5357 1293 
C 5357 1370 5344 1434 5325 1491 
C 5286 1562 5222 1600 5139 1606 
C 5152 1696 5171 1786 5184 1888 
C 5466 1926 5702 1997 5901 2106 
C 5965 2131 6003 2182 6003 2253 
C 6003 2291 5997 2323 5984 2349 
C 5946 2406 5888 2438 5811 2438 
L 5786 2438 
C 5779 2438 5651 2394 5408 2317 
C 5357 2298 5299 2285 5242 2272 
C 5242 2285 5242 2310 5248 2336 
C 5338 3014 5389 3450 5402 3654 
L 5446 4166 
C 5453 4186 5459 4205 5466 4230 
L 5530 4230 
z
M 2176 3290 
C 2176 3334 2125 3366 2022 3386 
C 1920 3398 1811 3405 1709 3405 
C 1658 3405 1600 3398 1549 3398 
L 1549 3558 
C 1549 3808 1549 4006 1562 4160 
C 1568 4314 1581 4442 1600 4544 
C 1613 4640 1626 4704 1626 4730 
C 1626 4768 1600 4800 1549 4826 
C 1498 4851 1453 4870 1414 4870 
C 1363 4870 1306 4838 1235 4774 
C 1165 4717 1133 4666 1133 4627 
C 1133 4602 1139 4563 1152 4512 
L 1171 4320 
C 1178 4237 1184 4058 1184 3776 
L 1184 3373 
C 1158 3373 1133 3366 1107 3366 
C 915 3341 710 3302 506 3251 
C 480 3238 467 3213 467 3174 
C 467 3110 480 3040 518 2970 
C 550 2899 589 2867 627 2867 
C 640 2867 678 2880 730 2906 
C 870 2957 1024 2989 1184 3008 
L 1184 2515 
C 1120 2406 1018 2182 890 1837 
C 755 1491 666 1242 614 1088 
C 563 934 518 800 480 698 
C 429 640 403 602 390 582 
C 378 557 371 531 371 512 
C 371 448 390 390 429 333 
C 467 269 506 237 557 237 
C 621 237 672 256 710 301 
C 723 346 736 384 749 422 
C 800 666 877 947 979 1280 
C 1056 1523 1126 1722 1184 1882 
L 1184 1082 
C 1184 493 1178 -6 1178 -442 
L 1178 -762 
C 1178 -979 1274 -1088 1472 -1088 
C 1510 -1088 1555 -1075 1594 -1050 
C 1626 -1030 1645 -998 1645 -954 
C 1645 -922 1638 -890 1632 -864 
C 1619 -832 1606 -800 1600 -774 
C 1574 -646 1562 -531 1555 -422 
C 1530 58 1517 602 1517 1216 
L 1523 1786 
L 1626 1683 
C 1709 1594 1779 1523 1843 1485 
C 1901 1434 1939 1414 1965 1414 
C 2016 1414 2054 1427 2093 1466 
C 2118 1491 2138 1523 2157 1574 
C 2170 1619 2176 1658 2176 1690 
C 2176 1728 2157 1760 2125 1773 
C 2067 1792 2022 1805 1997 1805 
C 1958 1818 1920 1843 1875 1882 
C 1824 1914 1779 1958 1728 2016 
C 1670 2061 1619 2118 1568 2182 
C 1555 2195 1542 2208 1530 2227 
L 1542 3040 
C 1619 3040 1683 3046 1741 3046 
C 1779 3046 1850 3040 1939 3040 
C 2016 3034 2074 3034 2112 3034 
C 2138 3034 2150 3059 2163 3110 
C 2170 3155 2176 3213 2176 3290 
z
" transform="scale(0.015625)"/>
       <path id="HannotateSC-W5-7387" d="M 717 4166 
C 666 4115 634 4070 634 4026 
C 634 3981 640 3942 653 3917 
C 666 3891 685 3859 717 3834 
C 742 3802 781 3789 819 3789 
C 896 3789 1158 3802 1606 3840 
C 2029 3866 2662 3898 3520 3930 
C 4365 3962 4979 3981 5363 3981 
C 5402 3981 5440 3974 5472 3974 
C 5498 3974 5536 3968 5574 3968 
C 5613 3962 5638 3962 5658 3962 
C 5709 3962 5747 3974 5773 4006 
C 5798 4045 5818 4083 5818 4128 
C 5818 4179 5798 4224 5766 4256 
C 5728 4282 5690 4307 5651 4333 
C 5613 4346 5574 4358 5523 4358 
C 5466 4358 5312 4346 5056 4320 
C 4851 4307 4333 4282 3488 4243 
C 3475 4320 3411 4454 3290 4640 
C 3149 4832 3027 4934 2931 4947 
C 2854 4947 2803 4922 2778 4877 
C 2739 4826 2720 4768 2720 4717 
C 2720 4678 2739 4646 2790 4627 
C 2829 4602 2874 4570 2931 4525 
C 2976 4480 3034 4416 3110 4326 
C 3130 4288 3149 4256 3174 4230 
L 2835 4218 
C 1594 4166 947 4141 896 4141 
C 864 4141 838 4141 813 4147 
C 787 4147 762 4154 749 4154 
C 730 4154 717 4160 717 4166 
z
M 2394 2739 
C 2304 2739 2266 2771 2266 2835 
C 2266 2912 2406 3034 2694 3187 
C 2970 3315 3194 3405 3373 3443 
C 3411 3462 3437 3494 3437 3533 
C 3437 3584 3398 3642 3328 3706 
C 3238 3763 3168 3795 3117 3795 
C 3078 3795 3053 3789 3040 3776 
C 3027 3750 3014 3731 2995 3712 
C 2854 3654 2675 3552 2451 3405 
C 2221 3258 2067 3136 1997 3046 
C 1920 2944 1888 2874 1888 2829 
C 1888 2566 2054 2438 2381 2438 
C 2490 2438 2605 2438 2720 2451 
C 2419 2246 2208 2067 2093 1926 
C 1952 1760 1882 1619 1882 1517 
C 1882 1229 2061 1088 2406 1088 
C 2592 1088 2790 1101 3002 1139 
C 3002 1126 3008 1107 3008 1088 
C 3014 986 3021 883 3021 781 
L 3021 589 
C 2778 576 2522 570 2266 557 
C 1715 531 1114 493 454 448 
C 422 442 410 429 410 410 
C 410 358 429 294 480 218 
C 518 141 570 109 627 109 
C 704 109 794 115 890 128 
C 979 141 1088 154 1222 166 
C 1709 211 2304 250 3021 282 
L 3021 -109 
C 3021 -211 3014 -390 3014 -646 
C 3014 -723 3014 -787 3027 -851 
C 3034 -934 3059 -1011 3098 -1088 
C 3136 -1120 3181 -1139 3232 -1139 
C 3283 -1139 3341 -1094 3392 -1011 
C 3424 -934 3443 -864 3443 -800 
C 3418 -640 3405 -416 3405 -128 
L 3405 294 
L 3507 294 
C 4429 320 5088 339 5485 339 
C 5542 339 5606 333 5670 320 
C 5728 301 5786 294 5850 294 
C 5946 294 5997 346 5997 448 
C 5997 486 5939 544 5830 621 
C 5728 678 5658 710 5613 710 
C 5485 691 5402 678 5357 678 
L 3827 621 
L 3405 608 
L 3405 717 
C 3405 794 3411 896 3437 1024 
C 3456 1101 3469 1158 3469 1197 
C 3469 1203 3462 1210 3462 1222 
C 3667 1261 3859 1318 4045 1382 
C 4083 1318 4134 1261 4192 1203 
C 4333 1050 4442 973 4525 973 
C 4576 973 4634 1005 4691 1075 
C 4723 1114 4742 1139 4742 1165 
C 4742 1184 4730 1203 4717 1222 
L 4666 1274 
C 4595 1312 4506 1389 4403 1504 
C 4288 1619 4198 1741 4134 1875 
C 4083 2003 4058 2074 4058 2099 
C 4051 2138 4026 2176 3987 2202 
C 3942 2221 3898 2234 3859 2240 
C 3808 2234 3770 2221 3750 2195 
C 3725 2163 3718 2125 3718 2080 
C 3718 1990 3763 1862 3853 1683 
C 3251 1498 2765 1408 2381 1408 
C 2298 1408 2259 1440 2259 1504 
C 2259 1683 2515 1926 3040 2246 
C 3552 2554 3936 2739 4192 2810 
C 4230 2822 4256 2842 4275 2861 
C 4288 2874 4301 2893 4301 2931 
C 4301 2995 4262 3053 4192 3110 
C 4115 3168 4045 3200 3981 3206 
C 3923 3206 3891 3194 3878 3181 
C 3878 3155 3872 3136 3866 3123 
C 3699 3053 3514 2957 3309 2835 
C 3270 2829 3232 2822 3187 2822 
C 2874 2765 2611 2739 2394 2739 
z
M 1606 2880 
C 1606 2886 1587 2899 1555 2925 
L 1453 2989 
C 1229 3155 1075 3264 986 3315 
C 896 3360 845 3392 819 3418 
C 774 3456 736 3482 710 3482 
C 666 3482 621 3443 576 3379 
C 531 3315 512 3264 512 3226 
C 512 3206 518 3187 538 3168 
C 550 3149 614 3104 736 3040 
C 858 2963 973 2880 1075 2803 
C 1178 2714 1242 2656 1267 2637 
C 1299 2598 1325 2586 1350 2586 
C 1414 2586 1459 2598 1498 2624 
C 1542 2662 1574 2701 1587 2752 
C 1600 2790 1606 2829 1606 2880 
z
M 4614 2835 
C 4614 2784 4627 2733 4666 2682 
C 4698 2624 4736 2598 4774 2598 
C 4832 2598 4877 2611 4915 2650 
C 4928 2662 4947 2675 4960 2688 
C 5024 2765 5126 2854 5267 2957 
C 5453 3085 5594 3174 5690 3226 
C 5779 3270 5843 3296 5869 3302 
C 5901 3341 5920 3386 5920 3437 
C 5920 3501 5869 3539 5773 3552 
C 5722 3552 5664 3533 5594 3507 
C 5510 3475 5389 3411 5222 3322 
C 5056 3219 4941 3142 4883 3104 
C 4813 3066 4755 3027 4710 3002 
C 4672 2950 4646 2912 4634 2893 
C 4621 2867 4614 2848 4614 2835 
z
M 5978 1498 
C 5978 1510 5958 1523 5933 1536 
L 5856 1574 
C 5818 1594 5709 1670 5530 1798 
C 5350 1933 5197 2042 5069 2118 
C 4934 2195 4851 2246 4813 2278 
C 4774 2304 4749 2317 4723 2317 
C 4685 2317 4646 2291 4614 2246 
C 4576 2189 4563 2144 4563 2118 
C 4563 2086 4576 2054 4608 2029 
C 4634 2003 4666 1978 4710 1952 
C 4762 1920 4813 1888 4877 1850 
C 5056 1722 5222 1594 5363 1478 
C 5491 1350 5574 1274 5613 1235 
C 5651 1190 5690 1171 5722 1171 
C 5766 1171 5811 1178 5850 1197 
C 5888 1216 5920 1254 5946 1312 
C 5965 1363 5978 1421 5978 1498 
z
M 403 1248 
C 403 1190 422 1133 461 1082 
C 499 1018 538 992 582 992 
C 646 992 691 1011 730 1050 
L 781 1101 
C 858 1197 966 1312 1114 1453 
C 1312 1632 1459 1747 1555 1805 
C 1658 1862 1722 1894 1747 1907 
C 1786 1952 1805 2003 1805 2054 
C 1805 2125 1754 2163 1651 2176 
C 1600 2176 1536 2150 1459 2112 
C 1370 2067 1242 1984 1062 1856 
C 883 1722 755 1626 691 1574 
L 512 1427 
C 461 1370 435 1331 422 1312 
C 410 1286 403 1267 403 1248 
z
" transform="scale(0.015625)"/>
      </defs>
      <use xlink:href="#HannotateSC-W5-6982"/>
      <use xlink:href="#HannotateSC-W5-7387" x="99.999985"/>
     </g>
    </g>
   </g>
   <g id="patch_13">
    <path d="M 57.6 307.584 
L 57.6 41.472 
" style="fill: none; stroke: #000000; stroke-width: 0.8; stroke-linejoin: miter; stroke-linecap: square"/>
   </g>
   <g id="patch_14">
    <path d="M 414.72 307.584 
L 414.72 41.472 
" style="fill: none; stroke: #000000; stroke-width: 0.8; stroke-linejoin: miter; stroke-linecap: square"/>
   </g>
   <g id="patch_15">
    <path d="M 57.6 307.584 
L 414.72 307.584 
" style="fill: none; stroke: #000000; stroke-width: 0.8; stroke-linejoin: miter; stroke-linecap: square"/>
   </g>
   <g id="patch_16">
    <path d="M 57.6 41.472 
L 414.72 41.472 
" style="fill: none; stroke: #000000; stroke-width: 0.8; stroke-linejoin: miter; stroke-linecap: square"/>
   </g>
   <g id="text_13">
    <!-- 泊松分布 (Poisson Distribution) -->
    <g transform="translate(153.174375 35.472) scale(0.12 -0.12)">
     <defs>
      <path id="HannotateSC-W5-6cca" d="M 5229 4403 
C 5248 4416 5261 4474 5261 4576 
C 5242 4646 5171 4710 5056 4768 
C 4998 4768 4902 4749 4762 4710 
C 4384 4621 4019 4525 3674 4422 
C 3322 4314 3014 4230 2752 4166 
C 2669 4147 2579 4128 2477 4115 
C 2426 4051 2406 3981 2406 3891 
C 2406 3789 2464 3718 2586 3693 
C 2650 3693 2701 3699 2752 3725 
L 3059 3834 
C 3827 4090 4448 4256 4922 4346 
L 5229 4403 
z
M 5312 1728 
C 5299 1728 5280 1722 5242 1715 
L 5082 1690 
C 4934 1670 4774 1658 4595 1645 
L 3802 1587 
C 3456 1562 3238 1549 3162 1549 
L 3098 1549 
L 3098 1939 
C 3098 2170 3104 2502 3123 2944 
L 3123 2950 
C 3155 2957 3200 2970 3251 2989 
C 3917 3187 4506 3290 5018 3290 
C 5133 3290 5216 3251 5254 3181 
C 5293 3098 5318 2989 5318 2861 
C 5318 2464 5312 2086 5312 1728 
z
M 3136 3366 
C 3117 3386 3091 3405 3066 3430 
C 2976 3482 2906 3514 2848 3520 
C 2714 3520 2650 3462 2650 3360 
C 2650 3347 2656 3309 2656 3258 
C 2656 3206 2662 3168 2662 3130 
C 2669 2618 2675 2221 2675 1939 
C 2675 422 2726 -506 2835 -851 
C 2880 -973 2950 -1037 3053 -1043 
C 3130 -1043 3187 -1005 3226 -934 
C 3238 -909 3245 -877 3251 -845 
C 3680 -787 4090 -749 4480 -736 
C 4883 -710 5139 -704 5248 -704 
C 5286 -704 5338 -710 5414 -723 
C 5491 -723 5542 -730 5568 -730 
C 5728 -723 5811 -659 5811 -531 
C 5811 -486 5786 -442 5734 -390 
C 5760 -186 5779 192 5779 749 
L 5779 2912 
C 5773 3085 5747 3232 5696 3347 
C 5632 3437 5555 3520 5453 3584 
C 5350 3635 5235 3661 5120 3661 
C 4576 3661 3917 3558 3136 3366 
z
M 3181 -422 
C 3168 -365 3162 -307 3162 -250 
C 3149 -154 3142 64 3130 416 
C 3117 646 3104 902 3104 1197 
L 3437 1222 
C 3693 1242 3987 1261 4333 1286 
C 4742 1312 5069 1331 5312 1338 
L 5299 627 
C 5280 102 5261 -192 5248 -275 
C 5203 -275 5152 -275 5088 -288 
C 4883 -307 4550 -333 4102 -365 
L 3181 -422 
z
M 870 4614 
C 806 4614 762 4602 723 4576 
C 678 4544 659 4493 659 4416 
C 659 4333 672 4275 704 4237 
C 742 4198 781 4179 819 4179 
C 858 4179 896 4186 934 4186 
C 1088 4186 1222 4147 1338 4077 
C 1440 3987 1523 3917 1581 3866 
C 1651 3789 1702 3750 1734 3750 
C 1773 3750 1798 3776 1824 3840 
C 1843 3891 1856 3955 1856 4019 
C 1856 4109 1792 4198 1677 4294 
C 1549 4397 1408 4474 1254 4538 
C 1101 4589 973 4614 870 4614 
z
M 576 2650 
C 512 2650 467 2637 429 2611 
C 384 2579 365 2528 365 2451 
C 365 2362 378 2304 410 2272 
C 448 2234 486 2214 525 2214 
C 563 2214 602 2221 640 2221 
C 813 2221 966 2189 1094 2125 
C 1216 2061 1306 2003 1370 1965 
C 1446 1901 1504 1869 1542 1869 
C 1581 1869 1606 1894 1632 1958 
C 1651 2010 1664 2074 1664 2138 
C 1664 2214 1594 2291 1466 2374 
C 1325 2464 1171 2534 1005 2586 
C 832 2624 691 2650 576 2650 
z
M 442 -346 
C 429 -422 422 -499 422 -576 
C 422 -640 442 -698 480 -736 
C 518 -774 570 -800 640 -806 
C 678 -806 742 -762 838 -672 
C 922 -595 1050 -493 1222 -365 
C 1389 -230 1530 -141 1632 -96 
C 1722 -45 1786 -13 1824 0 
C 1869 13 1901 38 1914 70 
C 1920 96 1926 128 1926 154 
C 1920 186 1907 224 1882 275 
C 1843 314 1798 339 1741 339 
C 1690 339 1606 307 1498 256 
C 1389 192 1248 109 1069 6 
C 890 -109 755 -192 666 -250 
L 442 -346 
z
" transform="scale(0.015625)"/>
      <path id="HannotateSC-W5-677e" d="M 2579 3264 
C 2579 3315 2528 3347 2432 3360 
C 2323 3373 2214 3379 2112 3379 
C 2010 3379 1901 3373 1798 3373 
L 1798 3539 
C 1798 3782 1798 3987 1811 4147 
C 1818 4294 1830 4416 1856 4518 
C 1869 4614 1882 4678 1882 4704 
C 1882 4742 1850 4781 1798 4813 
C 1747 4838 1696 4858 1651 4858 
C 1600 4858 1536 4819 1466 4755 
C 1382 4698 1344 4646 1344 4595 
C 1344 4563 1350 4518 1370 4467 
C 1370 4403 1376 4333 1389 4256 
C 1395 4173 1402 3974 1402 3661 
L 1402 3354 
C 1376 3354 1344 3347 1306 3347 
C 1050 3322 781 3277 506 3226 
C 480 3213 467 3187 467 3149 
C 467 3085 480 3014 518 2944 
C 550 2874 589 2842 627 2842 
C 646 2842 698 2854 774 2880 
C 973 2931 1184 2963 1402 2982 
L 1402 2470 
L 1389 2458 
C 1312 2355 1184 2138 1018 1818 
C 851 1491 736 1254 672 1114 
L 506 749 
C 448 685 410 640 397 614 
C 384 582 384 557 384 538 
C 384 467 403 403 448 339 
C 486 269 538 237 589 237 
C 659 237 717 256 762 307 
C 781 346 794 384 806 422 
C 870 653 973 928 1107 1242 
C 1222 1510 1325 1728 1402 1882 
L 1402 1082 
C 1402 518 1395 32 1389 -378 
L 1389 -730 
C 1389 -960 1498 -1082 1722 -1082 
C 1760 -1082 1805 -1069 1843 -1043 
C 1882 -1018 1901 -979 1901 -934 
C 1901 -896 1894 -864 1882 -838 
C 1869 -806 1862 -774 1850 -742 
C 1824 -621 1811 -506 1805 -403 
C 1779 70 1766 608 1766 1210 
L 1773 1734 
C 1811 1696 1856 1658 1920 1613 
C 2035 1510 2131 1434 2214 1382 
C 2285 1325 2336 1299 2368 1299 
C 2419 1299 2464 1312 2502 1350 
C 2522 1376 2541 1414 2560 1466 
C 2573 1504 2579 1542 2579 1574 
C 2579 1613 2560 1645 2534 1664 
C 2477 1683 2432 1696 2406 1696 
C 2349 1709 2291 1741 2234 1779 
C 2170 1818 2099 1869 2022 1939 
C 1946 1990 1869 2054 1805 2131 
L 1779 2157 
L 1792 3008 
C 1933 3014 2054 3021 2150 3021 
C 2189 3021 2253 3014 2342 3014 
C 2419 3008 2483 3008 2522 3008 
C 2541 3008 2554 3034 2566 3091 
C 2573 3130 2579 3187 2579 3264 
z
M 4102 4582 
C 4102 4634 4070 4672 4006 4710 
C 3942 4762 3878 4787 3814 4787 
C 3738 4787 3693 4749 3674 4685 
C 3667 4672 3654 4646 3642 4608 
C 3629 4570 3616 4538 3603 4512 
C 3398 4038 3200 3603 3021 3194 
C 2867 2867 2765 2669 2726 2598 
L 2643 2477 
C 2618 2445 2611 2419 2611 2394 
C 2611 2342 2637 2272 2701 2195 
C 2758 2118 2810 2080 2861 2080 
C 2944 2080 2995 2125 3014 2214 
C 3053 2330 3123 2502 3226 2733 
C 3315 2963 3450 3258 3629 3629 
C 3795 4000 3923 4256 4013 4397 
C 4032 4442 4051 4480 4070 4512 
C 4090 4544 4102 4570 4102 4582 
z
M 5830 2208 
C 5946 2208 6003 2253 6016 2349 
C 6016 2406 6003 2445 5990 2470 
C 5965 2502 5933 2522 5901 2534 
C 5850 2547 5818 2560 5811 2566 
C 5722 2650 5600 2835 5453 3117 
C 5293 3398 5158 3712 5056 4045 
C 4947 4378 4890 4595 4883 4710 
C 4877 4723 4864 4749 4851 4774 
C 4832 4787 4800 4806 4762 4832 
C 4710 4845 4659 4858 4608 4858 
C 4557 4858 4512 4838 4486 4800 
C 4448 4762 4435 4710 4435 4653 
C 4435 4550 4506 4314 4640 3955 
C 4774 3597 4947 3245 5165 2899 
C 5370 2554 5549 2336 5696 2240 
C 5747 2214 5792 2208 5830 2208 
z
M 3514 -608 
C 3354 -602 3270 -525 3264 -378 
C 3264 -38 3443 454 3814 1107 
C 4186 1754 4448 2125 4602 2227 
C 4634 2266 4653 2298 4659 2336 
C 4659 2387 4634 2432 4595 2477 
C 4544 2515 4499 2547 4454 2560 
C 4403 2573 4365 2586 4333 2586 
C 4179 2579 3885 2157 3443 1325 
C 3046 531 2848 -32 2848 -371 
C 2848 -755 3098 -954 3590 -954 
C 3834 -954 4109 -902 4403 -813 
C 4646 -730 4864 -627 5069 -506 
L 5158 -672 
C 5312 -947 5440 -1088 5536 -1088 
C 5600 -1088 5664 -1043 5734 -966 
C 5766 -928 5786 -896 5786 -870 
C 5786 -845 5773 -819 5760 -794 
C 5741 -774 5722 -755 5709 -736 
C 5626 -646 5530 -486 5421 -256 
C 5293 -13 5197 237 5139 518 
C 5075 794 5043 954 5043 992 
C 5037 1043 5005 1088 4954 1126 
C 4902 1152 4845 1165 4787 1171 
C 4723 1165 4678 1146 4653 1107 
C 4627 1069 4614 1024 4614 960 
C 4614 794 4659 550 4762 224 
C 4806 96 4858 -32 4909 -160 
C 4346 -454 3885 -608 3514 -608 
z
" transform="scale(0.015625)"/>
      <path id="HannotateSC-W5-5206" d="M 5939 3002 
C 5786 3053 5613 3149 5434 3290 
C 5254 3424 5050 3603 4826 3827 
C 4595 4038 4384 4262 4192 4506 
C 3987 4742 3866 4864 3834 4864 
C 3776 4864 3725 4845 3680 4813 
C 3616 4736 3584 4672 3584 4614 
C 3584 4550 3603 4499 3642 4474 
C 3674 4429 3776 4320 3942 4154 
C 4102 3981 4346 3744 4666 3450 
C 4986 3149 5254 2918 5459 2758 
C 5658 2598 5798 2522 5888 2522 
C 5952 2522 6010 2534 6048 2573 
C 6080 2611 6106 2662 6125 2720 
C 6138 2778 6150 2822 6150 2854 
C 6150 2906 6125 2938 6086 2963 
C 6022 2989 5971 3002 5939 3002 
z
M 4070 2016 
C 4474 2016 4704 1888 4755 1645 
C 4742 1120 4659 429 4493 -429 
C 4454 -550 4410 -634 4371 -672 
C 4320 -710 4301 -749 4301 -774 
C 4390 -960 4474 -1056 4544 -1069 
C 4582 -1069 4646 -1050 4723 -1018 
C 4813 -973 4858 -941 4870 -922 
C 4883 -896 4909 -819 4934 -678 
C 4960 -576 4979 -499 4979 -442 
C 5133 448 5210 1171 5216 1728 
C 5203 1843 5152 1952 5062 2048 
C 4973 2144 4845 2227 4685 2291 
C 4531 2355 4320 2394 4038 2394 
C 3437 2387 2797 2304 2125 2138 
C 1453 1971 1120 1850 1120 1786 
C 1120 1722 1152 1651 1222 1562 
C 1293 1472 1363 1434 1427 1434 
C 1453 1434 1472 1434 1498 1446 
L 1792 1581 
C 1946 1658 2240 1747 2662 1850 
C 2707 1862 2758 1869 2810 1882 
C 2739 1779 2630 1568 2477 1248 
C 2310 922 2157 614 2003 333 
L 1690 -275 
C 1626 -384 1568 -474 1530 -544 
C 1485 -608 1466 -659 1466 -691 
C 1466 -742 1498 -806 1568 -896 
C 1638 -973 1702 -1018 1760 -1018 
C 1830 -1018 1888 -986 1933 -922 
C 1965 -858 2016 -736 2086 -570 
C 2163 -403 2330 -38 2592 525 
C 2854 1094 3027 1440 3104 1562 
C 3181 1690 3226 1773 3232 1811 
C 3232 1862 3213 1907 3174 1946 
C 3450 1984 3750 2010 4070 2016 
z
M 397 2342 
C 397 2266 422 2195 474 2125 
C 518 2048 570 2016 627 2016 
C 704 2016 768 2035 819 2086 
C 858 2138 890 2182 915 2234 
C 1043 2502 1235 2822 1498 3194 
C 1850 3686 2112 4013 2285 4179 
C 2464 4339 2579 4429 2630 4454 
C 2675 4512 2701 4576 2701 4653 
C 2701 4742 2630 4794 2496 4806 
C 2406 4800 2291 4736 2157 4621 
C 2016 4499 1786 4243 1478 3859 
C 1171 3462 966 3181 851 3008 
C 723 2835 621 2688 538 2566 
C 474 2502 435 2451 416 2426 
C 403 2394 397 2368 397 2342 
z
" transform="scale(0.015625)"/>
      <path id="HannotateSC-W5-5e03" d="M 5402 3610 
C 5466 3610 5530 3603 5606 3590 
C 5683 3571 5754 3565 5818 3565 
C 5920 3571 5978 3629 5978 3738 
C 5978 3789 5914 3853 5792 3930 
C 5677 4000 5594 4038 5542 4038 
L 5254 4000 
C 5050 3981 4557 3955 3789 3917 
C 3450 3898 3098 3878 2739 3859 
C 2912 4115 3040 4288 3123 4378 
C 3264 4544 3341 4653 3347 4704 
C 3347 4755 3328 4800 3296 4845 
C 3258 4883 3194 4909 3117 4909 
C 3027 4909 2963 4870 2925 4794 
C 2784 4640 2573 4346 2278 3910 
C 2259 3885 2240 3853 2227 3827 
C 1715 3789 1152 3744 544 3680 
C 506 3667 493 3648 493 3622 
C 493 3565 518 3494 576 3418 
C 621 3328 672 3290 736 3290 
C 813 3290 896 3296 986 3315 
C 1075 3328 1184 3347 1312 3366 
C 1504 3392 1728 3418 1971 3443 
C 1786 3174 1606 2912 1434 2662 
C 1152 2272 960 2003 845 1850 
C 730 1690 634 1568 563 1478 
C 480 1382 442 1312 442 1274 
C 442 1222 474 1152 550 1062 
C 627 973 698 934 762 934 
C 838 934 896 966 934 1030 
C 998 1120 1101 1280 1229 1504 
C 1312 1638 1466 1882 1696 2240 
C 1702 2214 1709 2182 1709 2150 
C 1709 1203 1734 474 1798 -38 
C 1798 -77 1818 -109 1856 -147 
C 1894 -179 1952 -198 2029 -198 
C 2086 -198 2138 -179 2182 -147 
C 2221 -115 2240 -64 2240 6 
C 2240 45 2227 109 2214 205 
C 2189 294 2176 474 2163 736 
C 2150 928 2138 1286 2138 1818 
C 2182 1830 2240 1850 2317 1869 
C 2662 1952 3008 2022 3347 2074 
L 3347 38 
C 3347 -77 3341 -269 3341 -550 
C 3341 -627 3341 -704 3354 -768 
C 3360 -858 3386 -941 3437 -1018 
C 3482 -1056 3533 -1075 3584 -1075 
C 3635 -1075 3693 -1024 3757 -934 
C 3795 -851 3814 -774 3814 -710 
C 3789 -531 3776 -294 3776 13 
L 3776 2125 
C 4045 2150 4307 2170 4563 2170 
C 4781 2163 4922 2138 4973 2093 
C 5024 2042 5050 1984 5050 1914 
C 5018 1318 4979 781 4941 294 
C 4934 282 4928 262 4928 243 
C 4915 211 4909 192 4909 186 
C 4909 147 4928 102 4979 45 
C 5037 -6 5088 -38 5126 -38 
C 5190 -38 5248 -13 5312 38 
C 5370 90 5402 134 5402 166 
C 5414 250 5434 550 5459 1069 
L 5504 1952 
C 5498 2093 5453 2208 5363 2285 
C 5267 2362 5171 2413 5069 2445 
C 4979 2470 4845 2490 4666 2496 
C 4397 2496 4096 2477 3776 2445 
L 3776 2598 
C 3776 2688 3789 2797 3814 2925 
C 3834 3014 3846 3072 3846 3110 
C 3846 3155 3814 3200 3757 3238 
C 3667 3290 3590 3315 3526 3315 
C 3386 3315 3322 3258 3322 3142 
C 3328 3091 3334 3046 3334 3002 
C 3341 2893 3347 2784 3347 2669 
L 3347 2400 
C 2982 2349 2586 2291 2163 2214 
L 2163 2227 
C 2163 2278 2125 2317 2061 2355 
C 1997 2394 1926 2413 1856 2413 
L 1805 2413 
L 2170 2982 
C 2285 3162 2394 3334 2496 3488 
C 2797 3514 3130 3533 3501 3546 
C 4384 3584 5018 3610 5402 3610 
z
" transform="scale(0.015625)"/>
      <path id="HannotateSC-W5-20" transform="scale(0.015625)"/>
      <path id="HannotateSC-W5-28" d="M 1574 4595 
C 1574 4691 1542 4768 1491 4832 
C 1434 4890 1357 4922 1267 4922 
C 1203 4922 1139 4890 1075 4838 
C 1011 4781 960 4704 909 4608 
C 851 4506 800 4390 755 4256 
C 710 4122 672 3974 646 3814 
C 608 3622 576 3430 550 3238 
C 525 3040 506 2854 493 2682 
C 474 2509 461 2355 461 2221 
C 448 2080 448 1978 448 1914 
C 448 1587 461 1261 499 928 
C 538 589 589 262 659 -58 
C 672 -122 691 -211 730 -320 
C 762 -422 800 -531 845 -646 
C 883 -749 934 -851 986 -941 
C 1030 -1030 1075 -1088 1126 -1120 
C 1152 -1139 1190 -1152 1229 -1152 
C 1350 -1152 1414 -1075 1414 -922 
C 1414 -858 1408 -794 1395 -736 
C 1331 -640 1274 -518 1222 -371 
C 1171 -218 1126 -58 1088 115 
C 1050 288 1018 474 992 666 
C 966 858 941 1043 928 1222 
C 909 1402 896 1568 890 1722 
C 877 1875 877 2003 877 2112 
C 877 2355 890 2598 922 2848 
C 954 3091 992 3328 1037 3571 
C 1056 3693 1101 3821 1165 3949 
C 1229 4070 1299 4179 1389 4275 
L 1453 4352 
C 1472 4378 1491 4403 1517 4435 
C 1555 4486 1574 4544 1574 4595 
z
" transform="scale(0.015625)"/>
      <path id="HannotateSC-W5-50" d="M 3462 2822 
C 3462 2963 3437 3117 3392 3277 
C 3341 3430 3277 3578 3187 3718 
C 3098 3859 2995 3981 2867 4090 
C 2739 4192 2592 4275 2438 4326 
C 2362 4346 2278 4358 2202 4371 
C 2118 4378 2035 4384 1952 4384 
C 1830 4384 1722 4371 1632 4358 
C 1536 4346 1459 4326 1395 4307 
C 1357 4294 1306 4269 1254 4243 
C 1197 4211 1139 4179 1082 4141 
C 1075 4154 1069 4166 1069 4192 
C 1062 4218 1062 4237 1062 4256 
C 1037 4294 1005 4320 954 4346 
C 902 4371 851 4384 806 4384 
C 774 4384 742 4378 704 4371 
C 666 4365 627 4358 595 4346 
C 557 4333 531 4314 512 4294 
C 486 4269 474 4237 474 4198 
C 474 4173 480 4141 499 4102 
L 518 4051 
C 518 4032 525 4006 525 3974 
L 525 3917 
C 474 3648 435 3373 416 3104 
C 390 2829 384 2554 384 2278 
C 384 2138 384 1965 397 1773 
C 397 1581 410 1382 422 1184 
C 435 979 461 787 486 602 
C 512 410 550 256 595 128 
C 608 77 640 45 691 19 
C 736 -6 787 -19 845 -19 
C 915 -19 979 -6 1037 19 
C 1088 45 1120 83 1120 147 
C 1120 179 1107 211 1082 250 
C 1069 275 1056 301 1050 326 
L 1030 390 
C 992 525 966 678 947 858 
C 922 1030 896 1229 883 1446 
C 1062 1370 1222 1318 1370 1286 
C 1517 1254 1645 1242 1760 1242 
C 2029 1242 2272 1280 2483 1357 
C 2694 1434 2874 1536 3021 1677 
C 3162 1811 3277 1978 3354 2170 
C 3424 2362 3462 2579 3462 2822 
z
M 2982 2758 
C 2982 2586 2944 2432 2880 2298 
C 2816 2157 2726 2035 2611 1939 
C 2496 1837 2355 1760 2202 1709 
C 2048 1658 1882 1632 1709 1632 
C 1581 1632 1466 1645 1363 1683 
C 1254 1709 1146 1754 1037 1818 
C 1011 1830 986 1850 960 1862 
L 864 1920 
C 858 1990 858 2054 858 2106 
C 858 2157 864 2214 864 2266 
C 864 2381 864 2477 870 2554 
L 870 2765 
L 883 2925 
L 896 3072 
C 922 3168 954 3264 998 3360 
C 1037 3450 1082 3520 1133 3571 
C 1267 3712 1402 3821 1536 3885 
C 1664 3949 1792 3981 1933 3981 
C 2061 3981 2189 3955 2317 3917 
C 2438 3872 2547 3802 2650 3706 
C 2752 3610 2829 3488 2893 3334 
C 2950 3174 2982 2982 2982 2758 
z
" transform="scale(0.015625)"/>
      <path id="HannotateSC-W5-6f" d="M 3034 1427 
C 3034 1651 2995 1856 2931 2042 
C 2861 2221 2765 2381 2637 2509 
C 2509 2637 2355 2733 2176 2810 
C 1990 2874 1786 2912 1555 2912 
C 1370 2912 1197 2867 1043 2784 
C 883 2694 742 2573 627 2426 
C 512 2272 422 2099 358 1907 
C 288 1709 256 1504 256 1286 
C 256 1069 288 877 358 698 
C 422 518 512 371 634 250 
C 749 122 890 19 1050 -45 
C 1210 -109 1382 -147 1574 -147 
C 1786 -147 1984 -102 2163 -19 
C 2342 58 2496 173 2624 320 
C 2752 461 2848 634 2925 826 
C 2995 1011 3034 1210 3034 1427 
z
M 2586 1510 
C 2586 1325 2560 1158 2509 1005 
C 2451 851 2381 723 2291 621 
C 2202 506 2093 422 1971 365 
C 1850 301 1722 275 1594 275 
C 1453 275 1331 301 1229 352 
C 1126 397 1037 467 973 557 
C 902 646 851 749 819 877 
C 781 992 768 1126 768 1267 
C 768 1434 794 1587 845 1734 
C 896 1882 960 2016 1050 2131 
C 1126 2240 1222 2330 1338 2394 
C 1446 2458 1562 2490 1690 2490 
C 1798 2490 1907 2470 2022 2432 
C 2125 2394 2221 2330 2304 2253 
C 2387 2170 2458 2067 2509 1952 
C 2560 1824 2586 1677 2586 1510 
z
" transform="scale(0.015625)"/>
      <path id="HannotateSC-W5-69" d="M 928 3469 
C 1030 3469 1114 3494 1178 3552 
C 1242 3603 1274 3680 1274 3782 
C 1274 3904 1229 4000 1139 4077 
C 1043 4141 934 4179 806 4179 
C 704 4179 621 4147 550 4090 
C 480 4032 448 3955 448 3859 
C 448 3802 461 3750 486 3706 
C 512 3654 550 3616 602 3578 
C 640 3539 691 3514 755 3501 
C 806 3475 864 3469 928 3469 
z
M 1101 2438 
C 1101 2458 1107 2477 1114 2490 
L 1114 2547 
C 1114 2573 1101 2598 1075 2624 
C 1050 2650 1018 2669 986 2694 
C 947 2720 909 2739 870 2752 
C 826 2765 787 2771 755 2771 
C 691 2771 640 2765 614 2752 
C 589 2739 563 2714 550 2682 
C 525 2630 512 2566 512 2496 
L 512 1760 
C 506 1626 506 1485 506 1338 
C 506 1190 499 1050 499 922 
L 499 371 
C 499 333 506 288 525 250 
C 544 198 570 160 602 122 
C 634 83 672 58 710 32 
C 749 6 781 0 819 0 
C 858 0 896 6 934 32 
C 966 58 998 83 1024 122 
C 1043 154 1062 192 1075 237 
C 1088 275 1094 307 1094 346 
C 1069 403 1056 467 1050 531 
C 1037 589 1037 640 1037 691 
L 1037 1325 
C 1037 1421 1043 1517 1043 1606 
C 1043 1696 1043 1786 1050 1862 
L 1050 2042 
C 1050 2112 1062 2182 1075 2246 
L 1101 2438 
z
" transform="scale(0.015625)"/>
      <path id="HannotateSC-W5-73" d="M 2886 621 
C 2886 736 2848 838 2771 928 
C 2694 1011 2592 1088 2477 1152 
C 2349 1222 2202 1299 2035 1382 
L 1574 1600 
C 1382 1690 1242 1773 1165 1850 
C 1088 1926 1050 2016 1050 2131 
C 1050 2170 1062 2214 1088 2259 
C 1114 2304 1152 2349 1203 2387 
C 1254 2426 1318 2451 1395 2477 
C 1466 2502 1549 2515 1645 2515 
C 1760 2515 1869 2490 1971 2451 
C 2061 2400 2131 2355 2182 2317 
C 2246 2253 2310 2195 2387 2144 
C 2458 2086 2528 2061 2605 2061 
C 2675 2061 2733 2080 2778 2131 
C 2822 2170 2848 2221 2848 2272 
C 2848 2342 2816 2413 2752 2477 
C 2682 2534 2605 2592 2515 2656 
C 2464 2682 2400 2714 2336 2746 
C 2266 2771 2195 2797 2125 2822 
C 2048 2848 1971 2867 1894 2886 
C 1818 2899 1741 2906 1677 2906 
C 1434 2906 1242 2874 1088 2822 
C 934 2765 813 2694 723 2618 
C 634 2528 570 2438 538 2336 
C 499 2234 480 2144 480 2054 
C 480 1952 499 1869 538 1798 
C 570 1722 614 1651 678 1594 
C 730 1530 800 1478 877 1434 
C 954 1382 1030 1338 1114 1299 
C 1171 1261 1229 1235 1293 1210 
C 1350 1184 1408 1152 1472 1126 
C 1555 1088 1638 1050 1728 1018 
C 1818 979 1894 941 1971 902 
C 2189 781 2298 666 2298 563 
C 2298 493 2246 429 2144 365 
C 2042 301 1862 269 1606 269 
C 1530 269 1459 275 1382 288 
C 1306 301 1242 326 1178 352 
C 1114 371 1056 397 1011 429 
C 960 454 922 474 909 499 
C 845 576 787 634 723 672 
C 659 704 576 723 480 723 
C 403 723 346 698 307 659 
C 269 614 256 570 256 531 
C 256 506 262 480 282 442 
C 294 403 314 371 333 352 
C 390 275 474 211 576 160 
C 678 102 794 58 915 19 
C 1030 -13 1152 -38 1274 -58 
C 1389 -77 1491 -90 1581 -90 
C 1760 -90 1933 -70 2099 -45 
C 2253 -6 2394 32 2509 96 
C 2624 154 2720 230 2790 320 
C 2854 410 2886 506 2886 621 
z
" transform="scale(0.015625)"/>
      <path id="HannotateSC-W5-6e" d="M 2925 1050 
L 2925 1299 
C 2925 1376 2918 1459 2918 1542 
C 2906 1715 2886 1869 2861 2003 
C 2829 2131 2790 2240 2739 2336 
C 2688 2432 2630 2515 2560 2592 
C 2483 2656 2406 2720 2317 2771 
C 2253 2803 2189 2835 2112 2861 
C 2029 2880 1952 2893 1882 2893 
C 1690 2893 1504 2822 1331 2694 
C 1152 2566 1018 2387 915 2157 
C 915 2246 922 2317 928 2374 
C 928 2426 934 2464 934 2502 
C 934 2528 941 2554 941 2579 
L 941 2656 
C 941 2746 922 2810 890 2854 
C 851 2893 787 2918 691 2918 
C 614 2918 550 2899 486 2861 
C 416 2816 384 2765 384 2707 
C 384 2669 384 2643 390 2630 
C 403 2528 410 2432 410 2342 
L 422 1971 
L 422 698 
C 416 602 416 518 416 448 
C 410 371 403 314 397 269 
C 390 218 390 179 390 154 
C 390 90 410 45 448 6 
C 480 -26 544 -45 646 -45 
C 685 -45 723 -32 755 -19 
L 832 38 
C 877 83 902 147 915 224 
C 922 294 928 358 928 422 
C 928 538 928 659 934 787 
C 934 915 941 1037 941 1152 
C 941 1229 954 1331 979 1453 
C 1005 1568 1043 1690 1107 1818 
C 1146 1907 1197 2003 1254 2093 
C 1306 2176 1370 2253 1434 2323 
C 1498 2387 1568 2445 1638 2490 
C 1709 2528 1786 2547 1862 2547 
C 1971 2547 2074 2483 2163 2368 
C 2246 2246 2304 2080 2342 1862 
C 2355 1786 2362 1709 2374 1619 
L 2394 1370 
L 2406 1146 
L 2406 640 
C 2400 538 2400 467 2400 422 
C 2400 384 2394 352 2387 320 
C 2374 282 2374 256 2374 230 
C 2374 19 2438 -83 2573 -83 
C 2682 -83 2765 -51 2829 13 
C 2886 77 2918 160 2918 269 
L 2918 659 
C 2918 794 2925 922 2925 1050 
z
" transform="scale(0.015625)"/>
      <path id="HannotateSC-W5-44" d="M 3699 2720 
C 3699 2976 3661 3206 3584 3418 
C 3507 3622 3405 3802 3277 3955 
C 3136 4102 2976 4218 2790 4307 
C 2605 4384 2400 4429 2182 4429 
C 1773 4429 1350 4275 915 3981 
C 902 4045 896 4090 896 4115 
C 890 4134 883 4147 883 4160 
C 864 4192 819 4224 755 4256 
C 678 4282 614 4301 563 4301 
C 550 4301 525 4288 499 4269 
C 474 4250 448 4230 422 4205 
C 390 4173 365 4141 346 4115 
C 326 4090 320 4070 320 4058 
C 320 4019 320 3987 333 3962 
C 346 3936 358 3904 371 3872 
C 390 3834 410 3802 422 3770 
C 429 3738 435 3706 448 3667 
L 461 3590 
C 461 3558 461 3526 467 3494 
C 442 3456 429 3430 422 3418 
C 416 3398 416 3379 416 3354 
C 416 3296 442 3238 499 3181 
L 525 2886 
L 538 2592 
L 538 2304 
C 538 2214 544 2131 544 2067 
C 544 1862 538 1683 538 1530 
C 538 1363 531 1210 531 1069 
L 512 659 
L 499 230 
C 499 205 506 186 525 166 
C 544 141 570 122 595 109 
C 621 83 646 70 678 58 
C 704 45 730 38 749 38 
C 806 38 858 58 909 96 
C 954 128 979 186 992 275 
C 1171 179 1344 109 1498 70 
C 1651 26 1773 6 1856 6 
C 2125 6 2381 58 2611 160 
C 2835 256 3027 416 3187 634 
C 3347 851 3475 1133 3565 1478 
C 3654 1818 3699 2234 3699 2720 
z
M 3174 2611 
C 3174 2221 3136 1888 3072 1606 
C 3002 1325 2906 1088 2790 902 
C 2675 717 2534 582 2381 493 
C 2214 403 2048 358 1869 358 
C 1760 358 1664 371 1587 403 
C 1498 435 1427 474 1363 512 
C 1325 531 1293 550 1267 570 
C 1242 589 1216 608 1190 627 
C 1165 640 1139 653 1114 666 
C 1088 672 1062 678 1024 691 
L 1024 2560 
L 1011 2950 
C 1011 3078 1005 3213 1005 3347 
C 1018 3366 1037 3386 1050 3398 
L 1088 3450 
C 1101 3475 1126 3507 1165 3533 
L 1280 3648 
C 1312 3680 1344 3712 1382 3744 
C 1440 3795 1510 3846 1587 3898 
C 1658 3936 1734 3968 1818 3987 
C 1901 4000 2003 4013 2131 4013 
C 2285 4013 2426 3974 2554 3898 
C 2682 3814 2790 3706 2880 3578 
C 2970 3443 3046 3296 3098 3130 
C 3149 2963 3174 2790 3174 2611 
z
" transform="scale(0.015625)"/>
      <path id="HannotateSC-W5-74" d="M 2413 384 
C 2413 416 2394 448 2368 480 
C 2342 506 2304 518 2259 518 
C 2202 518 2163 506 2138 480 
C 2112 454 2093 422 2080 390 
C 2067 371 2061 352 2048 339 
C 2035 326 2029 314 2029 314 
C 1978 269 1914 250 1837 250 
C 1722 250 1632 301 1562 403 
C 1485 506 1453 678 1453 922 
C 1453 1120 1453 1325 1466 1530 
C 1472 1728 1485 1946 1498 2176 
C 1530 2176 1574 2182 1626 2189 
L 1766 2202 
C 1882 2214 1984 2234 2074 2259 
C 2150 2278 2214 2304 2278 2336 
C 2342 2362 2374 2406 2374 2458 
C 2374 2496 2355 2522 2330 2534 
C 2291 2547 2259 2554 2227 2566 
C 2208 2566 2182 2566 2150 2579 
L 2022 2592 
L 1523 2592 
C 1523 2618 1530 2656 1536 2714 
L 1562 2893 
L 1587 3085 
C 1587 3149 1594 3200 1606 3245 
L 1626 3360 
C 1632 3392 1638 3430 1638 3469 
C 1638 3494 1619 3520 1587 3552 
C 1555 3578 1517 3603 1478 3629 
C 1434 3648 1389 3667 1344 3686 
C 1293 3699 1248 3712 1222 3712 
C 1171 3712 1126 3706 1088 3693 
C 1037 3680 1005 3661 986 3642 
C 979 3635 973 3622 966 3603 
C 954 3584 954 3565 954 3546 
C 954 3520 947 3462 947 3373 
C 947 3283 941 3181 941 3078 
C 934 2976 934 2874 934 2784 
C 928 2682 928 2618 928 2586 
C 902 2586 858 2579 806 2579 
L 640 2566 
C 576 2566 518 2560 461 2560 
C 403 2554 358 2554 326 2554 
C 262 2554 218 2541 179 2528 
C 141 2509 128 2477 128 2432 
C 128 2342 147 2266 198 2189 
C 243 2112 307 2074 397 2074 
C 461 2074 538 2080 627 2093 
L 915 2118 
C 909 1907 909 1715 909 1536 
C 902 1357 902 1178 902 1005 
C 902 877 909 755 934 634 
C 954 506 992 390 1050 288 
C 1107 186 1190 109 1293 45 
C 1389 -19 1517 -51 1683 -51 
C 1747 -51 1824 -38 1920 -19 
C 2010 0 2093 32 2170 70 
C 2227 102 2285 147 2336 211 
C 2387 262 2413 320 2413 384 
z
" transform="scale(0.015625)"/>
      <path id="HannotateSC-W5-72" d="M 2726 2682 
C 2726 2720 2707 2758 2682 2797 
C 2650 2822 2611 2848 2566 2874 
C 2515 2899 2470 2918 2419 2931 
C 2362 2944 2310 2950 2272 2950 
C 2170 2950 2067 2925 1958 2874 
C 1843 2822 1734 2758 1626 2669 
C 1510 2573 1402 2458 1299 2323 
C 1190 2182 1094 2029 1018 1862 
C 1030 2010 1037 2144 1050 2259 
C 1050 2368 1056 2470 1056 2560 
C 1056 2643 1024 2707 973 2758 
C 915 2803 851 2829 781 2829 
C 710 2829 653 2803 602 2765 
C 544 2720 506 2669 486 2611 
C 480 2592 474 2547 474 2470 
C 467 2394 461 2298 461 2195 
L 448 1837 
L 448 1472 
C 448 1306 448 1146 461 986 
L 474 499 
C 474 422 486 346 499 269 
C 506 192 531 122 570 64 
C 621 -19 710 -64 838 -64 
C 928 -64 998 -38 1056 6 
C 1107 58 1139 115 1139 192 
C 1139 307 1126 435 1101 582 
C 1069 723 1056 864 1056 1005 
C 1056 1056 1069 1126 1101 1210 
C 1133 1286 1171 1363 1222 1453 
C 1267 1536 1318 1626 1382 1722 
C 1440 1811 1498 1894 1549 1984 
C 1574 2029 1619 2080 1670 2144 
C 1722 2202 1779 2259 1843 2310 
C 1907 2362 1984 2400 2061 2438 
C 2131 2477 2208 2496 2285 2496 
C 2304 2496 2336 2483 2381 2470 
C 2394 2464 2419 2464 2458 2464 
C 2490 2458 2509 2458 2522 2458 
C 2566 2458 2611 2483 2662 2534 
C 2701 2586 2726 2630 2726 2682 
z
" transform="scale(0.015625)"/>
      <path id="HannotateSC-W5-62" d="M 3027 1555 
C 3027 1990 2912 2323 2688 2566 
C 2464 2803 2150 2925 1741 2925 
C 1619 2925 1485 2893 1338 2835 
C 1184 2771 1050 2682 928 2560 
C 934 2899 941 3194 954 3437 
C 960 3674 966 3834 966 3917 
C 966 3981 966 4045 973 4096 
C 973 4147 986 4192 1005 4243 
L 1024 4333 
C 1030 4358 1037 4378 1037 4390 
C 1037 4416 1005 4442 947 4474 
C 909 4486 864 4499 826 4512 
C 781 4512 742 4518 717 4518 
C 666 4518 582 4480 474 4416 
C 448 4397 416 4371 378 4346 
C 339 4320 320 4288 320 4256 
C 320 4243 320 4224 326 4205 
C 326 4179 339 4154 358 4122 
C 365 4058 371 3968 384 3846 
L 410 3488 
L 422 3162 
L 422 3008 
C 410 2739 403 2490 403 2259 
C 403 2157 397 2061 397 1965 
L 397 1677 
C 390 1587 390 1504 390 1440 
L 390 1280 
C 390 1254 390 1210 397 1152 
L 397 954 
L 410 710 
L 410 486 
C 410 416 416 358 422 314 
L 422 237 
C 422 109 461 19 525 -45 
C 582 -102 653 -134 730 -134 
C 826 -134 896 -96 934 -26 
C 960 13 973 64 979 122 
C 979 179 986 230 986 282 
C 1062 192 1178 128 1318 77 
C 1459 26 1638 0 1856 0 
C 2010 0 2163 32 2304 96 
C 2445 160 2573 262 2682 397 
C 2784 525 2867 691 2931 890 
C 2995 1082 3027 1299 3027 1555 
z
M 2451 1594 
C 2451 787 2195 390 1690 390 
C 1606 390 1523 403 1434 442 
C 1344 474 1267 525 1203 602 
C 1126 672 1069 768 1024 890 
C 973 1005 954 1152 954 1325 
C 954 1504 973 1664 1018 1811 
C 1056 1952 1120 2080 1197 2182 
C 1274 2285 1363 2362 1472 2426 
C 1574 2477 1690 2509 1818 2509 
C 2010 2509 2163 2426 2278 2259 
C 2394 2093 2451 1869 2451 1594 
z
" transform="scale(0.015625)"/>
      <path id="HannotateSC-W5-75" d="M 2790 154 
C 2790 160 2784 186 2771 224 
C 2758 256 2746 275 2746 288 
C 2720 346 2701 410 2688 474 
C 2669 538 2656 608 2650 691 
C 2637 768 2630 864 2630 973 
C 2624 1075 2624 1203 2624 1350 
L 2624 1466 
L 2637 1645 
C 2637 1709 2637 1773 2643 1837 
C 2643 1901 2650 1958 2656 1997 
C 2662 2067 2669 2131 2675 2189 
C 2675 2240 2688 2304 2701 2374 
C 2707 2419 2714 2464 2726 2502 
C 2726 2541 2733 2579 2733 2611 
C 2733 2637 2714 2662 2688 2701 
C 2650 2733 2611 2765 2573 2790 
C 2534 2803 2496 2822 2445 2835 
C 2394 2848 2368 2854 2355 2854 
C 2330 2854 2304 2848 2278 2842 
C 2240 2829 2214 2816 2202 2790 
C 2176 2758 2163 2720 2150 2669 
C 2138 2618 2138 2528 2138 2400 
L 2138 2285 
C 2138 2214 2144 2131 2144 2042 
C 2144 1939 2138 1830 2138 1715 
C 2138 1594 2131 1478 2131 1363 
C 2125 1261 2106 1152 2074 1043 
C 2042 928 1997 819 1946 723 
C 1882 627 1811 550 1728 493 
C 1638 429 1536 397 1421 397 
C 1331 397 1254 416 1190 461 
C 1114 499 1056 557 1011 634 
C 960 704 928 787 902 890 
C 877 986 864 1088 864 1203 
C 864 1222 864 1267 870 1344 
L 870 1824 
C 870 1901 877 1952 877 1978 
C 877 2016 877 2074 890 2157 
L 915 2394 
L 934 2502 
C 934 2541 941 2592 941 2656 
C 941 2707 915 2758 864 2810 
C 813 2861 742 2886 659 2886 
C 576 2886 461 2835 320 2739 
C 326 2688 333 2624 346 2547 
C 358 2464 365 2381 365 2304 
C 365 2253 358 2176 358 2080 
C 358 1978 352 1882 352 1779 
C 346 1677 346 1581 346 1504 
C 339 1414 339 1363 339 1338 
C 339 1133 358 947 397 787 
C 429 627 486 493 570 384 
C 646 269 755 186 896 134 
C 1024 70 1190 45 1395 45 
C 1491 45 1613 70 1754 122 
C 1894 173 2016 262 2125 403 
C 2170 224 2227 96 2291 32 
C 2355 -38 2432 -77 2522 -77 
C 2592 -77 2656 -51 2714 -13 
C 2765 26 2790 77 2790 154 
z
" transform="scale(0.015625)"/>
      <path id="HannotateSC-W5-29" d="M 1446 1914 
C 1446 1978 1440 2080 1434 2221 
C 1427 2355 1414 2509 1402 2682 
L 1344 3238 
C 1318 3430 1286 3622 1248 3814 
C 1210 3974 1171 4122 1133 4256 
C 1088 4390 1037 4506 986 4608 
C 934 4704 877 4781 819 4838 
C 755 4890 691 4922 627 4922 
C 531 4922 454 4890 403 4832 
C 346 4768 320 4691 320 4595 
C 320 4531 339 4474 384 4422 
C 422 4365 467 4314 506 4275 
C 589 4179 666 4070 730 3949 
C 794 3821 832 3693 858 3571 
L 973 2848 
C 998 2598 1018 2355 1018 2112 
C 1018 2003 1011 1875 1005 1722 
C 992 1568 979 1402 966 1222 
C 947 1043 928 858 902 666 
C 877 474 845 288 806 115 
C 768 -58 723 -218 672 -371 
C 621 -518 563 -640 499 -736 
C 486 -794 480 -858 480 -922 
C 480 -1075 538 -1152 666 -1152 
C 698 -1152 730 -1139 768 -1120 
C 813 -1088 858 -1030 909 -941 
C 960 -851 1005 -749 1050 -646 
C 1088 -531 1126 -422 1165 -320 
C 1197 -211 1222 -122 1235 -58 
C 1299 262 1357 589 1395 928 
C 1427 1261 1446 1587 1446 1914 
z
" transform="scale(0.015625)"/>
     </defs>
     <use xlink:href="#HannotateSC-W5-6cca"/>
     <use xlink:href="#HannotateSC-W5-677e" x="99.999985"/>
     <use xlink:href="#HannotateSC-W5-5206" x="199.999969"/>
     <use xlink:href="#HannotateSC-W5-5e03" x="299.999954"/>
     <use xlink:href="#HannotateSC-W5-20" x="399.999939"/>
     <use xlink:href="#HannotateSC-W5-28" x="433.299927"/>
     <use xlink:href="#HannotateSC-W5-50" x="462.899918"/>
     <use xlink:href="#HannotateSC-W5-6f" x="520.999908"/>
     <use xlink:href="#HannotateSC-W5-69" x="572.399902"/>
     <use xlink:href="#HannotateSC-W5-73" x="599.299896"/>
     <use xlink:href="#HannotateSC-W5-73" x="648.399887"/>
     <use xlink:href="#HannotateSC-W5-6f" x="697.499878"/>
     <use xlink:href="#HannotateSC-W5-6e" x="748.899872"/>
     <use xlink:href="#HannotateSC-W5-20" x="800.599869"/>
     <use xlink:href="#HannotateSC-W5-44" x="833.899857"/>
     <use xlink:href="#HannotateSC-W5-69" x="896.699844"/>
     <use xlink:href="#HannotateSC-W5-73" x="923.599838"/>
     <use xlink:href="#HannotateSC-W5-74" x="972.699829"/>
     <use xlink:href="#HannotateSC-W5-72" x="1012.399826"/>
     <use xlink:href="#HannotateSC-W5-69" x="1056.999817"/>
     <use xlink:href="#HannotateSC-W5-62" x="1083.899811"/>
     <use xlink:href="#HannotateSC-W5-75" x="1135.199799"/>
     <use xlink:href="#HannotateSC-W5-74" x="1183.799789"/>
     <use xlink:href="#HannotateSC-W5-69" x="1223.499786"/>
     <use xlink:href="#HannotateSC-W5-6f" x="1250.39978"/>
     <use xlink:href="#HannotateSC-W5-6e" x="1301.799774"/>
     <use xlink:href="#HannotateSC-W5-29" x="1353.499771"/>
    </g>
   </g>
  </g>
 </g>
 <defs>
  <clipPath id="pec766a2036">
   <rect x="57.6" y="41.472" width="357.12" height="266.112"/>
  </clipPath>
 </defs>
</svg>
