<?xml version="1.0" encoding="utf-8" standalone="no"?>
<!DOCTYPE svg PUBLIC "-//W3C//DTD SVG 1.1//EN"
  "http://www.w3.org/Graphics/SVG/1.1/DTD/svg11.dtd">
<svg xmlns:xlink="http://www.w3.org/1999/xlink" width="460.8pt" height="345.6pt" viewBox="0 0 460.8 345.6" xmlns="http://www.w3.org/2000/svg" version="1.1">
 <metadata>
  <rdf:RDF xmlns:dc="http://purl.org/dc/elements/1.1/" xmlns:cc="http://creativecommons.org/ns#" xmlns:rdf="http://www.w3.org/1999/02/22-rdf-syntax-ns#">
   <cc:Work>
    <dc:type rdf:resource="http://purl.org/dc/dcmitype/StillImage"/>
    <dc:date>2024-06-05T12:29:08.351438</dc:date>
    <dc:format>image/svg+xml</dc:format>
    <dc:creator>
     <cc:Agent>
      <dc:title>Matplotlib v3.9.0, https://matplotlib.org/</dc:title>
     </cc:Agent>
    </dc:creator>
   </cc:Work>
  </rdf:RDF>
 </metadata>
 <defs>
  <style type="text/css">*{stroke-linejoin: round; stroke-linecap: butt}</style>
 </defs>
 <g id="figure_1">
  <g id="patch_1">
   <path d="M 0 345.6 
L 460.8 345.6 
L 460.8 0 
L 0 0 
L 0 345.6 
z
" style="fill: none"/>
  </g>
  <g id="axes_1">
   <g id="patch_2">
    <path d="M 57.6 307.584 
L 414.72 307.584 
L 414.72 41.472 
L 57.6 41.472 
L 57.6 307.584 
z
" style="fill: none"/>
   </g>
   <g id="matplotlib.axis_1">
    <g id="xtick_1">
     <g id="line2d_1">
      <defs>
       <path id="mb26effa29c" d="M 0 0 
L 0 3.5 
" style="stroke: #000000; stroke-width: 0.8"/>
      </defs>
      <g>
       <use xlink:href="#mb26effa29c" x="73.832727" y="307.584" style="stroke: #000000; stroke-width: 0.8"/>
      </g>
     </g>
     <g id="text_1">
      <!-- -0.50 -->
      <g transform="translate(61.581946 321.543375) scale(0.1 -0.1)">
       <defs>
        <path id="HannotateSC-W5-2d" d="M 1824 1050 
C 1869 1050 1914 1075 1952 1133 
C 1990 1184 2010 1229 2010 1280 
C 2010 1325 1990 1376 1958 1427 
C 1926 1478 1894 1504 1856 1504 
C 1805 1504 1760 1498 1715 1498 
C 1670 1491 1626 1491 1581 1491 
L 1280 1491 
C 1222 1491 1171 1498 1126 1498 
L 1024 1498 
C 998 1498 954 1498 896 1504 
L 717 1504 
L 538 1517 
L 429 1517 
C 352 1517 320 1478 320 1402 
C 320 1312 346 1235 410 1158 
C 467 1082 550 1050 653 1050 
C 704 1050 755 1050 800 1056 
C 838 1062 890 1069 954 1075 
C 973 1075 998 1075 1037 1082 
L 1370 1082 
L 1530 1069 
L 1696 1056 
C 1747 1050 1786 1050 1824 1050 
z
" transform="scale(0.015625)"/>
        <path id="HannotateSC-W5-30" d="M 3398 2662 
C 3398 3814 2989 4397 2176 4397 
C 1664 4397 1248 4115 928 3552 
C 634 3034 486 2419 486 1709 
C 486 1184 595 787 826 506 
C 1050 224 1382 83 1818 83 
C 2362 83 2778 371 3059 954 
C 3283 1414 3398 1984 3398 2662 
z
M 2918 2605 
C 2918 2067 2822 1600 2630 1190 
C 2413 742 2144 518 1818 518 
C 1254 518 973 922 973 1741 
C 973 2330 1088 2848 1318 3296 
C 1549 3738 1818 3962 2131 3962 
C 2656 3962 2918 3507 2918 2605 
z
" transform="scale(0.015625)"/>
        <path id="HannotateSC-W5-2e" d="M 1248 250 
C 1248 288 1242 326 1229 365 
C 1216 403 1197 435 1165 467 
C 1133 493 1088 518 1030 544 
C 966 557 890 570 800 570 
C 755 570 710 557 672 544 
C 627 525 589 506 563 480 
C 525 448 499 416 480 384 
C 454 346 448 314 448 282 
C 448 243 454 205 474 179 
C 493 147 525 115 576 83 
C 634 45 685 13 730 -6 
C 774 -26 819 -38 858 -38 
C 998 -38 1101 -6 1165 51 
C 1216 109 1248 173 1248 250 
z
" transform="scale(0.015625)"/>
        <path id="HannotateSC-W5-35" d="M 3507 1523 
C 3507 1869 3366 2144 3098 2355 
C 2957 2451 2810 2515 2650 2541 
C 2483 2560 2323 2573 2157 2573 
C 2003 2573 1843 2554 1690 2528 
C 1536 2490 1370 2445 1190 2394 
C 1210 2637 1229 2861 1254 3066 
L 1306 3712 
C 1536 3731 1754 3757 1958 3782 
L 2566 3878 
C 2605 3885 2650 3891 2701 3898 
C 2746 3898 2790 3898 2842 3910 
L 2976 3936 
C 3014 3936 3059 3949 3098 3968 
C 3123 3981 3142 3994 3155 4006 
C 3162 4019 3168 4045 3168 4083 
C 3168 4109 3149 4141 3117 4179 
C 3078 4211 3040 4243 2995 4269 
C 2944 4294 2893 4320 2842 4346 
C 2790 4358 2746 4371 2720 4371 
C 2694 4371 2675 4365 2650 4358 
C 2624 4346 2605 4339 2579 4333 
L 2496 4307 
C 2464 4294 2438 4288 2419 4282 
C 2253 4237 2074 4205 1882 4179 
C 1683 4154 1491 4147 1306 4147 
C 1261 4186 1222 4218 1190 4230 
C 1152 4243 1107 4256 1069 4256 
C 1030 4256 998 4250 960 4237 
C 915 4224 883 4211 858 4198 
C 819 4122 794 4006 781 3853 
C 762 3693 749 3520 742 3341 
C 730 3149 717 2963 717 2784 
C 704 2605 698 2464 691 2368 
L 678 2285 
L 666 2195 
C 653 2131 646 2074 646 2016 
C 646 1997 653 1978 672 1952 
C 685 1926 710 1907 736 1888 
C 762 1869 787 1856 813 1843 
C 838 1830 858 1824 883 1824 
C 928 1824 973 1830 1011 1843 
C 1043 1856 1082 1869 1126 1894 
C 1165 1914 1210 1939 1254 1965 
C 1293 1984 1338 2003 1389 2022 
C 1517 2061 1638 2093 1760 2106 
C 1875 2118 2003 2131 2144 2131 
C 2246 2131 2349 2118 2451 2093 
C 2547 2067 2637 2029 2714 1978 
C 2790 1926 2848 1856 2899 1766 
C 2944 1677 2970 1568 2970 1440 
C 2970 1254 2931 1094 2867 954 
C 2790 813 2701 698 2586 608 
C 2470 512 2336 442 2189 390 
C 2035 339 1882 320 1728 320 
C 1574 320 1434 339 1318 378 
C 1190 416 1088 461 998 512 
C 947 531 909 557 870 582 
C 832 602 800 621 768 640 
C 730 653 698 672 672 685 
C 640 691 614 698 595 698 
C 531 698 486 672 448 634 
C 403 582 384 525 384 454 
C 384 378 410 314 461 262 
C 512 205 570 160 640 134 
C 691 109 768 83 870 58 
C 960 26 1062 0 1165 -19 
C 1267 -38 1370 -58 1472 -70 
C 1568 -83 1651 -96 1715 -96 
C 1958 -96 2189 -64 2406 0 
C 2624 64 2816 160 2982 301 
C 3142 429 3270 595 3366 800 
C 3456 1005 3507 1242 3507 1523 
z
" transform="scale(0.015625)"/>
       </defs>
       <use xlink:href="#HannotateSC-W5-2d"/>
       <use xlink:href="#HannotateSC-W5-30" x="36.399994"/>
       <use xlink:href="#HannotateSC-W5-2e" x="97.099991"/>
       <use xlink:href="#HannotateSC-W5-35" x="123.599976"/>
       <use xlink:href="#HannotateSC-W5-30" x="184.299973"/>
      </g>
     </g>
    </g>
    <g id="xtick_2">
     <g id="line2d_2">
      <g>
       <use xlink:href="#mb26effa29c" x="114.414545" y="307.584" style="stroke: #000000; stroke-width: 0.8"/>
      </g>
     </g>
     <g id="text_2">
      <!-- -0.25 -->
      <g transform="translate(102.163764 321.543375) scale(0.1 -0.1)">
       <defs>
        <path id="HannotateSC-W5-32" d="M 3597 390 
C 3597 480 3565 557 3507 634 
C 3450 710 3386 749 3309 749 
C 3251 749 3194 742 3142 730 
L 3053 710 
L 2963 698 
C 2822 685 2682 672 2534 672 
C 2381 672 2240 666 2106 659 
C 1978 646 1843 640 1702 634 
C 1562 621 1382 608 1171 582 
C 1318 704 1440 813 1536 902 
L 1798 1152 
L 2227 1568 
C 2368 1709 2509 1843 2656 1984 
C 2835 2163 2976 2368 3072 2605 
C 3162 2835 3206 3078 3206 3341 
C 3206 3475 3174 3610 3117 3744 
C 3053 3872 2970 3994 2867 4102 
C 2758 4205 2630 4288 2483 4352 
C 2336 4416 2176 4448 2010 4448 
C 1824 4448 1645 4422 1466 4371 
C 1286 4314 1126 4224 986 4102 
C 934 4064 890 4006 838 3942 
C 787 3872 736 3802 698 3725 
C 653 3648 614 3571 589 3494 
C 557 3418 544 3347 544 3290 
C 544 3213 570 3155 634 3104 
C 691 3046 749 3021 813 3021 
C 858 3021 896 3027 928 3053 
C 954 3072 986 3104 1024 3142 
C 1037 3162 1056 3194 1075 3232 
C 1094 3264 1114 3302 1133 3341 
C 1146 3373 1165 3411 1178 3450 
C 1190 3488 1203 3520 1229 3558 
C 1318 3712 1421 3827 1536 3917 
C 1645 4000 1798 4045 1990 4045 
C 2093 4045 2195 4019 2285 3981 
C 2374 3936 2451 3878 2522 3808 
C 2586 3731 2637 3648 2675 3558 
C 2714 3462 2733 3366 2733 3264 
C 2733 3136 2714 3021 2675 2912 
C 2637 2797 2592 2694 2534 2598 
C 2477 2496 2413 2406 2342 2323 
C 2266 2234 2182 2150 2106 2074 
L 1498 1504 
C 1299 1312 1088 1133 870 960 
C 806 909 755 864 704 813 
C 653 762 608 710 557 659 
C 512 614 474 570 448 531 
C 422 480 410 429 410 371 
C 410 282 442 211 512 166 
C 576 115 646 96 730 96 
C 781 96 838 102 902 115 
C 934 122 966 128 998 134 
C 1024 141 1056 147 1088 154 
C 1331 186 1581 211 1843 237 
C 2099 262 2349 275 2592 275 
C 2726 275 2867 262 3008 243 
C 3142 218 3277 211 3418 211 
C 3456 211 3494 224 3533 262 
C 3571 288 3597 333 3597 390 
z
" transform="scale(0.015625)"/>
       </defs>
       <use xlink:href="#HannotateSC-W5-2d"/>
       <use xlink:href="#HannotateSC-W5-30" x="36.399994"/>
       <use xlink:href="#HannotateSC-W5-2e" x="97.099991"/>
       <use xlink:href="#HannotateSC-W5-32" x="123.599976"/>
       <use xlink:href="#HannotateSC-W5-35" x="184.299973"/>
      </g>
     </g>
    </g>
    <g id="xtick_3">
     <g id="line2d_3">
      <g>
       <use xlink:href="#mb26effa29c" x="154.996364" y="307.584" style="stroke: #000000; stroke-width: 0.8"/>
      </g>
     </g>
     <g id="text_3">
      <!-- 0.00 -->
      <g transform="translate(144.565895 321.543375) scale(0.1 -0.1)">
       <use xlink:href="#HannotateSC-W5-30"/>
       <use xlink:href="#HannotateSC-W5-2e" x="60.699997"/>
       <use xlink:href="#HannotateSC-W5-30" x="87.199982"/>
       <use xlink:href="#HannotateSC-W5-30" x="147.899979"/>
      </g>
     </g>
    </g>
    <g id="xtick_4">
     <g id="line2d_4">
      <g>
       <use xlink:href="#mb26effa29c" x="195.578182" y="307.584" style="stroke: #000000; stroke-width: 0.8"/>
      </g>
     </g>
     <g id="text_4">
      <!-- 0.25 -->
      <g transform="translate(185.147713 321.543375) scale(0.1 -0.1)">
       <use xlink:href="#HannotateSC-W5-30"/>
       <use xlink:href="#HannotateSC-W5-2e" x="60.699997"/>
       <use xlink:href="#HannotateSC-W5-32" x="87.199982"/>
       <use xlink:href="#HannotateSC-W5-35" x="147.899979"/>
      </g>
     </g>
    </g>
    <g id="xtick_5">
     <g id="line2d_5">
      <g>
       <use xlink:href="#mb26effa29c" x="236.16" y="307.584" style="stroke: #000000; stroke-width: 0.8"/>
      </g>
     </g>
     <g id="text_5">
      <!-- 0.50 -->
      <g transform="translate(225.729531 321.543375) scale(0.1 -0.1)">
       <use xlink:href="#HannotateSC-W5-30"/>
       <use xlink:href="#HannotateSC-W5-2e" x="60.699997"/>
       <use xlink:href="#HannotateSC-W5-35" x="87.199982"/>
       <use xlink:href="#HannotateSC-W5-30" x="147.899979"/>
      </g>
     </g>
    </g>
    <g id="xtick_6">
     <g id="line2d_6">
      <g>
       <use xlink:href="#mb26effa29c" x="276.741818" y="307.584" style="stroke: #000000; stroke-width: 0.8"/>
      </g>
     </g>
     <g id="text_6">
      <!-- 0.75 -->
      <g transform="translate(266.311349 321.543375) scale(0.1 -0.1)">
       <defs>
        <path id="HannotateSC-W5-37" d="M 3488 4026 
C 3488 4115 3443 4186 3366 4237 
C 3290 4288 3200 4326 3098 4358 
C 2989 4384 2880 4397 2778 4410 
C 2662 4416 2579 4422 2522 4422 
C 2477 4422 2400 4416 2291 4410 
C 2176 4397 2048 4390 1907 4384 
C 1766 4371 1613 4352 1459 4339 
C 1299 4320 1152 4307 1024 4294 
L 678 4250 
C 582 4237 525 4224 512 4218 
C 435 4179 403 4109 403 4006 
C 403 3936 429 3866 486 3789 
C 518 3770 557 3757 595 3757 
C 634 3744 666 3744 704 3744 
C 762 3744 845 3744 947 3757 
C 1050 3770 1146 3782 1235 3802 
C 1318 3814 1402 3834 1485 3846 
C 1568 3859 1645 3878 1722 3891 
C 1862 3917 1990 3936 2112 3949 
C 2234 3962 2368 3968 2522 3968 
C 2650 3968 2714 3904 2726 3776 
C 2643 3642 2566 3507 2502 3379 
C 2432 3245 2368 3110 2317 2976 
C 2195 2701 2080 2426 1978 2157 
C 1869 1888 1773 1619 1683 1344 
C 1594 1062 1517 787 1453 512 
C 1440 461 1427 410 1421 358 
C 1408 307 1402 250 1402 198 
C 1402 147 1402 96 1408 45 
C 1414 -6 1434 -58 1459 -109 
C 1478 -154 1510 -192 1549 -224 
C 1587 -250 1645 -269 1715 -269 
C 1773 -269 1818 -250 1856 -211 
C 1894 -173 1920 -128 1946 -77 
L 1984 96 
C 1984 147 1990 198 1990 250 
C 1990 294 1990 339 1997 390 
C 1997 442 1997 493 2010 544 
C 2016 614 2029 685 2042 755 
C 2054 819 2067 890 2093 960 
C 2144 1158 2208 1389 2291 1645 
C 2368 1894 2458 2150 2560 2406 
C 2662 2662 2778 2906 2906 3142 
C 3027 3373 3162 3565 3315 3725 
L 3379 3789 
L 3437 3859 
C 3450 3878 3456 3904 3469 3936 
C 3482 3962 3488 3987 3488 4026 
z
" transform="scale(0.015625)"/>
       </defs>
       <use xlink:href="#HannotateSC-W5-30"/>
       <use xlink:href="#HannotateSC-W5-2e" x="60.699997"/>
       <use xlink:href="#HannotateSC-W5-37" x="87.199982"/>
       <use xlink:href="#HannotateSC-W5-35" x="147.899979"/>
      </g>
     </g>
    </g>
    <g id="xtick_7">
     <g id="line2d_7">
      <g>
       <use xlink:href="#mb26effa29c" x="317.323636" y="307.584" style="stroke: #000000; stroke-width: 0.8"/>
      </g>
     </g>
     <g id="text_7">
      <!-- 1.00 -->
      <g transform="translate(306.893168 321.543375) scale(0.1 -0.1)">
       <defs>
        <path id="HannotateSC-W5-31" d="M 2624 4160 
C 2624 4243 2598 4307 2547 4346 
C 2490 4384 2419 4410 2330 4410 
C 2291 4410 2259 4390 2221 4365 
C 2182 4333 2150 4307 2131 4288 
C 2080 4237 2042 4192 2010 4141 
C 1971 4090 1926 4038 1888 3994 
C 1766 3853 1638 3699 1498 3546 
C 1350 3386 1210 3245 1075 3117 
C 1062 3104 1043 3091 1030 3078 
L 979 3053 
C 960 3040 941 3034 928 3021 
L 870 2982 
C 838 2957 813 2938 794 2918 
C 768 2893 762 2874 762 2854 
C 762 2778 794 2720 870 2675 
C 934 2624 1011 2605 1088 2605 
C 1146 2605 1197 2618 1248 2643 
C 1293 2669 1338 2707 1389 2758 
C 1421 2797 1459 2842 1510 2899 
L 1638 3040 
C 1670 3072 1722 3123 1786 3194 
C 1850 3264 1920 3347 2010 3443 
C 1990 3341 1971 3219 1958 3078 
C 1933 2938 1914 2797 1894 2643 
L 1843 2189 
C 1830 2035 1818 1888 1811 1760 
C 1798 1517 1786 1274 1779 1030 
C 1766 787 1760 576 1760 397 
C 1760 294 1786 218 1843 160 
C 1901 96 1978 70 2080 70 
C 2131 70 2189 83 2253 109 
C 2304 134 2336 166 2336 205 
C 2336 224 2330 262 2330 326 
C 2317 384 2310 454 2304 531 
C 2291 602 2278 678 2278 762 
C 2266 845 2266 922 2266 986 
C 2266 1434 2278 1882 2317 2336 
C 2355 2784 2426 3232 2541 3674 
C 2547 3712 2560 3750 2573 3795 
L 2598 3917 
L 2618 4038 
C 2618 4077 2624 4115 2624 4160 
z
" transform="scale(0.015625)"/>
       </defs>
       <use xlink:href="#HannotateSC-W5-31"/>
       <use xlink:href="#HannotateSC-W5-2e" x="60.699997"/>
       <use xlink:href="#HannotateSC-W5-30" x="87.199982"/>
       <use xlink:href="#HannotateSC-W5-30" x="147.899979"/>
      </g>
     </g>
    </g>
    <g id="xtick_8">
     <g id="line2d_8">
      <g>
       <use xlink:href="#mb26effa29c" x="357.905455" y="307.584" style="stroke: #000000; stroke-width: 0.8"/>
      </g>
     </g>
     <g id="text_8">
      <!-- 1.25 -->
      <g transform="translate(347.474986 321.543375) scale(0.1 -0.1)">
       <use xlink:href="#HannotateSC-W5-31"/>
       <use xlink:href="#HannotateSC-W5-2e" x="60.699997"/>
       <use xlink:href="#HannotateSC-W5-32" x="87.199982"/>
       <use xlink:href="#HannotateSC-W5-35" x="147.899979"/>
      </g>
     </g>
    </g>
    <g id="xtick_9">
     <g id="line2d_9">
      <g>
       <use xlink:href="#mb26effa29c" x="398.487273" y="307.584" style="stroke: #000000; stroke-width: 0.8"/>
      </g>
     </g>
     <g id="text_9">
      <!-- 1.50 -->
      <g transform="translate(388.056804 321.543375) scale(0.1 -0.1)">
       <use xlink:href="#HannotateSC-W5-31"/>
       <use xlink:href="#HannotateSC-W5-2e" x="60.699997"/>
       <use xlink:href="#HannotateSC-W5-35" x="87.199982"/>
       <use xlink:href="#HannotateSC-W5-30" x="147.899979"/>
      </g>
     </g>
    </g>
    <g id="text_10">
     <!-- x -->
     <g transform="translate(233.664687 334.712125) scale(0.1 -0.1)">
      <defs>
       <path id="HannotateSC-W5-78" d="M 2624 109 
C 2688 109 2752 128 2829 179 
C 2893 224 2950 294 3002 390 
C 2861 435 2726 512 2598 621 
C 2458 723 2336 838 2227 966 
C 2144 1050 2061 1139 1984 1235 
L 1734 1542 
C 1850 1677 1958 1798 2061 1901 
C 2163 2003 2272 2112 2387 2221 
C 2419 2246 2458 2285 2509 2336 
L 2650 2477 
C 2688 2515 2726 2554 2758 2592 
C 2784 2630 2803 2656 2803 2669 
C 2803 2746 2771 2810 2714 2861 
C 2650 2912 2586 2938 2515 2938 
C 2477 2938 2419 2906 2355 2848 
C 2278 2784 2189 2707 2086 2605 
C 1971 2490 1862 2374 1773 2272 
C 1677 2170 1574 2048 1459 1907 
C 1357 2042 1261 2163 1184 2278 
C 1101 2387 1024 2496 947 2611 
C 896 2675 838 2733 762 2797 
C 685 2848 614 2880 550 2880 
C 486 2880 422 2854 365 2810 
C 301 2765 275 2720 275 2675 
C 275 2598 288 2541 320 2502 
C 346 2451 384 2406 429 2362 
L 550 2227 
C 589 2182 627 2144 666 2106 
C 736 2016 813 1926 890 1837 
C 966 1747 1050 1638 1146 1523 
C 1056 1408 979 1312 909 1222 
C 832 1126 762 1030 685 941 
C 582 813 506 710 442 627 
C 378 538 326 467 294 416 
C 256 352 230 307 218 275 
C 198 237 192 205 192 186 
C 192 109 218 45 282 -19 
C 346 -77 454 -128 608 -166 
L 832 262 
C 896 371 960 480 1037 595 
C 1088 678 1152 762 1216 851 
C 1274 941 1344 1043 1434 1165 
L 1734 794 
L 2003 461 
C 2106 333 2208 243 2323 192 
C 2432 134 2534 109 2624 109 
z
" transform="scale(0.015625)"/>
      </defs>
      <use xlink:href="#HannotateSC-W5-78"/>
     </g>
    </g>
   </g>
   <g id="matplotlib.axis_2">
    <g id="ytick_1">
     <g id="line2d_10">
      <defs>
       <path id="m5f0154e153" d="M 0 0 
L -3.5 0 
" style="stroke: #000000; stroke-width: 0.8"/>
      </defs>
      <g>
       <use xlink:href="#m5f0154e153" x="57.6" y="295.488" style="stroke: #000000; stroke-width: 0.8"/>
      </g>
     </g>
     <g id="text_11">
      <!-- 0.0 -->
      <g transform="translate(35.809375 298.967688) scale(0.1 -0.1)">
       <use xlink:href="#HannotateSC-W5-30"/>
       <use xlink:href="#HannotateSC-W5-2e" x="60.699997"/>
       <use xlink:href="#HannotateSC-W5-30" x="87.199982"/>
      </g>
     </g>
    </g>
    <g id="ytick_2">
     <g id="line2d_11">
      <g>
       <use xlink:href="#m5f0154e153" x="57.6" y="247.104" style="stroke: #000000; stroke-width: 0.8"/>
      </g>
     </g>
     <g id="text_12">
      <!-- 0.2 -->
      <g transform="translate(35.809375 250.583687) scale(0.1 -0.1)">
       <use xlink:href="#HannotateSC-W5-30"/>
       <use xlink:href="#HannotateSC-W5-2e" x="60.699997"/>
       <use xlink:href="#HannotateSC-W5-32" x="87.199982"/>
      </g>
     </g>
    </g>
    <g id="ytick_3">
     <g id="line2d_12">
      <g>
       <use xlink:href="#m5f0154e153" x="57.6" y="198.72" style="stroke: #000000; stroke-width: 0.8"/>
      </g>
     </g>
     <g id="text_13">
      <!-- 0.4 -->
      <g transform="translate(35.809375 202.199687) scale(0.1 -0.1)">
       <defs>
        <path id="HannotateSC-W5-34" d="M 3667 1376 
C 3667 1530 3578 1613 3411 1613 
C 3309 1613 3213 1606 3123 1594 
C 3027 1574 2957 1562 2906 1549 
C 2899 1632 2899 1702 2899 1766 
C 2899 1824 2899 1882 2906 1946 
C 2906 2035 2906 2144 2912 2285 
C 2912 2419 2918 2573 2931 2739 
C 2931 2906 2944 3078 2957 3270 
C 2963 3456 2976 3648 2989 3840 
C 2989 3910 2995 3981 3008 4051 
C 3021 4122 3027 4192 3027 4269 
C 3027 4307 3008 4339 2982 4371 
C 2950 4397 2918 4422 2880 4448 
C 2835 4474 2790 4486 2746 4499 
C 2694 4512 2656 4518 2624 4518 
C 2586 4518 2547 4506 2509 4493 
C 2464 4474 2432 4448 2406 4422 
C 2374 4384 2349 4352 2330 4320 
C 2304 4282 2278 4250 2259 4218 
C 1978 3840 1690 3475 1395 3123 
C 1101 2765 819 2400 544 2022 
C 506 1978 474 1926 435 1875 
C 397 1818 365 1760 333 1696 
C 301 1632 275 1574 256 1517 
C 230 1453 224 1395 224 1344 
C 224 1254 243 1178 282 1114 
C 320 1043 371 986 435 941 
C 499 896 570 864 653 838 
C 730 813 806 806 883 806 
C 941 806 1005 813 1075 826 
C 1139 832 1210 845 1280 858 
C 1344 870 1408 883 1472 902 
C 1536 915 1600 934 1664 947 
C 1773 973 1888 992 2010 1018 
C 2125 1043 2253 1062 2406 1088 
L 2394 589 
C 2381 435 2381 326 2381 275 
C 2381 26 2483 -96 2688 -96 
C 2752 -96 2816 -77 2874 -45 
C 2925 -6 2957 45 2957 122 
C 2957 230 2944 339 2918 442 
C 2893 544 2886 653 2886 768 
L 2886 1146 
L 3462 1158 
C 3520 1158 3571 1178 3610 1222 
C 3648 1261 3667 1312 3667 1376 
z
M 2496 3840 
L 2413 1491 
C 2317 1466 2202 1440 2061 1414 
L 1638 1338 
C 1498 1312 1363 1286 1235 1274 
C 1107 1254 1005 1248 941 1248 
C 902 1248 870 1254 832 1274 
C 794 1293 774 1318 774 1357 
C 774 1408 794 1485 845 1581 
C 896 1670 954 1766 1024 1869 
C 1088 1965 1152 2054 1216 2144 
C 1280 2234 1338 2298 1376 2349 
C 1542 2560 1722 2790 1914 3046 
C 2099 3296 2291 3558 2496 3840 
z
" transform="scale(0.015625)"/>
       </defs>
       <use xlink:href="#HannotateSC-W5-30"/>
       <use xlink:href="#HannotateSC-W5-2e" x="60.699997"/>
       <use xlink:href="#HannotateSC-W5-34" x="87.199982"/>
      </g>
     </g>
    </g>
    <g id="ytick_4">
     <g id="line2d_13">
      <g>
       <use xlink:href="#m5f0154e153" x="57.6" y="150.336" style="stroke: #000000; stroke-width: 0.8"/>
      </g>
     </g>
     <g id="text_14">
      <!-- 0.6 -->
      <g transform="translate(35.809375 153.815687) scale(0.1 -0.1)">
       <defs>
        <path id="HannotateSC-W5-36" d="M 3610 1562 
C 3610 1754 3571 1920 3494 2074 
C 3418 2221 3322 2349 3200 2451 
C 3072 2554 2931 2630 2778 2688 
C 2611 2739 2445 2771 2278 2771 
C 2022 2771 1773 2720 1530 2624 
C 1286 2522 1050 2342 832 2080 
C 864 2234 896 2374 934 2490 
C 960 2605 998 2714 1037 2810 
C 1075 2906 1126 2995 1178 3078 
C 1229 3162 1286 3251 1363 3341 
C 1395 3386 1440 3443 1498 3507 
C 1555 3571 1619 3629 1690 3693 
C 1754 3757 1818 3814 1894 3872 
C 1971 3923 2042 3968 2112 4006 
C 2138 4019 2170 4038 2202 4051 
C 2227 4064 2259 4077 2298 4090 
C 2355 4102 2413 4115 2477 4128 
C 2509 4134 2534 4141 2554 4154 
C 2592 4179 2611 4218 2611 4262 
C 2611 4339 2579 4410 2522 4467 
C 2458 4518 2400 4550 2342 4550 
C 2240 4550 2099 4499 1933 4397 
C 1843 4346 1754 4288 1664 4230 
C 1568 4166 1485 4096 1408 4032 
C 1242 3891 1094 3731 960 3552 
C 819 3373 704 3181 602 2982 
C 499 2778 422 2573 371 2355 
C 307 2138 282 1914 282 1696 
C 282 1453 314 1222 384 1018 
C 448 800 550 621 678 467 
C 806 307 973 186 1165 96 
C 1350 6 1568 -38 1811 -38 
C 2029 -38 2253 0 2470 70 
C 2682 141 2874 250 3046 390 
C 3213 525 3354 691 3456 890 
C 3558 1082 3610 1306 3610 1562 
z
M 3104 1613 
C 3104 1434 3066 1261 2995 1107 
C 2925 941 2835 800 2720 685 
C 2605 563 2470 467 2323 403 
C 2170 326 2016 294 1856 294 
C 1702 294 1568 320 1459 378 
C 1344 429 1254 506 1178 602 
C 1094 691 1030 800 979 928 
C 928 1050 883 1178 858 1312 
C 896 1466 966 1606 1062 1741 
C 1152 1869 1267 1984 1395 2080 
C 1517 2176 1651 2253 1805 2310 
C 1952 2362 2106 2394 2259 2394 
C 2362 2394 2458 2374 2560 2342 
C 2662 2304 2752 2259 2835 2195 
C 2912 2125 2982 2042 3034 1946 
C 3078 1843 3104 1734 3104 1613 
z
" transform="scale(0.015625)"/>
       </defs>
       <use xlink:href="#HannotateSC-W5-30"/>
       <use xlink:href="#HannotateSC-W5-2e" x="60.699997"/>
       <use xlink:href="#HannotateSC-W5-36" x="87.199982"/>
      </g>
     </g>
    </g>
    <g id="ytick_5">
     <g id="line2d_14">
      <g>
       <use xlink:href="#m5f0154e153" x="57.6" y="101.952" style="stroke: #000000; stroke-width: 0.8"/>
      </g>
     </g>
     <g id="text_15">
      <!-- 0.8 -->
      <g transform="translate(35.809375 105.431688) scale(0.1 -0.1)">
       <defs>
        <path id="HannotateSC-W5-38" d="M 3578 1299 
C 3578 1453 3526 1619 3430 1786 
C 3328 1952 3136 2112 2861 2259 
C 2771 2298 2682 2336 2592 2374 
C 2496 2406 2381 2445 2246 2490 
L 2458 2643 
C 2515 2694 2573 2739 2630 2784 
C 2682 2829 2739 2874 2790 2925 
C 2842 2963 2906 3014 2970 3066 
C 3142 3206 3258 3315 3315 3398 
C 3366 3482 3398 3558 3398 3629 
C 3398 3686 3379 3744 3341 3795 
C 3296 3840 3238 3878 3168 3904 
C 3168 3930 3174 3955 3174 3974 
L 3174 4013 
C 3174 4077 3136 4128 3066 4179 
C 3027 4198 2982 4218 2925 4243 
L 2835 4269 
C 2803 4275 2771 4288 2739 4301 
C 2675 4326 2598 4346 2522 4371 
C 2438 4397 2355 4416 2278 4442 
C 2189 4461 2112 4480 2035 4493 
C 1952 4506 1888 4512 1837 4512 
C 1568 4512 1350 4474 1178 4397 
C 998 4320 851 4218 742 4102 
C 634 3987 557 3859 512 3718 
C 461 3578 442 3450 442 3328 
C 442 3136 506 2957 646 2797 
C 781 2630 973 2483 1216 2355 
C 1101 2278 1005 2214 922 2157 
C 838 2093 768 2029 710 1971 
C 570 1830 467 1702 403 1581 
C 339 1453 307 1325 307 1203 
C 307 1050 339 909 403 768 
C 467 627 563 499 704 390 
C 832 282 1005 198 1210 134 
C 1414 64 1658 32 1946 32 
C 2214 32 2458 58 2662 122 
C 2867 186 3034 269 3174 384 
C 3302 493 3405 627 3475 787 
C 3539 941 3578 1107 3578 1299 
z
M 2861 3725 
C 2835 3680 2810 3642 2790 3616 
L 2726 3539 
L 2496 3309 
C 2413 3226 2330 3142 2240 3066 
C 2150 2982 2054 2906 1965 2835 
C 1869 2758 1779 2694 1696 2643 
C 1491 2714 1318 2810 1190 2925 
C 1062 3040 998 3181 998 3347 
C 998 3443 1011 3539 1043 3629 
C 1069 3718 1114 3795 1178 3866 
C 1242 3930 1318 3987 1421 4026 
C 1517 4064 1638 4090 1779 4090 
C 1920 4090 2061 4064 2202 4026 
C 2342 3981 2464 3936 2560 3891 
C 2611 3866 2662 3834 2707 3808 
C 2746 3782 2797 3750 2861 3725 
z
M 3066 1216 
C 3066 1088 3034 979 2970 877 
C 2906 774 2822 691 2720 621 
C 2618 544 2496 493 2368 454 
C 2234 410 2099 390 1958 390 
C 1760 390 1587 410 1446 454 
C 1306 499 1184 557 1094 634 
C 998 710 928 794 883 890 
C 832 986 813 1088 813 1190 
C 813 1261 838 1350 896 1466 
C 947 1568 1056 1690 1222 1824 
C 1293 1882 1370 1939 1446 2003 
C 1523 2054 1613 2112 1715 2170 
C 2611 1907 3066 1587 3066 1216 
z
" transform="scale(0.015625)"/>
       </defs>
       <use xlink:href="#HannotateSC-W5-30"/>
       <use xlink:href="#HannotateSC-W5-2e" x="60.699997"/>
       <use xlink:href="#HannotateSC-W5-38" x="87.199982"/>
      </g>
     </g>
    </g>
    <g id="ytick_6">
     <g id="line2d_15">
      <g>
       <use xlink:href="#m5f0154e153" x="57.6" y="53.568" style="stroke: #000000; stroke-width: 0.8"/>
      </g>
     </g>
     <g id="text_16">
      <!-- 1.0 -->
      <g transform="translate(35.809375 57.047687) scale(0.1 -0.1)">
       <use xlink:href="#HannotateSC-W5-31"/>
       <use xlink:href="#HannotateSC-W5-2e" x="60.699997"/>
       <use xlink:href="#HannotateSC-W5-30" x="87.199982"/>
      </g>
     </g>
    </g>
    <g id="text_17">
     <!-- 概率密度 -->
     <g transform="translate(29.6 194.528) rotate(-90) scale(0.1 -0.1)">
      <defs>
       <path id="HannotateSC-W5-6982" d="M 3693 -576 
C 3757 -576 3821 -531 3885 -454 
C 3923 -410 3942 -378 3942 -358 
C 3942 -333 3930 -307 3917 -282 
C 3891 -262 3878 -243 3866 -224 
C 3827 -160 3776 -51 3725 102 
C 3661 262 3622 442 3597 634 
C 3565 813 3552 922 3552 954 
C 3546 992 3520 1030 3482 1062 
C 3430 1082 3379 1094 3334 1101 
C 3283 1094 3251 1075 3226 1050 
C 3200 1018 3194 979 3194 934 
C 3194 806 3219 627 3277 397 
C 3315 224 3360 58 3424 -102 
C 3373 -141 3309 -192 3226 -250 
C 3085 -333 2970 -378 2867 -384 
C 2746 -384 2688 -282 2688 -90 
L 2714 1555 
C 2861 1587 3008 1613 3149 1626 
C 3309 1638 3411 1651 3462 1651 
C 3488 1651 3526 1645 3584 1638 
C 3635 1632 3674 1632 3699 1632 
C 3814 1632 3878 1683 3878 1779 
C 3878 1811 3853 1850 3808 1894 
C 3834 3366 3846 4166 3846 4301 
C 3846 4403 3795 4486 3706 4557 
C 3616 4621 3533 4659 3443 4659 
C 3283 4659 3123 4640 2957 4614 
L 2771 4576 
C 2720 4602 2650 4621 2547 4621 
C 2451 4621 2406 4582 2406 4518 
C 2413 4454 2419 4416 2419 4410 
C 2419 4096 2406 3539 2387 2739 
L 2317 -90 
C 2317 -230 2342 -346 2400 -435 
C 2496 -589 2650 -672 2861 -672 
C 3021 -666 3200 -608 3392 -493 
C 3443 -454 3488 -422 3539 -390 
C 3597 -512 3648 -576 3693 -576 
z
M 2720 1862 
L 2733 2662 
L 2746 2861 
C 2854 2886 2963 2899 3072 2912 
C 3200 2925 3283 2931 3322 2931 
C 3341 2931 3379 2925 3437 2925 
L 3450 2925 
C 3430 2438 3418 2118 3418 1952 
C 3334 1939 3194 1920 3002 1894 
C 2899 1882 2810 1869 2720 1862 
z
M 2758 3168 
C 2778 3642 2797 3955 2810 4109 
L 2822 4243 
C 2861 4256 2912 4275 2989 4301 
C 3091 4326 3200 4346 3315 4346 
C 3366 4346 3411 4333 3437 4314 
C 3462 4288 3482 4243 3482 4192 
C 3482 4102 3469 3795 3456 3264 
C 3443 3264 3405 3258 3334 3245 
C 3258 3232 3136 3213 2976 3194 
L 2758 3168 
z
M 5530 4230 
C 5581 4230 5638 4224 5702 4211 
C 5760 4198 5818 4192 5875 4192 
C 5965 4192 6010 4243 6010 4339 
C 6010 4378 5958 4435 5856 4506 
C 5754 4563 5683 4595 5645 4595 
L 5402 4557 
C 5344 4550 5210 4544 4998 4531 
L 4589 4506 
C 4442 4493 4282 4474 4115 4454 
C 4090 4448 4077 4435 4077 4410 
C 4077 4358 4096 4294 4141 4230 
C 4179 4154 4224 4122 4282 4122 
C 4301 4122 4326 4122 4352 4128 
C 4371 4134 4397 4141 4435 4154 
C 4589 4179 4781 4198 5024 4211 
L 5062 4211 
C 5050 3834 5011 3328 4941 2694 
L 4883 2202 
C 4781 2189 4672 2182 4563 2182 
C 4461 2182 4403 2259 4403 2426 
C 4403 2650 4467 2995 4602 3462 
C 4608 3488 4621 3520 4640 3546 
C 4653 3571 4659 3597 4659 3616 
C 4659 3667 4614 3718 4538 3757 
C 4461 3795 4397 3814 4358 3814 
C 4269 3814 4224 3763 4218 3674 
L 4205 3597 
C 4096 3117 4038 2752 4038 2496 
C 4038 2291 4077 2138 4154 2022 
C 4256 1901 4403 1837 4582 1837 
C 4666 1837 4749 1837 4826 1850 
C 4762 1453 4678 1088 4582 768 
C 4416 224 4243 -192 4064 -499 
C 4000 -589 3949 -646 3923 -666 
C 3885 -698 3853 -723 3827 -742 
C 3917 -941 4006 -1043 4102 -1043 
C 4166 -1043 4269 -909 4422 -646 
C 4576 -378 4736 13 4890 544 
C 4915 621 4934 704 4960 794 
L 4947 454 
C 4934 147 4928 -83 4928 -237 
C 4928 -429 4947 -582 4998 -704 
C 5075 -864 5229 -947 5453 -947 
C 5619 -947 5766 -909 5907 -838 
C 5971 -787 6010 -742 6010 -691 
C 6010 -659 5997 -627 5984 -602 
C 5933 -544 5875 -518 5798 -518 
C 5786 -518 5773 -525 5760 -538 
C 5645 -608 5549 -646 5466 -646 
C 5331 -646 5267 -544 5267 -339 
C 5267 -160 5280 96 5312 454 
C 5338 832 5357 1114 5357 1293 
C 5357 1370 5344 1434 5325 1491 
C 5286 1562 5222 1600 5139 1606 
C 5152 1696 5171 1786 5184 1888 
C 5466 1926 5702 1997 5901 2106 
C 5965 2131 6003 2182 6003 2253 
C 6003 2291 5997 2323 5984 2349 
C 5946 2406 5888 2438 5811 2438 
L 5786 2438 
C 5779 2438 5651 2394 5408 2317 
C 5357 2298 5299 2285 5242 2272 
C 5242 2285 5242 2310 5248 2336 
C 5338 3014 5389 3450 5402 3654 
L 5446 4166 
C 5453 4186 5459 4205 5466 4230 
L 5530 4230 
z
M 2176 3290 
C 2176 3334 2125 3366 2022 3386 
C 1920 3398 1811 3405 1709 3405 
C 1658 3405 1600 3398 1549 3398 
L 1549 3558 
C 1549 3808 1549 4006 1562 4160 
C 1568 4314 1581 4442 1600 4544 
C 1613 4640 1626 4704 1626 4730 
C 1626 4768 1600 4800 1549 4826 
C 1498 4851 1453 4870 1414 4870 
C 1363 4870 1306 4838 1235 4774 
C 1165 4717 1133 4666 1133 4627 
C 1133 4602 1139 4563 1152 4512 
L 1171 4320 
C 1178 4237 1184 4058 1184 3776 
L 1184 3373 
C 1158 3373 1133 3366 1107 3366 
C 915 3341 710 3302 506 3251 
C 480 3238 467 3213 467 3174 
C 467 3110 480 3040 518 2970 
C 550 2899 589 2867 627 2867 
C 640 2867 678 2880 730 2906 
C 870 2957 1024 2989 1184 3008 
L 1184 2515 
C 1120 2406 1018 2182 890 1837 
C 755 1491 666 1242 614 1088 
C 563 934 518 800 480 698 
C 429 640 403 602 390 582 
C 378 557 371 531 371 512 
C 371 448 390 390 429 333 
C 467 269 506 237 557 237 
C 621 237 672 256 710 301 
C 723 346 736 384 749 422 
C 800 666 877 947 979 1280 
C 1056 1523 1126 1722 1184 1882 
L 1184 1082 
C 1184 493 1178 -6 1178 -442 
L 1178 -762 
C 1178 -979 1274 -1088 1472 -1088 
C 1510 -1088 1555 -1075 1594 -1050 
C 1626 -1030 1645 -998 1645 -954 
C 1645 -922 1638 -890 1632 -864 
C 1619 -832 1606 -800 1600 -774 
C 1574 -646 1562 -531 1555 -422 
C 1530 58 1517 602 1517 1216 
L 1523 1786 
L 1626 1683 
C 1709 1594 1779 1523 1843 1485 
C 1901 1434 1939 1414 1965 1414 
C 2016 1414 2054 1427 2093 1466 
C 2118 1491 2138 1523 2157 1574 
C 2170 1619 2176 1658 2176 1690 
C 2176 1728 2157 1760 2125 1773 
C 2067 1792 2022 1805 1997 1805 
C 1958 1818 1920 1843 1875 1882 
C 1824 1914 1779 1958 1728 2016 
C 1670 2061 1619 2118 1568 2182 
C 1555 2195 1542 2208 1530 2227 
L 1542 3040 
C 1619 3040 1683 3046 1741 3046 
C 1779 3046 1850 3040 1939 3040 
C 2016 3034 2074 3034 2112 3034 
C 2138 3034 2150 3059 2163 3110 
C 2170 3155 2176 3213 2176 3290 
z
" transform="scale(0.015625)"/>
       <path id="HannotateSC-W5-7387" d="M 717 4166 
C 666 4115 634 4070 634 4026 
C 634 3981 640 3942 653 3917 
C 666 3891 685 3859 717 3834 
C 742 3802 781 3789 819 3789 
C 896 3789 1158 3802 1606 3840 
C 2029 3866 2662 3898 3520 3930 
C 4365 3962 4979 3981 5363 3981 
C 5402 3981 5440 3974 5472 3974 
C 5498 3974 5536 3968 5574 3968 
C 5613 3962 5638 3962 5658 3962 
C 5709 3962 5747 3974 5773 4006 
C 5798 4045 5818 4083 5818 4128 
C 5818 4179 5798 4224 5766 4256 
C 5728 4282 5690 4307 5651 4333 
C 5613 4346 5574 4358 5523 4358 
C 5466 4358 5312 4346 5056 4320 
C 4851 4307 4333 4282 3488 4243 
C 3475 4320 3411 4454 3290 4640 
C 3149 4832 3027 4934 2931 4947 
C 2854 4947 2803 4922 2778 4877 
C 2739 4826 2720 4768 2720 4717 
C 2720 4678 2739 4646 2790 4627 
C 2829 4602 2874 4570 2931 4525 
C 2976 4480 3034 4416 3110 4326 
C 3130 4288 3149 4256 3174 4230 
L 2835 4218 
C 1594 4166 947 4141 896 4141 
C 864 4141 838 4141 813 4147 
C 787 4147 762 4154 749 4154 
C 730 4154 717 4160 717 4166 
z
M 2394 2739 
C 2304 2739 2266 2771 2266 2835 
C 2266 2912 2406 3034 2694 3187 
C 2970 3315 3194 3405 3373 3443 
C 3411 3462 3437 3494 3437 3533 
C 3437 3584 3398 3642 3328 3706 
C 3238 3763 3168 3795 3117 3795 
C 3078 3795 3053 3789 3040 3776 
C 3027 3750 3014 3731 2995 3712 
C 2854 3654 2675 3552 2451 3405 
C 2221 3258 2067 3136 1997 3046 
C 1920 2944 1888 2874 1888 2829 
C 1888 2566 2054 2438 2381 2438 
C 2490 2438 2605 2438 2720 2451 
C 2419 2246 2208 2067 2093 1926 
C 1952 1760 1882 1619 1882 1517 
C 1882 1229 2061 1088 2406 1088 
C 2592 1088 2790 1101 3002 1139 
C 3002 1126 3008 1107 3008 1088 
C 3014 986 3021 883 3021 781 
L 3021 589 
C 2778 576 2522 570 2266 557 
C 1715 531 1114 493 454 448 
C 422 442 410 429 410 410 
C 410 358 429 294 480 218 
C 518 141 570 109 627 109 
C 704 109 794 115 890 128 
C 979 141 1088 154 1222 166 
C 1709 211 2304 250 3021 282 
L 3021 -109 
C 3021 -211 3014 -390 3014 -646 
C 3014 -723 3014 -787 3027 -851 
C 3034 -934 3059 -1011 3098 -1088 
C 3136 -1120 3181 -1139 3232 -1139 
C 3283 -1139 3341 -1094 3392 -1011 
C 3424 -934 3443 -864 3443 -800 
C 3418 -640 3405 -416 3405 -128 
L 3405 294 
L 3507 294 
C 4429 320 5088 339 5485 339 
C 5542 339 5606 333 5670 320 
C 5728 301 5786 294 5850 294 
C 5946 294 5997 346 5997 448 
C 5997 486 5939 544 5830 621 
C 5728 678 5658 710 5613 710 
C 5485 691 5402 678 5357 678 
L 3827 621 
L 3405 608 
L 3405 717 
C 3405 794 3411 896 3437 1024 
C 3456 1101 3469 1158 3469 1197 
C 3469 1203 3462 1210 3462 1222 
C 3667 1261 3859 1318 4045 1382 
C 4083 1318 4134 1261 4192 1203 
C 4333 1050 4442 973 4525 973 
C 4576 973 4634 1005 4691 1075 
C 4723 1114 4742 1139 4742 1165 
C 4742 1184 4730 1203 4717 1222 
L 4666 1274 
C 4595 1312 4506 1389 4403 1504 
C 4288 1619 4198 1741 4134 1875 
C 4083 2003 4058 2074 4058 2099 
C 4051 2138 4026 2176 3987 2202 
C 3942 2221 3898 2234 3859 2240 
C 3808 2234 3770 2221 3750 2195 
C 3725 2163 3718 2125 3718 2080 
C 3718 1990 3763 1862 3853 1683 
C 3251 1498 2765 1408 2381 1408 
C 2298 1408 2259 1440 2259 1504 
C 2259 1683 2515 1926 3040 2246 
C 3552 2554 3936 2739 4192 2810 
C 4230 2822 4256 2842 4275 2861 
C 4288 2874 4301 2893 4301 2931 
C 4301 2995 4262 3053 4192 3110 
C 4115 3168 4045 3200 3981 3206 
C 3923 3206 3891 3194 3878 3181 
C 3878 3155 3872 3136 3866 3123 
C 3699 3053 3514 2957 3309 2835 
C 3270 2829 3232 2822 3187 2822 
C 2874 2765 2611 2739 2394 2739 
z
M 1606 2880 
C 1606 2886 1587 2899 1555 2925 
L 1453 2989 
C 1229 3155 1075 3264 986 3315 
C 896 3360 845 3392 819 3418 
C 774 3456 736 3482 710 3482 
C 666 3482 621 3443 576 3379 
C 531 3315 512 3264 512 3226 
C 512 3206 518 3187 538 3168 
C 550 3149 614 3104 736 3040 
C 858 2963 973 2880 1075 2803 
C 1178 2714 1242 2656 1267 2637 
C 1299 2598 1325 2586 1350 2586 
C 1414 2586 1459 2598 1498 2624 
C 1542 2662 1574 2701 1587 2752 
C 1600 2790 1606 2829 1606 2880 
z
M 4614 2835 
C 4614 2784 4627 2733 4666 2682 
C 4698 2624 4736 2598 4774 2598 
C 4832 2598 4877 2611 4915 2650 
C 4928 2662 4947 2675 4960 2688 
C 5024 2765 5126 2854 5267 2957 
C 5453 3085 5594 3174 5690 3226 
C 5779 3270 5843 3296 5869 3302 
C 5901 3341 5920 3386 5920 3437 
C 5920 3501 5869 3539 5773 3552 
C 5722 3552 5664 3533 5594 3507 
C 5510 3475 5389 3411 5222 3322 
C 5056 3219 4941 3142 4883 3104 
C 4813 3066 4755 3027 4710 3002 
C 4672 2950 4646 2912 4634 2893 
C 4621 2867 4614 2848 4614 2835 
z
M 5978 1498 
C 5978 1510 5958 1523 5933 1536 
L 5856 1574 
C 5818 1594 5709 1670 5530 1798 
C 5350 1933 5197 2042 5069 2118 
C 4934 2195 4851 2246 4813 2278 
C 4774 2304 4749 2317 4723 2317 
C 4685 2317 4646 2291 4614 2246 
C 4576 2189 4563 2144 4563 2118 
C 4563 2086 4576 2054 4608 2029 
C 4634 2003 4666 1978 4710 1952 
C 4762 1920 4813 1888 4877 1850 
C 5056 1722 5222 1594 5363 1478 
C 5491 1350 5574 1274 5613 1235 
C 5651 1190 5690 1171 5722 1171 
C 5766 1171 5811 1178 5850 1197 
C 5888 1216 5920 1254 5946 1312 
C 5965 1363 5978 1421 5978 1498 
z
M 403 1248 
C 403 1190 422 1133 461 1082 
C 499 1018 538 992 582 992 
C 646 992 691 1011 730 1050 
L 781 1101 
C 858 1197 966 1312 1114 1453 
C 1312 1632 1459 1747 1555 1805 
C 1658 1862 1722 1894 1747 1907 
C 1786 1952 1805 2003 1805 2054 
C 1805 2125 1754 2163 1651 2176 
C 1600 2176 1536 2150 1459 2112 
C 1370 2067 1242 1984 1062 1856 
C 883 1722 755 1626 691 1574 
L 512 1427 
C 461 1370 435 1331 422 1312 
C 410 1286 403 1267 403 1248 
z
" transform="scale(0.015625)"/>
       <path id="HannotateSC-W5-5bc6" d="M 3302 2957 
C 3296 3021 3226 3136 3091 3302 
C 2950 3462 2835 3546 2739 3558 
C 2669 3558 2618 3533 2586 3488 
C 2547 3437 2534 3392 2534 3341 
C 2534 3296 2554 3264 2598 3245 
C 2637 3226 2688 3200 2746 3162 
C 2784 3123 2848 3072 2925 3002 
C 2995 2918 3040 2861 3053 2822 
C 3066 2790 3078 2778 3091 2778 
C 3149 2778 3200 2797 3245 2835 
C 3283 2886 3302 2925 3302 2957 
z
M 5459 1811 
C 5453 1914 5363 2093 5184 2355 
C 5005 2611 4845 2752 4710 2771 
C 4640 2771 4589 2746 4550 2694 
C 4512 2643 4493 2592 4493 2541 
C 4493 2490 4518 2458 4570 2438 
C 4621 2400 4685 2355 4762 2291 
C 4826 2240 4909 2144 5011 2016 
C 5107 1875 5165 1773 5184 1709 
C 5197 1645 5210 1619 5235 1619 
C 5299 1619 5350 1638 5402 1690 
C 5440 1734 5459 1773 5459 1811 
z
M 1626 870 
C 1626 806 1645 742 1690 685 
C 1722 621 1760 595 1811 595 
C 1875 595 1933 614 1971 659 
C 2022 704 2061 755 2099 806 
C 2189 947 2310 1101 2464 1267 
C 2579 1229 2714 1216 2867 1216 
C 3501 1216 4083 1299 4621 1472 
C 4755 1510 4826 1562 4826 1638 
C 4826 1677 4813 1722 4794 1760 
C 4755 1818 4691 1850 4614 1850 
C 4602 1850 4589 1843 4563 1830 
C 4499 1792 4384 1760 4224 1728 
C 4058 1690 3853 1651 3622 1613 
C 3392 1574 3162 1555 2931 1555 
C 2854 1555 2790 1555 2733 1568 
L 2950 1798 
C 3456 2310 3834 2656 4090 2822 
C 4339 2989 4506 3085 4582 3104 
C 4621 3155 4640 3206 4640 3264 
C 4640 3334 4582 3373 4474 3386 
C 4346 3379 4192 3315 4000 3194 
C 3802 3066 3488 2803 3059 2394 
C 2784 2125 2560 1907 2387 1734 
C 2330 1798 2304 1882 2304 1984 
C 2304 2086 2310 2214 2336 2374 
C 2349 2528 2368 2637 2394 2701 
C 2406 2733 2426 2765 2438 2797 
C 2451 2810 2458 2829 2458 2854 
C 2458 2906 2413 2957 2336 3008 
C 2259 3046 2189 3066 2131 3066 
C 2048 3066 2003 3034 1997 2982 
L 1997 2899 
C 1933 2477 1901 2170 1901 1978 
C 1901 1766 1971 1594 2118 1459 
C 1965 1299 1837 1165 1734 1056 
C 1690 992 1658 954 1645 941 
C 1632 915 1626 890 1626 870 
z
M 1741 2630 
C 1741 2669 1728 2707 1702 2739 
C 1670 2771 1626 2790 1562 2790 
C 1491 2790 1440 2758 1408 2701 
C 1376 2662 1331 2586 1267 2470 
C 1203 2355 1139 2246 1082 2150 
C 1018 2048 979 1978 954 1939 
C 928 1894 909 1862 896 1837 
C 877 1811 870 1798 870 1786 
C 870 1747 896 1690 947 1619 
C 1005 1549 1062 1517 1114 1517 
C 1171 1517 1216 1542 1248 1594 
L 1312 1728 
C 1338 1786 1395 1926 1498 2144 
C 1600 2362 1664 2490 1702 2541 
C 1728 2579 1741 2611 1741 2630 
z
M 4858 -90 
L 4858 -384 
C 4755 -403 4435 -442 3885 -506 
C 3763 -518 3642 -525 3520 -538 
C 3494 -384 3482 -160 3482 134 
L 3482 288 
C 3482 365 3488 467 3514 595 
C 3533 672 3546 723 3546 762 
C 3546 800 3514 845 3462 883 
C 3373 928 3302 954 3251 954 
C 3117 954 3053 896 3053 787 
C 3059 736 3066 698 3066 659 
C 3072 557 3078 454 3078 352 
L 3078 154 
C 3078 38 3072 -134 3072 -390 
C 3072 -454 3072 -512 3085 -570 
C 2739 -589 2374 -602 1997 -602 
C 1741 -602 1613 -493 1613 -275 
C 1613 -173 1619 -70 1645 26 
C 1664 128 1683 198 1702 237 
C 1715 275 1722 301 1734 320 
C 1741 346 1747 365 1747 384 
C 1747 435 1709 486 1632 525 
C 1555 557 1485 576 1421 576 
C 1331 576 1286 544 1286 486 
C 1286 454 1280 435 1280 422 
C 1229 109 1210 -122 1210 -275 
C 1210 -493 1280 -653 1427 -768 
C 1568 -877 1766 -934 2022 -941 
C 3046 -941 3981 -870 4832 -742 
C 4826 -755 4819 -762 4819 -774 
C 4806 -794 4806 -819 4806 -845 
C 4806 -890 4838 -928 4909 -960 
C 4966 -992 5037 -1011 5114 -1011 
C 5158 -1011 5197 -998 5229 -973 
C 5254 -947 5274 -909 5274 -864 
C 5274 -838 5267 -774 5261 -685 
C 5248 -589 5248 -518 5248 -467 
L 5248 211 
C 5248 288 5254 339 5274 365 
C 5286 384 5293 397 5293 410 
C 5293 448 5261 493 5197 531 
C 5133 570 5056 589 4979 589 
C 4877 589 4826 544 4826 467 
C 4826 454 4826 442 4838 422 
C 4845 397 4851 371 4851 333 
C 4851 275 4858 134 4858 -90 
z
M 4934 4250 
C 4461 4250 3949 4224 3411 4186 
C 3386 4243 3354 4320 3302 4410 
C 3200 4570 3104 4691 3014 4768 
C 2925 4851 2854 4896 2803 4896 
C 2726 4896 2662 4864 2624 4806 
C 2579 4749 2560 4691 2560 4634 
C 2560 4595 2566 4570 2586 4557 
C 2598 4550 2624 4538 2656 4518 
C 2694 4499 2746 4461 2803 4403 
C 2874 4339 2944 4256 3008 4154 
C 2406 4096 1760 4019 1069 3917 
L 1069 3955 
C 1075 4013 1082 4051 1082 4070 
C 1062 4109 1024 4141 960 4154 
C 896 4166 832 4173 762 4173 
C 672 4173 634 4128 634 4045 
C 634 4032 634 4019 640 4006 
L 653 3936 
L 800 2771 
C 800 2726 819 2682 864 2630 
C 909 2579 986 2560 1094 2560 
C 1171 2573 1210 2618 1210 2694 
C 1210 2733 1197 2829 1178 2982 
C 1152 3123 1133 3290 1114 3475 
C 1146 3475 1190 3488 1254 3507 
C 1312 3520 1389 3539 1491 3565 
C 2675 3776 3840 3885 4986 3885 
C 5203 3885 5312 3814 5312 3686 
C 5312 3462 5242 3232 5114 3002 
L 5075 2944 
C 5062 2931 5056 2912 5056 2899 
C 5056 2835 5088 2778 5165 2726 
C 5235 2662 5299 2637 5350 2637 
C 5389 2637 5434 2656 5472 2707 
C 5530 2771 5594 2893 5658 3078 
C 5715 3258 5747 3456 5747 3674 
C 5747 3814 5702 3930 5619 4026 
C 5523 4115 5414 4179 5293 4211 
C 5171 4237 5050 4250 4934 4250 
z
" transform="scale(0.015625)"/>
       <path id="HannotateSC-W5-5ea6" d="M 5536 2893 
C 5530 2944 5485 3002 5402 3059 
C 5312 3104 5222 3130 5146 3130 
C 5126 3130 5094 3123 5050 3117 
C 4998 3104 4941 3098 4870 3098 
C 4768 3091 4659 3085 4550 3078 
C 4557 3162 4570 3258 4582 3360 
C 4582 3392 4589 3418 4595 3443 
C 4608 3482 4621 3520 4621 3546 
C 4621 3584 4582 3622 4518 3654 
C 4442 3686 4384 3706 4339 3706 
C 4250 3706 4205 3654 4198 3558 
L 4198 3475 
L 4173 3053 
C 3827 3027 3482 3002 3136 2976 
L 2861 2950 
C 2880 3059 2899 3155 2925 3245 
L 2944 3302 
C 2950 3334 2957 3360 2957 3386 
C 2957 3443 2912 3494 2835 3539 
C 2765 3571 2694 3590 2624 3590 
C 2547 3578 2502 3533 2502 3450 
L 2502 3354 
C 2502 3341 2496 3322 2496 3283 
C 2477 3155 2464 3034 2458 2912 
C 2253 2893 2099 2880 1997 2867 
C 1798 2842 1690 2829 1670 2829 
C 1632 2816 1619 2797 1619 2758 
C 1619 2707 1645 2650 1696 2586 
C 1741 2522 1792 2490 1843 2490 
C 1875 2490 1946 2502 2061 2528 
C 2144 2541 2266 2554 2432 2579 
C 2426 2496 2426 2419 2426 2342 
C 2426 2138 2490 1990 2624 1901 
C 2752 1805 2982 1760 3315 1760 
C 3533 1760 3770 1786 4026 1850 
C 4275 1907 4448 1965 4544 2022 
C 4589 2048 4614 2086 4614 2138 
C 4614 2182 4602 2221 4576 2259 
C 4557 2272 4538 2285 4512 2298 
C 4512 2438 4512 2592 4525 2765 
C 4698 2771 4851 2778 4986 2778 
L 5210 2765 
C 5299 2752 5363 2752 5402 2752 
C 5485 2752 5530 2797 5536 2893 
z
M 4186 2202 
C 4096 2170 4000 2138 3891 2112 
C 3674 2054 3482 2029 3328 2029 
C 3123 2029 2982 2048 2918 2093 
C 2842 2131 2810 2208 2810 2336 
C 2810 2432 2810 2528 2822 2630 
C 3053 2656 3366 2682 3776 2714 
L 4160 2739 
L 4160 2509 
C 4160 2368 4166 2272 4179 2208 
L 4186 2202 
z
M 3674 4166 
C 3661 4230 3590 4358 3462 4550 
C 3315 4742 3187 4851 3085 4864 
C 3008 4864 2944 4832 2906 4781 
C 2861 4717 2842 4659 2842 4602 
C 2842 4550 2867 4512 2925 4486 
C 2963 4461 3014 4429 3072 4390 
C 3117 4352 3181 4282 3264 4192 
L 3296 4147 
C 3078 4134 2854 4115 2618 4102 
C 2278 4077 1914 4051 1517 4013 
C 1504 4026 1478 4045 1440 4070 
C 1350 4109 1274 4134 1216 4134 
C 1114 4134 1062 4070 1050 3949 
C 1050 3910 1037 3795 1024 3603 
C 819 1811 723 461 723 -435 
C 723 -576 730 -685 742 -755 
C 755 -826 787 -883 838 -922 
C 883 -960 941 -986 1018 -986 
C 1101 -986 1146 -947 1146 -877 
C 1146 -858 1133 -832 1120 -794 
C 1107 -742 1101 -710 1101 -698 
C 1101 531 1222 1939 1459 3514 
L 1472 3603 
C 1498 3603 1536 3603 1581 3616 
L 1850 3661 
C 2323 3725 2925 3776 3661 3808 
C 4390 3840 4915 3859 5229 3859 
C 5293 3859 5363 3846 5434 3834 
C 5498 3814 5568 3808 5638 3808 
C 5741 3814 5792 3872 5792 3981 
C 5792 4032 5728 4096 5613 4173 
C 5498 4237 5421 4275 5370 4275 
L 5082 4237 
C 4915 4224 4506 4198 3866 4173 
C 3802 4166 3738 4166 3674 4166 
z
M 4307 1178 
C 4589 1178 4730 1114 4730 986 
C 4723 819 4461 576 3936 262 
C 3872 224 3808 186 3738 147 
L 3437 346 
C 3104 576 2867 762 2739 902 
C 2842 928 2957 960 3098 998 
C 3546 1114 3949 1178 4307 1178 
z
M 3354 -45 
C 2931 -237 2426 -416 1837 -589 
C 1747 -608 1664 -621 1600 -627 
C 1600 -666 1600 -704 1606 -755 
C 1632 -883 1702 -960 1805 -992 
C 1882 -992 1984 -973 2118 -934 
C 2758 -717 3302 -499 3750 -282 
C 3955 -397 4186 -518 4442 -646 
C 5030 -941 5434 -1088 5658 -1094 
C 5709 -1094 5754 -1082 5792 -1056 
C 5830 -1030 5856 -998 5856 -947 
C 5850 -883 5811 -838 5741 -800 
L 5702 -800 
C 5683 -800 5658 -794 5632 -794 
C 5427 -755 5126 -634 4723 -429 
C 4531 -326 4326 -218 4115 -90 
C 4218 -26 4314 32 4403 96 
C 4883 435 5126 723 5126 966 
C 5126 1082 5075 1184 4986 1274 
C 4896 1363 4794 1427 4685 1453 
C 4570 1478 4435 1491 4269 1491 
C 3904 1491 3501 1440 3066 1338 
C 2624 1235 2259 1133 1971 1018 
L 1965 992 
C 1978 787 2048 685 2176 685 
C 2214 704 2266 730 2330 755 
C 2406 646 2618 467 2963 218 
C 3078 128 3213 45 3354 -45 
z
" transform="scale(0.015625)"/>
      </defs>
      <use xlink:href="#HannotateSC-W5-6982"/>
      <use xlink:href="#HannotateSC-W5-7387" x="99.999985"/>
      <use xlink:href="#HannotateSC-W5-5bc6" x="199.999969"/>
      <use xlink:href="#HannotateSC-W5-5ea6" x="299.999954"/>
     </g>
    </g>
   </g>
   <g id="line2d_16">
    <path d="M 73.832727 295.488 
L 154.752629 295.488 
L 155.077609 53.568 
L 317.242391 53.568 
L 317.567371 295.488 
L 398.487273 295.488 
L 398.487273 295.488 
" clip-path="url(#p399930d547)" style="fill: none; stroke: #a52a2a; stroke-width: 1.5; stroke-linecap: square"/>
   </g>
   <g id="patch_3">
    <path d="M 57.6 307.584 
L 57.6 41.472 
" style="fill: none; stroke: #000000; stroke-width: 0.8; stroke-linejoin: miter; stroke-linecap: square"/>
   </g>
   <g id="patch_4">
    <path d="M 414.72 307.584 
L 414.72 41.472 
" style="fill: none; stroke: #000000; stroke-width: 0.8; stroke-linejoin: miter; stroke-linecap: square"/>
   </g>
   <g id="patch_5">
    <path d="M 57.6 307.584 
L 414.72 307.584 
" style="fill: none; stroke: #000000; stroke-width: 0.8; stroke-linejoin: miter; stroke-linecap: square"/>
   </g>
   <g id="patch_6">
    <path d="M 57.6 41.472 
L 414.72 41.472 
" style="fill: none; stroke: #000000; stroke-width: 0.8; stroke-linejoin: miter; stroke-linecap: square"/>
   </g>
   <g id="text_18">
    <!-- 均匀分布 (Uniform Distribution) -->
    <g transform="translate(153.06 35.472) scale(0.12 -0.12)">
     <defs>
      <path id="HannotateSC-W5-5747" d="M 2483 3046 
C 2483 3098 2426 3130 2317 3149 
C 2208 3162 2099 3168 1984 3168 
C 1888 3168 1792 3162 1702 3162 
L 1702 4077 
C 1702 4154 1709 4262 1734 4397 
C 1747 4474 1760 4531 1760 4570 
C 1760 4614 1728 4653 1677 4691 
C 1594 4736 1523 4762 1466 4762 
C 1325 4762 1254 4704 1254 4602 
C 1267 4550 1274 4499 1274 4461 
C 1280 4358 1286 4250 1286 4147 
L 1286 3136 
C 1261 3136 1229 3130 1203 3130 
C 954 3104 698 3066 429 3027 
C 403 3014 397 2982 397 2944 
C 397 2867 410 2790 442 2726 
C 480 2650 525 2611 563 2611 
C 582 2611 627 2624 704 2650 
C 883 2694 1082 2726 1286 2752 
L 1286 1434 
C 1286 1312 1280 1120 1280 864 
C 1280 781 1280 710 1293 653 
C 1293 640 1293 627 1299 614 
C 1171 576 1056 550 954 531 
C 806 499 672 480 544 467 
L 448 448 
C 429 358 422 288 422 237 
C 422 173 435 115 474 77 
C 512 38 557 19 608 19 
C 685 19 781 38 902 77 
C 1018 115 1242 186 1568 282 
C 1888 371 2138 435 2317 461 
C 2458 486 2560 499 2637 512 
C 2662 518 2688 531 2707 550 
C 2733 576 2746 621 2746 672 
C 2739 710 2720 749 2694 800 
C 2650 851 2598 877 2534 877 
C 2470 877 2342 851 2163 813 
C 2035 787 1888 755 1734 717 
C 1709 870 1702 1101 1702 1408 
L 1702 2778 
C 1824 2778 1926 2784 2016 2784 
C 2054 2784 2131 2778 2234 2778 
C 2317 2771 2381 2771 2419 2771 
C 2445 2771 2458 2797 2470 2854 
C 2477 2906 2483 2970 2483 3046 
z
M 4653 1990 
C 4653 2003 4640 2010 4614 2022 
L 4550 2048 
C 4518 2067 4429 2138 4275 2253 
C 4122 2368 3987 2458 3878 2528 
C 3770 2592 3699 2637 3667 2662 
C 3629 2701 3597 2720 3578 2720 
C 3526 2720 3482 2688 3437 2624 
C 3392 2560 3373 2515 3373 2477 
C 3373 2438 3386 2406 3424 2368 
C 3443 2342 3475 2323 3520 2304 
C 3565 2278 3616 2253 3667 2227 
C 3827 2125 3974 2022 4109 1933 
C 4224 1837 4294 1773 4333 1747 
C 4371 1709 4397 1696 4422 1696 
C 4467 1696 4506 1702 4544 1722 
C 4576 1741 4602 1773 4627 1818 
C 4640 1862 4653 1920 4653 1990 
z
M 3149 762 
L 3066 749 
C 3046 666 3040 595 3040 544 
C 3040 480 3053 429 3085 397 
C 3110 358 3155 346 3206 346 
C 3270 346 3347 358 3450 397 
C 3546 429 3731 486 4006 576 
C 4269 653 4474 710 4627 736 
C 4736 762 4826 774 4890 781 
C 4915 787 4934 800 4947 819 
C 4973 845 4986 883 4986 934 
C 4979 966 4960 1005 4934 1056 
C 4896 1101 4851 1126 4787 1126 
C 4736 1126 4634 1107 4480 1069 
C 4333 1030 4160 992 3968 941 
C 3770 890 3610 845 3488 819 
C 3366 794 3251 774 3149 762 
z
M 4045 4576 
C 4083 4602 4102 4640 4102 4691 
C 4102 4730 4083 4774 4045 4826 
C 4006 4870 3942 4896 3866 4896 
C 3827 4896 3802 4883 3782 4870 
C 3718 4813 3616 4672 3475 4442 
C 3283 4134 3046 3686 2771 3085 
C 2656 2829 2598 2656 2598 2573 
C 2598 2400 2720 2298 2963 2272 
C 2982 2438 3027 2618 3104 2822 
C 3200 3072 3302 3315 3418 3546 
C 3430 3539 3443 3539 3462 3539 
C 3488 3539 3565 3565 3706 3622 
C 4192 3770 4659 3846 5094 3853 
C 5267 3853 5382 3814 5440 3744 
C 5466 3699 5478 3642 5478 3578 
C 5472 2438 5440 1146 5382 -301 
C 5363 -499 5344 -634 5318 -704 
C 5254 -781 5229 -838 5229 -864 
C 5229 -877 5261 -915 5338 -979 
C 5402 -1030 5459 -1062 5504 -1069 
C 5568 -1069 5626 -1037 5677 -986 
C 5715 -934 5747 -883 5766 -838 
C 5792 -730 5811 -576 5824 -371 
C 5882 1094 5914 2400 5920 3552 
C 5920 3674 5869 3795 5773 3917 
C 5683 4019 5594 4090 5491 4141 
C 5382 4179 5254 4198 5107 4198 
C 4710 4198 4230 4134 3667 4013 
C 3744 4154 3834 4294 3923 4435 
C 3962 4499 4006 4544 4045 4576 
z
" transform="scale(0.015625)"/>
      <path id="HannotateSC-W5-5300" d="M 3661 1869 
C 3661 1882 3642 1888 3603 1901 
C 3578 1914 3546 1920 3514 1933 
C 3469 1952 3328 2016 3098 2131 
C 2874 2246 2682 2336 2515 2406 
C 2349 2470 2240 2522 2195 2547 
C 2150 2579 2112 2598 2086 2598 
C 2035 2598 1984 2566 1946 2502 
C 1894 2426 1875 2368 1875 2330 
C 1875 2291 1894 2259 1933 2221 
C 1958 2195 2003 2176 2067 2157 
C 2138 2131 2208 2099 2285 2074 
C 2528 1971 2746 1869 2931 1779 
C 3104 1683 3219 1619 3270 1587 
C 3322 1549 3366 1536 3405 1536 
C 3456 1536 3501 1542 3539 1562 
C 3578 1587 3603 1626 3629 1683 
C 3648 1728 3661 1792 3661 1869 
z
M 1421 237 
L 1312 224 
C 1293 128 1286 51 1286 -6 
C 1286 -70 1306 -128 1344 -173 
C 1376 -211 1421 -237 1472 -237 
C 1568 -237 1690 -205 1843 -147 
L 2688 141 
C 3085 269 3398 358 3629 403 
C 3802 435 3936 454 4032 467 
C 4058 474 4083 486 4102 506 
C 4122 531 4134 576 4134 627 
C 4134 666 4115 704 4090 755 
C 4045 806 3987 832 3923 832 
C 3846 832 3686 800 3456 742 
C 3226 685 2963 614 2669 525 
L 1939 333 
C 1747 282 1574 250 1421 237 
z
M 2406 4678 
C 2406 4730 2381 4774 2342 4819 
C 2304 4864 2240 4890 2163 4890 
C 2067 4890 2003 4845 1965 4768 
C 1875 4666 1741 4467 1562 4166 
C 1376 3859 1197 3578 1030 3322 
C 858 3053 736 2861 666 2758 
L 493 2509 
C 442 2445 416 2394 416 2368 
C 416 2317 448 2253 512 2176 
C 582 2099 646 2061 698 2061 
C 762 2061 819 2086 858 2150 
C 896 2214 960 2323 1043 2477 
C 1114 2592 1254 2835 1466 3194 
C 1472 3187 1485 3187 1498 3187 
C 1517 3187 1638 3226 1869 3315 
C 2982 3622 3942 3782 4749 3782 
C 4960 3776 5101 3725 5178 3622 
C 5210 3539 5229 3450 5229 3347 
C 5229 2163 5203 979 5165 -205 
C 5146 -499 5126 -691 5107 -774 
C 5056 -832 5037 -877 5037 -902 
C 5037 -928 5069 -973 5133 -1043 
C 5190 -1107 5242 -1146 5280 -1152 
C 5331 -1152 5395 -1126 5466 -1075 
C 5530 -1024 5568 -960 5587 -890 
C 5600 -755 5606 -602 5613 -435 
L 5632 269 
C 5658 1472 5677 2534 5683 3469 
C 5683 3622 5638 3744 5562 3840 
C 5485 3930 5382 4000 5261 4064 
C 5139 4122 4992 4154 4813 4154 
C 3981 4154 2976 4013 1792 3738 
C 2022 4109 2176 4346 2266 4448 
C 2355 4563 2400 4640 2406 4678 
z
" transform="scale(0.015625)"/>
      <path id="HannotateSC-W5-5206" d="M 5939 3002 
C 5786 3053 5613 3149 5434 3290 
C 5254 3424 5050 3603 4826 3827 
C 4595 4038 4384 4262 4192 4506 
C 3987 4742 3866 4864 3834 4864 
C 3776 4864 3725 4845 3680 4813 
C 3616 4736 3584 4672 3584 4614 
C 3584 4550 3603 4499 3642 4474 
C 3674 4429 3776 4320 3942 4154 
C 4102 3981 4346 3744 4666 3450 
C 4986 3149 5254 2918 5459 2758 
C 5658 2598 5798 2522 5888 2522 
C 5952 2522 6010 2534 6048 2573 
C 6080 2611 6106 2662 6125 2720 
C 6138 2778 6150 2822 6150 2854 
C 6150 2906 6125 2938 6086 2963 
C 6022 2989 5971 3002 5939 3002 
z
M 4070 2016 
C 4474 2016 4704 1888 4755 1645 
C 4742 1120 4659 429 4493 -429 
C 4454 -550 4410 -634 4371 -672 
C 4320 -710 4301 -749 4301 -774 
C 4390 -960 4474 -1056 4544 -1069 
C 4582 -1069 4646 -1050 4723 -1018 
C 4813 -973 4858 -941 4870 -922 
C 4883 -896 4909 -819 4934 -678 
C 4960 -576 4979 -499 4979 -442 
C 5133 448 5210 1171 5216 1728 
C 5203 1843 5152 1952 5062 2048 
C 4973 2144 4845 2227 4685 2291 
C 4531 2355 4320 2394 4038 2394 
C 3437 2387 2797 2304 2125 2138 
C 1453 1971 1120 1850 1120 1786 
C 1120 1722 1152 1651 1222 1562 
C 1293 1472 1363 1434 1427 1434 
C 1453 1434 1472 1434 1498 1446 
L 1792 1581 
C 1946 1658 2240 1747 2662 1850 
C 2707 1862 2758 1869 2810 1882 
C 2739 1779 2630 1568 2477 1248 
C 2310 922 2157 614 2003 333 
L 1690 -275 
C 1626 -384 1568 -474 1530 -544 
C 1485 -608 1466 -659 1466 -691 
C 1466 -742 1498 -806 1568 -896 
C 1638 -973 1702 -1018 1760 -1018 
C 1830 -1018 1888 -986 1933 -922 
C 1965 -858 2016 -736 2086 -570 
C 2163 -403 2330 -38 2592 525 
C 2854 1094 3027 1440 3104 1562 
C 3181 1690 3226 1773 3232 1811 
C 3232 1862 3213 1907 3174 1946 
C 3450 1984 3750 2010 4070 2016 
z
M 397 2342 
C 397 2266 422 2195 474 2125 
C 518 2048 570 2016 627 2016 
C 704 2016 768 2035 819 2086 
C 858 2138 890 2182 915 2234 
C 1043 2502 1235 2822 1498 3194 
C 1850 3686 2112 4013 2285 4179 
C 2464 4339 2579 4429 2630 4454 
C 2675 4512 2701 4576 2701 4653 
C 2701 4742 2630 4794 2496 4806 
C 2406 4800 2291 4736 2157 4621 
C 2016 4499 1786 4243 1478 3859 
C 1171 3462 966 3181 851 3008 
C 723 2835 621 2688 538 2566 
C 474 2502 435 2451 416 2426 
C 403 2394 397 2368 397 2342 
z
" transform="scale(0.015625)"/>
      <path id="HannotateSC-W5-5e03" d="M 5402 3610 
C 5466 3610 5530 3603 5606 3590 
C 5683 3571 5754 3565 5818 3565 
C 5920 3571 5978 3629 5978 3738 
C 5978 3789 5914 3853 5792 3930 
C 5677 4000 5594 4038 5542 4038 
L 5254 4000 
C 5050 3981 4557 3955 3789 3917 
C 3450 3898 3098 3878 2739 3859 
C 2912 4115 3040 4288 3123 4378 
C 3264 4544 3341 4653 3347 4704 
C 3347 4755 3328 4800 3296 4845 
C 3258 4883 3194 4909 3117 4909 
C 3027 4909 2963 4870 2925 4794 
C 2784 4640 2573 4346 2278 3910 
C 2259 3885 2240 3853 2227 3827 
C 1715 3789 1152 3744 544 3680 
C 506 3667 493 3648 493 3622 
C 493 3565 518 3494 576 3418 
C 621 3328 672 3290 736 3290 
C 813 3290 896 3296 986 3315 
C 1075 3328 1184 3347 1312 3366 
C 1504 3392 1728 3418 1971 3443 
C 1786 3174 1606 2912 1434 2662 
C 1152 2272 960 2003 845 1850 
C 730 1690 634 1568 563 1478 
C 480 1382 442 1312 442 1274 
C 442 1222 474 1152 550 1062 
C 627 973 698 934 762 934 
C 838 934 896 966 934 1030 
C 998 1120 1101 1280 1229 1504 
C 1312 1638 1466 1882 1696 2240 
C 1702 2214 1709 2182 1709 2150 
C 1709 1203 1734 474 1798 -38 
C 1798 -77 1818 -109 1856 -147 
C 1894 -179 1952 -198 2029 -198 
C 2086 -198 2138 -179 2182 -147 
C 2221 -115 2240 -64 2240 6 
C 2240 45 2227 109 2214 205 
C 2189 294 2176 474 2163 736 
C 2150 928 2138 1286 2138 1818 
C 2182 1830 2240 1850 2317 1869 
C 2662 1952 3008 2022 3347 2074 
L 3347 38 
C 3347 -77 3341 -269 3341 -550 
C 3341 -627 3341 -704 3354 -768 
C 3360 -858 3386 -941 3437 -1018 
C 3482 -1056 3533 -1075 3584 -1075 
C 3635 -1075 3693 -1024 3757 -934 
C 3795 -851 3814 -774 3814 -710 
C 3789 -531 3776 -294 3776 13 
L 3776 2125 
C 4045 2150 4307 2170 4563 2170 
C 4781 2163 4922 2138 4973 2093 
C 5024 2042 5050 1984 5050 1914 
C 5018 1318 4979 781 4941 294 
C 4934 282 4928 262 4928 243 
C 4915 211 4909 192 4909 186 
C 4909 147 4928 102 4979 45 
C 5037 -6 5088 -38 5126 -38 
C 5190 -38 5248 -13 5312 38 
C 5370 90 5402 134 5402 166 
C 5414 250 5434 550 5459 1069 
L 5504 1952 
C 5498 2093 5453 2208 5363 2285 
C 5267 2362 5171 2413 5069 2445 
C 4979 2470 4845 2490 4666 2496 
C 4397 2496 4096 2477 3776 2445 
L 3776 2598 
C 3776 2688 3789 2797 3814 2925 
C 3834 3014 3846 3072 3846 3110 
C 3846 3155 3814 3200 3757 3238 
C 3667 3290 3590 3315 3526 3315 
C 3386 3315 3322 3258 3322 3142 
C 3328 3091 3334 3046 3334 3002 
C 3341 2893 3347 2784 3347 2669 
L 3347 2400 
C 2982 2349 2586 2291 2163 2214 
L 2163 2227 
C 2163 2278 2125 2317 2061 2355 
C 1997 2394 1926 2413 1856 2413 
L 1805 2413 
L 2170 2982 
C 2285 3162 2394 3334 2496 3488 
C 2797 3514 3130 3533 3501 3546 
C 4384 3584 5018 3610 5402 3610 
z
" transform="scale(0.015625)"/>
      <path id="HannotateSC-W5-20" transform="scale(0.015625)"/>
      <path id="HannotateSC-W5-28" d="M 1574 4595 
C 1574 4691 1542 4768 1491 4832 
C 1434 4890 1357 4922 1267 4922 
C 1203 4922 1139 4890 1075 4838 
C 1011 4781 960 4704 909 4608 
C 851 4506 800 4390 755 4256 
C 710 4122 672 3974 646 3814 
C 608 3622 576 3430 550 3238 
C 525 3040 506 2854 493 2682 
C 474 2509 461 2355 461 2221 
C 448 2080 448 1978 448 1914 
C 448 1587 461 1261 499 928 
C 538 589 589 262 659 -58 
C 672 -122 691 -211 730 -320 
C 762 -422 800 -531 845 -646 
C 883 -749 934 -851 986 -941 
C 1030 -1030 1075 -1088 1126 -1120 
C 1152 -1139 1190 -1152 1229 -1152 
C 1350 -1152 1414 -1075 1414 -922 
C 1414 -858 1408 -794 1395 -736 
C 1331 -640 1274 -518 1222 -371 
C 1171 -218 1126 -58 1088 115 
C 1050 288 1018 474 992 666 
C 966 858 941 1043 928 1222 
C 909 1402 896 1568 890 1722 
C 877 1875 877 2003 877 2112 
C 877 2355 890 2598 922 2848 
C 954 3091 992 3328 1037 3571 
C 1056 3693 1101 3821 1165 3949 
C 1229 4070 1299 4179 1389 4275 
L 1453 4352 
C 1472 4378 1491 4403 1517 4435 
C 1555 4486 1574 4544 1574 4595 
z
" transform="scale(0.015625)"/>
      <path id="HannotateSC-W5-55" d="M 3411 2714 
C 3411 2944 3405 3181 3405 3424 
C 3392 3654 3392 3891 3392 4128 
C 3392 4205 3366 4282 3328 4346 
C 3283 4410 3213 4448 3110 4448 
C 2995 4448 2918 4416 2867 4352 
C 2810 4288 2784 4205 2784 4109 
C 2784 4006 2790 3910 2816 3808 
L 2854 3507 
L 2874 3059 
C 2874 2906 2880 2758 2880 2611 
C 2880 2464 2874 2323 2867 2182 
L 2829 1754 
C 2803 1574 2778 1402 2746 1242 
C 2707 1075 2656 934 2586 813 
C 2509 691 2406 595 2291 531 
C 2170 454 2016 422 1830 422 
C 1523 422 1299 557 1152 838 
C 998 1107 922 1568 922 2208 
C 922 2522 928 2835 947 3142 
C 960 3450 966 3763 966 4083 
C 966 4141 928 4198 864 4256 
C 794 4307 723 4333 646 4333 
C 570 4333 499 4307 429 4256 
C 352 4205 320 4147 320 4083 
C 320 4064 320 4045 333 4019 
C 339 3994 352 3974 365 3955 
C 371 3930 378 3904 390 3885 
C 397 3859 403 3834 403 3808 
L 403 2118 
C 403 1888 422 1658 461 1414 
C 493 1171 563 947 666 742 
C 762 538 902 365 1082 237 
C 1261 102 1491 38 1779 38 
C 2086 38 2355 102 2592 237 
C 2822 371 3008 570 3136 826 
C 3213 973 3277 1210 3328 1542 
C 3379 1869 3411 2259 3411 2714 
z
" transform="scale(0.015625)"/>
      <path id="HannotateSC-W5-6e" d="M 2925 1050 
L 2925 1299 
C 2925 1376 2918 1459 2918 1542 
C 2906 1715 2886 1869 2861 2003 
C 2829 2131 2790 2240 2739 2336 
C 2688 2432 2630 2515 2560 2592 
C 2483 2656 2406 2720 2317 2771 
C 2253 2803 2189 2835 2112 2861 
C 2029 2880 1952 2893 1882 2893 
C 1690 2893 1504 2822 1331 2694 
C 1152 2566 1018 2387 915 2157 
C 915 2246 922 2317 928 2374 
C 928 2426 934 2464 934 2502 
C 934 2528 941 2554 941 2579 
L 941 2656 
C 941 2746 922 2810 890 2854 
C 851 2893 787 2918 691 2918 
C 614 2918 550 2899 486 2861 
C 416 2816 384 2765 384 2707 
C 384 2669 384 2643 390 2630 
C 403 2528 410 2432 410 2342 
L 422 1971 
L 422 698 
C 416 602 416 518 416 448 
C 410 371 403 314 397 269 
C 390 218 390 179 390 154 
C 390 90 410 45 448 6 
C 480 -26 544 -45 646 -45 
C 685 -45 723 -32 755 -19 
L 832 38 
C 877 83 902 147 915 224 
C 922 294 928 358 928 422 
C 928 538 928 659 934 787 
C 934 915 941 1037 941 1152 
C 941 1229 954 1331 979 1453 
C 1005 1568 1043 1690 1107 1818 
C 1146 1907 1197 2003 1254 2093 
C 1306 2176 1370 2253 1434 2323 
C 1498 2387 1568 2445 1638 2490 
C 1709 2528 1786 2547 1862 2547 
C 1971 2547 2074 2483 2163 2368 
C 2246 2246 2304 2080 2342 1862 
C 2355 1786 2362 1709 2374 1619 
L 2394 1370 
L 2406 1146 
L 2406 640 
C 2400 538 2400 467 2400 422 
C 2400 384 2394 352 2387 320 
C 2374 282 2374 256 2374 230 
C 2374 19 2438 -83 2573 -83 
C 2682 -83 2765 -51 2829 13 
C 2886 77 2918 160 2918 269 
L 2918 659 
C 2918 794 2925 922 2925 1050 
z
" transform="scale(0.015625)"/>
      <path id="HannotateSC-W5-69" d="M 928 3469 
C 1030 3469 1114 3494 1178 3552 
C 1242 3603 1274 3680 1274 3782 
C 1274 3904 1229 4000 1139 4077 
C 1043 4141 934 4179 806 4179 
C 704 4179 621 4147 550 4090 
C 480 4032 448 3955 448 3859 
C 448 3802 461 3750 486 3706 
C 512 3654 550 3616 602 3578 
C 640 3539 691 3514 755 3501 
C 806 3475 864 3469 928 3469 
z
M 1101 2438 
C 1101 2458 1107 2477 1114 2490 
L 1114 2547 
C 1114 2573 1101 2598 1075 2624 
C 1050 2650 1018 2669 986 2694 
C 947 2720 909 2739 870 2752 
C 826 2765 787 2771 755 2771 
C 691 2771 640 2765 614 2752 
C 589 2739 563 2714 550 2682 
C 525 2630 512 2566 512 2496 
L 512 1760 
C 506 1626 506 1485 506 1338 
C 506 1190 499 1050 499 922 
L 499 371 
C 499 333 506 288 525 250 
C 544 198 570 160 602 122 
C 634 83 672 58 710 32 
C 749 6 781 0 819 0 
C 858 0 896 6 934 32 
C 966 58 998 83 1024 122 
C 1043 154 1062 192 1075 237 
C 1088 275 1094 307 1094 346 
C 1069 403 1056 467 1050 531 
C 1037 589 1037 640 1037 691 
L 1037 1325 
C 1037 1421 1043 1517 1043 1606 
C 1043 1696 1043 1786 1050 1862 
L 1050 2042 
C 1050 2112 1062 2182 1075 2246 
L 1101 2438 
z
" transform="scale(0.015625)"/>
      <path id="HannotateSC-W5-66" d="M 2464 3744 
C 2464 3846 2438 3936 2400 4019 
C 2355 4096 2298 4166 2234 4224 
C 2163 4275 2086 4320 2003 4352 
C 1914 4378 1830 4397 1747 4397 
C 1581 4397 1440 4333 1312 4211 
C 1184 4083 1075 3910 992 3680 
C 941 3552 909 3405 883 3232 
C 851 3053 832 2867 826 2669 
C 826 2656 819 2630 819 2605 
L 819 2451 
C 755 2445 691 2445 627 2445 
C 557 2445 499 2438 461 2438 
C 416 2432 378 2432 352 2432 
C 320 2432 301 2426 294 2426 
C 179 2400 128 2323 128 2189 
C 128 2118 154 2061 211 2016 
C 275 1971 339 1952 410 1952 
L 544 1952 
C 621 1952 710 1952 806 1958 
L 794 1466 
L 781 1005 
L 781 422 
C 781 371 781 320 794 256 
C 794 192 806 128 832 77 
C 851 19 883 -26 922 -64 
C 960 -102 1011 -122 1075 -122 
C 1126 -122 1178 -102 1242 -70 
C 1299 -32 1338 0 1350 38 
C 1338 102 1318 186 1306 288 
C 1293 390 1286 544 1286 749 
C 1286 781 1280 851 1280 966 
L 1280 1338 
L 1267 1715 
L 1267 1990 
L 1549 1990 
C 1747 1990 1894 2016 1990 2061 
C 2022 2093 2042 2118 2054 2144 
C 2061 2157 2067 2189 2067 2240 
C 2067 2336 2029 2400 1958 2432 
C 1882 2458 1805 2477 1728 2477 
L 1523 2477 
C 1459 2477 1376 2470 1267 2470 
C 1267 2688 1280 2893 1306 3078 
C 1331 3258 1363 3411 1408 3539 
C 1446 3667 1498 3763 1549 3834 
C 1600 3904 1658 3942 1715 3942 
C 1805 3942 1875 3917 1920 3866 
C 1965 3814 2003 3725 2035 3610 
C 2054 3584 2080 3565 2106 3552 
C 2131 3533 2150 3526 2176 3526 
C 2240 3526 2304 3552 2368 3603 
C 2432 3648 2464 3693 2464 3744 
z
" transform="scale(0.015625)"/>
      <path id="HannotateSC-W5-6f" d="M 3034 1427 
C 3034 1651 2995 1856 2931 2042 
C 2861 2221 2765 2381 2637 2509 
C 2509 2637 2355 2733 2176 2810 
C 1990 2874 1786 2912 1555 2912 
C 1370 2912 1197 2867 1043 2784 
C 883 2694 742 2573 627 2426 
C 512 2272 422 2099 358 1907 
C 288 1709 256 1504 256 1286 
C 256 1069 288 877 358 698 
C 422 518 512 371 634 250 
C 749 122 890 19 1050 -45 
C 1210 -109 1382 -147 1574 -147 
C 1786 -147 1984 -102 2163 -19 
C 2342 58 2496 173 2624 320 
C 2752 461 2848 634 2925 826 
C 2995 1011 3034 1210 3034 1427 
z
M 2586 1510 
C 2586 1325 2560 1158 2509 1005 
C 2451 851 2381 723 2291 621 
C 2202 506 2093 422 1971 365 
C 1850 301 1722 275 1594 275 
C 1453 275 1331 301 1229 352 
C 1126 397 1037 467 973 557 
C 902 646 851 749 819 877 
C 781 992 768 1126 768 1267 
C 768 1434 794 1587 845 1734 
C 896 1882 960 2016 1050 2131 
C 1126 2240 1222 2330 1338 2394 
C 1446 2458 1562 2490 1690 2490 
C 1798 2490 1907 2470 2022 2432 
C 2125 2394 2221 2330 2304 2253 
C 2387 2170 2458 2067 2509 1952 
C 2560 1824 2586 1677 2586 1510 
z
" transform="scale(0.015625)"/>
      <path id="HannotateSC-W5-72" d="M 2726 2682 
C 2726 2720 2707 2758 2682 2797 
C 2650 2822 2611 2848 2566 2874 
C 2515 2899 2470 2918 2419 2931 
C 2362 2944 2310 2950 2272 2950 
C 2170 2950 2067 2925 1958 2874 
C 1843 2822 1734 2758 1626 2669 
C 1510 2573 1402 2458 1299 2323 
C 1190 2182 1094 2029 1018 1862 
C 1030 2010 1037 2144 1050 2259 
C 1050 2368 1056 2470 1056 2560 
C 1056 2643 1024 2707 973 2758 
C 915 2803 851 2829 781 2829 
C 710 2829 653 2803 602 2765 
C 544 2720 506 2669 486 2611 
C 480 2592 474 2547 474 2470 
C 467 2394 461 2298 461 2195 
L 448 1837 
L 448 1472 
C 448 1306 448 1146 461 986 
L 474 499 
C 474 422 486 346 499 269 
C 506 192 531 122 570 64 
C 621 -19 710 -64 838 -64 
C 928 -64 998 -38 1056 6 
C 1107 58 1139 115 1139 192 
C 1139 307 1126 435 1101 582 
C 1069 723 1056 864 1056 1005 
C 1056 1056 1069 1126 1101 1210 
C 1133 1286 1171 1363 1222 1453 
C 1267 1536 1318 1626 1382 1722 
C 1440 1811 1498 1894 1549 1984 
C 1574 2029 1619 2080 1670 2144 
C 1722 2202 1779 2259 1843 2310 
C 1907 2362 1984 2400 2061 2438 
C 2131 2477 2208 2496 2285 2496 
C 2304 2496 2336 2483 2381 2470 
C 2394 2464 2419 2464 2458 2464 
C 2490 2458 2509 2458 2522 2458 
C 2566 2458 2611 2483 2662 2534 
C 2701 2586 2726 2630 2726 2682 
z
" transform="scale(0.015625)"/>
      <path id="HannotateSC-W5-6d" d="M 3917 237 
L 3917 1088 
C 3917 1216 3910 1350 3904 1491 
C 3891 1626 3866 1760 3834 1901 
C 3795 2035 3750 2163 3693 2285 
C 3629 2406 3552 2515 3462 2611 
C 3392 2675 3315 2733 3232 2784 
C 3142 2822 3053 2848 2963 2848 
C 2810 2848 2675 2778 2560 2650 
C 2438 2515 2342 2349 2272 2144 
C 2195 2349 2093 2502 1971 2592 
C 1850 2682 1715 2726 1562 2726 
C 1459 2726 1370 2701 1293 2656 
C 1216 2605 1146 2534 1082 2445 
C 1043 2406 1018 2368 998 2330 
C 973 2291 954 2253 934 2221 
L 934 2598 
C 934 2682 909 2758 870 2822 
C 826 2886 762 2925 672 2925 
C 582 2925 518 2899 480 2848 
C 435 2790 416 2733 416 2675 
C 416 2611 416 2534 422 2438 
C 422 2336 429 2208 435 2054 
L 448 1658 
L 448 819 
C 448 755 442 678 435 589 
L 416 320 
C 403 282 397 250 397 211 
C 397 173 390 141 384 109 
C 384 64 416 32 474 6 
C 525 -19 582 -38 634 -38 
C 678 -38 730 -19 781 6 
C 826 32 864 64 896 109 
C 909 134 928 198 941 301 
C 954 397 960 512 960 653 
L 960 1056 
C 960 1139 966 1222 966 1299 
L 966 1453 
C 966 1504 979 1587 1011 1690 
C 1037 1792 1075 1888 1126 1990 
C 1184 2106 1261 2195 1357 2272 
C 1446 2336 1517 2374 1581 2374 
C 1638 2374 1690 2323 1741 2234 
C 1786 2131 1818 2010 1843 1869 
C 1856 1741 1869 1626 1875 1517 
C 1875 1402 1882 1325 1882 1293 
C 1882 1229 1882 1158 1888 1069 
L 1901 813 
C 1901 723 1907 640 1907 576 
C 1907 506 1914 461 1914 448 
C 1914 416 1914 378 1926 333 
C 1933 282 1946 237 1965 198 
C 1978 154 2003 115 2035 90 
C 2061 58 2099 45 2144 45 
C 2202 45 2266 70 2336 122 
C 2400 166 2438 224 2438 301 
L 2438 390 
C 2438 429 2432 474 2432 525 
L 2432 646 
C 2426 685 2426 710 2426 723 
L 2426 826 
C 2426 877 2419 934 2419 998 
L 2419 1280 
C 2419 1350 2432 1453 2458 1587 
C 2483 1715 2522 1850 2573 1978 
C 2618 2106 2675 2214 2752 2310 
C 2822 2406 2906 2458 2995 2458 
C 3034 2458 3078 2432 3123 2387 
C 3162 2342 3194 2285 3226 2208 
C 3258 2131 3283 2042 3309 1939 
C 3328 1830 3347 1722 3360 1606 
C 3373 1504 3379 1402 3386 1299 
L 3398 1018 
C 3398 928 3405 851 3405 794 
L 3405 672 
C 3405 595 3398 518 3392 435 
C 3386 346 3379 288 3373 262 
C 3360 250 3341 230 3328 205 
C 3302 179 3296 154 3296 141 
C 3296 115 3302 96 3328 70 
C 3347 38 3373 13 3405 -13 
C 3430 -38 3456 -58 3488 -83 
C 3514 -96 3539 -109 3565 -109 
C 3680 -109 3763 -77 3827 -19 
C 3885 38 3917 122 3917 237 
z
" transform="scale(0.015625)"/>
      <path id="HannotateSC-W5-44" d="M 3699 2720 
C 3699 2976 3661 3206 3584 3418 
C 3507 3622 3405 3802 3277 3955 
C 3136 4102 2976 4218 2790 4307 
C 2605 4384 2400 4429 2182 4429 
C 1773 4429 1350 4275 915 3981 
C 902 4045 896 4090 896 4115 
C 890 4134 883 4147 883 4160 
C 864 4192 819 4224 755 4256 
C 678 4282 614 4301 563 4301 
C 550 4301 525 4288 499 4269 
C 474 4250 448 4230 422 4205 
C 390 4173 365 4141 346 4115 
C 326 4090 320 4070 320 4058 
C 320 4019 320 3987 333 3962 
C 346 3936 358 3904 371 3872 
C 390 3834 410 3802 422 3770 
C 429 3738 435 3706 448 3667 
L 461 3590 
C 461 3558 461 3526 467 3494 
C 442 3456 429 3430 422 3418 
C 416 3398 416 3379 416 3354 
C 416 3296 442 3238 499 3181 
L 525 2886 
L 538 2592 
L 538 2304 
C 538 2214 544 2131 544 2067 
C 544 1862 538 1683 538 1530 
C 538 1363 531 1210 531 1069 
L 512 659 
L 499 230 
C 499 205 506 186 525 166 
C 544 141 570 122 595 109 
C 621 83 646 70 678 58 
C 704 45 730 38 749 38 
C 806 38 858 58 909 96 
C 954 128 979 186 992 275 
C 1171 179 1344 109 1498 70 
C 1651 26 1773 6 1856 6 
C 2125 6 2381 58 2611 160 
C 2835 256 3027 416 3187 634 
C 3347 851 3475 1133 3565 1478 
C 3654 1818 3699 2234 3699 2720 
z
M 3174 2611 
C 3174 2221 3136 1888 3072 1606 
C 3002 1325 2906 1088 2790 902 
C 2675 717 2534 582 2381 493 
C 2214 403 2048 358 1869 358 
C 1760 358 1664 371 1587 403 
C 1498 435 1427 474 1363 512 
C 1325 531 1293 550 1267 570 
C 1242 589 1216 608 1190 627 
C 1165 640 1139 653 1114 666 
C 1088 672 1062 678 1024 691 
L 1024 2560 
L 1011 2950 
C 1011 3078 1005 3213 1005 3347 
C 1018 3366 1037 3386 1050 3398 
L 1088 3450 
C 1101 3475 1126 3507 1165 3533 
L 1280 3648 
C 1312 3680 1344 3712 1382 3744 
C 1440 3795 1510 3846 1587 3898 
C 1658 3936 1734 3968 1818 3987 
C 1901 4000 2003 4013 2131 4013 
C 2285 4013 2426 3974 2554 3898 
C 2682 3814 2790 3706 2880 3578 
C 2970 3443 3046 3296 3098 3130 
C 3149 2963 3174 2790 3174 2611 
z
" transform="scale(0.015625)"/>
      <path id="HannotateSC-W5-73" d="M 2886 621 
C 2886 736 2848 838 2771 928 
C 2694 1011 2592 1088 2477 1152 
C 2349 1222 2202 1299 2035 1382 
L 1574 1600 
C 1382 1690 1242 1773 1165 1850 
C 1088 1926 1050 2016 1050 2131 
C 1050 2170 1062 2214 1088 2259 
C 1114 2304 1152 2349 1203 2387 
C 1254 2426 1318 2451 1395 2477 
C 1466 2502 1549 2515 1645 2515 
C 1760 2515 1869 2490 1971 2451 
C 2061 2400 2131 2355 2182 2317 
C 2246 2253 2310 2195 2387 2144 
C 2458 2086 2528 2061 2605 2061 
C 2675 2061 2733 2080 2778 2131 
C 2822 2170 2848 2221 2848 2272 
C 2848 2342 2816 2413 2752 2477 
C 2682 2534 2605 2592 2515 2656 
C 2464 2682 2400 2714 2336 2746 
C 2266 2771 2195 2797 2125 2822 
C 2048 2848 1971 2867 1894 2886 
C 1818 2899 1741 2906 1677 2906 
C 1434 2906 1242 2874 1088 2822 
C 934 2765 813 2694 723 2618 
C 634 2528 570 2438 538 2336 
C 499 2234 480 2144 480 2054 
C 480 1952 499 1869 538 1798 
C 570 1722 614 1651 678 1594 
C 730 1530 800 1478 877 1434 
C 954 1382 1030 1338 1114 1299 
C 1171 1261 1229 1235 1293 1210 
C 1350 1184 1408 1152 1472 1126 
C 1555 1088 1638 1050 1728 1018 
C 1818 979 1894 941 1971 902 
C 2189 781 2298 666 2298 563 
C 2298 493 2246 429 2144 365 
C 2042 301 1862 269 1606 269 
C 1530 269 1459 275 1382 288 
C 1306 301 1242 326 1178 352 
C 1114 371 1056 397 1011 429 
C 960 454 922 474 909 499 
C 845 576 787 634 723 672 
C 659 704 576 723 480 723 
C 403 723 346 698 307 659 
C 269 614 256 570 256 531 
C 256 506 262 480 282 442 
C 294 403 314 371 333 352 
C 390 275 474 211 576 160 
C 678 102 794 58 915 19 
C 1030 -13 1152 -38 1274 -58 
C 1389 -77 1491 -90 1581 -90 
C 1760 -90 1933 -70 2099 -45 
C 2253 -6 2394 32 2509 96 
C 2624 154 2720 230 2790 320 
C 2854 410 2886 506 2886 621 
z
" transform="scale(0.015625)"/>
      <path id="HannotateSC-W5-74" d="M 2413 384 
C 2413 416 2394 448 2368 480 
C 2342 506 2304 518 2259 518 
C 2202 518 2163 506 2138 480 
C 2112 454 2093 422 2080 390 
C 2067 371 2061 352 2048 339 
C 2035 326 2029 314 2029 314 
C 1978 269 1914 250 1837 250 
C 1722 250 1632 301 1562 403 
C 1485 506 1453 678 1453 922 
C 1453 1120 1453 1325 1466 1530 
C 1472 1728 1485 1946 1498 2176 
C 1530 2176 1574 2182 1626 2189 
L 1766 2202 
C 1882 2214 1984 2234 2074 2259 
C 2150 2278 2214 2304 2278 2336 
C 2342 2362 2374 2406 2374 2458 
C 2374 2496 2355 2522 2330 2534 
C 2291 2547 2259 2554 2227 2566 
C 2208 2566 2182 2566 2150 2579 
L 2022 2592 
L 1523 2592 
C 1523 2618 1530 2656 1536 2714 
L 1562 2893 
L 1587 3085 
C 1587 3149 1594 3200 1606 3245 
L 1626 3360 
C 1632 3392 1638 3430 1638 3469 
C 1638 3494 1619 3520 1587 3552 
C 1555 3578 1517 3603 1478 3629 
C 1434 3648 1389 3667 1344 3686 
C 1293 3699 1248 3712 1222 3712 
C 1171 3712 1126 3706 1088 3693 
C 1037 3680 1005 3661 986 3642 
C 979 3635 973 3622 966 3603 
C 954 3584 954 3565 954 3546 
C 954 3520 947 3462 947 3373 
C 947 3283 941 3181 941 3078 
C 934 2976 934 2874 934 2784 
C 928 2682 928 2618 928 2586 
C 902 2586 858 2579 806 2579 
L 640 2566 
C 576 2566 518 2560 461 2560 
C 403 2554 358 2554 326 2554 
C 262 2554 218 2541 179 2528 
C 141 2509 128 2477 128 2432 
C 128 2342 147 2266 198 2189 
C 243 2112 307 2074 397 2074 
C 461 2074 538 2080 627 2093 
L 915 2118 
C 909 1907 909 1715 909 1536 
C 902 1357 902 1178 902 1005 
C 902 877 909 755 934 634 
C 954 506 992 390 1050 288 
C 1107 186 1190 109 1293 45 
C 1389 -19 1517 -51 1683 -51 
C 1747 -51 1824 -38 1920 -19 
C 2010 0 2093 32 2170 70 
C 2227 102 2285 147 2336 211 
C 2387 262 2413 320 2413 384 
z
" transform="scale(0.015625)"/>
      <path id="HannotateSC-W5-62" d="M 3027 1555 
C 3027 1990 2912 2323 2688 2566 
C 2464 2803 2150 2925 1741 2925 
C 1619 2925 1485 2893 1338 2835 
C 1184 2771 1050 2682 928 2560 
C 934 2899 941 3194 954 3437 
C 960 3674 966 3834 966 3917 
C 966 3981 966 4045 973 4096 
C 973 4147 986 4192 1005 4243 
L 1024 4333 
C 1030 4358 1037 4378 1037 4390 
C 1037 4416 1005 4442 947 4474 
C 909 4486 864 4499 826 4512 
C 781 4512 742 4518 717 4518 
C 666 4518 582 4480 474 4416 
C 448 4397 416 4371 378 4346 
C 339 4320 320 4288 320 4256 
C 320 4243 320 4224 326 4205 
C 326 4179 339 4154 358 4122 
C 365 4058 371 3968 384 3846 
L 410 3488 
L 422 3162 
L 422 3008 
C 410 2739 403 2490 403 2259 
C 403 2157 397 2061 397 1965 
L 397 1677 
C 390 1587 390 1504 390 1440 
L 390 1280 
C 390 1254 390 1210 397 1152 
L 397 954 
L 410 710 
L 410 486 
C 410 416 416 358 422 314 
L 422 237 
C 422 109 461 19 525 -45 
C 582 -102 653 -134 730 -134 
C 826 -134 896 -96 934 -26 
C 960 13 973 64 979 122 
C 979 179 986 230 986 282 
C 1062 192 1178 128 1318 77 
C 1459 26 1638 0 1856 0 
C 2010 0 2163 32 2304 96 
C 2445 160 2573 262 2682 397 
C 2784 525 2867 691 2931 890 
C 2995 1082 3027 1299 3027 1555 
z
M 2451 1594 
C 2451 787 2195 390 1690 390 
C 1606 390 1523 403 1434 442 
C 1344 474 1267 525 1203 602 
C 1126 672 1069 768 1024 890 
C 973 1005 954 1152 954 1325 
C 954 1504 973 1664 1018 1811 
C 1056 1952 1120 2080 1197 2182 
C 1274 2285 1363 2362 1472 2426 
C 1574 2477 1690 2509 1818 2509 
C 2010 2509 2163 2426 2278 2259 
C 2394 2093 2451 1869 2451 1594 
z
" transform="scale(0.015625)"/>
      <path id="HannotateSC-W5-75" d="M 2790 154 
C 2790 160 2784 186 2771 224 
C 2758 256 2746 275 2746 288 
C 2720 346 2701 410 2688 474 
C 2669 538 2656 608 2650 691 
C 2637 768 2630 864 2630 973 
C 2624 1075 2624 1203 2624 1350 
L 2624 1466 
L 2637 1645 
C 2637 1709 2637 1773 2643 1837 
C 2643 1901 2650 1958 2656 1997 
C 2662 2067 2669 2131 2675 2189 
C 2675 2240 2688 2304 2701 2374 
C 2707 2419 2714 2464 2726 2502 
C 2726 2541 2733 2579 2733 2611 
C 2733 2637 2714 2662 2688 2701 
C 2650 2733 2611 2765 2573 2790 
C 2534 2803 2496 2822 2445 2835 
C 2394 2848 2368 2854 2355 2854 
C 2330 2854 2304 2848 2278 2842 
C 2240 2829 2214 2816 2202 2790 
C 2176 2758 2163 2720 2150 2669 
C 2138 2618 2138 2528 2138 2400 
L 2138 2285 
C 2138 2214 2144 2131 2144 2042 
C 2144 1939 2138 1830 2138 1715 
C 2138 1594 2131 1478 2131 1363 
C 2125 1261 2106 1152 2074 1043 
C 2042 928 1997 819 1946 723 
C 1882 627 1811 550 1728 493 
C 1638 429 1536 397 1421 397 
C 1331 397 1254 416 1190 461 
C 1114 499 1056 557 1011 634 
C 960 704 928 787 902 890 
C 877 986 864 1088 864 1203 
C 864 1222 864 1267 870 1344 
L 870 1824 
C 870 1901 877 1952 877 1978 
C 877 2016 877 2074 890 2157 
L 915 2394 
L 934 2502 
C 934 2541 941 2592 941 2656 
C 941 2707 915 2758 864 2810 
C 813 2861 742 2886 659 2886 
C 576 2886 461 2835 320 2739 
C 326 2688 333 2624 346 2547 
C 358 2464 365 2381 365 2304 
C 365 2253 358 2176 358 2080 
C 358 1978 352 1882 352 1779 
C 346 1677 346 1581 346 1504 
C 339 1414 339 1363 339 1338 
C 339 1133 358 947 397 787 
C 429 627 486 493 570 384 
C 646 269 755 186 896 134 
C 1024 70 1190 45 1395 45 
C 1491 45 1613 70 1754 122 
C 1894 173 2016 262 2125 403 
C 2170 224 2227 96 2291 32 
C 2355 -38 2432 -77 2522 -77 
C 2592 -77 2656 -51 2714 -13 
C 2765 26 2790 77 2790 154 
z
" transform="scale(0.015625)"/>
      <path id="HannotateSC-W5-29" d="M 1446 1914 
C 1446 1978 1440 2080 1434 2221 
C 1427 2355 1414 2509 1402 2682 
L 1344 3238 
C 1318 3430 1286 3622 1248 3814 
C 1210 3974 1171 4122 1133 4256 
C 1088 4390 1037 4506 986 4608 
C 934 4704 877 4781 819 4838 
C 755 4890 691 4922 627 4922 
C 531 4922 454 4890 403 4832 
C 346 4768 320 4691 320 4595 
C 320 4531 339 4474 384 4422 
C 422 4365 467 4314 506 4275 
C 589 4179 666 4070 730 3949 
C 794 3821 832 3693 858 3571 
L 973 2848 
C 998 2598 1018 2355 1018 2112 
C 1018 2003 1011 1875 1005 1722 
C 992 1568 979 1402 966 1222 
C 947 1043 928 858 902 666 
C 877 474 845 288 806 115 
C 768 -58 723 -218 672 -371 
C 621 -518 563 -640 499 -736 
C 486 -794 480 -858 480 -922 
C 480 -1075 538 -1152 666 -1152 
C 698 -1152 730 -1139 768 -1120 
C 813 -1088 858 -1030 909 -941 
C 960 -851 1005 -749 1050 -646 
C 1088 -531 1126 -422 1165 -320 
C 1197 -211 1222 -122 1235 -58 
C 1299 262 1357 589 1395 928 
C 1427 1261 1446 1587 1446 1914 
z
" transform="scale(0.015625)"/>
     </defs>
     <use xlink:href="#HannotateSC-W5-5747"/>
     <use xlink:href="#HannotateSC-W5-5300" x="99.999985"/>
     <use xlink:href="#HannotateSC-W5-5206" x="199.999969"/>
     <use xlink:href="#HannotateSC-W5-5e03" x="299.999954"/>
     <use xlink:href="#HannotateSC-W5-20" x="399.999939"/>
     <use xlink:href="#HannotateSC-W5-28" x="433.299927"/>
     <use xlink:href="#HannotateSC-W5-55" x="462.899918"/>
     <use xlink:href="#HannotateSC-W5-6e" x="522.199905"/>
     <use xlink:href="#HannotateSC-W5-69" x="573.899902"/>
     <use xlink:href="#HannotateSC-W5-66" x="600.799896"/>
     <use xlink:href="#HannotateSC-W5-6f" x="639.299881"/>
     <use xlink:href="#HannotateSC-W5-72" x="690.699875"/>
     <use xlink:href="#HannotateSC-W5-6d" x="735.299866"/>
     <use xlink:href="#HannotateSC-W5-20" x="802.499863"/>
     <use xlink:href="#HannotateSC-W5-44" x="835.79985"/>
     <use xlink:href="#HannotateSC-W5-69" x="898.599838"/>
     <use xlink:href="#HannotateSC-W5-73" x="925.499832"/>
     <use xlink:href="#HannotateSC-W5-74" x="974.599823"/>
     <use xlink:href="#HannotateSC-W5-72" x="1014.29982"/>
     <use xlink:href="#HannotateSC-W5-69" x="1058.899811"/>
     <use xlink:href="#HannotateSC-W5-62" x="1085.799805"/>
     <use xlink:href="#HannotateSC-W5-75" x="1137.099792"/>
     <use xlink:href="#HannotateSC-W5-74" x="1185.699783"/>
     <use xlink:href="#HannotateSC-W5-69" x="1225.39978"/>
     <use xlink:href="#HannotateSC-W5-6f" x="1252.299774"/>
     <use xlink:href="#HannotateSC-W5-6e" x="1303.699768"/>
     <use xlink:href="#HannotateSC-W5-29" x="1355.399765"/>
    </g>
   </g>
  </g>
 </g>
 <defs>
  <clipPath id="p399930d547">
   <rect x="57.6" y="41.472" width="357.12" height="266.112"/>
  </clipPath>
 </defs>
</svg>
