<svg xmlns="http://www.w3.org/2000/svg" xmlns:xlink="http://www.w3.org/1999/xlink" contentStyleType="text/css" height="152.0833px" preserveAspectRatio="none" style="width:673px;height:152px;" version="1.1" viewBox="0 0 673 152" width="673.9583px" zoomAndPan="magnify"><defs/><g><!--class Employees--><g id="elem_Employees"><polygon fill="none" points="21.875,17.7083,21.875,17.9273,32.6122,17.2767,43.3494,17.9097,54.0865,18.1247,64.8237,16.9652,75.5609,17.6274,86.2981,17.2641,97.0353,17.3089,107.7724,17.6373,118.5096,16.9882,129.2468,18.285,139.984,17.0518,150.7212,17.5023,161.4583,17.7083,161.5157,17.8469,162.0362,17.9249,162.6459,18.2184,163.2219,18.4303,163.8391,18.7419,164.4046,18.9287,164.4813,18.9605,164.8366,19.5958,165.108,20.1964,165.3547,20.7867,165.4626,21.3196,165.625,21.875,166.1079,21.875,166.3565,32.2177,164.8738,42.5604,166.3318,52.9031,165.3161,63.2457,166.1811,73.5884,165.1094,83.9311,165.5536,94.2738,166.3975,104.6165,165.5742,114.9592,165.7347,125.3018,165.625,135.6445,165.7336,135.6895,165.5144,136.2891,165.1356,136.8225,164.9849,137.4505,164.4651,137.9255,164.4046,138.5908,164.4424,138.682,163.8882,139.0107,163.2852,139.2216,162.7183,139.5197,161.9834,139.4122,161.4583,139.8112,161.4583,139.1318,150.7212,139.1639,139.984,139.7499,129.2468,139.6065,118.5096,140.521,107.7724,139.6292,97.0353,139.4539,86.2981,140.049,75.5609,139.1166,64.8237,139.2704,54.0865,140.4872,43.3494,140.265,32.6122,140.5763,21.875,139.8112,21.8322,139.708,21.3282,139.6695,20.7749,139.5124,20.0445,138.9274,19.5052,138.8041,18.9287,138.5908,18.9691,138.6075,18.8937,138.0882,18.4392,137.4117,18.3449,136.8845,17.7748,136.1602,17.7083,135.6445,17.0029,135.6445,18.2329,125.3018,16.9615,114.9592,18.2385,104.6165,17.9236,94.2738,17.4293,83.9311,17.3398,73.5884,18.1862,63.2457,17.3965,52.9031,18.3249,42.5604,17.1326,32.2177,17.7083,21.875,17.9064,21.957,18.1078,21.3501,18.2751,20.729,18.4557,20.1135,18.9177,19.6145,18.9287,18.9287,19.0103,19.1256,19.5405,18.7389,20.1429,18.5266,20.6792,18.1547,21.3809,18.1822,21.875,17.7083" style="stroke:#333333;stroke-width:1.0416666666666667;"/><polygon fill="none" points="81.3075,37.3279,79.7806,39.4142,77.9746,42.47,75.3917,44.5293,72.6774,45.6555,70.5133,45.7532,67.7317,44.3448,65.1072,43.4247,63.1151,41.5566,62.0701,39.4179,61.4504,37.7151,60.8433,35.4908,59.8579,33.5768,60.6152,31.7079,61.2786,29.6608,63.7683,28.0417,65.5199,25.941,67.6879,25.2434,70.2653,24.6426,73.5705,24.9996,75.3808,25.8533,77.4855,26.2403,80.0447,28.8623,80.9368,31.6302,81.3244,33.5189,80.8854,36.6311" style="stroke:#2E2E2E;stroke-width:1.0416666666666667;"/><path d="M73.3724,39.4816 L67.6921,39.4816 L67.6921,30.367 L73.3724,30.367 L73.3724,31.9621 L69.4987,31.9621 L69.4987,33.9152 L72.998,33.9152 L72.998,35.5103 L69.4987,35.5103 L69.4987,37.8866 L73.3724,37.8866 L73.3724,39.4816 Z " fill="#2E2E2E"/><text fill="#555555" font-family="Segoe Print" font-size="11.4583" font-weight="bold" lengthAdjust="spacing" textLength="22.9167" x="95.8333" y="38.7609">&#21592;&#24037;</text><path d="M18.75,51.8799 L18.75,52.1718 L29.1667,51.3044 L39.5833,52.1483 L50,52.435 L60.4167,50.8891 L70.8333,51.7719 L81.25,51.2875 L91.6667,51.3472 L102.0833,51.7852 L112.5,50.9196 L122.9167,52.6488 L133.3333,51.0045 L143.75,51.6052 L154.1667,52.4798 L164.5833,51.8799 " fill="none" style="stroke:#333333;stroke-width:1.0416666666666667;"/><polygon fill="none" points="32.3089,70.2466,31.8509,70.8725,31.3091,71.7892,30.5342,72.4071,29.7199,72.7449,29.0706,72.7742,28.2362,72.3517,27.4488,72.0757,26.8512,71.5152,26.5377,70.8736,26.3518,70.3628,26.1697,69.6955,25.874,69.1213,26.1012,68.5606,26.3002,67.9465,27.0471,67.4608,27.5726,66.8306,28.223,66.6213,28.9962,66.4411,29.9878,66.5481,30.5309,66.8043,31.1623,66.9204,31.9301,67.7069,32.1977,68.5373,32.314,69.1039,32.1823,70.0376" style="stroke:#2E2E2E;stroke-width:1.0416666666666667;"/><text fill="#555555" font-family="Segoe Print" font-size="11.4583" lengthAdjust="spacing" textLength="65.625" x="42.7083" y="71.8908">&#21592;&#24037;ID : INT</text><text fill="#555555" font-family="Segoe Print" font-size="11.4583" lengthAdjust="spacing" textLength="111.4583" x="42.7083" y="95.6457">&#21592;&#24037;&#22995;&#21517; : VARCHAR</text><text fill="#555555" font-family="Segoe Print" font-size="11.4583" lengthAdjust="spacing" textLength="65.625" x="42.7083" y="119.4005">&#37096;&#38376;ID : INT</text><path d="M18.75,131.4779 L18.75,131.7698 L29.1667,130.9024 L39.5833,131.7463 L50,132.033 L60.4167,130.487 L70.8333,131.3699 L81.25,130.8855 L91.6667,130.9452 L102.0833,131.3832 L112.5,130.5176 L122.9167,132.2468 L133.3333,130.6025 L143.75,131.2032 L154.1667,132.0778 L164.5833,131.4779 " fill="none" style="stroke:#333333;stroke-width:1.0416666666666667;"/></g><!--class Departments--><g id="elem_Departments"><polygon fill="none" points="269.7917,17.7083,269.7917,17.9273,280.5288,17.2767,291.266,17.9097,302.0032,18.1247,312.7404,16.9652,323.4776,17.6274,334.2147,17.2641,344.9519,17.3089,355.6891,17.6373,366.4263,16.9882,377.1635,18.285,387.9006,17.0518,398.6378,17.5023,409.375,17.7083,409.4324,17.8469,409.9529,17.9249,410.5626,18.2184,411.1385,18.4303,411.7557,18.7419,412.3213,18.9287,412.398,18.9605,412.7532,19.5958,413.0247,20.1964,413.2714,20.7867,413.3793,21.3196,413.5417,21.875,414.0246,21.875,414.2732,32.2177,412.7904,42.5604,414.2484,52.9031,413.2328,63.2457,414.0977,73.5884,413.026,83.9311,413.4703,94.2738,414.3142,104.6165,413.4909,114.9592,413.6514,125.3018,413.5417,135.6445,413.6503,135.6895,413.4311,136.2891,413.0523,136.8225,412.9016,137.4505,412.3817,137.9255,412.3213,138.5908,412.3591,138.682,411.8049,139.0107,411.2018,139.2216,410.635,139.5197,409.9001,139.4122,409.375,139.8112,409.375,139.1318,398.6378,139.1639,387.9006,139.7499,377.1635,139.6065,366.4263,140.521,355.6891,139.6292,344.9519,139.4539,334.2147,140.049,323.4776,139.1166,312.7404,139.2704,302.0032,140.4872,291.266,140.265,280.5288,140.5763,269.7917,139.8112,269.7489,139.708,269.2448,139.6695,268.6916,139.5124,267.9611,138.9274,267.4219,138.8041,266.8454,138.5908,266.8858,138.6075,266.8104,138.0882,266.3559,137.4117,266.2615,136.8845,265.6914,136.1602,265.625,135.6445,264.9195,135.6445,266.1496,125.3018,264.8782,114.9592,266.1552,104.6165,265.8402,94.2738,265.3459,83.9311,265.2565,73.5884,266.1029,63.2457,265.3132,52.9031,266.2415,42.5604,265.0492,32.2177,265.625,21.875,265.8231,21.957,266.0244,21.3501,266.1917,20.729,266.3724,20.1135,266.8344,19.6145,266.8454,18.9287,266.9269,19.1256,267.4571,18.7389,268.0595,18.5266,268.5958,18.1547,269.2976,18.1822,269.7917,17.7083" style="stroke:#333333;stroke-width:1.0416666666666667;"/><polygon fill="none" points="329.2242,37.3279,327.6973,39.4142,325.8913,42.47,323.3084,44.5293,320.5941,45.6555,318.4299,45.7532,315.6484,44.3448,313.0238,43.4247,311.0318,41.5566,309.9868,39.4179,309.3671,37.7151,308.76,35.4908,307.7746,33.5768,308.5318,31.7079,309.1953,29.6608,311.6849,28.0417,313.4365,25.941,315.6045,25.2434,318.1819,24.6426,321.4871,24.9996,323.2974,25.8533,325.4022,26.2403,327.9613,28.8623,328.8535,31.6302,329.2411,33.5189,328.802,36.6311" style="stroke:#2E2E2E;stroke-width:1.0416666666666667;"/><path d="M321.2891,39.4816 L315.6087,39.4816 L315.6087,30.367 L321.2891,30.367 L321.2891,31.9621 L317.4154,31.9621 L317.4154,33.9152 L320.9147,33.9152 L320.9147,35.5103 L317.4154,35.5103 L317.4154,37.8866 L321.2891,37.8866 L321.2891,39.4816 Z " fill="#2E2E2E"/><text fill="#555555" font-family="Segoe Print" font-size="11.4583" font-weight="bold" lengthAdjust="spacing" textLength="22.9167" x="343.75" y="38.7609">&#37096;&#38376;</text><path d="M266.6667,51.8799 L266.6667,52.1718 L277.0833,51.3044 L287.5,52.1483 L297.9167,52.435 L308.3333,50.8891 L318.75,51.7719 L329.1667,51.2875 L339.5833,51.3472 L350,51.7852 L360.4167,50.9196 L370.8333,52.6488 L381.25,51.0045 L391.6667,51.6052 L402.0833,52.4798 L412.5,51.8799 " fill="none" style="stroke:#333333;stroke-width:1.0416666666666667;"/><polygon fill="none" points="280.2256,70.2466,279.7675,70.8725,279.2257,71.7892,278.4508,72.4071,277.6366,72.7449,276.9873,72.7742,276.1528,72.3517,275.3655,72.0757,274.7679,71.5152,274.4544,70.8736,274.2685,70.3628,274.0863,69.6955,273.7907,69.1213,274.0179,68.5606,274.2169,67.9465,274.9638,67.4608,275.4893,66.8306,276.1397,66.6213,276.9129,66.4411,277.9045,66.5481,278.4476,66.8043,279.079,66.9204,279.8467,67.7069,280.1144,68.5373,280.2307,69.1039,280.0989,70.0376" style="stroke:#2E2E2E;stroke-width:1.0416666666666667;"/><text fill="#555555" font-family="Segoe Print" font-size="11.4583" lengthAdjust="spacing" textLength="65.625" x="290.625" y="71.8908">&#37096;&#38376;ID : INT</text><text fill="#555555" font-family="Segoe Print" font-size="11.4583" lengthAdjust="spacing" textLength="111.4583" x="290.625" y="95.6457">&#37096;&#38376;&#21517;&#31216; : VARCHAR</text><text fill="#555555" font-family="Segoe Print" font-size="11.4583" lengthAdjust="spacing" textLength="65.625" x="290.625" y="119.4005">&#32463;&#29702;ID : INT</text><path d="M266.6667,131.4779 L266.6667,131.7698 L277.0833,130.9024 L287.5,131.7463 L297.9167,132.033 L308.3333,130.487 L318.75,131.3699 L329.1667,130.8855 L339.5833,130.9452 L350,131.3832 L360.4167,130.5176 L370.8333,132.2468 L381.25,130.6025 L391.6667,131.2032 L402.0833,132.0778 L412.5,131.4779 " fill="none" style="stroke:#333333;stroke-width:1.0416666666666667;"/></g><!--class Managers--><g id="elem_Managers"><polygon fill="none" points="517.7083,29.5833,517.7083,29.8023,528.4455,29.1517,539.1827,29.7847,549.9199,29.9997,560.6571,28.8402,571.3942,29.5024,582.1314,29.1391,592.8686,29.1839,603.6058,29.5123,614.3429,28.8632,625.0801,30.16,635.8173,28.9268,646.5545,29.3773,657.2917,29.5833,657.3491,29.7219,657.8695,29.7999,658.4792,30.0934,659.0552,30.3053,659.6724,30.6169,660.2379,30.8037,660.3147,30.8355,660.6699,31.4708,660.9414,32.0714,661.1881,32.6617,661.2959,33.1946,661.4583,33.75,661.9412,33.75,662.1898,43.7516,660.7071,53.7533,662.1651,63.7549,661.1495,73.7565,662.0144,83.7581,660.9427,93.7598,661.387,103.7614,662.2308,113.763,661.4583,123.7646,661.4427,123.7582,661.248,124.3679,661.0788,124.9882,660.8596,125.5877,660.4808,126.1212,660.2379,126.7109,660.2761,126.8031,659.5726,126.7714,659.0972,127.2903,658.543,127.619,657.94,127.8298,657.2917,127.9313,657.2917,128.5699,646.5545,127.4281,635.8173,127.252,625.0801,127.284,614.3429,127.87,603.6058,127.7266,592.8686,128.6411,582.1314,127.7494,571.3942,127.574,560.6571,128.1691,549.9199,127.2367,539.1827,127.3906,528.4455,128.6073,517.7083,127.9313,517.7662,128.0711,517.2167,127.9229,516.4871,127.3399,515.983,127.3015,515.4298,127.1444,514.7621,126.7109,514.6105,126.6482,514.4872,126.1089,514.3143,125.5492,514.2389,125.0298,513.7844,124.3533,513.5417,123.7646,514.0235,123.7646,512.9648,113.763,512.8362,103.7614,514.0663,93.7598,512.7949,83.7581,514.0718,73.7565,513.7569,63.7549,513.2626,53.7533,513.1732,43.7516,513.5417,33.75,513.6888,33.811,513.6897,33.121,514.2197,32.6501,514.0966,31.9088,514.716,31.475,514.7621,30.8037,514.8264,30.9591,515.3839,30.6382,515.9468,30.3307,516.6264,30.3046,517.2006,30.0242,517.7083,29.5833" style="stroke:#333333;stroke-width:1.0416666666666667;"/><polygon fill="none" points="577.1409,49.2029,575.614,51.2892,573.808,54.345,571.225,56.4043,568.5108,57.5305,566.3466,57.6282,563.565,56.2198,560.9405,55.2997,558.9484,53.4316,557.9035,51.2929,557.2838,49.5901,556.6767,47.3658,555.6913,45.4518,556.4485,43.5829,557.1119,41.5358,559.6016,39.9167,561.3532,37.816,563.5212,37.1184,566.0986,36.5176,569.4038,36.8746,571.2141,37.7283,573.3189,38.1153,575.878,40.7373,576.7701,43.5052,577.1577,45.3939,576.7187,48.5061" style="stroke:#2E2E2E;stroke-width:1.0416666666666667;"/><path d="M569.2057,51.3566 L563.5254,51.3566 L563.5254,42.242 L569.2057,42.242 L569.2057,43.8371 L565.332,43.8371 L565.332,45.7902 L568.8314,45.7902 L568.8314,47.3853 L565.332,47.3853 L565.332,49.7616 L569.2057,49.7616 L569.2057,51.3566 Z " fill="#2E2E2E"/><text fill="#555555" font-family="Segoe Print" font-size="11.4583" font-weight="bold" lengthAdjust="spacing" textLength="22.9167" x="591.6667" y="50.6359">&#32463;&#29702;</text><path d="M514.5833,63.7549 L514.5833,64.0468 L525,63.1794 L535.4167,64.0233 L545.8333,64.31 L556.25,62.7641 L566.6667,63.6469 L577.0833,63.1625 L587.5,63.2222 L597.9167,63.6602 L608.3333,62.7946 L618.75,64.5238 L629.1667,62.8795 L639.5833,63.4802 L650,64.3548 L660.4167,63.7549 " fill="none" style="stroke:#333333;stroke-width:1.0416666666666667;"/><polygon fill="none" points="528.1423,82.1216,527.6842,82.7475,527.1424,83.6642,526.3675,84.2821,525.5532,84.6199,524.904,84.6492,524.0695,84.2267,523.2821,83.9507,522.6845,83.3902,522.371,82.7486,522.1851,82.2378,522.003,81.5705,521.7074,80.9963,521.9346,80.4356,522.1336,79.8215,522.8805,79.3358,523.406,78.7056,524.0564,78.4963,524.8296,78.3161,525.8211,78.4231,526.3642,78.6793,526.9957,78.7954,527.7634,79.5819,528.031,80.4123,528.1473,80.9789,528.0156,81.9126" style="stroke:#2E2E2E;stroke-width:1.0416666666666667;"/><text fill="#555555" font-family="Segoe Print" font-size="11.4583" lengthAdjust="spacing" textLength="65.625" x="538.5417" y="83.7658">&#32463;&#29702;ID : INT</text><text fill="#555555" font-family="Segoe Print" font-size="11.4583" lengthAdjust="spacing" textLength="111.4583" x="538.5417" y="107.5207">&#32463;&#29702;&#22995;&#21517; : VARCHAR</text><path d="M514.5833,119.598 L514.5833,119.8899 L525,119.0225 L535.4167,119.8664 L545.8333,120.1531 L556.25,118.6072 L566.6667,119.49 L577.0833,119.0056 L587.5,119.0653 L597.9167,119.5033 L608.3333,118.6377 L618.75,120.3669 L629.1667,118.7226 L639.5833,119.3233 L650,120.1979 L660.4167,119.598 " fill="none" style="stroke:#333333;stroke-width:1.0416666666666667;"/></g><!--link Employees to Departments--><g id="link_Employees_Departments"><path d="M184.8854,78.7604 L184.8854,79.0523 L195.2098,78.185 L205.5342,79.0289 L215.8586,79.3155 L226.183,77.7696 L236.5074,78.6525 L246.8318,78.1681 L257.1563,78.7604 " fill="none" style="stroke:#333333;stroke-width:3.125;"/><path d="M174.4688,78.7604 L174.5271,78.8383 L172.687,79.857 L171.1891,81.332 L169.5798,82.6584 L167.6039,83.4962 L166.1354,85.0104 " fill="none" style="stroke:#333333;stroke-width:3.125;"/><path d="M174.4688,78.7604 L174.5271,78.8383 L172.687,77.357 L171.1891,76.332 L169.5798,75.1584 L167.6039,73.4962 L166.1354,72.5104 " fill="none" style="stroke:#333333;stroke-width:3.125;"/><path d="M174.4688,78.7604 L174.4688,78.8577 L172.8021,78.5686 L171.1354,78.8499 L169.4688,78.9455 L167.8021,78.4301 L166.1354,78.7604 " fill="none" style="stroke:#333333;stroke-width:3.125;"/><polygon fill="none" points="184.9084,79.7739,184.2977,80.6084,183.5753,81.8308,182.5421,82.6545,181.4564,83.105,180.5907,83.1441,179.4781,82.5807,178.4283,82.2127,177.6315,81.4654,177.2135,80.61,176.9656,79.9288,176.7228,79.0391,176.3286,78.2735,176.6315,77.5259,176.8969,76.7071,177.8927,76.0595,178.5934,75.2192,179.4606,74.9401,180.4915,74.6998,181.8136,74.8426,182.5377,75.1841,183.3796,75.3389,184.4033,76.3877,184.7601,77.4949,184.9152,78.2503,184.7396,79.4952" style="stroke:#333333;stroke-width:3.125;"/><path d="M261.3229,74.5938 L261.4202,74.5938 L261.1311,76.2604 L261.4124,77.9271 L261.508,79.5938 L260.9926,81.2604 L261.3229,82.9271 " fill="none" style="stroke:#333333;stroke-width:3.125;"/><path d="M258.1979,74.5938 L258.2952,74.5938 L258.0061,76.2604 L258.2874,77.9271 L258.383,79.5938 L257.8676,81.2604 L258.1979,82.9271 " fill="none" style="stroke:#333333;stroke-width:3.125;"/><path d="M257.1563,78.7604 L257.1563,78.8577 L258.8229,78.5686 L260.4896,78.8499 L262.1563,78.9455 L263.8229,78.4301 L265.4896,78.7604 " fill="none" style="stroke:#333333;stroke-width:3.125;"/><text fill="#2E2E2E" font-family="Segoe Print" font-size="12.5" lengthAdjust="spacing" textLength="25" x="203.125" y="70.5715">&#23646;&#20110;</text></g><!--link Departments to Managers--><g id="link_Departments_Managers"><path d="M432.8021,78.7604 L432.8021,79.0523 L443.1265,78.185 L453.4509,79.0289 L463.7753,79.3155 L474.0997,77.7696 L484.4241,78.6525 L494.7485,78.1681 L505.0729,78.7604 " fill="none" style="stroke:#333333;stroke-width:3.125;"/><path d="M422.3854,78.7604 L422.4438,78.8383 L420.6037,79.857 L419.1058,81.332 L417.4964,82.6584 L415.5206,83.4962 L414.0521,85.0104 " fill="none" style="stroke:#333333;stroke-width:3.125;"/><path d="M422.3854,78.7604 L422.4438,78.8383 L420.6037,77.357 L419.1058,76.332 L417.4964,75.1584 L415.5206,73.4962 L414.0521,72.5104 " fill="none" style="stroke:#333333;stroke-width:3.125;"/><path d="M422.3854,78.7604 L422.3854,78.8577 L420.7188,78.5686 L419.0521,78.8499 L417.3854,78.9455 L415.7188,78.4301 L414.0521,78.7604 " fill="none" style="stroke:#333333;stroke-width:3.125;"/><polygon fill="none" points="432.8251,79.7739,432.2143,80.6084,431.4919,81.8308,430.4588,82.6545,429.3731,83.105,428.5074,83.1441,427.3948,82.5807,426.3449,82.2127,425.5481,81.4654,425.1301,80.61,424.8823,79.9288,424.6394,79.0391,424.2453,78.2735,424.5482,77.5259,424.8135,76.7071,425.8094,76.0595,426.51,75.2192,427.3772,74.9401,428.4082,74.6998,429.7303,74.8426,430.4544,75.1841,431.2963,75.3389,432.32,76.3877,432.6768,77.4949,432.8318,78.2503,432.6562,79.4952" style="stroke:#333333;stroke-width:3.125;"/><path d="M509.2396,74.5938 L509.3369,74.5938 L509.0478,76.2604 L509.3291,77.9271 L509.4246,79.5938 L508.9093,81.2604 L509.2396,82.9271 " fill="none" style="stroke:#333333;stroke-width:3.125;"/><path d="M506.1146,74.5938 L506.2119,74.5938 L505.9228,76.2604 L506.2041,77.9271 L506.2996,79.5938 L505.7843,81.2604 L506.1146,82.9271 " fill="none" style="stroke:#333333;stroke-width:3.125;"/><path d="M505.0729,78.7604 L505.0729,78.8577 L506.7396,78.5686 L508.4063,78.8499 L510.0729,78.9455 L511.7396,78.4301 L513.4063,78.7604 " fill="none" style="stroke:#333333;stroke-width:3.125;"/><text fill="#2E2E2E" font-family="Segoe Print" font-size="12.5" lengthAdjust="spacing" textLength="25" x="451.0417" y="70.5715">&#31649;&#29702;</text></g><!--SRC=[Kop9ICrDLIZEJYr9pgZKpIyjoSdCI-NAIKqhKIZ9LoZAJCyeKKZ9B4fDBidCp-FYIiqhoIofL53IqdewSSRJxKkrj9GK4eiLN7CBSl8hKrEB5Qgv5810Mm4YxUcYOANWwHS25eG8FLq- -Uc4Ng1mc6EGiuTZ45ZgPVEAbzDNm5NN8bi4aODQv99Qa5XKaWkKHLY5fXbX7j2Uvyite5drV7V_ymbjsAs2o46jyatCIqnFBKBOWwOJOHY6bu268aAaDbzNjwO6nULM2afFDyvxigjFYGjP6AeIRZ5GsVDr2u4MA040]--></g></svg>