<svg xmlns="http://www.w3.org/2000/svg" xmlns:xlink="http://www.w3.org/1999/xlink" contentStyleType="text/css" height="187px" preserveAspectRatio="none" style="width:534px;height:187px;" version="1.1" viewBox="0 0 534 187" width="534px" zoomAndPan="magnify"><defs/><g><!--class Person--><g id="elem_Person"><rect codeLine="3" fill="#F1F1F1" height="48" id="Person" rx="2.5" ry="2.5" style="stroke:#181818;stroke-width:0.5;" width="81" x="13" y="7"/><ellipse cx="28" cy="23" fill="#ADD1B2" rx="11" ry="11" style="stroke:#181818;stroke-width:1.0;"/><path d="M32.1094,29 L24.3906,29 L24.3906,16.6094 L32.1094,16.6094 L32.1094,18.7656 L26.8438,18.7656 L26.8438,21.4375 L31.6094,21.4375 L31.6094,23.5938 L26.8438,23.5938 L26.8438,26.8438 L32.1094,26.8438 L32.1094,29 Z " fill="#000000"/><text fill="#000000" font-family="sans-serif" font-size="14" lengthAdjust="spacing" textLength="49" x="42" y="27.8467">Person</text><line style="stroke:#181818;stroke-width:0.5;" x1="14" x2="93" y1="39" y2="39"/><line style="stroke:#181818;stroke-width:0.5;" x1="14" x2="93" y1="47" y2="47"/></g><!--class Passport--><g id="elem_Passport"><rect codeLine="6" fill="#F1F1F1" height="48" id="Passport" rx="2.5" ry="2.5" style="stroke:#181818;stroke-width:0.5;" width="93" x="7" y="132"/><ellipse cx="22" cy="148" fill="#ADD1B2" rx="11" ry="11" style="stroke:#181818;stroke-width:1.0;"/><path d="M26.1094,154 L18.3906,154 L18.3906,141.6094 L26.1094,141.6094 L26.1094,143.7656 L20.8438,143.7656 L20.8438,146.4375 L25.6094,146.4375 L25.6094,148.5938 L20.8438,148.5938 L20.8438,151.8438 L26.1094,151.8438 L26.1094,154 Z " fill="#000000"/><text fill="#000000" font-family="sans-serif" font-size="14" lengthAdjust="spacing" textLength="61" x="36" y="152.8467">Passport</text><line style="stroke:#181818;stroke-width:0.5;" x1="8" x2="99" y1="164" y2="164"/><line style="stroke:#181818;stroke-width:0.5;" x1="8" x2="99" y1="172" y2="172"/></g><!--class Customer--><g id="elem_Customer"><rect codeLine="9" fill="#F1F1F1" height="48" id="Customer" rx="2.5" ry="2.5" style="stroke:#181818;stroke-width:0.5;" width="100" x="129.5" y="7"/><ellipse cx="144.5" cy="23" fill="#ADD1B2" rx="11" ry="11" style="stroke:#181818;stroke-width:1.0;"/><path d="M148.6094,29 L140.8906,29 L140.8906,16.6094 L148.6094,16.6094 L148.6094,18.7656 L143.3438,18.7656 L143.3438,21.4375 L148.1094,21.4375 L148.1094,23.5938 L143.3438,23.5938 L143.3438,26.8438 L148.6094,26.8438 L148.6094,29 Z " fill="#000000"/><text fill="#000000" font-family="sans-serif" font-size="14" lengthAdjust="spacing" textLength="68" x="158.5" y="27.8467">Customer</text><line style="stroke:#181818;stroke-width:0.5;" x1="130.5" x2="228.5" y1="39" y2="39"/><line style="stroke:#181818;stroke-width:0.5;" x1="130.5" x2="228.5" y1="47" y2="47"/></g><!--class Order--><g id="elem_Order"><rect codeLine="12" fill="#F1F1F1" height="48" id="Order" rx="2.5" ry="2.5" style="stroke:#181818;stroke-width:0.5;" width="71" x="144" y="132"/><ellipse cx="159" cy="148" fill="#ADD1B2" rx="11" ry="11" style="stroke:#181818;stroke-width:1.0;"/><path d="M163.1094,154 L155.3906,154 L155.3906,141.6094 L163.1094,141.6094 L163.1094,143.7656 L157.8438,143.7656 L157.8438,146.4375 L162.6094,146.4375 L162.6094,148.5938 L157.8438,148.5938 L157.8438,151.8438 L163.1094,151.8438 L163.1094,154 Z " fill="#000000"/><text fill="#000000" font-family="sans-serif" font-size="14" lengthAdjust="spacing" textLength="39" x="173" y="152.8467">Order</text><line style="stroke:#181818;stroke-width:0.5;" x1="145" x2="214" y1="164" y2="164"/><line style="stroke:#181818;stroke-width:0.5;" x1="145" x2="214" y1="172" y2="172"/></g><!--class Employee--><g id="elem_Employee"><rect codeLine="15" fill="#F1F1F1" height="48" id="Employee" rx="2.5" ry="2.5" style="stroke:#181818;stroke-width:0.5;" width="100" x="264.5" y="7"/><ellipse cx="279.5" cy="23" fill="#ADD1B2" rx="11" ry="11" style="stroke:#181818;stroke-width:1.0;"/><path d="M283.6094,29 L275.8906,29 L275.8906,16.6094 L283.6094,16.6094 L283.6094,18.7656 L278.3438,18.7656 L278.3438,21.4375 L283.1094,21.4375 L283.1094,23.5938 L278.3438,23.5938 L278.3438,26.8438 L283.6094,26.8438 L283.6094,29 Z " fill="#000000"/><text fill="#000000" font-family="sans-serif" font-size="14" lengthAdjust="spacing" textLength="68" x="293.5" y="27.8467">Employee</text><line style="stroke:#181818;stroke-width:0.5;" x1="265.5" x2="363.5" y1="39" y2="39"/><line style="stroke:#181818;stroke-width:0.5;" x1="265.5" x2="363.5" y1="47" y2="47"/></g><!--class Department--><g id="elem_Department"><rect codeLine="18" fill="#F1F1F1" height="48" id="Department" rx="2.5" ry="2.5" style="stroke:#181818;stroke-width:0.5;" width="115" x="257" y="132"/><ellipse cx="272" cy="148" fill="#ADD1B2" rx="11" ry="11" style="stroke:#181818;stroke-width:1.0;"/><path d="M276.1094,154 L268.3906,154 L268.3906,141.6094 L276.1094,141.6094 L276.1094,143.7656 L270.8438,143.7656 L270.8438,146.4375 L275.6094,146.4375 L275.6094,148.5938 L270.8438,148.5938 L270.8438,151.8438 L276.1094,151.8438 L276.1094,154 Z " fill="#000000"/><text fill="#000000" font-family="sans-serif" font-size="14" lengthAdjust="spacing" textLength="83" x="286" y="152.8467">Department</text><line style="stroke:#181818;stroke-width:0.5;" x1="258" x2="371" y1="164" y2="164"/><line style="stroke:#181818;stroke-width:0.5;" x1="258" x2="371" y1="172" y2="172"/></g><!--class Student--><g id="elem_Student"><rect codeLine="21" fill="#F1F1F1" height="48" id="Student" rx="2.5" ry="2.5" style="stroke:#181818;stroke-width:0.5;" width="87" x="404" y="7"/><ellipse cx="419" cy="23" fill="#ADD1B2" rx="11" ry="11" style="stroke:#181818;stroke-width:1.0;"/><path d="M423.1094,29 L415.3906,29 L415.3906,16.6094 L423.1094,16.6094 L423.1094,18.7656 L417.8438,18.7656 L417.8438,21.4375 L422.6094,21.4375 L422.6094,23.5938 L417.8438,23.5938 L417.8438,26.8438 L423.1094,26.8438 L423.1094,29 Z " fill="#000000"/><text fill="#000000" font-family="sans-serif" font-size="14" lengthAdjust="spacing" textLength="55" x="433" y="27.8467">Student</text><line style="stroke:#181818;stroke-width:0.5;" x1="405" x2="490" y1="39" y2="39"/><line style="stroke:#181818;stroke-width:0.5;" x1="405" x2="490" y1="47" y2="47"/></g><!--class Course--><g id="elem_Course"><rect codeLine="24" fill="#F1F1F1" height="48" id="Course" rx="2.5" ry="2.5" style="stroke:#181818;stroke-width:0.5;" width="82" x="406.5" y="132"/><ellipse cx="421.5" cy="148" fill="#ADD1B2" rx="11" ry="11" style="stroke:#181818;stroke-width:1.0;"/><path d="M425.6094,154 L417.8906,154 L417.8906,141.6094 L425.6094,141.6094 L425.6094,143.7656 L420.3438,143.7656 L420.3438,146.4375 L425.1094,146.4375 L425.1094,148.5938 L420.3438,148.5938 L420.3438,151.8438 L425.6094,151.8438 L425.6094,154 Z " fill="#000000"/><text fill="#000000" font-family="sans-serif" font-size="14" lengthAdjust="spacing" textLength="50" x="435.5" y="152.8467">Course</text><line style="stroke:#181818;stroke-width:0.5;" x1="407.5" x2="487.5" y1="164" y2="164"/><line style="stroke:#181818;stroke-width:0.5;" x1="407.5" x2="487.5" y1="172" y2="172"/></g><!--link Person to Passport--><g id="link_Person_Passport"><path codeLine="27" d="M53.5,63.42 C53.5,85.31 53.5,101.8 53.5,123.66 " fill="none" id="Person-Passport" style="stroke:#181818;stroke-width:1.0;"/><line style="stroke:#181818;stroke-width:1.0;" x1="49.5" x2="57.5" y1="59.42" y2="59.42"/><line style="stroke:#181818;stroke-width:1.0;" x1="49.5" x2="57.5" y1="62.42" y2="62.42"/><line style="stroke:#181818;stroke-width:1.0;" x1="53.5" x2="53.5" y1="63.42" y2="55.42"/><line style="stroke:#181818;stroke-width:1.0;" x1="57.5" x2="49.5" y1="127.66" y2="127.66"/><line style="stroke:#181818;stroke-width:1.0;" x1="57.5" x2="49.5" y1="124.66" y2="124.66"/><line style="stroke:#181818;stroke-width:1.0;" x1="53.5" x2="53.5" y1="123.66" y2="131.66"/><text fill="#000000" font-family="sans-serif" font-size="13" lengthAdjust="spacing" textLength="73" x="54.5" y="98.0669">&#19968;&#23545;&#19968; (1:1)</text></g><!--link Customer to Order--><g id="link_Customer_Order"><path codeLine="28" d="M179.5,63.42 C179.5,85.31 179.5,91.8 179.5,113.66 " fill="none" id="Customer-Order" style="stroke:#181818;stroke-width:1.0;"/><line style="stroke:#181818;stroke-width:1.0;" x1="175.5" x2="183.5" y1="59.42" y2="59.42"/><line style="stroke:#181818;stroke-width:1.0;" x1="175.5" x2="183.5" y1="62.42" y2="62.42"/><line style="stroke:#181818;stroke-width:1.0;" x1="179.5" x2="179.5" y1="63.42" y2="55.42"/><line style="stroke:#181818;stroke-width:1.0;" x1="179.5" x2="185.5" y1="123.66" y2="131.66"/><line style="stroke:#181818;stroke-width:1.0;" x1="179.5" x2="173.5" y1="123.66" y2="131.66"/><line style="stroke:#181818;stroke-width:1.0;" x1="179.5" x2="179.5" y1="123.66" y2="131.66"/><ellipse cx="179.5" cy="117.66" fill="none" rx="4" ry="4" style="stroke:#181818;stroke-width:1.0;"/><text fill="#000000" font-family="sans-serif" font-size="13" lengthAdjust="spacing" textLength="75" x="180.5" y="98.0669">&#19968;&#23545;&#22810; (1:N)</text></g><!--link Employee to Department--><g id="link_Employee_Department"><path codeLine="29" d="M314.5,73.42 C314.5,95.31 314.5,101.8 314.5,123.66 " fill="none" id="Employee-Department" style="stroke:#181818;stroke-width:1.0;"/><line style="stroke:#181818;stroke-width:1.0;" x1="314.5" x2="308.5" y1="63.42" y2="55.42"/><line style="stroke:#181818;stroke-width:1.0;" x1="314.5" x2="320.5" y1="63.42" y2="55.42"/><line style="stroke:#181818;stroke-width:1.0;" x1="314.5" x2="314.5" y1="63.42" y2="55.42"/><ellipse cx="314.5" cy="69.42" fill="none" rx="4" ry="4" style="stroke:#181818;stroke-width:1.0;"/><line style="stroke:#181818;stroke-width:1.0;" x1="318.5" x2="310.5" y1="127.66" y2="127.66"/><line style="stroke:#181818;stroke-width:1.0;" x1="318.5" x2="310.5" y1="124.66" y2="124.66"/><line style="stroke:#181818;stroke-width:1.0;" x1="314.5" x2="314.5" y1="123.66" y2="131.66"/><text fill="#000000" font-family="sans-serif" font-size="13" lengthAdjust="spacing" textLength="75" x="315.5" y="98.0669">&#22810;&#23545;&#19968; (N:1)</text></g><!--link Student to Course--><g id="link_Student_Course"><path codeLine="30" d="M447.5,73.42 C447.5,95.31 447.5,91.8 447.5,113.66 " fill="none" id="Student-Course" style="stroke:#181818;stroke-width:1.0;"/><line style="stroke:#181818;stroke-width:1.0;" x1="447.5" x2="441.5" y1="63.42" y2="55.42"/><line style="stroke:#181818;stroke-width:1.0;" x1="447.5" x2="453.5" y1="63.42" y2="55.42"/><line style="stroke:#181818;stroke-width:1.0;" x1="447.5" x2="447.5" y1="63.42" y2="55.42"/><ellipse cx="447.5" cy="69.42" fill="none" rx="4" ry="4" style="stroke:#181818;stroke-width:1.0;"/><line style="stroke:#181818;stroke-width:1.0;" x1="447.5" x2="453.5" y1="123.66" y2="131.66"/><line style="stroke:#181818;stroke-width:1.0;" x1="447.5" x2="441.5" y1="123.66" y2="131.66"/><line style="stroke:#181818;stroke-width:1.0;" x1="447.5" x2="447.5" y1="123.66" y2="131.66"/><ellipse cx="447.5" cy="117.66" fill="none" rx="4" ry="4" style="stroke:#181818;stroke-width:1.0;"/><text fill="#000000" font-family="sans-serif" font-size="13" lengthAdjust="spacing" textLength="78" x="448.5" y="98.0669">&#22810;&#23545;&#22810; (M:N)</text></g><!--SRC=[NOyx3i8m44Hxds951KKAsfG4IW8INC0Y5a8GRxHs2aGYSGvgUbgu3zm3nnyIqrWxcgVnZ3eUPCM9bp3Zk-EUi9P5XYSas1ANobX2QiRCSz1d6Aq5APGZu0hS2HVM3cokL8Ma7U15Z6IrqbWAiaWGCRAYmllsYir5MPtmB8JrWuYHkJ2rTMcaXNePOnjT5u7nzrzLh4cvZzpfR3-yQPAaQVgLARoVry_ZPLuOJzFfXFtMTIXU_9h0VUwtZiidxBUYHHivA9o2mK9eteM6fXrhCdsnmDdGfGdz0W00]--></g></svg>