<svg xmlns="http://www.w3.org/2000/svg" xmlns:xlink="http://www.w3.org/1999/xlink" contentStyleType="text/css" height="386.4583px" preserveAspectRatio="none" style="width:263px;height:386px;" version="1.1" viewBox="0 0 263 386" width="263.5417px" zoomAndPan="magnify"><defs/><g><!--class Student--><g id="elem_Student"><polygon fill="none" points="21.875,17.7083,21.875,17.9273,32.4219,17.2767,42.9688,17.9097,53.5156,18.1247,64.0625,16.9652,74.6094,17.6274,85.1563,17.2641,95.7031,17.3089,106.25,17.7083,106.2409,17.6865,106.7474,17.7306,107.5021,18.3741,107.934,18.2384,108.5807,18.6212,109.1963,18.9287,109.3348,18.9861,109.4128,19.5066,109.7063,20.1163,109.9183,20.6922,110.2299,21.3095,110.4167,21.875,110.6658,21.875,111.0268,32.2177,111.1157,42.5604,111.1242,52.9031,110.6819,63.2457,110.8996,73.5884,111.1482,83.9311,109.6654,94.2738,111.1234,104.6165,110.1078,114.9592,110.9727,125.3018,110.4167,135.6445,110.2579,135.5788,110.1506,136.2247,110.1664,136.9216,109.6688,137.4058,109.4741,138.0155,109.1963,138.5908,109.2413,138.6994,108.6623,138.9684,108.0172,139.0777,107.4667,139.4152,106.7632,139.3835,106.25,139.8112,106.25,140.1074,95.7031,140.3822,85.1563,140.2743,74.6094,140.4498,64.0625,139.308,53.5156,139.1318,42.9688,139.1639,32.4219,139.7499,21.875,139.8112,21.8489,139.7482,21.3763,139.7857,20.6733,139.267,20.0616,138.9689,19.5483,138.9081,18.9287,138.5908,18.7148,138.5022,18.5181,137.9326,18.6487,137.4985,18.3362,136.8809,18.188,136.3314,17.7083,135.6445,17.3731,135.6445,18.0408,125.3018,18.3234,114.9592,17.2162,104.6165,17.6085,94.2738,17.8396,83.9311,18.3872,73.5884,17.704,63.2457,18.1902,52.9031,17.1315,42.5604,17.0029,32.2177,17.7083,21.875,17.8699,21.9419,17.7224,21.1905,18.3598,20.7641,18.5069,20.1347,18.5987,19.4824,18.9287,18.9287,18.8817,18.8152,19.5789,18.8318,20.0675,18.3445,20.7751,18.3864,21.2123,17.7751,21.875,17.7083" style="stroke:#333333;stroke-width:1.0416666666666667;"/><polygon fill="none" points="55.4221,37.3279,53.8952,39.4142,52.0892,42.47,49.5063,44.5293,46.792,45.6555,44.6278,45.7532,41.8463,44.3448,39.2217,43.4247,37.2297,41.5566,36.1847,39.4179,35.565,37.7151,34.9579,35.4908,33.9725,33.5768,34.7298,31.7079,35.3932,29.6608,37.8829,28.0417,39.6344,25.941,41.8025,25.2434,44.3798,24.6426,47.685,24.9996,49.4953,25.8533,51.6001,26.2403,54.1593,28.8623,55.0514,31.6302,55.439,33.5189,55,36.6311" style="stroke:#2E2E2E;stroke-width:1.0416666666666667;"/><path d="M47.487,39.4816 L41.8066,39.4816 L41.8066,30.367 L47.487,30.367 L47.487,31.9621 L43.6133,31.9621 L43.6133,33.9152 L47.1126,33.9152 L47.1126,35.5103 L43.6133,35.5103 L43.6133,37.8866 L47.487,37.8866 L47.487,39.4816 Z " fill="#2E2E2E"/><text fill="#555555" font-family="Segoe Print" font-size="11.4583" lengthAdjust="spacing" textLength="22.9167" x="66.5104" y="38.7609">&#23398;&#29983;</text><path d="M18.75,51.8799 L18.75,52.1718 L28.8194,51.3044 L38.8889,52.1483 L48.9583,52.435 L59.0278,50.8891 L69.0972,51.7719 L79.1667,51.2875 L89.2361,51.3472 L99.3056,51.7852 L109.375,51.8799 " fill="none" style="stroke:#333333;stroke-width:1.0416666666666667;"/><polygon fill="none" points="32.3089,70.2466,31.8509,70.8725,31.3091,71.7892,30.5342,72.4071,29.7199,72.7449,29.0706,72.7742,28.2362,72.3517,27.4488,72.0757,26.8512,71.5152,26.5377,70.8736,26.3518,70.3628,26.1697,69.6955,25.874,69.1213,26.1012,68.5606,26.3002,67.9465,27.0471,67.4608,27.5726,66.8306,28.223,66.6213,28.9962,66.4411,29.9878,66.5481,30.5309,66.8043,31.1623,66.9204,31.9301,67.7069,32.1977,68.5373,32.314,69.1039,32.1823,70.0376" style="stroke:#2E2E2E;stroke-width:1.0416666666666667;"/><text fill="#555555" font-family="Segoe Print" font-size="11.4583" lengthAdjust="spacing" textLength="50" x="42.7083" y="71.8908">&#23398;&#21495; : int</text><path d="M18.75,83.9681 L18.75,84.26 L28.8194,83.3927 L38.8889,84.2366 L48.9583,84.5232 L59.0278,82.9773 L69.0972,83.8602 L79.1667,83.3757 L89.2361,83.4355 L99.3056,83.8734 L109.375,83.9681 " fill="none" style="stroke:#333333;stroke-width:1.0416666666666667;"/><text fill="#555555" font-family="Segoe Print" font-size="11.4583" lengthAdjust="spacing" textLength="69.7917" x="29.1667" y="103.979">&#22995;&#21517; : string</text><text fill="#555555" font-family="Segoe Print" font-size="11.4583" lengthAdjust="spacing" textLength="50" x="29.1667" y="127.7339">&#24180;&#40836; : int</text></g><!--class Course--><g id="elem_Course"><polygon fill="none" points="151.5625,29.5833,151.5625,29.8023,162.2106,29.1517,172.8588,29.7847,183.5069,29.9997,194.1551,28.8402,204.8032,29.5024,215.4514,29.1391,226.0995,29.1839,236.7477,29.5123,247.3958,29.5833,247.304,29.3615,248.0587,30.005,248.4906,29.8693,249.1373,30.2521,249.8103,30.6982,250.3421,30.8037,250.3146,30.7923,250.6081,31.402,250.82,31.978,251.1316,32.5952,251.3951,33.1925,251.5625,33.75,252.1726,33.75,252.2615,43.7516,252.2701,53.7533,251.8277,63.7549,252.0454,73.7565,252.294,83.7581,250.8113,93.7598,252.2693,103.7614,251.2536,113.763,251.5625,123.7646,251.7337,123.8356,251.1596,124.2881,251.0524,124.9341,251.0682,125.631,250.5706,126.1152,250.3421,126.7109,250.3561,126.7447,249.7979,127.0636,249.2189,127.3326,248.5738,127.4419,248.0233,127.7794,247.3958,127.9313,247.3958,127.335,236.7477,128.2276,226.0995,128.5024,215.4514,128.3944,204.8032,128.5699,194.1551,127.4281,183.5069,127.252,172.8588,127.284,162.2106,127.87,151.5625,127.9313,151.5364,127.8683,151.0638,127.9058,150.3608,127.3871,149.7491,127.089,149.2358,127.0282,148.6162,126.7109,148.4023,126.6223,148.2056,126.0527,148.3362,125.6186,148.0237,125.001,147.8755,124.4515,147.3958,123.7646,147.0606,123.7646,147.7283,113.763,148.0109,103.7614,146.9037,93.7598,147.296,83.7581,147.5271,73.7565,148.0747,63.7549,147.3915,53.7533,147.8777,43.7516,147.3958,33.75,147.2182,33.6764,147.4227,33.0708,148.0455,32.6384,147.8981,31.887,148.5354,31.4606,148.6162,30.8037,148.6437,30.87,149.1699,30.4737,149.7477,30.2021,150.4449,30.2187,150.9335,29.7314,151.5625,29.5833" style="stroke:#333333;stroke-width:1.0416666666666667;"/><polygon fill="none" points="190.2659,49.2029,188.739,51.2892,186.933,54.345,184.35,56.4043,181.6358,57.5305,179.4716,57.6282,176.69,56.2198,174.0655,55.2997,172.0734,53.4316,171.0285,51.2929,170.4088,49.5901,169.8017,47.3658,168.8163,45.4518,169.5735,43.5829,170.2369,41.5358,172.7266,39.9167,174.4782,37.816,176.6462,37.1184,179.2236,36.5176,182.5288,36.8746,184.3391,37.7283,186.4439,38.1153,189.003,40.7373,189.8951,43.5052,190.2827,45.3939,189.8437,48.5061" style="stroke:#2E2E2E;stroke-width:1.0416666666666667;"/><path d="M182.3307,51.3566 L176.6504,51.3566 L176.6504,42.242 L182.3307,42.242 L182.3307,43.8371 L178.457,43.8371 L178.457,45.7902 L181.9564,45.7902 L181.9564,47.3853 L178.457,47.3853 L178.457,49.7616 L182.3307,49.7616 L182.3307,51.3566 Z " fill="#2E2E2E"/><text fill="#555555" font-family="Segoe Print" font-size="11.4583" lengthAdjust="spacing" textLength="22.9167" x="202.5" y="50.6359">&#35838;&#31243;</text><path d="M148.4375,63.7549 L148.4375,64.0468 L158.6458,63.1794 L168.8542,64.0233 L179.0625,64.31 L189.2708,62.7641 L199.4792,63.6469 L209.6875,63.1625 L219.8958,63.2222 L230.1042,63.6602 L240.3125,62.7946 L250.5208,63.7549 " fill="none" style="stroke:#333333;stroke-width:1.0416666666666667;"/><polygon fill="none" points="161.9964,82.1216,161.5384,82.7475,160.9966,83.6642,160.2217,84.2821,159.4074,84.6199,158.7581,84.6492,157.9237,84.2267,157.1363,83.9507,156.5387,83.3902,156.2252,82.7486,156.0393,82.2378,155.8572,81.5705,155.5615,80.9963,155.7887,80.4356,155.9877,79.8215,156.7346,79.3358,157.2601,78.7056,157.9105,78.4963,158.6837,78.3161,159.6753,78.4231,160.2184,78.6793,160.8498,78.7954,161.6176,79.5819,161.8852,80.4123,162.0015,80.9789,161.8698,81.9126" style="stroke:#2E2E2E;stroke-width:1.0416666666666667;"/><text fill="#555555" font-family="Segoe Print" font-size="11.4583" lengthAdjust="spacing" textLength="61.4583" x="172.3958" y="83.7658">&#35838;&#31243;&#21495; : int</text><path d="M148.4375,95.8431 L148.4375,96.135 L158.6458,95.2677 L168.8542,96.1116 L179.0625,96.3982 L189.2708,94.8523 L199.4792,95.7352 L209.6875,95.2507 L219.8958,95.3105 L230.1042,95.7484 L240.3125,94.8829 L250.5208,95.8431 " fill="none" style="stroke:#333333;stroke-width:1.0416666666666667;"/><text fill="#555555" font-family="Segoe Print" font-size="11.4583" lengthAdjust="spacing" textLength="81.25" x="158.8542" y="115.854">&#35838;&#31243;&#21517; : string</text></g><!--class Enrollment--><g id="elem_Enrollment"><polygon fill="#FFEB3B" points="82.2917,228.3542,82.2917,228.5731,92.1875,227.9226,102.0833,228.5555,111.9792,228.7705,121.875,227.611,131.7708,228.2732,141.6667,227.9099,151.5625,227.9547,161.4583,228.2832,171.3542,227.634,181.25,228.3542,181.3236,228.5318,181.7555,228.3961,182.4022,228.7789,183.0752,229.225,183.5956,229.303,184.1963,229.5746,184.2182,229.5836,184.4301,230.1596,184.7417,230.7768,185.0052,231.3741,185.3605,232.0094,185.4167,232.5208,186.1157,232.5208,186.1242,243.0996,185.6819,253.6784,185.8996,264.2572,186.1482,274.836,184.6654,285.4148,186.1234,295.9936,185.1078,306.5724,185.9727,317.1512,184.901,327.73,185.3453,338.3088,186.1892,348.8876,185.3659,359.4664,185.4167,370.0452,185.4504,370.0592,185.2812,370.6795,185.062,371.2791,184.6832,371.8125,184.5325,372.4404,184.1963,372.9915,184.1202,372.8079,183.6448,373.3268,183.0906,373.6555,182.4876,373.8664,181.9207,374.1645,181.25,374.2119,181.25,373.7087,171.3542,373.5326,161.4583,373.5646,151.5625,374.1506,141.6667,374.0072,131.7708,374.9217,121.875,374.03,111.9792,373.8546,102.0833,374.4497,92.1875,373.5173,82.2917,374.2119,82.2227,374.0454,81.7886,374.176,81.171,373.8635,80.6215,373.7153,79.8919,373.1324,79.3454,372.9915,79.4478,373.0339,79.2907,372.4807,78.7057,371.7502,78.5824,371.211,78.4095,370.6512,78.125,370.0452,78.8039,370.0452,78.1206,359.4664,78.6068,348.8876,77.5481,338.3088,77.4195,327.73,78.6496,317.1512,77.3782,306.5724,78.6552,295.9936,78.3402,285.4148,77.8459,274.836,77.7565,264.2572,78.6029,253.6784,77.8132,243.0996,78.125,232.5208,78.3149,232.5995,78.1918,231.8581,78.8112,231.4244,79.0126,230.8174,79.1799,230.1964,79.3454,229.5746,79.3517,229.5897,80.0312,229.5636,80.6054,229.2832,81.1356,228.8966,81.738,228.6843,82.2917,228.3542" style="stroke:#333333;stroke-width:1.0416666666666667;"/><polygon fill="none" points="122.4013,247.9737,120.8744,250.06,119.0684,253.1158,116.4854,255.1752,113.7712,256.3013,111.607,256.3991,108.8255,254.9906,106.2009,254.0705,104.2088,252.2024,103.1639,250.0638,102.5442,248.3609,101.9371,246.1366,100.9517,244.2226,101.7089,242.3538,102.3723,240.3066,104.862,238.6876,106.6136,236.5868,108.7816,235.8892,111.359,235.2885,114.6642,235.6454,116.4745,236.4992,118.5793,236.8861,121.1384,239.5081,122.0306,242.2761,122.4182,244.1647,121.9791,247.2769" style="stroke:#2E2E2E;stroke-width:1.0416666666666667;"/><path d="M114.4661,250.1274 L108.7858,250.1274 L108.7858,241.0129 L114.4661,241.0129 L114.4661,242.6079 L110.5924,242.6079 L110.5924,244.561 L114.0918,244.561 L114.0918,246.1561 L110.5924,246.1561 L110.5924,248.5324 L114.4661,248.5324 L114.4661,250.1274 Z " fill="#2E2E2E"/><text fill="#555555" font-family="Segoe Print" font-size="11.4583" lengthAdjust="spacing" textLength="22.9167" x="134.9479" y="249.4067">&#36873;&#35838;</text><path d="M79.1667,262.5257 L79.1667,262.8176 L89.6875,261.9503 L100.2083,262.7942 L110.7292,263.0808 L121.25,261.5349 L131.7708,262.4178 L142.2917,261.9334 L152.8125,261.9931 L163.3333,262.4311 L173.8542,261.5655 L184.375,262.5257 " fill="#FFEB3B" style="stroke:#333333;stroke-width:1.0416666666666667;"/><polygon fill="none" points="92.7256,280.8924,92.2675,281.5183,91.7257,282.4351,90.9508,283.0529,90.1366,283.3907,89.4873,283.4201,88.6528,282.9975,87.8655,282.7215,87.2679,282.1611,86.9544,281.5195,86.7685,281.0086,86.5863,280.3413,86.2907,279.7671,86.5179,279.2065,86.7169,278.5923,87.4638,278.1066,87.9893,277.4764,88.6397,277.2671,89.4129,277.0869,90.4045,277.194,90.9476,277.4501,91.579,277.5662,92.3467,278.3528,92.6144,279.1832,92.7307,279.7498,92.5989,280.6834" style="stroke:#2E2E2E;stroke-width:1.0416666666666667;"/><text fill="#555555" font-family="Segoe Print" font-size="11.4583" lengthAdjust="spacing" textLength="61.4583" x="103.125" y="282.5366">&#36873;&#35838;ID : int</text><path d="M79.1667,294.6139 L79.1667,294.9059 L89.6875,294.0385 L100.2083,294.8824 L110.7292,295.169 L121.25,293.6231 L131.7708,294.506 L142.2917,294.0216 L152.8125,294.0813 L163.3333,294.5193 L173.8542,293.6537 L184.375,294.6139 " fill="#FFEB3B" style="stroke:#333333;stroke-width:1.0416666666666667;"/><text fill="#555555" font-family="Segoe Print" font-size="11.4583" lengthAdjust="spacing" textLength="50" x="89.5833" y="314.6248">&#23398;&#21495; : int</text><text fill="#555555" font-family="Segoe Print" font-size="11.4583" lengthAdjust="spacing" textLength="61.4583" x="89.5833" y="338.3797">&#35838;&#31243;&#21495; : int</text><text fill="#555555" font-family="Segoe Print" font-size="11.4583" lengthAdjust="spacing" textLength="84.375" x="89.5833" y="362.1346">&#36873;&#35838;&#26085;&#26399; : date</text></g><!--link Student to Enrollment--><g id="link_Student_Enrollment"><path d="M85.101,148.2896 L85.38,148.3753 L87.7192,158.4357 L91.6943,168.9986 L95.1367,179.3978 L96.8272,189.259 L100.8396,199.8333 L104.1111,210.18 " fill="none" style="stroke:#333333;stroke-width:3.125;"/><path d="M79.8953,145.5286 L79.9238,145.6216 L81.4323,144.8563 L83.1082,144.6363 L84.7296,144.2387 L86.1717,143.2571 L87.8619,143.0839 " fill="none" style="stroke:#333333;stroke-width:3.125;"/><path d="M80.812,148.5161 L80.8406,148.6091 L82.3491,147.8438 L84.0249,147.6238 L85.6463,147.2262 L87.0885,146.2446 L88.7787,146.0714 " fill="none" style="stroke:#333333;stroke-width:3.125;"/><path d="M85.101,148.2896 L85.194,148.3181 L84.4286,146.64 L84.2086,145.1292 L83.811,143.5639 L82.8294,141.8194 L82.6563,140.3229 " fill="none" style="stroke:#333333;stroke-width:3.125;"/><path d="M107.1686,220.1379 L107.2259,220.2166 L108.7398,221.2092 L110.5895,222.6629 L112.3299,223.9665 L113.7107,224.7763 L115.5893,226.2697 " fill="none" style="stroke:#333333;stroke-width:3.125;"/><path d="M107.1686,220.1379 L107.2601,220.1709 L106.2824,222.0331 L105.8413,224.0885 L105.2255,226.081 L104.0349,227.8666 L103.6399,229.9387 " fill="none" style="stroke:#333333;stroke-width:3.125;"/><path d="M107.1686,220.1379 L107.2616,220.1665 L107.4744,221.6748 L108.2325,223.3507 L108.8131,224.972 L108.8097,226.414 L109.6146,228.1042 " fill="none" style="stroke:#333333;stroke-width:3.125;"/><polygon fill="none" points="109.5238,215.1767,108.913,216.0112,108.1906,217.2335,107.1574,218.0573,106.0717,218.5077,105.2061,218.5468,104.0935,217.9835,103.0436,217.6154,102.2468,216.8682,101.8288,216.0127,101.5809,215.3316,101.3381,214.4419,100.9439,213.6762,101.2468,212.9287,101.5122,212.1099,102.5081,211.4622,103.2087,210.6219,104.0759,210.3429,105.1069,210.1026,106.4289,210.2454,107.1531,210.5869,107.995,210.7417,109.0186,211.7904,109.3755,212.8976,109.5305,213.6531,109.3549,214.898" style="stroke:#333333;stroke-width:3.125;"/><text fill="#2E2E2E" font-family="Segoe Print" font-size="12.5" lengthAdjust="spacing" textLength="25" x="106.7708" y="188.9153">&#36873;&#20462;</text></g><!--link Course to Enrollment--><g id="link_Course_Enrollment"><path d="M182.0949,136.414 L182.374,136.4997 L178.319,146.7458 L175.8998,157.4944 L172.9479,168.0794 L168.2442,178.1262 L165.8623,188.8863 L162.1733,199.2448 L159.5137,209.9196 " fill="none" style="stroke:#333333;stroke-width:3.125;"/><path d="M179.3353,131.2076 L179.3639,131.3006 L180.8722,131.5136 L182.548,132.2718 L184.1692,132.8525 L185.6112,132.8492 L187.3013,133.6543 " fill="none" style="stroke:#333333;stroke-width:3.125;"/><path d="M178.4178,134.1949 L178.4463,134.2879 L179.9547,134.5008 L181.6305,135.2591 L183.2517,135.8398 L184.6936,135.8365 L186.3838,136.6416 " fill="none" style="stroke:#333333;stroke-width:3.125;"/><path d="M182.0949,136.414 L182.188,136.4425 L182.4009,134.7644 L183.1592,133.2538 L183.7399,131.6887 L183.7366,129.9442 L184.5417,128.4479 " fill="none" style="stroke:#333333;stroke-width:3.125;"/><path d="M156.4563,219.8774 L156.5479,219.9104 L156.9816,221.7726 L157.952,223.828 L158.7477,225.8206 L158.9686,227.6061 L159.9851,229.6782 " fill="none" style="stroke:#333333;stroke-width:3.125;"/><path d="M156.4563,219.8774 L156.5136,219.9561 L154.6593,220.9488 L153.1407,222.4025 L151.5129,223.7062 L149.5254,224.516 L148.0357,226.0093 " fill="none" style="stroke:#333333;stroke-width:3.125;"/><path d="M156.4563,219.8774 L156.5493,219.906 L155.7838,221.4144 L155.5635,223.0902 L155.1657,224.7115 L154.1839,226.1536 L154.0104,227.8438 " fill="none" style="stroke:#333333;stroke-width:3.125;"/><polygon fill="none" points="162.4804,214.9162,161.8696,215.7507,161.1472,216.9731,160.1141,217.7968,159.0284,218.2473,158.1627,218.2864,157.0501,217.723,156.0002,217.355,155.2034,216.6077,154.7854,215.7522,154.5376,215.0711,154.2947,214.1814,153.9006,213.4158,154.2035,212.6682,154.4688,211.8494,155.4647,211.2018,156.1653,210.3615,157.0325,210.0824,158.0635,209.8421,159.3856,209.9849,160.1097,210.3264,160.9516,210.4812,161.9753,211.53,162.3321,212.6372,162.4871,213.3926,162.3115,214.6375" style="stroke:#333333;stroke-width:3.125;"/><text fill="#2E2E2E" font-family="Segoe Print" font-size="12.5" lengthAdjust="spacing" textLength="37.5" x="175.5208" y="188.9153">&#34987;&#36873;&#20462;</text></g><!--SRC=[Kop9ICrDLIZEJYr9pgZKpIyjoSdCI-NYIiqhoIofL51wkdRPyodpbHGIYnM2IqfJWC8ArLmA2bf0yQVzsnMi53BpIe1yNLqWyNJvvASJUe5YnIL5cNdf896TMrxkQu6ggaMO-cBzlkShki6cEkUN5XMdGWo526EO2nL6DXh9h9SDdK05OBDSyuhoSt9oGOvKTdDpTJ9sWfWBKUBfWkPSL2zWMWxHzcpwqcTpvWC5Kn9BKa4MmyAXfaPNDxyQsL8hi6kUx5-dn0Nr5bOrBnQjXYe30000]--></g></svg>