<?xml version="1.0" encoding="UTF-8" standalone="no"?><svg xmlns="http://www.w3.org/2000/svg" xmlns:xlink="http://www.w3.org/1999/xlink" contentScriptType="application/ecmascript" contentStyleType="text/css" height="534px" preserveAspectRatio="none" style="width:974px;height:534px;" version="1.1" viewBox="0 0 974 534" width="974px" zoomAndPan="magnify"><defs><filter height="300%" id="f1w7adrfrg6tox" width="300%" x="-1" y="-1"><feGaussianBlur result="blurOut" stdDeviation="2.0"/><feColorMatrix in="blurOut" result="blurOut2" type="matrix" values="0 0 0 0 0 0 0 0 0 0 0 0 0 0 0 0 0 0 .4 0"/><feOffset dx="4.0" dy="4.0" in="blurOut2" result="blurOut3"/><feBlend in="SourceGraphic" in2="blurOut3" mode="normal"/></filter></defs><g><line style="stroke:#AFBAC4;stroke-width:1.0;stroke-dasharray:5.0,5.0;" x1="73" x2="73" y1="88.4883" y2="450.2148"/><line style="stroke:#AFBAC4;stroke-width:1.0;stroke-dasharray:5.0,5.0;" x1="227" x2="227" y1="88.4883" y2="450.2148"/><line style="stroke:#AFBAC4;stroke-width:1.0;stroke-dasharray:5.0,5.0;" x1="412" x2="412" y1="88.4883" y2="450.2148"/><line style="stroke:#AFBAC4;stroke-width:1.0;stroke-dasharray:5.0,5.0;" x1="644" x2="644" y1="88.4883" y2="450.2148"/><line style="stroke:#AFBAC4;stroke-width:1.0;stroke-dasharray:5.0,5.0;" x1="860" x2="860" y1="88.4883" y2="450.2148"/><text fill="#FFFFFF" font-family="sans-serif" font-size="14" lengthAdjust="spacing" textLength="28" x="56" y="85.5352">用户</text><ellipse cx="73" cy="15" fill="none" filter="url(#f1w7adrfrg6tox)" rx="8" ry="8" style="stroke:#57CC8A;stroke-width:2.0;"/><path d="M73,23 L73,50 M60,31 L86,31 M73,50 L60,65 M73,50 L86,65 " fill="none" filter="url(#f1w7adrfrg6tox)" style="stroke:#57CC8A;stroke-width:2.0;"/><text fill="#FFFFFF" font-family="sans-serif" font-size="14" lengthAdjust="spacing" textLength="28" x="56" y="462.75">用户</text><ellipse cx="73" cy="475.7031" fill="none" filter="url(#f1w7adrfrg6tox)" rx="8" ry="8" style="stroke:#57CC8A;stroke-width:2.0;"/><path d="M73,483.7031 L73,510.7031 M60,491.7031 L86,491.7031 M73,510.7031 L60,525.7031 M73,510.7031 L86,525.7031 " fill="none" filter="url(#f1w7adrfrg6tox)" style="stroke:#57CC8A;stroke-width:2.0;"/><rect fill="#394248" filter="url(#f1w7adrfrg6tox)" height="30.4883" rx="5" ry="5" style="stroke:#394248;stroke-width:1.5;" width="106" x="172" y="53"/><text fill="#57CC8A" font-family="sans-serif" font-size="14" lengthAdjust="spacing" textLength="92" x="179" y="73.5352">客户端(Client)</text><rect fill="#394248" filter="url(#f1w7adrfrg6tox)" height="30.4883" rx="5" ry="5" style="stroke:#394248;stroke-width:1.5;" width="106" x="172" y="449.2148"/><text fill="#57CC8A" font-family="sans-serif" font-size="14" lengthAdjust="spacing" textLength="92" x="179" y="469.75">客户端(Client)</text><rect fill="#394248" filter="url(#f1w7adrfrg6tox)" height="30.4883" rx="5" ry="5" style="stroke:#394248;stroke-width:1.5;" width="236" x="292" y="53"/><text fill="#57CC8A" font-family="sans-serif" font-size="14" lengthAdjust="spacing" textLength="222" x="299" y="73.5352">授权服务器(Authorization Server)</text><rect fill="#394248" filter="url(#f1w7adrfrg6tox)" height="30.4883" rx="5" ry="5" style="stroke:#394248;stroke-width:1.5;" width="236" x="292" y="449.2148"/><text fill="#57CC8A" font-family="sans-serif" font-size="14" lengthAdjust="spacing" textLength="222" x="299" y="469.75">授权服务器(Authorization Server)</text><rect fill="#394248" filter="url(#f1w7adrfrg6tox)" height="30.4883" rx="5" ry="5" style="stroke:#394248;stroke-width:1.5;" width="200" x="542" y="53"/><text fill="#57CC8A" font-family="sans-serif" font-size="14" lengthAdjust="spacing" textLength="186" x="549" y="73.5352">授权同意页(Consent screen)</text><rect fill="#394248" filter="url(#f1w7adrfrg6tox)" height="30.4883" rx="5" ry="5" style="stroke:#394248;stroke-width:1.5;" width="200" x="542" y="449.2148"/><text fill="#57CC8A" font-family="sans-serif" font-size="14" lengthAdjust="spacing" textLength="186" x="549" y="469.75">授权同意页(Consent screen)</text><rect fill="#394248" filter="url(#f1w7adrfrg6tox)" height="30.4883" rx="5" ry="5" style="stroke:#394248;stroke-width:1.5;" width="204" x="756" y="53"/><text fill="#57CC8A" font-family="sans-serif" font-size="14" lengthAdjust="spacing" textLength="190" x="763" y="73.5352">资源服务器(Resource Server)</text><rect fill="#394248" filter="url(#f1w7adrfrg6tox)" height="30.4883" rx="5" ry="5" style="stroke:#394248;stroke-width:1.5;" width="204" x="756" y="449.2148"/><text fill="#57CC8A" font-family="sans-serif" font-size="14" lengthAdjust="spacing" textLength="190" x="763" y="469.75">资源服务器(Resource Server)</text><polygon fill="#5AC7C3" points="215,115.7988,225,119.7988,215,123.7988,219,119.7988" style="stroke:#5AC7C3;stroke-width:1.0;"/><line style="stroke:#5AC7C3;stroke-width:1.0;" x1="73" x2="221" y1="119.7988" y2="119.7988"/><text fill="#FFFFFF" font-family="sans-serif" font-size="13" lengthAdjust="spacing" textLength="130" x="85" y="115.0566">点击 Google 登录按钮</text><polygon fill="#5AC7C3" points="400,180.7305,410,184.7305,400,188.7305,404,184.7305" style="stroke:#5AC7C3;stroke-width:1.0;"/><line style="stroke:#5AC7C3;stroke-width:1.0;" x1="227" x2="406" y1="184.7305" y2="184.7305"/><text fill="#FFFFFF" font-family="sans-serif" font-size="13" lengthAdjust="spacing" textLength="26" x="306.5" y="179.9883">跳转</text><path d="M5,137.7988 L5,213.7988 A5,5 0 0 0 10,218.7988 L213,218.7988 A5,5 0 0 0 218,213.7988 L218,142.7988 L208,132.7988 L10,132.7988 A5,5 0 0 0 5,137.7988 " fill="#F43655" filter="url(#f1w7adrfrg6tox)" style="stroke:#A80036;stroke-width:1.0;"/><path d="M208,132.7988 L208,140.2988 A2.5,2.5 0 0 0 210.5,142.7988 L218,142.7988 L208,132.7988 " fill="#F43655" style="stroke:#A80036;stroke-width:1.0;"/><text fill="#FFFFFF" font-family="sans-serif" font-size="13" lengthAdjust="spacing" textLength="54" x="11" y="150.3672">client_id</text><text fill="#FFFFFF" font-family="sans-serif" font-size="13" lengthAdjust="spacing" textLength="192" x="11" y="165.6777">redirect_uri: abc.com/callback</text><text fill="#FFFFFF" font-family="sans-serif" font-size="13" lengthAdjust="spacing" textLength="129" x="11" y="180.9883">response_type: code</text><text fill="#FFFFFF" font-family="sans-serif" font-size="13" lengthAdjust="spacing" textLength="136" x="11" y="196.2988">scope: Profile,contact</text><text fill="#FFFFFF" font-family="sans-serif" font-size="13" lengthAdjust="spacing" textLength="31" x="11" y="211.6094">state</text><line style="stroke:#5AC7C3;stroke-width:1.0;" x1="412" x2="454" y1="249.6621" y2="249.6621"/><line style="stroke:#5AC7C3;stroke-width:1.0;" x1="454" x2="454" y1="249.6621" y2="262.6621"/><line style="stroke:#5AC7C3;stroke-width:1.0;" x1="413" x2="454" y1="262.6621" y2="262.6621"/><polygon fill="#5AC7C3" points="423,258.6621,413,262.6621,423,266.6621,419,262.6621" style="stroke:#5AC7C3;stroke-width:1.0;"/><text fill="#FFFFFF" font-family="sans-serif" font-size="13" lengthAdjust="spacing" textLength="78" x="419" y="244.9199">账号密码登录</text><polygon fill="#5AC7C3" points="632,287.9727,642,291.9727,632,295.9727,636,291.9727" style="stroke:#5AC7C3;stroke-width:1.0;"/><line style="stroke:#5AC7C3;stroke-width:1.0;" x1="412" x2="638" y1="291.9727" y2="291.9727"/><text fill="#FFFFFF" font-family="sans-serif" font-size="13" lengthAdjust="spacing" textLength="39" x="508.5" y="287.2305">重定向</text><line style="stroke:#5AC7C3;stroke-width:1.0;" x1="644" x2="686" y1="321.2832" y2="321.2832"/><line style="stroke:#5AC7C3;stroke-width:1.0;" x1="686" x2="686" y1="321.2832" y2="334.2832"/><line style="stroke:#5AC7C3;stroke-width:1.0;" x1="645" x2="686" y1="334.2832" y2="334.2832"/><polygon fill="#5AC7C3" points="655,330.2832,645,334.2832,655,338.2832,651,334.2832" style="stroke:#5AC7C3;stroke-width:1.0;"/><text fill="#FFFFFF" font-family="sans-serif" font-size="13" lengthAdjust="spacing" textLength="104" x="651" y="316.541">点击确认授权按钮</text><polygon fill="#5AC7C3" points="238,364.5938,228,368.5938,238,372.5938,234,368.5938" style="stroke:#5AC7C3;stroke-width:1.0;"/><line style="stroke:#5AC7C3;stroke-width:1.0;" x1="232" x2="643" y1="368.5938" y2="368.5938"/><text fill="#FFFFFF" font-family="sans-serif" font-size="13" lengthAdjust="spacing" textLength="258" x="306.5" y="363.8516">重定向到 abc.com/callback(access token)</text><path d="M649,352.2832 L649,367.2832 A5,5 0 0 0 654,372.2832 L803,372.2832 A5,5 0 0 0 808,367.2832 L808,357.2832 L798,347.2832 L654,347.2832 A5,5 0 0 0 649,352.2832 " fill="#F43655" filter="url(#f1w7adrfrg6tox)" style="stroke:#A80036;stroke-width:1.0;"/><path d="M798,347.2832 L798,354.7832 A2.5,2.5 0 0 0 800.5,357.2832 L808,357.2832 L798,347.2832 " fill="#F43655" style="stroke:#A80036;stroke-width:1.0;"/><text fill="#FFFFFF" font-family="sans-serif" font-size="13" lengthAdjust="spacing" textLength="138" x="655" y="364.8516">直接返回 access token</text><polygon fill="#5AC7C3" points="848,398.9043,858,402.9043,848,406.9043,852,402.9043" style="stroke:#5AC7C3;stroke-width:1.0;"/><line style="stroke:#5AC7C3;stroke-width:1.0;" x1="227" x2="854" y1="402.9043" y2="402.9043"/><text fill="#FFFFFF" font-family="sans-serif" font-size="13" lengthAdjust="spacing" textLength="198" x="444.5" y="398.1621">请求获取资源(携带 access token)</text><polygon fill="#5AC7C3" points="238,428.2148,228,432.2148,238,436.2148,234,432.2148" style="stroke:#5AC7C3;stroke-width:1.0;"/><line style="stroke:#5AC7C3;stroke-width:1.0;" x1="232" x2="859" y1="432.2148" y2="432.2148"/><text fill="#FFFFFF" font-family="sans-serif" font-size="13" lengthAdjust="spacing" textLength="52" x="517.5" y="427.4727">返回资源</text><!--MD5=[2e24ddd39c8be0718905d3877dbcda98]
@startuml
skinparamlocked roundcorner 10
skinparamlocked sequenceMessageAlign center
skinparamlocked arrowColor #5ac7c3
skinparamlocked arrowFontColor #white
skinparamlocked participantBackgroundColor #394248
skinparamlocked participantFontColor #57cc8a
skinparamlocked participantBorderColor #394248
skinparamlocked actorFontColor #white
skinparamlocked actorBorderColor #57cc8a
skinparamlocked actorBackgroundColor #transparent
skinparamlocked sequenceLifeLineBorderColor #afbac4
skinparamlocked noteBackgroundColor #f43655
skinparamlocked noteFontColor #white

!$client = "客户端(Client)"
!$authServer = "授权服务器(Authorization Server)"
!$consent = "授权同意页(Consent screen)"
!$resServer = "资源服务器(Resource Server)"
!$user = "用户"
actor $user
"$user" -> "$client": 点击 Google 登录按钮

"$client" -> "$authServer": 跳转
note left
client_id
redirect_uri: abc.com/callback
response_type: code
scope: Profile,contact
state
end note

"$authServer"-> "$authServer": 账号密码登录

"$authServer" -> "$consent": 重定向
"$consent" -> "$consent": 点击确认授权按钮
"$consent" -> "$client":重定向到 abc.com/callback(access token)
note right
直接返回 access token
end note

"$client" -> "$resServer" : 请求获取资源(携带 access token)
"$client" <- "$resServer" : 返回资源


@enduml

@startuml
skinparamlocked roundcorner 10
skinparamlocked sequenceMessageAlign center
skinparamlocked arrowColor #5ac7c3
skinparamlocked arrowFontColor #white
skinparamlocked participantBackgroundColor #394248
skinparamlocked participantFontColor #57cc8a
skinparamlocked participantBorderColor #394248
skinparamlocked actorFontColor #white
skinparamlocked actorBorderColor #57cc8a
skinparamlocked actorBackgroundColor #transparent
skinparamlocked sequenceLifeLineBorderColor #afbac4
skinparamlocked noteBackgroundColor #f43655
skinparamlocked noteFontColor #white

actor 用户
"用户" -> "客户端(Client)": 点击 Google 登录按钮

"客户端(Client)" -> "授权服务器(Authorization Server)": 跳转
note left
client_id
redirect_uri: abc.com/callback
response_type: code
scope: Profile,contact
state
end note

"授权服务器(Authorization Server)"-> "授权服务器(Authorization Server)": 账号密码登录

"授权服务器(Authorization Server)" -> "授权同意页(Consent screen)": 重定向
"授权同意页(Consent screen)" -> "授权同意页(Consent screen)": 点击确认授权按钮
"授权同意页(Consent screen)" -> "客户端(Client)":重定向到 abc.com/callback(access token)
note right
直接返回 access token
end note

"客户端(Client)" -> "资源服务器(Resource Server)" : 请求获取资源(携带 access token)
"客户端(Client)" <- "资源服务器(Resource Server)" : 返回资源


@enduml

PlantUML version 1.2021.00(Sun Jan 10 18:25:05 CST 2021)
(GPL source distribution)
Java Runtime: Java(TM) SE Runtime Environment
JVM: Java HotSpot(TM) 64-Bit Server VM
Default Encoding: US-ASCII
Language: en
Country: CN
--></g></svg>