<svg xmlns="http://www.w3.org/2000/svg" xmlns:xlink="http://www.w3.org/1999/xlink" version="1.1" baseProfile="full" width="958" height="818" style="user-select: none; position: absolute; left: 0px; top: 0px;">
<g>
<rect width="958" height="818" x="0" y="0" id="0" style="fill: rgb(16, 12, 42);">
</rect>
</g>
<g>
<defs>
<clipPath id="zr4532-clip-0">
<path d="M 94 59 L 862 59 L 862 749 L 94 749 L 94 59" fill="#000" fill-opacity="1" stroke="none">
</path>
</clipPath>
</defs>
<path d="M 95.8 748.5 L 862.2 748.5" fill="none" stroke="#484753" stroke-width="1" paint-order="fill" stroke-opacity="1" stroke-dasharray="" stroke-linecap="butt" stroke-miterlimit="10">
</path>
<path d="M 95.8 649.5 L 862.2 649.5" fill="none" stroke="#484753" stroke-width="1" paint-order="fill" stroke-opacity="1" stroke-dasharray="" stroke-linecap="butt" stroke-miterlimit="10">
</path>
<path d="M 95.8 551.5 L 862.2 551.5" fill="none" stroke="#484753" stroke-width="1" paint-order="fill" stroke-opacity="1" stroke-dasharray="" stroke-linecap="butt" stroke-miterlimit="10">
</path>
<path d="M 95.8 453.5 L 862.2 453.5" fill="none" stroke="#484753" stroke-width="1" paint-order="fill" stroke-opacity="1" stroke-dasharray="" stroke-linecap="butt" stroke-miterlimit="10">
</path>
<path d="M 95.8 355.5 L 862.2 355.5" fill="none" stroke="#484753" stroke-width="1" paint-order="fill" stroke-opacity="1" stroke-dasharray="" stroke-linecap="butt" stroke-miterlimit="10">
</path>
<path d="M 95.8 256.5 L 862.2 256.5" fill="none" stroke="#484753" stroke-width="1" paint-order="fill" stroke-opacity="1" stroke-dasharray="" stroke-linecap="butt" stroke-miterlimit="10">
</path>
<path d="M 95.8 158.5 L 862.2 158.5" fill="none" stroke="#484753" stroke-width="1" paint-order="fill" stroke-opacity="1" stroke-dasharray="" stroke-linecap="butt" stroke-miterlimit="10">
</path>
<path d="M 95.8 60.5 L 862.2 60.5" fill="none" stroke="#484753" stroke-width="1" paint-order="fill" stroke-opacity="1" stroke-dasharray="" stroke-linecap="butt" stroke-miterlimit="10">
</path>
<path d="M 95.8 748.5 L 862.2 748.5" fill="none" stroke="#B9B8CE" stroke-width="1" paint-order="fill" stroke-opacity="1" stroke-dasharray="" stroke-linecap="round" stroke-miterlimit="10">
</path>
<path d="M 96.5 748 L 96.5 753" fill="none" stroke="#B9B8CE" stroke-width="1" paint-order="fill" stroke-opacity="1" stroke-dasharray="" stroke-linecap="butt" stroke-miterlimit="10">
</path>
<path d="M 191.5 748 L 191.5 753" fill="none" stroke="#B9B8CE" stroke-width="1" paint-order="fill" stroke-opacity="1" stroke-dasharray="" stroke-linecap="butt" stroke-miterlimit="10">
</path>
<path d="M 287.5 748 L 287.5 753" fill="none" stroke="#B9B8CE" stroke-width="1" paint-order="fill" stroke-opacity="1" stroke-dasharray="" stroke-linecap="butt" stroke-miterlimit="10">
</path>
<path d="M 383.5 748 L 383.5 753" fill="none" stroke="#B9B8CE" stroke-width="1" paint-order="fill" stroke-opacity="1" stroke-dasharray="" stroke-linecap="butt" stroke-miterlimit="10">
</path>
<path d="M 479.5 748 L 479.5 753" fill="none" stroke="#B9B8CE" stroke-width="1" paint-order="fill" stroke-opacity="1" stroke-dasharray="" stroke-linecap="butt" stroke-miterlimit="10">
</path>
<path d="M 575.5 748 L 575.5 753" fill="none" stroke="#B9B8CE" stroke-width="1" paint-order="fill" stroke-opacity="1" stroke-dasharray="" stroke-linecap="butt" stroke-miterlimit="10">
</path>
<path d="M 670.5 748 L 670.5 753" fill="none" stroke="#B9B8CE" stroke-width="1" paint-order="fill" stroke-opacity="1" stroke-dasharray="" stroke-linecap="butt" stroke-miterlimit="10">
</path>
<path d="M 766.5 748 L 766.5 753" fill="none" stroke="#B9B8CE" stroke-width="1" paint-order="fill" stroke-opacity="1" stroke-dasharray="" stroke-linecap="butt" stroke-miterlimit="10">
</path>
<path d="M 862.5 748 L 862.5 753" fill="none" stroke="#B9B8CE" stroke-width="1" paint-order="fill" stroke-opacity="1" stroke-dasharray="" stroke-linecap="butt" stroke-miterlimit="10">
</path>
<text xml:space="preserve" fill="#B9B8CE" fill-opacity="1" stroke="none" transform="matrix(1,0,0,1,87.8,748)" dominant-baseline="central" text-anchor="end" x="0" y="0" style="font: 12px sans-serif;">0</text>
<text xml:space="preserve" fill="#B9B8CE" fill-opacity="1" stroke="none" transform="matrix(1,0,0,1,87.8,649.7143)" dominant-baseline="central" text-anchor="end" x="0" y="0" style="font: 12px sans-serif;">10</text>
<text xml:space="preserve" fill="#B9B8CE" fill-opacity="1" stroke="none" transform="matrix(1,0,0,1,87.8,551.4286)" dominant-baseline="central" text-anchor="end" x="0" y="0" style="font: 12px sans-serif;">20</text>
<text xml:space="preserve" fill="#B9B8CE" fill-opacity="1" stroke="none" transform="matrix(1,0,0,1,87.8,453.1429)" dominant-baseline="central" text-anchor="end" x="0" y="0" style="font: 12px sans-serif;">30</text>
<text xml:space="preserve" fill="#B9B8CE" fill-opacity="1" stroke="none" transform="matrix(1,0,0,1,87.8,354.8571)" dominant-baseline="central" text-anchor="end" x="0" y="0" style="font: 12px sans-serif;">40</text>
<text xml:space="preserve" fill="#B9B8CE" fill-opacity="1" stroke="none" transform="matrix(1,0,0,1,87.8,256.5714)" dominant-baseline="central" text-anchor="end" x="0" y="0" style="font: 12px sans-serif;">50</text>
<text xml:space="preserve" fill="#B9B8CE" fill-opacity="1" stroke="none" transform="matrix(1,0,0,1,87.8,158.2857)" dominant-baseline="central" text-anchor="end" x="0" y="0" style="font: 12px sans-serif;">60</text>
<text xml:space="preserve" fill="#B9B8CE" fill-opacity="1" stroke="none" transform="matrix(1,0,0,1,87.8,60)" dominant-baseline="central" text-anchor="end" x="0" y="0" style="font: 12px sans-serif;">70</text>
<text xml:space="preserve" fill="#B9B8CE" fill-opacity="1" stroke="none" transform="matrix(1,0,0,1,143.7,756)" dominant-baseline="central" text-anchor="middle" x="0" y="6" style="font: 12px sans-serif;">8</text>
<text xml:space="preserve" fill="#B9B8CE" fill-opacity="1" stroke="none" transform="matrix(1,0,0,1,239.5,756)" dominant-baseline="central" text-anchor="middle" x="0" y="6" style="font: 12px sans-serif;">9</text>
<text xml:space="preserve" fill="#B9B8CE" fill-opacity="1" stroke="none" transform="matrix(1,0,0,1,335.3,756)" dominant-baseline="central" text-anchor="middle" x="0" y="6" style="font: 12px sans-serif;">10</text>
<text xml:space="preserve" fill="#B9B8CE" fill-opacity="1" stroke="none" transform="matrix(1,0,0,1,431.1,756)" dominant-baseline="central" text-anchor="middle" x="0" y="6" style="font: 12px sans-serif;">11</text>
<text xml:space="preserve" fill="#B9B8CE" fill-opacity="1" stroke="none" transform="matrix(1,0,0,1,526.9,756)" dominant-baseline="central" text-anchor="middle" x="0" y="6" style="font: 12px sans-serif;">12</text>
<text xml:space="preserve" fill="#B9B8CE" fill-opacity="1" stroke="none" transform="matrix(1,0,0,1,622.7,756)" dominant-baseline="central" text-anchor="middle" x="0" y="6" style="font: 12px sans-serif;">13</text>
<text xml:space="preserve" fill="#B9B8CE" fill-opacity="1" stroke="none" transform="matrix(1,0,0,1,718.5,756)" dominant-baseline="central" text-anchor="middle" x="0" y="6" style="font: 12px sans-serif;">14</text>
<text xml:space="preserve" fill="#B9B8CE" fill-opacity="1" stroke="none" transform="matrix(1,0,0,1,814.3,756)" dominant-baseline="central" text-anchor="middle" x="0" y="6" style="font: 12px sans-serif;">15</text>
<g clip-path="url(#zr4532-clip-0)">
<path d="M 143.7 740.0389 C 143.7 740.0389 191.566 745.1497 239.5 745.1497 C 287.366 745.1497 287.4001 745.1497 335.3 745.1497 C 383.2001 745.1497 383.2049 745.1497 431.1 744.8549 C 479.0049 744.5599 479.2259 744.8549 526.9 742.8892 C 575.0259 740.9048 580.3394 742.8892 622.7 729.5223 C 676.1393 712.6595 701.9188 710.2482 718.5 653.9406 C 797.7188 384.9225 814.3 78.8709 814.3 78.8709" fill="none" stroke="#4992ff" stroke-width="2" paint-order="fill" stroke-opacity="1" stroke-dasharray="" stroke-linecap="butt" stroke-linejoin="bevel" stroke-miterlimit="10">
</path>
</g>
<path d="M 1 0 A 1 1 0 1 1 1 -0.0001" fill="#4992ff" fill-opacity="1" stroke="none" transform="matrix(2,0,0,2,143.7,740.0389)">
</path>
<path d="M 1 0 A 1 1 0 1 1 1 -0.0001" fill="#4992ff" fill-opacity="1" stroke="none" transform="matrix(2,0,0,2,239.5,745.1497)">
</path>
<path d="M 1 0 A 1 1 0 1 1 1 -0.0001" fill="#4992ff" fill-opacity="1" stroke="none" transform="matrix(2,0,0,2,335.3,745.1497)">
</path>
<path d="M 1 0 A 1 1 0 1 1 1 -0.0001" fill="#4992ff" fill-opacity="1" stroke="none" transform="matrix(2,0,0,2,431.1,744.8549)">
</path>
<path d="M 1 0 A 1 1 0 1 1 1 -0.0001" fill="#4992ff" fill-opacity="1" stroke="none" transform="matrix(2,0,0,2,526.9,742.8892)">
</path>
<path d="M 1 0 A 1 1 0 1 1 1 -0.0001" fill="#4992ff" fill-opacity="1" stroke="none" transform="matrix(2,0,0,2,622.7,729.5223)">
</path>
<path d="M 1 0 A 1 1 0 1 1 1 -0.0001" fill="#4992ff" fill-opacity="1" stroke="none" transform="matrix(2,0,0,2,718.5,653.9406)">
</path>
<path d="M 1 0 A 1 1 0 1 1 1 -0.0001" fill="#4992ff" fill-opacity="1" stroke="none" transform="matrix(2,0,0,2,814.3,78.8709)">
</path>
</g>
</svg>