<svg xmlns="http://www.w3.org/2000/svg" xmlns:xlink="http://www.w3.org/1999/xlink" version="1.1" width="991px" height="311px" viewBox="-0.5 -0.5 991 311" content="&lt;mxfile&gt;&lt;diagram id=&quot;awtSpFFNpY-JsKuiYgAV&quot; name=&quot;Page-1&quot;&gt;7Vxdk6I4FP01eVyL8CHkEWzcfZitmqp+2NlHWtLKNhoL09M6v34TSOQjUbRFRHt86CIJQXLOzb33xKSBNVlu/8yi9eJvEuMUmEa8BdYTME3kmOwvr9gVFdB1jaJmniWxqCsrnpNfWFTK296TGG9qN1JCUpqs65UzslrhGa3VRVlGPuq3vZK0/q3raI6ViudZlKq1/yQxXRS1nmOU9X/hZL6Q3wwN0bKM5M2iYrOIYvJRqbJCYE0yQmhxtdxOcMrBk7gU/aYHWvcvluEVPaWDPS56/IzSdzE48WJ0J0ebkfdVjHkHA1jBxyKh+HkdzXjrB+OX1S3oMmUlyC43b5jOFqLwmqTphKQkY+UVWWHeTjPyhhuV4h1wRvH24EDgHh5mV5gsMc127BZhQ39IRD9KQhASdYsKGZY0okgYwXz/rBIndiGg0sOGVNTCMUAh8GwQOiAIQODzC2QCb8KbAgd4AQg94E8BckDoAj8EPgQhAh4EyFJAZ0jQOrJRmsxX7HrGEMEMvIDjlTCj9EXDMolj3j3I8Cb5Fb3kj+KUrUmyovlonQA4T/xZ75RsimkFr0GK6GCOBdZyoqsc7adGlSOzA4og1HDkAo8B7uVkTYCfU+MxIlxOFqsPxo9JBDTMNiLG1+LBbvcwc+Zi1geHKby4wLH0nacP366boYWU0TumZvg2vHz4ZvvoK6YlLelb9ILT78wyaEK4Rb0QSslSZ3spvzOIZm/z3E1L0wGm9Zp/NOZJyXpvajJ8mYrxsScYhmdMud3uoxQvxNFmsY8GrGXNh7HcznmoHyVk444SxthmFEc0agaE00zZPkqmVyfTGTk2qnxchVvT1lg2GhnVXsi7nGpL43Ac4D8BFoZ4UPABsrkLYn999nWGf7e+5gBBe+fSwNbuzdmc4Gs+n81o5sc4ZPGc5TlkRXUzT5P/dDEDYCOsGiMWRSsfaJvqJNA6uA4gdxSEccySZVEkGV2QOVlFaVjWBnUOynu+Ee6acrD/w5TuRObPDbfOC0Mq2/0Q/fPCv7wwcmTxaVttfNpJd6U6I/62LUSw0ZH3bIZrHp1G2RzTitmpdGU4jWjys/74S7DuLVkvnH9kGHqzd9y85ZDZd2LjbjN1bBp5b07F/TqoNzOlG6LufR3U95L09qjLN7kgiSlZgX2zUqDVESu2ZkVBq1a7kAlQte5zw2gNyh5j6ifDqK2GUWjoCek8jkKn3bn0rEmhRpJfTZTCExKJ36q0waZzlM7BqlKoSV+OevRAMYV7kaUHGLq9LIVXTWZ61KXH58CgdClEF0fUIQtTKbsrEVV69VpI9XoKqaYmcbxavg5fIogPBIcW0+/EzoejTU3NrxyPCvuAxKlE+SvAPiB1evYSu5rLdKZOz2flTHV6nJVe1anMVR9UnepiqafG0sL6+oilJ8izvuWp16M8PWXF9bc8rbNZ2Mz9yVPdOu9Rlz5RTOFO5Okhhm4vT3Xbme5RnrbMgUHJU8tQIH4geSojWO13U1cTUlFPIdXqUydFpmGYjs70x1ORAl6UsLfZ+XDkqdWnTrox7AOSp5ZGJz0q7AOSp5Zm+9GZuUxn8vR8Vs6Tpy2s9CpPrcv3IA1YnmpjKVJjqdXXLiRL3STdMZjbhP6oXFegZKUSSV7YVWHVEGB2sUCgEiCdTm2t/dL1AdH1O9cg5VRyrbqDcxueqngF0anB4v4tTiPWPTqPRCreLdefg18uBPYA/7gBP7S4KV6LAa9/Brqcbe51Zpul2yxyJbobKyWwmRh0SLbuFJENAo8fUikufF+TN/BzRUZ+ioU1IX5mRRxeMWR342h3BDyXH0u603WU4+uWTW+pO3J0td3nJ6TdxbrtJ5Kvy5d0xw1daEPpyKoLHq4GHOiips/71E/yZ8mSSxLgc+zJPuBIegJFqsavsOPyENRykdqp2aeJNPZ5NRFha1aIHvW3xRYeGi4U9cuDZsnoUUV0Cw/QuSkRuo2DOexomucXfn5u1s0P0E5zjkzgPehJZruZFl7tAC0rlsf/i6yy/CcKVvg/&lt;/diagram&gt;&lt;/mxfile&gt;"><defs/><g><rect x="0" y="0" width="990" height="310" fill="none" stroke="none" pointer-events="all"/><rect x="260" y="30" width="100" height="20" fill="none" stroke="none" pointer-events="all"/><g transform="translate(-0.5 -0.5)"><switch><foreignObject style="overflow: visible; text-align: left;" pointer-events="none" width="100%" height="100%" requiredFeatures="http://www.w3.org/TR/SVG11/feature#Extensibility"><div xmlns="http://www.w3.org/1999/xhtml" style="display: flex; align-items: unsafe center; justify-content: unsafe center; width: 1px; height: 1px; padding-top: 40px; margin-left: 310px;"><div style="box-sizing: border-box; font-size: 0; text-align: center; "><div style="display: inline-block; font-size: 12px; font-family: Helvetica; color: #000000; line-height: 1.2; pointer-events: all; white-space: nowrap; ">构建和测试管道</div></div></div></foreignObject><text x="310" y="44" fill="#000000" font-family="Helvetica" font-size="12px" text-anchor="middle">构建和测试管道</text></switch></g><rect x="102" y="30" width="60" height="20" fill="none" stroke="none" pointer-events="all"/><g transform="translate(-0.5 -0.5)"><switch><foreignObject style="overflow: visible; text-align: left;" pointer-events="none" width="100%" height="100%" requiredFeatures="http://www.w3.org/TR/SVG11/feature#Extensibility"><div xmlns="http://www.w3.org/1999/xhtml" style="display: flex; align-items: unsafe center; justify-content: unsafe center; width: 1px; height: 1px; padding-top: 40px; margin-left: 132px;"><div style="box-sizing: border-box; font-size: 0; text-align: center; "><div style="display: inline-block; font-size: 12px; font-family: Helvetica; color: #000000; line-height: 1.2; pointer-events: all; white-space: nowrap; ">版本控制</div></div></div></foreignObject><text x="132" y="44" fill="#000000" font-family="Helvetica" font-size="12px" text-anchor="middle">版本控制</text></switch></g><path d="M 118.01 70.11 L 128.16 66.3 L 134.75 62.97 L 141.27 65.63 L 142.91 90.91 L 131.78 94.24 L 119.96 93.13 L 118.92 67.42" fill="#ffffff" stroke="none" pointer-events="none"/><path d="M 120 68.56 M 120 68.56 C 119.19 66.17 127.37 64.08 132 64.55 M 120 68.56 C 122.28 68.6 123.48 65.93 132 64.55 M 132 64.55 C 139.58 65.02 142.3 67.36 144 68.56 M 132 64.55 C 138.23 65.73 142.96 67.08 144 68.56 M 144 68.56 C 144.36 76.77 142.6 83.75 144 89.63 M 144 68.56 C 145.06 76.11 143.8 81.75 144 89.63 M 144 89.63 C 144.26 93.13 137.34 93.11 132 93.65 M 144 89.63 C 144.42 91.42 139.02 94.52 132 93.65 M 132 93.65 C 124.68 92.63 121.59 90.39 120 89.63 M 132 93.65 C 124.41 94.47 122.03 90.4 120 89.63 M 120 89.63 C 118.91 80.95 121.7 76.87 120 68.56 M 120 89.63 C 119.97 82.49 119.16 73.52 120 68.56" fill="none" stroke="#0080f0" stroke-width="2" stroke-linejoin="round" stroke-linecap="round" stroke-miterlimit="10" pointer-events="none"/><path d="M 120 68.56 M 120 68.56 C 118.01 72.33 126.2 74.02 132 72.58 M 120 68.56 C 117.79 68.59 123.32 71 132 72.58 M 132 72.58 C 138.49 72.3 143.78 71.37 144 68.56 M 132 72.58 C 137.5 74.81 142.75 69.47 144 68.56 M 120 75.19 M 120 75.19 C 119.19 77.22 127.37 78.73 132 79.2 M 120 75.19 C 122.28 79.65 123.48 80.58 132 79.2 M 132 79.2 C 139.58 79.67 142.3 78.41 144 75.19 M 132 79.2 C 138.23 80.38 142.96 78.13 144 75.19 M 120 82.71 M 120 82.71 C 121.58 85.73 124.37 86.99 132 86.72 M 120 82.71 C 120.26 83.23 124.46 87.48 132 86.72 M 132 86.72 C 139.65 87.14 145.91 85.99 144 82.71 M 132 86.72 C 137.93 84.77 144.3 86.4 144 82.71" fill="none" stroke="#0080f0" stroke-width="2" stroke-linejoin="round" stroke-linecap="round" stroke-miterlimit="10" pointer-events="none"/><g transform="translate(-0.5 -0.5)"><switch><foreignObject style="overflow: visible; text-align: left;" pointer-events="none" width="100%" height="100%" requiredFeatures="http://www.w3.org/TR/SVG11/feature#Extensibility"><div xmlns="http://www.w3.org/1999/xhtml" style="display: flex; align-items: unsafe center; justify-content: unsafe center; width: 1px; height: 1px; padding-top: 79px; margin-left: 70px;"><div style="box-sizing: border-box; font-size: 0; text-align: center; "><div style="display: inline-block; font-size: 12px; font-family: Helvetica; color: #000000; line-height: 1.2; pointer-events: none; white-space: nowrap; ">子应用 A</div></div></div></foreignObject><text x="70" y="83" fill="#000000" font-family="Helvetica" font-size="12px" text-anchor="middle">子应用 A</text></switch></g><path d="M 200 59.1 C 243.35 57.54 289.43 58.01 420 59.1 M 200 59.1 C 282.85 61.51 364.39 60.74 420 59.1 M 420 59.1 C 419.06 70.08 420.49 84.04 420 99.1 M 420 59.1 C 420.74 72.81 419.21 86.57 420 99.1 M 420 99.1 C 374.27 98.79 329.15 99.14 200 99.1 M 420 99.1 C 333.07 98.98 245.16 98.68 200 99.1 M 200 99.1 C 199.65 88.23 199.69 75.22 200 59.1 M 200 99.1 C 199.44 84.26 199.26 68.01 200 59.1" fill="none" stroke="#006eaf" stroke-linejoin="round" stroke-linecap="round" stroke-miterlimit="10" pointer-events="none"/><path d="M 144 79.2 M 144 79.2 C 147.62 78.16 154.36 78.9 172 79.2 M 144 79.2 C 150.41 80.23 157.68 78.56 172 79.2 M 172 79.2 C 178.3 79.7 186.19 79.66 193.63 79.12 M 172 79.2 C 179.16 78.67 185.53 78.26 193.63 79.12" fill="none" stroke="#000000" stroke-linejoin="round" stroke-linecap="round" stroke-miterlimit="10" pointer-events="none"/><path d="M 192.12 75.35 C 192.12 75.35 192.12 75.35 192.12 75.35 M 192.12 75.35 C 192.12 75.35 192.12 75.35 192.12 75.35 M 193.82 79.48 C 194.34 78.76 195.07 77.97 195.79 77.22 M 193.82 79.48 C 194.49 78.68 195.03 77.88 195.79 77.22" fill="none" stroke="#000000" stroke-linejoin="round" stroke-linecap="round" stroke-miterlimit="10" pointer-events="none"/><path d="M 198.88 79.1 M 198.88 79.1 C 195.85 80.78 194.11 81.26 191.89 82.63 M 198.88 79.1 C 196.97 80.22 195.3 80.48 191.89 82.63 M 191.89 82.63 C 192.61 81.9 192.32 81.11 193.63 79.12 M 191.89 82.63 C 192.44 81.5 193.01 80.47 193.63 79.12 M 193.63 79.12 C 193.6 78.24 192.55 77.6 191.87 75.63 M 193.63 79.12 C 193.03 77.95 192.4 76.93 191.87 75.63 M 191.87 75.63 C 192.76 76.77 194.81 77.35 198.88 79.1 M 191.87 75.63 C 194.12 77.16 196.83 78.09 198.88 79.1" fill="none" stroke="#000000" stroke-linejoin="round" stroke-linecap="round" stroke-miterlimit="10" pointer-events="none"/><path d="M 209.71 69.44 C 209.71 69.44 209.71 69.44 209.71 69.44 M 209.71 69.44 C 209.71 69.44 209.71 69.44 209.71 69.44 M 210.1 75.08 C 211.68 73.02 212.64 72.06 215.35 69.04 M 210.1 75.08 C 211.97 73.44 213.47 71.34 215.35 69.04 M 209.84 81.48 C 212.05 79.01 213.33 77.22 220.34 69.4 M 209.84 81.48 C 213.38 75.89 218 71.87 220.34 69.4 M 210.23 87.12 C 214.39 82.75 218.87 75.52 225.98 69.01 M 210.23 87.12 C 216.21 80.76 221.42 74.4 225.98 69.01 M 211.94 91.26 C 219.22 83.72 225.54 75.28 230.97 69.37 M 211.94 91.26 C 218.66 83.28 224.83 75.02 230.97 69.37 M 217.58 90.86 C 223.45 86.13 230.3 76.09 236.61 68.97 M 217.58 90.86 C 223.7 82.62 230.49 75.86 236.61 68.97 M 222.57 91.22 C 228.86 84.84 234.26 78.39 241.6 69.33 M 222.57 91.22 C 229.74 82.74 236.35 75.43 241.6 69.33 M 228.21 90.83 C 233.48 85.37 239.82 80.7 247.24 68.94 M 228.21 90.83 C 231.28 85.35 236.46 81.32 247.24 68.94 M 233.2 91.19 C 236.8 85.66 246.22 76.6 252.23 69.3 M 233.2 91.19 C 238.79 84.39 244.93 77.88 252.23 69.3 M 238.84 90.79 C 243.07 84.17 249.72 79.86 257.87 68.91 M 238.84 90.79 C 243.81 85.74 248.38 80.9 257.87 68.91 M 243.83 91.15 C 247.24 84.89 251.13 82.13 262.86 69.27 M 243.83 91.15 C 248.42 84.25 253.72 80.09 262.86 69.27 M 249.47 90.76 C 254.74 86.29 260.09 78.34 268.5 68.87 M 249.47 90.76 C 256.24 83.76 261.85 74.92 268.5 68.87 M 254.46 91.12 C 259.85 86.7 267.31 78.62 272.17 70.74 M 254.46 91.12 C 258.46 86.4 261.18 82.37 272.17 70.74 M 260.1 90.72 C 264.9 87.4 267.78 82.8 271.91 77.14 M 260.1 90.72 C 264.29 84.55 269.5 80.72 271.91 77.14 M 265.09 91.08 C 266.21 88.87 270.06 86.57 272.31 82.78 M 265.09 91.08 C 267.85 88.81 270.12 85.73 272.31 82.78" fill="none" stroke="#008a00" stroke-linejoin="round" stroke-linecap="round" stroke-miterlimit="10" pointer-events="none"/><path d="M 210 69.1 C 222.89 71.49 234.87 68.43 270 69.1 M 210 69.1 C 229.84 68.09 248.93 69.63 270 69.1 M 270 69.1 C 268.43 75.51 271.58 85.89 270 89.1 M 270 69.1 C 269.36 74.39 269.62 81.76 270 89.1 M 270 89.1 C 248.48 87.36 228.84 90.77 210 89.1 M 270 89.1 C 253.94 90.03 236.3 89.46 210 89.1 M 210 89.1 C 210.4 82.1 211.5 76.62 210 69.1 M 210 89.1 C 210.74 83.56 210.89 78.45 210 69.1" fill="none" stroke="#005700" stroke-linejoin="round" stroke-linecap="round" stroke-miterlimit="10" pointer-events="none"/><path d="M 279.76 69.38 C 279.76 69.38 279.76 69.38 279.76 69.38 M 279.76 69.38 C 279.76 69.38 279.76 69.38 279.76 69.38 M 280.15 75.02 C 282.82 73.3 284.65 69.67 285.4 68.99 M 280.15 75.02 C 281.54 73.69 283.25 71.94 285.4 68.99 M 279.89 81.42 C 282.84 78.24 286.04 74.49 290.39 69.35 M 279.89 81.42 C 284.61 77.56 288.15 71.53 290.39 69.35 M 280.28 87.07 C 284.26 79.75 290.79 75.77 296.03 68.95 M 280.28 87.07 C 285.32 81.72 289.77 75.03 296.03 68.95 M 281.99 91.2 C 285.61 84.7 290.12 82.24 301.02 69.31 M 281.99 91.2 C 287.72 85.68 291.91 79.15 301.02 69.31 M 287.63 90.8 C 293.78 85.26 295.46 79.52 306.66 68.92 M 287.63 90.8 C 294.32 81.62 300.77 73.73 306.66 68.92 M 292.62 91.16 C 296.56 83 305.38 78.46 311.65 69.28 M 292.62 91.16 C 298.91 83.56 305.61 75.34 311.65 69.28 M 298.26 90.77 C 302.08 85.01 306.52 82.74 317.29 68.88 M 298.26 90.77 C 305.18 82.54 312.68 74.39 317.29 68.88 M 303.25 91.13 C 308.96 83.61 315.39 77.95 322.28 69.24 M 303.25 91.13 C 310.51 84.27 317.16 74.39 322.28 69.24 M 308.89 90.74 C 314.13 83.43 319.19 77.8 327.92 68.85 M 308.89 90.74 C 314.51 85.42 319.69 79.29 327.92 68.85 M 313.88 91.1 C 317.62 86.45 323.05 79.25 332.91 69.21 M 313.88 91.1 C 320.06 83.24 325.77 76.54 332.91 69.21 M 319.52 90.7 C 327.89 81.64 335.22 72.94 338.55 68.81 M 319.52 90.7 C 324.41 85.74 329.78 80.13 338.55 68.81 M 324.51 91.06 C 330.6 85.68 332.15 82.62 342.22 70.68 M 324.51 91.06 C 331.59 83.32 338.28 74.33 342.22 70.68 M 330.15 90.67 C 334.44 87.19 337.71 82.92 341.96 77.08 M 330.15 90.67 C 333.35 86.11 337.2 82.77 341.96 77.08 M 335.14 91.03 C 338.04 88.63 339.38 85.27 342.36 82.72 M 335.14 91.03 C 336.92 88.43 339.54 86 342.36 82.72" fill="none" stroke="#008a00" stroke-linejoin="round" stroke-linecap="round" stroke-miterlimit="10" pointer-events="none"/><path d="M 280 69.1 C 291.75 69.74 302.55 66.88 340 69.1 M 280 69.1 C 303.36 67.94 326.34 68.7 340 69.1 M 340 69.1 C 341.91 74.39 339.92 76.13 340 89.1 M 340 69.1 C 340.63 73.66 339.78 80.32 340 89.1 M 340 89.1 C 324.18 88.6 304.83 89.51 280 89.1 M 340 89.1 C 320.72 88.29 301.66 88.61 280 89.1 M 280 89.1 C 279.06 83.27 280.68 76.78 280 69.1 M 280 89.1 C 279.19 84.45 279.51 80.15 280 69.1" fill="none" stroke="#005700" stroke-linejoin="round" stroke-linecap="round" stroke-miterlimit="10" pointer-events="none"/><path d="M 349.81 69.32 C 349.81 69.32 349.81 69.32 349.81 69.32 M 349.81 69.32 C 349.81 69.32 349.81 69.32 349.81 69.32 M 350.2 74.97 C 351.18 73.19 352.84 71.29 355.45 68.93 M 350.2 74.97 C 351.91 73.84 353.03 71.65 355.45 68.93 M 349.94 81.36 C 353.63 77.68 358.75 71.96 360.44 69.29 M 349.94 81.36 C 354.23 77.42 358.31 72.59 360.44 69.29 M 349.68 87.76 C 354.03 81.27 358.8 76.32 366.08 68.89 M 349.68 87.76 C 354.33 83.21 360.23 75.97 366.08 68.89 M 352.04 91.14 C 356.23 85.3 362.75 80.43 371.07 69.25 M 352.04 91.14 C 358.58 83.71 366.6 74.53 371.07 69.25 M 357.68 90.75 C 363.92 84.02 372.23 74.2 376.71 68.86 M 357.68 90.75 C 365.38 83.01 373.49 73.98 376.71 68.86 M 362.67 91.11 C 368.7 84.77 372.93 78.15 381.7 69.22 M 362.67 91.11 C 370.53 82.37 377.3 75.25 381.7 69.22 M 368.31 90.71 C 374.5 84.67 380.84 76.4 387.34 68.83 M 368.31 90.71 C 374.83 81.73 382.85 73.84 387.34 68.83 M 373.3 91.07 C 381.55 81.56 389 75.29 392.33 69.19 M 373.3 91.07 C 378.87 86.16 382.21 81.27 392.33 69.19 M 378.94 90.68 C 385.19 82.69 392.66 75.74 397.97 68.79 M 378.94 90.68 C 385.21 84.72 391 77.3 397.97 68.79 M 383.93 91.04 C 387.57 83.64 394.52 79.99 402.96 69.15 M 383.93 91.04 C 391.7 82.61 397.81 73.37 402.96 69.15 M 389.57 90.64 C 393.23 84.99 398.75 79.91 408.6 68.76 M 389.57 90.64 C 395.94 82.96 402.87 74.19 408.6 68.76 M 394.56 91 C 401.3 84.94 408.49 74.82 412.27 70.63 M 394.56 91 C 401.18 82.67 408.29 76.8 412.27 70.63 M 399.55 91.36 C 403.54 87.28 407.4 83.12 412.01 77.02 M 399.55 91.36 C 404.38 85.39 409.49 81.42 412.01 77.02 M 405.19 90.97 C 407.59 88.76 410.54 84.75 411.75 83.42 M 405.19 90.97 C 406.93 89.32 408.62 86.69 411.75 83.42" fill="none" stroke="#008a00" stroke-linejoin="round" stroke-linecap="round" stroke-miterlimit="10" pointer-events="none"/><path d="M 350 69.1 C 360.61 69.18 374.23 70.52 410 69.1 M 350 69.1 C 364.87 68.99 381.75 68.97 410 69.1 M 410 69.1 C 411.39 73.26 408.26 78.38 410 89.1 M 410 69.1 C 409.89 74.94 409.95 78.88 410 89.1 M 410 89.1 C 395.88 89.84 380.81 88.25 350 89.1 M 410 89.1 C 387.51 88.55 367.01 89.75 350 89.1 M 350 89.1 C 351.31 84.43 349.46 80.94 350 69.1 M 350 89.1 C 350.04 81.34 350.53 73.85 350 69.1" fill="none" stroke="#005700" stroke-linejoin="round" stroke-linecap="round" stroke-miterlimit="10" pointer-events="none"/><path d="M 461.58 60.49 C 461.58 60.49 461.58 60.49 461.58 60.49 M 461.58 60.49 C 461.58 60.49 461.58 60.49 461.58 60.49 M 461.32 66.89 C 462.64 64.87 463.8 63.77 467.22 60.09 M 461.32 66.89 C 463.04 64.51 464.91 62.67 467.22 60.09 M 461.71 72.53 C 466.21 68.96 468.57 66.18 472.87 59.7 M 461.71 72.53 C 464.94 70.21 466.94 66.91 472.87 59.7 M 461.45 78.93 C 464.06 73.87 469.51 67.73 477.85 60.06 M 461.45 78.93 C 465.67 74.41 470.66 69.55 477.85 60.06 M 461.85 84.57 C 466.66 79.82 472.85 69.84 482.84 60.42 M 461.85 84.57 C 466.84 77.61 473.62 71.66 482.84 60.42 M 461.59 90.97 C 469.01 85.35 471.44 78.46 488.48 60.02 M 461.59 90.97 C 466.9 85 472.2 78.11 488.48 60.02 M 462.64 95.86 C 470.66 88.76 475.78 81.74 493.47 60.38 M 462.64 95.86 C 473.35 84.5 482.83 72.43 493.47 60.38 M 464.34 99.99 C 473.16 90.22 483.92 80.2 499.11 59.99 M 464.34 99.99 C 475.42 87.39 487.17 74.11 499.11 59.99 M 469.33 100.35 C 482.32 85.97 494.43 74.45 504.1 60.35 M 469.33 100.35 C 478.68 88.71 489.44 79.01 504.1 60.35 M 474.97 99.95 C 485.34 87.57 499.59 72.32 509.74 59.96 M 474.97 99.95 C 485.35 88.46 494.55 77.23 509.74 59.96 M 479.96 100.31 C 486.35 91.68 493.87 81.64 514.73 60.32 M 479.96 100.31 C 487.52 90.66 496.21 83.39 514.73 60.32 M 484.95 100.67 C 497.52 86.37 511.5 71.24 520.37 59.92 M 484.95 100.67 C 498.66 85.53 512.31 71.2 520.37 59.92 M 490.59 100.28 C 504.35 86.92 513.41 72.08 525.36 60.28 M 490.59 100.28 C 503.93 85.24 517.77 70.55 525.36 60.28 M 495.58 100.64 C 508 86.04 521.05 72.88 530.35 60.64 M 495.58 100.64 C 506.82 87.25 517.77 74.07 530.35 60.64 M 501.22 100.25 C 510.42 88.65 518.91 81.45 535.99 60.25 M 501.22 100.25 C 511.16 87.94 522.08 77.53 535.99 60.25 M 506.21 100.61 C 518.08 88.35 524.78 75.94 540.98 60.61 M 506.21 100.61 C 517.31 86.49 529.84 72.38 540.98 60.61 M 511.85 100.21 C 521.79 87.99 532.97 77.59 546.62 60.21 M 511.85 100.21 C 521.22 87.91 531.99 75 546.62 60.21 M 516.84 100.57 C 530.27 83.37 544.25 70.48 551.61 60.57 M 516.84 100.57 C 526.87 88.91 535.06 78.61 551.61 60.57 M 522.48 100.18 C 533.37 87.56 540.72 77.83 557.25 60.18 M 522.48 100.18 C 531.6 89.29 542.12 78.64 557.25 60.18 M 527.47 100.54 C 535.08 90.24 545.78 81.73 560.93 62.05 M 527.47 100.54 C 539.69 86.65 553.31 72 560.93 62.05 M 533.11 100.14 C 540.57 91.58 550.67 81.21 561.98 66.94 M 533.11 100.14 C 538.89 92.67 544.22 85.97 561.98 66.94 M 538.1 100.5 C 541.56 95.34 547.91 89.24 561.72 73.33 M 538.1 100.5 C 543.37 93.12 548.58 87.89 561.72 73.33 M 543.08 100.86 C 547.76 95.19 554.04 88.26 562.11 78.98 M 543.08 100.86 C 549.49 93.42 553.4 88.93 562.11 78.98 M 548.73 100.47 C 553.84 93.63 557.9 88.41 561.85 85.37 M 548.73 100.47 C 550.99 97.33 553.55 93.61 561.85 85.37 M 554.37 100.07 C 557.34 98.22 558.48 94.66 561.59 91.77 M 554.37 100.07 C 556.16 97.73 557.93 96.48 561.59 91.77" fill="none" stroke="#008a00" stroke-linejoin="round" stroke-linecap="round" stroke-miterlimit="10" pointer-events="none"/><path d="M 466.15 59 M 466.15 59 C 498.7 61.25 530.32 61.13 553.85 59 M 466.15 59 C 499.55 59.36 535.41 60 553.85 59 M 553.85 59 C 559.33 59.33 558.52 59.64 560 65.15 M 553.85 59 C 560.01 60.61 560.72 61.08 560 65.15 M 560 65.15 C 558.69 71.38 559.87 76.52 560 93.85 M 560 65.15 C 560.12 71.79 560.71 79.41 560 93.85 M 560 93.85 C 560.26 96.09 557.98 99.63 553.85 100 M 560 93.85 C 561.32 99.49 559.95 100.99 553.85 100 M 553.85 100 C 525.97 98.61 501.59 101.59 466.15 100 M 553.85 100 C 528.79 99.45 502.01 99.28 466.15 100 M 466.15 100 C 461.03 99.26 460.7 99.57 460 93.85 M 466.15 100 C 462.69 99.2 459.28 95.93 460 93.85 M 460 93.85 C 460.27 85.8 461.75 75.15 460 65.15 M 460 93.85 C 459.98 82.72 459.7 72.03 460 65.15 M 460 65.15 C 458.08 61.88 462.31 60.51 466.15 59 M 460 65.15 C 461.07 58.83 463.89 57.56 466.15 59" fill="none" stroke="#005700" stroke-linejoin="round" stroke-linecap="round" stroke-miterlimit="10" pointer-events="none"/><g transform="translate(-0.5 -0.5)"><switch><foreignObject style="overflow: visible; text-align: left;" pointer-events="none" width="100%" height="100%" requiredFeatures="http://www.w3.org/TR/SVG11/feature#Extensibility"><div xmlns="http://www.w3.org/1999/xhtml" style="display: flex; align-items: unsafe center; justify-content: unsafe center; width: 98px; height: 1px; padding-top: 80px; margin-left: 461px;"><div style="box-sizing: border-box; font-size: 0; text-align: center; "><div style="display: inline-block; font-size: 12px; font-family: Helvetica; color: #000000; line-height: 1.2; pointer-events: none; white-space: normal; word-wrap: normal; ">子应用 A</div></div></div></foreignObject><text x="510" y="83" fill="#000000" font-family="Helvetica" font-size="12px" text-anchor="middle">子应用 A</text></switch></g><path d="M 420 79.2 M 420 79.2 C 423.1 79.88 429.48 80.08 440 79.2 M 420 79.2 C 426.19 78.58 433.21 78.62 440 79.2 M 440 79.2 C 443.46 78.56 448.37 80.09 453.63 79.4 M 440 79.2 C 443.65 79.77 447.13 78.59 453.63 79.4" fill="none" stroke="#000000" stroke-linejoin="round" stroke-linecap="round" stroke-miterlimit="10" pointer-events="none"/><path d="M 451.9 75.92 C 451.9 75.92 451.9 75.92 451.9 75.92 M 451.9 75.92 C 451.9 75.92 451.9 75.92 451.9 75.92 M 454.26 79.3 C 454.57 78.77 455.09 78.55 455.58 77.79 M 454.26 79.3 C 454.62 78.99 454.95 78.41 455.58 77.79" fill="none" stroke="#000000" stroke-linejoin="round" stroke-linecap="round" stroke-miterlimit="10" pointer-events="none"/><path d="M 458.88 79.48 M 458.88 79.48 C 457.31 79.64 455.21 80.54 451.83 82.88 M 458.88 79.48 C 456.51 80.91 454.99 81.62 451.83 82.88 M 451.83 82.88 C 452.3 81.64 453.36 80.91 453.63 79.4 M 451.83 82.88 C 452.29 81.7 453.16 80.38 453.63 79.4 M 453.63 79.4 C 452.99 78.89 453.05 78.12 451.94 75.88 M 453.63 79.4 C 453.02 78.31 452.83 77.43 451.94 75.88 M 451.94 75.88 C 454.94 77.87 457.12 78.21 458.88 79.48 M 451.94 75.88 C 454.37 77.29 456.61 78.48 458.88 79.48" fill="none" stroke="#000000" stroke-linejoin="round" stroke-linecap="round" stroke-miterlimit="10" pointer-events="none"/><path d="M 118.23 139.45 L 128.39 134.17 L 137.16 135.61 L 144.53 136.65 L 144.82 161.23 L 132.18 164.76 L 121.99 164.13 L 118.56 138.55" fill="#ffffff" stroke="none" pointer-events="none"/><path d="M 120 139.56 M 120 139.56 C 121.15 139.18 125.21 134.28 132 135.55 M 120 139.56 C 120.76 138.81 126.54 137.84 132 135.55 M 132 135.55 C 136.66 135.56 144.94 135.97 144 139.56 M 132 135.55 C 138.03 134.37 144.27 139.25 144 139.56 M 144 139.56 C 143.31 143.52 143.31 150.83 144 160.63 M 144 139.56 C 144.01 144.33 144.13 150.64 144 160.63 M 144 160.63 C 143.57 164.65 139.77 165.76 132 164.65 M 144 160.63 C 145 162.59 138.14 164.17 132 164.65 M 132 164.65 C 124.84 165.9 120.5 160.93 120 160.63 M 132 164.65 C 126.19 166.45 120.76 161.74 120 160.63 M 120 160.63 C 118.15 156.08 120.1 149.22 120 139.56 M 120 160.63 C 120.46 153.72 118.97 148.82 120 139.56" fill="none" stroke="#0080f0" stroke-width="2" stroke-linejoin="round" stroke-linecap="round" stroke-miterlimit="10" pointer-events="none"/><path d="M 120 139.56 M 120 139.56 C 118.23 141.67 126.43 141.89 132 143.58 M 120 139.56 C 120.56 141.49 127.07 142.02 132 143.58 M 132 143.58 C 140.39 142.61 144.18 141.89 144 139.56 M 132 143.58 C 139.84 145.81 142.35 140.61 144 139.56 M 120 146.19 M 120 146.19 C 121.15 150.23 125.21 148.93 132 150.2 M 120 146.19 C 120.76 149.86 126.54 152.49 132 150.2 M 132 150.2 C 136.66 150.21 144.94 147.02 144 146.19 M 132 150.2 C 138.03 149.02 144.27 150.3 144 146.19 M 120 153.71 M 120 153.71 C 119.05 156.23 126.74 157 132 157.72 M 120 153.71 C 118.43 155.1 126.08 156.48 132 157.72 M 132 157.72 C 138.51 158.14 144.05 155.1 144 153.71 M 132 157.72 C 138.95 159.34 143.5 158 144 153.71" fill="none" stroke="#0080f0" stroke-width="2" stroke-linejoin="round" stroke-linecap="round" stroke-miterlimit="10" pointer-events="none"/><g transform="translate(-0.5 -0.5)"><switch><foreignObject style="overflow: visible; text-align: left;" pointer-events="none" width="100%" height="100%" requiredFeatures="http://www.w3.org/TR/SVG11/feature#Extensibility"><div xmlns="http://www.w3.org/1999/xhtml" style="display: flex; align-items: unsafe center; justify-content: unsafe center; width: 1px; height: 1px; padding-top: 150px; margin-left: 70px;"><div style="box-sizing: border-box; font-size: 0; text-align: center; "><div style="display: inline-block; font-size: 12px; font-family: Helvetica; color: #000000; line-height: 1.2; pointer-events: none; white-space: nowrap; ">子应用 B</div></div></div></foreignObject><text x="70" y="154" fill="#000000" font-family="Helvetica" font-size="12px" text-anchor="middle">子应用 B</text></switch></g><path d="M 200 130.1 C 246.53 126.94 292.24 128.14 420 130.1 M 200 130.1 C 283.21 129.14 365.64 128.58 420 130.1 M 420 130.1 C 421.09 142.22 419.71 152.31 420 170.1 M 420 130.1 C 419.81 142.21 421.06 155.64 420 170.1 M 420 170.1 C 333.09 172.15 244.6 169.83 200 170.1 M 420 170.1 C 344.61 169.95 268.24 170.41 200 170.1 M 200 170.1 C 198.33 154.26 199.79 140.1 200 130.1 M 200 170.1 C 198.95 159.39 199.24 149.58 200 130.1" fill="none" stroke="#006eaf" stroke-linejoin="round" stroke-linecap="round" stroke-miterlimit="10" pointer-events="none"/><path d="M 144 150.2 M 144 150.2 C 148.8 151.54 156.62 149.13 172 150.2 M 144 150.2 C 150.63 151.09 158.75 149.65 172 150.2 M 172 150.2 C 179.93 148.34 184.62 149.13 193.63 150.12 M 172 150.2 C 178.96 149.35 185.36 149.98 193.63 150.12" fill="none" stroke="#000000" stroke-linejoin="round" stroke-linecap="round" stroke-miterlimit="10" pointer-events="none"/><path d="M 191.84 146.66 C 191.84 146.66 191.84 146.66 191.84 146.66 M 191.84 146.66 C 191.84 146.66 191.84 146.66 191.84 146.66 M 194.21 150.04 C 194.73 149.36 194.91 148.94 195.52 148.53 M 194.21 150.04 C 194.67 149.53 195.06 149.15 195.52 148.53" fill="none" stroke="#000000" stroke-linejoin="round" stroke-linecap="round" stroke-miterlimit="10" pointer-events="none"/><path d="M 198.88 150.1 M 198.88 150.1 C 196.28 150.8 194 153.17 191.89 153.63 M 198.88 150.1 C 196.16 151.44 193.73 152.57 191.89 153.63 M 191.89 153.63 C 192.66 152.38 192.83 151.05 193.63 150.12 M 191.89 153.63 C 192.22 152.8 192.68 152.13 193.63 150.12 M 193.63 150.12 C 192.74 148.53 192.1 147.37 191.87 146.63 M 193.63 150.12 C 192.87 148.71 192.19 147.59 191.87 146.63 M 191.87 146.63 C 194.38 148.31 197.94 149.5 198.88 150.1 M 191.87 146.63 C 194.2 147.78 195.71 148.92 198.88 150.1" fill="none" stroke="#000000" stroke-linejoin="round" stroke-linecap="round" stroke-miterlimit="10" pointer-events="none"/><path d="M 210.09 140 C 210.09 140 210.09 140 210.09 140 M 210.09 140 C 210.09 140 210.09 140 210.09 140 M 209.83 146.4 C 211.78 144.89 212.25 143.57 215.08 140.36 M 209.83 146.4 C 211.17 144.95 213.06 143.32 215.08 140.36 M 210.22 152.04 C 213.82 149.29 216.14 144.88 220.72 139.96 M 210.22 152.04 C 212.67 149.96 215.06 146.49 220.72 139.96 M 209.96 158.44 C 215.17 153.97 216.63 150.17 225.71 140.32 M 209.96 158.44 C 215.67 151.38 221.73 144.77 225.71 140.32 M 212.32 161.81 C 221.35 151.9 227.93 142.82 231.35 139.93 M 212.32 161.81 C 217.12 154.85 223.5 148.46 231.35 139.93 M 217.31 162.18 C 223.86 152.61 230.36 144.85 236.34 140.29 M 217.31 162.18 C 222.74 156.29 227.5 150.84 236.34 140.29 M 222.95 161.78 C 227.47 157.51 233.22 150.48 241.98 139.89 M 222.95 161.78 C 229.46 153.23 237.01 145.85 241.98 139.89 M 227.94 162.14 C 233.5 155.06 241.43 145.83 246.97 140.25 M 227.94 162.14 C 234.62 154.96 242.04 147.07 246.97 140.25 M 233.58 161.75 C 241.02 157.21 245.31 148.62 252.61 139.86 M 233.58 161.75 C 241.38 153.01 248.94 144.44 252.61 139.86 M 238.57 162.11 C 243.98 156.59 248.58 153.54 257.6 140.22 M 238.57 162.11 C 246.21 154.62 253.8 145.41 257.6 140.22 M 244.21 161.71 C 251.64 154.81 260.17 143.44 263.24 139.82 M 244.21 161.71 C 247.3 157.69 252.06 151.79 263.24 139.82 M 249.2 162.07 C 255.26 154.13 262.07 149.68 268.23 140.19 M 249.2 162.07 C 256.42 154.31 263.36 147.1 268.23 140.19 M 254.84 161.68 C 261.28 156.48 266.99 146.72 271.9 142.05 M 254.84 161.68 C 261.26 154.25 267.78 145.88 271.9 142.05 M 259.83 162.04 C 265.73 155.69 271.2 148.9 272.3 147.7 M 259.83 162.04 C 263.84 156.13 267.97 151.52 272.3 147.7 M 265.47 161.64 C 267.97 159.43 269.42 155.9 272.03 154.1 M 265.47 161.64 C 267.27 159.93 269.8 157.59 272.03 154.1" fill="none" stroke="#1ba1e2" stroke-linejoin="round" stroke-linecap="round" stroke-miterlimit="10" pointer-events="none"/><path d="M 210 140.1 C 224.43 138.32 237.13 140.3 270 140.1 M 210 140.1 C 223.92 139.14 237.68 140.5 270 140.1 M 270 140.1 C 270.34 144.39 270.75 154 270 160.1 M 270 140.1 C 269.89 147.22 269.78 153.97 270 160.1 M 270 160.1 C 249.72 159.79 231.11 159.58 210 160.1 M 270 160.1 C 252.16 161.45 236.17 160.39 210 160.1 M 210 160.1 C 210.58 154.73 208.24 153.12 210 140.1 M 210 160.1 C 209.78 152.98 209.89 146.97 210 140.1" fill="none" stroke="#006eaf" stroke-linejoin="round" stroke-linecap="round" stroke-miterlimit="10" pointer-events="none"/><path d="M 280.14 139.94 C 280.14 139.94 280.14 139.94 280.14 139.94 M 280.14 139.94 C 280.14 139.94 280.14 139.94 280.14 139.94 M 279.88 146.34 C 281.2 143.57 284.14 141.18 285.13 140.3 M 279.88 146.34 C 281.54 145.09 282.04 143.82 285.13 140.3 M 280.27 151.98 C 284.61 148.72 288.85 142.35 290.77 139.91 M 280.27 151.98 C 282.3 149.82 285.21 147.55 290.77 139.91 M 280.01 158.38 C 281.4 154.97 284.91 150.42 295.76 140.27 M 280.01 158.38 C 284.78 152.34 290.09 147.4 295.76 140.27 M 282.37 161.76 C 288.17 156.88 292.95 149.77 301.4 139.87 M 282.37 161.76 C 289.99 152.88 298.19 143.83 301.4 139.87 M 287.36 162.12 C 294.19 155.74 299.53 148.29 306.39 140.23 M 287.36 162.12 C 293.8 155.3 298.22 148.71 306.39 140.23 M 293 161.72 C 299.61 155.66 300.77 150.55 312.03 139.84 M 293 161.72 C 299.07 154.05 306.7 145.76 312.03 139.84 M 297.99 162.08 C 306.55 155.09 312.58 148.24 317.02 140.2 M 297.99 162.08 C 304.28 154.15 310.22 146.51 317.02 140.2 M 303.63 161.69 C 309.18 155.16 318.48 145.96 322.66 139.8 M 303.63 161.69 C 309.3 155.27 313.55 149.7 322.66 139.8 M 308.62 162.05 C 315.04 155.46 318.05 147.1 327.65 140.16 M 308.62 162.05 C 313.1 156.68 317.5 152.56 327.65 140.16 M 314.26 161.65 C 317.78 156.37 324.04 152.93 333.29 139.77 M 314.26 161.65 C 318.94 154.68 324.1 150.25 333.29 139.77 M 319.25 162.01 C 324.16 157.48 329.16 152.66 338.28 140.13 M 319.25 162.01 C 324.15 156.29 328.84 150.31 338.28 140.13 M 324.89 161.62 C 328.08 155.42 335.92 150.62 341.95 142 M 324.89 161.62 C 330.86 155.24 337.83 147.97 341.95 142 M 329.88 161.98 C 335.25 155.22 341.13 152.58 342.35 147.64 M 329.88 161.98 C 332.86 157.77 335.53 155.59 342.35 147.64 M 334.87 162.34 C 337.36 159.73 340.85 156.98 342.08 154.04 M 334.87 162.34 C 336.97 160.13 338.99 158.2 342.08 154.04" fill="none" stroke="#1ba1e2" stroke-linejoin="round" stroke-linecap="round" stroke-miterlimit="10" pointer-events="none"/><path d="M 280 140.1 C 293.28 141.76 304.81 139.94 340 140.1 M 280 140.1 C 297.44 140.19 317.09 140.77 340 140.1 M 340 140.1 C 340.22 147.26 339.49 152.25 340 160.1 M 340 140.1 C 340.76 146.5 339.54 152.53 340 160.1 M 340 160.1 C 325.42 161.02 307.1 162.32 280 160.1 M 340 160.1 C 320.94 159.71 301.53 161.54 280 160.1 M 280 160.1 C 278.84 151.9 281.02 145.27 280 140.1 M 280 160.1 C 280.23 153.87 280.51 148.67 280 140.1" fill="none" stroke="#006eaf" stroke-linejoin="round" stroke-linecap="round" stroke-miterlimit="10" pointer-events="none"/><path d="M 350.19 139.88 C 350.19 139.88 350.19 139.88 350.19 139.88 M 350.19 139.88 C 350.19 139.88 350.19 139.88 350.19 139.88 M 349.93 146.28 C 351.28 145.06 352.45 142.81 355.18 140.24 M 349.93 146.28 C 351.11 145.23 351.82 143.52 355.18 140.24 M 350.32 151.92 C 353.29 150.37 354.16 147.65 360.82 139.85 M 350.32 151.92 C 351.68 149.68 355.12 147 360.82 139.85 M 350.06 158.32 C 351.63 155.97 357.19 150.67 365.81 140.21 M 350.06 158.32 C 353.89 153.29 358.45 148.02 365.81 140.21 M 352.42 161.7 C 358.36 153.1 365.14 147.59 371.45 139.81 M 352.42 161.7 C 359.05 155.28 363.28 147.96 371.45 139.81 M 357.41 162.06 C 360.53 154.88 368.69 151.73 376.44 140.17 M 357.41 162.06 C 364.42 154.3 370.51 148.59 376.44 140.17 M 363.05 161.67 C 367.31 157.44 371.89 150.24 382.08 139.78 M 363.05 161.67 C 370.25 152.87 375.95 145.67 382.08 139.78 M 368.04 162.03 C 375.15 154.74 379.28 150.28 387.07 140.14 M 368.04 162.03 C 374.37 155.34 380.82 147.95 387.07 140.14 M 373.68 161.63 C 381.34 153.11 387.65 143.3 392.71 139.74 M 373.68 161.63 C 379.46 154.78 386.21 145.83 392.71 139.74 M 378.67 161.99 C 386.11 154.72 391.53 145.04 397.7 140.1 M 378.67 161.99 C 383.8 156.36 388.81 150.95 397.7 140.1 M 383.66 162.35 C 387.07 158.7 390.86 150.8 402.68 140.47 M 383.66 162.35 C 390.36 154.43 395.93 147.45 402.68 140.47 M 389.3 161.96 C 397.31 156.46 400.29 146.87 408.33 140.07 M 389.3 161.96 C 396.12 153.51 402.37 146.37 408.33 140.07 M 394.29 162.32 C 398.35 158.94 400.47 154.95 412 141.94 M 394.29 162.32 C 400.03 155.07 405.65 148.65 412 141.94 M 399.93 161.92 C 404.78 155.13 410.74 152.96 411.74 148.34 M 399.93 161.92 C 404.13 156.84 407.66 152.55 411.74 148.34 M 404.92 162.28 C 405.54 161.3 407.29 159.15 412.13 153.98 M 404.92 162.28 C 407.15 159.89 408.41 158.61 412.13 153.98" fill="none" stroke="#1ba1e2" stroke-linejoin="round" stroke-linecap="round" stroke-miterlimit="10" pointer-events="none"/><path d="M 350 140.1 C 362.14 141.21 376.49 139.58 410 140.1 M 350 140.1 C 372.96 140.04 394.5 139.84 410 140.1 M 410 140.1 C 409.7 146.14 411.83 154.49 410 160.1 M 410 140.1 C 410.02 145.77 409.7 151.09 410 160.1 M 410 160.1 C 397.12 162.26 383.08 161.05 350 160.1 M 410 160.1 C 387.73 158.77 364.88 159.48 350 160.1 M 350 160.1 C 351.49 153.06 350.21 149.43 350 140.1 M 350 160.1 C 350.68 154.76 349.12 150.37 350 140.1" fill="none" stroke="#006eaf" stroke-linejoin="round" stroke-linecap="round" stroke-miterlimit="10" pointer-events="none"/><path d="M 461.31 131.8 C 461.31 131.8 461.31 131.8 461.31 131.8 M 461.31 131.8 C 461.31 131.8 461.31 131.8 461.31 131.8 M 461.7 137.44 C 462.62 136.26 464.32 134.59 467.61 130.65 M 461.7 137.44 C 463.08 135.38 464.94 134.07 467.61 130.65 M 461.44 143.84 C 466.28 137.76 469.01 132.93 472.59 131.01 M 461.44 143.84 C 463.05 140.71 465.63 139.38 472.59 131.01 M 461.84 149.49 C 465.77 143.99 468.83 139.81 477.58 131.37 M 461.84 149.49 C 467.62 141.73 474.5 134.9 477.58 131.37 M 461.57 155.88 C 468.69 149.13 474.63 143.19 483.22 130.98 M 461.57 155.88 C 465.7 150.16 472.46 143.73 483.22 130.98 M 461.31 162.28 C 472.14 151.02 478 141.25 488.21 131.34 M 461.31 162.28 C 470.9 151.28 480.93 139.02 488.21 131.34 M 462.36 167.17 C 472.55 154.19 481.58 145.95 493.85 130.94 M 462.36 167.17 C 475.38 152.78 486.18 137.6 493.85 130.94 M 464.07 171.3 C 469.35 161.23 476.98 154.54 498.84 131.3 M 464.07 171.3 C 473.87 161.43 482.65 150.1 498.84 131.3 M 469.71 170.91 C 481.92 156.47 496.36 142.04 504.48 130.91 M 469.71 170.91 C 476.81 162.88 484.49 153.34 504.48 130.91 M 474.7 171.27 C 487.93 156.08 500.8 141.89 509.47 131.27 M 474.7 171.27 C 487.86 156.05 499.19 142.78 509.47 131.27 M 479.69 171.63 C 485.65 161.45 497.3 151.97 515.11 130.87 M 479.69 171.63 C 492.62 156.74 506.49 141.62 515.11 130.87 M 485.33 171.23 C 494.84 158.98 501.01 152.36 520.1 131.23 M 485.33 171.23 C 496.94 158.3 509.11 145.19 520.1 131.23 M 490.32 171.59 C 500.44 161.25 507.54 155.09 525.09 131.59 M 490.32 171.59 C 497.3 163.3 504.09 155.5 525.09 131.59 M 495.96 171.2 C 504.61 162.71 512.46 151.69 530.73 131.2 M 495.96 171.2 C 506.16 160.47 516.1 148.8 530.73 131.2 M 500.95 171.56 C 508.85 160.93 518.22 151.94 535.72 131.56 M 500.95 171.56 C 508.67 163.44 516.05 154.61 535.72 131.56 M 506.59 171.16 C 513.81 160.56 522.81 150.2 541.36 131.17 M 506.59 171.16 C 515.97 159.8 526.32 148.9 541.36 131.17 M 511.58 171.53 C 521.52 156.94 535.03 143.26 546.35 131.53 M 511.58 171.53 C 522.04 159.26 533.37 145.87 546.35 131.53 M 517.22 171.13 C 530.46 157.73 545.7 142.26 551.99 131.13 M 517.22 171.13 C 525.25 161.75 532.54 153.91 551.99 131.13 M 522.21 171.49 C 532.19 163.01 540.35 150.82 557.63 130.74 M 522.21 171.49 C 529.04 163.37 536.42 155.08 557.63 130.74 M 527.19 171.85 C 536.41 163.07 543.15 154.36 560.65 133.36 M 527.19 171.85 C 533.89 163.76 542.3 155.38 560.65 133.36 M 532.84 171.46 C 542.07 161.31 550.49 151.83 561.7 138.25 M 532.84 171.46 C 540.06 163.53 547.8 154.38 561.7 138.25 M 537.82 171.82 C 546.85 161.91 557.85 149.07 562.1 143.89 M 537.82 171.82 C 546.92 162.86 554.81 152.37 562.1 143.89 M 543.47 171.42 C 551.55 164.69 557.05 156.17 561.84 150.29 M 543.47 171.42 C 549.77 164.83 555.46 158.57 561.84 150.29 M 548.45 171.78 C 551.66 165.31 560 158.87 561.58 156.69 M 548.45 171.78 C 553.77 166.6 556.8 162.44 561.58 156.69 M 554.1 171.39 C 556.7 168.16 557.99 165.41 561.97 162.33 M 554.1 171.39 C 555.44 169.74 557.55 167.62 561.97 162.33" fill="none" stroke="#1ba1e2" stroke-linejoin="round" stroke-linecap="round" stroke-miterlimit="10" pointer-events="none"/><path d="M 466.15 130 M 466.15 130 C 487.72 130.11 513.72 130.99 553.85 130 M 466.15 130 C 489.16 130.87 513.27 129.91 553.85 130 M 553.85 130 C 556.83 131.81 561.34 130.97 560 136.15 M 553.85 130 C 556.36 132.01 559.86 133.77 560 136.15 M 560 136.15 C 560.08 143.86 560.38 150.87 560 164.85 M 560 136.15 C 560.88 145.43 560.68 153.81 560 164.85 M 560 164.85 C 559.48 167.07 556.39 171.73 553.85 171 M 560 164.85 C 559.63 168.52 557.54 172.78 553.85 171 M 553.85 171 C 527.96 169.88 504.33 170.68 466.15 171 M 553.85 171 C 522.96 170.51 492.75 170.13 466.15 171 M 466.15 171 C 463.58 170.03 459.84 168.32 460 164.85 M 466.15 171 C 463.76 173.22 459.21 171.07 460 164.85 M 460 164.85 C 460.33 158.63 458.41 152.51 460 136.15 M 460 164.85 C 459.99 154.31 459.54 145.43 460 136.15 M 460 136.15 C 461.44 131.78 463.36 129.02 466.15 130 M 460 136.15 C 459.47 131.37 460.31 131.53 466.15 130" fill="none" stroke="#006eaf" stroke-linejoin="round" stroke-linecap="round" stroke-miterlimit="10" pointer-events="none"/><g transform="translate(-0.5 -0.5)"><switch><foreignObject style="overflow: visible; text-align: left;" pointer-events="none" width="100%" height="100%" requiredFeatures="http://www.w3.org/TR/SVG11/feature#Extensibility"><div xmlns="http://www.w3.org/1999/xhtml" style="display: flex; align-items: unsafe center; justify-content: unsafe center; width: 98px; height: 1px; padding-top: 151px; margin-left: 461px;"><div style="box-sizing: border-box; font-size: 0; text-align: center; "><div style="display: inline-block; font-size: 12px; font-family: Helvetica; color: #000000; line-height: 1.2; pointer-events: none; white-space: normal; word-wrap: normal; ">子应用 B</div></div></div></foreignObject><text x="510" y="154" fill="#000000" font-family="Helvetica" font-size="12px" text-anchor="middle">子应用 B</text></switch></g><path d="M 420 150.2 M 420 150.2 C 425.4 148.75 428.93 151.53 440 150.2 M 420 150.2 C 427.18 150.65 433.71 150.89 440 150.2 M 440 150.2 C 442.7 149.42 445.97 150.94 453.63 150.4 M 440 150.2 C 443.79 149.68 446.79 150.38 453.63 150.4" fill="none" stroke="#000000" stroke-linejoin="round" stroke-linecap="round" stroke-miterlimit="10" pointer-events="none"/><path d="M 451.63 147.24 C 451.63 147.24 451.63 147.24 451.63 147.24 M 451.63 147.24 C 451.63 147.24 451.63 147.24 451.63 147.24 M 453.99 150.62 C 454.22 150.12 454.53 149.97 455.3 149.11 M 453.99 150.62 C 454.38 150.16 454.66 149.89 455.3 149.11" fill="none" stroke="#000000" stroke-linejoin="round" stroke-linecap="round" stroke-miterlimit="10" pointer-events="none"/><path d="M 458.88 150.48 M 458.88 150.48 C 456.36 151.59 453.84 153.5 451.83 153.88 M 458.88 150.48 C 457.28 151.1 455.24 152.15 451.83 153.88 M 451.83 153.88 C 452.21 152.33 452.85 151.39 453.63 150.4 M 451.83 153.88 C 452.46 152.54 453.24 151.37 453.63 150.4 M 453.63 150.4 C 452.93 149.52 452.58 148 451.94 146.88 M 453.63 150.4 C 453.02 149.2 452.37 148.1 451.94 146.88 M 451.94 146.88 C 453.18 148.27 455.43 148.9 458.88 150.48 M 451.94 146.88 C 454.52 148.22 456.48 149.23 458.88 150.48" fill="none" stroke="#000000" stroke-linejoin="round" stroke-linecap="round" stroke-miterlimit="10" pointer-events="none"/><path d="M 118.23 208.33 L 125.36 207.6 L 136 207.38 L 141.75 208.72 L 141.45 233.83 L 132.73 236.43 L 119.38 233.76 L 121.05 209.48" fill="#ffffff" stroke="none" pointer-events="none"/><path d="M 120 209.56 M 120 209.56 C 121.27 209.26 126.74 203.9 132 205.55 M 120 209.56 C 119.45 209.02 125.62 206.06 132 205.55 M 132 205.55 C 139.26 206.73 144.95 209.14 144 209.56 M 132 205.55 C 137.3 205.86 143.69 205.22 144 209.56 M 144 209.56 C 145.47 216.76 144.13 220.7 144 230.63 M 144 209.56 C 143.14 216.61 143.25 221 144 230.63 M 144 230.63 C 142.88 232.34 136.94 232.73 132 234.65 M 144 230.63 C 142.49 235.03 138.63 232.75 132 234.65 M 132 234.65 C 123.93 236.48 121.33 234.25 120 230.63 M 132 234.65 C 125.76 235.07 118.89 232.76 120 230.63 M 120 230.63 C 120.88 226.76 118.6 221.45 120 209.56 M 120 230.63 C 120.11 223.18 119.96 216.31 120 209.56" fill="none" stroke="#0080f0" stroke-width="2" stroke-linejoin="round" stroke-linecap="round" stroke-miterlimit="10" pointer-events="none"/><path d="M 120 209.56 M 120 209.56 C 118.23 210.55 123.4 215.32 132 213.58 M 120 209.56 C 119.23 213.52 123.87 214.41 132 213.58 M 132 213.58 C 137.03 215.22 144.73 213.56 144 209.56 M 132 213.58 C 136.83 215.38 145.21 211.69 144 209.56 M 120 216.19 M 120 216.19 C 121.27 220.31 126.74 218.55 132 220.2 M 120 216.19 C 119.45 220.07 125.62 220.71 132 220.2 M 132 220.2 C 139.26 221.38 144.95 220.19 144 216.19 M 132 220.2 C 137.3 220.51 143.69 216.27 144 216.19 M 120 223.71 M 120 223.71 C 119.24 226 126.89 229.18 132 227.72 M 120 223.71 C 121.93 226.07 125.5 227.58 132 227.72 M 132 227.72 C 139.5 225.89 142.09 227.64 144 223.71 M 132 227.72 C 136.69 225.55 142.71 225.34 144 223.71" fill="none" stroke="#0080f0" stroke-width="2" stroke-linejoin="round" stroke-linecap="round" stroke-miterlimit="10" pointer-events="none"/><g transform="translate(-0.5 -0.5)"><switch><foreignObject style="overflow: visible; text-align: left;" pointer-events="none" width="100%" height="100%" requiredFeatures="http://www.w3.org/TR/SVG11/feature#Extensibility"><div xmlns="http://www.w3.org/1999/xhtml" style="display: flex; align-items: unsafe center; justify-content: unsafe center; width: 1px; height: 1px; padding-top: 220px; margin-left: 70px;"><div style="box-sizing: border-box; font-size: 0; text-align: center; "><div style="display: inline-block; font-size: 12px; font-family: Helvetica; color: #000000; line-height: 1.2; pointer-events: none; white-space: nowrap; ">子应用 C</div></div></div></foreignObject><text x="70" y="224" fill="#000000" font-family="Helvetica" font-size="12px" text-anchor="middle">子应用 C</text></switch></g><path d="M 200 200.1 C 246.07 202.29 293.84 202.09 420 200.1 M 200 200.1 C 262.28 199.46 323.91 199.75 420 200.1 M 420 200.1 C 421.36 210.72 419.52 219.11 420 240.1 M 420 200.1 C 420.95 213.15 420.91 225.94 420 240.1 M 420 240.1 C 340.47 241.83 258.3 239.47 200 240.1 M 420 240.1 C 364.38 241.17 308.67 240.24 200 240.1 M 200 240.1 C 199.34 227.5 201.77 219.11 200 200.1 M 200 240.1 C 199.61 226.83 201.22 215.98 200 200.1" fill="none" stroke="#006eaf" stroke-linejoin="round" stroke-linecap="round" stroke-miterlimit="10" pointer-events="none"/><path d="M 144 220.2 M 144 220.2 C 148.24 218.7 157.69 218.85 172 220.2 M 144 220.2 C 150.47 220.41 158.52 219.54 172 220.2 M 172 220.2 C 181.52 221.86 187.17 219.97 193.63 220.12 M 172 220.2 C 179.99 219.39 187.89 220.41 193.63 220.12" fill="none" stroke="#000000" stroke-linejoin="round" stroke-linecap="round" stroke-miterlimit="10" pointer-events="none"/><path d="M 191.73 216.79 C 191.73 216.79 191.73 216.79 191.73 216.79 M 191.73 216.79 C 191.73 216.79 191.73 216.79 191.73 216.79 M 194.09 220.17 C 194.7 219.73 194.93 218.95 195.41 218.66 M 194.09 220.17 C 194.57 219.51 195.03 219.04 195.41 218.66" fill="none" stroke="#000000" stroke-linejoin="round" stroke-linecap="round" stroke-miterlimit="10" pointer-events="none"/><path d="M 198.88 220.1 M 198.88 220.1 C 196.45 220.6 194.77 222.61 191.89 223.63 M 198.88 220.1 C 196.35 221.14 194.23 222.57 191.89 223.63 M 191.89 223.63 C 192.31 221.96 193.39 221.17 193.63 220.12 M 191.89 223.63 C 192.18 222.62 192.85 221.76 193.63 220.12 M 193.63 220.12 C 193.24 218.49 192.36 217.51 191.87 216.63 M 193.63 220.12 C 193.09 219.47 192.99 218.54 191.87 216.63 M 191.87 216.63 C 194.46 217.94 196.28 218.39 198.88 220.1 M 191.87 216.63 C 194.18 218.07 196.77 218.87 198.88 220.1" fill="none" stroke="#000000" stroke-linejoin="round" stroke-linecap="round" stroke-miterlimit="10" pointer-events="none"/><path d="M 209.98 210.13 C 209.98 210.13 209.98 210.13 209.98 210.13 M 209.98 210.13 C 209.98 210.13 209.98 210.13 209.98 210.13 M 209.72 216.52 C 212.01 214.19 213.16 212.89 215.62 209.73 M 209.72 216.52 C 211.92 214.56 213.48 212.06 215.62 209.73 M 210.11 222.17 C 212.29 220.8 215.76 217.69 220.61 210.09 M 210.11 222.17 C 212.63 217.75 216.88 214.13 220.61 210.09 M 209.85 228.56 C 215.61 220.8 221.79 213.29 225.59 210.45 M 209.85 228.56 C 215.41 221.49 221.11 216.22 225.59 210.45 M 212.21 231.94 C 219.37 225.58 223.79 218.96 231.24 210.06 M 212.21 231.94 C 216.42 227.07 220.81 222.68 231.24 210.06 M 217.2 232.3 C 226.16 222.42 233.2 216.17 236.22 210.42 M 217.2 232.3 C 223.29 225.8 227.93 219.66 236.22 210.42 M 222.84 231.91 C 226.52 225.84 233.32 219.82 241.87 210.02 M 222.84 231.91 C 229.49 225.72 233.73 219.62 241.87 210.02 M 227.83 232.27 C 235.11 222.07 240.78 214.57 246.85 210.38 M 227.83 232.27 C 233.72 225.27 239.5 217.1 246.85 210.38 M 233.47 231.87 C 237.65 227.29 243.72 217.96 252.5 209.99 M 233.47 231.87 C 240.05 225.44 243.95 219.19 252.5 209.99 M 238.46 232.23 C 246.97 223.54 250.82 214.61 257.48 210.35 M 238.46 232.23 C 244.05 226.75 248.4 220.49 257.48 210.35 M 244.1 231.84 C 249.8 222.61 256.11 218.38 263.13 209.95 M 244.1 231.84 C 247.04 227.47 252.72 222.17 263.13 209.95 M 249.09 232.2 C 252.79 226.28 258.53 220.09 268.11 210.31 M 249.09 232.2 C 254.01 226.54 258.47 221.29 268.11 210.31 M 254.73 231.81 C 259.44 226.64 267.01 220.51 271.79 212.18 M 254.73 231.81 C 259.6 228.03 262.31 223.01 271.79 212.18 M 259.72 232.17 C 263.97 228.91 263.57 225.6 272.18 217.83 M 259.72 232.17 C 264.71 226.78 267.42 221.46 272.18 217.83 M 265.36 231.77 C 266.45 229.25 269.2 228.01 271.92 224.22 M 265.36 231.77 C 267.56 229.9 269.58 227.77 271.92 224.22" fill="none" stroke="#a20025" stroke-linejoin="round" stroke-linecap="round" stroke-miterlimit="10" pointer-events="none"/><path d="M 210 210.1 C 223.87 212.08 234.92 212.43 270 210.1 M 210 210.1 C 230.43 210.39 250.83 210.74 270 210.1 M 270 210.1 C 270.51 214.4 270.46 219.83 270 230.1 M 270 210.1 C 269.11 217.99 269.71 223.91 270 230.1 M 270 230.1 C 252.11 229.81 234.68 229.57 210 230.1 M 270 230.1 C 245.36 228.98 221.58 230.32 210 230.1 M 210 230.1 C 211.04 222 209.68 216.2 210 210.1 M 210 230.1 C 209.81 221.39 209.25 215.32 210 210.1" fill="none" stroke="#6f0000" stroke-linejoin="round" stroke-linecap="round" stroke-miterlimit="10" pointer-events="none"/><path d="M 280.03 210.07 C 280.03 210.07 280.03 210.07 280.03 210.07 M 280.03 210.07 C 280.03 210.07 280.03 210.07 280.03 210.07 M 279.77 216.47 C 281.17 214.73 283.06 212.51 285.01 210.43 M 279.77 216.47 C 281.25 214.93 282.84 213.06 285.01 210.43 M 280.16 222.11 C 283.08 220.24 285.26 215.16 290.66 210.03 M 280.16 222.11 C 283.85 217.61 287.04 215.18 290.66 210.03 M 279.9 228.51 C 285.84 221.8 290.07 213.54 295.64 210.39 M 279.9 228.51 C 284.52 222.45 289.47 216.84 295.64 210.39 M 282.26 231.89 C 290 222.18 296.42 217.16 301.29 210 M 282.26 231.89 C 289.29 225.1 293.5 218.05 301.29 210 M 287.25 232.25 C 292.05 225.55 297.93 219.61 306.27 210.36 M 287.25 232.25 C 293.91 224.81 298.21 217.53 306.27 210.36 M 292.89 231.85 C 298.66 228 300.88 219.89 311.92 209.97 M 292.89 231.85 C 298.67 224.54 304.98 219.52 311.92 209.97 M 297.88 232.21 C 303.72 226.1 311.49 216.99 316.9 210.33 M 297.88 232.21 C 303.37 224.46 309.67 218.54 316.9 210.33 M 303.52 231.82 C 310.25 225.62 317.32 215.68 322.55 209.93 M 303.52 231.82 C 309.78 222.94 318.17 215.31 322.55 209.93 M 308.51 232.18 C 314.23 227.18 316.68 221.31 327.53 210.29 M 308.51 232.18 C 314.75 226.44 319.71 220.88 327.53 210.29 M 314.15 231.78 C 319.74 224.18 327.59 215.5 333.18 209.9 M 314.15 231.78 C 318.68 226.83 324.76 221 333.18 209.9 M 319.14 232.14 C 325.94 225.64 333.67 214.69 338.16 210.26 M 319.14 232.14 C 325.55 223.76 333.56 215.36 338.16 210.26 M 324.78 231.75 C 330.24 225.57 331.95 220.41 341.84 212.13 M 324.78 231.75 C 329.21 227.01 332.35 223.09 341.84 212.13 M 329.77 232.11 C 333.48 228.45 333.49 225.48 342.23 217.77 M 329.77 232.11 C 331.82 228.43 334.99 225.52 342.23 217.77 M 335.41 231.71 C 338.11 229.16 338.59 226.96 341.97 224.17 M 335.41 231.71 C 336.73 229.67 339.06 228.14 341.97 224.17" fill="none" stroke="#a20025" stroke-linejoin="round" stroke-linecap="round" stroke-miterlimit="10" pointer-events="none"/><path d="M 280 210.1 C 292.73 210.32 306.6 210.87 340 210.1 M 280 210.1 C 291.95 210.24 304.24 209.81 340 210.1 M 340 210.1 C 340.39 217.28 339.2 222.08 340 230.1 M 340 210.1 C 340.38 217.27 339.87 222.48 340 230.1 M 340 230.1 C 323.81 231.05 310.66 232.31 280 230.1 M 340 230.1 C 326.14 229.24 310.93 229.46 280 230.1 M 280 230.1 C 279.69 223.17 278.86 220.36 280 210.1 M 280 230.1 C 280.26 222.28 279.87 217.01 280 210.1" fill="none" stroke="#6f0000" stroke-linejoin="round" stroke-linecap="round" stroke-miterlimit="10" pointer-events="none"/><path d="M 350.08 210.01 C 350.08 210.01 350.08 210.01 350.08 210.01 M 350.08 210.01 C 350.08 210.01 350.08 210.01 350.08 210.01 M 349.82 216.41 C 351.26 214.62 351.38 214.13 355.06 210.37 M 349.82 216.41 C 350.82 215.07 352.62 213.56 355.06 210.37 M 350.21 222.05 C 354.1 216.26 358.21 212.43 360.71 209.98 M 350.21 222.05 C 353.24 219.07 356.95 214.64 360.71 209.98 M 349.95 228.45 C 356.07 223.11 362.35 214.1 365.69 210.34 M 349.95 228.45 C 355.63 223.4 359.82 217.47 365.69 210.34 M 352.31 231.83 C 356.83 226.78 361.44 223.73 371.34 209.94 M 352.31 231.83 C 356.35 227.5 360.58 222.18 371.34 209.94 M 357.3 232.19 C 362.38 228.31 367.09 222.66 376.32 210.3 M 357.3 232.19 C 364.53 223.81 370.49 217.4 376.32 210.3 M 362.94 231.79 C 366.8 225.77 372.43 219.58 381.97 209.91 M 362.94 231.79 C 368.28 225.36 374.67 219.43 381.97 209.91 M 367.93 232.15 C 372.76 225.74 378.63 219.02 386.95 210.27 M 367.93 232.15 C 373.47 226.03 380.28 218.36 386.95 210.27 M 373.57 231.76 C 382.4 223.57 386.49 217.03 392.6 209.87 M 373.57 231.76 C 377.7 226.83 382.79 222.19 392.6 209.87 M 378.56 232.12 C 384.85 226.43 389.72 219.25 397.58 210.23 M 378.56 232.12 C 385.45 226.12 391.02 219.27 397.58 210.23 M 384.2 231.73 C 389.69 221.75 399.06 216.62 403.23 209.84 M 384.2 231.73 C 390.32 223.82 396.8 217.46 403.23 209.84 M 389.19 232.09 C 394.85 224.98 400.75 221.66 408.21 210.2 M 389.19 232.09 C 393.71 225.73 399.49 220.56 408.21 210.2 M 394.83 231.69 C 400.45 224.58 407.71 216.46 411.89 212.07 M 394.83 231.69 C 402.22 224.41 407.22 215.67 411.89 212.07 M 399.82 232.05 C 405.49 225.11 408.4 219.62 412.28 217.71 M 399.82 232.05 C 403.33 227.21 407.55 223.86 412.28 217.71 M 405.46 231.66 C 407.78 228.94 409.98 227.78 412.02 224.11 M 405.46 231.66 C 406.89 230.32 408.53 228.37 412.02 224.11" fill="none" stroke="#a20025" stroke-linejoin="round" stroke-linecap="round" stroke-miterlimit="10" pointer-events="none"/><path d="M 350 210.1 C 361.58 209.76 374.28 210.51 410 210.1 M 350 210.1 C 367.46 211.29 383.65 210.08 410 210.1 M 410 210.1 C 409.87 216.15 411.54 220.32 410 230.1 M 410 210.1 C 409.64 216.54 410.03 223.04 410 230.1 M 410 230.1 C 399.51 232.29 386.65 231.05 350 230.1 M 410 230.1 C 392.93 229.5 376.29 230.61 350 230.1 M 350 230.1 C 348.34 224.33 352.04 220.52 350 210.1 M 350 230.1 C 349.11 225.17 350.88 218.71 350 210.1" fill="none" stroke="#6f0000" stroke-linejoin="round" stroke-linecap="round" stroke-miterlimit="10" pointer-events="none"/><path d="M 461.85 201.18 C 461.85 201.18 461.85 201.18 461.85 201.18 M 461.85 201.18 C 461.85 201.18 461.85 201.18 461.85 201.18 M 461.59 207.57 C 463.38 204.43 465.61 202.51 467.5 200.78 M 461.59 207.57 C 463.63 205.76 464.96 203.93 467.5 200.78 M 461.33 213.97 C 466.42 208.25 468.18 203.8 472.48 201.14 M 461.33 213.97 C 465.7 209.8 468.43 205.7 472.48 201.14 M 461.72 219.61 C 467.97 211.48 473.84 207.05 478.13 200.75 M 461.72 219.61 C 465.34 215.95 469.32 210.58 478.13 200.75 M 461.46 226.01 C 468.35 216.64 473.28 210.24 483.11 201.11 M 461.46 226.01 C 466.83 220.27 471.27 215.69 483.11 201.11 M 461.86 231.65 C 467.99 223.52 478.33 215.17 488.1 201.47 M 461.86 231.65 C 467.47 225.57 473.28 219.53 488.1 201.47 M 462.25 237.3 C 469.98 227.36 479.28 218.08 493.74 201.07 M 462.25 237.3 C 470.83 227.21 481.47 217.03 493.74 201.07 M 463.96 241.43 C 476.81 225.08 488.21 211.18 498.73 201.43 M 463.96 241.43 C 473.72 231.55 482.21 219.48 498.73 201.43 M 469.6 241.04 C 478.66 231.61 489.73 217.04 504.37 201.04 M 469.6 241.04 C 481.94 226.57 493.32 214.49 504.37 201.04 M 474.59 241.4 C 485.32 225.69 498.36 213.43 509.36 201.4 M 474.59 241.4 C 485.96 228.04 499.3 211.92 509.36 201.4 M 480.23 241 C 490.11 232.78 498.95 220.15 515 201 M 480.23 241 C 491.49 227.84 500.81 215.42 515 201 M 485.22 241.36 C 492.43 230.15 500.2 221.42 519.99 201.36 M 485.22 241.36 C 495.71 229.06 505.83 218.12 519.99 201.36 M 490.86 240.97 C 497.32 231.29 506.04 224.58 525.63 200.97 M 490.86 240.97 C 502.02 228.47 512.42 216.91 525.63 200.97 M 495.85 241.33 C 509.3 227.43 522.74 211.84 530.62 201.33 M 495.85 241.33 C 508.81 226.9 520.42 214.52 530.62 201.33 M 500.84 241.69 C 510.5 233.27 517.07 224.08 536.26 200.93 M 500.84 241.69 C 514.72 225.65 527.96 209.44 536.26 200.93 M 506.48 241.29 C 521.24 226.22 531.17 211.2 541.25 201.29 M 506.48 241.29 C 521.26 225.04 534.76 209.63 541.25 201.29 M 511.47 241.65 C 523.45 227.42 534.53 217.71 546.24 201.65 M 511.47 241.65 C 524.76 227.97 536.6 212.95 546.24 201.65 M 517.11 241.26 C 530.76 223.65 542.67 208.57 551.88 201.26 M 517.11 241.26 C 523.71 232.9 531.1 224.77 551.88 201.26 M 522.1 241.62 C 533.4 227.45 544.85 214.46 557.52 200.86 M 522.1 241.62 C 536.53 225.59 549.83 209.75 557.52 200.86 M 527.74 241.22 C 538.62 226.77 550.83 213.95 560.54 203.49 M 527.74 241.22 C 534.08 232.85 542.26 225.54 560.54 203.49 M 532.73 241.58 C 542.51 229.61 552.35 215.83 562.25 207.62 M 532.73 241.58 C 543.59 227.76 556.56 214.91 562.25 207.62 M 538.37 241.19 C 543.97 232.76 553.11 226.07 561.99 214.02 M 538.37 241.19 C 545 233.87 550.53 228.47 561.99 214.02 M 543.36 241.55 C 551.16 232.24 557.04 224.08 561.73 220.42 M 543.36 241.55 C 547.61 235.85 551.33 231.38 561.73 220.42 M 548.34 241.91 C 553.4 235.57 557.05 232.51 561.46 226.82 M 548.34 241.91 C 552.26 236.98 555.19 233.53 561.46 226.82 M 553.99 241.52 C 556.6 238.58 556.65 237.63 561.86 232.46 M 553.99 241.52 C 556.73 237.86 560 235.33 561.86 232.46" fill="none" stroke="#a20025" stroke-linejoin="round" stroke-linecap="round" stroke-miterlimit="10" pointer-events="none"/><path d="M 466.15 200 M 466.15 200 C 488.99 201.2 506.24 198.79 553.85 200 M 466.15 200 C 486.93 198.98 508.7 199.35 553.85 200 M 553.85 200 C 559.66 199.21 558.82 200.57 560 206.15 M 553.85 200 C 557.52 198.34 561.76 202.11 560 206.15 M 560 206.15 C 558.44 213.17 558.15 225.02 560 234.85 M 560 206.15 C 560.35 216.18 560.82 226.6 560 234.85 M 560 234.85 C 558.04 237.53 558.18 239.47 553.85 241 M 560 234.85 C 561.83 236.94 556.9 239.73 553.85 241 M 553.85 241 C 523.5 242.44 488.15 240.49 466.15 241 M 553.85 241 C 524.63 242.4 493.53 241.94 466.15 241 M 466.15 241 C 463.39 240.04 458.55 237.16 460 234.85 M 466.15 241 C 463.68 242.54 461.85 239.56 460 234.85 M 460 234.85 C 461.78 225.16 459.47 216.93 460 206.15 M 460 234.85 C 460.98 226.41 460.95 216.79 460 206.15 M 460 206.15 C 458.96 200.76 460.35 199.98 466.15 200 M 460 206.15 C 459.05 204.16 461.01 198.11 466.15 200" fill="none" stroke="#6f0000" stroke-linejoin="round" stroke-linecap="round" stroke-miterlimit="10" pointer-events="none"/><g transform="translate(-0.5 -0.5)"><switch><foreignObject style="overflow: visible; text-align: left;" pointer-events="none" width="100%" height="100%" requiredFeatures="http://www.w3.org/TR/SVG11/feature#Extensibility"><div xmlns="http://www.w3.org/1999/xhtml" style="display: flex; align-items: unsafe center; justify-content: unsafe center; width: 98px; height: 1px; padding-top: 221px; margin-left: 461px;"><div style="box-sizing: border-box; font-size: 0; text-align: center; "><div style="display: inline-block; font-size: 12px; font-family: Helvetica; color: #000000; line-height: 1.2; pointer-events: none; white-space: normal; word-wrap: normal; ">子应用 C</div></div></div></foreignObject><text x="510" y="224" fill="#000000" font-family="Helvetica" font-size="12px" text-anchor="middle">子应用 C</text></switch></g><path d="M 420 220.2 M 420 220.2 C 424.83 221.5 426.71 218.65 440 220.2 M 420 220.2 C 423.53 219.22 428.56 220.44 440 220.2 M 440 220.2 C 444.45 220.48 449.1 220.2 453.63 220.4 M 440 220.2 C 443.43 220.19 447.04 220.21 453.63 220.4" fill="none" stroke="#000000" stroke-linejoin="round" stroke-linecap="round" stroke-miterlimit="10" pointer-events="none"/><path d="M 452.17 216.61 C 452.17 216.61 452.17 216.61 452.17 216.61 M 452.17 216.61 C 452.17 216.61 452.17 216.61 452.17 216.61 M 453.88 220.75 C 454.46 219.95 455.1 219.04 455.85 218.48 M 453.88 220.75 C 454.39 220.15 454.92 219.56 455.85 218.48" fill="none" stroke="#000000" stroke-linejoin="round" stroke-linecap="round" stroke-miterlimit="10" pointer-events="none"/><path d="M 458.88 220.48 M 458.88 220.48 C 456.74 221.53 454.15 223.33 451.83 223.88 M 458.88 220.48 C 456.39 221.69 453.88 223.26 451.83 223.88 M 451.83 223.88 C 452.2 222.55 452.86 221.54 453.63 220.4 M 451.83 223.88 C 452.63 222.66 453.36 221.1 453.63 220.4 M 453.63 220.4 C 452.64 219.05 452.62 217.5 451.94 216.88 M 453.63 220.4 C 453.02 219.16 452.45 217.99 451.94 216.88 M 451.94 216.88 C 454.58 217.83 457.09 218.85 458.88 220.48 M 451.94 216.88 C 454.39 218.31 457.5 219.13 458.88 220.48" fill="none" stroke="#000000" stroke-linejoin="round" stroke-linecap="round" stroke-miterlimit="10" pointer-events="none"/><path d="M 560 79.5 M 560 79.5 C 581.55 86.05 603.99 92.77 663.81 104.86 M 560 79.5 C 590.78 85.35 621.62 93.3 663.81 104.86" fill="none" stroke="#000000" stroke-linejoin="round" stroke-linecap="round" stroke-miterlimit="10" pointer-events="none"/><path d="M 662.62 101.42 C 662.62 101.42 662.62 101.42 662.62 101.42 M 662.62 101.42 C 662.62 101.42 662.62 101.42 662.62 101.42 M 661.7 108.57 C 662.21 106.98 663.95 106.64 666.29 103.29 M 661.7 108.57 C 662.5 107.21 663.94 105.9 666.29 103.29" fill="none" stroke="#000000" stroke-linejoin="round" stroke-linecap="round" stroke-miterlimit="10" pointer-events="none"/><path d="M 668.91 106.11 M 668.91 106.11 C 666.68 107.01 664.97 107.21 661.28 107.85 M 668.91 106.11 C 667.11 106.52 666.01 106.78 661.28 107.85 M 661.28 107.85 C 662.22 106.83 662.26 106.49 663.81 104.86 M 661.28 107.85 C 662.34 106.95 662.88 105.71 663.81 104.86 M 663.81 104.86 C 663.53 104.23 663.31 102.61 662.94 101.05 M 663.81 104.86 C 663.71 103.84 663.51 103.15 662.94 101.05 M 662.94 101.05 C 665.11 102.94 665.42 103.4 668.91 106.11 M 662.94 101.05 C 665.28 102.95 666.63 104.27 668.91 106.11" fill="none" stroke="#000000" stroke-linejoin="round" stroke-linecap="round" stroke-miterlimit="10" pointer-events="none"/><path d="M 560 150.63 M 560 150.63 C 580.25 149.58 605.47 151.19 663.63 150.89 M 560 150.63 C 597.58 150.73 635.4 150.49 663.63 150.89" fill="none" stroke="#000000" stroke-linejoin="round" stroke-linecap="round" stroke-miterlimit="10" pointer-events="none"/><path d="M 662 147.26 C 662 147.26 662 147.26 662 147.26 M 662 147.26 C 662 147.26 662 147.26 662 147.26 M 663.71 151.39 C 663.96 150.97 664.6 150.55 665.68 149.13 M 663.71 151.39 C 664.18 150.82 664.59 150.58 665.68 149.13" fill="none" stroke="#000000" stroke-linejoin="round" stroke-linecap="round" stroke-miterlimit="10" pointer-events="none"/><path d="M 668.88 150.9 M 668.88 150.9 C 666.87 151.06 664.82 152.22 661.87 154.39 M 668.88 150.9 C 667.37 151.87 665.73 152.97 661.87 154.39 M 661.87 154.39 C 662.55 152.76 662.76 152.16 663.63 150.89 M 661.87 154.39 C 662.34 153.46 662.96 152.18 663.63 150.89 M 663.63 150.89 C 663.36 149.65 662.17 148.18 661.89 147.39 M 663.63 150.89 C 662.96 149.94 662.4 148.76 661.89 147.39 M 661.89 147.39 C 663.96 148.45 667.13 149.82 668.88 150.9 M 661.89 147.39 C 664 148.63 665.84 149.43 668.88 150.9" fill="none" stroke="#000000" stroke-linejoin="round" stroke-linecap="round" stroke-miterlimit="10" pointer-events="none"/><path d="M 560 220.5 M 560 220.5 C 582.95 214.32 603.03 211.2 663.78 197.5 M 560 220.5 C 585.66 214.58 609.83 209.94 663.78 197.5" fill="none" stroke="#000000" stroke-linejoin="round" stroke-linecap="round" stroke-miterlimit="10" pointer-events="none"/><path d="M 661.37 194.41 C 661.37 194.41 661.37 194.41 661.37 194.41 M 661.37 194.41 C 661.37 194.41 661.37 194.41 661.37 194.41 M 663.73 197.79 C 664.56 196.98 665.1 196.28 665.7 195.52 M 663.73 197.79 C 664.43 196.81 665.31 196.14 665.7 195.52" fill="none" stroke="#000000" stroke-linejoin="round" stroke-linecap="round" stroke-miterlimit="10" pointer-events="none"/><path d="M 668.91 196.37 M 668.91 196.37 C 667.14 197.16 666.33 199.08 662.83 201.3 M 668.91 196.37 C 667.13 197.95 665.86 199.17 662.83 201.3 M 662.83 201.3 C 662.89 199.78 663.64 198.87 663.78 197.5 M 662.83 201.3 C 663.1 200.45 663.46 199.22 663.78 197.5 M 663.78 197.5 C 663.1 197.14 662.9 196.55 661.32 194.46 M 663.78 197.5 C 663.3 196.93 662.78 196.38 661.32 194.46 M 661.32 194.46 C 663.37 195.58 664.74 195.63 668.91 196.37 M 661.32 194.46 C 663.02 195.13 665.16 195.51 668.91 196.37" fill="none" stroke="#000000" stroke-linejoin="round" stroke-linecap="round" stroke-miterlimit="10" pointer-events="none"/><g transform="translate(-0.5 -0.5)"><switch><foreignObject style="overflow: visible; text-align: left;" pointer-events="none" width="100%" height="100%" requiredFeatures="http://www.w3.org/TR/SVG11/feature#Extensibility"><div xmlns="http://www.w3.org/1999/xhtml" style="display: flex; align-items: unsafe center; justify-content: unsafe center; width: 1px; height: 1px; padding-top: 40px; margin-left: 810px;"><div style="box-sizing: border-box; font-size: 0; text-align: center; "><div style="display: inline-block; font-size: 12px; font-family: Helvetica; color: #000000; line-height: 1.2; pointer-events: none; white-space: nowrap; ">三个应用合并到一个应用里</div></div></div></foreignObject><text x="810" y="44" fill="#000000" font-family="Helvetica" font-size="12px" text-anchor="middle">三个应用合并到一个应用里</text></switch></g><path d="M 696.92 61.5 M 696.92 61.5 C 744.13 59.4 787.17 59.75 913.08 61.5 M 696.92 61.5 C 744.12 61.55 790.63 62.64 913.08 61.5 M 913.08 61.5 C 931.48 60.9 940.51 69.42 940 88.42 M 913.08 61.5 C 932.54 60.65 937.87 69.04 940 88.42 M 940 88.42 C 940.62 126.09 940.55 165.18 940 214.08 M 940 88.42 C 939.3 123.73 940.21 159.27 940 214.08 M 940 214.08 C 938.84 230.1 932.19 239.08 913.08 241 M 940 214.08 C 938.03 230.02 930.58 239.92 913.08 241 M 913.08 241 C 855.92 240.46 797.65 240.17 696.92 241 M 913.08 241 C 860.35 240.5 808.75 240.8 696.92 241 M 696.92 241 C 679.35 241.43 669.18 231.48 670 214.08 M 696.92 241 C 680.08 242.49 671.11 231.82 670 214.08 M 670 214.08 C 669.1 174.18 667.95 134.74 670 88.42 M 670 214.08 C 669.97 187.54 669.39 161.08 670 88.42 M 670 88.42 C 669.3 71.48 680.08 63.26 696.92 61.5 M 670 88.42 C 668.57 72.45 677.86 63.12 696.92 61.5" fill="none" stroke="#000000" stroke-linejoin="round" stroke-linecap="round" stroke-miterlimit="10" pointer-events="none"/><path d="M 756.33 92.78 C 756.33 92.78 756.33 92.78 756.33 92.78 M 756.33 92.78 C 756.33 92.78 756.33 92.78 756.33 92.78 M 756.72 98.42 C 759.07 96.89 759.75 95.32 762.63 91.63 M 756.72 98.42 C 757.93 96.92 758.97 95.59 762.63 91.63 M 756.46 104.82 C 760.57 101.88 763.08 94.93 767.61 91.99 M 756.46 104.82 C 759.23 101.75 760.6 98.84 767.61 91.99 M 756.85 110.46 C 763.23 105.99 767.17 98.67 772.6 92.35 M 756.85 110.46 C 763.09 105.08 766.84 97.96 772.6 92.35 M 756.59 116.86 C 763 107.36 771.23 99.19 778.24 91.96 M 756.59 116.86 C 763.03 109.71 769.06 101.83 778.24 91.96 M 756.33 123.26 C 761.77 116.67 766.86 109.15 783.23 92.32 M 756.33 123.26 C 761.67 116.6 769.36 109.13 783.23 92.32 M 757.38 128.15 C 763.33 122.37 770.77 113.55 788.87 91.92 M 757.38 128.15 C 765.57 120.01 771.62 110.34 788.87 91.92 M 759.09 132.28 C 772.56 119.35 782.65 105.87 793.86 92.28 M 759.09 132.28 C 767.11 123.86 775.1 113.27 793.86 92.28 M 764.73 131.89 C 774.24 117.79 789.59 103.97 799.5 91.89 M 764.73 131.89 C 775.17 120.19 786.37 106.76 799.5 91.89 M 769.72 132.25 C 780.82 118.86 791.42 108.73 804.49 92.25 M 769.72 132.25 C 778.86 122.59 787.92 113.57 804.49 92.25 M 774.71 132.61 C 786.41 119.24 796.15 108.97 810.13 91.85 M 774.71 132.61 C 782.1 122.75 790.54 113.51 810.13 91.85 M 780.35 132.21 C 788.04 122.78 799.45 112.02 815.12 92.21 M 780.35 132.21 C 790.34 119.31 802.38 106.65 815.12 92.21 M 785.34 132.57 C 799.84 116.93 811.6 100.65 820.11 92.57 M 785.34 132.57 C 794.61 123.84 801.44 113.93 820.11 92.57 M 790.98 132.18 C 802.45 115.69 818.61 100.74 825.75 92.18 M 790.98 132.18 C 798.85 122.84 808.43 113.25 825.75 92.18 M 795.97 132.54 C 803.73 121.59 812.67 112.91 830.74 92.54 M 795.97 132.54 C 805.06 122.93 814.75 112.22 830.74 92.54 M 801.61 132.14 C 808.15 122.6 815.82 116.14 836.38 92.14 M 801.61 132.14 C 813.57 117.98 825.66 103.77 836.38 92.14 M 806.6 132.5 C 817.22 123.77 823.42 114.15 841.37 92.5 M 806.6 132.5 C 818.1 119.8 829.4 107.27 841.37 92.5 M 812.24 132.11 C 819.68 124.01 827.77 114.76 847.01 92.11 M 812.24 132.11 C 823.95 117.58 837.38 104.33 847.01 92.11 M 817.23 132.47 C 826.26 121.53 835.94 109.73 852.65 91.71 M 817.23 132.47 C 829.54 118.65 841.01 103.67 852.65 91.71 M 822.21 132.83 C 833.57 120.23 847.82 105.35 855.67 94.34 M 822.21 132.83 C 830.19 122.85 838.14 115.49 855.67 94.34 M 827.86 132.43 C 836.99 122.97 845.18 111.81 856.72 99.23 M 827.86 132.43 C 836.59 120.88 847.19 110.18 856.72 99.23 M 832.84 132.79 C 837.67 125.14 845.33 119.06 857.12 104.87 M 832.84 132.79 C 838.17 127.11 842.5 120.61 857.12 104.87 M 838.49 132.4 C 845.51 124.25 853.55 115.36 856.86 111.27 M 838.49 132.4 C 845.73 124.14 853.81 116.3 856.86 111.27 M 843.47 132.76 C 845.63 131.41 848.22 125.24 856.6 117.67 M 843.47 132.76 C 847.42 126.97 852.69 123.09 856.6 117.67 M 849.12 132.37 C 850.93 128.6 852.96 126.93 856.99 123.31 M 849.12 132.37 C 852.31 129.17 854.99 125.95 856.99 123.31" fill="none" stroke="#008a00" stroke-linejoin="round" stroke-linecap="round" stroke-miterlimit="10" pointer-events="none"/><path d="M 761.15 91 M 761.15 91 C 778.33 88.74 795.49 90.29 848.85 91 M 761.15 91 C 794.33 91.59 826.53 91.58 848.85 91 M 848.85 91 C 852.8 89.39 855.94 91.36 855 97.15 M 848.85 91 C 854.22 89.25 854.06 92.29 855 97.15 M 855 97.15 C 855.62 106.92 853.46 117.93 855 125.85 M 855 97.15 C 854.32 102.34 856.1 108.13 855 125.85 M 855 125.85 C 855.95 130.17 851.45 131.82 848.85 132 M 855 125.85 C 857.25 129.62 853.37 131.9 848.85 132 M 848.85 132 C 827.81 132.23 805.39 132.09 761.15 132 M 848.85 132 C 816.52 131.2 783.33 131.99 761.15 132 M 761.15 132 C 755.36 133.68 755.22 131.67 755 125.85 M 761.15 132 C 758.04 132.82 754.76 128.71 755 125.85 M 755 125.85 C 755.37 115.77 754.23 107.18 755 97.15 M 755 125.85 C 754.11 119.15 755.01 112.25 755 97.15 M 755 97.15 C 754.87 92.89 756.19 92.53 761.15 91 M 755 97.15 C 756.57 94.21 755.87 92.69 761.15 91" fill="none" stroke="#005700" stroke-linejoin="round" stroke-linecap="round" stroke-miterlimit="10" pointer-events="none"/><g transform="translate(-0.5 -0.5)"><switch><foreignObject style="overflow: visible; text-align: left;" pointer-events="none" width="100%" height="100%" requiredFeatures="http://www.w3.org/TR/SVG11/feature#Extensibility"><div xmlns="http://www.w3.org/1999/xhtml" style="display: flex; align-items: unsafe center; justify-content: unsafe center; width: 98px; height: 1px; padding-top: 112px; margin-left: 756px;"><div style="box-sizing: border-box; font-size: 0; text-align: center; "><div style="display: inline-block; font-size: 12px; font-family: Helvetica; color: #000000; line-height: 1.2; pointer-events: none; white-space: normal; word-wrap: normal; ">子应用 A</div></div></div></foreignObject><text x="805" y="115" fill="#000000" font-family="Helvetica" font-size="12px" text-anchor="middle">子应用 A</text></switch></g><path d="M 701.27 162.85 C 701.27 162.85 701.27 162.85 701.27 162.85 M 701.27 162.85 C 701.27 162.85 701.27 162.85 701.27 162.85 M 701.66 168.49 C 703.97 165.93 706.14 163.52 707.57 161.7 M 701.66 168.49 C 703.55 165.66 706.03 163.04 707.57 161.7 M 701.4 174.89 C 704.58 169.98 708.34 168.2 712.56 162.06 M 701.4 174.89 C 704.08 171.38 706.77 168.71 712.56 162.06 M 701.8 180.53 C 705.51 177.09 709.05 168.64 717.54 162.42 M 701.8 180.53 C 705.74 175.92 710.9 169.51 717.54 162.42 M 701.54 186.93 C 707.2 182.32 713.56 175 723.19 162.02 M 701.54 186.93 C 709 176.8 719.25 167.37 723.19 162.02 M 701.93 192.57 C 711.12 185.66 719.39 174.33 728.17 162.38 M 701.93 192.57 C 712.75 181.05 723.6 169.16 728.17 162.38 M 702.33 198.21 C 710.51 189.73 721.7 176.91 733.82 161.99 M 702.33 198.21 C 710 190.15 716.53 182.17 733.82 161.99 M 704.03 202.35 C 713.83 190.4 725.94 176.19 738.8 162.35 M 704.03 202.35 C 717.4 185.63 730.99 171.4 738.8 162.35 M 709.68 201.95 C 724.76 186.98 734.96 169.77 744.45 161.95 M 709.68 201.95 C 717.77 192.27 725.57 184.2 744.45 161.95 M 714.66 202.31 C 720.97 193.43 729.31 184.86 749.43 162.31 M 714.66 202.31 C 724.69 191.21 733.81 180.6 749.43 162.31 M 720.31 201.92 C 729.91 191.19 738.78 179.16 755.08 161.92 M 720.31 201.92 C 728.55 193.02 734.98 182.97 755.08 161.92 M 725.29 202.28 C 730.72 193.91 739.53 186.34 760.06 162.28 M 725.29 202.28 C 735.32 190.68 747.76 178.4 760.06 162.28 M 730.28 202.64 C 737.47 192.01 748.12 182.15 765.71 161.88 M 730.28 202.64 C 740.44 189.8 753.1 176.97 765.71 161.88 M 735.92 202.24 C 746.71 191.87 751.48 182.28 770.69 162.24 M 735.92 202.24 C 744.96 192.08 755.69 180.6 770.69 162.24 M 740.91 202.6 C 748.82 192.95 759.66 179.39 775.68 162.6 M 740.91 202.6 C 752.5 188.91 763.56 176.53 775.68 162.6 M 746.55 202.21 C 757.95 189.73 769.25 176.62 781.32 162.21 M 746.55 202.21 C 755.35 191.87 765.78 180.51 781.32 162.21 M 751.54 202.57 C 764.62 186.82 778.67 171.58 786.31 162.57 M 751.54 202.57 C 762.18 191.24 773.5 178.29 786.31 162.57 M 757.18 202.17 C 763.92 193.73 772.31 185 791.95 162.17 M 757.18 202.17 C 765.52 192.28 774.99 182.4 791.95 162.17 M 762.17 202.53 C 771.12 190.89 785.01 180.29 797.6 161.78 M 762.17 202.53 C 774 189.44 783.38 176.43 797.6 161.78 M 767.81 202.14 C 777.21 189.82 786.44 179.24 800.62 164.4 M 767.81 202.14 C 776.3 191.96 785.86 182.62 800.62 164.4 M 772.8 202.5 C 781.52 191.1 792.49 182.16 802.32 168.54 M 772.8 202.5 C 784.04 189.5 795.5 176.66 802.32 168.54 M 777.79 202.86 C 783.81 197.88 789.7 189.13 802.06 174.94 M 777.79 202.86 C 786.37 194.75 793.05 185.26 802.06 174.94 M 783.43 202.47 C 786.92 196.83 790.79 193.1 801.8 181.33 M 783.43 202.47 C 789.12 195.37 796.33 187.76 801.8 181.33 M 788.42 202.83 C 790.54 199.6 795.61 197.12 801.54 187.73 M 788.42 202.83 C 790.97 199.91 793.9 195.47 801.54 187.73 M 794.06 202.43 C 796.76 199.04 799.42 197.03 801.93 193.37 M 794.06 202.43 C 796.15 199.94 797.75 197.15 801.93 193.37" fill="none" stroke="#1ba1e2" stroke-linejoin="round" stroke-linecap="round" stroke-miterlimit="10" pointer-events="none"/><path d="M 706.15 161 M 706.15 161 C 738.75 160 769.01 161.7 793.85 161 M 706.15 161 C 725.48 161.04 744.21 160.57 793.85 161 M 793.85 161 C 797.13 161.43 801.61 163.72 800 167.15 M 793.85 161 C 799.11 161.29 799.98 163.96 800 167.15 M 800 167.15 C 798.14 177.14 801.83 183.78 800 195.85 M 800 167.15 C 800.39 176.15 800.44 185.18 800 195.85 M 800 195.85 C 799.28 199.93 798.76 203.5 793.85 202 M 800 195.85 C 798.01 201.73 799.79 203.82 793.85 202 M 793.85 202 C 769.26 203.08 740.31 201.23 706.15 202 M 793.85 202 C 775.31 203.17 756.39 202.9 706.15 202 M 706.15 202 C 701.72 201.56 700.43 199.13 700 195.85 M 706.15 202 C 701.31 200.07 700.71 201.54 700 195.85 M 700 195.85 C 701.97 187.56 701.32 179.42 700 167.15 M 700 195.85 C 699.91 186.52 699.51 177.04 700 167.15 M 700 167.15 C 700.79 164.86 701.22 160.81 706.15 161 M 700 167.15 C 700.98 161.28 701.04 161.29 706.15 161" fill="none" stroke="#006eaf" stroke-linejoin="round" stroke-linecap="round" stroke-miterlimit="10" pointer-events="none"/><g transform="translate(-0.5 -0.5)"><switch><foreignObject style="overflow: visible; text-align: left;" pointer-events="none" width="100%" height="100%" requiredFeatures="http://www.w3.org/TR/SVG11/feature#Extensibility"><div xmlns="http://www.w3.org/1999/xhtml" style="display: flex; align-items: unsafe center; justify-content: unsafe center; width: 98px; height: 1px; padding-top: 182px; margin-left: 701px;"><div style="box-sizing: border-box; font-size: 0; text-align: center; "><div style="display: inline-block; font-size: 12px; font-family: Helvetica; color: #000000; line-height: 1.2; pointer-events: none; white-space: normal; word-wrap: normal; ">子应用 B</div></div></div></foreignObject><text x="750" y="185" fill="#000000" font-family="Helvetica" font-size="12px" text-anchor="middle">子应用 B</text></switch></g><path d="M 821.45 162.64 C 821.45 162.64 821.45 162.64 821.45 162.64 M 821.45 162.64 C 821.45 162.64 821.45 162.64 821.45 162.64 M 821.84 168.28 C 823.97 166.59 825.63 163.7 827.09 162.24 M 821.84 168.28 C 823.87 165.79 825.5 163.53 827.09 162.24 M 821.58 174.68 C 823.83 171.21 825.44 167.79 832.74 161.85 M 821.58 174.68 C 825.6 170.75 827.92 166.61 832.74 161.85 M 821.32 181.08 C 826.89 178.49 830.17 172.76 837.72 162.21 M 821.32 181.08 C 825.12 177.06 829.84 171.19 837.72 162.21 M 821.72 186.72 C 830.46 178.02 835.29 170.57 843.37 161.82 M 821.72 186.72 C 827.89 179.04 834.02 173.03 843.37 161.82 M 821.45 193.12 C 830.8 181.45 842.64 169.84 848.35 162.18 M 821.45 193.12 C 830.89 182.34 840.03 171.61 848.35 162.18 M 822.5 198.01 C 832.93 183.46 843.87 170.64 854 161.78 M 822.5 198.01 C 828.93 190.01 835.95 181.73 854 161.78 M 824.21 202.14 C 834.32 187.18 848.47 176.24 858.98 162.14 M 824.21 202.14 C 835.96 187.14 848.21 173.25 858.98 162.14 M 829.2 202.5 C 838.91 191.34 845.01 182.76 863.97 162.5 M 829.2 202.5 C 839.9 189.54 851.26 176.83 863.97 162.5 M 834.84 202.11 C 847.31 189.74 860.34 174.73 869.61 162.11 M 834.84 202.11 C 845.76 189.56 854.94 177.36 869.61 162.11 M 839.83 202.47 C 851.52 189.47 859.72 179.45 874.6 162.47 M 839.83 202.47 C 847.87 192.37 856.45 183.33 874.6 162.47 M 845.47 202.07 C 860.38 186.08 869.56 173.69 880.24 162.07 M 845.47 202.07 C 854.73 189.78 865.59 177.88 880.24 162.07 M 850.46 202.43 C 860.17 193.16 868.37 182.09 885.23 162.43 M 850.46 202.43 C 863.1 186.65 877.18 171.38 885.23 162.43 M 856.1 202.04 C 868.35 189.08 876.69 176.84 890.87 162.04 M 856.1 202.04 C 866.32 188.36 878.18 176.98 890.87 162.04 M 861.09 202.4 C 869.14 189.34 881.89 178.9 895.86 162.4 M 861.09 202.4 C 873.17 186.6 887.61 170.57 895.86 162.4 M 866.08 202.76 C 874.72 195.18 878.83 187.27 901.5 162 M 866.08 202.76 C 878.1 187.25 892.07 172.47 901.5 162 M 871.72 202.36 C 884.3 190.91 895.26 178.05 906.49 162.36 M 871.72 202.36 C 881.49 190.42 890.83 179.04 906.49 162.36 M 876.71 202.72 C 882.74 194.63 891.43 186.41 911.48 162.72 M 876.71 202.72 C 887.83 189.46 898.28 176.95 911.48 162.72 M 882.35 202.33 C 895.01 189.53 904.89 176.38 917.12 162.33 M 882.35 202.33 C 891.5 191.46 902.62 180.64 917.12 162.33 M 887.34 202.69 C 901.08 185.86 912.35 171.47 920.79 164.2 M 887.34 202.69 C 896.69 191.24 906.22 179.53 920.79 164.2 M 892.98 202.29 C 900.22 192.82 909.55 182.56 921.85 169.09 M 892.98 202.29 C 899.77 194.47 905.83 186.71 921.85 169.09 M 897.97 202.65 C 906.04 190.76 915.03 181.76 922.24 174.73 M 897.97 202.65 C 902.4 195.71 908.58 190.82 922.24 174.73 M 903.61 202.26 C 910.81 195.28 914.2 188.47 921.98 181.13 M 903.61 202.26 C 909.33 195.96 915.67 188.58 921.98 181.13 M 908.6 202.62 C 910.99 197.52 914.54 194.74 921.72 187.53 M 908.6 202.62 C 912.37 197.55 917.59 191.53 921.72 187.53 M 914.24 202.22 C 917.69 199.46 918.51 197.31 921.46 193.92 M 914.24 202.22 C 916.75 199.08 919.78 196.34 921.46 193.92" fill="none" stroke="#a20025" stroke-linejoin="round" stroke-linecap="round" stroke-miterlimit="10" pointer-events="none"/><path d="M 826.15 161 M 826.15 161 C 856.62 161.26 882.44 163.11 913.85 161 M 826.15 161 C 849.17 160.24 871.96 161.31 913.85 161 M 913.85 161 C 916.47 159.47 918.28 162.09 920 167.15 M 913.85 161 C 919.01 158.73 920.9 161.03 920 167.15 M 920 167.15 C 919.66 179.09 921.21 191.12 920 195.85 M 920 167.15 C 920.04 174.23 920.35 180.74 920 195.85 M 920 195.85 C 921.61 199.7 917.06 201.17 913.85 202 M 920 195.85 C 918.36 199.23 916.6 201.14 913.85 202 M 913.85 202 C 885.71 199.93 854.22 200.37 826.15 202 M 913.85 202 C 893.56 201.38 871.37 202.04 826.15 202 M 826.15 202 C 823.09 203.43 820.64 200.6 820 195.85 M 826.15 202 C 824.18 201.92 821.65 199.77 820 195.85 M 820 195.85 C 818.99 185.34 818.84 177.65 820 167.15 M 820 195.85 C 820.71 189.64 821.01 183.3 820 167.15 M 820 167.15 C 821.72 162.83 821.25 159.09 826.15 161 M 820 167.15 C 820.39 162.95 821.2 159.89 826.15 161" fill="none" stroke="#6f0000" stroke-linejoin="round" stroke-linecap="round" stroke-miterlimit="10" pointer-events="none"/><g transform="translate(-0.5 -0.5)"><switch><foreignObject style="overflow: visible; text-align: left;" pointer-events="none" width="100%" height="100%" requiredFeatures="http://www.w3.org/TR/SVG11/feature#Extensibility"><div xmlns="http://www.w3.org/1999/xhtml" style="display: flex; align-items: unsafe center; justify-content: unsafe center; width: 98px; height: 1px; padding-top: 182px; margin-left: 821px;"><div style="box-sizing: border-box; font-size: 0; text-align: center; "><div style="display: inline-block; font-size: 12px; font-family: Helvetica; color: #000000; line-height: 1.2; pointer-events: none; white-space: normal; word-wrap: normal; ">子应用 C</div></div></div></foreignObject><text x="870" y="185" fill="#000000" font-family="Helvetica" font-size="12px" text-anchor="middle">子应用 C</text></switch></g><g transform="translate(-0.5 -0.5)"><switch><foreignObject style="overflow: visible; text-align: left;" pointer-events="none" width="100%" height="100%" requiredFeatures="http://www.w3.org/TR/SVG11/feature#Extensibility"><div xmlns="http://www.w3.org/1999/xhtml" style="display: flex; align-items: unsafe center; justify-content: unsafe center; width: 1px; height: 1px; padding-top: 40px; margin-left: 510px;"><div style="box-sizing: border-box; font-size: 0; text-align: center; "><div style="display: inline-block; font-size: 12px; font-family: Helvetica; color: #000000; line-height: 1.2; pointer-events: none; white-space: nowrap; ">生产环境</div></div></div></foreignObject><text x="510" y="44" fill="#000000" font-family="Helvetica" font-size="12px" text-anchor="middle">生产环境</text></switch></g></g><switch><g requiredFeatures="http://www.w3.org/TR/SVG11/feature#Extensibility"/><a transform="translate(0,-5)" xlink:href="https://www.diagrams.net/doc/faq/svg-export-text-problems" target="_blank"><text text-anchor="middle" font-size="10px" x="50%" y="100%">Viewer does not support full SVG 1.1</text></a></switch></svg>