<svg xmlns="http://www.w3.org/2000/svg" xmlns:xlink="http://www.w3.org/1999/xlink" contentStyleType="text/css" data-diagram-type="ACTIVITY" height="584px" preserveAspectRatio="none" style="width:590px;height:584px;" version="1.1" viewBox="0 0 590 584" width="590px" zoomAndPan="magnify"><title>&#38134;&#34892;&#23478;&#31639;&#27861;&#27969;&#31243;</title><defs/><g><text fill="#000000" font-family="sans-serif" font-size="14" font-weight="bold" lengthAdjust="spacing" textLength="97.9996" x="244.5018" y="32.9951">&#38134;&#34892;&#23478;&#31639;&#27861;&#27969;&#31243;</text><ellipse cx="355.5018" cy="57.2969" fill="#222222" rx="10" ry="10" style="stroke:#222222;stroke-width:1;"/><rect fill="#F1F1F1" height="33.9688" rx="12.5" ry="12.5" style="stroke:#181818;stroke-width:0.5;" width="146.2" x="282.4018" y="87.2969"/><text fill="#000000" font-family="sans-serif" font-size="12" lengthAdjust="spacing" textLength="126.2" x="292.4018" y="108.4355">&#25910;&#21040;&#36827;&#31243; Pi &#30340;&#36164;&#28304;&#35831;&#27714;</text><polygon fill="#F1F1F1" points="304.6161,141.2656,406.3876,141.2656,418.3876,153.2656,406.3876,165.2656,304.6161,165.2656,292.6161,153.2656,304.6161,141.2656" style="stroke:#181818;stroke-width:0.5;"/><text fill="#000000" font-family="sans-serif" font-size="11" lengthAdjust="spacing" textLength="101.7715" x="304.6161" y="157.0737">Request &#8804; Need[i]</text><text fill="#000000" font-family="sans-serif" font-size="11" lengthAdjust="spacing" textLength="10.9999" x="281.6161" y="150.6714">&#26159;</text><text fill="#000000" font-family="sans-serif" font-size="11" lengthAdjust="spacing" textLength="10.9999" x="418.3876" y="150.6714">&#21542;</text><polygon fill="#F1F1F1" points="158.0907,175.2656,269.9115,175.2656,281.9115,187.2656,269.9115,199.2656,158.0907,199.2656,146.0907,187.2656,158.0907,175.2656" style="stroke:#181818;stroke-width:0.5;"/><text fill="#000000" font-family="sans-serif" font-size="11" lengthAdjust="spacing" textLength="111.8208" x="158.0907" y="191.0737">Request &#8804; Available</text><text fill="#000000" font-family="sans-serif" font-size="11" lengthAdjust="spacing" textLength="10.9999" x="135.0907" y="184.6714">&#26159;</text><text fill="#000000" font-family="sans-serif" font-size="11" lengthAdjust="spacing" textLength="10.9999" x="281.9115" y="184.6714">&#21542;</text><rect fill="#F1F1F1" height="75.875" rx="12.5" ry="12.5" style="stroke:#181818;stroke-width:0.5;" width="168.875" x="28.563" y="209.2656"/><text fill="#000000" font-family="sans-serif" font-size="12" lengthAdjust="spacing" textLength="72.0005" x="38.563" y="230.4043">&#27169;&#25311;&#20998;&#37197;&#36164;&#28304;</text><text fill="#000000" font-family="sans-serif" font-size="12" lengthAdjust="spacing" textLength="126.3164" x="38.563" y="244.373">Available -= Request</text><text fill="#000000" font-family="sans-serif" font-size="12" lengthAdjust="spacing" textLength="148.875" x="38.563" y="258.3418">Allocation[i] += Request</text><text fill="#000000" font-family="sans-serif" font-size="12" lengthAdjust="spacing" textLength="115.3535" x="38.563" y="272.3105">Need[i] -= Request</text><rect fill="#F1F1F1" height="33.9688" rx="12.5" ry="12.5" style="stroke:#181818;stroke-width:0.5;" width="104.0006" x="61.0002" y="305.1406"/><text fill="#000000" font-family="sans-serif" font-size="12" lengthAdjust="spacing" textLength="84.0006" x="71.0002" y="326.2793">&#25191;&#34892;&#23433;&#20840;&#24615;&#26816;&#26597;</text><polygon fill="#F1F1F1" points="80.0008,359.1094,146.0003,359.1094,158.0003,371.1094,146.0003,383.1094,80.0008,383.1094,68.0008,371.1094,80.0008,359.1094" style="stroke:#181818;stroke-width:0.5;"/><text fill="#000000" font-family="sans-serif" font-size="11" lengthAdjust="spacing" textLength="65.9995" x="80.0008" y="374.9175">&#23384;&#22312;&#23433;&#20840;&#24207;&#21015;</text><text fill="#000000" font-family="sans-serif" font-size="11" lengthAdjust="spacing" textLength="10.9999" x="57.0009" y="368.5151">&#26159;</text><text fill="#000000" font-family="sans-serif" font-size="11" lengthAdjust="spacing" textLength="10.9999" x="158.0003" y="368.5151">&#21542;</text><rect fill="#F1F1F1" height="33.9688" rx="12.5" ry="12.5" style="stroke:#181818;stroke-width:0.5;" width="92.0005" x="11" y="393.1094"/><text fill="#000000" font-family="sans-serif" font-size="12" lengthAdjust="spacing" textLength="72.0005" x="21" y="414.248">&#23454;&#38469;&#20998;&#37197;&#36164;&#28304;</text><rect fill="#F1F1F1" height="47.9375" rx="12.5" ry="12.5" style="stroke:#181818;stroke-width:0.5;" width="92.0005" x="123.0005" y="393.1094"/><text fill="#000000" font-family="sans-serif" font-size="12" lengthAdjust="spacing" textLength="72.0005" x="133.0005" y="414.248">&#22238;&#28378;&#27169;&#25311;&#20998;&#37197;</text><text fill="#000000" font-family="sans-serif" font-size="12" lengthAdjust="spacing" textLength="48.0004" x="133.0005" y="428.2168">&#25298;&#32477;&#35831;&#27714;</text><polygon fill="#F1F1F1" points="113.0005,447.0469,125.0005,459.0469,113.0005,471.0469,101.0005,459.0469,113.0005,447.0469" style="stroke:#181818;stroke-width:0.5;"/><rect fill="#F1F1F1" height="33.9688" rx="12.5" ry="12.5" style="stroke:#181818;stroke-width:0.5;" width="140.0009" x="245.0011" y="209.2656"/><text fill="#000000" font-family="sans-serif" font-size="12" lengthAdjust="spacing" textLength="120.0009" x="255.0011" y="230.4043">&#25298;&#32477;&#35831;&#27714;&#65288;&#36164;&#28304;&#19981;&#36275;&#65289;</text><polygon fill="#F1F1F1" points="214.0011,477.0469,226.0011,489.0469,214.0011,501.0469,202.0011,489.0469,214.0011,477.0469" style="stroke:#181818;stroke-width:0.5;"/><rect fill="#F1F1F1" height="33.9688" rx="12.5" ry="12.5" style="stroke:#181818;stroke-width:0.5;" width="164.0011" x="415.002" y="175.2656"/><text fill="#000000" font-family="sans-serif" font-size="12" lengthAdjust="spacing" textLength="144.0011" x="425.002" y="196.4043">&#25298;&#32477;&#35831;&#27714;&#65288;&#36229;&#36807;&#26368;&#22823;&#38656;&#27714;&#65289;</text><polygon fill="#F1F1F1" points="355.5018,507.0469,367.5018,519.0469,355.5018,531.0469,343.5018,519.0469,355.5018,507.0469" style="stroke:#181818;stroke-width:0.5;"/><ellipse cx="355.5018" cy="562.0469" fill="#FFFFFF" fill-opacity="0.00000" rx="11" ry="11" style="stroke:#222222;stroke-width:1;"/><ellipse cx="355.5018" cy="562.0469" fill="#222222" rx="6" ry="6" style="stroke:#222222;stroke-width:1;"/><line style="stroke:#181818;stroke-width:1;" x1="355.5018" x2="355.5018" y1="67.2969" y2="87.2969"/><polygon fill="#181818" points="351.5018,77.2969,355.5018,87.2969,359.5018,77.2969,355.5018,81.2969" style="stroke:#181818;stroke-width:1;"/><line style="stroke:#181818;stroke-width:1;" x1="113.0005" x2="113.0005" y1="285.1406" y2="305.1406"/><polygon fill="#181818" points="109.0005,295.1406,113.0005,305.1406,117.0005,295.1406,113.0005,299.1406" style="stroke:#181818;stroke-width:1;"/><line style="stroke:#181818;stroke-width:1;" x1="68.0008" x2="57.0003" y1="371.1094" y2="371.1094"/><line style="stroke:#181818;stroke-width:1;" x1="57.0003" x2="57.0003" y1="371.1094" y2="393.1094"/><polygon fill="#181818" points="53.0003,383.1094,57.0003,393.1094,61.0003,383.1094,57.0003,387.1094" style="stroke:#181818;stroke-width:1;"/><line style="stroke:#181818;stroke-width:1;" x1="158.0003" x2="169.0008" y1="371.1094" y2="371.1094"/><line style="stroke:#181818;stroke-width:1;" x1="169.0008" x2="169.0008" y1="371.1094" y2="393.1094"/><polygon fill="#181818" points="165.0008,383.1094,169.0008,393.1094,173.0008,383.1094,169.0008,387.1094" style="stroke:#181818;stroke-width:1;"/><line style="stroke:#181818;stroke-width:1;" x1="57.0003" x2="57.0003" y1="427.0781" y2="459.0469"/><line style="stroke:#181818;stroke-width:1;" x1="57.0003" x2="101.0005" y1="459.0469" y2="459.0469"/><polygon fill="#181818" points="91.0005,455.0469,101.0005,459.0469,91.0005,463.0469,95.0005,459.0469" style="stroke:#181818;stroke-width:1;"/><line style="stroke:#181818;stroke-width:1;" x1="169.0008" x2="169.0008" y1="441.0469" y2="459.0469"/><line style="stroke:#181818;stroke-width:1;" x1="169.0008" x2="125.0005" y1="459.0469" y2="459.0469"/><polygon fill="#181818" points="135.0005,455.0469,125.0005,459.0469,135.0005,463.0469,131.0005,459.0469" style="stroke:#181818;stroke-width:1;"/><line style="stroke:#181818;stroke-width:1;" x1="113.0005" x2="113.0005" y1="339.1094" y2="359.1094"/><polygon fill="#181818" points="109.0005,349.1094,113.0005,359.1094,117.0005,349.1094,113.0005,353.1094" style="stroke:#181818;stroke-width:1;"/><line style="stroke:#181818;stroke-width:1;" x1="146.0907" x2="113.0005" y1="187.2656" y2="187.2656"/><line style="stroke:#181818;stroke-width:1;" x1="113.0005" x2="113.0005" y1="187.2656" y2="209.2656"/><polygon fill="#181818" points="109.0005,199.2656,113.0005,209.2656,117.0005,199.2656,113.0005,203.2656" style="stroke:#181818;stroke-width:1;"/><line style="stroke:#181818;stroke-width:1;" x1="281.9115" x2="315.0016" y1="187.2656" y2="187.2656"/><line style="stroke:#181818;stroke-width:1;" x1="315.0016" x2="315.0016" y1="187.2656" y2="209.2656"/><polygon fill="#181818" points="311.0016,199.2656,315.0016,209.2656,319.0016,199.2656,315.0016,203.2656" style="stroke:#181818;stroke-width:1;"/><line style="stroke:#181818;stroke-width:1;" x1="113.0005" x2="113.0005" y1="471.0469" y2="489.0469"/><line style="stroke:#181818;stroke-width:1;" x1="113.0005" x2="202.0011" y1="489.0469" y2="489.0469"/><polygon fill="#181818" points="192.0011,485.0469,202.0011,489.0469,192.0011,493.0469,196.0011,489.0469" style="stroke:#181818;stroke-width:1;"/><line style="stroke:#181818;stroke-width:1;" x1="315.0016" x2="315.0016" y1="243.2344" y2="489.0469"/><line style="stroke:#181818;stroke-width:1;" x1="315.0016" x2="226.0011" y1="489.0469" y2="489.0469"/><polygon fill="#181818" points="236.0011,485.0469,226.0011,489.0469,236.0011,493.0469,232.0011,489.0469" style="stroke:#181818;stroke-width:1;"/><line style="stroke:#181818;stroke-width:1;" x1="292.6161" x2="214.0011" y1="153.2656" y2="153.2656"/><line style="stroke:#181818;stroke-width:1;" x1="214.0011" x2="214.0011" y1="153.2656" y2="175.2656"/><polygon fill="#181818" points="210.0011,165.2656,214.0011,175.2656,218.0011,165.2656,214.0011,169.2656" style="stroke:#181818;stroke-width:1;"/><line style="stroke:#181818;stroke-width:1;" x1="418.3876" x2="497.0026" y1="153.2656" y2="153.2656"/><line style="stroke:#181818;stroke-width:1;" x1="497.0026" x2="497.0026" y1="153.2656" y2="175.2656"/><polygon fill="#181818" points="493.0026,165.2656,497.0026,175.2656,501.0026,165.2656,497.0026,169.2656" style="stroke:#181818;stroke-width:1;"/><line style="stroke:#181818;stroke-width:1;" x1="214.0011" x2="214.0011" y1="501.0469" y2="519.0469"/><line style="stroke:#181818;stroke-width:1;" x1="214.0011" x2="343.5018" y1="519.0469" y2="519.0469"/><polygon fill="#181818" points="333.5018,515.0469,343.5018,519.0469,333.5018,523.0469,337.5018,519.0469" style="stroke:#181818;stroke-width:1;"/><line style="stroke:#181818;stroke-width:1;" x1="497.0026" x2="497.0026" y1="209.2344" y2="519.0469"/><line style="stroke:#181818;stroke-width:1;" x1="497.0026" x2="367.5018" y1="519.0469" y2="519.0469"/><polygon fill="#181818" points="377.5018,515.0469,367.5018,519.0469,377.5018,523.0469,373.5018,519.0469" style="stroke:#181818;stroke-width:1;"/><line style="stroke:#181818;stroke-width:1;" x1="355.5018" x2="355.5018" y1="121.2656" y2="141.2656"/><polygon fill="#181818" points="351.5018,131.2656,355.5018,141.2656,359.5018,131.2656,355.5018,135.2656" style="stroke:#181818;stroke-width:1;"/><line style="stroke:#181818;stroke-width:1;" x1="355.5018" x2="355.5018" y1="531.0469" y2="551.0469"/><polygon fill="#181818" points="351.5018,541.0469,355.5018,551.0469,359.5018,541.0469,355.5018,545.0469" style="stroke:#181818;stroke-width:1;"/><!--SRC=[PP3DJi9058NtVOgxX1XV0EB2k3V6hRWOOD26EiLsS5qDrJP89Fu418GGKReHD8HgW8HtCSwqh7W52qMjiBtdVEUUUwb89GoJ6zjjNhAExNHAl7V7-wUEbHVKj4WoI45744U9z84YPqboIvPa1QY2YEf9c511K2bIg13XjpOpNjrnrKDXHmIdadFxEJuekjrt_dOM5SGKX7RnSHQh53xD5cnZdDmJzyD03p6142ztmmB0iclp18aIYajuoGSGuLQJvnlCE9_e1NzLZFpQONq35ZdUL9Ba1AAYJBo5i1PG5YK2xkWYt6pFNs8otU9QcpzglF7aQxEAxANCQfOliy4LCqeh_RmGrgbFxlLWGpy1IohsCehFVyvgdGyhmOjYXEUldU73p_lc74cAAM65ZmITqv7Xh_hwABXsRpeoPwnF_kDMA5jtnnUyfh5MUrBJvaEFzKcLofbl]--></g></svg>