<svg xmlns="http://www.w3.org/2000/svg" xmlns:xlink="http://www.w3.org/1999/xlink" contentStyleType="text/css" data-diagram-type="ACTIVITY" height="540px" preserveAspectRatio="none" style="width:594px;height:540px;" version="1.1" viewBox="0 0 594 540" width="594px" zoomAndPan="magnify"><title>&#23433;&#20840;&#24207;&#21015;&#26816;&#27979;&#27969;&#31243;</title><defs/><g><text fill="#000000" font-family="sans-serif" font-size="14" font-weight="bold" lengthAdjust="spacing" textLength="111.9995" x="239.7014" y="32.9951">&#23433;&#20840;&#24207;&#21015;&#26816;&#27979;&#27969;&#31243;</text><ellipse cx="249.0508" cy="57.2969" fill="#222222" rx="10" ry="10" style="stroke:#222222;stroke-width:1;"/><rect fill="#F1F1F1" height="47.9375" rx="12.5" ry="12.5" style="stroke:#181818;stroke-width:0.5;" width="165.875" x="166.1133" y="87.2969"/><text fill="#000000" font-family="sans-serif" font-size="12" lengthAdjust="spacing" textLength="143.6077" x="176.1133" y="108.4355">&#21021;&#22987;&#21270; Work = Available</text><text fill="#000000" font-family="sans-serif" font-size="12" lengthAdjust="spacing" textLength="145.875" x="176.1133" y="122.4043">Finish = [false, false, ...]</text><rect fill="#F1F1F1" height="61.9063" rx="12.5" ry="12.5" style="stroke:#181818;stroke-width:0.5;" width="139.2793" x="179.4111" y="199.2344"/><text fill="#000000" font-family="sans-serif" font-size="12" lengthAdjust="spacing" textLength="110.3855" x="189.4111" y="220.373">&#26597;&#25214;&#36827;&#31243; Pi&#65292;&#28385;&#36275;&#65306;</text><text fill="#000000" font-family="sans-serif" font-size="12" lengthAdjust="spacing" textLength="119.2793" x="189.4111" y="234.3418">1. Finish[i] == false</text><text fill="#000000" font-family="sans-serif" font-size="12" lengthAdjust="spacing" textLength="108.0938" x="189.4111" y="248.3105">2. Need[i] &#8804; Work</text><polygon fill="#F1F1F1" points="231.4579,281.1406,266.6437,281.1406,278.6437,293.1406,266.6437,305.1406,231.4579,305.1406,219.4579,293.1406,231.4579,281.1406" style="stroke:#181818;stroke-width:0.5;"/><text fill="#000000" font-family="sans-serif" font-size="11" lengthAdjust="spacing" textLength="35.1859" x="231.4579" y="296.9487">&#25214;&#21040; Pi</text><text fill="#000000" font-family="sans-serif" font-size="11" lengthAdjust="spacing" textLength="10.9999" x="208.4579" y="290.5464">&#26159;</text><text fill="#000000" font-family="sans-serif" font-size="11" lengthAdjust="spacing" textLength="10.9999" x="278.6437" y="290.5464">&#21542;</text><rect fill="#F1F1F1" height="47.9375" rx="12.5" ry="12.5" style="stroke:#181818;stroke-width:0.5;" width="189.4004" x="11" y="315.1406"/><text fill="#000000" font-family="sans-serif" font-size="12" lengthAdjust="spacing" textLength="169.4004" x="21" y="336.2793">Work = Work + Allocation[i]</text><text fill="#000000" font-family="sans-serif" font-size="12" lengthAdjust="spacing" textLength="90.041" x="21" y="350.248">Finish[i] = true</text><polygon fill="#F1F1F1" points="333.776,315.1406,451.0268,315.1406,463.0268,327.1406,451.0268,339.1406,333.776,339.1406,321.776,327.1406,333.776,315.1406" style="stroke:#181818;stroke-width:0.5;"/><text fill="#000000" font-family="sans-serif" font-size="11" lengthAdjust="spacing" textLength="117.2508" x="333.776" y="330.9487">&#25152;&#26377; Finish[i] == true</text><text fill="#000000" font-family="sans-serif" font-size="11" lengthAdjust="spacing" textLength="10.9999" x="310.7761" y="324.5464">&#26159;</text><text fill="#000000" font-family="sans-serif" font-size="11" lengthAdjust="spacing" textLength="10.9999" x="463.0268" y="324.5464">&#21542;</text><rect fill="#F1F1F1" height="33.9688" rx="12.5" ry="12.5" style="stroke:#181818;stroke-width:0.5;" width="152.001" x="230.4004" y="349.1406"/><text fill="#000000" font-family="sans-serif" font-size="12" lengthAdjust="spacing" textLength="132.001" x="240.4004" y="370.2793">&#31995;&#32479;&#23433;&#20840;&#65292;&#23384;&#22312;&#23433;&#20840;&#24207;&#21015;</text><rect fill="#F1F1F1" height="33.9688" rx="12.5" ry="12.5" style="stroke:#181818;stroke-width:0.5;" width="152.001" x="402.4014" y="349.1406"/><text fill="#000000" font-family="sans-serif" font-size="12" lengthAdjust="spacing" textLength="132.001" x="412.4014" y="370.2793">&#31995;&#32479;&#19981;&#23433;&#20840;&#65292;&#26080;&#23433;&#20840;&#24207;&#21015;</text><polygon fill="#F1F1F1" points="392.4014,389.1094,404.4014,401.1094,392.4014,413.1094,380.4014,401.1094,392.4014,389.1094" style="stroke:#181818;stroke-width:0.5;"/><polygon fill="#F1F1F1" points="249.0508,419.1094,261.0508,431.1094,249.0508,443.1094,237.0508,431.1094,249.0508,419.1094" style="stroke:#181818;stroke-width:0.5;"/><polygon fill="#F1F1F1" points="249.0508,155.2344,261.0508,167.2344,249.0508,179.2344,237.0508,167.2344,249.0508,155.2344" style="stroke:#181818;stroke-width:0.5;"/><polygon fill="#F1F1F1" points="202.1319,463.1094,295.9697,463.1094,307.9697,475.1094,295.9697,487.1094,202.1319,487.1094,190.1319,475.1094,202.1319,463.1094" style="stroke:#181818;stroke-width:0.5;"/><text fill="#000000" font-family="sans-serif" font-size="11" lengthAdjust="spacing" textLength="93.8378" x="202.1319" y="478.9175">&#36824;&#26377;&#26410;&#26816;&#26597;&#30340;&#36827;&#31243;?</text><ellipse cx="249.0508" cy="518.1094" fill="#FFFFFF" fill-opacity="0.00000" rx="11" ry="11" style="stroke:#222222;stroke-width:1;"/><ellipse cx="249.0508" cy="518.1094" fill="#222222" rx="6" ry="6" style="stroke:#222222;stroke-width:1;"/><line style="stroke:#181818;stroke-width:1;" x1="249.0508" x2="249.0508" y1="67.2969" y2="87.2969"/><polygon fill="#181818" points="245.0508,77.2969,249.0508,87.2969,253.0508,77.2969,249.0508,81.2969" style="stroke:#181818;stroke-width:1;"/><line style="stroke:#181818;stroke-width:1;" x1="321.776" x2="306.4009" y1="327.1406" y2="327.1406"/><line style="stroke:#181818;stroke-width:1;" x1="306.4009" x2="306.4009" y1="327.1406" y2="349.1406"/><polygon fill="#181818" points="302.4009,339.1406,306.4009,349.1406,310.4009,339.1406,306.4009,343.1406" style="stroke:#181818;stroke-width:1;"/><line style="stroke:#181818;stroke-width:1;" x1="463.0268" x2="478.4019" y1="327.1406" y2="327.1406"/><line style="stroke:#181818;stroke-width:1;" x1="478.4019" x2="478.4019" y1="327.1406" y2="349.1406"/><polygon fill="#181818" points="474.4019,339.1406,478.4019,349.1406,482.4019,339.1406,478.4019,343.1406" style="stroke:#181818;stroke-width:1;"/><line style="stroke:#181818;stroke-width:1;" x1="306.4009" x2="306.4009" y1="383.1094" y2="401.1094"/><line style="stroke:#181818;stroke-width:1;" x1="306.4009" x2="380.4014" y1="401.1094" y2="401.1094"/><polygon fill="#181818" points="370.4014,397.1094,380.4014,401.1094,370.4014,405.1094,374.4014,401.1094" style="stroke:#181818;stroke-width:1;"/><line style="stroke:#181818;stroke-width:1;" x1="478.4019" x2="478.4019" y1="383.1094" y2="401.1094"/><line style="stroke:#181818;stroke-width:1;" x1="478.4019" x2="404.4014" y1="401.1094" y2="401.1094"/><polygon fill="#181818" points="414.4014,397.1094,404.4014,401.1094,414.4014,405.1094,410.4014,401.1094" style="stroke:#181818;stroke-width:1;"/><line style="stroke:#181818;stroke-width:1;" x1="219.4579" x2="105.7002" y1="293.1406" y2="293.1406"/><line style="stroke:#181818;stroke-width:1;" x1="105.7002" x2="105.7002" y1="293.1406" y2="315.1406"/><polygon fill="#181818" points="101.7002,305.1406,105.7002,315.1406,109.7002,305.1406,105.7002,309.1406" style="stroke:#181818;stroke-width:1;"/><line style="stroke:#181818;stroke-width:1;" x1="278.6437" x2="392.4014" y1="293.1406" y2="293.1406"/><line style="stroke:#181818;stroke-width:1;" x1="392.4014" x2="392.4014" y1="293.1406" y2="315.1406"/><polygon fill="#181818" points="388.4014,305.1406,392.4014,315.1406,396.4014,305.1406,392.4014,309.1406" style="stroke:#181818;stroke-width:1;"/><line style="stroke:#181818;stroke-width:1;" x1="105.7002" x2="105.7002" y1="363.0781" y2="431.1094"/><line style="stroke:#181818;stroke-width:1;" x1="105.7002" x2="237.0508" y1="431.1094" y2="431.1094"/><polygon fill="#181818" points="227.0508,427.1094,237.0508,431.1094,227.0508,435.1094,231.0508,431.1094" style="stroke:#181818;stroke-width:1;"/><line style="stroke:#181818;stroke-width:1;" x1="392.4014" x2="392.4014" y1="413.1094" y2="431.1094"/><line style="stroke:#181818;stroke-width:1;" x1="392.4014" x2="261.0508" y1="431.1094" y2="431.1094"/><polygon fill="#181818" points="271.0508,427.1094,261.0508,431.1094,271.0508,435.1094,267.0508,431.1094" style="stroke:#181818;stroke-width:1;"/><line style="stroke:#181818;stroke-width:1;" x1="249.0508" x2="249.0508" y1="261.1406" y2="281.1406"/><polygon fill="#181818" points="245.0508,271.1406,249.0508,281.1406,253.0508,271.1406,249.0508,275.1406" style="stroke:#181818;stroke-width:1;"/><line style="stroke:#181818;stroke-width:1;" x1="249.0508" x2="249.0508" y1="179.2344" y2="199.2344"/><polygon fill="#181818" points="245.0508,189.2344,249.0508,199.2344,253.0508,189.2344,249.0508,193.2344" style="stroke:#181818;stroke-width:1;"/><line style="stroke:#181818;stroke-width:1;" x1="307.9697" x2="568.4024" y1="475.1094" y2="475.1094"/><polygon fill="#181818" points="564.4024,323.6719,568.4024,313.6719,572.4024,323.6719,568.4024,319.6719" style="stroke:#181818;stroke-width:1;"/><line style="stroke:#181818;stroke-width:1;" x1="568.4024" x2="568.4024" y1="167.2344" y2="475.1094"/><line style="stroke:#181818;stroke-width:1;" x1="568.4024" x2="261.0508" y1="167.2344" y2="167.2344"/><polygon fill="#181818" points="271.0508,163.2344,261.0508,167.2344,271.0508,171.2344,267.0508,167.2344" style="stroke:#181818;stroke-width:1;"/><line style="stroke:#181818;stroke-width:1;" x1="249.0508" x2="249.0508" y1="443.1094" y2="463.1094"/><polygon fill="#181818" points="245.0508,453.1094,249.0508,463.1094,253.0508,453.1094,249.0508,457.1094" style="stroke:#181818;stroke-width:1;"/><line style="stroke:#181818;stroke-width:1;" x1="249.0508" x2="249.0508" y1="135.2344" y2="155.2344"/><polygon fill="#181818" points="245.0508,145.2344,249.0508,155.2344,253.0508,145.2344,249.0508,149.2344" style="stroke:#181818;stroke-width:1;"/><line style="stroke:#181818;stroke-width:1;" x1="249.0508" x2="249.0508" y1="487.1094" y2="507.1094"/><polygon fill="#181818" points="245.0508,497.1094,249.0508,507.1094,253.0508,497.1094,249.0508,501.1094" style="stroke:#181818;stroke-width:1;"/><!--SRC=[RP5DIm9H58RtyolEKYa6Qgb8ID0oshLG5rUzviNfZinSQsjGuA1HgnGpBCeQWZv0Z4Z9_nBTE-xy2vsPKUbhTU1yFEzxpX5C61JaeoEFNFbs8cjDTLrLWxeQ77XkNTFi4kDbOf5To99SQSSoApo_RXgc1S8YtCOIvGBR1B645fEr2tbNbuqps3Qj4YGWkKUOGR86JVCDnfbTn5ogG0oRBiCiwBgUYMiMBLCYD82OwlQKypuPdwC-RB7fgA66LvEN_dJKJlCL7K9EYcKWaGWPQRwgmoQbUJ_vuTm4ud5aiG94a2LhpmYAWYXIZedMKnHhg3Jp68GbI1g6cIE2cHmnSxk13AvQeJwFeXX4vEbj20ZnLTLnVfhos_-eePxN7th3RdXhN4i-j6J7_NxwUD3vIsKn-Fbwl9XLpSj_1dcU5RHv32yA-qM63uvCnYtqgJht_dkxFQzz65vuBOg_CyjV]--></g></svg>