<svg xmlns="http://www.w3.org/2000/svg" xmlns:xlink="http://www.w3.org/1999/xlink" contentStyleType="text/css" height="963.5417px" preserveAspectRatio="none" style="width:1151px;height:963px;" version="1.1" viewBox="0 0 1151 963" width="1151.0417px" zoomAndPan="magnify"><defs/><g><polygon fill="none" points="15.625,11.4583,15.625,11.6773,26.066,11.0267,36.507,11.6597,46.948,11.8747,57.389,10.7152,67.83,11.3774,78.271,11.0141,88.712,11.0589,99.153,11.3873,109.594,10.7382,120.035,12.035,130.4761,10.8018,140.9171,11.2523,151.3581,11.9083,161.7991,11.369,172.2401,11.5294,182.6811,11.4251,193.1221,11.6443,203.5631,11.7074,214.0041,12.0684,224.4451,12.1573,234.8861,12.1659,245.3271,11.7236,255.7681,11.9412,266.2091,12.1898,276.6501,10.7071,287.0911,12.1651,297.5321,11.1495,307.9731,12.0144,318.4141,10.9427,328.8551,11.387,339.2961,12.2308,349.7371,11.4076,360.1782,11.568,370.6192,11.8111,381.0602,11.8919,391.5012,11.4543,401.9422,11.7575,412.3832,10.8621,422.8242,11.7546,433.2652,12.0294,443.7062,11.9214,454.1472,12.0969,464.5882,10.9551,475.0292,10.779,485.4702,10.811,495.9112,11.397,506.3522,11.2536,516.7932,12.1681,527.2342,11.2764,537.6752,11.101,548.1162,11.6961,558.5572,10.7637,568.9982,10.9176,579.4393,12.1343,589.8803,11.9122,600.3213,12.2234,610.7623,11.1231,621.2033,11.7908,631.6443,12.0734,642.0853,10.9662,652.5263,11.3585,662.9673,11.5896,673.4083,12.1372,683.8493,11.454,694.2903,11.9402,704.7313,10.8815,715.1723,10.7529,725.6133,11.9829,736.0543,10.7115,746.4953,11.9885,756.9363,11.6736,767.3773,11.1793,777.8183,11.0898,788.2593,11.9362,798.7004,11.1465,809.1414,12.0749,819.5824,10.8826,830.0234,12.1015,840.4644,11.9628,850.9054,11.7135,861.3464,11.5075,871.7874,12.2152,882.2284,12.0975,892.6694,11.6346,903.1104,11.7377,913.5514,11.3226,923.9924,12.2046,934.4334,11.6197,944.8744,11.6381,955.3154,10.8246,965.7564,11.0362,976.1974,12.0112,986.6384,11.906,997.0794,11.4136,1007.5204,11.1227,1017.9614,11.2303,1028.4025,10.7436,1038.8435,11.8904,1049.2845,12.2287,1059.7255,12.0067,1070.1665,12.1822,1080.6075,11.3159,1091.0485,11.5492,1101.4895,11.0546,1111.9305,11.7542,1122.3715,11.7154,1132.8125,11.4583,1133.0043,11.4583,1132.7328,16.4518,1132.7658,21.4453,1132.9665,26.4388,1133.0095,31.4323,1132.8125,36.4258,1132.8125,35.8919,1122.3715,36.2238,1111.9305,36.5813,1101.4895,35.7895,1091.0485,36.7939,1080.6075,36.6945,1070.1665,36.3208,1059.7255,36.574,1049.2845,37.1848,1038.8435,36.0999,1028.4025,36.7539,1017.9614,36.7233,1007.5204,36.5464,997.0794,36.5726,986.6384,36.544,976.1974,35.7756,965.7564,36.0083,955.3154,35.945,944.8744,36.4923,934.4334,36.5176,923.9924,36.5943,913.5514,36.1227,903.1104,36.3554,892.6694,36.3006,882.2284,37.0267,871.7874,36.8701,861.3464,35.92,850.9054,36.3498,840.4644,35.8245,830.0234,36.7262,819.5824,37.0596,809.1414,36.993,798.7004,35.9721,788.2593,36.9091,777.8183,35.652,767.3773,36.6343,756.9363,36.114,746.4953,36.5265,736.0543,36.6761,725.6133,36.9176,715.1723,35.6759,704.7313,36.9211,694.2903,36.6114,683.8493,36.7959,673.4083,37.2047,662.9673,36.4315,652.5263,36.6084,642.0853,36.6481,631.6443,36.6312,621.2033,36.4249,610.7623,37.1661,600.3213,35.7906,589.8803,37.0146,579.4393,35.7758,568.9982,35.863,558.5572,36.4675,548.1162,36.4552,537.6752,35.9124,527.2342,36.8567,516.7932,36.5392,506.3522,37.1827,495.9112,37.1207,485.4702,35.9588,475.0292,36.0113,464.5882,36.2912,454.1472,36.7961,443.7062,36.8456,433.2652,36.7395,422.8242,36.0696,412.3832,37.0887,401.9422,37.086,391.5012,36.3765,381.0602,36.1768,370.6192,36.0077,360.1782,36.2023,349.7371,36.5689,339.2961,36.3545,328.8551,35.9906,318.4141,36.9335,307.9731,35.9477,297.5321,36.9491,287.0911,36.8708,276.6501,36.8131,266.2091,37.1471,255.7681,36.1697,245.3271,36.1126,234.8861,36.9663,224.4451,35.804,214.0041,36.182,203.5631,36.5461,193.1221,36.4973,182.6811,36.0524,172.2401,36.381,161.7991,37.2014,151.3581,37.1013,140.9171,35.8047,130.4761,36.5076,120.035,35.8905,109.594,36.3984,99.153,36.731,88.712,36.8631,78.271,35.7334,67.83,36.843,57.389,36.4345,46.948,35.8473,36.507,35.9351,26.066,36.766,15.625,36.4258,15.7118,36.4258,15.6193,31.4323,15.3916,26.4388,15.8535,21.4453,15.5167,16.4518,15.625,11.4583" style="stroke:none;stroke-width:1.0416666666666667;"/><polygon fill="#17A2B8" points="68.8075,54.5845,67.2806,56.6708,65.4746,59.7266,62.8917,61.786,60.1774,62.9122,58.0133,63.0099,55.2317,61.6015,52.6072,60.6814,50.6151,58.8133,49.5701,56.6746,48.9504,54.9717,48.3433,52.7475,47.3579,50.8334,48.1152,48.9646,48.7786,46.9175,51.2683,45.2984,53.0199,43.1977,55.1879,42.5001,57.7653,41.8993,61.0705,42.2562,62.8808,43.11,64.9855,43.497,67.5447,46.1189,68.4368,48.8869,68.8244,50.7755,68.3854,53.8878" style="stroke:#2E2E2E;stroke-width:1.0416666666666667;"/><polygon fill="none" points="26.0417,83.3008,26.0417,83.5197,36.8056,82.8692,47.5694,83.5021,58.3333,83.7171,69.0972,82.5577,79.8611,83.2198,90.625,83.3008,90.5683,83.164,91.1633,83.4218,91.7945,83.7671,92.3009,83.8112,93.0556,84.4547,93.5713,84.5212,93.3691,84.4374,93.7519,85.0841,94.198,85.7571,94.276,86.2775,94.5695,86.8873,94.7917,87.4674,94.7806,87.4674,94.8537,93.2943,94.8747,99.1211,94.995,104.9479,95.0247,110.7747,94.7917,116.6016,95.0096,116.6918,94.6293,117.2247,94.4522,117.8417,94.2847,118.4626,93.584,118.8628,93.5713,119.5478,93.6614,119.7655,92.9426,119.6968,92.4637,120.2072,91.7377,120.1213,91.2052,120.5022,90.625,120.7682,90.625,121.5407,79.8611,120.7175,69.0972,120.8779,58.3333,121.121,47.5694,121.2018,36.8056,120.7642,26.0417,120.7682,26.0798,120.8604,25.3764,120.3405,24.9009,120.3713,24.3467,120.2119,23.7437,119.9345,23.0954,119.5478,23.292,119.6293,22.6963,118.8944,22.398,118.2827,22.1638,117.6975,22.1002,117.183,21.875,116.6016,21.8068,116.6016,22.1116,110.7747,21.8143,104.9479,21.7559,99.1211,21.9543,93.2943,21.875,87.4674,21.6611,87.3788,21.9525,86.8092,22.5713,86.3752,22.747,85.7576,23.0869,85.208,23.0954,84.5212,23.0526,84.4179,23.7271,84.3795,24.3524,84.2224,24.8004,83.6374,25.4397,83.5141,26.0417,83.3008" style="stroke:#333333;stroke-width:1.0416666666666667;"/><text fill="#2E2E2E" font-family="Segoe Print" font-size="12.5" lengthAdjust="spacing" textLength="50" x="33.3333" y="106.3619">&#25191;&#34892;&#25805;&#20316;</text><path d="M15.625,11.4583 L15.9169,11.4583 L15.0496,21.9059 L15.8935,32.3535 L16.1801,42.8011 L14.6342,53.2487 L15.5171,63.6963 L15.0326,74.1439 L15.0924,84.5915 L15.5303,95.0391 L14.6648,105.4867 L16.3939,115.9342 L14.7496,126.3818 L15.3503,136.8294 L16.2249,147.277 L15.5059,157.7246 L15.7198,168.1722 L15.5806,178.6198 L15.873,189.0674 L15.9571,199.515 L16.4385,209.9626 L16.557,220.4102 L16.5684,230.8577 L15.9786,241.3053 L16.2689,251.7529 L16.6003,262.2005 L14.6234,272.6481 L16.5674,283.0957 L15.2132,293.5433 L16.3664,303.9909 L14.9375,314.4385 L15.5299,324.8861 L16.655,335.3337 L15.5573,345.7813 L15.7713,356.2288 L16.0953,366.6764 L16.2031,377.124 L15.6196,387.5716 L16.0239,398.0192 L14.83,408.4668 L16.02,418.9144 L16.3864,429.362 L16.2424,439.8096 L16.4764,450.2572 L14.9541,460.7048 L14.7192,471.1523 L14.7619,481.5999 L15.5432,492.0475 L15.352,502.4951 L16.5714,512.9427 L15.3824,523.3903 L15.1485,533.8379 L15.942,544.2855 L14.6988,554.7331 L14.904,565.1807 L16.5263,575.6283 L16.2301,586.0758 L16.6451,596.5234 L15.1781,606.971 L16.0683,617.4186 L16.445,627.8662 L14.9689,638.3138 L15.4919,648.7614 L15.8,659.209 L16.5302,669.6566 L15.6192,680.1042 L16.2675,690.5518 L14.8559,700.9993 L14.6844,711.4469 L16.3245,721.8945 L14.6292,732.3421 L16.3319,742.7897 L15.912,753.2373 L15.2529,763.6849 L15.1336,774.1325 L16.2622,784.5801 L15.2093,795.0277 L16.447,805.4753 L14.8573,815.9229 L16.4825,826.3704 L16.2976,836.818 L15.9652,847.2656 L15.6906,857.7132 L16.6342,868.1608 L16.4772,878.6084 L15.8601,889.056 L15.9975,899.5036 L15.4441,909.9512 L16.6201,920.3988 L15.8401,930.8464 L15.8647,941.2939 L15.625,951.7415 " fill="none" style="stroke:#17A2B8;stroke-width:2.0833333333333335;"/><polygon fill="none" points="305.2083,141.6016,305.2083,141.8205,315.7083,141.17,326.2083,141.8029,336.7083,142.0179,347.2083,140.8584,357.7083,141.5206,368.2083,141.1573,378.7083,141.2021,389.2083,141.5306,399.7083,140.8814,410.2083,142.1783,420.7083,140.945,431.2083,141.3956,441.7083,142.0515,452.2083,141.5122,462.7083,141.6726,473.2083,141.5683,483.7083,141.7875,494.2083,141.8507,504.7083,142.2117,515.2083,142.3006,525.7083,142.3091,536.2083,141.8668,546.7083,142.0845,557.2083,142.3331,567.7083,141.6016,567.6125,141.3702,568.3877,142.0633,568.8474,141.9946,569.547,142.505,569.9996,142.4191,570.6546,142.822,570.6326,142.8128,571.1366,143.5097,571.1271,143.994,571.4206,144.6037,571.7396,145.224,571.875,145.7682,572.0195,145.7682,571.8736,151.5951,571.9747,157.4219,571.6762,163.2487,571.9737,169.0755,571.875,174.9023,572.0509,174.9752,571.7735,175.5507,571.5835,176.1623,570.9878,176.6059,570.6895,177.1727,570.6546,177.8486,570.572,177.6493,570.0575,178.0738,569.45,178.2737,568.9774,178.7994,568.2744,178.7689,567.7083,179.069,567.7083,178.7117,557.2083,179.3068,546.7083,178.3744,536.2083,178.5283,525.7083,179.745,515.2083,179.5228,504.7083,179.8341,494.2083,178.7338,483.7083,179.4015,473.2083,179.684,462.7083,178.5769,452.2083,178.9692,441.7083,179.2002,431.2083,179.7479,420.7083,179.0646,410.2083,179.5509,399.7083,178.4922,389.2083,178.3635,378.7083,179.5936,368.2083,178.3222,357.7083,179.5992,347.2083,179.2842,336.7083,178.7899,326.2083,178.7005,315.7083,179.5469,305.2083,179.069,305.1686,178.973,304.6977,179.0148,303.9564,178.4035,303.5226,178.5348,302.9157,178.2481,302.2621,177.8486,302.3406,177.8812,302.0331,177.2656,302.007,176.7667,301.7267,176.1624,301.34,175.5141,301.0417,174.9023,301.1348,174.9023,300.9964,169.0755,301.2904,163.2487,301.0954,157.4219,301.1016,151.5951,301.0417,145.7682,300.8465,145.6874,301.1558,145.1251,301.7001,144.6602,301.9118,144.0576,302.0042,143.4055,302.2621,142.822,302.2192,142.7186,302.8222,142.5076,303.3494,142.1137,304.0849,142.2228,304.7173,142.0829,305.2083,141.6016" style="stroke:#333333;stroke-width:1.0416666666666667;"/><text fill="#2E2E2E" font-family="Segoe Print" font-size="12.5" lengthAdjust="spacing" textLength="247.9167" x="312.5" y="164.6627">&#22312;&#26412;&#22320;&#24212;&#29992;&#25805;&#20316; (apply operation locally)</text><polygon fill="none" points="370.8333,199.9023,370.8333,200.1213,380.9295,199.4708,391.0256,200.1037,401.1218,200.3187,411.2179,199.1592,421.3141,199.8214,431.4103,199.4581,441.5064,199.5029,451.6026,199.8313,461.6987,199.1822,471.7949,200.4791,481.891,199.2458,491.9872,199.6963,502.0833,199.9023,502.1894,200.0084,504.5623,202.3813,507.1001,204.9191,509.5755,207.3945,512.1272,209.9462,514.5833,212.4023,514.642,212.4611,512.2271,215.0461,509.7481,217.5671,507.2501,220.0691,504.6459,222.4649,502.0833,224.9023,502.0833,225.3852,491.9872,225.6338,481.891,224.1511,471.7949,225.6091,461.6987,224.5935,451.6026,225.4584,441.5064,224.3867,431.4103,224.831,421.3141,225.6748,411.2179,224.8516,401.1218,225.012,391.0256,225.2551,380.9295,225.3359,370.8333,224.9023,370.8324,224.9014,368.4039,222.4729,365.6928,219.7618,363.4032,217.4722,360.9679,215.0369,358.3333,212.4023,358.4425,212.5115,360.9838,210.0529,363.2147,207.2837,365.6732,204.7422,368.1808,202.2498,370.8333,199.9023" style="stroke:#4D4D4D;stroke-width:1.0416666666666667;"/><text fill="#2E2E2E" font-family="Segoe Print" font-size="12.5" lengthAdjust="spacing" textLength="25" x="376.0417" y="216.7297">&#26159;&#21542;</text><text fill="#008000" font-family="Segoe Print" font-size="12.5" lengthAdjust="spacing" textLength="85.4167" x="405.2083" y="216.7297">Synchronized</text><text fill="#2E2E2E" font-family="Segoe Print" font-size="12.5" lengthAdjust="spacing" textLength="6.25" x="490.625" y="216.7297">?</text><text fill="#2E2E2E" font-family="Segoe Print" font-size="12.5" lengthAdjust="spacing" textLength="21.875" x="331.25" y="204.246">yes</text><text fill="#2E2E2E" font-family="Segoe Print" font-size="12.5" lengthAdjust="spacing" textLength="16.6667" x="519.7917" y="204.246">no</text><polygon fill="none" points="109.375,235.319,109.375,235.5379,119.8289,234.8874,130.2827,235.5204,140.7366,235.7353,151.1905,234.5759,161.6443,235.2381,172.0982,234.8747,182.5521,234.9195,193.006,235.248,203.4598,234.5988,213.9137,235.8957,224.3676,234.6625,234.8214,235.113,245.2753,235.769,255.7292,235.2297,266.183,235.3901,276.6369,235.2857,287.0908,235.505,297.5446,235.5681,307.9985,235.9291,318.4524,236.018,328.9063,236.0266,339.3601,235.5842,349.814,235.8019,360.2679,236.0505,370.7217,234.5678,381.1756,236.0258,391.6295,235.0102,402.0833,235.319,402.1543,235.4903,402.6068,235.4043,403.2527,235.7852,403.9496,236.2891,404.4339,236.2797,405.0296,236.5394,405.0634,236.5534,405.3823,237.1737,405.6513,237.7732,405.7606,238.3066,406.0981,238.9346,406.25,239.4857,406.0512,239.4857,406.3487,245.3125,406.4403,251.1393,406.4044,256.9661,406.4629,262.793,406.25,268.6198,406.095,268.5556,405.7967,269.1224,405.5625,269.7157,405.4989,270.3797,405.2106,270.9507,405.0296,271.5661,405.1202,271.7847,404.4171,271.7541,403.8055,271.9442,403.2922,272.3715,402.584,272.3285,402.0833,272.7865,402.0833,272.2457,391.6295,273.4624,381.1756,273.2403,370.7217,273.5516,360.2679,272.4513,349.814,273.119,339.3601,273.4015,328.9063,272.2944,318.4524,272.6866,307.9985,272.9177,297.5446,273.4654,287.0908,272.7821,276.6369,273.2683,266.183,272.2096,255.7292,272.081,245.2753,273.3111,234.8214,272.0396,224.3676,273.3166,213.9137,273.0017,203.4598,272.5074,193.006,272.4179,182.5521,273.2643,172.0982,272.4747,161.6443,273.403,151.1905,272.2107,140.7366,273.4296,130.2827,273.2909,119.8289,273.0416,109.375,272.7865,109.3813,272.8016,108.8823,272.7755,108.278,272.4951,107.6297,272.1085,107.0536,271.8962,106.4287,271.5661,106.3869,271.5488,106.4145,271.072,105.9902,270.4081,105.7518,269.8212,105.2573,269.1282,105.2083,268.6198,105.0676,268.6198,105.3926,262.793,105.3576,256.9661,105.1934,251.1393,105.0965,245.3125,105.2083,239.4857,105.1381,239.4566,105.2323,238.8052,105.8295,238.3623,106.1778,237.8162,106.3535,237.1986,106.4287,236.5394,106.5211,236.7623,106.9998,236.2515,107.6188,236.0792,108.145,235.6828,108.8235,235.6542,109.375,235.319" style="stroke:#333333;stroke-width:1.0416666666666667;"/><text fill="#2E2E2E" font-family="Segoe Print" font-size="12.5" lengthAdjust="spacing" textLength="278.125" x="116.6667" y="258.3801">&#21457;&#36865;&#25805;&#20316;&#21040;&#26381;&#21153;&#22120; (Send operation to server)</text><polygon fill="none" points="167.7083,309.2448,167.7083,309.4637,178.0637,308.8132,188.4191,309.4461,198.7745,309.6611,209.1299,308.5017,219.4853,309.1638,229.8407,308.8005,240.1961,308.8453,250.5515,309.1738,260.9069,308.5246,271.2623,309.8215,281.6176,308.5882,291.973,309.0388,302.3284,309.6947,312.6838,309.1554,323.0392,309.3159,333.3946,309.2115,343.75,309.2448,343.7737,309.3021,344.371,309.5656,345.0063,309.9208,345.6069,310.1923,346.1973,310.439,346.6963,310.4652,346.778,310.499,347.0891,311.116,347.4097,311.737,347.1972,312.1371,347.8902,312.9124,347.9167,313.4115,347.8137,313.4115,348.102,319.2383,347.7448,325.0651,347.8929,330.8919,348.1742,336.7188,347.9167,342.5456,347.901,342.5391,347.7064,343.1488,347.5371,343.7691,347.318,344.3686,346.9391,344.9021,346.6963,345.4919,346.7344,345.584,346.031,345.5523,345.5556,346.0712,345.0014,346.3999,344.3983,346.6108,343.75,346.7122,343.75,347.3508,333.3946,346.209,323.0392,346.0329,312.6838,346.0649,302.3284,346.6509,291.973,346.5075,281.6176,347.422,271.2623,346.5303,260.9069,346.3549,250.5515,346.95,240.1961,346.0176,229.8407,346.1715,219.4853,347.3882,209.1299,347.1661,198.7745,347.4773,188.4191,346.377,178.0637,347.0447,167.7083,346.7122,167.7868,346.9016,167.0563,346.3166,166.5171,346.1933,165.9573,346.0204,165.4379,345.945,164.7621,345.4919,164.7607,345.4913,164.6664,344.9641,164.0963,344.2398,163.8126,343.6341,163.9473,343.2017,163.5417,342.5456,163.2927,342.5456,163.7184,336.7188,163.6134,330.8919,163.4486,325.0651,163.4188,319.2383,163.5417,313.4115,163.6888,313.4724,163.6897,312.7824,164.2197,312.3116,164.0966,311.5702,164.716,311.1365,164.7621,310.4652,164.8264,310.6205,165.3839,310.2997,165.9468,309.9922,166.6264,309.966,167.2006,309.6857,167.7083,309.2448" style="stroke:#333333;stroke-width:1.0416666666666667;"/><text fill="#2E2E2E" font-family="Segoe Print" font-size="12.5" lengthAdjust="spacing" textLength="50" x="175" y="332.3059">&#29366;&#24577;&#21464;&#20026;</text><text fill="#FA930C" font-family="Segoe Print" font-size="12.5" lengthAdjust="spacing" textLength="107.2917" x="229.1667" y="332.3059">Awaiting Confirm</text><polygon fill="none" points="534.375,235.319,534.375,235.5379,544.7266,234.8874,555.0781,235.5204,565.4297,235.7353,575.7813,234.5759,586.1328,235.2381,596.4844,234.8747,606.8359,234.9195,617.1875,235.248,627.5391,234.5988,637.8906,235.8957,648.2422,234.6625,658.5938,235.113,668.9453,235.769,679.2969,235.2297,689.6484,235.3901,700,235.319,699.9922,235.3112,702.5438,237.8628,705.0587,240.3777,707.6438,242.9628,710.1648,245.4838,712.5,247.819,712.6668,247.9858,710.0625,250.3815,707.6138,252.9328,705.1724,255.4914,702.3229,257.6419,700,260.319,700,261.0258,689.6484,260.0102,679.2969,260.8751,668.9453,259.8034,658.5938,260.2477,648.2422,261.0915,637.8906,260.2682,627.5391,260.4287,617.1875,260.6717,606.8359,260.7526,596.4844,260.3149,586.1328,260.6182,575.7813,259.7227,565.4297,260.6152,555.0781,260.89,544.7266,260.7821,534.375,260.319,534.5255,260.4695,531.7564,257.7004,529.2149,255.1589,526.7224,252.6664,524.3605,250.3046,521.875,247.819,521.8267,247.7708,524.5423,245.4863,526.8321,242.7761,529.2908,240.2348,531.931,237.8751,534.375,235.319" style="stroke:#4D4D4D;stroke-width:1.0416666666666667;"/><text fill="#2E2E2E" font-family="Segoe Print" font-size="12.5" lengthAdjust="spacing" textLength="37.5" x="539.5833" y="252.1464">&#26159;&#21542;&#22312;</text><text fill="#FA930C" font-family="Segoe Print" font-size="12.5" lengthAdjust="spacing" textLength="107.2917" x="581.25" y="252.1464">Awaiting Confirm</text><text fill="#2E2E2E" font-family="Segoe Print" font-size="12.5" lengthAdjust="spacing" textLength="6.25" x="688.5417" y="252.1464">?</text><text fill="#2E2E2E" font-family="Segoe Print" font-size="12.5" lengthAdjust="spacing" textLength="21.875" x="494.7917" y="239.6627">yes</text><text fill="#2E2E2E" font-family="Segoe Print" font-size="12.5" lengthAdjust="spacing" textLength="129.1667" x="717.7083" y="239.6627">Awaiting With Buffer</text><polygon fill="none" points="441.6667,270.7357,441.6667,270.9546,452.4038,270.3041,463.141,270.937,473.8782,271.152,484.6154,269.9926,495.3526,270.6547,506.0897,270.2914,516.8269,270.3362,527.5641,270.6647,538.3013,270.0155,549.0385,271.3124,559.7756,270.0791,570.5128,270.5297,581.25,270.7357,581.3074,270.8742,581.8279,270.9522,582.4376,271.2457,583.0135,271.4577,583.6307,271.7693,584.1963,271.9561,584.273,271.9878,584.6282,272.6231,584.8997,273.2237,585.1464,273.8141,585.2543,274.3469,585.4167,274.9023,585.5776,274.9023,585.6605,280.7292,585.1663,286.556,585.6523,292.3828,585.3137,298.2096,585.4167,304.0365,585.5879,304.1074,585.0138,304.5599,584.9065,305.2059,584.9223,305.9028,584.4247,306.387,584.1963,306.9827,584.2103,307.0165,583.652,307.3354,583.0731,307.6044,582.428,307.7137,581.8774,308.0512,581.25,308.2031,581.25,307.6069,570.5128,308.4994,559.7756,308.7742,549.0385,308.6662,538.3013,308.8417,527.5641,307.6999,516.8269,307.5238,506.0897,307.5558,495.3526,308.1418,484.6154,307.9984,473.8782,308.9129,463.141,308.0212,452.4038,307.8458,441.6667,308.2031,441.697,308.2764,440.9888,307.7451,440.4192,307.5484,439.9851,307.6791,439.3675,307.3666,438.7204,306.9827,438.956,307.0803,438.3731,306.3507,438.3346,305.8466,438.1776,305.2934,437.5925,304.5629,437.5,304.0365,437.4667,304.0365,437.5437,298.2096,437.7263,292.3828,437.4985,286.556,437.6606,280.7292,437.5,274.9023,437.3224,274.8288,437.5268,274.2231,438.1497,273.7908,438.0022,273.0393,438.6396,272.613,438.7204,271.9561,438.7478,272.0224,439.274,271.626,439.8519,271.3544,440.5491,271.371,441.0376,270.8837,441.6667,270.7357" style="stroke:#333333;stroke-width:1.0416666666666667;"/><text fill="#2E2E2E" font-family="Segoe Print" font-size="12.5" lengthAdjust="spacing" textLength="125" x="448.9583" y="293.7968">&#32452;&#21512;&#25805;&#20316;&#19982;&#24453;&#30830;&#35748;&#25805;&#20316;</text><polygon fill="none" points="665.625,270.7357,665.625,270.9546,676.0417,270.3041,686.4583,270.937,696.875,271.152,707.2917,269.9926,717.7083,270.6547,728.125,270.2914,738.5417,270.3362,748.9583,270.6647,759.375,270.0155,769.7917,271.3124,780.2083,270.7357,780.1246,270.5335,780.7713,270.9163,781.4442,271.3624,781.9647,271.4404,782.5744,271.7339,783.1546,271.9561,783.1444,271.9518,783.456,272.569,783.7195,273.1664,784.0747,273.8017,784.3462,274.4023,784.375,274.9023,784.6109,274.9023,784.4634,280.7292,784.536,286.556,784.6188,292.3828,784.1246,298.2096,784.375,304.0365,784.5927,304.1266,784.0358,304.5863,784.0581,305.2859,783.484,305.7384,783.3767,306.3844,783.1546,306.9827,783.2532,307.2206,782.5589,307.2112,781.9901,307.5047,781.4318,307.8236,780.8529,308.0926,780.2083,308.2031,780.2083,308.1991,769.7917,308.5023,759.375,307.6069,748.9583,308.4994,738.5417,308.7742,728.125,308.6662,717.7083,308.8417,707.2917,307.6999,696.875,307.5238,686.4583,307.5558,676.0417,308.1418,665.625,308.2031,665.5989,308.1401,665.1263,308.1776,664.4233,307.6589,663.8116,307.3608,663.2983,307.3,662.6787,306.9827,662.4648,306.8941,662.2681,306.3245,662.3987,305.8905,662.0862,305.2729,661.938,304.7233,661.4583,304.0365,661.3466,304.0365,661.5692,298.2096,661.6633,292.3828,661.2943,286.556,661.425,280.7292,661.4583,274.9023,661.4987,274.9191,661.9115,274.3997,661.9451,273.7233,662.339,273.196,662.257,272.4717,662.6787,271.9561,662.5887,271.7388,663.3349,271.8735,663.762,271.2379,664.5141,271.3871,665.0632,271.046,665.625,270.7357" style="stroke:#333333;stroke-width:1.0416666666666667;"/><text fill="#2E2E2E" font-family="Segoe Print" font-size="12.5" lengthAdjust="spacing" textLength="100" x="672.9167" y="293.7968">&#32452;&#21512;&#25805;&#20316;&#19982;&#32531;&#20914;&#21306;</text><polygon fill="none" points="617.1875,324.8698,617.2391,324.9214,619.5858,327.2681,622.235,329.9172,624.7856,332.4679,627.0123,334.6946,629.6875,337.3698,629.6684,337.3507,627.0828,339.7651,624.5933,342.2756,622.1708,344.8531,619.5178,347.2,617.1875,349.8698,617.3234,350.0057,614.5328,347.215,612.1389,344.8212,609.7936,342.4758,607.1664,339.8487,604.6875,337.3698,604.7043,337.3865,607.1797,334.8619,609.7313,332.4136,612.2462,329.9285,614.8313,327.5136,617.1875,324.8698" style="stroke:#4D4D4D;stroke-width:1.0416666666666667;"/><polygon fill="none" points="436.4583,360.2865,436.5099,360.3381,438.8566,362.6847,441.5058,365.3339,444.0565,367.8846,446.2832,370.1113,448.9583,372.7865,448.9393,372.7674,446.3536,375.1817,443.8642,377.6923,441.4416,380.2697,438.7886,382.6167,436.4583,385.2865,436.5943,385.4224,433.8036,382.6317,431.4098,380.2379,429.0644,377.8925,426.4373,375.2654,423.9583,372.7865,423.9751,372.8032,426.4505,370.2786,429.0022,367.8303,431.517,365.3452,434.1021,362.9303,436.4583,360.2865" style="stroke:#4D4D4D;stroke-width:1.0416666666666667;"/><polygon fill="none" points="390.625,741.39,390.625,741.6089,400.8102,740.9584,410.9954,741.5913,421.1806,741.8063,431.3657,740.6469,441.5509,741.309,451.7361,740.9457,461.9213,740.9905,472.1065,741.319,482.2917,741.39,482.1219,741.2202,484.9276,744.0259,487.1369,746.2352,489.7431,748.8414,492.3977,751.496,494.7917,753.89,494.7706,753.8689,492.3084,756.4067,489.7838,758.8821,487.3355,761.4338,484.8504,763.9487,482.2917,766.39,482.2917,767.0001,472.1065,767.089,461.9213,767.0975,451.7361,766.6552,441.5509,766.8729,431.3657,767.1215,421.1806,765.6387,410.9954,767.0968,400.8102,766.0811,390.625,766.39,390.7561,766.521,388.0035,763.7684,385.6082,761.3732,383.3071,759.0721,380.613,756.378,378.125,753.89,378.1509,753.9158,380.7081,751.4731,383.2272,748.9922,385.624,746.389,388.1955,743.9605,390.625,741.39" style="stroke:#4D4D4D;stroke-width:1.0416666666666667;"/><text fill="#2E2E2E" font-family="Segoe Print" font-size="12.5" lengthAdjust="spacing" textLength="81.25" x="395.8333" y="758.2174">&#26377;&#32531;&#20914;&#30340;&#25805;&#20316;?</text><text fill="#2E2E2E" font-family="Segoe Print" font-size="12.5" lengthAdjust="spacing" textLength="21.875" x="351.0417" y="745.7336">yes</text><text fill="#2E2E2E" font-family="Segoe Print" font-size="12.5" lengthAdjust="spacing" textLength="16.6667" x="500" y="745.7336">no</text><polygon fill="none" points="263.2813,776.8066,263.2813,777.0256,273.4201,776.3751,283.559,777.008,293.6979,777.223,303.8368,776.0635,313.9757,776.7257,324.1146,776.3624,334.2535,776.4072,344.3924,776.7356,354.5313,776.0865,364.6701,777.3834,374.809,776.1501,384.9479,776.6006,395.0868,777.2566,405.2257,776.7173,415.3646,776.8066,415.3737,776.8285,415.9496,777.0405,416.5668,777.3521,417.1641,777.6156,417.7994,777.9708,418.3109,778.027,418.5261,778.1162,418.7728,778.7065,418.8807,779.2394,419.1918,779.8564,419.5124,780.4774,419.5313,780.9733,419.2808,780.9733,419.7668,786.8001,419.4283,792.627,419.7166,798.4538,419.3594,804.2806,419.5313,810.1074,419.5093,810.0983,419.5251,810.7952,419.0275,811.2795,418.8328,811.8892,418.6636,812.5094,418.3109,813.0537,418.3662,813.1872,417.7211,813.2965,417.1705,813.634,416.467,813.6023,415.9916,814.1212,415.3646,814.2741,415.3646,814.8451,405.2257,814.7371,395.0868,814.9127,384.9479,813.7709,374.809,813.5947,364.6701,813.6268,354.5313,814.2128,344.3924,814.0694,334.2535,814.9839,324.1146,814.0921,313.9757,813.9167,303.8368,814.5119,293.6979,813.5795,283.559,813.7333,273.4201,814.9501,263.2813,814.2741,263.3391,814.4138,262.7896,814.2656,262.06,813.6827,261.5559,813.6443,261.0027,813.4872,260.335,813.0537,260.1834,812.9909,260.0601,812.4517,259.8872,811.8919,259.8118,811.3725,259.3573,810.6961,259.1146,810.1074,259.2752,810.1074,258.9223,804.2806,258.8794,798.4538,259.2894,792.627,258.8656,786.8001,259.1146,780.9733,259.2779,781.0409,259.4249,780.4115,259.5168,779.7592,259.7333,779.1585,260.2381,778.6772,260.335,778.027,260.2952,777.931,261.0029,777.9728,261.44,777.3616,262.1848,777.4929,262.7563,777.2061,263.2813,776.8066" style="stroke:#333333;stroke-width:1.0416666666666667;"/><text fill="#2E2E2E" font-family="Segoe Print" font-size="12.5" lengthAdjust="spacing" textLength="137.5" x="270.5729" y="799.8678">&#21457;&#36865;&#32531;&#20914;&#30340;&#25805;&#20316;&#21040;&#26381;&#21153;&#22120;</text><polygon fill="none" points="251.3021,835.1074,251.3021,835.3264,261.6575,834.6758,272.0129,835.3088,282.3683,835.5238,292.7237,834.3643,303.079,835.0265,313.4344,834.6632,323.7898,834.7079,334.1452,835.0364,344.5006,834.3872,354.856,835.6841,365.2114,834.4509,375.5668,834.9014,385.9222,835.5574,396.2776,835.0181,406.633,835.1785,416.9884,835.0741,427.3438,835.1074,427.3675,835.1647,427.9648,835.4282,428.6001,835.7835,429.2007,836.0549,429.791,836.3016,430.29,836.3278,430.3717,836.3616,430.6828,836.9787,431.0035,837.5996,430.7909,837.9997,431.484,838.775,431.5104,839.2741,431.4075,839.2741,431.6958,845.1009,431.3385,850.9277,431.4866,856.7546,431.7679,862.5814,431.5104,868.4082,431.4948,868.4017,431.3001,869.0115,431.1309,869.6317,430.9117,870.2313,430.5329,870.7647,430.29,871.3545,430.3282,871.4466,429.6247,871.4149,429.1493,871.9339,428.5951,872.2626,427.9921,872.4734,427.3438,872.5749,427.3438,873.2134,416.9884,872.0717,406.633,871.8955,396.2776,871.9276,385.9222,872.5135,375.5668,872.3702,365.2114,873.2847,354.856,872.3929,344.5006,872.2175,334.1452,872.8126,323.7898,871.8802,313.4344,872.0341,303.079,873.2509,292.7237,873.0287,282.3683,873.34,272.0129,872.2397,261.6575,872.9074,251.3021,872.5749,251.3805,872.7643,250.6501,872.1792,250.1108,872.056,249.5511,871.8831,249.0317,871.8076,248.3558,871.3545,248.3545,871.3539,248.2601,870.8267,247.69,870.1024,247.4063,869.4967,247.541,869.0644,247.1354,868.4082,246.8865,868.4082,247.3121,862.5814,247.2072,856.7546,247.0424,850.9277,247.0126,845.1009,247.1354,839.2741,247.2826,839.335,247.2835,838.6451,247.8134,838.1742,247.6903,837.4329,248.3098,836.9991,248.3558,836.3278,248.4202,836.4832,248.9776,836.1623,249.5406,835.8548,250.2201,835.8287,250.7944,835.5483,251.3021,835.1074" style="stroke:#333333;stroke-width:1.0416666666666667;"/><text fill="#2E2E2E" font-family="Segoe Print" font-size="12.5" lengthAdjust="spacing" textLength="50" x="258.5938" y="858.1685">&#29366;&#24577;&#21464;&#20026;</text><text fill="#FA930C" font-family="Segoe Print" font-size="12.5" lengthAdjust="spacing" textLength="107.2917" x="312.7604" y="858.1685">Awaiting Confirm</text><polygon fill="none" points="456.5104,776.8066,456.5104,777.0256,466.7882,776.3751,477.066,777.008,487.3438,777.223,497.6215,776.0635,507.8993,776.7257,518.1771,776.3624,528.4549,776.4072,538.7326,776.7356,549.0104,776.0865,559.2882,777.3834,569.566,776.1501,579.8438,776.6006,590.1215,777.2566,600.3993,776.7173,610.6771,776.8066,610.6862,776.8285,611.2621,777.0405,611.8793,777.3521,612.4766,777.6156,613.1119,777.9708,613.6234,778.027,613.8386,778.1162,614.0853,778.7065,614.1932,779.2394,614.5043,779.8564,614.8249,780.4774,614.8438,780.9733,614.5933,780.9733,615.0793,786.8001,614.7408,792.627,615.0291,798.4538,614.6719,804.2806,614.8438,810.1074,614.8218,810.0983,614.8376,810.7952,614.34,811.2795,614.1453,811.8892,613.9761,812.5094,613.6234,813.0537,613.6787,813.1872,613.0336,813.2965,612.483,813.634,611.7795,813.6023,611.3041,814.1212,610.6771,814.2741,610.6771,814.8451,600.3993,814.7371,590.1215,814.9127,579.8438,813.7709,569.566,813.5947,559.2882,813.6268,549.0104,814.2128,538.7326,814.0694,528.4549,814.9839,518.1771,814.0921,507.8993,813.9167,497.6215,814.5119,487.3438,813.5795,477.066,813.7333,466.7882,814.9501,456.5104,814.2741,456.5683,814.4138,456.0188,814.2656,455.2891,813.6827,454.7851,813.6443,454.2318,813.4872,453.5641,813.0537,453.4126,812.9909,453.2893,812.4517,453.1164,811.8919,453.041,811.3725,452.5865,810.6961,452.3438,810.1074,452.5044,810.1074,452.1515,804.2806,452.1086,798.4538,452.5186,792.627,452.0948,786.8001,452.3438,780.9733,452.507,781.0409,452.6541,780.4115,452.746,779.7592,452.9625,779.1585,453.4672,778.6772,453.5641,778.027,453.5244,777.931,454.232,777.9728,454.6692,777.3616,455.4139,777.4929,455.9855,777.2061,456.5104,776.8066" style="stroke:#333333;stroke-width:1.0416666666666667;"/><text fill="#2E2E2E" font-family="Segoe Print" font-size="12.5" lengthAdjust="spacing" textLength="50" x="463.8021" y="799.8678">&#29366;&#24577;&#21464;&#20026;</text><text fill="#008000" font-family="Segoe Print" font-size="12.5" lengthAdjust="spacing" textLength="85.4167" x="517.9688" y="799.8678">Synchronized</text><polygon fill="none" points="436.4583,882.9915,436.5099,883.0431,438.8566,885.3898,441.5058,888.039,444.0565,890.5897,446.2832,892.8164,448.9583,895.4915,448.9393,895.4725,446.3536,897.8868,443.8642,900.3974,441.4416,902.9748,438.7886,905.3218,436.4583,907.9915,436.5943,908.1275,433.8036,905.3368,431.4098,902.943,429.0644,900.5976,426.4373,897.9705,423.9583,895.4915,423.9751,895.5083,426.4505,892.9837,429.0022,890.5354,431.517,888.0502,434.1021,885.6353,436.4583,882.9915" style="stroke:#4D4D4D;stroke-width:1.0416666666666667;"/><polygon fill="none" points="447.98,943.0703,446.3004,945.3653,444.3138,948.7266,441.4725,950.9919,438.4869,952.2307,436.1063,952.3382,433.0466,950.789,430.1595,949.7769,427.9683,947.7219,426.8188,945.3694,426.1372,943.4963,425.4693,941.0496,424.3854,938.9441,425.2184,936.8884,425.9481,934.6366,428.6868,932.8556,430.6135,930.5448,432.9983,929.7774,435.8335,929.1166,439.4692,929.5092,441.4605,930.4483,443.7757,930.874,446.5908,933.7582,447.5721,936.8029,447.9985,938.8804,447.5156,942.3039" style="stroke:#2E2E2E;stroke-width:1.0416666666666667;"/><polygon fill="none" points="442.7429,941.8035,441.8267,943.0552,440.7431,944.8887,439.1933,946.1243,437.5648,946.8,436.2663,946.8587,434.5974,946.0136,433.0226,945.4616,431.8274,944.3407,431.2004,943.0575,430.8286,942.0358,430.4643,940.7012,429.8731,939.5528,430.3274,938.4315,430.7255,937.2032,432.2193,936.2318,433.2702,934.9713,434.5711,934.5528,436.1175,934.1923,438.1006,934.4065,439.1868,934.9187,440.4496,935.1509,441.9851,936.7241,442.5204,938.3849,442.753,939.5181,442.4896,941.3854" style="stroke:#2E2E2E;stroke-width:1.0416666666666667;"/><path d="M98.9583,11.4583 L99.2503,11.4583 L98.3829,21.9059 L99.2268,32.3535 L99.5134,42.8011 L97.9675,53.2487 L98.8504,63.6963 L98.366,74.1439 L98.4257,84.5915 L98.8637,95.0391 L97.9981,105.4867 L99.7273,115.9342 L98.0829,126.3818 L98.6837,136.8294 L99.5583,147.277 L98.8392,157.7246 L99.0531,168.1722 L98.914,178.6198 L99.2063,189.0674 L99.2905,199.515 L99.7718,209.9626 L99.8904,220.4102 L99.9017,230.8577 L99.312,241.3053 L99.6022,251.7529 L99.9337,262.2005 L97.9567,272.6481 L99.9007,283.0957 L98.5465,293.5433 L99.6997,303.9909 L98.2708,314.4385 L98.8632,324.8861 L99.9883,335.3337 L98.8906,345.7813 L99.1046,356.2288 L99.4286,366.6764 L99.5364,377.124 L98.9529,387.5716 L99.3572,398.0192 L98.1633,408.4668 L99.3533,418.9144 L99.7197,429.362 L99.5757,439.8096 L99.8098,450.2572 L98.2874,460.7048 L98.0525,471.1523 L98.0953,481.5999 L98.8766,492.0475 L98.6854,502.4951 L99.9047,512.9427 L98.7157,523.3903 L98.4819,533.8379 L99.2754,544.2855 L98.0322,554.7331 L98.2373,565.1807 L99.8597,575.6283 L99.5634,586.0758 L99.9785,596.5234 L98.5114,606.971 L99.4017,617.4186 L99.7784,627.8662 L98.3022,638.3138 L98.8252,648.7614 L99.1333,659.209 L99.8636,669.6566 L98.9525,680.1042 L99.6008,690.5518 L98.1892,700.9993 L98.0177,711.4469 L99.6578,721.8945 L97.9626,732.3421 L99.6652,742.7897 L99.2453,753.2373 L98.5862,763.6849 L98.467,774.1325 L99.5955,784.5801 L98.5426,795.0277 L99.7804,805.4753 L98.1906,815.9229 L99.8159,826.3704 L99.631,836.818 L99.2986,847.2656 L99.0239,857.7132 L99.9675,868.1608 L99.8105,878.6084 L99.1934,889.056 L99.3308,899.5036 L98.7774,909.9512 L99.9534,920.3988 L99.1734,930.8464 L99.198,941.2939 L98.9583,951.7415 " fill="none" style="stroke:#17A2B8;stroke-width:2.0833333333333335;"/><polygon fill="none" points="887.5,406.1198,887.5,406.3387,897.8618,405.6882,908.2237,406.3211,918.5855,406.5361,928.9474,405.3767,939.3092,406.0388,949.6711,405.6755,960.0329,405.7203,970.3947,406.0488,980.7566,405.3996,991.1184,406.6965,1001.4803,405.4632,1011.8421,405.9138,1022.2039,406.5697,1032.5658,406.0304,1042.9276,406.1909,1053.2895,406.0865,1063.6513,406.3058,1074.0132,406.3689,1084.375,406.1198,1084.4528,406.3077,1085.0534,406.5791,1085.6438,406.8258,1086.1766,406.9337,1086.7936,407.2448,1087.3213,407.3402,1087.5465,407.4335,1087.334,407.8336,1088.0271,408.6088,1087.9584,409.0685,1088.4688,409.7681,1088.5417,410.2865,1088.3698,410.2865,1088.5179,416.1133,1088.7992,421.9401,1088.5247,427.7669,1088.5782,433.5938,1088.5417,439.4206,1088.6503,439.4656,1088.4311,440.0651,1088.0523,440.5986,1087.9016,441.2265,1087.3817,441.7015,1087.3213,442.3669,1087.3591,442.4581,1086.8049,442.7868,1086.2018,442.9976,1085.635,443.2957,1084.9001,443.1882,1084.375,443.5872,1084.375,442.9079,1074.0132,442.9399,1063.6513,443.5259,1053.2895,443.3825,1042.9276,444.297,1032.5658,443.4053,1022.2039,443.2299,1011.8421,443.825,1001.4803,442.8926,991.1184,443.0465,980.7566,444.2632,970.3947,444.0411,960.0329,444.3523,949.6711,443.252,939.3092,443.9197,928.9474,444.2023,918.5855,443.0951,908.2237,443.4874,897.8618,443.7185,887.5,443.5872,887.5866,443.7963,886.9102,443.3418,886.383,443.2475,885.6586,442.6774,885.053,442.3937,884.5537,442.3669,884.7153,442.4338,884.0797,441.6823,884.2288,441.256,883.8878,440.6265,883.4915,439.9742,883.3333,439.4206,883.2105,439.4206,883.4926,433.5938,883.2294,427.7669,883.5388,421.9401,883.1414,416.1133,883.3333,410.2865,883.5314,410.3685,883.7328,409.7616,883.9001,409.1405,884.0807,408.525,884.5427,408.026,884.5537,407.3402,884.6353,407.537,885.1655,407.1504,885.7679,406.9381,886.3042,406.5662,887.0059,406.5937,887.5,406.1198" style="stroke:#333333;stroke-width:1.0416666666666667;"/><text fill="#2E2E2E" font-family="Segoe Print" font-size="12.5" lengthAdjust="spacing" textLength="182.2917" x="894.7917" y="429.1809">&#25509;&#25910;&#25805;&#20316; (Receive operation)</text><polygon fill="none" points="879.6875,520.6543,879.6875,520.8732,890.3125,520.2227,900.9375,520.8556,911.5625,521.0706,922.1875,519.9112,932.8125,520.5733,943.4375,520.21,954.0625,520.2548,964.6875,520.5833,975.3125,519.9341,985.9375,521.231,996.5625,519.9978,1007.1875,520.4483,1017.8125,521.1042,1028.4375,520.5649,1039.0625,520.7254,1049.6875,520.621,1060.3125,520.8403,1070.9375,520.9034,1081.5625,521.2644,1092.1875,520.6543,1092.2767,520.8696,1092.867,521.1163,1093.3998,521.2241,1094.0169,521.5352,1094.6378,521.8559,1095.1338,521.8747,1094.9024,521.7789,1095.5955,522.5541,1095.5268,523.0138,1096.0373,523.7134,1095.9513,524.1659,1096.3542,524.821,1096.3304,524.821,1096.6117,530.6478,1096.3372,536.4746,1096.3907,542.3014,1096.4717,548.1283,1096.3542,553.9551,1096.4877,554.0104,1096.1088,554.5438,1095.9581,555.1718,1095.4383,555.6468,1095.4691,556.3499,1095.1338,556.9014,1095.2066,557.0772,1094.6036,557.288,1094.0367,557.5862,1093.3018,557.4786,1092.6901,557.6685,1092.1875,558.1217,1092.1875,557.4745,1081.5625,558.0604,1070.9375,557.917,1060.3125,558.8315,1049.6875,557.9398,1039.0625,557.7644,1028.4375,558.3595,1017.8125,557.4271,1007.1875,557.581,996.5625,558.7977,985.9375,558.5756,975.3125,558.8868,964.6875,557.7865,954.0625,558.4542,943.4375,558.7368,932.8125,557.6297,922.1875,558.0219,911.5625,558.253,900.9375,558.8007,890.3125,558.1174,879.6875,558.1217,879.749,558.2701,879.0247,557.7,878.419,557.4163,877.9867,557.5511,877.2352,556.9154,876.7412,556.9014,876.9045,556.969,876.5634,556.3396,876.1671,555.6872,875.8955,555.0866,875.9121,554.6053,875.5208,553.9551,875.4169,553.9551,875.7263,548.1283,875.3289,542.3014,875.7352,536.4746,875.689,530.6478,875.5208,524.821,875.5994,524.8535,875.7801,524.238,876.2421,523.739,876.4499,523.1347,876.5514,522.4864,876.7412,521.8747,876.7769,521.9607,877.3132,521.5888,878.0149,521.6164,878.5296,521.1921,879.1212,520.9537,879.6875,520.6543" style="stroke:#333333;stroke-width:1.0416666666666667;"/><text fill="#2E2E2E" font-family="Segoe Print" font-size="12.5" lengthAdjust="spacing" textLength="197.9167" x="886.9792" y="543.7154">&#36716;&#25442;&#25805;&#20316; (Transform operation)</text><polygon fill="none" points="933.8542,464.4206,933.8542,464.6395,944.2708,463.989,954.6875,464.6219,965.1042,464.8369,975.5208,463.6775,985.9375,464.3396,996.3542,463.9763,1006.7708,464.0211,1017.1875,464.3496,1027.6042,463.7004,1038.0208,464.4206,1038.1568,464.5565,1040.3661,466.7658,1042.9723,469.372,1045.6269,472.0266,1047.9998,474.3995,1050.5208,476.9206,1050.5376,476.9373,1048.013,479.4127,1045.5647,481.9644,1043.0795,484.4793,1040.6646,487.0644,1038.0208,489.4206,1038.0208,490.1196,1027.6042,490.1281,1017.1875,489.6858,1006.7708,489.9035,996.3542,490.1521,985.9375,488.6693,975.5208,490.1274,965.1042,489.1117,954.6875,489.9766,944.2708,488.9049,933.8542,489.4206,933.8373,489.4038,931.5362,487.1027,928.8422,484.4086,926.38,481.9464,923.9373,479.5037,921.3542,476.9206,921.4564,477.0228,923.8532,474.4196,926.4247,471.9911,928.7136,469.28,931.424,466.9904,933.8542,464.4206" style="stroke:#4D4D4D;stroke-width:1.0416666666666667;"/><text fill="#2E2E2E" font-family="Segoe Print" font-size="12.5" lengthAdjust="spacing" textLength="21.875" x="995.3125" y="506.2317">yes</text><text fill="#2E2E2E" font-family="Segoe Print" font-size="12.5" lengthAdjust="spacing" textLength="93.75" x="939.0625" y="481.248">&#25509;&#25910;&#21040;&#20914;&#31361;&#25805;&#20316;?</text><polygon fill="none" points="985.9375,578.9551,985.9891,579.0067,988.3358,581.3534,990.985,584.0025,993.5356,586.5532,995.7623,588.7799,998.4375,591.4551,998.4184,591.436,995.8328,593.8504,993.3433,596.3609,990.9208,598.9383,988.2678,601.2853,985.9375,603.9551,986.0734,604.091,983.2828,601.3003,980.8889,598.9065,978.5436,596.5611,975.9164,593.934,973.4375,591.4551,973.4543,591.4718,975.9297,588.9472,978.4813,586.4989,980.9962,584.0138,983.5813,581.5989,985.9375,578.9551" style="stroke:#4D4D4D;stroke-width:1.0416666666666667;"/><polygon fill="none" points="895.3125,624.7884,895.3125,625.0074,905.9743,624.3568,916.636,624.9898,927.2978,625.2047,937.9596,624.0453,948.6213,624.7075,959.2831,624.3441,969.9449,624.3889,980.6066,624.7174,991.2684,624.0682,1001.9301,625.3651,1012.5919,624.1319,1023.2537,624.5824,1033.9154,625.2384,1044.5772,624.6991,1055.239,624.8595,1065.9007,624.7551,1076.5625,624.7884,1076.5862,624.8457,1077.1835,625.1092,1077.8188,625.4645,1078.4194,625.7359,1079.0098,625.9826,1079.5088,626.0088,1079.5905,626.0426,1079.9016,626.6597,1080.2222,627.2806,1080.0097,627.6807,1080.7027,628.456,1080.7292,628.9551,1080.6262,628.9551,1080.9145,634.7819,1080.5573,640.6087,1080.7054,646.4355,1080.9867,652.2624,1080.7292,658.0892,1080.7135,658.0827,1080.5189,658.6924,1080.3496,659.3127,1080.1305,659.9123,1079.7516,660.4457,1079.5088,661.0355,1079.5469,661.1276,1078.8435,661.0959,1078.3681,661.6149,1077.8139,661.9436,1077.2108,662.1544,1076.5625,662.2559,1076.5625,662.8944,1065.9007,661.7527,1055.239,661.5765,1044.5772,661.6086,1033.9154,662.1945,1023.2537,662.0511,1012.5919,662.9657,1001.9301,662.0739,991.2684,661.8985,980.6066,662.4936,969.9449,661.5612,959.2831,661.7151,948.6213,662.9318,937.9596,662.7097,927.2978,663.021,916.636,661.9207,905.9743,662.5884,895.3125,662.2559,895.391,662.4453,894.6605,661.8602,894.1213,661.737,893.5615,661.564,893.0421,661.4886,892.3662,661.0355,892.3649,661.0349,892.2705,660.5077,891.7004,659.7834,891.4167,659.1777,891.5515,658.7454,891.1458,658.0892,890.8969,658.0892,891.3226,652.2624,891.2176,646.4355,891.0528,640.6087,891.023,634.7819,891.1458,628.9551,891.293,629.016,891.2939,628.326,891.8239,627.8552,891.7008,627.1139,892.3202,626.6801,892.3662,626.0088,892.4306,626.1642,892.988,625.8433,893.551,625.5358,894.2305,625.5097,894.8048,625.2293,895.3125,624.7884" style="stroke:#333333;stroke-width:1.0416666666666667;"/><text fill="#2E2E2E" font-family="Segoe Print" font-size="12.5" lengthAdjust="spacing" textLength="166.6667" x="902.6042" y="647.8495">&#24212;&#29992;&#25805;&#20316; (Apply operation)</text><polygon fill="none" points="862.5,683.0892,862.5,683.3081,872.7865,682.6576,883.0729,683.2905,893.3594,683.5055,903.6458,682.3461,913.9323,683.0082,924.2188,682.6449,934.5052,682.6897,944.7917,683.0182,955.0781,682.369,965.3646,683.6659,975.651,682.4326,985.9375,682.8832,996.224,683.5391,1006.5104,682.9998,1016.7969,683.1603,1027.0833,683.0559,1037.3698,683.2752,1047.6563,683.3383,1057.9427,683.6993,1068.2292,683.7882,1078.5156,683.7968,1088.8021,683.3544,1099.0885,683.5721,1109.375,683.0892,1109.4683,683.3145,1109.8684,683.1019,1110.6437,683.795,1111.1034,683.7263,1111.803,684.2367,1112.3213,684.3096,1112.1625,684.2438,1112.5434,684.8897,1113.0473,685.5866,1113.0379,686.0709,1113.3314,686.6806,1113.5417,687.2559,1113.6592,687.2559,1113.6862,693.0827,1113.5403,698.9095,1113.6414,704.7363,1113.3429,710.5632,1113.5417,716.39,1113.6329,716.4278,1113.4734,717.0521,1113.1961,717.6276,1113.0061,718.2392,1112.4104,718.6828,1112.3213,719.3363,1112.2346,719.127,1111.6495,719.381,1111.1349,719.8055,1110.5274,720.0054,1110.0548,720.5312,1109.375,720.5566,1109.375,720.3747,1099.0885,720.1993,1088.8021,720.7944,1078.5156,719.862,1068.2292,720.0159,1057.9427,721.2326,1047.6563,721.0105,1037.3698,721.3217,1027.0833,720.2214,1016.7969,720.8891,1006.5104,721.1717,996.224,720.0646,985.9375,720.4568,975.651,720.6879,965.3646,721.2356,955.0781,720.5523,944.7917,721.0385,934.5052,719.9798,924.2188,719.8512,913.9323,721.0812,903.6458,719.8098,893.3594,721.0868,883.0729,720.7719,872.7865,720.2776,862.5,720.5566,862.453,720.4432,861.9717,720.4597,861.2817,719.9725,860.8109,720.0143,860.0695,719.403,859.5537,719.3363,859.7518,719.4183,859.465,718.8113,859.1442,718.1903,858.8366,717.5748,858.8105,717.0758,858.3333,716.39,858.5464,716.39,858.3921,710.5632,858.4265,704.7363,858.2881,698.9095,858.5821,693.0827,858.3333,687.2559,858.383,687.2764,858.6328,686.6895,858.6263,685.9965,858.9356,685.4342,859.4799,684.9694,859.5537,684.3096,859.6108,684.4474,860.1373,684.0517,860.6894,683.7181,861.2924,683.5071,861.8196,683.1132,862.5,683.0892" style="stroke:#333333;stroke-width:1.0416666666666667;"/><text fill="#2E2E2E" font-family="Segoe Print" font-size="12.5" lengthAdjust="spacing" textLength="232.2917" x="869.7917" y="706.1503">&#21457;&#36865;&#30830;&#35748;&#21040;&#23458;&#25143;&#31471; (Send ack to client)</text><path d="M852.0833,11.4583 L852.3753,11.4583 L851.5079,21.9059 L852.3518,32.3535 L852.6384,42.8011 L851.0925,53.2487 L851.9754,63.6963 L851.491,74.1439 L851.5507,84.5915 L851.9887,95.0391 L851.1231,105.4867 L852.8523,115.9342 L851.2079,126.3818 L851.8087,136.8294 L852.6833,147.277 L851.9642,157.7246 L852.1781,168.1722 L852.039,178.6198 L852.3313,189.0674 L852.4155,199.515 L852.8968,209.9626 L853.0154,220.4102 L853.0267,230.8577 L852.437,241.3053 L852.7272,251.7529 L853.0587,262.2005 L851.0817,272.6481 L853.0257,283.0957 L851.6715,293.5433 L852.8247,303.9909 L851.3958,314.4385 L851.9882,324.8861 L853.1133,335.3337 L852.0156,345.7813 L852.2296,356.2288 L852.5536,366.6764 L852.6614,377.124 L852.0779,387.5716 L852.4822,398.0192 L851.2883,408.4668 L852.4783,418.9144 L852.8447,429.362 L852.7007,439.8096 L852.9348,450.2572 L851.4124,460.7048 L851.1775,471.1523 L851.2203,481.5999 L852.0016,492.0475 L851.8104,502.4951 L853.0297,512.9427 L851.8407,523.3903 L851.6069,533.8379 L852.4004,544.2855 L851.1572,554.7331 L851.3623,565.1807 L852.9847,575.6283 L852.6884,586.0758 L853.1035,596.5234 L851.6364,606.971 L852.5267,617.4186 L852.9034,627.8662 L851.4272,638.3138 L851.9502,648.7614 L852.2583,659.209 L852.9886,669.6566 L852.0775,680.1042 L852.7258,690.5518 L851.3142,700.9993 L851.1427,711.4469 L852.7828,721.8945 L851.0876,732.3421 L852.7902,742.7897 L852.3703,753.2373 L851.7112,763.6849 L851.592,774.1325 L852.7205,784.5801 L851.6676,795.0277 L852.9054,805.4753 L851.3156,815.9229 L852.9409,826.3704 L852.756,836.818 L852.4236,847.2656 L852.1489,857.7132 L853.0925,868.1608 L852.9355,878.6084 L852.3184,889.056 L852.4558,899.5036 L851.9024,909.9512 L853.0784,920.3988 L852.2984,930.8464 L852.323,941.2939 L852.0833,951.7415 " fill="none" style="stroke:#17A2B8;stroke-width:2.0833333333333335;"/><path d="M1126.5625,11.4583 L1126.8544,11.4583 L1125.9871,21.9059 L1126.831,32.3535 L1127.1176,42.8011 L1125.5717,53.2487 L1126.4546,63.6963 L1125.9701,74.1439 L1126.0299,84.5915 L1126.4678,95.0391 L1125.6023,105.4867 L1127.3314,115.9342 L1125.6871,126.3818 L1126.2878,136.8294 L1127.1624,147.277 L1126.4434,157.7246 L1126.6573,168.1722 L1126.5181,178.6198 L1126.8105,189.0674 L1126.8946,199.515 L1127.376,209.9626 L1127.4945,220.4102 L1127.5059,230.8577 L1126.9161,241.3053 L1127.2064,251.7529 L1127.5378,262.2005 L1125.5609,272.6481 L1127.5049,283.0957 L1126.1507,293.5433 L1127.3039,303.9909 L1125.875,314.4385 L1126.4674,324.8861 L1127.5925,335.3337 L1126.4948,345.7813 L1126.7088,356.2288 L1127.0328,366.6764 L1127.1406,377.124 L1126.5571,387.5716 L1126.9614,398.0192 L1125.7675,408.4668 L1126.9575,418.9144 L1127.3239,429.362 L1127.1799,439.8096 L1127.4139,450.2572 L1125.8916,460.7048 L1125.6567,471.1523 L1125.6994,481.5999 L1126.4807,492.0475 L1126.2895,502.4951 L1127.5089,512.9427 L1126.3199,523.3903 L1126.086,533.8379 L1126.8795,544.2855 L1125.6363,554.7331 L1125.8415,565.1807 L1127.4638,575.6283 L1127.1676,586.0758 L1127.5826,596.5234 L1126.1156,606.971 L1127.0058,617.4186 L1127.3825,627.8662 L1125.9064,638.3138 L1126.4294,648.7614 L1126.7375,659.209 L1127.4677,669.6566 L1126.5567,680.1042 L1127.205,690.5518 L1125.7934,700.9993 L1125.6219,711.4469 L1127.262,721.8945 L1125.5667,732.3421 L1127.2694,742.7897 L1126.8495,753.2373 L1126.1904,763.6849 L1126.0711,774.1325 L1127.1997,784.5801 L1126.1468,795.0277 L1127.3845,805.4753 L1125.7948,815.9229 L1127.42,826.3704 L1127.2351,836.818 L1126.9027,847.2656 L1126.6281,857.7132 L1127.5717,868.1608 L1127.4147,878.6084 L1126.7976,889.056 L1126.935,899.5036 L1126.3816,909.9512 L1127.5576,920.3988 L1126.7776,930.8464 L1126.8022,941.2939 L1126.5625,951.7415 " fill="none" style="stroke:#17A2B8;stroke-width:2.0833333333333335;"/><path d="M58.3333,62.4674 L58.4306,62.4674 L58.1415,66.6341 L58.4228,70.8008 L58.5184,74.9674 L58.0031,79.1341 L58.3333,83.3008 " fill="#333333" style="stroke:#333333;stroke-width:3.125;"/><polygon fill="#333333" points="54.1667,72.8841,54.2344,72.9112,54.8664,74.914,55.8956,77.0757,56.7955,79.1857,57.27,81.1255,58.3333,83.3008,58.3083,83.2908,59.0292,81.1624,59.8764,79.0847,60.8114,77.042,61.4438,74.8783,62.5,72.8841,62.6359,73.02,61.5119,73.5627,60.7848,74.5022,60.1061,75.4902,59.1456,76.1964,58.3333,77.0508,58.3501,77.0675,57.4922,76.2096,56.7105,75.4279,55.892,74.6095,55.1438,73.8612,54.1667,72.8841" style="stroke:#333333;stroke-width:1.0416666666666667;"/><path d="M255.7292,272.7865 L255.8265,272.7865 L255.5374,280.0781 L255.8187,287.3698 L255.9142,294.6615 L255.3989,301.9531 L255.7292,309.2448 " fill="#333333" style="stroke:#333333;stroke-width:3.125;"/><polygon fill="#333333" points="251.5625,298.8281,251.6303,298.8552,252.2623,300.858,253.2915,303.0197,254.1914,305.1297,254.6658,307.0695,255.7292,309.2448,255.7041,309.2348,256.425,307.1065,257.2722,305.0287,258.2072,302.986,258.8396,300.8223,259.8958,298.8281,260.0318,298.9641,258.9078,299.5067,258.1806,300.4462,257.5019,301.4342,256.5414,302.1404,255.7292,302.9948,255.7459,303.0115,254.888,302.1536,254.1063,301.372,253.2879,300.5535,252.5396,299.8053,251.5625,298.8281" style="stroke:#333333;stroke-width:1.0416666666666667;"/><path d="M521.875,247.819 L521.875,247.9163 L519.7917,247.6272 L517.7083,247.9085 L515.625,248.004 L513.5417,247.4887 L511.4583,247.819 " fill="#333333" style="stroke:#333333;stroke-width:3.125;"/><path d="M511.4583,247.819 L511.5556,247.819 L511.2665,252.4023 L511.5478,256.9857 L511.6434,261.569 L511.1281,266.1523 L511.4583,270.7357 " fill="#333333" style="stroke:#333333;stroke-width:3.125;"/><polygon fill="#333333" points="507.2917,260.319,507.3594,260.3461,507.9914,262.3489,509.0206,264.5106,509.9205,266.6206,510.395,268.5603,511.4583,270.7357,511.4333,270.7257,512.1542,268.5973,513.0014,266.5196,513.9364,264.4769,514.5688,262.3132,515.625,260.319,515.7609,260.4549,514.6369,260.9976,513.9098,261.9371,513.2311,262.9251,512.2706,263.6313,511.4583,264.4857,511.4751,264.5024,510.6172,263.6445,509.8355,262.8628,509.017,262.0444,508.2688,261.2961,507.2917,260.319" style="stroke:#333333;stroke-width:1.0416666666666667;"/><path d="M712.5,247.819 L712.5,247.9163 L714.5833,247.6272 L716.6667,247.9085 L718.75,248.004 L720.8333,247.4887 L722.9167,247.819 " fill="#333333" style="stroke:#333333;stroke-width:3.125;"/><path d="M722.9167,247.819 L723.014,247.819 L722.7249,252.4023 L723.0062,256.9857 L723.1017,261.569 L722.5864,266.1523 L722.9167,270.7357 " fill="#333333" style="stroke:#333333;stroke-width:3.125;"/><polygon fill="#333333" points="718.75,260.319,718.8178,260.3461,719.4498,262.3489,720.479,264.5106,721.3789,266.6206,721.8533,268.5603,722.9167,270.7357,722.8916,270.7257,723.6125,268.5973,724.4597,266.5196,725.3947,264.4769,726.0271,262.3132,727.0833,260.319,727.2193,260.4549,726.0953,260.9976,725.3681,261.9371,724.6894,262.9251,723.7289,263.6313,722.9167,264.4857,722.9334,264.5024,722.0755,263.6445,721.2938,262.8628,720.4754,262.0444,719.7271,261.2961,718.75,260.319" style="stroke:#333333;stroke-width:1.0416666666666667;"/><path d="M511.4583,308.2031 L511.5556,308.2031 L511.2665,314.0365 L511.5478,319.8698 L511.6434,325.7031 L511.1281,331.5365 L511.4583,337.3698 " fill="#333333" style="stroke:#333333;stroke-width:3.125;"/><path d="M511.4583,337.3698 L511.4583,337.6617 L521.8171,336.7943 L532.1759,337.6382 L542.5347,337.9249 L552.8935,336.379 L563.2523,337.2619 L573.6111,336.7774 L583.9699,336.8372 L594.3287,337.2751 L604.6875,337.3698 " fill="#333333" style="stroke:#333333;stroke-width:3.125;"/><polygon fill="#333333" points="594.2708,333.2031,594.2979,333.2709,596.3007,333.9029,598.4624,334.9321,600.5724,335.832,602.5122,336.3065,604.6875,337.3698,604.6775,337.3447,602.5492,338.0656,600.4714,338.9128,598.4287,339.8478,596.265,340.4802,594.2708,341.5365,594.4068,341.6724,594.9494,340.5484,595.8889,339.8212,596.8769,339.1425,597.5831,338.1821,598.4375,337.3698,598.4543,337.3865,597.5963,336.5286,596.8147,335.747,595.9962,334.9285,595.248,334.1803,594.2708,333.2031" style="stroke:#333333;stroke-width:1.0416666666666667;"/><path d="M722.9167,308.2031 L723.014,308.2031 L722.7249,314.0365 L723.0062,319.8698 L723.1017,325.7031 L722.5864,331.5365 L722.9167,337.3698 " fill="#333333" style="stroke:#333333;stroke-width:3.125;"/><path d="M722.9167,337.3698 L722.9167,337.6617 L712.5579,336.7943 L702.1991,337.6382 L691.8403,337.9249 L681.4815,336.379 L671.1227,337.2619 L660.7639,336.7774 L650.4051,336.8372 L640.0463,337.2751 L629.6875,337.3698 " fill="#333333" style="stroke:#333333;stroke-width:3.125;"/><polygon fill="#333333" points="640.1042,333.2031,640.1313,333.2709,637.9674,333.9029,635.9624,334.9321,633.9057,335.832,631.6788,336.3065,629.6875,337.3698,629.6775,337.3447,631.7158,338.0656,633.8047,338.9128,635.9287,339.8478,637.9317,340.4802,640.1042,341.5365,640.2401,341.6724,639.1161,340.5484,638.3889,339.8212,637.7102,339.1425,636.7498,338.1821,635.9375,337.3698,635.9543,337.3865,636.763,336.5286,637.648,335.747,638.4962,334.9285,639.4146,334.1803,640.1042,333.2031" style="stroke:#333333;stroke-width:1.0416666666666667;"/><path d="M358.3333,212.4023 L358.3333,212.6943 L348.0729,211.8269 L337.8125,212.6708 L327.5521,212.9575 L317.2917,211.4115 L307.0313,212.2944 L296.7708,211.81 L286.5104,211.8697 L276.25,212.3077 L265.9896,211.4421 L255.7292,212.4023 " fill="#333333" style="stroke:#333333;stroke-width:3.125;"/><path d="M255.7292,212.4023 L255.8265,212.4023 L255.5374,216.9857 L255.8187,221.569 L255.9142,226.1523 L255.3989,230.7357 L255.7292,235.319 " fill="#333333" style="stroke:#333333;stroke-width:3.125;"/><polygon fill="#333333" points="251.5625,224.9023,251.6303,224.9294,252.2623,226.9322,253.2915,229.0939,254.1914,231.2039,254.6658,233.1437,255.7292,235.319,255.7041,235.309,256.425,233.1807,257.2722,231.1029,258.2072,229.0602,258.8396,226.8965,259.8958,224.9023,260.0318,225.0383,258.9078,225.5809,258.1806,226.5205,257.5019,227.5084,256.5414,228.2146,255.7292,229.069,255.7459,229.0858,254.888,228.2278,254.1063,227.4462,253.2879,226.6277,252.5396,225.8795,251.5625,224.9023" style="stroke:#333333;stroke-width:1.0416666666666667;"/><path d="M514.5833,212.4023 L514.5833,212.6943 L524.8438,211.8269 L535.1042,212.6708 L545.3646,212.9575 L555.625,211.4115 L565.8854,212.2944 L576.1458,211.81 L586.4063,211.8697 L596.6667,212.3077 L606.9271,211.4421 L617.1875,212.4023 " fill="#333333" style="stroke:#333333;stroke-width:3.125;"/><path d="M617.1875,212.4023 L617.2848,212.4023 L616.9957,216.9857 L617.277,221.569 L617.3725,226.1523 L616.8572,230.7357 L617.1875,235.319 " fill="#333333" style="stroke:#333333;stroke-width:3.125;"/><polygon fill="#333333" points="613.0208,224.9023,613.0886,224.9294,613.7206,226.9322,614.7498,229.0939,615.6497,231.2039,616.1242,233.1437,617.1875,235.319,617.1624,235.309,617.8833,233.1807,618.7305,231.1029,619.6655,229.0602,620.2979,226.8965,621.3542,224.9023,621.4901,225.0383,620.3661,225.5809,619.6389,226.5205,618.9602,227.5084,617.9998,228.2146,617.1875,229.069,617.2043,229.0858,616.3463,228.2278,615.5647,227.4462,614.7462,226.6277,613.998,225.8795,613.0208,224.9023" style="stroke:#333333;stroke-width:1.0416666666666667;"/><path d="M255.7292,346.7122 L255.8265,346.7122 L255.5374,351.9271 L255.8187,357.1419 L255.9142,362.3568 L255.3989,367.5716 L255.7292,372.7865 " fill="#333333" style="stroke:#333333;stroke-width:3.125;"/><path d="M255.7292,372.7865 L255.7292,373.0784 L266.2435,372.211 L276.7578,373.0549 L287.2721,373.3416 L297.7865,371.7956 L308.3008,372.6785 L318.8151,372.1941 L329.3294,372.2538 L339.8438,372.6918 L350.3581,371.8262 L360.8724,373.5554 L371.3867,371.9111 L381.901,372.5118 L392.4154,373.3864 L402.9297,372.6673 L413.444,372.8812 L423.9583,372.7865 " fill="#333333" style="stroke:#333333;stroke-width:3.125;"/><polygon fill="#333333" points="413.5417,368.6198,413.5688,368.6876,415.5716,369.3196,417.7333,370.3488,419.8432,371.2486,421.783,371.7231,423.9583,372.7865,423.9483,372.7614,421.82,373.4823,419.7422,374.3295,417.6995,375.2645,415.5358,375.8969,413.5417,376.9531,413.6776,377.0891,414.2203,375.965,415.1598,375.2379,416.1477,374.5592,416.8539,373.5987,417.7083,372.7865,417.7251,372.8032,416.8672,371.9453,416.0855,371.1636,415.267,370.3452,414.5188,369.5969,413.5417,368.6198" style="stroke:#333333;stroke-width:1.0416666666666667;"/><path d="M617.1875,349.8698 L617.2848,349.8698 L616.9957,354.4531 L617.277,359.0365 L617.3725,363.6198 L616.8572,368.2031 L617.1875,372.7865 " fill="#333333" style="stroke:#333333;stroke-width:3.125;"/><path d="M617.1875,372.7865 L617.1875,373.0784 L606.6732,372.211 L596.1589,373.0549 L585.6445,373.3416 L575.1302,371.7956 L564.6159,372.6785 L554.1016,372.1941 L543.5872,372.2538 L533.0729,372.6918 L522.5586,371.8262 L512.0443,373.5554 L501.5299,371.9111 L491.0156,372.5118 L480.5013,373.3864 L469.987,372.6673 L459.4727,372.8812 L448.9583,372.7865 " fill="#333333" style="stroke:#333333;stroke-width:3.125;"/><polygon fill="#333333" points="459.375,368.6198,459.4021,368.6876,457.2382,369.3196,455.2333,370.3488,453.1765,371.2486,450.9497,371.7231,448.9583,372.7865,448.9483,372.7614,450.9867,373.4823,453.0755,374.3295,455.1995,375.2645,457.2025,375.8969,459.375,376.9531,459.5109,377.0891,458.3869,375.965,457.6598,375.2379,456.9811,374.5592,456.0206,373.5987,455.2083,372.7865,455.2251,372.8032,456.0338,371.9453,456.9188,371.1636,457.767,370.3452,458.6855,369.5969,459.375,368.6198" style="stroke:#333333;stroke-width:1.0416666666666667;"/><path d="M436.4583,179.069 L436.5556,179.069 L436.2665,183.2357 L436.5478,187.4023 L436.6434,191.569 L436.1281,195.7357 L436.4583,199.9023 " fill="#333333" style="stroke:#333333;stroke-width:3.125;"/><polygon fill="#333333" points="432.2917,189.4857,432.3594,189.5128,432.9914,191.5156,434.0206,193.6773,434.9205,195.7872,435.395,197.727,436.4583,199.9023,436.4333,199.8923,437.1542,197.764,438.0014,195.6862,438.9364,193.6436,439.5688,191.4799,440.625,189.4857,440.7609,189.6216,439.6369,190.1643,438.9098,191.1038,438.2311,192.0917,437.2706,192.798,436.4583,193.6523,436.4751,193.6691,435.6172,192.8112,434.8355,192.0295,434.017,191.2111,433.2688,190.4628,432.2917,189.4857" style="stroke:#333333;stroke-width:1.0416666666666667;"/><path d="M339.3229,814.2741 L339.4202,814.2741 L339.1311,818.4408 L339.4124,822.6074 L339.508,826.7741 L338.9926,830.9408 L339.3229,835.1074 " fill="#333333" style="stroke:#333333;stroke-width:3.125;"/><polygon fill="#333333" points="335.1563,824.6908,335.224,824.7179,335.856,826.7207,336.8852,828.8823,337.7851,830.9923,338.2596,832.9321,339.3229,835.1074,339.2979,835.0974,340.0188,832.9691,340.8659,830.8913,341.8009,828.8486,342.4334,826.6849,343.4896,824.6908,343.6255,824.8267,342.5015,825.3693,341.7744,826.3089,341.0956,827.2968,340.1352,828.003,339.3229,828.8574,339.3397,828.8742,338.4817,828.0162,337.7001,827.2346,336.8816,826.4161,336.1334,825.6679,335.1563,824.6908" style="stroke:#333333;stroke-width:1.0416666666666667;"/><path d="M378.125,753.89 L378.125,753.9873 L370.3646,753.6982 L362.6042,753.9795 L354.8438,754.075 L347.0833,753.5597 L339.3229,753.89 " fill="#333333" style="stroke:#333333;stroke-width:3.125;"/><path d="M339.3229,753.89 L339.4202,753.89 L339.1311,758.4733 L339.4124,763.0566 L339.508,767.64 L338.9926,772.2233 L339.3229,776.8066 " fill="#333333" style="stroke:#333333;stroke-width:3.125;"/><polygon fill="#333333" points="335.1563,766.39,335.224,766.4171,335.856,768.4199,336.8852,770.5816,337.7851,772.6915,338.2596,774.6313,339.3229,776.8066,339.2979,776.7966,340.0188,774.6683,340.8659,772.5905,341.8009,770.5479,342.4334,768.3842,343.4896,766.39,343.6255,766.5259,342.5015,767.0686,341.7744,768.0081,341.0956,768.996,340.1352,769.7022,339.3229,770.5566,339.3397,770.5734,338.4817,769.7155,337.7001,768.9338,336.8816,768.1154,336.1334,767.3671,335.1563,766.39" style="stroke:#333333;stroke-width:1.0416666666666667;"/><path d="M494.7917,753.89 L494.7917,753.9873 L502.5521,753.6982 L510.3125,753.9795 L518.0729,754.075 L525.8333,753.5597 L533.5938,753.89 " fill="#333333" style="stroke:#333333;stroke-width:3.125;"/><path d="M533.5938,753.89 L533.6911,753.89 L533.4019,758.4733 L533.6832,763.0566 L533.7788,767.64 L533.2635,772.2233 L533.5938,776.8066 " fill="#333333" style="stroke:#333333;stroke-width:3.125;"/><polygon fill="#333333" points="529.4271,766.39,529.4948,766.4171,530.1268,768.4199,531.1561,770.5816,532.0559,772.6915,532.5304,774.6313,533.5938,776.8066,533.5687,776.7966,534.2896,774.6683,535.1368,772.5905,536.0718,770.5479,536.7042,768.3842,537.7604,766.39,537.8963,766.5259,536.7723,767.0686,536.0452,768.0081,535.3665,768.996,534.406,769.7022,533.5938,770.5566,533.6105,770.5734,532.7526,769.7155,531.9709,768.9338,531.1525,768.1154,530.4042,767.3671,529.4271,766.39" style="stroke:#333333;stroke-width:1.0416666666666667;"/><path d="M339.3229,872.5749 L339.4202,872.5749 L339.1311,877.1582 L339.4124,881.7415 L339.508,886.3249 L338.9926,890.9082 L339.3229,895.4915 " fill="#333333" style="stroke:#333333;stroke-width:3.125;"/><path d="M339.3229,895.4915 L339.3229,895.7835 L349.9023,894.9161 L360.4818,895.76 L371.0612,896.0466 L381.6406,894.5007 L392.2201,895.3836 L402.7995,894.8992 L413.3789,894.9589 L423.9583,895.4915 " fill="#333333" style="stroke:#333333;stroke-width:3.125;"/><polygon fill="#333333" points="413.5417,891.3249,413.5688,891.3926,415.5716,892.0246,417.7333,893.0538,419.8432,893.9537,421.783,894.4282,423.9583,895.4915,423.9483,895.4665,421.82,896.1874,419.7422,897.0346,417.6995,897.9696,415.5358,898.602,413.5417,899.6582,413.6776,899.7941,414.2203,898.6701,415.1598,897.943,416.1477,897.2643,416.8539,896.3038,417.7083,895.4915,417.7251,895.5083,416.8672,894.6504,416.0855,893.8687,415.267,893.0502,414.5188,892.302,413.5417,891.3249" style="stroke:#333333;stroke-width:1.0416666666666667;"/><path d="M533.5938,814.2741 L533.8857,814.2741 L533.0183,824.4263 L533.8622,834.5785 L534.1489,844.7306 L532.6029,854.8828 L533.4858,865.035 L533.0014,875.1872 L533.0611,885.3394 L533.5938,895.4915 " fill="#333333" style="stroke:#333333;stroke-width:3.125;"/><path d="M533.5938,895.4915 L533.5938,895.7835 L523.0143,894.9161 L512.4349,895.76 L501.8555,896.0466 L491.276,894.5007 L480.6966,895.3836 L470.1172,894.8992 L459.5378,894.9589 L448.9583,895.4915 " fill="#333333" style="stroke:#333333;stroke-width:3.125;"/><polygon fill="#333333" points="459.375,891.3249,459.4021,891.3926,457.2382,892.0246,455.2333,893.0538,453.1765,893.9537,450.9497,894.4282,448.9583,895.4915,448.9483,895.4665,450.9867,896.1874,453.0755,897.0346,455.1995,897.9696,457.2025,898.602,459.375,899.6582,459.5109,899.7941,458.3869,898.6701,457.6598,897.943,456.9811,897.2643,456.0206,896.3038,455.2083,895.4915,455.2251,895.5083,456.0338,894.6504,456.9188,893.8687,457.767,893.0502,458.6855,892.302,459.375,891.3249" style="stroke:#333333;stroke-width:1.0416666666666667;"/><path d="M436.4583,907.9915 L436.5556,907.9915 L436.2665,912.1582 L436.5478,916.3249 L436.6434,920.4915 L436.1281,924.6582 L436.4583,928.8249 " fill="#333333" style="stroke:#333333;stroke-width:3.125;"/><polygon fill="#333333" points="432.2917,918.4082,432.3594,918.4353,432.9914,920.4381,434.0206,922.5998,434.9205,924.7097,435.395,926.6495,436.4583,928.8249,436.4333,928.8148,437.1542,926.6865,438.0014,924.6087,438.9364,922.5661,439.5688,920.4024,440.625,918.4082,440.7609,918.5441,439.6369,919.0868,438.9098,920.0263,438.2311,921.0143,437.2706,921.7205,436.4583,922.5749,436.4751,922.5916,435.6172,921.7337,434.8355,920.952,434.017,920.1336,433.2688,919.3853,432.2917,918.4082" style="stroke:#333333;stroke-width:1.0416666666666667;"/><path d="M985.9375,489.4206 L986.0348,489.4206 L985.7457,495.6673 L986.027,501.9141 L986.1225,508.1608 L985.6072,514.4076 L985.9375,520.6543 " fill="#333333" style="stroke:#333333;stroke-width:3.125;"/><polygon fill="#333333" points="981.7708,510.2376,981.8386,510.2647,982.4706,512.2675,983.4998,514.4292,984.3997,516.5392,984.8742,518.479,985.9375,520.6543,985.9124,520.6443,986.6333,518.516,987.4805,516.4382,988.4155,514.3955,989.0479,512.2318,990.1042,510.2376,990.2401,510.3736,989.1161,510.9162,988.3889,511.8557,987.7102,512.8437,986.7498,513.5499,985.9375,514.4043,985.9543,514.4211,985.0963,513.5631,984.3147,512.7815,983.4962,511.963,982.748,511.2148,981.7708,510.2376" style="stroke:#333333;stroke-width:1.0416666666666667;"/><path d="M1050.5208,476.9206 L1050.5208,477.2125 L1061.7708,476.3451 L1073.0208,477.189 L1084.2708,477.4757 L1095.5208,475.9297 L1106.7708,476.9206 " fill="#333333" style="stroke:#333333;stroke-width:3.125;"/><polygon fill="#333333" points="1102.6042,534.1797,1102.6719,534.2068,1103.3039,536.2096,1104.3331,538.3713,1105.233,540.4812,1105.7075,542.421,1106.7708,544.5964,1106.7458,544.5863,1107.4667,542.458,1108.3139,540.3802,1109.2489,538.3376,1109.8813,536.1739,1110.9375,534.1797,1111.0734,534.3156,1109.9494,534.8583,1109.2223,535.7978,1108.5436,536.7857,1107.5831,537.492,1106.7708,538.3464,1106.7876,538.3631,1105.9297,537.5052,1105.148,536.7235,1104.3295,535.9051,1103.5813,535.1568,1102.6042,534.1797" style="stroke:#333333;stroke-width:3.125;"/><path d="M1106.7708,476.9206 L1107.0628,476.9206 L1106.1954,487.3328 L1107.0393,497.745 L1107.3259,508.1573 L1105.78,518.5695 L1106.6629,528.9817 L1106.1785,539.3939 L1106.2382,549.8062 L1106.6762,560.2184 L1105.8106,570.6306 L1107.5398,581.0429 L1106.7708,591.4551 " fill="#333333" style="stroke:#333333;stroke-width:3.125;"/><path d="M1106.7708,591.4551 L1106.7708,591.747 L1095.9375,590.8796 L1085.1042,591.7235 L1074.2708,592.0102 L1063.4375,590.4643 L1052.6042,591.3471 L1041.7708,590.8627 L1030.9375,590.9224 L1020.1042,591.3604 L1009.2708,590.4948 L998.4375,591.4551 " fill="#333333" style="stroke:#333333;stroke-width:3.125;"/><polygon fill="#333333" points="1008.8542,587.2884,1008.8813,587.3562,1006.7174,587.9882,1004.7124,589.0174,1002.6557,589.9173,1000.4288,590.3918,998.4375,591.4551,998.4275,591.43,1000.4658,592.1509,1002.5547,592.9981,1004.6787,593.9331,1006.6817,594.5655,1008.8542,595.6217,1008.9901,595.7577,1007.8661,594.6337,1007.1389,593.9065,1006.4602,593.2278,1005.4998,592.2674,1004.6875,591.4551,1004.7043,591.4718,1005.513,590.6139,1006.398,589.8322,1007.2462,589.0138,1008.1646,588.2655,1008.8542,587.2884" style="stroke:#333333;stroke-width:1.0416666666666667;"/><path d="M985.9375,558.1217 L986.0348,558.1217 L985.7457,562.2884 L986.027,566.4551 L986.1225,570.6217 L985.6072,574.7884 L985.9375,578.9551 " fill="#333333" style="stroke:#333333;stroke-width:3.125;"/><polygon fill="#333333" points="981.7708,568.5384,981.8386,568.5655,982.4706,570.5683,983.4998,572.73,984.3997,574.84,984.8742,576.7797,985.9375,578.9551,985.9124,578.9451,986.6333,576.8167,987.4805,574.739,988.4155,572.6963,989.0479,570.5326,990.1042,568.5384,990.2401,568.6743,989.1161,569.217,988.3889,570.1565,987.7102,571.1445,986.7498,571.8507,985.9375,572.7051,985.9543,572.7218,985.0963,571.8639,984.3147,571.0822,983.4962,570.2638,982.748,569.5155,981.7708,568.5384" style="stroke:#333333;stroke-width:1.0416666666666667;"/><path d="M985.9375,443.5872 L986.0348,443.5872 L985.7457,447.7539 L986.027,451.9206 L986.1225,456.0872 L985.6072,460.2539 L985.9375,464.4206 " fill="#333333" style="stroke:#333333;stroke-width:3.125;"/><polygon fill="#333333" points="981.7708,454.0039,981.8386,454.031,982.4706,456.0338,983.4998,458.1955,984.3997,460.3054,984.8742,462.2452,985.9375,464.4206,985.9124,464.4106,986.6333,462.2822,987.4805,460.2045,988.4155,458.1618,989.0479,455.9981,990.1042,454.0039,990.2401,454.1398,989.1161,454.6825,988.3889,455.622,987.7102,456.61,986.7498,457.3162,985.9375,458.1706,985.9543,458.1873,985.0963,457.3294,984.3147,456.5477,983.4962,455.7293,982.748,454.981,981.7708,454.0039" style="stroke:#333333;stroke-width:1.0416666666666667;"/><path d="M985.9375,603.9551 L986.0348,603.9551 L985.7457,608.1217 L986.027,612.2884 L986.1225,616.4551 L985.6072,620.6217 L985.9375,624.7884 " fill="#333333" style="stroke:#333333;stroke-width:3.125;"/><polygon fill="#333333" points="981.7708,614.3717,981.8386,614.3988,982.4706,616.4016,983.4998,618.5633,984.3997,620.6733,984.8742,622.6131,985.9375,624.7884,985.9124,624.7784,986.6333,622.6501,987.4805,620.5723,988.4155,618.5296,989.0479,616.3659,990.1042,614.3717,990.2401,614.5077,989.1161,615.0503,988.3889,615.9899,987.7102,616.9778,986.7498,617.684,985.9375,618.5384,985.9543,618.5552,985.0963,617.6972,984.3147,616.9156,983.4962,616.0971,982.748,615.3489,981.7708,614.3717" style="stroke:#333333;stroke-width:1.0416666666666667;"/><path d="M985.9375,662.2559 L986.0348,662.2559 L985.7457,666.4225 L986.027,670.5892 L986.1225,674.7559 L985.6072,678.9225 L985.9375,683.0892 " fill="#333333" style="stroke:#333333;stroke-width:3.125;"/><polygon fill="#333333" points="981.7708,672.6725,981.8386,672.6996,982.4706,674.7024,983.4998,676.8641,984.3997,678.9741,984.8742,680.9139,985.9375,683.0892,985.9124,683.0792,986.6333,680.9509,987.4805,678.8731,988.4155,676.8304,989.0479,674.6667,990.1042,672.6725,990.2401,672.8085,989.1161,673.3511,988.3889,674.2906,987.7102,675.2786,986.7498,675.9848,985.9375,676.8392,985.9543,676.8559,985.0963,675.998,984.3147,675.2164,983.4962,674.3979,982.748,673.6497,981.7708,672.6725" style="stroke:#333333;stroke-width:1.0416666666666667;"/><path d="M58.3333,120.7682 L58.4306,120.7682 L58.1415,121.8099 L58.4228,122.8516 L58.5184,123.8932 L58.0031,124.9349 L58.3333,125.9766 " fill="#333333" style="stroke:#333333;stroke-width:3.125;"/><path d="M58.3333,125.9766 L58.3333,126.2685 L68.8368,125.4011 L79.3403,126.245 L89.8438,126.5317 L100.3472,124.9857 L110.8507,125.8686 L121.3542,125.3842 L131.8576,125.4439 L142.3611,125.8819 L152.8646,125.0163 L163.3681,126.7455 L173.8715,125.1012 L184.375,125.7019 L194.8785,126.5765 L205.3819,125.8574 L215.8854,126.0713 L226.3889,125.9322 L236.8924,126.2245 L247.3958,126.3087 L257.8993,126.79 L268.4028,126.9086 L278.9063,126.92 L289.4097,126.3302 L299.9132,126.6204 L310.4167,126.9519 L320.9201,124.9749 L331.4236,126.9189 L341.9271,125.5648 L352.4306,126.718 L362.934,125.289 L373.4375,125.8814 L383.941,127.0066 L394.4444,125.9089 L404.9479,126.1228 L415.4514,126.4469 L425.9549,126.5547 L436.4583,125.9766 " fill="#333333" style="stroke:#333333;stroke-width:3.125;"/><path d="M436.4583,125.9766 L436.5556,125.9766 L436.2665,129.1016 L436.5478,132.2266 L436.6434,135.3516 L436.1281,138.4766 L436.4583,141.6016 " fill="#333333" style="stroke:#333333;stroke-width:3.125;"/><polygon fill="#333333" points="432.2917,131.1849,432.3594,131.212,432.9914,133.2148,434.0206,135.3765,434.9205,137.4864,435.395,139.4262,436.4583,141.6016,436.4333,141.5915,437.1542,139.4632,438.0014,137.3854,438.9364,135.3428,439.5688,133.1791,440.625,131.1849,440.7609,131.3208,439.6369,131.8635,438.9098,132.803,438.2311,133.7909,437.2706,134.4972,436.4583,135.3516,436.4751,135.3683,435.6172,134.5104,434.8355,133.7287,434.017,132.9103,433.2688,132.162,432.2917,131.1849" style="stroke:#333333;stroke-width:1.0416666666666667;"/><path d="M436.4583,385.2865 L436.5556,385.2865 L436.2665,386.3281 L436.5478,387.3698 L436.6434,388.4115 L436.1281,389.4531 L436.4583,390.4948 " fill="#333333" style="stroke:#333333;stroke-width:3.125;"/><path d="M436.4583,390.4948 L436.4583,390.7867 L446.8259,389.9193 L457.1934,390.7632 L467.5609,391.0499 L477.9285,389.504 L488.296,390.3869 L498.6635,389.9024 L509.0311,389.9622 L519.3986,390.4001 L529.7661,389.5346 L540.1336,391.2637 L550.5012,389.6194 L560.8687,390.2201 L571.2362,391.0947 L581.6038,390.3757 L591.9713,390.5896 L602.3388,390.4504 L612.7064,390.7427 L623.0739,390.8269 L633.4414,391.3082 L643.809,391.4268 L654.1765,391.4382 L664.544,390.8484 L674.9116,391.1387 L685.2791,391.4701 L695.6466,389.4931 L706.0142,391.4372 L716.3817,390.083 L726.7492,391.2362 L737.1167,389.8073 L747.4843,390.3997 L757.8518,391.5248 L768.2193,390.4271 L778.5869,390.641 L788.9544,390.9651 L799.3219,391.0729 L809.6895,390.4894 L820.057,390.8937 L830.4245,389.6998 L840.7921,390.8898 L851.1596,391.2562 L861.5271,391.1122 L871.8947,391.3462 L882.2622,389.8238 L892.6297,389.589 L902.9972,389.6317 L913.3648,390.413 L923.7323,390.2218 L934.0998,391.4412 L944.4674,390.2522 L954.8349,390.0183 L965.2024,390.8118 L975.57,389.5686 L985.9375,390.4948 " fill="#333333" style="stroke:#333333;stroke-width:3.125;"/><path d="M985.9375,390.4948 L986.0348,390.4948 L985.7457,393.6198 L986.027,396.7448 L986.1225,399.8698 L985.6072,402.9948 L985.9375,406.1198 " fill="#333333" style="stroke:#333333;stroke-width:3.125;"/><polygon fill="#333333" points="981.7708,395.7031,981.8386,395.7302,982.4706,397.733,983.4998,399.8947,984.3997,402.0047,984.8742,403.9445,985.9375,406.1198,985.9124,406.1098,986.6333,403.9815,987.4805,401.9037,988.4155,399.861,989.0479,397.6973,990.1042,395.7031,990.2401,395.8391,989.1161,396.3817,988.3889,397.3212,987.7102,398.3092,986.7498,399.0154,985.9375,399.8698,985.9543,399.8865,985.0963,399.0286,984.3147,398.247,983.4962,397.4285,982.748,396.6803,981.7708,395.7031" style="stroke:#333333;stroke-width:1.0416666666666667;"/><path d="M985.9375,720.5566 L986.0348,720.5566 L985.7457,721.5983 L986.027,722.64 L986.1225,723.6816 L985.6072,724.7233 L985.9375,725.765 " fill="#333333" style="stroke:#333333;stroke-width:3.125;"/><path d="M985.9375,725.765 L985.9375,726.0569 L975.57,725.1895 L965.2024,726.0334 L954.8349,726.3201 L944.4674,724.7741 L934.0998,725.657 L923.7323,725.1726 L913.3648,725.2323 L902.9972,725.6703 L892.6297,724.8047 L882.2622,726.5339 L871.8947,724.8896 L861.5271,725.4903 L851.1596,726.3649 L840.7921,725.6458 L830.4245,725.8597 L820.057,725.7206 L809.6895,726.0129 L799.3219,726.0971 L788.9544,726.5784 L778.5869,726.697 L768.2193,726.7084 L757.8518,726.1186 L747.4843,726.4088 L737.1167,726.7403 L726.7492,724.7633 L716.3817,726.7074 L706.0142,725.3532 L695.6466,726.5064 L685.2791,725.0774 L674.9116,725.6698 L664.544,726.795 L654.1765,725.6973 L643.809,725.9112 L633.4414,726.2353 L623.0739,726.3431 L612.7064,725.7595 L602.3388,726.1639 L591.9713,724.9699 L581.6038,726.16 L571.2362,726.5264 L560.8687,726.3824 L550.5012,726.6164 L540.1336,725.094 L529.7661,724.8592 L519.3986,724.9019 L509.0311,725.6832 L498.6635,725.492 L488.296,726.7114 L477.9285,725.5224 L467.5609,725.2885 L457.1934,726.082 L446.8259,724.8388 L436.4583,725.765 " fill="#333333" style="stroke:#333333;stroke-width:3.125;"/><path d="M436.4583,725.765 L436.5556,725.765 L436.2665,728.89 L436.5478,732.015 L436.6434,735.14 L436.1281,738.265 L436.4583,741.39 " fill="#333333" style="stroke:#333333;stroke-width:3.125;"/><polygon fill="#333333" points="432.2917,730.9733,432.3594,731.0004,432.9914,733.0032,434.0206,735.1649,434.9205,737.2748,435.395,739.2146,436.4583,741.39,436.4333,741.38,437.1542,739.2516,438.0014,737.1739,438.9364,735.1312,439.5688,732.9675,440.625,730.9733,440.7609,731.1092,439.6369,731.6519,438.9098,732.5914,438.2311,733.5794,437.2706,734.2856,436.4583,735.14,436.4751,735.1567,435.6172,734.2988,434.8355,733.5171,434.017,732.6987,433.2688,731.9504,432.2917,730.9733" style="stroke:#333333;stroke-width:1.0416666666666667;"/><text fill="#2E2E2E" font-family="Segoe Print" font-size="12.5" lengthAdjust="spacing" textLength="25" x="44.7917" y="28.2694">&#29992;&#25143;</text><text fill="#2E2E2E" font-family="Segoe Print" font-size="12.5" lengthAdjust="spacing" textLength="37.5" x="456.7708" y="28.2694">&#23458;&#25143;&#31471;</text><text fill="#2E2E2E" font-family="Segoe Print" font-size="12.5" lengthAdjust="spacing" textLength="37.5" x="970.5729" y="28.2694">&#26381;&#21153;&#22120;</text><!--SRC=[hLBBJjj05DtFLrpKZRD0HUggWQO2_g1Kwjfohia8PoOQ3o0ZBq2YLK04gCWY86-2-eXQ550NWCBZQpBZy1STnqx0j5bKwcOsS-yvvvvpfcG5gmZ-2agd4appLUbHXYICcnrTlmg9BsqXIL7lV1-qz_HHetyNpH8Igkwf-Ov_deUagAAEZivKTA5wpMHjE0IMNQjv0V0Q2bjIpi3ZZkrvGS6iKnSitJfNXzzWpkLCWiCzBjui2qHMMWgOKn6SqGqipxrClajl2s1aCh02z0i4eAWEFZziRgLCgdwXeuRQRQlZ3bXBoCfFI2K77yKQ2aDhzkBTIxsvfGvQ_UjUZlg5Qxz-DUEKvjTjAYbRXaNEN2ggcO1PWfwFO36Uq3_ADwV_2yppEn95Dzlgi9vUqh_UL_SVutPtqFqoiXeWPHuZVg2o0Wkhhcjk-Yj4V7kaFlrIUxtXCYjJbwGl2SS-cTJq_bVTl1o5zGuTf6luwDmufk6OyTXWnZyoo__8Ot1tfXkd8x3tmcQ-oqKr1vU9AEPRCfzlIKARfPlwa32FkfQbQpihIQwEHv79mhCs3ZL7Ewa9ySds1C4PHNxgQPF-Orqcmqmi_DWjN_BQRm00]--></g></svg>