<svg xmlns="http://www.w3.org/2000/svg"
  xmlns:cc="http://creativecommons.org/ns#"
  xmlns:rdf="http://www.w3.org/1999/02/22-rdf-syntax-ns#" version="1.1" width="549.2734375" height="66.52539825439453" viewBox="0 0 549.27 66">
  <defs>
    <style type="text/css">
        
        .root text,
        .root tspan {
          font: 12px Arial; }
        
        .root path {
          fill-opacity: 0;
          stroke-width: 2px;
          stroke: #000; }
        
        .root circle {
          fill: #6b6659;
          stroke-width: 2px;
          stroke: #000; }
        
        .anchor text, .any-character text {
          fill: #fff; }
        
        .anchor rect, .any-character rect {
          fill: #6b6659; }
        
        .escape text, .charset-escape text, .literal text {
          fill: #000; }
        
        .escape rect, .charset-escape rect {
          fill: #bada55; }
        
        .literal rect {
          fill: #dae9e5; }
        
        .charset .charset-box {
          fill: #cbcbba; }
        
        .subexp .subexp-label tspan,
        .charset .charset-label tspan,
        .match-fragment .repeat-label tspan {
          font-size: 10px; }
        
        .repeat-label {
          cursor: help; }
        
        .subexp .subexp-label tspan,
        .charset .charset-label tspan {
          dominant-baseline: text-after-edge; }
        
        .subexp .subexp-box {
          stroke: #908c83;
          stroke-dasharray: 6,2;
          stroke-width: 2px;
          fill-opacity: 0; }
        
        .quote {
          fill: #908c83; }
    </style>
  </defs>
  <metadata>
    <rdf:rdf>
      <cc:license rdf:about="http://creativecommons.org/licenses/by/3.0/">
        <cc:permits rdf:resource="http://creativecommons.org/ns#Reproduction"></cc:permits>
        <cc:permits rdf:resource="http://creativecommons.org/ns#Distribution"></cc:permits>
        <cc:requires rdf:resource="http://creativecommons.org/ns#Notice"></cc:requires>
        <cc:requires rdf:resource="http://creativecommons.org/ns#Attribution"></cc:requires>
        <cc:permits rdf:resource="http://creativecommons.org/ns#DerivativeWorks"></cc:permits>
      </cc:license>
    </rdf:rdf>
  </metadata>
  <desc>Created with Snap</desc>
  <g class="root" transform="matrix(1,0,0,1,15,10)">
    <g class="regexp match" transform="matrix(1,0,0,1,10,0)">
      <path d="M42.015625,11.7626953125H77.8047M99.1406375,11.7627H119.1406M151.156225,11.7626953125H186.9453M208.2812375,11.7627H228.2813M260.296925,11.7626953125H296.0859M317.4218375,11.7627H337.4219M369.437525,11.7626953125H405.2266"></path>
      <g class="match-fragment" transform="matrix(1,0,0,1,0,0)">
        <path d="M10,11.7626953125q-10,0 -10,10v1.7626953125q0,10 10,10h32.015625q10,0 10,-10v-1.7626953125q0,-10 -10,-10M52.015625,26.7626953125l5,-5m-5,5l-5,-5"></path>
        <g class="escape" transform="matrix(1,0,0,1,10,0)">
          <g class="label">
            <rect width="32.015625" height="23.525390625" rx="3" ry="3"></rect>
            <text x="0" y="0" transform="matrix(1,0,0,1,5,16.7627)">
              <tspan>digit</tspan>
            </text>
          </g>
        </g>
        <text x="0" y="0" class="repeat-label" transform="matrix(1,0,0,1,0,44.5254)">
          <tspan>at most 2 times</tspan>
          <title>
            <text x="0" y="0">repeats at most 3 times in total</text>
          </title>
        </text>
      </g>
      <g class="match-fragment literal" transform="matrix(1,0,0,1,77.8047,0.0127)">
        <g class="label">
          <rect width="21.3359375" height="23.5" rx="3" ry="3"></rect>
          <text x="0" y="0" transform="matrix(1,0,0,1,5,16.75)">
            <tspan class="quote">“</tspan>
            <tspan>.</tspan>
            <tspan class="quote">”</tspan>
          </text>
        </g>
      </g>
      <g class="match-fragment" transform="matrix(1,0,0,1,109.1406,0)">
        <path d="M10,11.7626953125q-10,0 -10,10v1.7626953125q0,10 10,10h32.015625q10,0 10,-10v-1.7626953125q0,-10 -10,-10M52.015625,26.7626953125l5,-5m-5,5l-5,-5"></path>
        <g class="escape" transform="matrix(1,0,0,1,10,0)">
          <g class="label">
            <rect width="32.015625" height="23.525390625" rx="3" ry="3"></rect>
            <text x="0" y="0" transform="matrix(1,0,0,1,5,16.7627)">
              <tspan>digit</tspan>
            </text>
          </g>
        </g>
        <text x="0" y="0" class="repeat-label" transform="matrix(1,0,0,1,0,44.5254)">
          <tspan>at most 2 times</tspan>
          <title>
            <text x="0" y="0">repeats at most 3 times in total</text>
          </title>
        </text>
      </g>
      <g class="match-fragment literal" transform="matrix(1,0,0,1,186.9453,0.0127)">
        <g class="label">
          <rect width="21.3359375" height="23.5" rx="3" ry="3"></rect>
          <text x="0" y="0" transform="matrix(1,0,0,1,5,16.75)">
            <tspan class="quote">“</tspan>
            <tspan>.</tspan>
            <tspan class="quote">”</tspan>
          </text>
        </g>
      </g>
      <g class="match-fragment" transform="matrix(1,0,0,1,218.2813,0)">
        <path d="M10,11.7626953125q-10,0 -10,10v1.7626953125q0,10 10,10h32.015625q10,0 10,-10v-1.7626953125q0,-10 -10,-10M52.015625,26.7626953125l5,-5m-5,5l-5,-5"></path>
        <g class="escape" transform="matrix(1,0,0,1,10,0)">
          <g class="label">
            <rect width="32.015625" height="23.525390625" rx="3" ry="3"></rect>
            <text x="0" y="0" transform="matrix(1,0,0,1,5,16.7627)">
              <tspan>digit</tspan>
            </text>
          </g>
        </g>
        <text x="0" y="0" class="repeat-label" transform="matrix(1,0,0,1,0,44.5254)">
          <tspan>at most 2 times</tspan>
          <title>
            <text x="0" y="0">repeats at most 3 times in total</text>
          </title>
        </text>
      </g>
      <g class="match-fragment literal" transform="matrix(1,0,0,1,296.0859,0.0127)">
        <g class="label">
          <rect width="21.3359375" height="23.5" rx="3" ry="3"></rect>
          <text x="0" y="0" transform="matrix(1,0,0,1,5,16.75)">
            <tspan class="quote">“</tspan>
            <tspan>.</tspan>
            <tspan class="quote">”</tspan>
          </text>
        </g>
      </g>
      <g class="match-fragment" transform="matrix(1,0,0,1,327.4219,0)">
        <path d="M10,11.7626953125q-10,0 -10,10v1.7626953125q0,10 10,10h32.015625q10,0 10,-10v-1.7626953125q0,-10 -10,-10M52.015625,26.7626953125l5,-5m-5,5l-5,-5"></path>
        <g class="escape" transform="matrix(1,0,0,1,10,0)">
          <g class="label">
            <rect width="32.015625" height="23.525390625" rx="3" ry="3"></rect>
            <text x="0" y="0" transform="matrix(1,0,0,1,5,16.7627)">
              <tspan>digit</tspan>
            </text>
          </g>
        </g>
        <text x="0" y="0" class="repeat-label" transform="matrix(1,0,0,1,0,44.5254)">
          <tspan>at most 2 times</tspan>
          <title>
            <text x="0" y="0">repeats at most 3 times in total</text>
          </title>
        </text>
      </g>
      <g class="match-fragment escape" transform="matrix(1,0,0,1,405.2266,0)">
        <g class="label">
          <rect width="94.046875" height="23.525390625" rx="3" ry="3"></rect>
          <text x="0" y="0" transform="matrix(1,0,0,1,5,16.7627)">
            <tspan>line feed (0x0A)</tspan>
          </text>
        </g>
      </g>
    </g>
    <path d="M20,11.7626953125H0M509.273475,11.7626953125H519.2734680175781"></path>
    <circle cx="0" cy="11.7626953125" r="5"></circle>
    <circle cx="519.2734680175781" cy="11.7626953125" r="5"></circle>
  </g>
</svg>
        