<?xml version="1.0" encoding="UTF-8" standalone="no"?><svg xmlns="http://www.w3.org/2000/svg" xmlns:xlink="http://www.w3.org/1999/xlink" contentStyleType="text/css" height="817.7083px" preserveAspectRatio="none" style="width:552px;height:817px;background:#00000000;" version="1.1" viewBox="0 0 552 817" width="552.0833px" zoomAndPan="magnify"><defs/><g><polygon fill="none" points="81.25,546.5902,81.25,546.8091,91.6171,546.1586,101.9841,546.7915,112.3512,547.0065,122.7183,545.847,133.0853,546.5092,143.4524,546.1459,153.8194,546.1907,164.1865,546.5192,174.5536,545.87,184.9206,547.1669,195.2877,545.9336,205.6548,546.3842,216.0218,547.0401,226.3889,546.5008,236.756,546.6613,247.123,546.5569,257.4901,546.7761,267.8571,546.8393,278.2242,547.2003,288.5913,547.2892,298.9583,547.2977,309.3254,546.8554,319.6925,547.0731,330.0595,547.3217,340.4266,545.8389,350.7937,547.297,361.1607,546.2813,371.5278,547.1462,381.8948,546.0745,392.2619,546.5188,402.629,547.3627,412.996,546.5394,423.3631,546.6999,433.7302,546.9429,444.0972,547.0237,454.4643,546.5861,464.8313,546.8893,475.1984,545.9939,485.5655,546.8864,495.9325,547.1612,506.2996,547.0532,516.6667,546.5902,516.7481,546.7868,517.1917,546.6793,517.7585,546.8691,518.3519,547.1231,519.0159,547.5476,519.6129,547.8106,519.5499,547.7844,520.0756,548.4904,520.0451,548.9659,520.2351,549.5327,520.6625,550.1979,520.8333,550.7568,520.1387,550.7568,520.2926,561.06,521.5093,571.3632,521.2872,581.6663,521.5984,591.9695,520.4981,602.2726,521.1658,612.5758,521.4484,622.879,520.3412,633.1821,520.7335,643.4853,520.9646,653.7885,521.5122,664.0916,520.829,674.3948,521.3152,684.698,520.2565,695.0011,520.1279,705.3043,521.3579,715.6074,520.0865,725.9106,521.3635,736.2138,520.8333,746.5169,520.8996,746.5444,520.5033,747.0706,520.2317,747.6484,520.2483,748.3457,519.761,748.8342,519.6129,749.4632,519.6916,749.6531,518.9502,749.53,518.5165,750.1494,517.9095,750.3508,517.2885,750.5181,516.6667,750.6836,516.6667,750.7328,506.2996,751.4405,495.9325,751.3227,485.5655,750.8599,475.1984,750.963,464.8313,750.5479,454.4643,751.4299,444.0972,750.8449,433.7302,750.8634,423.3631,750.0499,412.996,750.2615,402.629,751.2365,392.2619,751.1313,381.8948,750.6389,371.5278,750.348,361.1607,750.4555,350.7937,749.9688,340.4266,751.1156,330.0595,751.454,319.6925,751.2319,309.3254,751.4075,298.9583,750.5412,288.5913,750.7744,278.2242,750.2798,267.8571,750.9795,257.4901,750.9406,247.123,751.259,236.756,750.4444,226.3889,750.5436,216.0218,751.1455,205.6548,751.2746,195.2877,750.1497,184.9206,750.4816,174.5536,750.8391,164.1865,750.0473,153.8194,751.0517,143.4524,750.9523,133.0853,750.5786,122.7183,750.8318,112.3512,751.4426,101.9841,750.3577,91.6171,751.0117,81.25,750.6836,81.288,750.7752,80.6761,750.4767,80.0902,750.2406,79.4973,749.9878,78.81,749.5071,78.3037,749.4632,78.1751,749.4099,77.9116,748.8126,77.836,748.2932,77.5998,747.7071,77.3793,747.1277,77.0833,746.5169,76.7802,746.5169,77.013,736.2138,76.9581,725.9106,77.6842,715.6074,77.5277,705.3043,76.5776,695.0011,77.0074,684.698,76.4821,674.3948,77.3837,664.0916,77.7172,653.7885,77.6506,643.4853,76.6296,633.1821,77.5666,622.879,76.3096,612.5758,77.2918,602.2726,76.7715,591.9695,77.1841,581.6663,77.3337,571.3632,77.5751,561.06,77.0833,550.7568,76.8524,550.6612,77.4799,550.2308,77.6286,549.602,77.9296,549.0363,78.2995,548.4992,78.3037,547.8106,78.3044,547.8123,78.9163,547.6227,79.5106,547.3909,80.0977,547.1416,80.6606,546.834,81.25,546.5902" style="stroke:#333333;stroke-width:1.0416666666666667;"/><path d="M82.2917,51.18 L82.5836,51.18 L81.7162,61.5744 L82.5601,71.9688 L82.8468,82.3631 L81.3008,92.7575 L82.1837,103.1519 L81.6993,113.5463 L81.759,123.9406 L82.197,134.335 L81.3314,144.7294 L83.0606,155.1238 L81.4163,165.5181 L82.017,175.9125 L82.8916,186.3069 L82.1725,196.7013 L82.3864,207.0956 L82.2473,217.49 L82.5396,227.8844 L82.6238,238.2788 L83.1051,248.6731 L83.2237,259.0675 L83.2351,269.4619 L82.6453,279.8563 L82.9355,290.2507 L83.267,300.645 L81.29,311.0394 L83.234,321.4338 L81.8799,331.8282 L83.0331,342.2225 L81.6041,352.6169 L82.1965,363.0113 L83.3217,373.4057 L82.224,383.8 L82.4379,394.1944 L82.762,404.5888 L82.8698,414.9832 L82.2862,425.3775 L82.6906,435.7719 L81.4966,446.1663 L82.6866,456.5607 L83.053,466.955 L82.9091,477.3494 L83.1431,487.7438 L81.6207,498.1382 L81.3859,508.5325 L81.4286,518.9269 L82.2099,529.3213 L82.0187,539.7157 L83.2381,550.11 L82.0491,560.5044 L81.8152,570.8988 L82.6087,581.2932 L81.3655,591.6875 L81.5707,602.0819 L83.193,612.4763 L82.8968,622.8707 L83.3118,633.265 L81.8447,643.6594 L82.735,654.0538 L83.1117,664.4482 L81.6355,674.8425 L82.1585,685.2369 L82.4666,695.6313 L83.1969,706.0257 L82.2858,716.42 L82.9341,726.8144 L81.5225,737.2088 L81.351,747.6032 L82.9911,757.9976 L82.2917,768.3919 " fill="none" style="stroke:#555555;stroke-width:1.0416666666666667;stroke-dasharray:5.0,5.0;"/><path d="M255.2083,51.18 L255.5003,51.18 L254.6329,61.5744 L255.4768,71.9688 L255.7634,82.3631 L254.2175,92.7575 L255.1004,103.1519 L254.616,113.5463 L254.6757,123.9406 L255.1137,134.335 L254.2481,144.7294 L255.9773,155.1238 L254.3329,165.5181 L254.9337,175.9125 L255.8083,186.3069 L255.0892,196.7013 L255.3031,207.0956 L255.164,217.49 L255.4563,227.8844 L255.5405,238.2788 L256.0218,248.6731 L256.1404,259.0675 L256.1517,269.4619 L255.562,279.8563 L255.8522,290.2507 L256.1837,300.645 L254.2067,311.0394 L256.1507,321.4338 L254.7965,331.8282 L255.9497,342.2225 L254.5208,352.6169 L255.1132,363.0113 L256.2383,373.4057 L255.1406,383.8 L255.3546,394.1944 L255.6786,404.5888 L255.7864,414.9832 L255.2029,425.3775 L255.6072,435.7719 L254.4133,446.1663 L255.6033,456.5607 L255.9697,466.955 L255.8257,477.3494 L256.0598,487.7438 L254.5374,498.1382 L254.3025,508.5325 L254.3453,518.9269 L255.1266,529.3213 L254.9354,539.7157 L256.1547,550.11 L254.9657,560.5044 L254.7319,570.8988 L255.5254,581.2932 L254.2822,591.6875 L254.4873,602.0819 L256.1097,612.4763 L255.8134,622.8707 L256.2285,633.265 L254.7614,643.6594 L255.6517,654.0538 L256.0284,664.4482 L254.5522,674.8425 L255.0752,685.2369 L255.3833,695.6313 L256.1136,706.0257 L255.2025,716.42 L255.8508,726.8144 L254.4392,737.2088 L254.2677,747.6032 L255.9078,757.9976 L255.2083,768.3919 " fill="none" style="stroke:#555555;stroke-width:1.0416666666666667;stroke-dasharray:5.0,5.0;"/><path d="M423.9583,51.18 L424.2503,51.18 L423.3829,61.5744 L424.2268,71.9688 L424.5134,82.3631 L422.9675,92.7575 L423.8504,103.1519 L423.366,113.5463 L423.4257,123.9406 L423.8637,134.335 L422.9981,144.7294 L424.7273,155.1238 L423.0829,165.5181 L423.6837,175.9125 L424.5583,186.3069 L423.8392,196.7013 L424.0531,207.0956 L423.914,217.49 L424.2063,227.8844 L424.2905,238.2788 L424.7718,248.6731 L424.8904,259.0675 L424.9017,269.4619 L424.312,279.8563 L424.6022,290.2507 L424.9337,300.645 L422.9567,311.0394 L424.9007,321.4338 L423.5465,331.8282 L424.6997,342.2225 L423.2708,352.6169 L423.8632,363.0113 L424.9883,373.4057 L423.8906,383.8 L424.1046,394.1944 L424.4286,404.5888 L424.5364,414.9832 L423.9529,425.3775 L424.3572,435.7719 L423.1633,446.1663 L424.3533,456.5607 L424.7197,466.955 L424.5757,477.3494 L424.8098,487.7438 L423.2874,498.1382 L423.0525,508.5325 L423.0953,518.9269 L423.8766,529.3213 L423.6854,539.7157 L424.9047,550.11 L423.7157,560.5044 L423.4819,570.8988 L424.2754,581.2932 L423.0322,591.6875 L423.2373,602.0819 L424.8597,612.4763 L424.5634,622.8707 L424.9785,633.265 L423.5114,643.6594 L424.4017,654.0538 L424.7784,664.4482 L423.3022,674.8425 L423.8252,685.2369 L424.1333,695.6313 L424.8636,706.0257 L423.9525,716.42 L424.6008,726.8144 L423.1892,737.2088 L423.0177,747.6032 L424.6578,757.9976 L423.9583,768.3919 " fill="none" style="stroke:#555555;stroke-width:1.0416666666666667;stroke-dasharray:5.0,5.0;"/><polygon fill="none" points="61.4583,10.4167,61.4583,10.4896,69.7917,10.2728,78.125,10.4838,86.4583,10.5554,94.7917,10.169,103.125,10.4167,103.1147,10.3917,103.6576,10.5239,104.2526,10.7818,104.8837,11.127,105.3902,11.1712,106.0713,11.6371,106.2489,11.7106,106.1132,12.1426,106.496,12.7893,106.9421,13.4622,107.0201,13.9827,107.2917,14.5833,107.3154,14.5833,107.2806,20.861,107.3537,27.1387,107.3747,33.4163,107.495,39.694,107.2917,45.9717,107.5069,46.0608,107.2655,46.6512,106.8852,47.184,106.7081,47.801,106.5406,48.422,106.0713,48.918,105.9754,48.6866,105.5722,49.3797,104.8534,49.311,104.3744,49.8214,103.6485,49.7355,103.125,50.1383,103.125,50.1146,94.7917,50.3958,86.4583,50.1214,78.125,50.1749,69.7917,50.2559,61.4583,50.1383,61.5136,50.2719,60.8686,49.893,60.318,49.7423,59.6145,49.2225,59.1391,49.2533,58.5121,48.918,58.6879,48.9908,58.4106,48.3878,58.2206,47.8209,57.6249,47.086,57.3265,46.4743,57.2917,45.9717,57.0759,45.9717,57.2712,39.694,57.2234,33.4163,57.5283,27.1387,57.231,20.861,57.2917,14.5833,57.1816,14.5377,57.609,14.0244,57.5659,13.3162,57.8574,12.7466,58.4762,12.3125,58.5121,11.6371,58.5699,11.7768,59.1989,11.6286,59.6478,11.0457,60.3222,11.0072,60.9475,10.8501,61.4583,10.4167" style="stroke:#333333;stroke-width:1.0416666666666667;"/><text fill="#2E2E2E" font-family="&quot;Segoe Print&quot;" font-size="12.5" lengthAdjust="spacing" textLength="25" x="69.7917" y="35.0016">用户</text><polygon fill="none" points="61.4583,767.3503,61.4583,767.4232,69.7917,767.2064,78.125,767.4174,86.4583,767.489,94.7917,767.1026,103.125,767.3503,103.1147,767.3253,103.6576,767.4575,104.2526,767.7154,104.8837,768.0606,105.3902,768.1048,106.0713,768.5706,106.2489,768.6442,106.1132,769.0762,106.496,769.7229,106.9421,770.3958,107.0201,770.9163,107.2917,771.5169,107.3154,771.5169,107.2806,777.7946,107.3537,784.0723,107.3747,790.3499,107.495,796.6276,107.2917,802.9053,107.5069,802.9944,107.2655,803.5848,106.8852,804.1176,106.7081,804.7346,106.5406,805.3556,106.0713,805.8516,105.9754,805.6202,105.5722,806.3133,104.8534,806.2446,104.3744,806.755,103.6485,806.6691,103.125,807.0719,103.125,807.0482,94.7917,807.3294,86.4583,807.055,78.125,807.1085,69.7917,807.1895,61.4583,807.0719,61.5136,807.2055,60.8686,806.8266,60.318,806.6759,59.6145,806.1561,59.1391,806.1869,58.5121,805.8516,58.6879,805.9244,58.4106,805.3214,58.2206,804.7545,57.6249,804.0196,57.3265,803.4079,57.2917,802.9053,57.0759,802.9053,57.2712,796.6276,57.2234,790.3499,57.5283,784.0723,57.231,777.7946,57.2917,771.5169,57.1816,771.4713,57.609,770.958,57.5659,770.2498,57.8574,769.6802,58.4762,769.2461,58.5121,768.5706,58.5699,768.7104,59.1989,768.5622,59.6478,767.9793,60.3222,767.9408,60.9475,767.7837,61.4583,767.3503" style="stroke:#333333;stroke-width:1.0416666666666667;"/><text fill="#2E2E2E" font-family="&quot;Segoe Print&quot;" font-size="12.5" lengthAdjust="spacing" textLength="25" x="69.7917" y="791.9352">用户</text><polygon fill="none" points="228.125,10.4167,228.125,10.6356,238.9583,9.9851,249.7917,10.618,260.625,10.833,271.4583,9.6735,282.2917,10.4167,282.2813,10.3917,282.8243,10.5239,283.4192,10.7818,284.0504,11.127,284.5568,11.1712,285.2379,11.6371,285.4155,11.7106,285.2798,12.1426,285.6627,12.7893,286.1087,13.4622,286.1867,13.9827,286.4583,14.5833,286.482,14.5833,286.4472,20.861,286.5203,27.1387,286.5414,33.4163,286.6617,39.694,286.4583,45.9717,286.6736,46.0608,286.4322,46.6512,286.0519,47.184,285.8748,47.801,285.7073,48.422,285.2379,48.918,285.1421,48.6866,284.7388,49.3797,284.02,49.311,283.5411,49.8214,282.8151,49.7355,282.2917,50.1383,282.2917,50.067,271.4583,50.9109,260.625,50.0876,249.7917,50.248,238.9583,50.4911,228.125,50.1383,228.1803,50.2719,227.5352,49.893,226.9847,49.7423,226.2812,49.2225,225.8058,49.2533,225.1787,48.918,225.3546,48.9908,225.0772,48.3878,224.8872,47.8209,224.2915,47.086,223.9932,46.4743,223.9583,45.9717,223.7426,45.9717,223.9379,39.694,223.8901,33.4163,224.1949,27.1387,223.8977,20.861,223.9583,14.5833,223.8483,14.5377,224.2756,14.0244,224.2326,13.3162,224.524,12.7466,225.1428,12.3125,225.1787,11.6371,225.2366,11.7768,225.8656,11.6286,226.3145,11.0457,226.9889,11.0072,227.6142,10.8501,228.125,10.4167" style="stroke:#333333;stroke-width:1.0416666666666667;"/><text fill="#2E2E2E" font-family="&quot;Segoe Print&quot;" font-size="12.5" lengthAdjust="spacing" textLength="37.5" x="236.4583" y="35.0016">客户端</text><polygon fill="none" points="228.125,767.3503,228.125,767.5692,238.9583,766.9187,249.7917,767.5516,260.625,767.7666,271.4583,766.6071,282.2917,767.3503,282.2813,767.3253,282.8243,767.4575,283.4192,767.7154,284.0504,768.0606,284.5568,768.1048,285.2379,768.5706,285.4155,768.6442,285.2798,769.0762,285.6627,769.7229,286.1087,770.3958,286.1867,770.9163,286.4583,771.5169,286.482,771.5169,286.4472,777.7946,286.5203,784.0723,286.5414,790.3499,286.6617,796.6276,286.4583,802.9053,286.6736,802.9944,286.4322,803.5848,286.0519,804.1176,285.8748,804.7346,285.7073,805.3556,285.2379,805.8516,285.1421,805.6202,284.7388,806.3133,284.02,806.2446,283.5411,806.755,282.8151,806.6691,282.2917,807.0719,282.2917,807.0006,271.4583,807.8444,260.625,807.0212,249.7917,807.1816,238.9583,807.4247,228.125,807.0719,228.1803,807.2055,227.5352,806.8266,226.9847,806.6759,226.2812,806.1561,225.8058,806.1869,225.1787,805.8516,225.3546,805.9244,225.0772,805.3214,224.8872,804.7545,224.2915,804.0196,223.9932,803.4079,223.9583,802.9053,223.7426,802.9053,223.9379,796.6276,223.8901,790.3499,224.1949,784.0723,223.8977,777.7946,223.9583,771.5169,223.8483,771.4713,224.2756,770.958,224.2326,770.2498,224.524,769.6802,225.1428,769.2461,225.1787,768.5706,225.2366,768.7104,225.8656,768.5622,226.3145,767.9793,226.9889,767.9408,227.6142,767.7837,228.125,767.3503" style="stroke:#333333;stroke-width:1.0416666666666667;"/><text fill="#2E2E2E" font-family="&quot;Segoe Print&quot;" font-size="12.5" lengthAdjust="spacing" textLength="37.5" x="236.4583" y="791.9352">客户端</text><polygon fill="none" points="384.375,10.4167,384.375,10.6356,394.401,9.9851,404.4271,10.618,414.4531,10.833,424.4792,9.6735,434.5052,10.3357,444.5313,9.9724,454.5573,10.0172,464.5833,10.4167,464.5743,10.3948,465.0807,10.439,465.8354,11.0824,466.2674,10.9467,466.9141,11.3295,467.5296,11.6371,467.6682,11.6945,467.7462,12.2149,468.0397,12.8246,468.2516,13.4006,468.5632,14.0178,468.75,14.5833,468.833,14.5833,468.9534,20.861,468.983,27.1387,468.9859,33.4163,468.8384,39.694,468.75,45.9717,468.8987,46.0333,468.7312,46.6542,468.0305,47.0544,468.2354,47.8296,467.6786,48.2893,467.5296,48.918,467.6005,49.0892,466.8746,49.0032,466.342,49.3841,465.8604,49.8881,465.1661,49.8786,464.5833,50.1383,464.5833,50.248,454.5573,50.4911,444.5313,50.5719,434.5052,50.1343,424.4792,50.4375,414.4531,49.5421,404.4271,50.4346,394.401,50.7094,384.375,50.1383,384.4341,50.2809,383.8672,50.0909,383.1323,49.4952,382.5206,49.1969,381.9354,48.9627,381.4287,48.918,381.4098,48.9101,381.1216,48.3026,381.1592,47.83,380.6405,47.127,380.3424,46.5154,380.2083,45.9717,380.2876,45.9717,379.9768,39.694,380.0281,33.4163,380.4337,27.1387,380.3596,20.861,380.2083,14.5833,380.444,14.6809,380.3492,13.9513,380.7989,13.4472,381.13,12.894,381.0331,12.1635,381.4287,11.6371,381.416,11.6063,382.0347,11.4334,382.6938,11.358,383.1959,10.9035,383.8472,10.8091,384.375,10.4167" style="stroke:#333333;stroke-width:1.0416666666666667;"/><text fill="#2E2E2E" font-family="&quot;Segoe Print&quot;" font-size="12.5" lengthAdjust="spacing" textLength="63.5417" x="392.7083" y="35.0016">SSH 服务器</text><polygon fill="none" points="384.375,767.3503,384.375,767.5692,394.401,766.9187,404.4271,767.5516,414.4531,767.7666,424.4792,766.6071,434.5052,767.2693,444.5313,766.906,454.5573,766.9508,464.5833,767.3503,464.5743,767.3284,465.0807,767.3726,465.8354,768.016,466.2674,767.8803,466.9141,768.2631,467.5296,768.5706,467.6682,768.628,467.7462,769.1485,468.0397,769.7582,468.2516,770.3342,468.5632,770.9514,468.75,771.5169,468.833,771.5169,468.9534,777.7946,468.983,784.0723,468.9859,790.3499,468.8384,796.6276,468.75,802.9053,468.8987,802.9669,468.7312,803.5878,468.0305,803.988,468.2354,804.7632,467.6786,805.2229,467.5296,805.8516,467.6005,806.0228,466.8746,805.9368,466.342,806.3177,465.8604,806.8217,465.1661,806.8122,464.5833,807.0719,464.5833,807.1816,454.5573,807.4247,444.5313,807.5055,434.5052,807.0679,424.4792,807.3711,414.4531,806.4757,404.4271,807.3682,394.401,807.643,384.375,807.0719,384.4341,807.2145,383.8672,807.0245,383.1323,806.4288,382.5206,806.1305,381.9354,805.8963,381.4287,805.8516,381.4098,805.8437,381.1216,805.2362,381.1592,804.7636,380.6405,804.0606,380.3424,803.4489,380.2083,802.9053,380.2876,802.9053,379.9768,796.6276,380.0281,790.3499,380.4337,784.0723,380.3596,777.7946,380.2083,771.5169,380.444,771.6145,380.3492,770.8849,380.7989,770.3808,381.13,769.8276,381.0331,769.0971,381.4287,768.5706,381.416,768.5399,382.0347,768.367,382.6938,768.2916,383.1959,767.8371,383.8472,767.7427,384.375,767.3503" style="stroke:#333333;stroke-width:1.0416666666666667;"/><text fill="#2E2E2E" font-family="&quot;Segoe Print&quot;" font-size="12.5" lengthAdjust="spacing" textLength="63.5417" x="392.7083" y="791.9352">SSH 服务器</text><polygon fill="#333333" points="242.7083,88.8184,242.7354,88.8861,244.7382,89.5181,246.8999,90.5473,249.0099,91.4472,250.9497,91.9217,253.125,92.985,253.115,92.96,250.9867,93.6809,248.9089,94.5281,246.8662,95.4631,244.7025,96.0955,242.7083,97.1517,242.8443,97.2876,243.3869,96.1636,244.3264,95.4365,245.3144,94.7577,246.0206,93.7973,246.875,92.985,246.8918,93.0018,246.0338,92.1438,245.2522,91.3622,244.4337,90.5437,243.6855,89.7955,242.7083,88.8184" style="stroke:#333333;stroke-width:1.0416666666666667;"/><path d="M82.2917,92.985 L82.2917,93.2769 L92.7083,92.4096 L103.125,93.2535 L113.5417,93.5401 L123.9583,91.9942 L134.375,92.8771 L144.7917,92.3927 L155.2083,92.4524 L165.625,92.8904 L176.0417,92.0248 L186.4583,93.754 L196.875,92.1096 L207.2917,92.7104 L217.7083,93.585 L228.125,92.8659 L238.5417,93.0798 L248.9583,92.985 " fill="none" style="stroke:#333333;stroke-width:3.125;"/><text fill="#2E2E2E" font-family="&quot;Segoe Print&quot;" font-size="12.5" lengthAdjust="spacing" textLength="105.2083" x="116.1458" y="83.0566">输入 SSH 连接命令</text><polygon fill="#333333" points="411.9792,128.54,412.0063,128.6078,414.0091,129.2398,416.1708,130.269,418.2807,131.1689,420.2205,131.6434,422.3958,132.7067,422.3858,132.6817,420.2575,133.4025,418.1797,134.2497,416.137,135.1847,413.9733,135.8172,411.9792,136.8734,412.1151,137.0093,412.6578,135.8853,413.5973,135.1581,414.5852,134.4794,415.2914,133.519,416.1458,132.7067,416.1626,132.7235,415.3047,131.8655,414.523,131.0839,413.7045,130.2654,412.9563,129.5172,411.9792,128.54" style="stroke:#333333;stroke-width:1.0416666666666667;"/><path d="M255.2083,132.7067 L255.2083,132.9986 L265.3971,132.1313 L275.5859,132.9752 L285.7747,133.2618 L295.9635,131.7159 L306.1523,132.5988 L316.3411,132.1144 L326.5299,132.1741 L336.7188,132.612 L346.9076,131.7465 L357.0964,133.4757 L367.2852,131.8313 L377.474,132.432 L387.6628,133.3066 L397.8516,132.5876 L408.0404,132.8015 L418.2292,132.7067 " fill="none" style="stroke:#333333;stroke-width:3.125;"/><text fill="#2E2E2E" font-family="&quot;Segoe Print&quot;" font-size="12.5" lengthAdjust="spacing" textLength="50" x="314.8438" y="122.7783">请求连接</text><polygon fill="#333333" points="266.6667,168.2617,266.6938,168.3295,264.5299,168.9615,262.5249,169.9907,260.4682,170.8906,258.2413,171.3651,256.25,172.4284,256.24,172.4033,258.2783,173.1242,260.3672,173.9714,262.4912,174.9064,264.4942,175.5388,266.6667,176.5951,266.8026,176.731,265.6786,175.607,264.9514,174.8798,264.2727,174.2011,263.3123,173.2407,262.5,172.4284,262.5168,172.4451,263.3255,171.5872,264.2105,170.8056,265.0587,169.9871,265.9771,169.2389,266.6667,168.2617" style="stroke:#333333;stroke-width:1.0416666666666667;"/><path d="M260.4167,172.4284 L260.4167,172.7203 L270.6055,171.8529 L280.7943,172.6968 L290.9831,172.9835 L301.1719,171.4376 L311.3607,172.3205 L321.5495,171.836 L331.7383,171.8957 L341.9271,172.3337 L352.1159,171.4682 L362.3047,173.1973 L372.4935,171.553 L382.6823,172.1537 L392.8711,173.0283 L403.0599,172.3093 L413.2487,172.5232 L423.4375,172.4284 " fill="none" style="stroke:#333333;stroke-width:3.125;"/><text fill="#2E2E2E" font-family="&quot;Segoe Print&quot;" font-size="12.5" lengthAdjust="spacing" textLength="112.5" x="283.5938" y="162.5">发送公钥和认证请求</text><path d="M260.4167,190.1367 L260.6113,190.1367 L260.033,198.4701 L260.5956,206.8034 L260.7867,215.1367 L259.7561,223.4701 L260.4167,231.8034 L264.5833,235.9701 L264.5833,235.7542 L275.1563,234.7853 L285.7292,234.9048 L296.3021,235.7807 L306.875,234.0496 L317.4479,237.5079 L328.0208,234.2193 L338.5938,235.4207 L349.1667,237.1699 L359.7396,235.7318 L370.3125,236.1596 L380.8854,235.8813 L391.4583,236.466 L402.0313,236.6343 L412.6042,237.597 L423.1771,237.8341 L433.75,237.8569 L444.3229,236.6773 L454.8958,237.2578 L465.4688,237.9207 L476.0417,235.9701 L480.2083,231.8034 L479.5406,231.8034 L480.8366,224.7201 L479.9338,217.6367 L480.7026,210.5534 L479.75,203.4701 L480.2083,196.3867 L480.1635,196.3419 L478.6106,194.7889 L476.0098,192.1881 L474.0273,190.2057 L472.0967,188.2751 L469.7917,185.9701 L469.7917,187.1263 L459.5313,185.9592 L449.2708,186.7679 L439.0104,184.38 L428.75,186.76 L418.4896,187.4928 L408.2292,187.2049 L397.9688,187.6729 L387.7083,184.6282 L377.4479,184.1584 L367.1875,184.2439 L356.9271,185.8065 L346.6667,185.4241 L336.4063,187.8629 L326.1458,185.4848 L315.8854,185.0171 L305.625,186.6041 L295.3646,184.1177 L285.1042,184.528 L274.8438,187.7727 L264.5833,185.9701 L260.4167,190.1367 " fill="#17A2B8" style="stroke:#2E2E2E;stroke-width:1.0416666666666667;"/><path d="M469.7917,185.9701 L470.1951,185.9701 L470.4718,187.6367 L469.4937,189.3034 L470.0872,190.9701 L470.3384,192.6367 L469.7917,194.3034 L471.875,196.3867 L471.875,195.9493 L473.5417,196.298 L475.2083,196.5034 L476.875,196.9902 L478.5417,196.3828 L480.2083,196.3867 L480.5112,196.6896 L477.7624,193.9408 L475.5982,191.7766 L474.2881,190.4664 L471.4056,187.584 L469.7917,185.9701 " fill="#17A2B8" style="stroke:#2E2E2E;stroke-width:1.0416666666666667;"/><text fill="#FFFFFF" font-family="&quot;Segoe Print&quot;" font-size="12.5" lengthAdjust="spacing" textLength="125" x="271.875" y="208.4717">客户端检查服务器公钥</text><text fill="#FFFFFF" font-family="&quot;Segoe Print&quot;" font-size="12.5" lengthAdjust="spacing" textLength="187.5" x="271.875" y="223.1934">如果是第一次连接，提示用户确认</text><polygon fill="#333333" points="93.75,268.6768,93.7771,268.7445,91.6132,269.3765,89.6083,270.4057,87.5515,271.3056,85.3247,271.7801,83.3333,272.8434,83.3233,272.8184,85.3617,273.5393,87.4505,274.3865,89.5745,275.3215,91.5775,275.9539,93.75,277.0101,93.8859,277.146,92.7619,276.022,92.0348,275.2949,91.3561,274.6161,90.3956,273.6557,89.5833,272.8434,89.6001,272.8602,90.4088,272.0022,91.2938,271.2206,92.142,270.4021,93.0605,269.6539,93.75,268.6768" style="stroke:#333333;stroke-width:1.0416666666666667;"/><path d="M87.5,272.8434 L87.5,273.1353 L97.9167,272.268 L108.3333,273.1119 L118.75,273.3985 L129.1667,271.8526 L139.5833,272.7355 L150,272.2511 L160.4167,272.3108 L170.8333,272.7488 L181.25,271.8832 L191.6667,273.6124 L202.0833,271.968 L212.5,272.5687 L222.9167,273.4434 L233.3333,272.7243 L243.75,272.9382 L254.1667,272.8434 " fill="none" style="stroke:#333333;stroke-width:3.125;"/><text fill="#2E2E2E" font-family="&quot;Segoe Print&quot;" font-size="12.5" lengthAdjust="spacing" textLength="137.5" x="100" y="262.915">显示安全警告，请求确认</text><polygon fill="#333333" points="242.7083,308.3984,242.7354,308.4662,244.7382,309.0982,246.8999,310.1274,249.0099,311.0273,250.9497,311.5018,253.125,312.5651,253.115,312.5401,250.9867,313.2609,248.9089,314.1081,246.8662,315.0431,244.7025,315.6755,242.7083,316.7318,242.8443,316.8677,243.3869,315.7437,244.3264,315.0165,245.3144,314.3378,246.0206,313.3774,246.875,312.5651,246.8918,312.5819,246.0338,311.7239,245.2522,310.9423,244.4337,310.1238,243.6855,309.3756,242.7083,308.3984" style="stroke:#333333;stroke-width:1.0416666666666667;"/><path d="M82.2917,312.5651 L82.2917,312.857 L92.7083,311.9897 L103.125,312.8336 L113.5417,313.1202 L123.9583,311.5743 L134.375,312.4572 L144.7917,311.9728 L155.2083,312.0325 L165.625,312.4704 L176.0417,311.6049 L186.4583,313.3341 L196.875,311.6897 L207.2917,312.2904 L217.7083,313.165 L228.125,312.446 L238.5417,312.6599 L248.9583,312.5651 " fill="none" style="stroke:#333333;stroke-width:3.125;"/><text fill="#2E2E2E" font-family="&quot;Segoe Print&quot;" font-size="12.5" lengthAdjust="spacing" textLength="50" x="143.75" y="302.6367">确认继续</text><path d="M260.4167,330.2734 L260.6113,330.2734 L260.033,335.6901 L260.5956,341.1068 L260.7867,346.5234 L259.7561,351.9401 L260.4167,357.3568 L264.5833,361.5234 L264.5833,361.3076 L275,360.3387 L285.4167,360.4582 L295.8333,361.3341 L306.25,359.603 L316.6667,363.0613 L327.0833,359.7727 L337.5,360.9741 L347.9167,362.7233 L358.3333,361.2852 L368.75,361.713 L379.1667,361.4347 L389.5833,362.0193 L400,362.1877 L410.4167,363.1504 L420.8333,363.3875 L431.25,363.4103 L441.6667,362.2307 L452.0833,362.8112 L462.5,363.4741 L472.9167,359.5201 L483.3333,363.4082 L493.75,360.6998 L504.1667,363.0062 L514.5833,360.1484 L525,361.3332 L535.4167,361.5234 L539.5833,357.3568 L540.27,357.3568 L539.5382,353.1901 L539.6808,349.0234 L539.8969,344.8568 L539.9687,340.6901 L539.5833,336.5234 L539.5808,336.5209 L537.688,334.6282 L535.0419,331.982 L533.5195,330.4596 L531.6089,328.549 L529.1667,326.1068 L529.1667,327.3416 L518.5833,327.8096 L508,324.7649 L497.4167,324.2952 L486.8333,324.3807 L476.25,325.9432 L465.6667,325.5609 L455.0833,327.9996 L444.5,325.6216 L433.9167,325.1538 L423.3333,326.7408 L412.75,324.2544 L402.1667,324.6648 L391.5833,327.9094 L381,327.317 L370.4167,328.147 L359.8333,325.2129 L349.25,326.9934 L338.6667,327.7468 L328.0833,324.7945 L317.5,325.8405 L306.9167,326.4567 L296.3333,327.9172 L285.75,326.0951 L275.1667,327.3917 L264.5833,326.1068 L260.4167,330.2734 " fill="#17A2B8" style="stroke:#2E2E2E;stroke-width:1.0416666666666667;"/><path d="M529.1667,326.1068 L528.6539,326.1068 L528.5396,327.7734 L529.633,329.4401 L528.5028,331.1068 L529.6379,332.7734 L529.1667,334.4401 L531.25,336.5234 L531.25,336.7148 L532.9167,336.2754 L534.5833,336.1959 L536.25,336.9482 L537.9167,336.2463 L539.5833,336.5234 L539.9708,336.9109 L537.1381,334.0782 L535.8209,332.761 L533.6504,330.5905 L531.4104,328.3505 L529.1667,326.1068 " fill="#17A2B8" style="stroke:#2E2E2E;stroke-width:1.0416666666666667;"/><text fill="#FFFFFF" font-family="&quot;Segoe Print&quot;" font-size="12.5" lengthAdjust="spacing" textLength="246.875" x="271.875" y="348.6084">客户端保存服务器公钥到 known_hosts 文件</text><polygon fill="#333333" points="411.9792,394.0918,412.0063,394.1596,414.0091,394.7916,416.1708,395.8208,418.2807,396.7206,420.2205,397.1951,422.3958,398.2585,422.3858,398.2334,420.2575,398.9543,418.1797,399.8015,416.137,400.7365,413.9733,401.3689,411.9792,402.4251,412.1151,402.5611,412.6578,401.437,413.5973,400.7099,414.5852,400.0312,415.2914,399.0707,416.1458,398.2585,416.1626,398.2752,415.3047,397.4173,414.523,396.6356,413.7045,395.8172,412.9563,395.0689,411.9792,394.0918" style="stroke:#333333;stroke-width:1.0416666666666667;"/><path d="M255.2083,398.2585 L255.2083,398.5504 L265.3971,397.683 L275.5859,398.5269 L285.7747,398.8136 L295.9635,397.2676 L306.1523,398.1505 L316.3411,397.6661 L326.5299,397.7258 L336.7188,398.1638 L346.9076,397.2982 L357.0964,399.0274 L367.2852,397.3831 L377.474,397.9838 L387.6628,398.8584 L397.8516,398.1393 L408.0404,398.3532 L418.2292,398.2585 " fill="none" style="stroke:#333333;stroke-width:3.125;"/><text fill="#2E2E2E" font-family="&quot;Segoe Print&quot;" font-size="12.5" lengthAdjust="spacing" textLength="75" x="302.3438" y="388.3301">请求密码认证</text><polygon fill="#333333" points="93.75,433.8135,93.7771,433.8812,91.6132,434.5132,89.6083,435.5425,87.5515,436.4423,85.3247,436.9168,83.3333,437.9801,83.3233,437.9551,85.3617,438.676,87.4505,439.5232,89.5745,440.4582,91.5775,441.0906,93.75,442.1468,93.8859,442.2827,92.7619,441.1587,92.0348,440.4316,91.3561,439.7529,90.3956,438.7924,89.5833,437.9801,89.6001,437.9969,90.4088,437.139,91.2938,436.3573,92.142,435.5389,93.0605,434.7906,93.75,433.8135" style="stroke:#333333;stroke-width:1.0416666666666667;"/><path d="M87.5,437.9801 L87.5,438.2721 L97.998,437.4047 L108.4961,438.2486 L118.9941,438.5353 L129.4922,436.9893 L139.9902,437.8722 L150.4883,437.3878 L160.9863,437.4475 L171.4844,437.8855 L181.9824,437.0199 L192.4805,438.7491 L202.9785,437.1048 L213.4766,437.7055 L223.9746,438.5801 L234.4727,437.861 L244.9707,438.0749 L255.4688,437.9358 L265.9668,438.2281 L276.4648,438.3123 L286.9629,438.7936 L297.4609,438.9122 L307.959,438.9236 L318.457,438.3338 L328.9551,438.624 L339.4531,438.9555 L349.9512,436.9785 L360.4492,438.9225 L370.9473,437.5683 L381.4453,438.7215 L391.9434,437.2926 L402.4414,437.885 L412.9395,439.0102 L423.4375,437.9801 " fill="none" style="stroke:#333333;stroke-width:3.125;"/><text fill="#2E2E2E" font-family="&quot;Segoe Print&quot;" font-size="12.5" lengthAdjust="spacing" textLength="75" x="215.8854" y="428.0518">提示输入密码</text><polygon fill="#333333" points="411.9792,473.5352,412.0063,473.6029,414.0091,474.2349,416.1708,475.2641,418.2807,476.164,420.2205,476.6385,422.3958,477.7018,422.3858,477.6768,420.2575,478.3977,418.1797,479.2449,416.137,480.1799,413.9733,480.8123,411.9792,481.8685,412.1151,482.0044,412.6578,480.8804,413.5973,480.1533,414.5852,479.4745,415.2914,478.5141,416.1458,477.7018,416.1626,477.7186,415.3047,476.8606,414.523,476.079,413.7045,475.2605,412.9563,474.5123,411.9792,473.5352" style="stroke:#333333;stroke-width:1.0416666666666667;"/><path d="M82.2917,477.7018 L82.2917,477.9937 L92.7897,477.1264 L103.2878,477.9703 L113.7858,478.2569 L124.2839,476.711 L134.7819,477.5939 L145.2799,477.1095 L155.778,477.1692 L166.276,477.6072 L176.7741,476.7416 L187.2721,478.4708 L197.7702,476.8264 L208.2682,477.4271 L218.7663,478.3017 L229.2643,477.5827 L239.7624,477.7966 L250.2604,477.6575 L260.7585,477.9498 L271.2565,478.034 L281.7546,478.5153 L292.2526,478.6338 L302.7507,478.6452 L313.2487,478.0555 L323.7467,478.3457 L334.2448,478.6771 L344.7428,476.7002 L355.2409,478.6442 L365.7389,477.29 L376.237,478.4432 L386.735,477.0143 L397.2331,477.6067 L407.7311,478.7318 L418.2292,477.7018 " fill="none" style="stroke:#333333;stroke-width:3.125;"/><text fill="#2E2E2E" font-family="&quot;Segoe Print&quot;" font-size="12.5" lengthAdjust="spacing" textLength="50" x="228.3854" y="467.7734">提供密码</text><path d="M424.4792,517.4235 L424.4792,517.5208 L433.2292,517.2317 L441.9792,517.513 L450.7292,517.6085 L459.4792,517.0932 L468.2292,517.4235 " fill="none" style="stroke:#333333;stroke-width:3.125;"/><path d="M468.2292,517.4235 L468.3265,517.4235 L468.0374,520.1318 L468.3187,522.8402 L468.4142,525.5485 L467.8989,528.2568 L468.2292,530.9652 " fill="none" style="stroke:#333333;stroke-width:3.125;"/><path d="M425.5208,530.9652 L425.5208,531.0625 L434.0625,530.7734 L442.6042,531.0547 L451.1458,531.1502 L459.6875,530.6349 L468.2292,530.9652 " fill="none" style="stroke:#333333;stroke-width:3.125;"/><polygon fill="#333333" points="435.9375,526.7985,435.9646,526.8663,433.8007,527.4983,431.7958,528.5275,429.739,529.4274,427.5122,529.9018,425.5208,530.9652,425.5108,530.9401,427.5492,531.661,429.638,532.5082,431.762,533.4432,433.765,534.0756,435.9375,535.1318,436.0734,535.2678,434.9494,534.1438,434.2223,533.4166,433.5436,532.7379,432.5831,531.7774,431.7708,530.9652,431.7876,530.9819,432.5963,530.124,433.4813,529.3423,434.3295,528.5239,435.248,527.7756,435.9375,526.7985" style="stroke:#333333;stroke-width:1.0416666666666667;"/><text fill="#2E2E2E" font-family="&quot;Segoe Print&quot;" font-size="12.5" lengthAdjust="spacing" textLength="50" x="436.9792" y="507.4951">验证密码</text><path d="M81.25,546.5902 L81.25,547.174 L91.2202,545.4393 L101.1905,547.1271 L111.1607,547.7004 L121.131,544.6085 L131.1012,546.3743 L141.0714,545.4055 L151.0417,546.5902 L150.6866,546.5902 L150.9786,549.9512 L150.4015,553.3122 L151.5543,556.6732 L150.4581,560.0342 L151.0417,563.3952 L150.9122,563.2657 L149.2411,565.7613 L146.8188,567.5057 L144.8363,569.6899 L142.6874,571.7076 L140.625,573.8118 L140.625,574.3078 L130.0347,574.4761 L119.4444,575.4388 L108.8542,575.6759 L98.2639,575.6987 L87.6736,574.5191 L77.0833,573.8118 L77.5126,573.8118 L77.7335,569.2008 L76.4156,564.5898 L77.7116,559.9788 L76.8088,555.3678 L77.0833,550.7568 L81.25,546.5902 " fill="#555555" style="stroke:#555555;stroke-width:1.0416666666666667;"/><polygon fill="none" points="81.25,546.5902,81.25,546.8091,91.6171,546.1586,101.9841,546.7915,112.3512,547.0065,122.7183,545.847,133.0853,546.5092,143.4524,546.1459,153.8194,546.1907,164.1865,546.5192,174.5536,545.87,184.9206,547.1669,195.2877,545.9336,205.6548,546.3842,216.0218,547.0401,226.3889,546.5008,236.756,546.6613,247.123,546.5569,257.4901,546.7761,267.8571,546.8393,278.2242,547.2003,288.5913,547.2892,298.9583,547.2977,309.3254,546.8554,319.6925,547.0731,330.0595,547.3217,340.4266,545.8389,350.7937,547.297,361.1607,546.2813,371.5278,547.1462,381.8948,546.0745,392.2619,546.5188,402.629,547.3627,412.996,546.5394,423.3631,546.6999,433.7302,546.9429,444.0972,547.0237,454.4643,546.5861,464.8313,546.8893,475.1984,545.9939,485.5655,546.8864,495.9325,547.1612,506.2996,547.0532,516.6667,546.5902,516.7481,546.7868,517.1917,546.6793,517.7585,546.8691,518.3519,547.1231,519.0159,547.5476,519.6129,547.8106,519.5499,547.7844,520.0756,548.4904,520.0451,548.9659,520.2351,549.5327,520.6625,550.1979,520.8333,550.7568,520.1387,550.7568,520.2926,561.06,521.5093,571.3632,521.2872,581.6663,521.5984,591.9695,520.4981,602.2726,521.1658,612.5758,521.4484,622.879,520.3412,633.1821,520.7335,643.4853,520.9646,653.7885,521.5122,664.0916,520.829,674.3948,521.3152,684.698,520.2565,695.0011,520.1279,705.3043,521.3579,715.6074,520.0865,725.9106,521.3635,736.2138,520.8333,746.5169,520.8996,746.5444,520.5033,747.0706,520.2317,747.6484,520.2483,748.3457,519.761,748.8342,519.6129,749.4632,519.6916,749.6531,518.9502,749.53,518.5165,750.1494,517.9095,750.3508,517.2885,750.5181,516.6667,750.6836,516.6667,750.7328,506.2996,751.4405,495.9325,751.3227,485.5655,750.8599,475.1984,750.963,464.8313,750.5479,454.4643,751.4299,444.0972,750.8449,433.7302,750.8634,423.3631,750.0499,412.996,750.2615,402.629,751.2365,392.2619,751.1313,381.8948,750.6389,371.5278,750.348,361.1607,750.4555,350.7937,749.9688,340.4266,751.1156,330.0595,751.454,319.6925,751.2319,309.3254,751.4075,298.9583,750.5412,288.5913,750.7744,278.2242,750.2798,267.8571,750.9795,257.4901,750.9406,247.123,751.259,236.756,750.4444,226.3889,750.5436,216.0218,751.1455,205.6548,751.2746,195.2877,750.1497,184.9206,750.4816,174.5536,750.8391,164.1865,750.0473,153.8194,751.0517,143.4524,750.9523,133.0853,750.5786,122.7183,750.8318,112.3512,751.4426,101.9841,750.3577,91.6171,751.0117,81.25,750.6836,81.288,750.7752,80.6761,750.4767,80.0902,750.2406,79.4973,749.9878,78.81,749.5071,78.3037,749.4632,78.1751,749.4099,77.9116,748.8126,77.836,748.2932,77.5998,747.7071,77.3793,747.1277,77.0833,746.5169,76.7802,746.5169,77.013,736.2138,76.9581,725.9106,77.6842,715.6074,77.5277,705.3043,76.5776,695.0011,77.0074,684.698,76.4821,674.3948,77.3837,664.0916,77.7172,653.7885,77.6506,643.4853,76.6296,633.1821,77.5666,622.879,76.3096,612.5758,77.2918,602.2726,76.7715,591.9695,77.1841,581.6663,77.3337,571.3632,77.5751,561.06,77.0833,550.7568,76.8524,550.6612,77.4799,550.2308,77.6286,549.602,77.9296,549.0363,78.2995,548.4992,78.3037,547.8106,78.3044,547.8123,78.9163,547.6227,79.5106,547.3909,80.0977,547.1416,80.6606,546.834,81.25,546.5902" style="stroke:#333333;stroke-width:1.0416666666666667;"/><text fill="#17A2B8" font-family="&quot;Segoe Print&quot;" font-size="12.5" font-weight="bold" lengthAdjust="spacing" textLength="16.6667" x="97.9167" y="564.9251">alt</text><text fill="#555555" font-family="&quot;Segoe Print&quot;" font-size="12.5" font-weight="bold" lengthAdjust="spacing" textLength="58.3333" x="171.875" y="565.9668">[密码正确]</text><polygon fill="#333333" points="266.6667,610.5469,266.6938,610.6146,264.5299,611.2466,262.5249,612.2759,260.4682,613.1757,258.2413,613.6502,256.25,614.7135,256.24,614.6885,258.2783,615.4094,260.3672,616.2566,262.4912,617.1916,264.4942,617.824,266.6667,618.8802,266.8026,619.0161,265.6786,617.8921,264.9514,617.165,264.2727,616.4863,263.3123,615.5258,262.5,614.7135,262.5168,614.7303,263.3255,613.8724,264.2105,613.0907,265.0587,612.2723,265.9771,611.524,266.6667,610.5469" style="stroke:#333333;stroke-width:1.0416666666666667;"/><path d="M260.4167,614.7135 L260.4167,615.0055 L270.6055,614.1381 L280.7943,614.982 L290.9831,615.2687 L301.1719,613.7227 L311.3607,614.6056 L321.5495,614.1212 L331.7383,614.1809 L341.9271,614.6189 L352.1159,613.7533 L362.3047,615.4825 L372.4935,613.8382 L382.6823,614.4389 L392.8711,615.3135 L403.0599,614.5944 L413.2487,614.8083 L423.4375,614.7135 " fill="none" style="stroke:#333333;stroke-width:3.125;"/><text fill="#2E2E2E" font-family="&quot;Segoe Print&quot;" font-size="12.5" lengthAdjust="spacing" textLength="112.5" x="283.5938" y="604.7852">认证成功，允许登录</text><path d="M87.5,632.4219 L87.6946,632.4219 L87.1164,640.7552 L87.679,649.0885 L87.8701,657.4219 L86.8394,665.7552 L87.5,674.0885 L91.6667,678.2552 L91.6667,678.0393 L102.2396,677.0705 L112.8125,677.1899 L123.3854,678.0659 L133.9583,676.3347 L144.5313,679.7931 L155.1042,676.5044 L165.6771,677.7059 L176.25,679.4551 L186.8229,678.0169 L197.3958,678.4448 L207.9688,678.1665 L218.5417,678.7511 L229.1146,678.9195 L239.6875,679.8821 L250.2604,680.1192 L260.8333,680.142 L271.4063,678.9625 L281.9792,679.5429 L292.5521,680.2059 L303.125,678.2552 L307.2917,674.0885 L306.6239,674.0885 L307.9199,667.0052 L307.0171,659.9219 L307.7859,652.8385 L306.8333,645.7552 L307.2917,638.6719 L307.2468,638.627 L305.6939,637.0741 L303.0931,634.4733 L301.1106,632.4908 L299.18,630.5603 L296.875,628.2552 L296.875,629.4114 L286.6146,628.2444 L276.3542,629.053 L266.0938,626.6652 L255.8333,629.0452 L245.5729,629.778 L235.3125,629.49 L225.0521,629.9581 L214.7917,626.9133 L204.5313,626.4436 L194.2708,626.5291 L184.0104,628.0917 L173.75,627.7093 L163.4896,630.148 L153.2292,627.77 L142.9688,627.3023 L132.7083,628.8893 L122.4479,626.4029 L112.1875,626.8132 L101.9271,630.0578 L91.6667,628.2552 L87.5,632.4219 " fill="#17A2B8" style="stroke:#2E2E2E;stroke-width:1.0416666666666667;"/><path d="M296.875,628.2552 L297.2784,628.2552 L297.5551,629.9219 L296.577,631.5885 L297.1706,633.2552 L297.4217,634.9219 L296.875,636.5885 L298.9583,638.6719 L298.9583,638.2345 L300.625,638.5831 L302.2917,638.7885 L303.9583,639.2754 L305.625,638.668 L307.2917,638.6719 L307.5945,638.9747 L304.8458,636.226 L302.6816,634.0618 L301.3714,632.7516 L298.4889,629.8691 L296.875,628.2552 " fill="#17A2B8" style="stroke:#2E2E2E;stroke-width:1.0416666666666667;"/><text fill="#FFFFFF" font-family="&quot;Segoe Print&quot;" font-size="12.5" lengthAdjust="spacing" textLength="187.5" x="98.9583" y="650.7568">用户现在可以选择手动添加公钥到</text><text fill="#FFFFFF" font-family="&quot;Segoe Print&quot;" font-size="12.5" lengthAdjust="spacing" textLength="134.375" x="98.9583" y="665.4785">/.ssh/authorized_keys</text><path d="M77.0833,684.7819 L77.0833,685.0738 L87.4031,684.2065 L97.7229,685.0504 L108.0426,685.337 L118.3624,683.7911 L128.6822,684.674 L139.0019,684.1895 L149.3217,684.2493 L159.6415,684.6872 L169.9612,683.8217 L180.281,685.5508 L190.6008,683.9065 L200.9205,684.5072 L211.2403,685.3818 L221.5601,684.6628 L231.8798,684.8767 L242.1996,684.7375 L252.5194,685.0299 L262.8391,685.114 L273.1589,685.5954 L283.4787,685.7139 L293.7984,685.7253 L304.1182,685.1355 L314.438,685.4258 L324.7578,685.7572 L335.0775,683.7803 L345.3973,685.7243 L355.7171,684.3701 L366.0368,685.5233 L376.3566,684.0944 L386.6764,684.6868 L396.9961,685.8119 L407.3159,684.7142 L417.6357,684.9282 L427.9554,685.2522 L438.2752,685.36 L448.595,684.7765 L458.9147,685.1808 L469.2345,683.9869 L479.5543,685.1769 L489.874,685.5433 L500.1938,685.3993 L510.5136,685.6333 L520.8333,684.7819 " fill="none" style="stroke:#333333;stroke-width:1.0416666666666667;stroke-dasharray:2.0,2.0;"/><text fill="#555555" font-family="&quot;Segoe Print&quot;" font-size="12.5" font-weight="bold" lengthAdjust="spacing" textLength="58.3333" x="87.5" y="702.0752">[密码错误]</text><polygon fill="#333333" points="266.6667,738.1836,266.6938,738.2514,264.5299,738.8834,262.5249,739.9126,260.4682,740.8124,258.2413,741.2869,256.25,742.3503,256.24,742.3252,258.2783,743.0461,260.3672,743.8933,262.4912,744.8283,264.4942,745.4607,266.6667,746.5169,266.8026,746.6529,265.6786,745.5288,264.9514,744.8017,264.2727,744.123,263.3123,743.1625,262.5,742.3503,262.5168,742.367,263.3255,741.5091,264.2105,740.7274,265.0587,739.909,265.9771,739.1607,266.6667,738.1836" style="stroke:#333333;stroke-width:1.0416666666666667;"/><path d="M260.4167,742.3503 L260.4167,742.6422 L270.6055,741.7748 L280.7943,742.6187 L290.9831,742.9054 L301.1719,741.3594 L311.3607,742.2423 L321.5495,741.7579 L331.7383,741.8176 L341.9271,742.2556 L352.1159,741.39 L362.3047,743.1192 L372.4935,741.4749 L382.6823,742.0756 L392.8711,742.9502 L403.0599,742.2311 L413.2487,742.445 L423.4375,742.3503 " fill="none" style="stroke:#333333;stroke-width:3.125;"/><text fill="#2E2E2E" font-family="&quot;Segoe Print&quot;" font-size="12.5" lengthAdjust="spacing" textLength="112.5" x="283.5938" y="732.4219">认证失败，拒绝登录</text><!--MD5=[508886072306b3b889dc6a3fc6b388e5]
@startuml
skinparamlocked roundcorner 10
skinparamlocked sequenceMessageAlign center
skinparamlocked arrowColor #5ac7c3
skinparamlocked arrowFontColor #white
skinparamlocked participantBackgroundColor #394248
skinparamlocked participantFontColor #57cc8a
skinparamlocked participantBorderColor #394248
skinparamlocked actorFontColor #white
skinparamlocked actorBorderColor #57cc8a
skinparamlocked actorBackgroundColor #transparent
skinparamlocked sequenceLifeLineBorderColor #afbac4
skinparamlocked noteBackgroundColor #f43655
skinparamlocked noteFontColor #white
!theme sketchy-outline

participant 用户 as User
participant 客户端 as Client
participant "SSH 服务器" as SSHServer

User -> Client: 输入 SSH 连接命令
Client -> SSHServer: 请求连接

SSHServer -> Client: 发送公钥和认证请求
note right of Client: 客户端检查服务器公钥\n如果是第一次连接，提示用户确认

Client -> User: 显示安全警告，请求确认
User -> Client: 确认继续
note right of Client: 客户端保存服务器公钥到 known_hosts 文件

Client -> SSHServer: 请求密码认证
SSHServer -> User: 提示输入密码
User -> SSHServer: 提供密码
SSHServer -> SSHServer: 验证密码
alt 密码正确
    SSHServer -> Client: 认证成功，允许登录
    note right of User: 用户现在可以选择手动添加公钥到\n~/.ssh/authorized_keys
else 密码错误
    SSHServer -> Client: 认证失败，拒绝登录
end
@enduml

@startuml
skinparamlocked roundcorner 10
skinparamlocked sequenceMessageAlign center
skinparamlocked arrowColor #5ac7c3
skinparamlocked arrowFontColor #white
skinparamlocked participantBackgroundColor #394248
skinparamlocked participantFontColor #57cc8a
skinparamlocked participantBorderColor #394248
skinparamlocked actorFontColor #white
skinparamlocked actorBorderColor #57cc8a
skinparamlocked actorBackgroundColor #transparent
skinparamlocked sequenceLifeLineBorderColor #afbac4
skinparamlocked noteBackgroundColor #f43655
skinparamlocked noteFontColor #white



skinparam backgroundColor transparent
skinparam useBetaStyle false
skinparam handwritten true
skinparam shadowing false






<style>
  root {
    BackgroundColor transparent
    FontColor #2e2e2e
    HyperLinkColor #fd7e14
    LineColor #2e2e2e
    LineThickness 1
    Margin 10
    Padding 6
    Shadowing 0.0
  }
  node {
   Padding 15
   roundcorner 20
   BackgroundColor transparent
  }
  caption {
    LineThickness 0
  }
  footer {
    LineThickness 0
  }
  groupHeader {
    BackgroundColor #555555
    FontColor #17a2b8
    FontStyle bold
  }
  header {
    LineThickness 0
  }
  referenceHeader {
    BackgroundColor transparent
    FontColor #555555
    FontStyle bold
  }
  separator {
    BackgroundColor #ffffff
    FontColor transparent
    FontStyle bold
  }
  title {
	FontSize 20
	BorderRoundCorner            8
	BorderThickness 	         1
	BackgroundColor  transparent
	FontColor #333333
	BorderColor #555555
  }
  nwdiagDiagram {
	network {
			FontColor #2e2e2e
	BorderColor #333333
	BackgroundColor transparent    
		LineColor #333333
		LineThickness 1.0
		FontColor #2e2e2e
	}
	server {
			FontColor #2e2e2e
	BorderColor #333333
	BackgroundColor transparent
	}
	arrow {
		FontColor #2e2e2e
		LineColor #2e2e2e
	}
	group {
		BackGroundColor #ffffff
		LineColor #e6e6e6
		LineThickness 2.0
		Margin 5
		Padding 5
	}
  }
  ganttDiagram {
	task {
			FontColor #2e2e2e
	BorderColor #333333
	BackgroundColor transparent
		LineColor #333333
		Margin 10
		Padding 6
	}
	note {
		FontColor #ffffff
		LineColor #1592a6
		BackGroundColor transparent
	}
	separator {
		LineColor #4d4d4d
		BackGroundColor transparent
		FontColor #ffffff
	}
	milestone {
		FontColor #17a2b8
		FontSize 16
		FontStyle italic
		BackGroundColor #555555
		LineColor #4d4d4d
	}
	timeline {
		BackgroundColor #555555
		FontColor #ffffff
	}
	closed {
		BackgroundColor #e6ae06
		FontColor #ffffff
	}
  }
</style>
skinparam defaultFontName       "Segoe Print"
skinparam defaultFontSize       12
skinparam dpi                   100
skinparam shadowing             false
skinparam roundcorner           8
skinparam ParticipantPadding    40
skinparam BoxPadding            40
skinparam Padding               5
skinparam ArrowColor            #555555
skinparam stereotype {
    CBackgroundColor transparent
    CBorderColor #4d4d4d
    ABackgroundColor transparent
    ABorderColor #24963e
    IBackgroundColor transparent
    IBorderColor #c6303e
    EBackgroundColor transparent
    EBorderColor #e6ae06
    NBackgroundColor transparent
    NBorderColor #1592a6
}
skinparam title {
	FontColor	                 #2e2e2e
	BorderColor	                 #4d4d4d
	FontSize	    	         20
	BorderRoundCorner            8
	BorderThickness 	         1
	BackgroundColor              transparent
}

skinparam legend {
	BackgroundColor transparent
	BorderColor #4d4d4d
	FontColor #2e2e2e
}

skinparam swimlane {
	BorderColor #17a2b8
	BorderThickness 2
	TitleBackgroundColor  transparent
	TitleFontColor #2e2e2e
}


skinparam activity {
		FontColor #2e2e2e
	BorderColor #333333
	BackgroundColor transparent
	BarColor #28a745
	StartColor #17a2b8
	EndColor #17a2b8
	DiamondBackgroundColor transparent
  	DiamondBorderColor #4d4d4d
  	DiamondFontColor #2e2e2e
}


skinparam participant {
		FontColor #2e2e2e
	BorderColor #333333
	BackgroundColor transparent
	ParticipantBorderThickness 2
}


skinparam actor {
		FontColor #2e2e2e
	BorderColor #333333
	BackgroundColor transparent
}


skinparam arrow {
	Thickness 3
	Color #333333
	FontColor #2e2e2e
}


skinparam sequence {
	BorderColor #333333
	TitleFontColor #2e2e2e
	BackgroundColor transparent
	StartColor #333333
	EndColor #333333
	BoxBackgroundColor transparent
	BoxBorderColor #555555
	BoxFontColor #555555
	DelayFontColor #555555
	LifeLineBorderColor #555555
	LifeLineBorderThickness 2
	LifeLineBackgroundColor #4d4d4d
	GroupBorderColor #555555
	GroupFontColor #555555
	GroupHeaderFontColor #17a2b8
	GroupBackgroundColor #555555
	GroupHeaderBackgroundColor transparent
	DividerBackgroundColor #555555
    DividerBorderColor #555555
    DividerBorderThickness 2
    DividerFontColor #ffffff
	ReferenceBackgroundColor transparent
	ReferenceBorderColor #555555
	ReferenceFontColor #555555
	ReferenceHeaderFontColor #17a2b8
	ReferenceHeaderBackgroundColor #555555
	StereotypeFontColor #2e2e2e
}


skinparam partition {
	BorderColor #333333
	FontColor #333333
	BackgroundColor transparent
}


skinparam collections {
		FontColor #2e2e2e
	BorderColor #333333
	BackgroundColor transparent
}


skinparam control {
		FontColor #2e2e2e
	BorderColor #333333
	BackgroundColor transparent
}


skinparam entity {
		FontColor #2e2e2e
	BorderColor #333333
	BackgroundColor transparent
}


skinparam boundary {
		FontColor #2e2e2e
	BorderColor #333333
	BackgroundColor transparent
}


skinparam agent {
	BackgroundColor #ffc107
	BorderColor #ffc720
	FontColor #555555
}


skinparam note {
	BorderThickness 1
	BackgroundColor #17a2b8
	BorderColor #1592a6
	FontColor #ffffff
}


skinparam artifact {
	BackgroundColor transparent
	BorderColor #4d4d4d
	FontColor #4d4d4d
}


skinparam component {
		FontColor #2e2e2e
	BorderColor #333333
	BackgroundColor transparent
}


skinparam interface {
	BackgroundColor  transparent
	BorderColor  #dc3545
	FontColor #555555
}


skinparam storage {
	BackgroundColor transparent
  	BorderColor #e6ae06
	FontColor #e6ae06
}


skinparam node {
	BackgroundColor  transparent
	BorderColor #ffffff
	FontColor #ffffff
}


skinparam cloud {
	BackgroundColor transparent
	BorderColor #F2FCFE
	FontColor #2e2e2e
}


skinparam database {
		FontColor #2e2e2e
	BorderColor #333333
	BackgroundColor transparent
}


skinparam class {
		FontColor #2e2e2e
	BorderColor #333333
	BackgroundColor transparent
	HeaderBackgroundColor transparent
	StereotypeFontColor #555555
	BorderThickness 1
	AttributeFontColor #555555
	AttributeFontSize 11
}


skinparam object {
		FontColor #2e2e2e
	BorderColor #333333
	BackgroundColor transparent
	StereotypeFontColor #2e2e2e
	BorderThickness 1
	AttributeFontColor #2e2e2e
	AttributeFontSize 11
}


skinparam usecase {
		FontColor #2e2e2e
	BorderColor #333333
	BackgroundColor transparent
	BorderThickness 2
	StereotypeFontColor #333333
}


skinparam rectangle {
		FontColor #2e2e2e
	BorderColor #333333
	BackgroundColor transparent
	BorderThickness 2
	StereotypeFontColor #333333
}


skinparam package {
	BackgroundColor transparent
  	BorderColor #333333
	FontColor #333333
	BorderThickness 2
}


skinparam folder {
	BackgroundColor transparent
  	BorderColor #ffc107
	FontColor #ffc107
	BorderThickness 2
}


skinparam frame {
	BackgroundColor transparent
  	BorderColor #17a2b8
	FontColor #17a2b8
	BorderThickness 2
}


skinparam state {
		FontColor #2e2e2e
	BorderColor #333333
	BackgroundColor transparent
	StartColor #17a2b8
	EndColor #17a2b8
	AttributeFontColor #ffffff
	AttributeFontSize 11
}


skinparam queue {
		FontColor #2e2e2e
	BorderColor #333333
	BackgroundColor transparent
}


skinparam card {
	BackgroundColor transparent
	BorderColor #1592a6
	FontColor #1592a6
}


skinparam file {
	BackgroundColor transparent
	BorderColor #ffffff
	FontColor #ffffff
}


skinparam stack {
		FontColor #2e2e2e
	BorderColor #333333
	BackgroundColor transparent
}

participant 用户 as User
participant 客户端 as Client
participant "SSH 服务器" as SSHServer

User -> Client: 输入 SSH 连接命令
Client -> SSHServer: 请求连接

SSHServer -> Client: 发送公钥和认证请求
note right of Client: 客户端检查服务器公钥\n如果是第一次连接，提示用户确认

Client -> User: 显示安全警告，请求确认
User -> Client: 确认继续
note right of Client: 客户端保存服务器公钥到 known_hosts 文件

Client -> SSHServer: 请求密码认证
SSHServer -> User: 提示输入密码
User -> SSHServer: 提供密码
SSHServer -> SSHServer: 验证密码
alt 密码正确
    SSHServer -> Client: 认证成功，允许登录
    note right of User: 用户现在可以选择手动添加公钥到\n~/.ssh/authorized_keys
else 密码错误
    SSHServer -> Client: 认证失败，拒绝登录
end
@enduml

PlantUML version 1.2022.7(Tue Aug 23 01:01:30 CST 2022)
(GPL source distribution)
Java Runtime: Java(TM) SE Runtime Environment
JVM: Java HotSpot(TM) 64-Bit Server VM
Default Encoding: UTF-8
Language: en
Country: CN
--></g></svg>