<svg xmlns="http://www.w3.org/2000/svg" xmlns:xlink="http://www.w3.org/1999/xlink" contentStyleType="text/css" data-diagram-type="CLASS" height="554px" preserveAspectRatio="none" style="width:1184px;height:554px;" version="1.1" viewBox="0 0 1184 554" width="1184px" zoomAndPan="magnify"><defs/><g><!--cluster ??? (Root Block)--><g class="cluster" data-entity="&#26681;&#33410;&#28857; (Root Block)" data-source-line="6" data-uid="ent0002" id="cluster_&#26681;&#33410;&#28857; (Root Block)"><path d="M485.5,6 L630.451,6 A3.75,3.75 0 0 1 632.951,8.5 L639.951,28.2969 L726.5,28.2969 A2.5,2.5 0 0 1 729,30.7969 L729,151.39 A2.5,2.5 0 0 1 726.5,153.89 L485.5,153.89 A2.5,2.5 0 0 1 483,151.39 L483,8.5 A2.5,2.5 0 0 1 485.5,6 " fill="none" style="stroke:#000000;stroke-width:1.5;"/><line style="stroke:#000000;stroke-width:1.5;" x1="483" x2="639.951" y1="28.2969" y2="28.2969"/><text fill="#000000" font-family="sans-serif" font-size="14" font-weight="bold" lengthAdjust="spacing" textLength="143.951" x="487" y="20.9951">&#26681;&#33410;&#28857; (Root Block)</text></g><!--cluster ????? (Internal Nodes)--><g class="cluster" data-entity="&#20013;&#38388;&#33410;&#28857;&#23618; (Internal Nodes)" data-source-line="14" data-uid="ent0004" id="cluster_&#20013;&#38388;&#33410;&#28857;&#23618; (Internal Nodes)"><path d="M342.5,202.89 L547.7097,202.89 A3.75,3.75 0 0 1 550.2097,205.39 L557.2097,225.1869 L847.5,225.1869 A2.5,2.5 0 0 1 850,227.6869 L850,348.28 A2.5,2.5 0 0 1 847.5,350.78 L342.5,350.78 A2.5,2.5 0 0 1 340,348.28 L340,205.39 A2.5,2.5 0 0 1 342.5,202.89 " fill="none" style="stroke:#000000;stroke-width:1.5;"/><line style="stroke:#000000;stroke-width:1.5;" x1="340" x2="557.2097" y1="225.1869" y2="225.1869"/><text fill="#000000" font-family="sans-serif" font-size="14" font-weight="bold" lengthAdjust="spacing" textLength="204.2097" x="344" y="217.8851">&#20013;&#38388;&#33410;&#28857;&#23618; (Internal Nodes)</text></g><!--cluster ????? (Leaf Blocks)--><g class="cluster" data-entity="&#21494;&#23376;&#33410;&#28857;&#23618; (Leaf Blocks)" data-source-line="28" data-uid="ent0007" id="cluster_&#21494;&#23376;&#33410;&#28857;&#23618; (Leaf Blocks)"><path d="M8.5,399.78 L187.029,399.78 A3.75,3.75 0 0 1 189.529,402.28 L196.529,422.0769 L1174.5,422.0769 A2.5,2.5 0 0 1 1177,424.5769 L1177,545.17 A2.5,2.5 0 0 1 1174.5,547.67 L8.5,547.67 A2.5,2.5 0 0 1 6,545.17 L6,402.28 A2.5,2.5 0 0 1 8.5,399.78 " fill="none" style="stroke:#000000;stroke-width:1.5;"/><line style="stroke:#000000;stroke-width:1.5;" x1="6" x2="196.529" y1="422.0769" y2="422.0769"/><text fill="#000000" font-family="sans-serif" font-size="14" font-weight="bold" lengthAdjust="spacing" textLength="177.529" x="10" y="414.7751">&#21494;&#23376;&#33410;&#28857;&#23618; (Leaf Blocks)</text></g><!--class Root--><g class="entity" data-entity="Root" data-source-line="7" data-uid="ent0003" id="entity_Root"><rect fill="#F1F1F1" height="96.8906" rx="2.5" ry="2.5" style="stroke:#181818;stroke-width:0.5;" width="214.0222" x="498.99" y="41"/><ellipse cx="586.7326" cy="57" fill="#ADD1B2" rx="11" ry="11" style="stroke:#181818;stroke-width:1;"/><path d="M589.7013,62.6406 Q589.1232,62.9375 588.4826,63.0781 Q587.8419,63.2344 587.1388,63.2344 Q584.6388,63.2344 583.3107,61.5938 Q581.9982,59.9375 581.9982,56.8125 Q581.9982,53.6875 583.3107,52.0313 Q584.6388,50.375 587.1388,50.375 Q587.8419,50.375 588.4826,50.5313 Q589.1388,50.6875 589.7013,50.9844 L589.7013,53.7031 Q589.0763,53.125 588.4826,52.8594 Q587.8888,52.5781 587.2638,52.5781 Q585.9201,52.5781 585.2326,53.6563 Q584.5451,54.7188 584.5451,56.8125 Q584.5451,58.9063 585.2326,59.9844 Q585.9201,61.0469 587.2638,61.0469 Q587.8888,61.0469 588.4826,60.7813 Q589.0763,60.5 589.7013,59.9219 L589.7013,62.6406 Z " fill="#000000"/><text fill="#000000" font-family="sans-serif" font-size="13" lengthAdjust="spacing" textLength="30.0371" x="607.2326" y="61.5005">Root</text><line style="stroke:#181818;stroke-width:0.5;" x1="499.99" x2="712.0122" y1="73" y2="73"/><rect fill="none" height="6" style="stroke:#C82930;stroke-width:1;" width="6" x="506.99" y="83.6484"/><text fill="#000000" font-family="sans-serif" font-size="14" lengthAdjust="spacing" textLength="188.0222" x="518.99" y="89.9951">&#21704;&#24076;&#33539;&#22260;: 0x0000 ~ 0xFFFF</text><rect fill="none" height="6" style="stroke:#C82930;stroke-width:1;" width="6" x="506.99" y="99.9453"/><text fill="#000000" font-family="sans-serif" font-size="14" lengthAdjust="spacing" textLength="130.7509" x="518.99" y="106.292">&#25351;&#38024;1 --&gt; Internal1</text><rect fill="none" height="6" style="stroke:#C82930;stroke-width:1;" width="6" x="506.99" y="116.2422"/><text fill="#000000" font-family="sans-serif" font-size="14" lengthAdjust="spacing" textLength="130.7509" x="518.99" y="122.5889">&#25351;&#38024;2 --&gt; Internal2</text><line style="stroke:#181818;stroke-width:0.5;" x1="499.99" x2="712.0122" y1="129.8906" y2="129.8906"/></g><!--class Internal1--><g class="entity" data-entity="Internal1" data-source-line="15" data-uid="ent0005" id="entity_Internal1"><rect fill="#F1F1F1" height="96.8906" rx="2.5" ry="2.5" style="stroke:#181818;stroke-width:0.5;" width="214.8767" x="355.56" y="237.89"/><ellipse cx="429.4476" cy="253.89" fill="#ADD1B2" rx="11" ry="11" style="stroke:#181818;stroke-width:1;"/><path d="M432.4163,259.5306 Q431.8382,259.8275 431.1976,259.9681 Q430.5569,260.1244 429.8538,260.1244 Q427.3538,260.1244 426.0257,258.4838 Q424.7132,256.8275 424.7132,253.7025 Q424.7132,250.5775 426.0257,248.9213 Q427.3538,247.265 429.8538,247.265 Q430.5569,247.265 431.1976,247.4213 Q431.8538,247.5775 432.4163,247.8744 L432.4163,250.5931 Q431.7913,250.015 431.1976,249.7494 Q430.6038,249.4681 429.9788,249.4681 Q428.6351,249.4681 427.9476,250.5463 Q427.2601,251.6088 427.2601,253.7025 Q427.2601,255.7963 427.9476,256.8744 Q428.6351,257.9369 429.9788,257.9369 Q430.6038,257.9369 431.1976,257.6713 Q431.7913,257.39 432.4163,256.8119 L432.4163,259.5306 Z " fill="#000000"/><text fill="#000000" font-family="sans-serif" font-size="13" lengthAdjust="spacing" textLength="58.6016" x="449.9476" y="258.3905">Internal1</text><line style="stroke:#181818;stroke-width:0.5;" x1="356.56" x2="569.4367" y1="269.89" y2="269.89"/><rect fill="none" height="6" style="stroke:#C82930;stroke-width:1;" width="6" x="363.56" y="280.5384"/><text fill="#000000" font-family="sans-serif" font-size="14" lengthAdjust="spacing" textLength="188.8767" x="375.56" y="286.8851">&#21704;&#24076;&#33539;&#22260;: 0x0000 ~ 0x7FFF</text><rect fill="none" height="6" style="stroke:#C82930;stroke-width:1;" width="6" x="363.56" y="296.8353"/><text fill="#000000" font-family="sans-serif" font-size="14" lengthAdjust="spacing" textLength="106.4696" x="375.56" y="303.182">&#25351;&#38024;1 --&gt; Leaf1</text><rect fill="none" height="6" style="stroke:#C82930;stroke-width:1;" width="6" x="363.56" y="313.1322"/><text fill="#000000" font-family="sans-serif" font-size="14" lengthAdjust="spacing" textLength="106.4696" x="375.56" y="319.4789">&#25351;&#38024;2 --&gt; Leaf2</text><line style="stroke:#181818;stroke-width:0.5;" x1="356.56" x2="569.4367" y1="326.7806" y2="326.7806"/></g><!--class Internal2--><g class="entity" data-entity="Internal2" data-source-line="21" data-uid="ent0006" id="entity_Internal2"><rect fill="#F1F1F1" height="96.8906" rx="2.5" ry="2.5" style="stroke:#181818;stroke-width:0.5;" width="214.0222" x="619.99" y="237.89"/><ellipse cx="693.4503" cy="253.89" fill="#ADD1B2" rx="11" ry="11" style="stroke:#181818;stroke-width:1;"/><path d="M696.4191,259.5306 Q695.841,259.8275 695.2003,259.9681 Q694.5597,260.1244 693.8566,260.1244 Q691.3566,260.1244 690.0285,258.4838 Q688.716,256.8275 688.716,253.7025 Q688.716,250.5775 690.0285,248.9213 Q691.3566,247.265 693.8566,247.265 Q694.5597,247.265 695.2003,247.4213 Q695.8566,247.5775 696.4191,247.8744 L696.4191,250.5931 Q695.7941,250.015 695.2003,249.7494 Q694.6066,249.4681 693.9816,249.4681 Q692.6378,249.4681 691.9503,250.5463 Q691.2628,251.6088 691.2628,253.7025 Q691.2628,255.7963 691.9503,256.8744 Q692.6378,257.9369 693.9816,257.9369 Q694.6066,257.9369 695.2003,257.6713 Q695.7941,257.39 696.4191,256.8119 L696.4191,259.5306 Z " fill="#000000"/><text fill="#000000" font-family="sans-serif" font-size="13" lengthAdjust="spacing" textLength="58.6016" x="713.9503" y="258.3905">Internal2</text><line style="stroke:#181818;stroke-width:0.5;" x1="620.99" x2="833.0122" y1="269.89" y2="269.89"/><rect fill="none" height="6" style="stroke:#C82930;stroke-width:1;" width="6" x="627.99" y="280.5384"/><text fill="#000000" font-family="sans-serif" font-size="14" lengthAdjust="spacing" textLength="188.0222" x="639.99" y="286.8851">&#21704;&#24076;&#33539;&#22260;: 0x8000 ~ 0xFFFF</text><rect fill="none" height="6" style="stroke:#C82930;stroke-width:1;" width="6" x="627.99" y="296.8353"/><text fill="#000000" font-family="sans-serif" font-size="14" lengthAdjust="spacing" textLength="106.4696" x="639.99" y="303.182">&#25351;&#38024;1 --&gt; Leaf3</text><rect fill="none" height="6" style="stroke:#C82930;stroke-width:1;" width="6" x="627.99" y="313.1322"/><text fill="#000000" font-family="sans-serif" font-size="14" lengthAdjust="spacing" textLength="106.4696" x="639.99" y="319.4789">&#25351;&#38024;2 --&gt; Leaf4</text><line style="stroke:#181818;stroke-width:0.5;" x1="620.99" x2="833.0122" y1="326.7806" y2="326.7806"/></g><!--class Leaf1--><g class="entity" data-entity="Leaf1" data-source-line="29" data-uid="ent0008" id="entity_Leaf1"><rect fill="#F1F1F1" height="96.8906" rx="2.5" ry="2.5" style="stroke:#181818;stroke-width:0.5;" width="247.1766" x="22.41" y="434.78"/><ellipse cx="123.7209" cy="450.78" fill="#ADD1B2" rx="11" ry="11" style="stroke:#181818;stroke-width:1;"/><path d="M126.6897,456.4206 Q126.1116,456.7175 125.4709,456.8581 Q124.8303,457.0144 124.1272,457.0144 Q121.6272,457.0144 120.2991,455.3738 Q118.9866,453.7175 118.9866,450.5925 Q118.9866,447.4675 120.2991,445.8113 Q121.6272,444.155 124.1272,444.155 Q124.8303,444.155 125.4709,444.3113 Q126.1272,444.4675 126.6897,444.7644 L126.6897,447.4831 Q126.0647,446.905 125.4709,446.6394 Q124.8772,446.3581 124.2522,446.3581 Q122.9084,446.3581 122.2209,447.4363 Q121.5334,448.4988 121.5334,450.5925 Q121.5334,452.6863 122.2209,453.7644 Q122.9084,454.8269 124.2522,454.8269 Q124.8772,454.8269 125.4709,454.5613 Q126.0647,454.28 126.6897,453.7019 L126.6897,456.4206 Z " fill="#000000"/><text fill="#000000" font-family="sans-serif" font-size="13" lengthAdjust="spacing" textLength="36.0547" x="144.2209" y="455.2805">Leaf1</text><line style="stroke:#181818;stroke-width:0.5;" x1="23.41" x2="268.5866" y1="466.78" y2="466.78"/><rect fill="none" height="6" style="stroke:#C82930;stroke-width:1;" width="6" x="30.41" y="477.4284"/><text fill="#000000" font-family="sans-serif" font-size="14" lengthAdjust="spacing" textLength="174.8768" x="42.41" y="483.7751">&#21704;&#24076;&#20540;: 0x0000 ~ 0x3FFF</text><line style="stroke:#181818;stroke-width:0.5;" x1="23.41" x2="268.5866" y1="491.0769" y2="491.0769"/><rect fill="#F24D5C" height="6" style="stroke:#C82930;stroke-width:1;" width="6" x="30.41" y="501.7253"/><text fill="#000000" font-family="sans-serif" font-size="14" lengthAdjust="spacing" textLength="221.1766" x="42.41" y="508.072">&#30446;&#24405;&#39033;1: "file1.txt (inode 1001)"</text><rect fill="#F24D5C" height="6" style="stroke:#C82930;stroke-width:1;" width="6" x="30.41" y="518.0222"/><text fill="#000000" font-family="sans-serif" font-size="14" lengthAdjust="spacing" textLength="221.1766" x="42.41" y="524.3689">&#30446;&#24405;&#39033;2: "file2.txt (inode 1002)"</text></g><!--class Leaf2--><g class="entity" data-entity="Leaf2" data-source-line="35" data-uid="ent0009" id="entity_Leaf2"><rect fill="#F1F1F1" height="96.8906" rx="2.5" ry="2.5" style="stroke:#181818;stroke-width:0.5;" width="247.1766" x="319.41" y="434.78"/><ellipse cx="420.7209" cy="450.78" fill="#ADD1B2" rx="11" ry="11" style="stroke:#181818;stroke-width:1;"/><path d="M423.6897,456.4206 Q423.1116,456.7175 422.4709,456.8581 Q421.8303,457.0144 421.1272,457.0144 Q418.6272,457.0144 417.2991,455.3738 Q415.9866,453.7175 415.9866,450.5925 Q415.9866,447.4675 417.2991,445.8113 Q418.6272,444.155 421.1272,444.155 Q421.8303,444.155 422.4709,444.3113 Q423.1272,444.4675 423.6897,444.7644 L423.6897,447.4831 Q423.0647,446.905 422.4709,446.6394 Q421.8772,446.3581 421.2522,446.3581 Q419.9084,446.3581 419.2209,447.4363 Q418.5334,448.4988 418.5334,450.5925 Q418.5334,452.6863 419.2209,453.7644 Q419.9084,454.8269 421.2522,454.8269 Q421.8772,454.8269 422.4709,454.5613 Q423.0647,454.28 423.6897,453.7019 L423.6897,456.4206 Z " fill="#000000"/><text fill="#000000" font-family="sans-serif" font-size="13" lengthAdjust="spacing" textLength="36.0547" x="441.2209" y="455.2805">Leaf2</text><line style="stroke:#181818;stroke-width:0.5;" x1="320.41" x2="565.5866" y1="466.78" y2="466.78"/><rect fill="none" height="6" style="stroke:#C82930;stroke-width:1;" width="6" x="327.41" y="477.4284"/><text fill="#000000" font-family="sans-serif" font-size="14" lengthAdjust="spacing" textLength="174.8768" x="339.41" y="483.7751">&#21704;&#24076;&#20540;: 0x4000 ~ 0x7FFF</text><line style="stroke:#181818;stroke-width:0.5;" x1="320.41" x2="565.5866" y1="491.0769" y2="491.0769"/><rect fill="#F24D5C" height="6" style="stroke:#C82930;stroke-width:1;" width="6" x="327.41" y="501.7253"/><text fill="#000000" font-family="sans-serif" font-size="14" lengthAdjust="spacing" textLength="221.1766" x="339.41" y="508.072">&#30446;&#24405;&#39033;1: "file3.txt (inode 1003)"</text><rect fill="#F24D5C" height="6" style="stroke:#C82930;stroke-width:1;" width="6" x="327.41" y="518.0222"/><text fill="#000000" font-family="sans-serif" font-size="14" lengthAdjust="spacing" textLength="221.1766" x="339.41" y="524.3689">&#30446;&#24405;&#39033;2: "file4.txt (inode 1004)"</text></g><!--class Leaf3--><g class="entity" data-entity="Leaf3" data-source-line="41" data-uid="ent0010" id="entity_Leaf3"><rect fill="#F1F1F1" height="96.8906" rx="2.5" ry="2.5" style="stroke:#181818;stroke-width:0.5;" width="247.1766" x="616.41" y="434.78"/><ellipse cx="717.7209" cy="450.78" fill="#ADD1B2" rx="11" ry="11" style="stroke:#181818;stroke-width:1;"/><path d="M720.6897,456.4206 Q720.1116,456.7175 719.4709,456.8581 Q718.8303,457.0144 718.1272,457.0144 Q715.6272,457.0144 714.2991,455.3738 Q712.9866,453.7175 712.9866,450.5925 Q712.9866,447.4675 714.2991,445.8113 Q715.6272,444.155 718.1272,444.155 Q718.8303,444.155 719.4709,444.3113 Q720.1272,444.4675 720.6897,444.7644 L720.6897,447.4831 Q720.0647,446.905 719.4709,446.6394 Q718.8772,446.3581 718.2522,446.3581 Q716.9084,446.3581 716.2209,447.4363 Q715.5334,448.4988 715.5334,450.5925 Q715.5334,452.6863 716.2209,453.7644 Q716.9084,454.8269 718.2522,454.8269 Q718.8772,454.8269 719.4709,454.5613 Q720.0647,454.28 720.6897,453.7019 L720.6897,456.4206 Z " fill="#000000"/><text fill="#000000" font-family="sans-serif" font-size="13" lengthAdjust="spacing" textLength="36.0547" x="738.2209" y="455.2805">Leaf3</text><line style="stroke:#181818;stroke-width:0.5;" x1="617.41" x2="862.5866" y1="466.78" y2="466.78"/><rect fill="none" height="6" style="stroke:#C82930;stroke-width:1;" width="6" x="624.41" y="477.4284"/><text fill="#000000" font-family="sans-serif" font-size="14" lengthAdjust="spacing" textLength="175.574" x="636.41" y="483.7751">&#21704;&#24076;&#20540;: 0x8000 ~ 0xBFFF</text><line style="stroke:#181818;stroke-width:0.5;" x1="617.41" x2="862.5866" y1="491.0769" y2="491.0769"/><rect fill="#F24D5C" height="6" style="stroke:#C82930;stroke-width:1;" width="6" x="624.41" y="501.7253"/><text fill="#000000" font-family="sans-serif" font-size="14" lengthAdjust="spacing" textLength="221.1766" x="636.41" y="508.072">&#30446;&#24405;&#39033;1: "file5.txt (inode 1005)"</text><rect fill="#F24D5C" height="6" style="stroke:#C82930;stroke-width:1;" width="6" x="624.41" y="518.0222"/><text fill="#000000" font-family="sans-serif" font-size="14" lengthAdjust="spacing" textLength="221.1766" x="636.41" y="524.3689">&#30446;&#24405;&#39033;2: "file6.txt (inode 1006)"</text></g><!--class Leaf4--><g class="entity" data-entity="Leaf4" data-source-line="47" data-uid="ent0011" id="entity_Leaf4"><rect fill="#F1F1F1" height="96.8906" rx="2.5" ry="2.5" style="stroke:#181818;stroke-width:0.5;" width="247.1766" x="913.41" y="434.78"/><ellipse cx="1014.7209" cy="450.78" fill="#ADD1B2" rx="11" ry="11" style="stroke:#181818;stroke-width:1;"/><path d="M1017.6897,456.4206 Q1017.1116,456.7175 1016.4709,456.8581 Q1015.8303,457.0144 1015.1272,457.0144 Q1012.6272,457.0144 1011.2991,455.3738 Q1009.9866,453.7175 1009.9866,450.5925 Q1009.9866,447.4675 1011.2991,445.8113 Q1012.6272,444.155 1015.1272,444.155 Q1015.8303,444.155 1016.4709,444.3113 Q1017.1272,444.4675 1017.6897,444.7644 L1017.6897,447.4831 Q1017.0647,446.905 1016.4709,446.6394 Q1015.8772,446.3581 1015.2522,446.3581 Q1013.9084,446.3581 1013.2209,447.4363 Q1012.5334,448.4988 1012.5334,450.5925 Q1012.5334,452.6863 1013.2209,453.7644 Q1013.9084,454.8269 1015.2522,454.8269 Q1015.8772,454.8269 1016.4709,454.5613 Q1017.0647,454.28 1017.6897,453.7019 L1017.6897,456.4206 Z " fill="#000000"/><text fill="#000000" font-family="sans-serif" font-size="13" lengthAdjust="spacing" textLength="36.0547" x="1035.2209" y="455.2805">Leaf4</text><line style="stroke:#181818;stroke-width:0.5;" x1="914.41" x2="1159.5866" y1="466.78" y2="466.78"/><rect fill="none" height="6" style="stroke:#C82930;stroke-width:1;" width="6" x="921.41" y="477.4284"/><text fill="#000000" font-family="sans-serif" font-size="14" lengthAdjust="spacing" textLength="174.8904" x="933.41" y="483.7751">&#21704;&#24076;&#20540;: 0xC000 ~ 0xFFFF</text><line style="stroke:#181818;stroke-width:0.5;" x1="914.41" x2="1159.5866" y1="491.0769" y2="491.0769"/><rect fill="#F24D5C" height="6" style="stroke:#C82930;stroke-width:1;" width="6" x="921.41" y="501.7253"/><text fill="#000000" font-family="sans-serif" font-size="14" lengthAdjust="spacing" textLength="221.1766" x="933.41" y="508.072">&#30446;&#24405;&#39033;1: "file7.txt (inode 1007)"</text><rect fill="#F24D5C" height="6" style="stroke:#C82930;stroke-width:1;" width="6" x="921.41" y="518.0222"/><text fill="#000000" font-family="sans-serif" font-size="14" lengthAdjust="spacing" textLength="221.1766" x="933.41" y="524.3689">&#30446;&#24405;&#39033;2: "file8.txt (inode 1008)"</text></g><!--link Root to Internal1--><g class="link" data-entity-1="Root" data-entity-2="Internal1" data-source-line="55" data-uid="lnk12" id="link_Root_Internal1"><path codeLine="55" d="M555.18,138.19 C545.64,148.23 536.13,159.07 528,169.89 C512.25,190.85 500.434,210.7355 489.074,232.2255 " fill="none" id="Root-to-Internal1" style="stroke:#181818;stroke-width:1;"/><polygon fill="#181818" points="486.27,237.53,494.0124,231.4427,488.6067,233.1096,486.9397,227.7039,486.27,237.53" style="stroke:#181818;stroke-width:1;"/><text fill="#000000" font-family="sans-serif" font-size="13" lengthAdjust="spacing" textLength="113.547" x="529" y="182.9569">&#25351;&#38024;1 (&#21704;&#24076;&#20302;&#21322;&#21306;)</text></g><!--link Root to Internal2--><g class="link" data-entity-1="Root" data-entity-2="Internal2" data-source-line="56" data-uid="lnk13" id="link_Root_Internal2"><path codeLine="56" d="M635.6,138.12 C654.35,168.32 675.3446,202.1429 694.1246,232.3829 " fill="none" id="Root-to-Internal2" style="stroke:#181818;stroke-width:1;"/><polygon fill="#181818" points="697.29,237.48,695.9399,227.7241,694.6521,233.2325,689.1438,231.9447,697.29,237.48" style="stroke:#181818;stroke-width:1;"/><text fill="#000000" font-family="sans-serif" font-size="13" lengthAdjust="spacing" textLength="113.547" x="663" y="182.9569">&#25351;&#38024;2 (&#21704;&#24076;&#39640;&#21322;&#21306;)</text></g><!--link Internal1 to Leaf1--><g class="link" data-entity-1="Internal1" data-entity-2="Leaf1" data-source-line="57" data-uid="lnk14" id="link_Internal1_Leaf1"><path codeLine="57" d="M385.05,335.26 C336.01,365.41 278.071,401.0271 229.041,431.1771 " fill="none" id="Internal1-to-Leaf1" style="stroke:#181818;stroke-width:1;"/><polygon fill="#181818" points="223.93,434.32,233.6917,433.013,228.1892,431.7009,229.5012,426.1983,223.93,434.32" style="stroke:#181818;stroke-width:1;"/><text fill="#000000" font-family="sans-serif" font-size="13" lengthAdjust="spacing" textLength="95.8179" x="333" y="379.8469">&#25351;&#38024;1 (&#23376;&#33539;&#22260;1)</text></g><!--link Internal1 to Leaf2--><g class="link" data-entity-1="Internal1" data-entity-2="Leaf2" data-source-line="58" data-uid="lnk15" id="link_Internal1_Leaf2"><path codeLine="58" d="M458.11,335.01 C455.01,365.21 451.6219,398.1613 448.5219,428.4013 " fill="none" id="Internal1-to-Leaf2" style="stroke:#181818;stroke-width:1;"/><polygon fill="#181818" points="447.91,434.37,452.807,425.8248,448.4199,429.3961,444.8487,425.009,447.91,434.37" style="stroke:#181818;stroke-width:1;"/><text fill="#000000" font-family="sans-serif" font-size="13" lengthAdjust="spacing" textLength="95.8179" x="455" y="379.8469">&#25351;&#38024;2 (&#23376;&#33539;&#22260;2)</text></g><!--link Internal2 to Leaf3--><g class="link" data-entity-1="Internal2" data-entity-2="Leaf3" data-source-line="59" data-uid="lnk16" id="link_Internal2_Leaf3"><path codeLine="59" d="M730.18,335.01 C732.19,365.21 734.3901,398.1433 736.4101,428.3833 " fill="none" id="Internal2-to-Leaf3" style="stroke:#181818;stroke-width:1;"/><polygon fill="#181818" points="736.81,434.37,740.2013,425.1234,736.4767,429.3811,732.219,425.6566,736.81,434.37" style="stroke:#181818;stroke-width:1;"/><text fill="#000000" font-family="sans-serif" font-size="13" lengthAdjust="spacing" textLength="95.8179" x="734" y="379.8469">&#25351;&#38024;1 (&#23376;&#33539;&#22260;1)</text></g><!--link Internal2 to Leaf4--><g class="link" data-entity-1="Internal2" data-entity-2="Leaf4" data-source-line="60" data-uid="lnk17" id="link_Internal2_Leaf4"><path codeLine="60" d="M803.23,335.26 C851.19,365.41 907.7607,400.9762 955.7107,431.1262 " fill="none" id="Internal2-to-Leaf4" style="stroke:#181818;stroke-width:1;"/><polygon fill="#181818" points="960.79,434.32,955.3002,426.1431,956.5572,431.6585,951.0418,432.9155,960.79,434.32" style="stroke:#181818;stroke-width:1;"/><text fill="#000000" font-family="sans-serif" font-size="13" lengthAdjust="spacing" textLength="95.8179" x="873" y="379.8469">&#25351;&#38024;2 (&#23376;&#33539;&#22260;2)</text></g><!--SRC=[XPFDIiD0483lUOgX5zj39TcajlJWeK9140_w1B6cfJGc9ObG54KgefHQHH65WkZ1arIGYbYr-39kVzx2JTAcoMPZzvJiVCnyExjZLifQLJRa7T3qRSLKgf3YETFRD6Ij4jeigB9fvdNDsYplAI28lj2MNAYK37rNsrxHLTq0YoGmIKZHB8whag1SKY0sUEYD6lLXlGVn3Lst8AVgXKeY1liSkCd1sRP_0PA0hy_mHtFKFCRjjopmDPuiE2GVUR8cpA1vEhuw4o2PN8PLpL8CJLQ5G0m5OeZ43hW3dzJlHsTy- -PwuTSwnASehDkT2UXv5UOxfjcEQufSPFdP-wvRg1YAB9QPqn0xgHXHJ0er0b-yuywbhn4svjvHi0lE6IWfVFGTEBuuCngsNt3_PlpO4x8GAvPLHLYqQXR4o_RB0u7dXKICHj44HHIA7DJN9ATlR1U9SHKX5v4g84QxI1GgiLn4jejtKxb_N59KWLIqonA5Bh5S9BRB2kFLX5pIL85qj4k6GZCJ5sAp0AEV-q7h2PzqXzqlpfdkmAH2rdkmSLVojz_2vmtS_4o4SUJXQ8gFd- -c-2ofDsY1zEHjEvCZiD1WwYcAPkXiSiHvMNr35f7r3m00]--></g></svg>