<svg xmlns="http://www.w3.org/2000/svg" xmlns:xlink="http://www.w3.org/1999/xlink" contentStyleType="text/css" height="618.75px" preserveAspectRatio="none" style="width:759px;height:618px;" version="1.1" viewBox="0 0 759 618" width="759.375px" zoomAndPan="magnify"><defs/><g><path d="M40.625,98.9258 L40.9169,98.9258 L40.0496,109.2329 L40.8935,119.54 L41.1801,129.8471 L39.6342,140.1542 L40.5171,150.4613 L40.0326,160.7684 L40.0924,171.0755 L40.5303,181.3826 L39.6648,191.6897 L41.3939,201.9968 L39.7496,212.3039 L40.3503,222.611 L41.2249,232.9181 L40.5059,243.2252 L40.7198,253.5323 L40.5806,263.8394 L40.873,274.1465 L40.9571,284.4536 L41.4385,294.7607 L41.557,305.0678 L41.5684,315.3749 L40.9786,325.682 L41.2689,335.9891 L41.6003,346.2962 L39.6234,356.6033 L41.5674,366.9104 L40.2132,377.2175 L41.3664,387.5246 L39.9375,397.8317 L40.5299,408.1388 L41.655,418.4459 L40.5573,428.753 L40.7713,439.0601 L41.0953,449.3672 L41.2031,459.6743 L40.6196,469.9814 L41.0239,480.2885 L39.83,490.5956 L41.02,500.9027 L41.3864,511.2098 L40.625,521.5169 " fill="none" style="stroke:#555555;stroke-width:1.0416666666666667;stroke-dasharray:5.0,5.0;"/><path d="M101.0417,98.9258 L101.3336,98.9258 L100.4662,109.2329 L101.3101,119.54 L101.5968,129.8471 L100.0508,140.1542 L100.9337,150.4613 L100.4493,160.7684 L100.509,171.0755 L100.947,181.3826 L100.0814,191.6897 L101.8106,201.9968 L100.1663,212.3039 L100.767,222.611 L101.6416,232.9181 L100.9225,243.2252 L101.1364,253.5323 L100.9973,263.8394 L101.2896,274.1465 L101.3738,284.4536 L101.8551,294.7607 L101.9737,305.0678 L101.9851,315.3749 L101.3953,325.682 L101.6855,335.9891 L102.017,346.2962 L100.04,356.6033 L101.984,366.9104 L100.6299,377.2175 L101.7831,387.5246 L100.3541,397.8317 L100.9465,408.1388 L102.0717,418.4459 L100.974,428.753 L101.1879,439.0601 L101.512,449.3672 L101.6198,459.6743 L101.0362,469.9814 L101.4406,480.2885 L100.2466,490.5956 L101.4366,500.9027 L101.803,511.2098 L101.0417,521.5169 " fill="none" style="stroke:#555555;stroke-width:1.0416666666666667;stroke-dasharray:5.0,5.0;"/><path d="M598.9583,98.9258 L599.2503,98.9258 L598.3829,109.2329 L599.2268,119.54 L599.5134,129.8471 L597.9675,140.1542 L598.8504,150.4613 L598.366,160.7684 L598.4257,171.0755 L598.8637,181.3826 L597.9981,191.6897 L599.7273,201.9968 L598.0829,212.3039 L598.6837,222.611 L599.5583,232.9181 L598.8392,243.2252 L599.0531,253.5323 L598.914,263.8394 L599.2063,274.1465 L599.2905,284.4536 L599.7718,294.7607 L599.8904,305.0678 L599.9017,315.3749 L599.312,325.682 L599.6022,335.9891 L599.9337,346.2962 L597.9567,356.6033 L599.9007,366.9104 L598.5465,377.2175 L599.6997,387.5246 L598.2708,397.8317 L598.8632,408.1388 L599.9883,418.4459 L598.8906,428.753 L599.1046,439.0601 L599.4286,449.3672 L599.5364,459.6743 L598.9529,469.9814 L599.3572,480.2885 L598.1633,490.5956 L599.3533,500.9027 L599.7197,511.2098 L598.9583,521.5169 " fill="none" style="stroke:#555555;stroke-width:1.0416666666666667;stroke-dasharray:5.0,5.0;"/><text fill="#2E2E2E" font-family="Segoe Print" font-size="12.5" lengthAdjust="spacing" textLength="33.3333" x="20.8333" y="90.7694">&#20107;&#21153;A</text><polygon fill="none" points="49.0044,21.8187,47.7828,23.4877,46.338,25.9324,44.2717,27.5798,42.1003,28.4808,40.3689,28.559,38.1437,27.4322,36.0441,26.6962,34.4504,25.2017,33.6144,23.4907,33.1187,22.1284,32.633,20.349,31.8447,18.8178,32.4505,17.3227,32.9812,15.685,34.973,14.3898,36.3742,12.7092,38.1086,12.1511,40.1705,11.6705,42.8147,11.956,44.2629,12.639,45.9467,12.9486,47.9941,15.0462,48.7078,17.2606,49.0179,18.7715,48.6666,21.2613" style="stroke:#333333;stroke-width:1.0416666666666667;"/><path d="M40.625,28.125 L40.8196,28.125 L40.2414,33.75 L40.804,39.375 L40.9951,45 L39.9644,50.625 L40.625,56.25 M27.0833,36.4583 L27.0833,36.3864 L32.5,36.0634 L37.9167,36.1032 L43.3333,36.3952 L48.75,35.8182 L54.1667,36.4583 M40.625,56.25 L41.0124,56.5857 L37.4757,58.9928 L35.07,62.3801 L32.8022,65.8869 L29.7316,68.698 L27.0833,71.875 M40.625,56.25 L40.6727,56.2914 L43.311,59.3556 L46.1666,62.6083 L48.9173,65.77 L51.8681,69.1052 L54.1667,71.875 " fill="none" style="stroke:#333333;stroke-width:1.0416666666666667;"/><text fill="#2E2E2E" font-family="Segoe Print" font-size="12.5" lengthAdjust="spacing" textLength="33.3333" x="20.8333" y="537.2864">&#20107;&#21153;A</text><polygon fill="none" points="49.0044,556.8447,47.7828,558.5138,46.338,560.9584,44.2717,562.6059,42.1003,563.5068,40.3689,563.585,38.1437,562.4583,36.0441,561.7222,34.4504,560.2277,33.6144,558.5168,33.1187,557.1545,32.633,555.3751,31.8447,553.8438,32.4505,552.3488,32.9812,550.7111,34.973,549.4158,36.3742,547.7352,38.1086,547.1771,40.1705,546.6965,42.8147,546.9821,44.2629,547.6651,45.9467,547.9747,47.9941,550.0722,48.7078,552.2866,49.0179,553.7975,48.6666,556.2873" style="stroke:#333333;stroke-width:1.0416666666666667;"/><path d="M40.625,563.151 L40.8196,563.151 L40.2414,568.776 L40.804,574.401 L40.9951,580.026 L39.9644,585.651 L40.625,591.276 M27.0833,571.4844 L27.0833,571.4124 L32.5,571.0895 L37.9167,571.1293 L43.3333,571.4213 L48.75,570.8442 L54.1667,571.4844 M40.625,591.276 L41.0124,591.6118 L37.4757,594.0188 L35.07,597.4061 L32.8022,600.913 L29.7316,603.724 L27.0833,606.901 M40.625,591.276 L40.6727,591.3174 L43.311,594.3817 L46.1666,597.6343 L48.9173,600.7961 L51.8681,604.1312 L54.1667,606.901 " fill="none" style="stroke:#333333;stroke-width:1.0416666666666667;"/><text fill="#2E2E2E" font-family="Segoe Print" font-size="12.5" lengthAdjust="spacing" textLength="33.3333" x="81.25" y="90.7694">&#20107;&#21153;B</text><polygon fill="none" points="109.421,21.8187,108.1995,23.4877,106.7547,25.9324,104.6883,27.5798,102.517,28.4808,100.7856,28.559,98.5604,27.4322,96.4607,26.6962,94.8671,25.2017,94.0311,23.4907,93.5354,22.1284,93.0497,20.349,92.2614,18.8178,92.8671,17.3227,93.3979,15.685,95.3896,14.3898,96.7909,12.7092,98.5253,12.1511,100.5872,11.6705,103.2314,11.956,104.6796,12.639,106.3634,12.9486,108.4107,15.0462,109.1244,17.2606,109.4345,18.7715,109.0833,21.2613" style="stroke:#333333;stroke-width:1.0416666666666667;"/><path d="M101.0417,28.125 L101.2363,28.125 L100.658,33.75 L101.2206,39.375 L101.4117,45 L100.3811,50.625 L101.0417,56.25 M87.5,36.4583 L87.5,36.3864 L92.9167,36.0634 L98.3333,36.1032 L103.75,36.3952 L109.1667,35.8182 L114.5833,36.4583 M101.0417,56.25 L101.4291,56.5857 L97.8923,58.9928 L95.4866,62.3801 L93.2189,65.8869 L90.1483,68.698 L87.5,71.875 M101.0417,56.25 L101.0894,56.2914 L103.7276,59.3556 L106.5833,62.6083 L109.334,65.77 L112.2848,69.1052 L114.5833,71.875 " fill="none" style="stroke:#333333;stroke-width:1.0416666666666667;"/><text fill="#2E2E2E" font-family="Segoe Print" font-size="12.5" lengthAdjust="spacing" textLength="33.3333" x="81.25" y="537.2864">&#20107;&#21153;B</text><polygon fill="none" points="109.421,556.8447,108.1995,558.5138,106.7547,560.9584,104.6883,562.6059,102.517,563.5068,100.7856,563.585,98.5604,562.4583,96.4607,561.7222,94.8671,560.2277,94.0311,558.5168,93.5354,557.1545,93.0497,555.3751,92.2614,553.8438,92.8671,552.3488,93.3979,550.7111,95.3896,549.4158,96.7909,547.7352,98.5253,547.1771,100.5872,546.6965,103.2314,546.9821,104.6796,547.6651,106.3634,547.9747,108.4107,550.0722,109.1244,552.2866,109.4345,553.7975,109.0833,556.2873" style="stroke:#333333;stroke-width:1.0416666666666667;"/><path d="M101.0417,563.151 L101.2363,563.151 L100.658,568.776 L101.2206,574.401 L101.4117,580.026 L100.3811,585.651 L101.0417,591.276 M87.5,571.4844 L87.5,571.4124 L92.9167,571.0895 L98.3333,571.1293 L103.75,571.4213 L109.1667,570.8442 L114.5833,571.4844 M101.0417,591.276 L101.4291,591.6118 L97.8923,594.0188 L95.4866,597.4061 L93.2189,600.913 L90.1483,603.724 L87.5,606.901 M101.0417,591.276 L101.0894,591.3174 L103.7276,594.3817 L106.5833,597.6343 L109.334,600.7961 L112.2848,604.1312 L114.5833,606.901 " fill="none" style="stroke:#333333;stroke-width:1.0416666666666667;"/><polygon fill="none" points="571.875,58.3333,571.875,58.5523,582.7083,57.9017,593.5417,58.5347,604.375,58.7497,615.2083,57.5902,626.0417,58.3333,626.0313,58.3084,626.5743,58.4406,627.1692,58.6985,627.8004,59.0437,628.3068,59.0879,628.9879,59.5537,629.1655,59.6273,629.0298,60.0592,629.4127,60.706,629.8587,61.3789,629.9367,61.8993,630.2083,62.5,630.232,62.5,630.1972,68.7435,630.2703,74.987,630.2914,81.2305,630.4117,87.474,630.2083,93.7174,630.4236,93.8066,630.1822,94.397,629.8019,94.9298,629.6248,95.5468,629.4573,96.1678,628.9879,96.6637,628.8921,96.4324,628.4888,97.1255,627.77,97.0568,627.2911,97.5672,626.5651,97.4812,626.0417,97.8841,626.0417,97.8128,615.2083,98.6566,604.375,97.8333,593.5417,97.9938,582.7083,98.2369,571.875,97.8841,571.9303,98.0176,571.2852,97.6388,570.7347,97.4881,570.0312,96.9683,569.5558,96.999,568.9287,96.6637,569.1046,96.7366,568.8272,96.1335,568.6372,95.5667,568.0415,94.8318,567.7432,94.22,567.7083,93.7174,567.4926,93.7174,567.6879,87.474,567.6401,81.2305,567.9449,74.987,567.6477,68.7435,567.7083,62.5,567.5983,62.4544,568.0256,61.9411,567.9826,61.2329,568.274,60.6633,568.8928,60.2292,568.9287,59.5537,568.9866,59.6935,569.6156,59.5453,570.0645,58.9623,570.7389,58.9239,571.3642,58.7668,571.875,58.3333" style="stroke:#333333;stroke-width:1.0416666666666667;"/><text fill="#2E2E2E" font-family="Segoe Print" font-size="12.5" lengthAdjust="spacing" textLength="37.5" x="580.2083" y="82.4361">&#25968;&#25454;&#24211;</text><polygon fill="none" points="571.875,520.4753,571.875,520.6942,582.7083,520.0437,593.5417,520.6766,604.375,520.8916,615.2083,519.7321,626.0417,520.4753,626.0313,520.4503,626.5743,520.5825,627.1692,520.8404,627.8004,521.1856,628.3068,521.2298,628.9879,521.6956,629.1655,521.7692,629.0298,522.2012,629.4127,522.8479,629.8587,523.5208,629.9367,524.0413,630.2083,524.6419,630.232,524.6419,630.1972,530.8854,630.2703,537.1289,630.2914,543.3724,630.4117,549.6159,630.2083,555.8594,630.4236,555.9485,630.1822,556.5389,629.8019,557.0717,629.6248,557.6887,629.4573,558.3097,628.9879,558.8057,628.8921,558.5743,628.4888,559.2674,627.77,559.1987,627.2911,559.7091,626.5651,559.6232,626.0417,560.026,626.0417,559.9547,615.2083,560.7985,604.375,559.9753,593.5417,560.1357,582.7083,560.3788,571.875,560.026,571.9303,560.1596,571.2852,559.7807,570.7347,559.63,570.0312,559.1102,569.5558,559.141,568.9287,558.8057,569.1046,558.8785,568.8272,558.2755,568.6372,557.7086,568.0415,556.9737,567.7432,556.362,567.7083,555.8594,567.4926,555.8594,567.6879,549.6159,567.6401,543.3724,567.9449,537.1289,567.6477,530.8854,567.7083,524.6419,567.5983,524.5963,568.0256,524.083,567.9826,523.3748,568.274,522.8052,568.8928,522.3711,568.9287,521.6956,568.9866,521.8354,569.6156,521.6872,570.0645,521.1043,570.7389,521.0658,571.3642,520.9087,571.875,520.4753" style="stroke:#333333;stroke-width:1.0416666666666667;"/><text fill="#2E2E2E" font-family="Segoe Print" font-size="12.5" lengthAdjust="spacing" textLength="37.5" x="580.2083" y="544.578">&#25968;&#25454;&#24211;</text><path d="M450,118.7174 L450.1946,118.7174 L449.6164,123.9258 L450.179,129.1341 L450.3701,134.3424 L449.3394,139.5508 L450,144.7591 L454.1667,148.9258 L454.1667,148.7099 L464.4717,147.7411 L474.7768,147.8605 L485.0818,148.7365 L495.3869,147.0053 L505.692,150.4637 L515.997,147.175 L526.3021,148.3764 L536.6071,150.1256 L546.9122,148.6875 L557.2173,149.1153 L567.5223,148.837 L577.8274,149.4217 L588.1324,149.59 L598.4375,150.5527 L608.7426,150.7898 L619.0476,150.8126 L629.3527,149.6331 L639.6577,150.2135 L649.9628,150.8764 L660.2679,146.9225 L670.5729,150.8105 L680.878,148.1022 L691.183,150.4086 L701.4881,147.5507 L711.7932,148.7355 L722.0982,150.9858 L732.4033,148.7904 L742.7083,148.9258 L746.875,144.7591 L746.9725,144.7591 L747.1885,140.8008 L747.2604,136.8424 L746.8714,132.8841 L747.1409,128.9258 L746.875,124.9674 L746.5002,124.5927 L744.9779,123.0703 L743.0673,121.1597 L740.916,119.0085 L738.943,117.0355 L736.4583,114.5508 L736.4583,113.2089 L726.0031,112.7392 L715.5478,112.8247 L705.0926,114.3872 L694.6373,114.0049 L684.1821,116.4436 L673.7269,114.0656 L663.2716,113.5979 L652.8164,115.1849 L642.3611,112.6985 L631.9059,113.1088 L621.4506,116.3534 L610.9954,115.761 L600.5401,116.591 L590.0849,113.6569 L579.6296,115.4374 L569.1744,116.1908 L558.7191,113.2385 L548.2639,114.2845 L537.8086,114.9007 L527.3534,116.3612 L516.8981,114.5391 L506.4429,115.8357 L495.9877,113.0125 L485.5324,112.6695 L475.0772,115.9497 L464.6219,112.5593 L454.1667,114.5508 L450,118.7174 " fill="#17A2B8" style="stroke:#1592A6;stroke-width:1.0416666666666667;"/><path d="M736.4583,114.5508 L736.9296,114.5508 L736.6497,116.2174 L736.2103,117.8841 L736.1308,119.5508 L736.8831,121.2174 L736.4583,122.8841 L738.5417,124.9674 L738.5417,124.6903 L740.2083,125.5155 L741.875,124.4556 L743.5417,125.5391 L745.2083,125.4159 L746.875,124.9674 L747.0354,125.1278 L744.8226,122.915 L743.1841,121.2765 L741.0267,119.1192 L738.6525,116.7449 L736.4583,114.5508 " fill="#17A2B8" style="stroke:#1592A6;stroke-width:1.0416666666666667;"/><text fill="#FFFFFF" font-family="Segoe Print" font-size="12.5" lengthAdjust="spacing" textLength="264.5833" x="461.4583" y="136.5702">&#21021;&#22987;&#25968;&#25454;: account_id=1, balance=100.00</text><polygon fill="#000000" points="586.4583,182.194,586.4854,182.2618,588.4882,182.8938,590.6499,183.923,592.7599,184.8229,594.6997,185.2974,596.875,186.3607,596.865,186.3356,594.7367,187.0565,592.6589,187.9037,590.6162,188.8387,588.4525,189.4711,586.4583,190.5273,586.5943,190.6633,587.1369,189.5393,588.0764,188.8121,589.0644,188.1334,589.7706,187.173,590.625,186.3607,590.6418,186.3774,589.7838,185.5195,589.0022,184.7378,588.1837,183.9194,587.4355,183.1711,586.4583,182.194" style="stroke:#000000;stroke-width:1.0416666666666667;"/><path d="M40.625,186.3607 L40.625,186.6526 L51.0417,185.7852 L61.4583,186.6291 L71.875,186.9158 L82.2917,185.3699 L92.7083,186.2527 L103.125,185.7683 L113.5417,185.828 L123.9583,186.266 L134.375,185.4004 L144.7917,187.1296 L155.2083,185.4853 L165.625,186.086 L176.0417,186.9606 L186.4583,186.2415 L196.875,186.4555 L207.2917,186.3163 L217.7083,186.6086 L228.125,186.6928 L238.5417,187.1741 L248.9583,187.2927 L259.375,187.3041 L269.7917,186.7143 L280.2083,187.0045 L290.625,187.336 L301.0417,185.359 L311.4583,187.3031 L321.875,185.9489 L332.2917,187.1021 L342.7083,185.6731 L353.125,186.2655 L363.5417,187.3907 L373.9583,186.293 L384.375,186.5069 L394.7917,186.831 L405.2083,186.9388 L415.625,186.3553 L426.0417,186.7596 L436.4583,185.5657 L446.875,186.7557 L457.2917,187.1221 L467.7083,186.9781 L478.125,187.2121 L488.5417,185.6897 L498.9583,185.4549 L509.375,185.4976 L519.7917,186.2789 L530.2083,186.0877 L540.625,187.3071 L551.0417,186.1181 L561.4583,185.8842 L571.875,186.6777 L582.2917,185.4345 L592.7083,186.3607 " fill="none" style="stroke:#000000;stroke-width:3.125;"/><text fill="#2E2E2E" font-family="Segoe Print" font-size="12.5" lengthAdjust="spacing" textLength="135.4167" x="53.125" y="176.121">START TRANSACTION;</text><polygon fill="#000000" points="586.4583,221.7448,586.4854,221.8126,588.4882,222.4446,590.6499,223.4738,592.7599,224.3736,594.6997,224.8481,596.875,225.9115,596.865,225.8864,594.7367,226.6073,592.6589,227.4545,590.6162,228.3895,588.4525,229.0219,586.4583,230.0781,586.5943,230.2141,587.1369,229.09,588.0764,228.3629,589.0644,227.6842,589.7706,226.7237,590.625,225.9115,590.6418,225.9282,589.7838,225.0703,589.0022,224.2886,588.1837,223.4702,587.4355,222.7219,586.4583,221.7448" style="stroke:#000000;stroke-width:1.0416666666666667;"/><path d="M40.625,225.9115 L40.625,226.2034 L51.0417,225.336 L61.4583,226.1799 L71.875,226.4666 L82.2917,224.9206 L92.7083,225.8035 L103.125,225.3191 L113.5417,225.3788 L123.9583,225.8168 L134.375,224.9512 L144.7917,226.6804 L155.2083,225.0361 L165.625,225.6368 L176.0417,226.5114 L186.4583,225.7923 L196.875,226.0062 L207.2917,225.8671 L217.7083,226.1594 L228.125,226.2436 L238.5417,226.7249 L248.9583,226.8435 L259.375,226.8549 L269.7917,226.2651 L280.2083,226.5553 L290.625,226.8868 L301.0417,224.9098 L311.4583,226.8538 L321.875,225.4996 L332.2917,226.6529 L342.7083,225.2239 L353.125,225.8163 L363.5417,226.9415 L373.9583,225.8438 L384.375,226.0577 L394.7917,226.3818 L405.2083,226.4896 L415.625,225.906 L426.0417,226.3104 L436.4583,225.1164 L446.875,226.3064 L457.2917,226.6728 L467.7083,226.5289 L478.125,226.7629 L488.5417,225.2405 L498.9583,225.0056 L509.375,225.0484 L519.7917,225.8297 L530.2083,225.6385 L540.625,226.8579 L551.0417,225.6689 L561.4583,225.435 L571.875,226.2285 L582.2917,224.9853 L592.7083,225.9115 " fill="none" style="stroke:#000000;stroke-width:3.125;"/><text fill="#2E2E2E" font-family="Segoe Print" font-size="12.5" lengthAdjust="spacing" textLength="363.5417" x="53.125" y="215.6718">SELECT balance FROM accounts WHERE account_id = 1;</text><polygon fill="#000000" points="52.0833,261.2956,52.1104,261.3633,49.9466,261.9953,47.9416,263.0246,45.8849,263.9244,43.658,264.3989,41.6667,265.4622,41.6566,265.4372,43.695,266.1581,45.7839,267.0053,47.9079,267.9403,49.9108,268.5727,52.0833,269.6289,52.2193,269.7648,51.0953,268.6408,50.3681,267.9137,49.6894,267.235,48.7289,266.2745,47.9167,265.4622,47.9334,265.479,48.7422,264.6211,49.6272,263.8394,50.4754,263.021,51.3938,262.2727,52.0833,261.2956" style="stroke:#000000;stroke-width:1.0416666666666667;"/><path d="M45.8333,265.4622 L45.8333,265.7542 L56.25,264.8868 L66.6667,265.7307 L77.0833,266.0173 L87.5,264.4714 L97.9167,265.3543 L108.3333,264.8699 L118.75,264.9296 L129.1667,265.3676 L139.5833,264.502 L150,266.2312 L160.4167,264.5868 L170.8333,265.1876 L181.25,266.0622 L191.6667,265.3431 L202.0833,265.557 L212.5,265.4179 L222.9167,265.7102 L233.3333,265.7944 L243.75,266.2757 L254.1667,266.3943 L264.5833,266.4057 L275,265.8159 L285.4167,266.1061 L295.8333,266.4376 L306.25,264.4606 L316.6667,266.4046 L327.0833,265.0504 L337.5,266.2036 L347.9167,264.7747 L358.3333,265.3671 L368.75,266.4922 L379.1667,265.3946 L389.5833,265.6085 L400,265.9326 L410.4167,266.0403 L420.8333,265.4568 L431.25,265.8611 L441.6667,264.6672 L452.0833,265.8572 L462.5,266.2236 L472.9167,266.0796 L483.3333,266.3137 L493.75,264.7913 L504.1667,264.5564 L514.5833,264.5992 L525,265.3805 L535.4167,265.1893 L545.8333,266.4086 L556.25,265.2196 L566.6667,264.9858 L577.0833,265.7793 L587.5,264.5361 L597.9167,265.4622 " fill="none" style="stroke:#000000;stroke-width:3.125;"/><text fill="#2E2E2E" font-family="Segoe Print" font-size="12.5" font-weight="bold" lengthAdjust="spacing" textLength="46.875" x="63.5417" y="255.2226">100.00</text><polygon fill="#00BFFF" points="586.4583,300.8464,586.4854,300.9141,588.4882,301.5461,590.6499,302.5753,592.7599,303.4752,594.6997,303.9497,596.875,305.013,596.865,304.988,594.7367,305.7089,592.6589,306.5561,590.6162,307.491,588.4525,308.1235,586.4583,309.1797,586.5943,309.3156,587.1369,308.1916,588.0764,307.4645,589.0644,306.7857,589.7706,305.8253,590.625,305.013,590.6418,305.0298,589.7838,304.1718,589.0022,303.3902,588.1837,302.5717,587.4355,301.8235,586.4583,300.8464" style="stroke:#00BFFF;stroke-width:1.0416666666666667;"/><path d="M101.0417,305.013 L101.0417,305.3049 L111.5027,304.4376 L121.9637,305.2815 L132.4246,305.5681 L142.8856,304.0222 L153.3466,304.9051 L163.8076,304.4207 L174.2686,304.4804 L184.7296,304.9184 L195.1906,304.0528 L205.6516,305.782 L216.1126,304.1376 L226.5736,304.7383 L237.0346,305.6129 L247.4956,304.8939 L257.9566,305.1078 L268.4176,304.9686 L278.8785,305.261 L289.3395,305.3452 L299.8005,305.8265 L310.2615,305.945 L320.7225,305.9564 L331.1835,305.3667 L341.6445,305.6569 L352.1055,305.9883 L362.5665,304.0114 L373.0275,305.9554 L383.4885,304.6012 L393.9495,305.7544 L404.4105,304.3255 L414.8715,304.9179 L425.3324,306.043 L435.7934,304.9453 L446.2544,305.1593 L456.7154,305.4833 L467.1764,305.5911 L477.6374,305.0076 L488.0984,305.4119 L498.5594,304.218 L509.0204,305.408 L519.4814,305.7744 L529.9424,305.6304 L540.4034,305.8644 L550.8644,304.3421 L561.3254,304.1072 L571.7863,304.15 L582.2473,304.9312 L592.7083,305.013 " fill="none" style="stroke:#00BFFF;stroke-width:3.125;"/><text fill="#2E2E2E" font-family="Segoe Print" font-size="12.5" lengthAdjust="spacing" textLength="135.4167" x="113.5417" y="294.7734">START TRANSACTION;</text><polygon fill="#00BFFF" points="586.4583,340.3971,586.4854,340.4649,588.4882,341.0969,590.6499,342.1261,592.7599,343.026,594.6997,343.5005,596.875,344.5638,596.865,344.5387,594.7367,345.2596,592.6589,346.1068,590.6162,347.0418,588.4525,347.6742,586.4583,348.7305,586.5943,348.8664,587.1369,347.7424,588.0764,347.0152,589.0644,346.3365,589.7706,345.3761,590.625,344.5638,590.6418,344.5806,589.7838,343.7226,589.0022,342.941,588.1837,342.1225,587.4355,341.3743,586.4583,340.3971" style="stroke:#00BFFF;stroke-width:1.0416666666666667;"/><path d="M101.0417,344.5638 L101.0417,344.8557 L111.5027,343.9884 L121.9637,344.8323 L132.4246,345.1189 L142.8856,343.573 L153.3466,344.4559 L163.8076,343.9714 L174.2686,344.0312 L184.7296,344.4691 L195.1906,343.6036 L205.6516,345.3327 L216.1126,343.6884 L226.5736,344.2891 L237.0346,345.1637 L247.4956,344.4447 L257.9566,344.6586 L268.4176,344.5194 L278.8785,344.8118 L289.3395,344.8959 L299.8005,345.3773 L310.2615,345.4958 L320.7225,345.5072 L331.1835,344.9175 L341.6445,345.2077 L352.1055,345.5391 L362.5665,343.5622 L373.0275,345.5062 L383.4885,344.152 L393.9495,345.3052 L404.4105,343.8763 L414.8715,344.4687 L425.3324,345.5938 L435.7934,344.4961 L446.2544,344.7101 L456.7154,345.0341 L467.1764,345.1419 L477.6374,344.5584 L488.0984,344.9627 L498.5594,343.7688 L509.0204,344.9588 L519.4814,345.3252 L529.9424,345.1812 L540.4034,345.4152 L550.8644,343.8929 L561.3254,343.658 L571.7863,343.7007 L582.2473,344.482 L592.7083,344.5638 " fill="none" style="stroke:#00BFFF;stroke-width:3.125;"/><text fill="#2E2E2E" font-family="Segoe Print" font-size="12.5" lengthAdjust="spacing" textLength="462.5" x="113.5417" y="334.3241">UPDATE accounts SET balance = balance + 50 WHERE account_id = 1;</text><polygon fill="#00BFFF" points="586.4583,379.9479,586.4854,380.0157,588.4882,380.6477,590.6499,381.6769,592.7599,382.5768,594.6997,383.0513,596.875,384.1146,596.865,384.0895,594.7367,384.8104,592.6589,385.6576,590.6162,386.5926,588.4525,387.225,586.4583,388.2813,586.5943,388.4172,587.1369,387.2932,588.0764,386.566,589.0644,385.8873,589.7706,384.9269,590.625,384.1146,590.6418,384.1313,589.7838,383.2734,589.0022,382.4917,588.1837,381.6733,587.4355,380.9251,586.4583,379.9479" style="stroke:#00BFFF;stroke-width:1.0416666666666667;"/><path d="M101.0417,384.1146 L101.0417,384.4065 L111.5027,383.5391 L121.9637,384.383 L132.4246,384.6697 L142.8856,383.1238 L153.3466,384.0066 L163.8076,383.5222 L174.2686,383.5819 L184.7296,384.0199 L195.1906,383.1543 L205.6516,384.8835 L216.1126,383.2392 L226.5736,383.8399 L237.0346,384.7145 L247.4956,383.9954 L257.9566,384.2094 L268.4176,384.0702 L278.8785,384.3625 L289.3395,384.4467 L299.8005,384.928 L310.2615,385.0466 L320.7225,385.058 L331.1835,384.4682 L341.6445,384.7585 L352.1055,385.0899 L362.5665,383.1129 L373.0275,385.057 L383.4885,383.7028 L393.9495,384.856 L404.4105,383.4271 L414.8715,384.0194 L425.3324,385.1446 L435.7934,384.0469 L446.2544,384.2608 L456.7154,384.5849 L467.1764,384.6927 L477.6374,384.1092 L488.0984,384.5135 L498.5594,383.3196 L509.0204,384.5096 L519.4814,384.876 L529.9424,384.732 L540.4034,384.966 L550.8644,383.4436 L561.3254,383.2088 L571.7863,383.2515 L582.2473,384.0328 L592.7083,384.1146 " fill="none" style="stroke:#00BFFF;stroke-width:3.125;"/><text fill="#2E2E2E" font-family="Segoe Print" font-size="12.5" lengthAdjust="spacing" textLength="53.125" x="113.5417" y="373.8749">COMMIT;</text><polygon fill="#000000" points="586.4583,419.4987,586.4854,419.5665,588.4882,420.1985,590.6499,421.2277,592.7599,422.1275,594.6997,422.602,596.875,423.6654,596.865,423.6403,594.7367,424.3612,592.6589,425.2084,590.6162,426.1434,588.4525,426.7758,586.4583,427.832,586.5943,427.968,587.1369,426.8439,588.0764,426.1168,589.0644,425.4381,589.7706,424.4776,590.625,423.6654,590.6418,423.6821,589.7838,422.8242,589.0022,422.0425,588.1837,421.2241,587.4355,420.4758,586.4583,419.4987" style="stroke:#000000;stroke-width:1.0416666666666667;"/><path d="M40.625,423.6654 L40.625,423.9573 L51.0417,423.0899 L61.4583,423.9338 L71.875,424.2205 L82.2917,422.6745 L92.7083,423.5574 L103.125,423.073 L113.5417,423.1327 L123.9583,423.5707 L134.375,422.7051 L144.7917,424.4343 L155.2083,422.79 L165.625,423.3907 L176.0417,424.2653 L186.4583,423.5462 L196.875,423.7601 L207.2917,423.621 L217.7083,423.9133 L228.125,423.9975 L238.5417,424.4788 L248.9583,424.5974 L259.375,424.6088 L269.7917,424.019 L280.2083,424.3092 L290.625,424.6407 L301.0417,422.6637 L311.4583,424.6077 L321.875,423.2536 L332.2917,424.4068 L342.7083,422.9778 L353.125,423.5702 L363.5417,424.6954 L373.9583,423.5977 L384.375,423.8116 L394.7917,424.1357 L405.2083,424.2435 L415.625,423.6599 L426.0417,424.0643 L436.4583,422.8703 L446.875,424.0603 L457.2917,424.4267 L467.7083,424.2828 L478.125,424.5168 L488.5417,422.9944 L498.9583,422.7596 L509.375,422.8023 L519.7917,423.5836 L530.2083,423.3924 L540.625,424.6118 L551.0417,423.4228 L561.4583,423.1889 L571.875,423.9824 L582.2917,422.7392 L592.7083,423.6654 " fill="none" style="stroke:#000000;stroke-width:3.125;"/><text fill="#2E2E2E" font-family="Segoe Print" font-size="12.5" lengthAdjust="spacing" textLength="363.5417" x="53.125" y="413.4257">SELECT balance FROM accounts WHERE account_id = 1;</text><polygon fill="#000000" points="52.0833,459.0495,52.1104,459.1172,49.9466,459.7492,47.9416,460.7785,45.8849,461.6783,43.658,462.1528,41.6667,463.2161,41.6566,463.1911,43.695,463.912,45.7839,464.7592,47.9079,465.6942,49.9108,466.3266,52.0833,467.3828,52.2193,467.5187,51.0953,466.3947,50.3681,465.6676,49.6894,464.9889,48.7289,464.0284,47.9167,463.2161,47.9334,463.2329,48.7422,462.375,49.6272,461.5933,50.4754,460.7749,51.3938,460.0266,52.0833,459.0495" style="stroke:#000000;stroke-width:1.0416666666666667;"/><path d="M45.8333,463.2161 L45.8333,463.5081 L56.25,462.6407 L66.6667,463.4846 L77.0833,463.7713 L87.5,462.2253 L97.9167,463.1082 L108.3333,462.6238 L118.75,462.6835 L129.1667,463.1215 L139.5833,462.2559 L150,463.9851 L160.4167,462.3408 L170.8333,462.9415 L181.25,463.8161 L191.6667,463.097 L202.0833,463.3109 L212.5,463.1718 L222.9167,463.4641 L233.3333,463.5483 L243.75,464.0296 L254.1667,464.1482 L264.5833,464.1596 L275,463.5698 L285.4167,463.86 L295.8333,464.1915 L306.25,462.2145 L316.6667,464.1585 L327.0833,462.8043 L337.5,463.9576 L347.9167,462.5286 L358.3333,463.121 L368.75,464.2462 L379.1667,463.1485 L389.5833,463.3624 L400,463.6865 L410.4167,463.7942 L420.8333,463.2107 L431.25,463.6151 L441.6667,462.4211 L452.0833,463.6111 L462.5,463.9775 L472.9167,463.8336 L483.3333,464.0676 L493.75,462.5452 L504.1667,462.3103 L514.5833,462.3531 L525,463.1344 L535.4167,462.9432 L545.8333,464.1626 L556.25,462.9735 L566.6667,462.7397 L577.0833,463.5332 L587.5,462.29 L597.9167,463.2161 " fill="none" style="stroke:#000000;stroke-width:3.125;"/><text fill="#2E2E2E" font-family="Segoe Print" font-size="12.5" font-weight="bold" lengthAdjust="spacing" textLength="46.875" x="63.5417" y="452.9765">100.00</text><polygon fill="#000000" points="586.4583,498.6003,586.4854,498.668,588.4882,499.3,590.6499,500.3292,592.7599,501.2291,594.6997,501.7036,596.875,502.7669,596.865,502.7419,594.7367,503.4628,592.6589,504.31,590.6162,505.245,588.4525,505.8774,586.4583,506.9336,586.5943,507.0695,587.1369,505.9455,588.0764,505.2184,589.0644,504.5396,589.7706,503.5792,590.625,502.7669,590.6418,502.7837,589.7838,501.9257,589.0022,501.1441,588.1837,500.3256,587.4355,499.5774,586.4583,498.6003" style="stroke:#000000;stroke-width:1.0416666666666667;"/><path d="M40.625,502.7669 L40.625,503.0588 L51.0417,502.1915 L61.4583,503.0354 L71.875,503.322 L82.2917,501.7761 L92.7083,502.659 L103.125,502.1746 L113.5417,502.2343 L123.9583,502.6723 L134.375,501.8067 L144.7917,503.5359 L155.2083,501.8915 L165.625,502.4923 L176.0417,503.3669 L186.4583,502.6478 L196.875,502.8617 L207.2917,502.7226 L217.7083,503.0149 L228.125,503.0991 L238.5417,503.5804 L248.9583,503.6989 L259.375,503.7103 L269.7917,503.1206 L280.2083,503.4108 L290.625,503.7422 L301.0417,501.7653 L311.4583,503.7093 L321.875,502.3551 L332.2917,503.5083 L342.7083,502.0794 L353.125,502.6718 L363.5417,503.7969 L373.9583,502.6992 L384.375,502.9132 L394.7917,503.2372 L405.2083,503.345 L415.625,502.7615 L426.0417,503.1658 L436.4583,501.9719 L446.875,503.1619 L457.2917,503.5283 L467.7083,503.3843 L478.125,503.6184 L488.5417,502.096 L498.9583,501.8611 L509.375,501.9039 L519.7917,502.6851 L530.2083,502.494 L540.625,503.7133 L551.0417,502.5243 L561.4583,502.2905 L571.875,503.084 L582.2917,501.8408 L592.7083,502.7669 " fill="none" style="stroke:#000000;stroke-width:3.125;"/><text fill="#2E2E2E" font-family="Segoe Print" font-size="12.5" lengthAdjust="spacing" textLength="53.125" x="53.125" y="492.5273">COMMIT;</text><!--SRC=[lP6nJiCm48PtFyKnGr4oi2IaafCQKOcqA35YHAwnr2Yf7H87L25sHCM463imiI7cFW_fSn14sXJKIcLXi-_E___zvnqz52C1UImq7uvRgj1990LYNAiCFcQJyk45_xYvA6MPZdYKCgbX_lm-VtmhPqy8IQK5g6kHDKKBoljf-JhvBbZ0E5U5r1VHfMFkmO0bJ7BXc8QnRnW8vN4aAsqsWbnS5Q9gmIq2m5ccRZoLL0HkmdYCxX2gmQ3LNZKBAGueq03tGkpHRhzdRnea9yIZ2m0u2lh-WYs7ysCIa1LKSC2qqVBrbrIjQi7XeBqzVKU8D8p7RbA89eExRORVWsUd7Kn9WnsI9f2pFEt2WR4XqNfPh-_xNMh_wJVGFwvvlLDD_Ga0]--></g></svg>