<svg xmlns="http://www.w3.org/2000/svg" xmlns:xlink="http://www.w3.org/1999/xlink" contentStyleType="text/css" height="572.9167px" preserveAspectRatio="none" style="width:441px;height:572px;" version="1.1" viewBox="0 0 441 572" width="441.6667px" zoomAndPan="magnify"><defs/><g><!--class End User--><g id="elem_End User"><polygon fill="none" points="146.3542,17.7083,146.3542,17.9273,157.0023,17.2767,167.6505,17.9097,178.2986,18.1247,188.9468,16.9652,199.5949,17.6274,210.2431,17.2641,220.8912,17.3089,231.5394,17.6373,242.1875,17.7083,242.0956,17.4865,242.8503,18.13,243.2823,17.9943,243.929,18.3771,244.6019,18.8232,245.1338,18.9287,245.1063,18.9173,245.3997,19.527,245.6117,20.103,245.9233,20.7202,246.1868,21.3175,246.3542,21.875,246.9643,21.875,247.0532,31.8766,247.0617,41.8783,246.6194,51.8799,246.8371,61.8815,247.0857,71.8831,245.6029,81.8848,247.0609,91.8864,246.0453,101.888,246.3542,111.8896,246.5254,111.9606,245.9513,112.4131,245.844,113.0591,245.8598,113.756,245.3622,114.2402,245.1338,114.8359,245.1478,114.8697,244.5895,115.1886,244.0106,115.4576,243.3655,115.5669,242.8149,115.9044,242.1875,116.0563,242.1875,115.46,231.5394,116.3526,220.8912,116.6274,210.2431,116.5194,199.5949,116.6949,188.9468,115.5531,178.2986,115.377,167.6505,115.409,157.0023,115.995,146.3542,116.0563,146.3281,115.9933,145.8555,116.0308,145.1524,115.5121,144.5408,115.214,144.0275,115.1532,143.4079,114.8359,143.194,114.7473,142.9973,114.1777,143.1279,113.7436,142.8154,113.126,142.6672,112.5765,142.1875,111.8896,141.8523,111.8896,142.52,101.888,142.8025,91.8864,141.6954,81.8848,142.0876,71.8831,142.3187,61.8815,142.8664,51.8799,142.1831,41.8783,142.6693,31.8766,142.1875,21.875,142.0099,21.8014,142.2143,21.1958,142.8372,20.7634,142.6897,20.012,143.3271,19.5856,143.4079,18.9287,143.4353,18.995,143.9615,18.5987,144.5394,18.3271,145.2366,18.3437,145.7251,17.8564,146.3542,17.7083" style="stroke:#333333;stroke-width:1.0416666666666667;"/><polygon fill="none" points="170.995,37.3279,169.4681,39.4142,167.6621,42.47,165.0792,44.5293,162.3649,45.6555,160.2008,45.7532,157.4192,44.3448,154.7947,43.4247,152.8026,41.5566,151.7576,39.4179,151.1379,37.7151,150.5308,35.4908,149.5454,33.5768,150.3027,31.7079,150.9661,29.6608,153.4558,28.0417,155.2074,25.941,157.3754,25.2434,159.9528,24.6426,163.258,24.9996,165.0683,25.8533,167.173,26.2403,169.7322,28.8623,170.6243,31.6302,171.0119,33.5189,170.5729,36.6311" style="stroke:#2E2E2E;stroke-width:1.0416666666666667;"/><path d="M163.0599,39.4816 L157.3796,39.4816 L157.3796,30.367 L163.0599,30.367 L163.0599,31.9621 L159.1862,31.9621 L159.1862,33.9152 L162.6855,33.9152 L162.6855,35.5103 L159.1862,35.5103 L159.1862,37.8866 L163.0599,37.8866 L163.0599,39.4816 Z " fill="#2E2E2E"/><text fill="#555555" font-family="Segoe Print" font-size="11.4583" lengthAdjust="spacing" textLength="54.1667" x="180.1042" y="38.7609">End User</text><path d="M143.2292,51.8799 L143.2292,52.1718 L153.4375,51.3044 L163.6458,52.1483 L173.8542,52.435 L184.0625,50.8891 L194.2708,51.7719 L204.4792,51.2875 L214.6875,51.3472 L224.8958,51.7852 L235.1042,50.9196 L245.3125,51.8799 " fill="none" style="stroke:#333333;stroke-width:1.0416666666666667;"/><polygon fill="none" points="156.7881,70.2466,156.33,70.8725,155.7882,71.7892,155.0133,72.4071,154.1991,72.7449,153.5498,72.7742,152.7153,72.3517,151.928,72.0757,151.3304,71.5152,151.0169,70.8736,150.831,70.3628,150.6488,69.6955,150.3532,69.1213,150.5804,68.5606,150.7794,67.9465,151.5263,67.4608,152.0518,66.8306,152.7022,66.6213,153.4754,66.4411,154.467,66.5481,155.0101,66.8043,155.6415,66.9204,156.4092,67.7069,156.6769,68.5373,156.7932,69.1039,156.6614,70.0376" style="stroke:#2E2E2E;stroke-width:1.0416666666666667;"/><text fill="#555555" font-family="Segoe Print" font-size="11.4583" lengthAdjust="spacing" textLength="39.5833" x="167.1875" y="71.8908">UserID</text><polygon fill="none" points="156.7881,94.0015,156.33,94.6274,155.7882,95.5441,155.0133,96.1619,154.1991,96.4998,153.5498,96.5291,152.7153,96.1066,151.928,95.8306,151.3304,95.2701,151.0169,94.6285,150.831,94.1177,150.6488,93.4504,150.3532,92.8762,150.5804,92.3155,150.7794,91.7014,151.5263,91.2157,152.0518,90.5854,152.7022,90.3762,153.4754,90.1959,154.467,90.303,155.0101,90.5591,155.6415,90.6752,156.4092,91.4618,156.6769,92.2922,156.7932,92.8588,156.6614,93.7925" style="stroke:#2E2E2E;stroke-width:1.0416666666666667;"/><text fill="#555555" font-family="Segoe Print" font-size="11.4583" lengthAdjust="spacing" textLength="67.7083" x="167.1875" y="95.6457">Credentials</text><path d="M143.2292,107.723 L143.2292,108.0149 L153.4375,107.1475 L163.6458,107.9914 L173.8542,108.2781 L184.0625,106.7322 L194.2708,107.615 L204.4792,107.1306 L214.6875,107.1903 L224.8958,107.6283 L235.1042,106.7627 L245.3125,107.723 " fill="none" style="stroke:#333333;stroke-width:1.0416666666666667;"/></g><!--class Client--><g id="elem_Client"><polygon fill="none" points="21.875,204.6042,21.875,204.8231,32.4074,204.1726,42.9398,204.8055,53.4722,205.0205,64.0046,203.861,74.537,204.5232,85.0694,204.1599,95.6019,204.2047,106.1343,204.5332,116.6667,204.6042,116.5748,204.3824,117.3295,205.0258,117.7614,204.8901,118.4082,205.273,119.0811,205.719,119.6129,205.8246,119.5854,205.8132,119.8789,206.4229,120.0909,206.9988,120.4024,207.616,120.666,208.2134,120.8333,208.7708,121.4434,208.7708,121.5323,218.7725,121.5409,228.7741,121.0986,238.7757,121.3162,248.7773,121.5648,258.779,120.0821,268.7806,121.5401,278.7822,120.5245,288.7839,120.8333,298.7855,121.0046,298.8564,120.4305,299.309,120.3232,299.9549,120.339,300.6518,119.8414,301.136,119.6129,301.7318,119.6269,301.7655,119.0687,302.0845,118.4897,302.3534,117.8447,302.4627,117.2941,302.8002,116.6667,302.9521,116.6667,302.3559,106.1343,303.2484,95.6019,303.5232,85.0694,303.4152,74.537,303.5907,64.0046,302.4489,53.4722,302.2728,42.9398,302.3049,32.4074,302.8908,21.875,302.9521,21.8489,302.8891,21.3763,302.9267,20.6733,302.408,20.0616,302.1099,19.5483,302.0491,18.9287,301.7318,18.7148,301.6432,18.5181,301.0735,18.6487,300.6395,18.3362,300.0219,18.188,299.4723,17.7083,298.7855,17.3731,298.7855,18.0408,288.7839,18.3234,278.7822,17.2162,268.7806,17.6085,258.779,17.8396,248.7773,18.3872,238.7757,17.704,228.7741,18.1902,218.7725,17.7083,208.7708,17.5307,208.6972,17.7352,208.0916,18.358,207.6592,18.2106,206.9078,18.8479,206.4814,18.9287,205.8246,18.9562,205.8908,19.4824,205.4945,20.0602,205.2229,20.7574,205.2395,21.246,204.7522,21.875,204.6042" style="stroke:#333333;stroke-width:1.0416666666666667;"/><polygon fill="none" points="55.4221,224.2237,53.8952,226.31,52.0892,229.3658,49.5063,231.4252,46.792,232.5513,44.6278,232.6491,41.8463,231.2406,39.2217,230.3205,37.2297,228.4524,36.1847,226.3138,35.565,224.6109,34.9579,222.3866,33.9725,220.4726,34.7298,218.6038,35.3932,216.5566,37.8829,214.9376,39.6344,212.8368,41.8025,212.1392,44.3798,211.5385,47.685,211.8954,49.4953,212.7492,51.6001,213.1361,54.1593,215.7581,55.0514,218.5261,55.439,220.4147,55,223.5269" style="stroke:#2E2E2E;stroke-width:1.0416666666666667;"/><path d="M47.487,226.3774 L41.8066,226.3774 L41.8066,217.2629 L47.487,217.2629 L47.487,218.8579 L43.6133,218.8579 L43.6133,220.811 L47.1126,220.811 L47.1126,222.4061 L43.6133,222.4061 L43.6133,224.7824 L47.487,224.7824 L47.487,226.3774 Z " fill="#2E2E2E"/><text fill="#555555" font-family="Segoe Print" font-size="11.4583" lengthAdjust="spacing" textLength="33.3333" x="66.5104" y="225.6567">Client</text><path d="M18.75,238.7757 L18.75,239.0676 L28.8542,238.2003 L38.9583,239.0442 L49.0625,239.3308 L59.1667,237.7849 L69.2708,238.6678 L79.375,238.1834 L89.4792,238.2431 L99.5833,238.6811 L109.6875,237.8155 L119.7917,238.7757 " fill="none" style="stroke:#333333;stroke-width:1.0416666666666667;"/><polygon fill="none" points="32.3089,257.1424,31.8509,257.7683,31.3091,258.6851,30.5342,259.3029,29.7199,259.6407,29.0706,259.6701,28.2362,259.2475,27.4488,258.9715,26.8512,258.4111,26.5377,257.7695,26.3518,257.2586,26.1697,256.5913,25.874,256.0171,26.1012,255.4565,26.3002,254.8423,27.0471,254.3566,27.5726,253.7264,28.223,253.5171,28.9962,253.3369,29.9878,253.444,30.5309,253.7001,31.1623,253.8162,31.9301,254.6028,32.1977,255.4332,32.314,255.9998,32.1823,256.9334" style="stroke:#2E2E2E;stroke-width:1.0416666666666667;"/><text fill="#555555" font-family="Segoe Print" font-size="11.4583" lengthAdjust="spacing" textLength="44.7917" x="42.7083" y="258.7866">ClientID</text><polygon fill="none" points="32.3089,280.8973,31.8509,281.5232,31.3091,282.44,30.5342,283.0578,29.7199,283.3956,29.0706,283.4249,28.2362,283.0024,27.4488,282.7264,26.8512,282.166,26.5377,281.5244,26.3518,281.0135,26.1697,280.3462,25.874,279.772,26.1012,279.2114,26.3002,278.5972,27.0471,278.1115,27.5726,277.4813,28.223,277.272,28.9962,277.0918,29.9878,277.1988,30.5309,277.455,31.1623,277.5711,31.9301,278.3577,32.1977,279.188,32.314,279.7546,32.1823,280.6883" style="stroke:#2E2E2E;stroke-width:1.0416666666666667;"/><text fill="#555555" font-family="Segoe Print" font-size="11.4583" lengthAdjust="spacing" textLength="66.6667" x="42.7083" y="282.5415">RedirectURI</text><path d="M18.75,294.6188 L18.75,294.9107 L28.8542,294.0434 L38.9583,294.8873 L49.0625,295.1739 L59.1667,293.628 L69.2708,294.5109 L79.375,294.0265 L89.4792,294.0862 L99.5833,294.5242 L109.6875,293.6586 L119.7917,294.6188 " fill="none" style="stroke:#333333;stroke-width:1.0416666666666667;"/></g><!--class Identity Provider--><g id="elem_Identity Provider"><polygon fill="none" points="78.6458,391.4896,78.6458,391.7085,88.94,391.058,99.2341,391.6909,109.5282,391.9059,119.8223,390.7465,130.1164,391.4086,140.4105,391.0453,150.7047,391.0901,160.9988,391.4186,171.2929,390.7694,181.587,392.0663,191.8811,390.833,202.1752,391.2836,212.4694,391.9395,222.7635,391.4002,233.0576,391.5607,243.3517,391.4563,253.6458,391.4896,253.6696,391.5469,254.2669,391.8104,254.9022,392.1656,255.5028,392.4371,256.0931,392.6838,256.5921,392.71,256.6738,392.7438,256.9849,393.3608,257.3055,393.9818,257.093,394.3819,257.7861,395.1572,257.8125,395.6562,257.5036,395.6562,258.3686,406.4082,257.2969,417.1602,257.7411,427.9121,258.585,438.6641,257.7617,449.416,257.9222,460.168,258.1652,470.9199,258.2461,481.6719,257.8084,492.4238,258.1117,503.1758,257.2162,513.9277,258.1087,524.6797,258.3835,535.4316,258.2756,546.1836,257.8125,556.9355,258.0092,557.017,257.4135,557.4606,257.1151,558.0274,256.8809,558.6207,256.8173,559.2847,256.5921,559.8818,256.566,559.8188,256.0934,560.3445,255.3904,560.3139,254.7788,560.504,254.2654,560.9314,253.6458,561.1022,253.6458,560.4076,243.3517,560.5615,233.0576,561.7782,222.7635,561.556,212.4694,561.8673,202.1752,560.767,191.8811,561.4347,181.587,561.7172,171.2929,560.6101,160.9988,561.0024,150.7047,561.2334,140.4105,561.7811,130.1164,561.0978,119.8223,561.5841,109.5282,560.5254,99.2341,560.3967,88.94,561.6268,78.6458,561.1022,78.5506,560.8722,78.1242,561.0214,77.4948,560.6803,76.8425,560.284,76.2418,560.0124,75.6996,559.8818,75.8467,559.9428,75.3595,559.2528,75.4013,558.782,74.79,558.0406,74.9213,557.6068,74.4792,556.9355,74.9836,556.9355,74.7343,546.1836,74.5284,535.4316,75.2361,524.6797,75.1183,513.9277,74.6555,503.1758,74.7585,492.4238,74.3435,481.6719,75.2255,470.9199,74.6405,460.168,74.6589,449.416,73.8455,438.6641,74.0571,427.9121,75.032,417.1602,74.9268,406.4082,74.4792,395.6562,74.4654,395.6505,74.6199,395.0242,74.8971,394.4486,74.9913,393.7973,75.5885,393.3543,75.6996,392.71,75.7978,392.9472,76.3588,392.6348,76.9704,392.4447,77.4492,391.9339,78.0682,391.7616,78.6458,391.4896" style="stroke:#333333;stroke-width:1.0416666666666667;"/><polygon fill="none" points="120.1617,411.1091,118.6348,413.1954,116.8288,416.2512,114.2459,418.3106,111.5316,419.4367,109.3674,419.5345,106.5859,418.1261,103.9613,417.206,101.9693,415.3378,100.9243,413.1992,100.3046,411.4963,99.6975,409.272,98.7121,407.358,99.4693,405.4892,100.1328,403.442,102.6224,401.823,104.374,399.7222,106.542,399.0246,109.1194,398.4239,112.4246,398.7808,114.2349,399.6346,116.3397,400.0216,118.8988,402.6435,119.791,405.4115,120.1786,407.3001,119.7395,410.4124" style="stroke:#2E2E2E;stroke-width:1.0416666666666667;"/><path d="M112.2266,413.2629 L106.5462,413.2629 L106.5462,404.1483 L112.2266,404.1483 L112.2266,405.7433 L108.3529,405.7433 L108.3529,407.6965 L111.8522,407.6965 L111.8522,409.2915 L108.3529,409.2915 L108.3529,411.6678 L112.2266,411.6678 L112.2266,413.2629 Z " fill="#2E2E2E"/><text fill="#555555" font-family="Segoe Print" font-size="11.4583" lengthAdjust="spacing" textLength="95.8333" x="133.0208" y="412.5421">Identity Provider</text><path d="M75.5208,425.6611 L75.5208,425.9531 L86.1826,425.0857 L96.8444,425.9296 L107.5061,426.2162 L118.1679,424.6703 L128.8297,425.5532 L139.4914,425.0688 L150.1532,425.1285 L160.815,425.5665 L171.4767,424.7009 L182.1385,426.4301 L192.8002,424.7857 L203.462,425.3865 L214.1238,426.2611 L224.7855,425.542 L235.4473,425.7559 L246.1091,425.6168 L256.7708,425.6611 " fill="none" style="stroke:#333333;stroke-width:1.0416666666666667;"/><polygon fill="none" points="89.0798,444.0279,88.6217,444.6538,88.0799,445.5705,87.305,446.1883,86.4907,446.5262,85.8415,446.5555,85.007,446.133,84.2196,445.8569,83.622,445.2965,83.3085,444.6549,83.1226,444.144,82.9405,443.4767,82.6449,442.9025,82.8721,442.3419,83.0711,441.7277,83.818,441.242,84.3435,440.6118,84.9939,440.4025,85.7671,440.2223,86.7586,440.3294,87.3017,440.5855,87.9332,440.7016,88.7009,441.4882,88.9685,442.3186,89.0848,442.8852,88.9531,443.8188" style="stroke:#2E2E2E;stroke-width:1.0416666666666667;"/><text fill="#555555" font-family="Segoe Print" font-size="11.4583" lengthAdjust="spacing" textLength="60.4167" x="99.4792" y="445.672">ProviderID</text><path d="M75.5208,457.7493 L75.5208,458.0413 L86.1826,457.1739 L96.8444,458.0178 L107.5061,458.3045 L118.1679,456.7585 L128.8297,457.6414 L139.4914,457.157 L150.1532,457.2167 L160.815,457.6547 L171.4767,456.7891 L182.1385,458.5183 L192.8002,456.874 L203.462,457.4747 L214.1238,458.3493 L224.7855,457.6302 L235.4473,457.8441 L246.1091,457.705 L256.7708,457.7493 " fill="none" style="stroke:#333333;stroke-width:1.0416666666666667;"/><polygon fill="none" points="89.0798,476.1161,88.6217,476.742,88.0799,477.6587,87.305,478.2765,86.4907,478.6144,85.8415,478.6437,85.007,478.2212,84.2196,477.9451,83.622,477.3847,83.3085,476.7431,83.1226,476.2322,82.9405,475.565,82.6449,474.9908,82.8721,474.4301,83.0711,473.816,83.818,473.3302,84.3435,472.7,84.9939,472.4907,85.7671,472.3105,86.7586,472.4176,87.3017,472.6737,87.9332,472.7898,88.7009,473.5764,88.9685,474.4068,89.0848,474.9734,88.9531,475.9071" style="stroke:#2E2E2E;stroke-width:1.0416666666666667;"/><text fill="#555555" font-family="Segoe Print" font-size="11.4583" lengthAdjust="spacing" textLength="109.375" x="99.4792" y="477.7602">authenticateUser()</text><polygon fill="none" points="89.0798,499.871,88.6217,500.4969,88.0799,501.4136,87.305,502.0314,86.4907,502.3693,85.8415,502.3986,85.007,501.9761,84.2196,501.7,83.622,501.1396,83.3085,500.498,83.1226,499.9871,82.9405,499.3198,82.6449,498.7456,82.8721,498.185,83.0711,497.5708,83.818,497.0851,84.3435,496.4549,84.9939,496.2456,85.7671,496.0654,86.7586,496.1725,87.3017,496.4286,87.9332,496.5447,88.7009,497.3313,88.9685,498.1617,89.0848,498.7283,88.9531,499.6619" style="stroke:#2E2E2E;stroke-width:1.0416666666666667;"/><text fill="#555555" font-family="Segoe Print" font-size="11.4583" lengthAdjust="spacing" textLength="146.875" x="99.4792" y="501.5151">issueAuthorizationCode()</text><polygon fill="none" points="89.0798,523.6258,88.6217,524.2517,88.0799,525.1685,87.305,525.7863,86.4907,526.1241,85.8415,526.1535,85.007,525.7309,84.2196,525.4549,83.622,524.8945,83.3085,524.2529,83.1226,523.742,82.9405,523.0747,82.6449,522.5005,82.8721,521.9399,83.0711,521.3257,83.818,520.84,84.3435,520.2098,84.9939,520.0005,85.7671,519.8203,86.7586,519.9274,87.3017,520.1835,87.9332,520.2996,88.7009,521.0862,88.9685,521.9166,89.0848,522.4832,88.9531,523.4168" style="stroke:#2E2E2E;stroke-width:1.0416666666666667;"/><text fill="#555555" font-family="Segoe Print" font-size="11.4583" lengthAdjust="spacing" textLength="83.3333" x="99.4792" y="525.27">issueTokens()</text><polygon fill="none" points="89.0798,547.3807,88.6217,548.0066,88.0799,548.9234,87.305,549.5412,86.4907,549.879,85.8415,549.9083,85.007,549.4858,84.2196,549.2098,83.622,548.6493,83.3085,548.0078,83.1226,547.4969,82.9405,546.8296,82.6449,546.2554,82.8721,545.6948,83.0711,545.0806,83.818,544.5949,84.3435,543.9647,84.9939,543.7554,85.7671,543.5752,86.7586,543.6822,87.3017,543.9384,87.9332,544.0545,88.7009,544.8411,88.9685,545.6714,89.0848,546.238,88.9531,547.1717" style="stroke:#2E2E2E;stroke-width:1.0416666666666667;"/><text fill="#555555" font-family="Segoe Print" font-size="11.4583" lengthAdjust="spacing" textLength="89.5833" x="99.4792" y="549.0249">validateToken()</text></g><!--link End User to Client--><g id="link_End User_Client"><path d="M156.7587,123.3821 L157.0005,123.5456 L150.729,131.271 L145.8749,139.955 L140.5593,148.3268 L133.7257,155.672 L128.904,164.3779 L122.9496,172.3178 L117.4461,180.5624 L112.2558,189.019 L106.7811,197.2833 " fill="none" style="stroke:#333333;stroke-width:3.125;stroke-dasharray:7.0,7.0;"/><path d="M155.6414,117.5964 L155.6959,117.677 L156.9146,118.3712 L158.4527,119.5379 L159.8868,120.5508 L160.9788,121.0576 L162.5444,122.2648 " fill="none" style="stroke:#333333;stroke-width:3.125;"/><path d="M153.8908,120.185 L153.9453,120.2657 L155.1639,120.9598 L156.7021,122.1265 L158.1362,123.1394 L159.2281,123.6462 L160.7937,124.8534 " fill="none" style="stroke:#333333;stroke-width:3.125;"/><path d="M156.7587,123.3821 L156.8393,123.4366 L157.5335,121.8941 L158.7002,120.6711 L159.713,119.344 L160.2198,117.6747 L161.4271,116.4792 " fill="none" style="stroke:#333333;stroke-width:3.125;"/><path d="M107.9,203.0687 L107.9544,203.1493 L106.4117,201.9765 L105.1884,201.2762 L103.8611,200.4221 L102.1917,199.0618 L100.9958,198.4021 " fill="none" style="stroke:#333333;stroke-width:3.125;"/><path d="M109.6499,200.4796 L109.7044,200.5602 L108.1617,199.3874 L106.9384,198.6871 L105.611,197.833 L103.9416,196.4727 L102.7457,195.8131 " fill="none" style="stroke:#333333;stroke-width:3.125;"/><path d="M106.7811,197.2833 L106.8618,197.3378 L105.6889,198.5567 L104.9887,200.0951 L104.1345,201.5294 L102.7743,202.6217 L102.1146,204.1875 " fill="none" style="stroke:#333333;stroke-width:3.125;"/><text fill="#2E2E2E" font-family="Segoe Print" font-size="12.5" lengthAdjust="spacing" textLength="104.1667" x="146.3542" y="165.1653">Access Request</text></g><!--link Client to Identity Provider--><g id="link_Client_Identity Provider"><path d="M37.6214,311.036 L37.7142,311.0653 L36.6251,313.5472 L36.0799,316.2013 L35.3576,318.7993 L34.0529,321.2129 L33.5544,323.8817 L33.5187,323.8775 L33.075,326.2243 L32.8114,328.5927 L32.6729,330.9761 L32.1031,333.3079 L32.1375,335.712 L32.392,335.7427 L32.1328,338.0356 L32.6166,340.4183 L33.191,342.8119 L33.238,345.1417 L33.5624,347.5051 L33.5922,347.5156 L34.4401,350.0471 L35.4238,352.6262 L36.342,355.1824 L37.3851,357.7823 L38.0208,360.2396 L38.3005,360.3749 L39.5389,362.9287 L40.597,365.3952 L41.9191,367.9895 L43.2536,370.5898 L44.196,373.0004 L43.9094,372.829 L45.7753,375.3518 L46.6977,377.3103 L48.3373,379.6978 L49.2382,381.6436 L50.7447,383.9514 L50.7194,383.9322 L52.5645,386.2015 L53.8188,388.0237 L55.4217,390.1096 L57.0539,392.2178 L58.4749,394.1661 L58.6167,394.2966 L60.4176,396.2752 L62.4608,398.4769 L64.1121,400.3176 L66.3479,402.6967 L68.195,404.7179 " fill="none" style="stroke:#333333;stroke-width:3.125;stroke-dasharray:7.0,7.0;"/><path d="M35.251,305.6412 L35.2864,305.7318 L36.7345,306.0673 L38.3896,306.9343 L39.9773,307.6283 L41.3433,307.753 L43.0162,308.6656 " fill="none" style="stroke:#333333;stroke-width:3.125;"/><path d="M34.1169,308.5531 L34.1522,308.6438 L35.6003,308.9792 L37.2554,309.8463 L38.8431,310.5402 L40.2091,310.6649 L41.882,311.5775 " fill="none" style="stroke:#333333;stroke-width:3.125;"/><path d="M37.6214,311.036 L37.7121,311.0713 L38.0475,309.4133 L38.9145,307.9624 L39.6085,306.444 L39.7332,304.704 L40.6458,303.2708 " fill="none" style="stroke:#333333;stroke-width:3.125;"/><path d="M74.0875,404.7429 L74.1561,404.812 L72.769,405.7802 L71.7835,407.1534 L70.6673,408.3948 L69.121,409.2024 L68.17,410.6104 " fill="none" style="stroke:#333333;stroke-width:3.125;"/><path d="M71.8872,402.5238 L71.9558,402.5929 L70.5687,403.5611 L69.5832,404.9344 L68.467,406.1757 L66.9207,406.9833 L65.9697,408.3913 " fill="none" style="stroke:#333333;stroke-width:3.125;"/><path d="M68.195,404.7179 L68.2641,404.7864 L69.2323,405.7663 L70.6056,407.1479 L71.8469,408.3987 L72.6545,409.2194 L74.0625,410.6354 " fill="none" style="stroke:#333333;stroke-width:3.125;"/><text fill="#2E2E2E" font-family="Segoe Print" font-size="12.5" lengthAdjust="spacing" textLength="214.5833" x="44.2708" y="352.0507">Authentication and Authorization</text></g><!--link Identity Provider to End User--><g id="link_Identity Provider_End User"><path d="M257.5707,384.3095 L257.6549,384.3582 L258.7559,381.876 L260.3507,379.6793 L261.7847,377.3897 L262.6898,374.7943 L264.327,372.6222 L264.2936,372.6088 L265.1324,370.0725 L266.1396,367.6033 L267.264,365.1809 L267.9848,362.5974 L269.2708,360.2396 L269.5113,360.3284 L270.1791,356.9402 L271.549,353.8115 L273.0045,350.7143 L273.9617,347.433 L275.1809,344.2486 L275.2108,344.2587 L276.1766,341.2588 L277.2785,338.3049 L278.3148,335.3287 L279.4764,332.395 L280.2292,329.323 L280.5269,329.4121 L281.3695,326.6109 L282.0202,323.7521 L282.9518,320.9775 L283.8966,318.2068 L284.4242,315.3112 L284.1005,315.2294 L285.3987,312.7383 L285.6311,309.9777 L286.6737,307.422 L286.8819,304.6553 L287.7741,302.0615 L287.743,302.0553 L288.6135,299.6006 L288.7573,297.0014 L289.3298,294.4875 L289.9384,291.9807 L290.2873,289.4223 L290.4782,289.4487 L290.6225,286.986 L291.093,284.5684 L291.0358,282.0777 L291.7657,279.696 L291.9722,277.2419 L292.2254,277.2603 L292.3505,274.8822 L292.6013,272.5132 L292.2682,270.1017 L292.3631,267.7214 L292.8372,265.3687 L292.5495,265.3674 L292.8206,263.025 L292.7676,260.6812 L293.1847,258.3395 L292.7991,255.9942 L292.8906,253.651 L292.7321,253.6409 L292.8461,251.315 L292.2826,248.9458 L292.2009,246.6074 L292.5906,244.2992 L292.1408,241.9373 L292.3408,241.9633 L292.1691,239.6089 L291.3752,237.1735 L291.3605,234.8395 L291.1761,232.4834 L290.5961,230.0758 L290.3813,230.0346 L290.0863,227.6353 L289.7209,225.2224 L289.4937,222.8361 L288.7293,220.3467 L288.2649,217.9149 L288.4728,217.9662 L287.3941,215.3312 L286.7168,212.7951 L286.6257,210.4036 L285.4552,207.746 L285.1556,205.3031 L285.3817,205.3694 L284.4716,202.6871 L283.4849,199.9823 L282.671,197.3282 L282.2561,194.7912 L281.2765,192.0885 L281.145,192.0448 L280.6084,189.3811 L279.1774,186.4203 L278.7635,183.7973 L277.7769,180.9841 L276.636,178.1197 L276.7426,178.1583 L275.5778,175.1522 L274.7948,172.2844 L273.6669,169.2916 L272.3948,166.2465 L271.2424,163.2449 L271.3583,163.2895 L269.9585,160.0367 L269.0966,156.9912 L267.6264,153.7112 L266.4064,150.5277 L265.1042,147.3125 L264.8451,147.2019 L263.8417,144.686 L263.1503,142.3033 L262.0174,139.7321 L260.7262,137.0933 L259.6546,134.5482 L259.5306,134.4653 L258.0117,132.1624 L256.2732,129.7127 L255.1381,127.6667 L253.7045,125.421 L251.8612,122.9011 " fill="none" style="stroke:#333333;stroke-width:3.125;stroke-dasharray:7.0,7.0;"/><path d="M258.7348,390.0859 L258.7886,390.1669 L257.2405,389.0037 L256.0081,388.3155 L254.6729,387.4726 L252.9995,386.121 L251.7942,385.4736 " fill="none" style="stroke:#333333;stroke-width:3.125;"/><path d="M260.4644,387.4832 L260.5182,387.5642 L258.9701,386.401 L257.7377,385.7128 L256.4025,384.8699 L254.7292,383.5183 L253.5239,382.8709 " fill="none" style="stroke:#333333;stroke-width:3.125;"/><path d="M257.5707,384.3095 L257.6517,384.3633 L256.4884,385.5914 L255.8003,387.1352 L254.9574,388.5762 L253.6057,389.6791 L252.9583,391.25 " fill="none" style="stroke:#333333;stroke-width:3.125;"/><path d="M246.0113,122.1937 L246.0713,122.2703 L247.2044,121.0143 L248.6895,120.2071 L250.0599,119.2538 L251.0534,117.8198 L252.5687,117.0512 " fill="none" style="stroke:#333333;stroke-width:3.125;"/><path d="M247.9397,124.6527 L247.9998,124.7293 L249.1328,123.4733 L250.6179,122.6661 L251.9883,121.7128 L252.9818,120.2788 L254.4971,119.5102 " fill="none" style="stroke:#333333;stroke-width:3.125;"/><path d="M251.8612,122.9011 L251.9378,122.9612 L250.6818,121.4713 L249.8747,120.3334 L248.9213,119.0809 L247.4874,117.4514 L246.7188,116.3437 " fill="none" style="stroke:#333333;stroke-width:3.125;"/><text fill="#2E2E2E" font-family="Segoe Print" font-size="12.5" lengthAdjust="spacing" textLength="125" x="298.4375" y="258.6028">Identity Verification</text></g><!--SRC=[RO_1JWCn34Jl-GgJ4mZH3-YjMZZi3QqezoWngjKbKMDlfSBoxpWaRHUfjybundwvanr-8l0UnUzEJscIaI8QZ49o0liI0smPiuLl0_1OPFzSL9Snb90RsVoOIxuRIMLBrqVD3nWeevVjq2_pVMZgDQSZXSkXyxEMtQIKclDEi23SFnINc2VSw2Xb-d92ANOfu6BsblOOkHf7DrBG-f-dbZ8iFZVFgzKyGmM6DTYDzyWC0nucPB6cJLhk5dOfNJ4L1fok_uTdpQtYUUULPhquy8wPFjf6-mi0]--></g></svg>