<?xml version="1.0" encoding="us-ascii" standalone="no"?><svg xmlns="http://www.w3.org/2000/svg" xmlns:xlink="http://www.w3.org/1999/xlink" contentStyleType="text/css" height="994.7917px" preserveAspectRatio="none" style="width:521px;height:994px;" version="1.1" viewBox="0 0 521 994" width="521.875px" zoomAndPan="magnify"><defs/><g><path d="M48.9583,99.0967 L49.2503,99.0967 L48.3829,109.4627 L49.2268,119.8288 L49.5134,130.1948 L47.9675,140.5608 L48.8504,150.9269 L48.366,161.2929 L48.4257,171.659 L48.8637,182.025 L47.9981,192.3911 L49.7273,202.7571 L48.0829,213.1231 L48.6837,223.4892 L49.5583,233.8552 L48.8392,244.2213 L49.0531,254.5873 L48.914,264.9533 L49.2063,275.3194 L49.2905,285.6854 L49.7718,296.0515 L49.8904,306.4175 L49.9017,316.7836 L49.312,327.1496 L49.6022,337.5156 L49.9337,347.8817 L47.9567,358.2477 L49.9007,368.6138 L48.5465,378.9798 L49.6997,389.3459 L48.2708,399.7119 L48.8632,410.0779 L49.9883,420.444 L48.8906,430.81 L49.1046,441.1761 L49.4286,451.5421 L49.5364,461.9081 L48.9529,472.2742 L49.3572,482.6402 L48.1633,493.0063 L49.3533,503.3723 L49.7197,513.7384 L49.5757,524.1044 L49.8098,534.4704 L48.2874,544.8365 L48.0525,555.2025 L48.0953,565.5686 L48.8766,575.9346 L48.6854,586.3006 L49.9047,596.6667 L48.7157,607.0327 L48.4819,617.3988 L49.2754,627.7648 L48.0322,638.1309 L48.2373,648.4969 L49.8597,658.8629 L49.5634,669.229 L49.9785,679.595 L48.5114,689.9611 L49.4017,700.3271 L49.7784,710.6931 L48.3022,721.0592 L48.8252,731.4252 L49.1333,741.7913 L49.8636,752.1573 L48.9525,762.5234 L49.6008,772.8894 L48.1892,783.2554 L48.0177,793.6215 L49.6578,803.9875 L47.9626,814.3536 L49.6652,824.7196 L49.2453,835.0857 L48.5862,845.4517 L48.467,855.8177 L49.5955,866.1838 L48.5426,876.5498 L49.7804,886.9159 L48.9583,897.2819 " fill="none" style="stroke:#555555;stroke-width:1.0416666666666667;stroke-dasharray:5.0,5.0;"/><path d="M201.0417,99.0967 L201.3336,99.0967 L200.4662,109.4627 L201.3101,119.8288 L201.5968,130.1948 L200.0508,140.5608 L200.9337,150.9269 L200.4493,161.2929 L200.509,171.659 L200.947,182.025 L200.0814,192.3911 L201.8106,202.7571 L200.1663,213.1231 L200.767,223.4892 L201.6416,233.8552 L200.9225,244.2213 L201.1364,254.5873 L200.9973,264.9533 L201.2896,275.3194 L201.3738,285.6854 L201.8551,296.0515 L201.9737,306.4175 L201.9851,316.7836 L201.3953,327.1496 L201.6855,337.5156 L202.017,347.8817 L200.04,358.2477 L201.984,368.6138 L200.6299,378.9798 L201.7831,389.3459 L200.3541,399.7119 L200.9465,410.0779 L202.0717,420.444 L200.974,430.81 L201.1879,441.1761 L201.512,451.5421 L201.6198,461.9081 L201.0362,472.2742 L201.4406,482.6402 L200.2466,493.0063 L201.4366,503.3723 L201.803,513.7384 L201.6591,524.1044 L201.8931,534.4704 L200.3707,544.8365 L200.1359,555.2025 L200.1786,565.5686 L200.9599,575.9346 L200.7687,586.3006 L201.9881,596.6667 L200.7991,607.0327 L200.5652,617.3988 L201.3587,627.7648 L200.1155,638.1309 L200.3207,648.4969 L201.943,658.8629 L201.6468,669.229 L202.0618,679.595 L200.5947,689.9611 L201.485,700.3271 L201.8617,710.6931 L200.3855,721.0592 L200.9085,731.4252 L201.2166,741.7913 L201.9469,752.1573 L201.0358,762.5234 L201.6841,772.8894 L200.2725,783.2554 L200.101,793.6215 L201.7411,803.9875 L200.0459,814.3536 L201.7486,824.7196 L201.3287,835.0857 L200.6696,845.4517 L200.5503,855.8177 L201.6788,866.1838 L200.6259,876.5498 L201.8637,886.9159 L201.0417,897.2819 " fill="none" style="stroke:#555555;stroke-width:1.0416666666666667;stroke-dasharray:5.0,5.0;"/><path d="M440.625,99.0967 L440.9169,99.0967 L440.0496,109.4627 L440.8935,119.8288 L441.1801,130.1948 L439.6342,140.5608 L440.5171,150.9269 L440.0326,161.2929 L440.0924,171.659 L440.5303,182.025 L439.6648,192.3911 L441.3939,202.7571 L439.7496,213.1231 L440.3503,223.4892 L441.2249,233.8552 L440.5059,244.2213 L440.7198,254.5873 L440.5806,264.9533 L440.873,275.3194 L440.9571,285.6854 L441.4385,296.0515 L441.557,306.4175 L441.5684,316.7836 L440.9786,327.1496 L441.2689,337.5156 L441.6003,347.8817 L439.6234,358.2477 L441.5674,368.6138 L440.2132,378.9798 L441.3664,389.3459 L439.9375,399.7119 L440.5299,410.0779 L441.655,420.444 L440.5573,430.81 L440.7713,441.1761 L441.0953,451.5421 L441.2031,461.9081 L440.6196,472.2742 L441.0239,482.6402 L439.83,493.0063 L441.02,503.3723 L441.3864,513.7384 L441.2424,524.1044 L441.4764,534.4704 L439.9541,544.8365 L439.7192,555.2025 L439.7619,565.5686 L440.5432,575.9346 L440.352,586.3006 L441.5714,596.6667 L440.3824,607.0327 L440.1485,617.3988 L440.942,627.7648 L439.6988,638.1309 L439.904,648.4969 L441.5263,658.8629 L441.2301,669.229 L441.6451,679.595 L440.1781,689.9611 L441.0683,700.3271 L441.445,710.6931 L439.9689,721.0592 L440.4919,731.4252 L440.8,741.7913 L441.5302,752.1573 L440.6192,762.5234 L441.2675,772.8894 L439.8559,783.2554 L439.6844,793.6215 L441.3245,803.9875 L439.6292,814.3536 L441.3319,824.7196 L440.912,835.0857 L440.2529,845.4517 L440.1336,855.8177 L441.2622,866.1838 L440.2093,876.5498 L441.447,886.9159 L440.625,897.2819 " fill="none" style="stroke:#555555;stroke-width:1.0416666666666667;stroke-dasharray:5.0,5.0;"/><text fill="#2E2E2E" font-family="Segoe Print" font-size="12.5" lengthAdjust="spacing" textLength="50" x="20.8333" y="91.2516">EndUser</text><polygon fill="none" points="57.3377,21.8187,56.1162,23.4877,54.6714,25.9324,52.605,27.5798,50.4336,28.4808,48.7023,28.559,46.477,27.4322,44.3774,26.6962,42.7837,25.2017,41.9478,23.4907,41.452,22.1284,40.9663,20.349,40.178,18.8178,40.7838,17.3227,41.3145,15.685,43.3063,14.3898,44.7075,12.7092,46.442,12.1511,48.5039,11.6705,51.148,11.956,52.5963,12.639,54.2801,12.9486,56.3274,15.0462,57.0411,17.2606,57.3512,18.7715,57,21.2613" style="stroke:#333333;stroke-width:1.0416666666666667;"/><path d="M48.9583,28.125 L49.1529,28.125 L48.5747,33.75 L49.1373,39.375 L49.3284,45 L48.2978,50.625 L48.9583,56.25 M35.4167,36.4583 L35.4167,36.3864 L40.8333,36.0634 L46.25,36.1032 L51.6667,36.3952 L57.0833,35.8182 L62.5,36.4583 M48.9583,56.25 L49.3457,56.5857 L45.809,58.9928 L43.4033,62.3801 L41.1356,65.8869 L38.065,68.698 L35.4167,71.875 M48.9583,56.25 L49.0061,56.2914 L51.6443,59.3556 L54.4999,62.6083 L57.2507,65.77 L60.2015,69.1052 L62.5,71.875 " fill="none" style="stroke:#333333;stroke-width:1.0416666666666667;"/><text fill="#2E2E2E" font-family="Segoe Print" font-size="12.5" lengthAdjust="spacing" textLength="50" x="20.8333" y="913.5335">EndUser</text><polygon fill="none" points="57.3377,932.7806,56.1162,934.4496,54.6714,936.8943,52.605,938.5418,50.4336,939.4427,48.7023,939.5209,46.477,938.3941,44.3774,937.6581,42.7837,936.1636,41.9478,934.4527,41.452,933.0903,40.9663,931.3109,40.178,929.7797,40.7838,928.2846,41.3145,926.6469,43.3063,925.3517,44.7075,923.6711,46.442,923.113,48.5039,922.6324,51.148,922.9179,52.5963,923.601,54.2801,923.9105,56.3274,926.0081,57.0411,928.2225,57.3512,929.7334,57,932.2232" style="stroke:#333333;stroke-width:1.0416666666666667;"/><path d="M48.9583,939.0869 L49.1529,939.0869 L48.5747,944.7119 L49.1373,950.3369 L49.3284,955.9619 L48.2978,961.5869 L48.9583,967.2119 M35.4167,947.4202 L35.4167,947.3483 L40.8333,947.0253 L46.25,947.0652 L51.6667,947.3571 L57.0833,946.7801 L62.5,947.4202 M48.9583,967.2119 L49.3457,967.5477 L45.809,969.9547 L43.4033,973.342 L41.1356,976.8489 L38.065,979.6599 L35.4167,982.8369 M48.9583,967.2119 L49.0061,967.2533 L51.6443,970.3175 L54.4999,973.5702 L57.2507,976.7319 L60.2015,980.0671 L62.5,982.8369 " fill="none" style="stroke:#333333;stroke-width:1.0416666666666667;"/><polygon fill="none" points="176.0417,58.3333,176.0417,58.5523,186.0417,57.9017,196.0417,58.5347,206.0417,58.7497,216.0417,57.5902,226.0417,58.3333,226.0313,58.3084,226.5743,58.4406,227.1692,58.6985,227.8004,59.0437,228.3068,59.0879,228.9879,59.5537,229.1655,59.6273,229.0298,60.0592,229.4127,60.706,229.8587,61.3789,229.9367,61.8993,230.2083,62.5,230.232,62.5,230.1972,68.7777,230.2703,75.0553,230.2914,81.333,230.4117,87.6107,230.2083,93.8883,230.4236,93.9775,230.1822,94.5679,229.8019,95.1007,229.6248,95.7177,229.4573,96.3387,228.9879,96.8346,228.8921,96.6033,228.4888,97.2964,227.77,97.2277,227.2911,97.7381,226.5651,97.6521,226.0417,98.055,226.0417,97.9837,216.0417,98.8275,206.0417,98.0042,196.0417,98.1647,186.0417,98.4078,176.0417,98.055,176.097,98.1885,175.4519,97.8097,174.9013,97.659,174.1978,97.1392,173.7224,97.1699,173.0954,96.8346,173.2712,96.9075,172.9939,96.3044,172.8039,95.7376,172.2082,95.0027,171.9099,94.3909,171.875,93.8883,171.6592,93.8883,171.8546,87.6107,171.8068,81.333,172.1116,75.0553,171.8143,68.7777,171.875,62.5,171.765,62.4544,172.1923,61.9411,172.1492,61.2329,172.4407,60.6633,173.0595,60.2292,173.0954,59.5537,173.1533,59.6935,173.7822,59.5453,174.2311,58.9623,174.9056,58.9239,175.5309,58.7668,176.0417,58.3333" style="stroke:#333333;stroke-width:1.0416666666666667;"/><text fill="#2E2E2E" font-family="Segoe Print" font-size="12.5" lengthAdjust="spacing" textLength="33.3333" x="184.375" y="82.9183">Client</text><polygon fill="none" points="176.0417,896.2402,176.0417,896.4592,186.0417,895.8087,196.0417,896.4416,206.0417,896.6566,216.0417,895.4971,226.0417,896.2402,226.0313,896.2153,226.5743,896.3475,227.1692,896.6054,227.8004,896.9506,228.3068,896.9948,228.9879,897.4606,229.1655,897.5342,229.0298,897.9661,229.4127,898.6129,229.8587,899.2858,229.9367,899.8062,230.2083,900.4069,230.232,900.4069,230.1972,906.6846,230.2703,912.9622,230.2914,919.2399,230.4117,925.5176,230.2083,931.7952,230.4236,931.8844,230.1822,932.4748,229.8019,933.0076,229.6248,933.6246,229.4573,934.2456,228.9879,934.7415,228.8921,934.5102,228.4888,935.2033,227.77,935.1346,227.2911,935.645,226.5651,935.559,226.0417,935.9619,226.0417,935.8906,216.0417,936.7344,206.0417,935.9111,196.0417,936.0716,186.0417,936.3147,176.0417,935.9619,176.097,936.0954,175.4519,935.7166,174.9013,935.5659,174.1978,935.0461,173.7224,935.0768,173.0954,934.7415,173.2712,934.8144,172.9939,934.2113,172.8039,933.6445,172.2082,932.9096,171.9099,932.2978,171.875,931.7952,171.6592,931.7952,171.8546,925.5176,171.8068,919.2399,172.1116,912.9622,171.8143,906.6846,171.875,900.4069,171.765,900.3613,172.1923,899.848,172.1492,899.1398,172.4407,898.5702,173.0595,898.1361,173.0954,897.4606,173.1533,897.6004,173.7822,897.4522,174.2311,896.8692,174.9056,896.8308,175.5309,896.6737,176.0417,896.2402" style="stroke:#333333;stroke-width:1.0416666666666667;"/><text fill="#2E2E2E" font-family="Segoe Print" font-size="12.5" lengthAdjust="spacing" textLength="33.3333" x="184.375" y="920.8252">Client</text><polygon fill="none" points="422.9167,58.3333,422.9167,58.4063,430,58.1895,437.0833,58.4004,444.1667,58.4721,451.25,58.0856,458.3333,58.3333,458.323,58.3084,458.8659,58.4406,459.4609,58.6985,460.092,59.0437,460.5985,59.0879,461.2796,59.5537,461.4572,59.6273,461.3215,60.0592,461.7043,60.706,462.1504,61.3789,462.2284,61.8993,462.5,62.5,462.5237,62.5,462.4889,68.7777,462.562,75.0553,462.583,81.333,462.7034,87.6107,462.5,93.8883,462.7153,93.9775,462.4738,94.5679,462.0935,95.1007,461.9165,95.7177,461.749,96.3387,461.2796,96.8346,461.1838,96.6033,460.7805,97.2964,460.0617,97.2277,459.5828,97.7381,458.8568,97.6521,458.3333,98.055,458.3333,98.0312,451.25,98.3125,444.1667,98.0381,437.0833,98.0916,430,98.1726,422.9167,98.055,422.972,98.1885,422.3269,97.8097,421.7763,97.659,421.0728,97.1392,420.5974,97.1699,419.9704,96.8346,420.1462,96.9075,419.8689,96.3044,419.6789,95.7376,419.0832,95.0027,418.7849,94.3909,418.75,93.8883,418.5342,93.8883,418.7296,87.6107,418.6818,81.333,418.9866,75.0553,418.6893,68.7777,418.75,62.5,418.64,62.4544,419.0673,61.9411,419.0242,61.2329,419.3157,60.6633,419.9345,60.2292,419.9704,59.5537,420.0283,59.6935,420.6572,59.5453,421.1061,58.9623,421.7806,58.9239,422.4059,58.7668,422.9167,58.3333" style="stroke:#333333;stroke-width:1.0416666666666667;"/><text fill="#2E2E2E" font-family="Segoe Print" font-size="12.5" lengthAdjust="spacing" textLength="18.75" x="431.25" y="82.9183">IdP</text><polygon fill="none" points="422.9167,896.2402,422.9167,896.3132,430,896.0964,437.0833,896.3073,444.1667,896.379,451.25,895.9925,458.3333,896.2402,458.323,896.2153,458.8659,896.3475,459.4609,896.6054,460.092,896.9506,460.5985,896.9948,461.2796,897.4606,461.4572,897.5342,461.3215,897.9661,461.7043,898.6129,462.1504,899.2858,462.2284,899.8062,462.5,900.4069,462.5237,900.4069,462.4889,906.6846,462.562,912.9622,462.583,919.2399,462.7034,925.5176,462.5,931.7952,462.7153,931.8844,462.4738,932.4748,462.0935,933.0076,461.9165,933.6246,461.749,934.2456,461.2796,934.7415,461.1838,934.5102,460.7805,935.2033,460.0617,935.1346,459.5828,935.645,458.8568,935.559,458.3333,935.9619,458.3333,935.9381,451.25,936.2194,444.1667,935.945,437.0833,935.9985,430,936.0795,422.9167,935.9619,422.972,936.0954,422.3269,935.7166,421.7763,935.5659,421.0728,935.0461,420.5974,935.0768,419.9704,934.7415,420.1462,934.8144,419.8689,934.2113,419.6789,933.6445,419.0832,932.9096,418.7849,932.2978,418.75,931.7952,418.5342,931.7952,418.7296,925.5176,418.6818,919.2399,418.9866,912.9622,418.6893,906.6846,418.75,900.4069,418.64,900.3613,419.0673,899.848,419.0242,899.1398,419.3157,898.5702,419.9345,898.1361,419.9704,897.4606,420.0283,897.6004,420.6572,897.4522,421.1061,896.8692,421.7806,896.8308,422.4059,896.6737,422.9167,896.2402" style="stroke:#333333;stroke-width:1.0416666666666667;"/><text fill="#2E2E2E" font-family="Segoe Print" font-size="12.5" lengthAdjust="spacing" textLength="18.75" x="431.25" y="920.8252">IdP</text><polygon fill="#555555" points="14.5833,135.6242,14.5833,135.8431,25.0222,135.1926,35.461,135.8255,45.8998,136.0405,56.3387,134.8811,66.7775,135.5432,77.2163,135.1799,87.6551,135.2247,98.094,135.5532,108.5328,134.904,118.9716,136.2009,129.4105,134.9676,139.8493,135.4182,150.2881,136.0741,160.727,135.5348,171.1658,135.6953,181.6046,135.5909,192.0434,135.8102,202.4823,135.8733,212.9211,136.2343,223.3599,136.3232,233.7988,136.3317,244.2376,135.8894,254.6764,136.1071,265.1152,136.3557,275.5541,134.873,285.9929,136.331,296.4317,135.3153,306.8706,136.1802,317.3094,135.1085,327.7482,135.5528,338.1871,136.3967,348.6259,135.5734,359.0647,135.7339,369.5035,135.9769,379.9424,136.0578,390.3812,135.6201,400.82,135.9234,411.2589,135.0279,421.6977,135.9204,432.1365,136.1952,442.5754,136.0872,453.0142,136.2628,463.453,135.121,473.8918,134.9448,484.3307,134.9769,494.7695,135.5629,505.2083,135.6242,505.1979,135.5568,505.8339,135.9495,506.3775,135.7473,506.9578,135.7811,507.5775,136.0686,508.1546,136.0818,507.9992,135.9102,508.2777,136.1692,508.794,136.6908,508.9884,136.8569,509.3021,137.1548,509.375,137.1867,509.3,137.1039,509.2053,137.4898,509.0244,137.7806,508.5327,137.728,508.3764,138.0459,508.1546,138.2915,508.1613,138.3348,507.6001,138.6067,506.9759,138.4732,506.4115,138.7248,505.7681,138.4676,505.2083,138.7492,505.2083,138.0437,494.7695,139.2738,484.3307,138.0024,473.8918,139.2794,463.453,138.9644,453.0142,138.4701,442.5754,138.3807,432.1365,139.2271,421.6977,138.4374,411.2589,139.3657,400.82,138.1734,390.3812,139.3923,379.9424,139.2537,369.5035,139.0044,359.0647,138.7984,348.6259,139.5061,338.1871,139.3883,327.7482,138.9255,317.3094,139.0285,306.8706,138.6135,296.4317,139.4955,285.9929,138.9105,275.5541,138.929,265.1152,138.1155,254.6764,138.3271,244.2376,139.302,233.7988,139.1969,223.3599,138.7045,212.9211,138.4136,202.4823,138.5211,192.0434,138.0344,181.6046,139.1812,171.1658,139.5196,160.727,139.2975,150.2881,139.4731,139.8493,138.6068,129.4105,138.84,118.9716,138.3454,108.5328,139.0451,98.094,139.0062,87.6551,139.3246,77.2163,138.51,66.7775,138.6092,56.3387,139.2111,45.8998,139.3402,35.461,138.2153,25.0222,138.5472,14.5833,138.7492,14.5913,138.8004,13.9615,138.4481,13.4237,138.6874,12.8293,138.5631,12.2209,138.3485,11.6371,138.2915,11.6702,138.3282,11.5628,138.2581,11.076,137.7691,10.9782,137.7097,10.7273,137.4812,10.4167,137.1867,10.4436,137.2165,10.6936,137.002,10.9313,136.774,11.0034,136.3631,11.2996,136.1996,11.6371,136.0818,11.6125,135.9235,12.2297,136.0122,12.8203,135.929,13.4134,135.8627,13.9786,135.6159,14.5833,135.6242" style="stroke:#555555;stroke-width:1.0416666666666667;"/><path d="M10.4167,135.6242 L10.4167,135.9161 L20.8116,135.0487 L31.2066,135.8926 L41.6016,136.1793 L51.9965,134.6334 L62.3915,135.5163 L72.7865,135.0318 L83.1814,135.0915 L93.5764,135.5295 L103.9714,134.664 L114.3663,136.3931 L124.7613,134.7488 L135.1563,135.3495 L145.5512,136.2241 L155.9462,135.5051 L166.3411,135.719 L176.7361,135.5798 L187.1311,135.8721 L197.526,135.9563 L207.921,136.4376 L218.316,136.5562 L228.7109,136.5676 L239.1059,135.9778 L249.5009,136.2681 L259.8958,136.5995 L270.2908,134.6225 L280.6858,136.5666 L291.0807,135.2124 L301.4757,136.3656 L311.8707,134.9367 L322.2656,135.529 L332.6606,136.6542 L343.0556,135.5565 L353.4505,135.7704 L363.8455,136.0945 L374.2405,136.2023 L384.6354,135.6188 L395.0304,136.0231 L405.4253,134.8292 L415.8203,136.0192 L426.2153,136.3856 L436.6102,136.2416 L447.0052,136.4756 L457.4002,134.9532 L467.7951,134.7184 L478.1901,134.7611 L488.5851,135.5424 L498.98,135.3512 L509.375,135.6242 " fill="#555555" style="stroke:#555555;stroke-width:1.0416666666666667;"/><path d="M10.4167,138.7492 L10.4167,139.0411 L20.8116,138.1737 L31.2066,139.0176 L41.6016,139.3043 L51.9965,137.7584 L62.3915,138.6413 L72.7865,138.1568 L83.1814,138.2165 L93.5764,138.6545 L103.9714,137.789 L114.3663,139.5181 L124.7613,137.8738 L135.1563,138.4745 L145.5512,139.3491 L155.9462,138.6301 L166.3411,138.844 L176.7361,138.7048 L187.1311,138.9971 L197.526,139.0813 L207.921,139.5626 L218.316,139.6812 L228.7109,139.6926 L239.1059,139.1028 L249.5009,139.3931 L259.8958,139.7245 L270.2908,137.7475 L280.6858,139.6916 L291.0807,138.3374 L301.4757,139.4906 L311.8707,138.0617 L322.2656,138.654 L332.6606,139.7792 L343.0556,138.6815 L353.4505,138.8954 L363.8455,139.2195 L374.2405,139.3273 L384.6354,138.7438 L395.0304,139.1481 L405.4253,137.9542 L415.8203,139.1442 L426.2153,139.5106 L436.6102,139.3666 L447.0052,139.6006 L457.4002,138.0782 L467.7951,137.8434 L478.1901,137.8861 L488.5851,138.6674 L498.98,138.4762 L509.375,138.7492 " fill="#555555" style="stroke:#555555;stroke-width:1.0416666666666667;"/><polygon fill="#555555" points="159.8958,119.93,159.8958,120.149,170.4221,119.4984,180.9485,120.1314,191.4748,120.3463,202.0011,119.1869,212.5274,119.8491,223.0537,119.4857,233.58,119.5305,244.1064,119.859,254.6327,119.2098,265.159,120.5067,275.6853,119.2735,286.2116,119.724,296.7379,120.38,307.2643,119.8407,317.7906,120.0011,328.3169,119.8967,338.8432,120.116,349.3695,120.1791,359.8958,119.93,359.9737,120.1179,360.5743,120.3894,361.1646,120.6361,361.6974,120.7439,362.3145,121.055,362.8421,121.1504,363.0674,121.2437,362.8548,121.6438,363.5479,122.4191,363.4792,122.8788,363.9897,123.5784,364.0625,124.0967,363.8906,124.0967,364.0387,129.1243,364.32,134.152,364.0456,139.1797,364.0991,144.2074,364.0625,149.235,364.1711,149.28,363.9519,149.8796,363.5731,150.413,363.4224,151.041,362.9026,151.516,362.8421,152.1813,362.8799,152.2725,362.3257,152.6012,361.7227,152.8121,361.1558,153.1102,360.4209,153.0026,359.8958,153.4017,359.8958,152.7223,349.3695,152.7544,338.8432,153.3404,328.3169,153.197,317.7906,154.1115,307.2643,153.2197,296.7379,153.0443,286.2116,153.6395,275.6853,152.7071,265.159,152.8609,254.6327,154.0777,244.1064,153.8555,233.58,154.1668,223.0537,153.0665,212.5274,153.7342,202.0011,154.0167,191.4748,152.9096,180.9485,153.3018,170.4221,153.5329,159.8958,153.4017,159.9824,153.6108,159.306,153.1563,158.7788,153.0619,158.0545,152.4918,157.4488,152.2081,156.9496,152.1813,157.1111,152.2482,156.4755,151.4968,156.6247,151.0704,156.2836,150.441,155.8873,149.7887,155.7292,149.235,155.6063,149.235,155.8885,144.2074,155.6252,139.1797,155.9347,134.152,155.5372,129.1243,155.7292,124.0967,155.9272,124.1787,156.1286,123.5718,156.2959,122.9507,156.4765,122.3352,156.9386,121.8362,156.9496,121.1504,157.0311,121.3472,157.5613,120.9606,158.1637,120.7483,158.7,120.3764,159.4018,120.4039,159.8958,119.93" style="stroke:#555555;stroke-width:2.0833333333333335;"/><text fill="#FFFFFF" font-family="Segoe Print" font-size="12.5" font-weight="bold" lengthAdjust="spacing" textLength="179.1667" x="167.1875" y="141.39">EndUser &#35831;&#27714;&#35775;&#38382; Client &#24212;&#29992;</text><polygon fill="#333333" points="188.5417,191.04,188.5688,191.1078,190.5716,191.7398,192.7333,192.769,194.8432,193.6689,196.783,194.1434,198.9583,195.2067,198.9483,195.1817,196.82,195.9025,194.7422,196.7497,192.6995,197.6847,190.5358,198.3172,188.5417,199.3734,188.6776,199.5093,189.2203,198.3853,190.1598,197.6581,191.1477,196.9794,191.8539,196.019,192.7083,195.2067,192.7251,195.2235,191.8672,194.3655,191.0855,193.5839,190.267,192.7654,189.5188,192.0172,188.5417,191.04" style="stroke:#333333;stroke-width:1.0416666666666667;"/><path d="M48.9583,195.2067 L48.9583,195.4986 L59.375,194.6313 L69.7917,195.4752 L80.2083,195.7618 L90.625,194.2159 L101.0417,195.0988 L111.4583,194.6144 L121.875,194.6741 L132.2917,195.112 L142.7083,194.2465 L153.125,195.9757 L163.5417,194.3313 L173.9583,194.932 L184.375,195.8066 L194.7917,195.2067 " fill="none" style="stroke:#333333;stroke-width:3.125;"/><text fill="#2E2E2E" font-family="Segoe Print" font-size="12.5" lengthAdjust="spacing" textLength="66.6667" x="91.6667" y="185.2783">1. &#35831;&#27714;&#35775;&#38382;</text><polygon fill="#555555" points="14.5833,229.6509,14.5833,229.8698,25.0222,229.2193,35.461,229.8522,45.8998,230.0672,56.3387,228.9078,66.7775,229.5699,77.2163,229.2066,87.6551,229.2514,98.094,229.5799,108.5328,228.9307,118.9716,230.2276,129.4105,228.9943,139.8493,229.4449,150.2881,230.1008,160.727,229.5615,171.1658,229.722,181.6046,229.6176,192.0434,229.8368,202.4823,229.9,212.9211,230.261,223.3599,230.3499,233.7988,230.3584,244.2376,229.9161,254.6764,230.1338,265.1152,230.3824,275.5541,228.8996,285.9929,230.3577,296.4317,229.342,306.8706,230.2069,317.3094,229.1352,327.7482,229.5795,338.1871,230.4234,348.6259,229.6001,359.0647,229.7606,369.5035,230.0036,379.9424,230.0845,390.3812,229.6468,400.82,229.9501,411.2589,229.0546,421.6977,229.9471,432.1365,230.2219,442.5754,230.1139,453.0142,230.2894,463.453,229.1477,473.8918,228.9715,484.3307,229.0036,494.7695,229.5895,505.2083,229.6509,505.1979,229.5834,505.8339,229.9762,506.3775,229.774,506.9578,229.8078,507.5775,230.0953,508.1546,230.1085,507.9992,229.9369,508.2777,230.1959,508.794,230.7175,508.9884,230.8836,509.3021,231.1815,509.375,231.2134,509.3,231.1305,509.2053,231.5165,509.0244,231.8073,508.5327,231.7547,508.3764,232.0726,508.1546,232.3182,508.1613,232.3615,507.6001,232.6334,506.9759,232.4999,506.4115,232.7515,505.7681,232.4943,505.2083,232.7759,505.2083,232.0704,494.7695,233.3005,484.3307,232.0291,473.8918,233.306,463.453,232.9911,453.0142,232.4968,442.5754,232.4074,432.1365,233.2538,421.6977,232.4641,411.2589,233.3924,400.82,232.2001,390.3812,233.419,379.9424,233.2804,369.5035,233.0311,359.0647,232.8251,348.6259,233.5328,338.1871,233.415,327.7482,232.9522,317.3094,233.0552,306.8706,232.6402,296.4317,233.5222,285.9929,232.9372,275.5541,232.9556,265.1152,232.1422,254.6764,232.3538,244.2376,233.3287,233.7988,233.2235,223.3599,232.7312,212.9211,232.4403,202.4823,232.5478,192.0434,232.0611,181.6046,233.2079,171.1658,233.5463,160.727,233.3242,150.2881,233.4998,139.8493,232.6335,129.4105,232.8667,118.9716,232.3721,108.5328,233.0718,98.094,233.0329,87.6551,233.3513,77.2163,232.5367,66.7775,232.6359,56.3387,233.2378,45.8998,233.3669,35.461,232.242,25.0222,232.5739,14.5833,232.7759,14.5913,232.8271,13.9615,232.4748,13.4237,232.7141,12.8293,232.5898,12.2209,232.3752,11.6371,232.3182,11.6702,232.3548,11.5628,232.2848,11.076,231.7958,10.9782,231.7364,10.7273,231.5079,10.4167,231.2134,10.4436,231.2432,10.6936,231.0287,10.9313,230.8006,11.0034,230.3898,11.2996,230.2263,11.6371,230.1085,11.6125,229.9502,12.2297,230.0389,12.8203,229.9557,13.4134,229.8894,13.9786,229.6426,14.5833,229.6509" style="stroke:#555555;stroke-width:1.0416666666666667;"/><path d="M10.4167,229.6509 L10.4167,229.9428 L20.8116,229.0754 L31.2066,229.9193 L41.6016,230.206 L51.9965,228.6601 L62.3915,229.5429 L72.7865,229.0585 L83.1814,229.1182 L93.5764,229.5562 L103.9714,228.6906 L114.3663,230.4198 L124.7613,228.7755 L135.1563,229.3762 L145.5512,230.2508 L155.9462,229.5317 L166.3411,229.7457 L176.7361,229.6065 L187.1311,229.8988 L197.526,229.983 L207.921,230.4643 L218.316,230.5829 L228.7109,230.5943 L239.1059,230.0045 L249.5009,230.2947 L259.8958,230.6262 L270.2908,228.6492 L280.6858,230.5933 L291.0807,229.2391 L301.4757,230.3923 L311.8707,228.9633 L322.2656,229.5557 L332.6606,230.6809 L343.0556,229.5832 L353.4505,229.7971 L363.8455,230.1212 L374.2405,230.229 L384.6354,229.6455 L395.0304,230.0498 L405.4253,228.8559 L415.8203,230.0459 L426.2153,230.4123 L436.6102,230.2683 L447.0052,230.5023 L457.4002,228.9799 L467.7951,228.7451 L478.1901,228.7878 L488.5851,229.5691 L498.98,229.3779 L509.375,229.6509 " fill="#555555" style="stroke:#555555;stroke-width:1.0416666666666667;"/><path d="M10.4167,232.7759 L10.4167,233.0678 L20.8116,232.2004 L31.2066,233.0443 L41.6016,233.331 L51.9965,231.7851 L62.3915,232.6679 L72.7865,232.1835 L83.1814,232.2432 L93.5764,232.6812 L103.9714,231.8156 L114.3663,233.5448 L124.7613,231.9005 L135.1563,232.5012 L145.5512,233.3758 L155.9462,232.6567 L166.3411,232.8707 L176.7361,232.7315 L187.1311,233.0238 L197.526,233.108 L207.921,233.5893 L218.316,233.7079 L228.7109,233.7193 L239.1059,233.1295 L249.5009,233.4197 L259.8958,233.7512 L270.2908,231.7742 L280.6858,233.7183 L291.0807,232.3641 L301.4757,233.5173 L311.8707,232.0883 L322.2656,232.6807 L332.6606,233.8059 L343.0556,232.7082 L353.4505,232.9221 L363.8455,233.2462 L374.2405,233.354 L384.6354,232.7705 L395.0304,233.1748 L405.4253,231.9809 L415.8203,233.1709 L426.2153,233.5373 L436.6102,233.3933 L447.0052,233.6273 L457.4002,232.1049 L467.7951,231.8701 L478.1901,231.9128 L488.5851,232.6941 L498.98,232.5029 L509.375,232.7759 " fill="#555555" style="stroke:#555555;stroke-width:1.0416666666666667;"/><polygon fill="#555555" points="164.0625,213.9567,164.0625,214.1756,174.7106,213.5251,185.3588,214.158,196.0069,214.373,206.6551,213.2136,217.3032,213.8758,227.9514,213.5124,238.5995,213.5572,249.2477,213.8857,259.8958,213.2365,270.544,214.5334,281.1921,213.3002,291.8403,213.7507,302.4884,214.4067,313.1366,213.8674,323.7847,214.0278,334.4329,213.9234,345.081,214.1427,355.7292,213.9567,355.7609,214.0334,356.3962,214.3887,356.9968,214.6601,357.5872,214.9068,358.12,215.0147,358.6754,215.1771,358.8242,215.2387,359.1448,215.8597,358.9323,216.2598,359.6253,217.035,359.5566,217.4947,359.8958,218.1234,360.0812,218.1234,359.724,223.151,359.872,228.1787,360.1533,233.2064,359.8789,238.234,359.8958,243.2617,359.9296,243.2757,359.7604,243.896,359.5412,244.4955,359.1623,245.029,359.0117,245.6569,358.6754,246.208,358.5994,246.0244,358.124,246.5433,357.5698,246.872,356.9667,247.0828,356.3999,247.381,355.7292,247.4284,355.7292,246.9252,345.081,246.749,334.4329,246.7811,323.7847,247.3671,313.1366,247.2237,302.4884,248.1382,291.8403,247.2464,281.1921,247.071,270.544,247.6662,259.8958,246.7338,249.2477,246.8876,238.5995,248.1044,227.9514,247.8822,217.3032,248.1935,206.6551,247.0932,196.0069,247.7609,185.3588,248.0434,174.7106,246.9363,164.0625,247.4284,164.0498,247.3976,163.49,247.2247,162.9706,247.1493,162.2942,246.6948,161.7669,246.6005,161.1162,246.208,160.9386,246.1344,160.6549,245.5288,160.7896,245.0964,160.154,244.345,160.3032,243.9186,159.8958,243.2617,159.9676,243.2617,159.8028,238.234,159.773,233.2064,160.0551,228.1787,159.7919,223.151,159.8958,218.1234,160.0857,218.202,159.9626,217.4607,160.5821,217.0269,160.7834,216.42,160.9507,215.7989,161.1162,215.1771,161.1225,215.1922,161.802,215.1661,162.3763,214.8858,162.9065,214.4992,163.5089,214.2868,164.0625,213.9567" style="stroke:#555555;stroke-width:2.0833333333333335;"/><text fill="#FFFFFF" font-family="Segoe Print" font-size="12.5" font-weight="bold" lengthAdjust="spacing" textLength="170.8333" x="171.3542" y="235.4167">Client &#37325;&#23450;&#21521;&#21040; IdP &#36827;&#34892;&#35748;&#35777;</text><polygon fill="#333333" points="428.125,285.0667,428.1521,285.1345,430.1549,285.7665,432.3166,286.7957,434.4265,287.6956,436.3663,288.1701,438.5417,289.2334,438.5316,289.2083,436.4033,289.9292,434.3255,290.7764,432.2829,291.7114,430.1192,292.3438,428.125,293.4001,428.2609,293.536,428.8036,292.412,429.7431,291.6848,430.7311,291.0061,431.4373,290.0457,432.2917,289.2334,432.3084,289.2502,431.4505,288.3922,430.6688,287.6106,429.8504,286.7921,429.1021,286.0439,428.125,285.0667" style="stroke:#333333;stroke-width:1.0416666666666667;"/><path d="M201.0417,289.2334 L201.0417,289.5253 L211.6477,288.658 L222.2538,289.5019 L232.8598,289.7885 L243.4659,288.2426 L254.072,289.1255 L264.678,288.641 L275.2841,288.7008 L285.8902,289.1387 L296.4962,288.2732 L307.1023,290.0023 L317.7083,288.358 L328.3144,288.9587 L338.9205,289.8333 L349.5265,289.1143 L360.1326,289.3282 L370.7386,289.189 L381.3447,289.4814 L391.9508,289.5655 L402.5568,290.0469 L413.1629,290.1654 L423.7689,290.1768 L434.375,289.2334 " fill="none" style="stroke:#333333;stroke-width:3.125;"/><text fill="#2E2E2E" font-family="Segoe Print" font-size="12.5" lengthAdjust="spacing" textLength="129.1667" x="256.25" y="279.305">2. &#37325;&#23450;&#21521;&#36827;&#34892;&#36523;&#20221;&#35748;&#35777;</text><polygon fill="#555555" points="14.5833,323.6776,14.5833,323.8965,25.0222,323.246,35.461,323.8789,45.8998,324.0939,56.3387,322.9345,66.7775,323.5966,77.2163,323.2333,87.6551,323.2781,98.094,323.6066,108.5328,322.9574,118.9716,324.2543,129.4105,323.021,139.8493,323.4716,150.2881,324.1275,160.727,323.5882,171.1658,323.7487,181.6046,323.6443,192.0434,323.8635,202.4823,323.9267,212.9211,324.2877,223.3599,324.3766,233.7988,324.3851,244.2376,323.9428,254.6764,324.1605,265.1152,324.4091,275.5541,322.9263,285.9929,324.3844,296.4317,323.3687,306.8706,324.2336,317.3094,323.1619,327.7482,323.6062,338.1871,324.4501,348.6259,323.6268,359.0647,323.7873,369.5035,324.0303,379.9424,324.1111,390.3812,323.6735,400.82,323.9768,411.2589,323.0813,421.6977,323.9738,432.1365,324.2486,442.5754,324.1406,453.0142,324.3161,463.453,323.1744,473.8918,322.9982,484.3307,323.0303,494.7695,323.6162,505.2083,323.6776,505.1979,323.6101,505.8339,324.0029,506.3775,323.8007,506.9578,323.8345,507.5775,324.122,508.1546,324.1352,507.9992,323.9636,508.2777,324.2226,508.794,324.7442,508.9884,324.9103,509.3021,325.2082,509.375,325.2401,509.3,325.1572,509.2053,325.5432,509.0244,325.834,508.5327,325.7814,508.3764,326.0993,508.1546,326.3449,508.1613,326.3882,507.6001,326.6601,506.9759,326.5265,506.4115,326.7782,505.7681,326.521,505.2083,326.8026,505.2083,326.0971,494.7695,327.3272,484.3307,326.0558,473.8918,327.3327,463.453,327.0178,453.0142,326.5235,442.5754,326.4341,432.1365,327.2804,421.6977,326.4908,411.2589,327.4191,400.82,326.2268,390.3812,327.4457,379.9424,327.3071,369.5035,327.0577,359.0647,326.8518,348.6259,327.5595,338.1871,327.4417,327.7482,326.9789,317.3094,327.0819,306.8706,326.6669,296.4317,327.5489,285.9929,326.9639,275.5541,326.9823,265.1152,326.1689,254.6764,326.3805,244.2376,327.3554,233.7988,327.2502,223.3599,326.7579,212.9211,326.467,202.4823,326.5745,192.0434,326.0878,181.6046,327.2346,171.1658,327.573,160.727,327.3509,150.2881,327.5265,139.8493,326.6601,129.4105,326.8934,118.9716,326.3988,108.5328,327.0984,98.094,327.0596,87.6551,327.378,77.2163,326.5633,66.7775,326.6626,56.3387,327.2645,45.8998,327.3935,35.461,326.2687,25.0222,326.6006,14.5833,326.8026,14.5913,326.8538,13.9615,326.5015,13.4237,326.7408,12.8293,326.6165,12.2209,326.4019,11.6371,326.3449,11.6702,326.3815,11.5628,326.3115,11.076,325.8224,10.9782,325.7631,10.7273,325.5346,10.4167,325.2401,10.4436,325.2699,10.6936,325.0554,10.9313,324.8273,11.0034,324.4165,11.2996,324.253,11.6371,324.1352,11.6125,323.9769,12.2297,324.0656,12.8203,323.9824,13.4134,323.9161,13.9786,323.6693,14.5833,323.6776" style="stroke:#555555;stroke-width:1.0416666666666667;"/><path d="M10.4167,323.6776 L10.4167,323.9695 L20.8116,323.1021 L31.2066,323.946 L41.6016,324.2327 L51.9965,322.6867 L62.3915,323.5696 L72.7865,323.0852 L83.1814,323.1449 L93.5764,323.5829 L103.9714,322.7173 L114.3663,324.4465 L124.7613,322.8022 L135.1563,323.4029 L145.5512,324.2775 L155.9462,323.5584 L166.3411,323.7723 L176.7361,323.6332 L187.1311,323.9255 L197.526,324.0097 L207.921,324.491 L218.316,324.6096 L228.7109,324.621 L239.1059,324.0312 L249.5009,324.3214 L259.8958,324.6529 L270.2908,322.6759 L280.6858,324.6199 L291.0807,323.2658 L301.4757,324.419 L311.8707,322.99 L322.2656,323.5824 L332.6606,324.7076 L343.0556,323.6099 L353.4505,323.8238 L363.8455,324.1479 L374.2405,324.2557 L384.6354,323.6721 L395.0304,324.0765 L405.4253,322.8825 L415.8203,324.0726 L426.2153,324.439 L436.6102,324.295 L447.0052,324.529 L457.4002,323.0066 L467.7951,322.7718 L478.1901,322.8145 L488.5851,323.5958 L498.98,323.4046 L509.375,323.6776 " fill="#555555" style="stroke:#555555;stroke-width:1.0416666666666667;"/><path d="M10.4167,326.8026 L10.4167,327.0945 L20.8116,326.2271 L31.2066,327.071 L41.6016,327.3577 L51.9965,325.8117 L62.3915,326.6946 L72.7865,326.2102 L83.1814,326.2699 L93.5764,326.7079 L103.9714,325.8423 L114.3663,327.5715 L124.7613,325.9272 L135.1563,326.5279 L145.5512,327.4025 L155.9462,326.6834 L166.3411,326.8973 L176.7361,326.7582 L187.1311,327.0505 L197.526,327.1347 L207.921,327.616 L218.316,327.7346 L228.7109,327.746 L239.1059,327.1562 L249.5009,327.4464 L259.8958,327.7779 L270.2908,325.8009 L280.6858,327.7449 L291.0807,326.3908 L301.4757,327.544 L311.8707,326.115 L322.2656,326.7074 L332.6606,327.8326 L343.0556,326.7349 L353.4505,326.9488 L363.8455,327.2729 L374.2405,327.3807 L384.6354,326.7971 L395.0304,327.2015 L405.4253,326.0075 L415.8203,327.1976 L426.2153,327.564 L436.6102,327.42 L447.0052,327.654 L457.4002,326.1316 L467.7951,325.8968 L478.1901,325.9395 L488.5851,326.7208 L498.98,326.5296 L509.375,326.8026 " fill="#555555" style="stroke:#555555;stroke-width:1.0416666666666667;"/><polygon fill="#555555" points="196.3542,307.9834,196.3542,308.2023,206.9444,307.5518,217.5347,308.1847,228.125,308.3997,238.7153,307.2403,249.3056,307.9024,259.8958,307.5391,270.4861,307.5839,281.0764,307.9124,291.6667,307.2632,302.2569,308.5601,312.8472,307.3269,323.4375,307.9834,323.4112,307.92,324.0842,308.366,324.6046,308.444,325.2143,308.7375,325.7903,308.9495,326.3838,309.2038,326.441,309.2275,326.7046,309.8248,327.0598,310.4601,327.3313,311.0607,327.578,311.6511,327.6042,312.1501,327.6926,312.1501,327.7651,317.1777,327.848,322.2054,327.3538,327.2331,327.8398,332.2607,327.6042,337.2884,327.5091,337.249,327.5313,337.9486,326.9572,338.4011,326.85,339.0471,326.8658,339.744,326.3838,340.2347,326.3773,340.2191,325.8085,340.5125,325.2503,340.8315,324.6713,341.1004,324.0262,341.2097,323.4375,341.4551,323.4375,341.7543,312.8472,340.8588,302.2569,341.7513,291.6667,342.0261,281.0764,341.9181,270.4861,342.0936,259.8958,340.9519,249.3056,340.7757,238.7153,340.8078,228.125,341.3937,217.5347,341.2504,206.9444,342.1649,196.3542,341.4551,196.331,341.399,195.7193,341.101,195.206,341.0401,194.4978,340.5089,193.9282,340.3122,193.4079,340.2347,193.6161,340.3209,193.3036,339.7033,193.1554,339.1538,192.5724,338.4242,192.534,337.9201,192.1875,337.2884,192.3925,337.2884,192.0235,332.2607,192.1542,327.2331,192.2312,322.2054,192.4138,317.1777,192.1875,312.1501,192.1862,312.1495,192.58,311.6223,192.498,310.898,192.7025,310.2923,193.3254,309.86,193.4079,309.2038,193.3126,308.9738,194.0648,309.123,194.6139,308.7819,195.1401,308.3856,195.7179,308.114,196.3542,307.9834" style="stroke:#555555;stroke-width:2.0833333333333335;"/><text fill="#FFFFFF" font-family="Segoe Print" font-size="12.5" font-weight="bold" lengthAdjust="spacing" textLength="106.25" x="203.6458" y="329.4434">IdP &#35748;&#35777; EndUser</text><polygon fill="#333333" points="60.4167,379.0934,60.4438,379.1612,58.2799,379.7932,56.2749,380.8224,54.2182,381.7223,51.9913,382.1968,50,383.2601,49.99,383.235,52.0283,383.9559,54.1172,384.8031,56.2412,385.7381,58.2442,386.3705,60.4167,387.4268,60.5526,387.5627,59.4286,386.4387,58.7014,385.7115,58.0227,385.0328,57.0623,384.0724,56.25,383.2601,56.2668,383.2768,57.0755,382.4189,57.9605,381.6373,58.8087,380.8188,59.7271,380.0706,60.4167,379.0934" style="stroke:#333333;stroke-width:1.0416666666666667;"/><path d="M54.1667,383.2601 L54.1667,383.552 L64.5833,382.6846 L75,383.5285 L85.4167,383.8152 L95.8333,382.2693 L106.25,383.1522 L116.6667,382.6677 L127.0833,382.7275 L137.5,383.1654 L147.9167,382.2999 L158.3333,384.029 L168.75,382.3847 L179.1667,382.9854 L189.5833,383.86 L200,383.141 L210.4167,383.3549 L220.8333,383.2157 L231.25,383.508 L241.6667,383.5922 L252.0833,384.0735 L262.5,384.1921 L272.9167,384.2035 L283.3333,383.6137 L293.75,383.904 L304.1667,384.2354 L314.5833,382.2584 L325,384.2025 L335.4167,382.8483 L345.8333,384.0015 L356.25,382.5726 L366.6667,383.165 L377.0833,384.2901 L387.5,383.1924 L397.9167,383.4063 L408.3333,383.7304 L418.75,383.8382 L429.1667,383.2547 L439.5833,383.2601 " fill="none" style="stroke:#333333;stroke-width:3.125;"/><text fill="#2E2E2E" font-family="Segoe Print" font-size="12.5" lengthAdjust="spacing" textLength="125" x="182.2917" y="373.3317">3. &#25552;&#31034; EndUser &#30331;&#24405;</text><polygon fill="#333333" points="428.125,418.8151,428.1521,418.8829,430.1549,419.5149,432.3166,420.5441,434.4265,421.444,436.3663,421.9184,438.5417,422.9818,438.5316,422.9567,436.4033,423.6776,434.3255,424.5248,432.2829,425.4598,430.1192,426.0922,428.125,427.1484,428.2609,427.2844,428.8036,426.1604,429.7431,425.4332,430.7311,424.7545,431.4373,423.794,432.2917,422.9818,432.3084,422.9985,431.4505,422.1406,430.6688,421.3589,429.8504,420.5405,429.1021,419.7922,428.125,418.8151" style="stroke:#333333;stroke-width:1.0416666666666667;"/><path d="M48.9583,422.9818 L48.9583,423.2737 L59.375,422.4063 L69.7917,423.2502 L80.2083,423.5369 L90.625,421.9909 L101.0417,422.8738 L111.4583,422.3894 L121.875,422.4491 L132.2917,422.8871 L142.7083,422.0215 L153.125,423.7507 L163.5417,422.1064 L173.9583,422.7071 L184.375,423.5817 L194.7917,422.8626 L205.2083,423.0765 L215.625,422.9374 L226.0417,423.2297 L236.4583,423.3139 L246.875,423.7952 L257.2917,423.9138 L267.7083,423.9252 L278.125,423.3354 L288.5417,423.6256 L298.9583,423.9571 L309.375,421.9801 L319.7917,423.9241 L330.2083,422.57 L340.625,423.7232 L351.0417,422.2942 L361.4583,422.8866 L371.875,424.0118 L382.2917,422.9141 L392.7083,423.128 L403.125,423.4521 L413.5417,423.5599 L423.9583,422.9763 L434.375,422.9818 " fill="none" style="stroke:#333333;stroke-width:3.125;"/><text fill="#2E2E2E" font-family="Segoe Print" font-size="12.5" lengthAdjust="spacing" textLength="91.6667" x="198.9583" y="413.0534">4. &#25552;&#20379;&#35748;&#35777;&#20973;&#35777;</text><polygon fill="#333333" points="60.4167,458.5368,60.4438,458.6045,58.2799,459.2365,56.2749,460.2658,54.2182,461.1656,51.9913,461.6401,50,462.7035,49.99,462.6784,52.0283,463.3993,54.1172,464.2465,56.2412,465.1815,58.2442,465.8139,60.4167,466.8701,60.5526,467.006,59.4286,465.882,58.7014,465.1549,58.0227,464.4762,57.0623,463.5157,56.25,462.7035,56.2668,462.7202,57.0755,461.8623,57.9605,461.0806,58.8087,460.2622,59.7271,459.5139,60.4167,458.5368" style="stroke:#333333;stroke-width:1.0416666666666667;"/><path d="M54.1667,462.7035 L54.1667,462.9954 L64.5833,462.128 L75,462.9719 L85.4167,463.2586 L95.8333,461.7126 L106.25,462.5955 L116.6667,462.1111 L127.0833,462.1708 L137.5,462.6088 L147.9167,461.7432 L158.3333,463.4724 L168.75,461.8281 L179.1667,462.4288 L189.5833,463.3034 L200,462.5843 L210.4167,462.7982 L220.8333,462.6591 L231.25,462.9514 L241.6667,463.0356 L252.0833,463.5169 L262.5,463.6355 L272.9167,463.6469 L283.3333,463.0571 L293.75,463.3473 L304.1667,463.6788 L314.5833,461.7018 L325,463.6458 L335.4167,462.2916 L345.8333,463.4449 L356.25,462.0159 L366.6667,462.6083 L377.0833,463.7335 L387.5,462.6358 L397.9167,462.8497 L408.3333,463.1738 L418.75,463.2815 L429.1667,462.698 L439.5833,462.7035 " fill="none" style="stroke:#333333;stroke-width:3.125;"/><text fill="#2E2E2E" font-family="Segoe Print" font-size="12.5" lengthAdjust="spacing" textLength="66.6667" x="211.4583" y="452.7751">5. &#35748;&#35777;&#25104;&#21151;</text><polygon fill="#555555" points="14.5833,497.1476,14.5833,497.3666,25.0222,496.716,35.461,497.349,45.8998,497.564,56.3387,496.4045,66.7775,497.0667,77.2163,496.7034,87.6551,496.7481,98.094,497.0766,108.5328,496.4274,118.9716,497.7243,129.4105,496.4911,139.8493,496.9416,150.2881,497.5976,160.727,497.0583,171.1658,497.2187,181.6046,497.1143,192.0434,497.3336,202.4823,497.3967,212.9211,497.7577,223.3599,497.8466,233.7988,497.8552,244.2376,497.4129,254.6764,497.6305,265.1152,497.8791,275.5541,496.3964,285.9929,497.8544,296.4317,496.8388,306.8706,497.7037,317.3094,496.632,327.7482,497.0763,338.1871,497.9201,348.6259,497.0969,359.0647,497.2573,369.5035,497.5004,379.9424,497.5812,390.3812,497.1436,400.82,497.4468,411.2589,496.5514,421.6977,497.4439,432.1365,497.7187,442.5754,497.6107,453.0142,497.7862,463.453,496.6444,473.8918,496.4683,484.3307,496.5003,494.7695,497.0863,505.2083,497.1476,505.1979,497.0802,505.8339,497.473,506.3775,497.2707,506.9578,497.3045,507.5775,497.5921,508.1546,497.6053,507.9992,497.4336,508.2777,497.6926,508.794,498.2143,508.9884,498.3803,509.3021,498.6782,509.375,498.7101,509.3,498.6273,509.2053,499.0133,509.0244,499.304,508.5327,499.2514,508.3764,499.5693,508.1546,499.815,508.1613,499.8582,507.6001,500.1301,506.9759,499.9966,506.4115,500.2483,505.7681,499.9911,505.2083,500.2726,505.2083,499.5671,494.7695,500.7972,484.3307,499.5258,473.8918,500.8028,463.453,500.4879,453.0142,499.9935,442.5754,499.9041,432.1365,500.7505,421.6977,499.9608,411.2589,500.8891,400.82,499.6968,390.3812,500.9158,379.9424,500.7771,369.5035,500.5278,359.0647,500.3218,348.6259,501.0295,338.1871,500.9118,327.7482,500.4489,317.3094,500.552,306.8706,500.1369,296.4317,501.0189,285.9929,500.4339,275.5541,500.4524,265.1152,499.6389,254.6764,499.8505,244.2376,500.8255,233.7988,500.7203,223.3599,500.2279,212.9211,499.937,202.4823,500.0446,192.0434,499.5579,181.6046,500.7046,171.1658,501.043,160.727,500.821,150.2881,500.9965,139.8493,500.1302,129.4105,500.3635,118.9716,499.8689,108.5328,500.5685,98.094,500.5297,87.6551,500.848,77.2163,500.0334,66.7775,500.1326,56.3387,500.7346,45.8998,500.8636,35.461,499.7387,25.0222,500.0707,14.5833,500.2726,14.5913,500.3238,13.9615,499.9715,13.4237,500.2108,12.8293,500.0866,12.2209,499.8719,11.6371,499.815,11.6702,499.8516,11.5628,499.7816,11.076,499.2925,10.9782,499.2331,10.7273,499.0046,10.4167,498.7101,10.4436,498.7399,10.6936,498.5254,10.9313,498.2974,11.0034,497.8866,11.2996,497.7231,11.6371,497.6053,11.6125,497.4469,12.2297,497.5356,12.8203,497.4524,13.4134,497.3862,13.9786,497.1393,14.5833,497.1476" style="stroke:#555555;stroke-width:1.0416666666666667;"/><path d="M10.4167,497.1476 L10.4167,497.4395 L20.8116,496.5722 L31.2066,497.4161 L41.6016,497.7027 L51.9965,496.1568 L62.3915,497.0397 L72.7865,496.5553 L83.1814,496.615 L93.5764,497.053 L103.9714,496.1874 L114.3663,497.9166 L124.7613,496.2722 L135.1563,496.8729 L145.5512,497.7476 L155.9462,497.0285 L166.3411,497.2424 L176.7361,497.1033 L187.1311,497.3956 L197.526,497.4798 L207.921,497.9611 L218.316,498.0796 L228.7109,498.091 L239.1059,497.5013 L249.5009,497.7915 L259.8958,498.1229 L270.2908,496.146 L280.6858,498.09 L291.0807,496.7358 L301.4757,497.889 L311.8707,496.4601 L322.2656,497.0525 L332.6606,498.1776 L343.0556,497.0799 L353.4505,497.2939 L363.8455,497.6179 L374.2405,497.7257 L384.6354,497.1422 L395.0304,497.5465 L405.4253,496.3526 L415.8203,497.5426 L426.2153,497.909 L436.6102,497.765 L447.0052,497.999 L457.4002,496.4767 L467.7951,496.2418 L478.1901,496.2846 L488.5851,497.0658 L498.98,496.8747 L509.375,497.1476 " fill="#555555" style="stroke:#555555;stroke-width:1.0416666666666667;"/><path d="M10.4167,500.2726 L10.4167,500.5645 L20.8116,499.6972 L31.2066,500.5411 L41.6016,500.8277 L51.9965,499.2818 L62.3915,500.1647 L72.7865,499.6803 L83.1814,499.74 L93.5764,500.178 L103.9714,499.3124 L114.3663,501.0416 L124.7613,499.3972 L135.1563,499.9979 L145.5512,500.8726 L155.9462,500.1535 L166.3411,500.3674 L176.7361,500.2283 L187.1311,500.5206 L197.526,500.6048 L207.921,501.0861 L218.316,501.2046 L228.7109,501.216 L239.1059,500.6263 L249.5009,500.9165 L259.8958,501.2479 L270.2908,499.271 L280.6858,501.215 L291.0807,499.8608 L301.4757,501.014 L311.8707,499.5851 L322.2656,500.1775 L332.6606,501.3026 L343.0556,500.2049 L353.4505,500.4189 L363.8455,500.7429 L374.2405,500.8507 L384.6354,500.2672 L395.0304,500.6715 L405.4253,499.4776 L415.8203,500.6676 L426.2153,501.034 L436.6102,500.89 L447.0052,501.124 L457.4002,499.6017 L467.7951,499.3668 L478.1901,499.4096 L488.5851,500.1908 L498.98,499.9997 L509.375,500.2726 " fill="#555555" style="stroke:#555555;stroke-width:1.0416666666666667;"/><polygon fill="#555555" points="165.1042,481.4535,165.1042,481.6724,175.6366,481.0219,186.169,481.6548,196.7014,481.8698,207.2338,480.7103,217.7662,481.3725,228.2986,481.0092,238.831,481.054,249.3634,481.3825,259.8958,480.7333,270.4282,482.0302,280.9606,480.7969,291.4931,481.2474,302.0255,481.9034,312.5579,481.3641,323.0903,481.5245,333.6227,481.4202,344.1551,481.6394,354.6875,481.4535,354.7193,481.5302,355.3546,481.8854,355.9552,482.1569,356.5455,482.4036,357.0784,482.5114,357.6338,482.6738,357.7825,482.7354,358.1031,483.3564,357.8906,483.7565,358.5837,484.5318,358.515,484.9915,358.8542,485.6201,359.0395,485.6201,358.6823,490.6478,358.8304,495.6755,359.1117,500.7031,358.8372,505.7308,358.8542,510.7585,358.8879,510.7725,358.7187,511.3927,358.4995,511.9923,358.1207,512.5257,357.97,513.1536,357.6338,513.7047,357.5577,513.5211,357.0823,514.04,356.5281,514.3688,355.9251,514.5796,355.3582,514.8777,354.6875,514.9251,354.6875,514.4219,344.1551,514.2458,333.6227,514.2778,323.0903,514.8638,312.5579,514.7204,302.0255,515.6349,291.4931,514.7432,280.9606,514.5678,270.4282,515.1629,259.8958,514.2305,249.3634,514.3844,238.831,515.6011,228.2986,515.379,217.7662,515.6902,207.2338,514.5899,196.7014,515.2576,186.169,515.5402,175.6366,514.433,165.1042,514.9251,165.0914,514.8944,164.5317,514.7215,164.0123,514.6461,163.3358,514.1916,162.8086,514.0972,162.1579,513.7047,161.9802,513.6312,161.6966,513.0255,161.8313,512.5931,161.1957,511.8417,161.3448,511.4153,160.9375,510.7585,161.0092,510.7585,160.8445,505.7308,160.8147,500.7031,161.0968,495.6755,160.8336,490.6478,160.9375,485.6201,161.1274,485.6988,161.0043,484.9574,161.6237,484.5236,161.8251,483.9167,161.9924,483.2956,162.1579,482.6738,162.1642,482.689,162.8437,482.6629,163.4179,482.3825,163.9481,481.9959,164.5505,481.7836,165.1042,481.4535" style="stroke:#555555;stroke-width:2.0833333333333335;"/><text fill="#FFFFFF" font-family="Segoe Print" font-size="12.5" font-weight="bold" lengthAdjust="spacing" textLength="168.75" x="172.3958" y="502.9134">IdP &#36820;&#22238; Authoration Code</text><polygon fill="#333333" points="212.5,552.5635,212.5271,552.6312,210.3632,553.2632,208.3583,554.2925,206.3015,555.1923,204.0747,555.6668,202.0833,556.7301,202.0733,556.7051,204.1117,557.426,206.2005,558.2732,208.3245,559.2082,210.3275,559.8406,212.5,560.8968,212.6359,561.0327,211.5119,559.9087,210.7848,559.1816,210.1061,558.5029,209.1456,557.5424,208.3333,556.7301,208.3501,556.7469,209.1588,555.889,210.0438,555.1073,210.892,554.2889,211.8105,553.5406,212.5,552.5635" style="stroke:#333333;stroke-width:1.0416666666666667;"/><path d="M206.25,556.7301 L206.25,557.0221 L216.8561,556.1547 L227.4621,556.9986 L238.0682,557.2853 L248.6742,555.7393 L259.2803,556.6222 L269.8864,556.1378 L280.4924,556.1975 L291.0985,556.6355 L301.7045,555.7699 L312.3106,557.4991 L322.9167,555.8548 L333.5227,556.4555 L344.1288,557.3301 L354.7348,556.611 L365.3409,556.8249 L375.947,556.6858 L386.553,556.9781 L397.1591,557.0623 L407.7652,557.5436 L418.3712,557.6622 L428.9773,557.6736 L439.5833,556.7301 " fill="none" style="stroke:#333333;stroke-width:3.125;"/><text fill="#2E2E2E" font-family="Segoe Print" font-size="12.5" lengthAdjust="spacing" textLength="150" x="245.8333" y="546.8018">6. &#36820;&#22238; Authoration Code</text><polygon fill="#555555" points="14.5833,591.1743,14.5833,591.3933,25.0222,590.7427,35.461,591.3757,45.8998,591.5906,56.3387,590.4312,66.7775,591.0934,77.2163,590.7301,87.6551,590.7748,98.094,591.1033,108.5328,590.4541,118.9716,591.751,129.4105,590.5178,139.8493,590.9683,150.2881,591.6243,160.727,591.085,171.1658,591.2454,181.6046,591.141,192.0434,591.3603,202.4823,591.4234,212.9211,591.7844,223.3599,591.8733,233.7988,591.8819,244.2376,591.4396,254.6764,591.6572,265.1152,591.9058,275.5541,590.4231,285.9929,591.8811,296.4317,590.8655,306.8706,591.7304,317.3094,590.6587,327.7482,591.103,338.1871,591.9468,348.6259,591.1236,359.0647,591.284,369.5035,591.5271,379.9424,591.6079,390.3812,591.1702,400.82,591.4735,411.2589,590.578,421.6977,591.4706,432.1365,591.7454,442.5754,591.6374,453.0142,591.8129,463.453,590.6711,473.8918,590.495,484.3307,590.527,494.7695,591.113,505.2083,591.1743,505.1979,591.1069,505.8339,591.4996,506.3775,591.2974,506.9578,591.3312,507.5775,591.6188,508.1546,591.632,507.9992,591.4603,508.2777,591.7193,508.794,592.2409,508.9884,592.407,509.3021,592.7049,509.375,592.7368,509.3,592.654,509.2053,593.04,509.0244,593.3307,508.5327,593.2781,508.3764,593.596,508.1546,593.8417,508.1613,593.8849,507.6001,594.1568,506.9759,594.0233,506.4115,594.275,505.7681,594.0178,505.2083,594.2993,505.2083,593.5938,494.7695,594.8239,484.3307,593.5525,473.8918,594.8295,463.453,594.5146,453.0142,594.0202,442.5754,593.9308,432.1365,594.7772,421.6977,593.9875,411.2589,594.9158,400.82,593.7235,390.3812,594.9425,379.9424,594.8038,369.5035,594.5545,359.0647,594.3485,348.6259,595.0562,338.1871,594.9385,327.7482,594.4756,317.3094,594.5787,306.8706,594.1636,296.4317,595.0456,285.9929,594.4606,275.5541,594.4791,265.1152,593.6656,254.6764,593.8772,244.2376,594.8522,233.7988,594.747,223.3599,594.2546,212.9211,593.9637,202.4823,594.0713,192.0434,593.5846,181.6046,594.7313,171.1658,595.0697,160.727,594.8476,150.2881,595.0232,139.8493,594.1569,129.4105,594.3902,118.9716,593.8956,108.5328,594.5952,98.094,594.5564,87.6551,594.8747,77.2163,594.0601,66.7775,594.1593,56.3387,594.7613,45.8998,594.8903,35.461,593.7654,25.0222,594.0974,14.5833,594.2993,14.5913,594.3505,13.9615,593.9982,13.4237,594.2375,12.8293,594.1132,12.2209,593.8986,11.6371,593.8417,11.6702,593.8783,11.5628,593.8083,11.076,593.3192,10.9782,593.2598,10.7273,593.0313,10.4167,592.7368,10.4436,592.7666,10.6936,592.5521,10.9313,592.3241,11.0034,591.9132,11.2996,591.7498,11.6371,591.632,11.6125,591.4736,12.2297,591.5623,12.8203,591.4791,13.4134,591.4129,13.9786,591.166,14.5833,591.1743" style="stroke:#555555;stroke-width:1.0416666666666667;"/><path d="M10.4167,591.1743 L10.4167,591.4662 L20.8116,590.5989 L31.2066,591.4428 L41.6016,591.7294 L51.9965,590.1835 L62.3915,591.0664 L72.7865,590.582 L83.1814,590.6417 L93.5764,591.0797 L103.9714,590.2141 L114.3663,591.9433 L124.7613,590.2989 L135.1563,590.8996 L145.5512,591.7742 L155.9462,591.0552 L166.3411,591.2691 L176.7361,591.1299 L187.1311,591.4223 L197.526,591.5064 L207.921,591.9878 L218.316,592.1063 L228.7109,592.1177 L239.1059,591.528 L249.5009,591.8182 L259.8958,592.1496 L270.2908,590.1727 L280.6858,592.1167 L291.0807,590.7625 L301.4757,591.9157 L311.8707,590.4868 L322.2656,591.0792 L332.6606,592.2043 L343.0556,591.1066 L353.4505,591.3206 L363.8455,591.6446 L374.2405,591.7524 L384.6354,591.1689 L395.0304,591.5732 L405.4253,590.3793 L415.8203,591.5693 L426.2153,591.9357 L436.6102,591.7917 L447.0052,592.0257 L457.4002,590.5034 L467.7951,590.2685 L478.1901,590.3113 L488.5851,591.0925 L498.98,590.9014 L509.375,591.1743 " fill="#555555" style="stroke:#555555;stroke-width:1.0416666666666667;"/><path d="M10.4167,594.2993 L10.4167,594.5912 L20.8116,593.7239 L31.2066,594.5678 L41.6016,594.8544 L51.9965,593.3085 L62.3915,594.1914 L72.7865,593.707 L83.1814,593.7667 L93.5764,594.2047 L103.9714,593.3391 L114.3663,595.0683 L124.7613,593.4239 L135.1563,594.0246 L145.5512,594.8992 L155.9462,594.1802 L166.3411,594.3941 L176.7361,594.2549 L187.1311,594.5473 L197.526,594.6314 L207.921,595.1128 L218.316,595.2313 L228.7109,595.2427 L239.1059,594.653 L249.5009,594.9432 L259.8958,595.2746 L270.2908,593.2977 L280.6858,595.2417 L291.0807,593.8875 L301.4757,595.0407 L311.8707,593.6118 L322.2656,594.2042 L332.6606,595.3293 L343.0556,594.2316 L353.4505,594.4456 L363.8455,594.7696 L374.2405,594.8774 L384.6354,594.2939 L395.0304,594.6982 L405.4253,593.5043 L415.8203,594.6943 L426.2153,595.0607 L436.6102,594.9167 L447.0052,595.1507 L457.4002,593.6284 L467.7951,593.3935 L478.1901,593.4363 L488.5851,594.2175 L498.98,594.0264 L509.375,594.2993 " fill="#555555" style="stroke:#555555;stroke-width:1.0416666666666667;"/><polygon fill="#555555" points="203.125,575.4801,203.125,575.6991,213.447,575.0486,223.7689,575.6815,234.0909,575.8965,244.4129,574.737,254.7348,575.3992,265.0568,575.0359,275.3788,575.0807,285.7008,575.4091,296.0227,574.76,306.3447,576.0569,316.6667,575.4801,316.5829,575.278,317.2296,575.6608,317.9026,576.1069,318.423,576.1849,319.0328,576.4783,319.6129,576.7005,319.6027,576.6963,319.9143,577.3135,320.1778,577.9108,320.5331,578.5461,320.8045,579.1467,320.8333,579.6468,321.0692,579.6468,320.9217,584.6745,320.9943,589.7021,321.0772,594.7298,320.5829,599.7575,320.8333,604.7852,321.051,604.8753,320.4941,605.335,320.5164,606.0346,319.9423,606.4871,319.835,607.1331,319.6129,607.7314,319.7115,607.9693,319.0172,607.9599,318.4484,608.2534,317.8902,608.5723,317.3112,608.8413,316.6667,608.9518,316.6667,608.9478,306.3447,609.251,296.0227,608.3556,285.7008,609.2481,275.3788,609.5229,265.0568,609.4149,254.7348,609.5904,244.4129,608.4486,234.0909,608.2725,223.7689,608.3045,213.447,608.8905,203.125,608.9518,203.0989,608.8888,202.6263,608.9263,201.9233,608.4076,201.3116,608.1095,200.7983,608.0487,200.1787,607.7314,199.9648,607.6428,199.7681,607.0732,199.8987,606.6392,199.5862,606.0216,199.438,605.472,198.9583,604.7852,198.8466,604.7852,199.0692,599.7575,199.1633,594.7298,198.7943,589.7021,198.925,584.6745,198.9583,579.6468,198.9987,579.6636,199.4115,579.1442,199.4451,578.4677,199.839,577.9405,199.757,577.2162,200.1787,576.7005,200.0887,576.4833,200.8349,576.618,201.262,575.9824,202.0141,576.1316,202.5632,575.7905,203.125,575.4801" style="stroke:#555555;stroke-width:2.0833333333333335;"/><text fill="#FFFFFF" font-family="Segoe Print" font-size="12.5" font-weight="bold" lengthAdjust="spacing" textLength="92.7083" x="210.4167" y="596.9401">Client &#35831;&#27714;&#20196;&#29260;</text><polygon fill="#333333" points="428.125,646.5902,428.1521,646.6579,430.1549,647.2899,432.3166,648.3191,434.4265,649.219,436.3663,649.6935,438.5417,650.7568,438.5316,650.7318,436.4033,651.4527,434.3255,652.2999,432.2829,653.2349,430.1192,653.8673,428.125,654.9235,428.2609,655.0594,428.8036,653.9354,429.7431,653.2083,430.7311,652.5296,431.4373,651.5691,432.2917,650.7568,432.3084,650.7736,431.4505,649.9157,430.6688,649.134,429.8504,648.3155,429.1021,647.5673,428.125,646.5902" style="stroke:#333333;stroke-width:1.0416666666666667;"/><path d="M201.0417,650.7568 L201.0417,651.0488 L211.6477,650.1814 L222.2538,651.0253 L232.8598,651.3119 L243.4659,649.766 L254.072,650.6489 L264.678,650.1645 L275.2841,650.2242 L285.8902,650.6622 L296.4962,649.7966 L307.1023,651.5258 L317.7083,649.8814 L328.3144,650.4822 L338.9205,651.3568 L349.5265,650.6377 L360.1326,650.8516 L370.7386,650.7125 L381.3447,651.0048 L391.9508,651.089 L402.5568,651.5703 L413.1629,651.6889 L423.7689,651.7002 L434.375,650.7568 " fill="none" style="stroke:#333333;stroke-width:3.125;"/><text fill="#2E2E2E" font-family="Segoe Print" font-size="12.5" lengthAdjust="spacing" textLength="204.1667" x="218.75" y="640.8285">7. &#20351;&#29992; Authoration Code &#35831;&#27714;&#20196;&#29260;</text><polygon fill="#333333" points="212.5,686.3118,212.5271,686.3796,210.3632,687.0116,208.3583,688.0408,206.3015,688.9407,204.0747,689.4152,202.0833,690.4785,202.0733,690.4535,204.1117,691.1744,206.2005,692.0215,208.3245,692.9565,210.3275,693.589,212.5,694.6452,212.6359,694.7811,211.5119,693.6571,210.7848,692.93,210.1061,692.2512,209.1456,691.2908,208.3333,690.4785,208.3501,690.4953,209.1588,689.6373,210.0438,688.8557,210.892,688.0372,211.8105,687.289,212.5,686.3118" style="stroke:#333333;stroke-width:1.0416666666666667;"/><path d="M206.25,690.4785 L206.25,690.7704 L216.8561,689.9031 L227.4621,690.747 L238.0682,691.0336 L248.6742,689.4877 L259.2803,690.3706 L269.8864,689.8862 L280.4924,689.9459 L291.0985,690.3839 L301.7045,689.5183 L312.3106,691.2475 L322.9167,689.6031 L333.5227,690.2038 L344.1288,691.0784 L354.7348,690.3594 L365.3409,690.5733 L375.947,690.4341 L386.553,690.7265 L397.1591,690.8106 L407.7652,691.292 L418.3712,691.4105 L428.9773,691.4219 L439.5833,690.4785 " fill="none" style="stroke:#333333;stroke-width:3.125;"/><text fill="#2E2E2E" font-family="Segoe Print" font-size="12.5" lengthAdjust="spacing" textLength="203.125" x="219.2708" y="680.5501">8. &#36820;&#22238; Access Token &#21644; ID Token</text><polygon fill="#555555" points="14.5833,724.9227,14.5833,725.1416,25.0222,724.4911,35.461,725.124,45.8998,725.339,56.3387,724.1796,66.7775,724.8417,77.2163,724.4784,87.6551,724.5232,98.094,724.8517,108.5328,724.2025,118.9716,725.4994,129.4105,724.2661,139.8493,724.7167,150.2881,725.3726,160.727,724.8333,171.1658,724.9938,181.6046,724.8894,192.0434,725.1087,202.4823,725.1718,212.9211,725.5328,223.3599,725.6217,233.7988,725.6302,244.2376,725.1879,254.6764,725.4056,265.1152,725.6542,275.5541,724.1715,285.9929,725.6295,296.4317,724.6138,306.8706,725.4787,317.3094,724.407,327.7482,724.8513,338.1871,725.6952,348.6259,724.8719,359.0647,725.0324,369.5035,725.2754,379.9424,725.3563,390.3812,724.9186,400.82,725.2219,411.2589,724.3264,421.6977,725.2189,432.1365,725.4937,442.5754,725.3857,453.0142,725.5613,463.453,724.4195,473.8918,724.2433,484.3307,724.2754,494.7695,724.8614,505.2083,724.9227,505.1979,724.8553,505.8339,725.248,506.3775,725.0458,506.9578,725.0796,507.5775,725.3671,508.1546,725.3803,507.9992,725.2087,508.2777,725.4677,508.794,725.9893,508.9884,726.1554,509.3021,726.4533,509.375,726.4852,509.3,726.4024,509.2053,726.7883,509.0244,727.0791,508.5327,727.0265,508.3764,727.3444,508.1546,727.59,508.1613,727.6333,507.6001,727.9052,506.9759,727.7717,506.4115,728.0233,505.7681,727.7662,505.2083,728.0477,505.2083,727.3422,494.7695,728.5723,484.3307,727.3009,473.8918,728.5779,463.453,728.2629,453.0142,727.7686,442.5754,727.6792,432.1365,728.5256,421.6977,727.7359,411.2589,728.6642,400.82,727.4719,390.3812,728.6908,379.9424,728.5522,369.5035,728.3029,359.0647,728.0969,348.6259,728.8046,338.1871,728.6868,327.7482,728.224,317.3094,728.3271,306.8706,727.912,296.4317,728.794,285.9929,728.209,275.5541,728.2275,265.1152,727.414,254.6764,727.6256,244.2376,728.6006,233.7988,728.4954,223.3599,728.003,212.9211,727.7121,202.4823,727.8196,192.0434,727.3329,181.6046,728.4797,171.1658,728.8181,160.727,728.596,150.2881,728.7716,139.8493,727.9053,129.4105,728.1385,118.9716,727.6439,108.5328,728.3436,98.094,728.3047,87.6551,728.6231,77.2163,727.8085,66.7775,727.9077,56.3387,728.5096,45.8998,728.6387,35.461,727.5138,25.0222,727.8457,14.5833,728.0477,14.5913,728.0989,13.9615,727.7466,13.4237,727.9859,12.8293,727.8616,12.2209,727.647,11.6371,727.59,11.6702,727.6267,11.5628,727.5566,11.076,727.0676,10.9782,727.0082,10.7273,726.7797,10.4167,726.4852,10.4436,726.515,10.6936,726.3005,10.9313,726.0725,11.0034,725.6616,11.2996,725.4981,11.6371,725.3803,11.6125,725.222,12.2297,725.3107,12.8203,725.2275,13.4134,725.1612,13.9786,724.9144,14.5833,724.9227" style="stroke:#555555;stroke-width:1.0416666666666667;"/><path d="M10.4167,724.9227 L10.4167,725.2146 L20.8116,724.3472 L31.2066,725.1911 L41.6016,725.4778 L51.9965,723.9319 L62.3915,724.8148 L72.7865,724.3303 L83.1814,724.3901 L93.5764,724.828 L103.9714,723.9625 L114.3663,725.6916 L124.7613,724.0473 L135.1563,724.648 L145.5512,725.5226 L155.9462,724.8036 L166.3411,725.0175 L176.7361,724.8783 L187.1311,725.1706 L197.526,725.2548 L207.921,725.7361 L218.316,725.8547 L228.7109,725.8661 L239.1059,725.2763 L249.5009,725.5666 L259.8958,725.898 L270.2908,723.921 L280.6858,725.8651 L291.0807,724.5109 L301.4757,725.6641 L311.8707,724.2352 L322.2656,724.8276 L332.6606,725.9527 L343.0556,724.855 L353.4505,725.0689 L363.8455,725.393 L374.2405,725.5008 L384.6354,724.9173 L395.0304,725.3216 L405.4253,724.1277 L415.8203,725.3177 L426.2153,725.6841 L436.6102,725.5401 L447.0052,725.7741 L457.4002,724.2517 L467.7951,724.0169 L478.1901,724.0596 L488.5851,724.8409 L498.98,724.6497 L509.375,724.9227 " fill="#555555" style="stroke:#555555;stroke-width:1.0416666666666667;"/><path d="M10.4167,728.0477 L10.4167,728.3396 L20.8116,727.4722 L31.2066,728.3161 L41.6016,728.6028 L51.9965,727.0569 L62.3915,727.9398 L72.7865,727.4553 L83.1814,727.5151 L93.5764,727.953 L103.9714,727.0875 L114.3663,728.8166 L124.7613,727.1723 L135.1563,727.773 L145.5512,728.6476 L155.9462,727.9286 L166.3411,728.1425 L176.7361,728.0033 L187.1311,728.2956 L197.526,728.3798 L207.921,728.8611 L218.316,728.9797 L228.7109,728.9911 L239.1059,728.4013 L249.5009,728.6916 L259.8958,729.023 L270.2908,727.046 L280.6858,728.9901 L291.0807,727.6359 L301.4757,728.7891 L311.8707,727.3602 L322.2656,727.9526 L332.6606,729.0777 L343.0556,727.98 L353.4505,728.1939 L363.8455,728.518 L374.2405,728.6258 L384.6354,728.0423 L395.0304,728.4466 L405.4253,727.2527 L415.8203,728.4427 L426.2153,728.8091 L436.6102,728.6651 L447.0052,728.8991 L457.4002,727.3767 L467.7951,727.1419 L478.1901,727.1846 L488.5851,727.9659 L498.98,727.7747 L509.375,728.0477 " fill="#555555" style="stroke:#555555;stroke-width:1.0416666666666667;"/><polygon fill="#555555" points="165.625,709.2285,165.625,709.4475,176.0995,708.7969,186.5741,709.4299,197.0486,709.6448,207.5231,708.4854,217.9977,709.1476,228.4722,708.7843,238.9468,708.829,249.4213,709.1575,259.8958,708.5083,270.3704,709.8052,280.8449,708.572,291.3194,709.0225,301.794,709.6785,312.2685,709.1392,322.7431,709.2996,333.2176,709.1952,343.6921,709.4145,354.1667,709.2285,354.1984,709.3052,354.8337,709.6605,355.4343,709.9319,356.0247,710.1786,356.5575,710.2865,357.1129,710.4489,357.2617,710.5105,357.5823,711.1315,357.3698,711.5316,358.0628,712.3068,357.9941,712.7665,358.3333,713.3952,358.5187,713.3952,358.1615,718.4229,358.3095,723.4505,358.5908,728.4782,358.3164,733.5059,358.3333,738.5335,358.3671,738.5475,358.1979,739.1678,357.9787,739.7673,357.5998,740.3008,357.4492,740.9287,357.1129,741.4798,357.0369,741.2962,356.5615,741.8151,356.0073,742.1438,355.4042,742.3546,354.8374,742.6528,354.1667,742.7002,354.1667,742.197,343.6921,742.0208,333.2176,742.0529,322.7431,742.6389,312.2685,742.4955,301.794,743.41,291.3194,742.5182,280.8449,742.3428,270.3704,742.938,259.8958,742.0056,249.4213,742.1594,238.9468,743.3762,228.4722,743.154,217.9977,743.4653,207.5231,742.365,197.0486,743.0327,186.5741,743.3152,176.0995,742.2081,165.625,742.7002,165.6123,742.6694,165.0525,742.4965,164.5331,742.4211,163.8567,741.9666,163.3294,741.8723,162.6787,741.4798,162.5011,741.4062,162.2174,740.8006,162.3521,740.3682,161.7165,739.6168,161.8657,739.1904,161.4583,738.5335,161.5301,738.5335,161.3653,733.5059,161.3355,728.4782,161.6176,723.4505,161.3544,718.4229,161.4583,713.3952,161.6482,713.4738,161.5251,712.7325,162.1446,712.2987,162.3459,711.6918,162.5132,711.0707,162.6787,710.4489,162.685,710.4641,163.3645,710.4379,163.9388,710.1576,164.469,709.771,165.0714,709.5586,165.625,709.2285" style="stroke:#555555;stroke-width:2.0833333333333335;"/><text fill="#FFFFFF" font-family="Segoe Print" font-size="12.5" font-weight="bold" lengthAdjust="spacing" textLength="167.7083" x="172.9167" y="730.6885">Client &#20351;&#29992;&#20196;&#29260;&#25552;&#20379;&#35775;&#38382;&#26435;&#38480;</text><polygon fill="#333333" points="60.4167,780.3385,60.4438,780.4063,58.2799,781.0383,56.2749,782.0675,54.2182,782.9674,51.9913,783.4419,50,784.5052,49.99,784.4802,52.0283,785.201,54.1172,786.0482,56.2412,786.9832,58.2442,787.6157,60.4167,788.6719,60.5526,788.8078,59.4286,787.6838,58.7014,786.9567,58.0227,786.2779,57.0623,785.3175,56.25,784.5052,56.2668,784.522,57.0755,783.664,57.9605,782.8824,58.8087,782.0639,59.7271,781.3157,60.4167,780.3385" style="stroke:#333333;stroke-width:1.0416666666666667;"/><path d="M54.1667,784.5052 L54.1667,784.7971 L64.5833,783.9298 L75,784.7737 L85.4167,785.0603 L95.8333,783.5144 L106.25,784.3973 L116.6667,783.9129 L127.0833,783.9726 L137.5,784.4105 L147.9167,783.545 L158.3333,785.2742 L168.75,783.6298 L179.1667,784.2305 L189.5833,785.1051 L200,784.5052 " fill="none" style="stroke:#333333;stroke-width:3.125;"/><text fill="#2E2E2E" font-family="Segoe Print" font-size="12.5" lengthAdjust="spacing" textLength="116.6667" x="66.6667" y="774.5768">9. &#20351;&#29992;&#20196;&#29260;&#25552;&#20379;&#35775;&#38382;</text><polygon fill="#555555" points="14.5833,818.9494,14.5833,819.1683,25.0222,818.5178,35.461,819.1507,45.8998,819.3657,56.3387,818.2063,66.7775,818.8684,77.2163,818.5051,87.6551,818.5499,98.094,818.8784,108.5328,818.2292,118.9716,819.5261,129.4105,818.2928,139.8493,818.7434,150.2881,819.3993,160.727,818.86,171.1658,819.0205,181.6046,818.9161,192.0434,819.1353,202.4823,819.1985,212.9211,819.5595,223.3599,819.6484,233.7988,819.6569,244.2376,819.2146,254.6764,819.4323,265.1152,819.6809,275.5541,818.1981,285.9929,819.6562,296.4317,818.6405,306.8706,819.5054,317.3094,818.4337,327.7482,818.878,338.1871,819.7219,348.6259,818.8986,359.0647,819.0591,369.5035,819.3021,379.9424,819.383,390.3812,818.9453,400.82,819.2486,411.2589,818.3531,421.6977,819.2456,432.1365,819.5204,442.5754,819.4124,453.0142,819.5879,463.453,818.4462,473.8918,818.27,484.3307,818.3021,494.7695,818.888,505.2083,818.9494,505.1979,818.882,505.8339,819.2747,506.3775,819.0725,506.9578,819.1063,507.5775,819.3938,508.1546,819.407,507.9992,819.2354,508.2777,819.4944,508.794,820.016,508.9884,820.1821,509.3021,820.48,509.375,820.5119,509.3,820.429,509.2053,820.815,509.0244,821.1058,508.5327,821.0532,508.3764,821.3711,508.1546,821.6167,508.1613,821.66,507.6001,821.9319,506.9759,821.7984,506.4115,822.05,505.7681,821.7928,505.2083,822.0744,505.2083,821.3689,494.7695,822.599,484.3307,821.3276,473.8918,822.6046,463.453,822.2896,453.0142,821.7953,442.5754,821.7059,432.1365,822.5523,421.6977,821.7626,411.2589,822.6909,400.82,821.4986,390.3812,822.7175,379.9424,822.5789,369.5035,822.3296,359.0647,822.1236,348.6259,822.8313,338.1871,822.7135,327.7482,822.2507,317.3094,822.3537,306.8706,821.9387,296.4317,822.8207,285.9929,822.2357,275.5541,822.2541,265.1152,821.4407,254.6764,821.6523,244.2376,822.6272,233.7988,822.522,223.3599,822.0297,212.9211,821.7388,202.4823,821.8463,192.0434,821.3596,181.6046,822.5064,171.1658,822.8448,160.727,822.6227,150.2881,822.7983,139.8493,821.932,129.4105,822.1652,118.9716,821.6706,108.5328,822.3703,98.094,822.3314,87.6551,822.6498,77.2163,821.8352,66.7775,821.9344,56.3387,822.5363,45.8998,822.6654,35.461,821.5405,25.0222,821.8724,14.5833,822.0744,14.5913,822.1256,13.9615,821.7733,13.4237,822.0126,12.8293,821.8883,12.2209,821.6737,11.6371,821.6167,11.6702,821.6534,11.5628,821.5833,11.076,821.0943,10.9782,821.0349,10.7273,820.8064,10.4167,820.5119,10.4436,820.5417,10.6936,820.3272,10.9313,820.0991,11.0034,819.6883,11.2996,819.5248,11.6371,819.407,11.6125,819.2487,12.2297,819.3374,12.8203,819.2542,13.4134,819.1879,13.9786,818.9411,14.5833,818.9494" style="stroke:#555555;stroke-width:1.0416666666666667;"/><path d="M10.4167,818.9494 L10.4167,819.2413 L20.8116,818.3739 L31.2066,819.2178 L41.6016,819.5045 L51.9965,817.9586 L62.3915,818.8414 L72.7865,818.357 L83.1814,818.4167 L93.5764,818.8547 L103.9714,817.9891 L114.3663,819.7183 L124.7613,818.074 L135.1563,818.6747 L145.5512,819.5493 L155.9462,818.8302 L166.3411,819.0442 L176.7361,818.905 L187.1311,819.1973 L197.526,819.2815 L207.921,819.7628 L218.316,819.8814 L228.7109,819.8928 L239.1059,819.303 L249.5009,819.5932 L259.8958,819.9247 L270.2908,817.9477 L280.6858,819.8918 L291.0807,818.5376 L301.4757,819.6908 L311.8707,818.2618 L322.2656,818.8542 L332.6606,819.9794 L343.0556,818.8817 L353.4505,819.0956 L363.8455,819.4197 L374.2405,819.5275 L384.6354,818.944 L395.0304,819.3483 L405.4253,818.1544 L415.8203,819.3444 L426.2153,819.7108 L436.6102,819.5668 L447.0052,819.8008 L457.4002,818.2784 L467.7951,818.0436 L478.1901,818.0863 L488.5851,818.8676 L498.98,818.6764 L509.375,818.9494 " fill="#555555" style="stroke:#555555;stroke-width:1.0416666666666667;"/><path d="M10.4167,822.0744 L10.4167,822.3663 L20.8116,821.4989 L31.2066,822.3428 L41.6016,822.6295 L51.9965,821.0836 L62.3915,821.9664 L72.7865,821.482 L83.1814,821.5417 L93.5764,821.9797 L103.9714,821.1141 L114.3663,822.8433 L124.7613,821.199 L135.1563,821.7997 L145.5512,822.6743 L155.9462,821.9552 L166.3411,822.1692 L176.7361,822.03 L187.1311,822.3223 L197.526,822.4065 L207.921,822.8878 L218.316,823.0064 L228.7109,823.0178 L239.1059,822.428 L249.5009,822.7182 L259.8958,823.0497 L270.2908,821.0727 L280.6858,823.0168 L291.0807,821.6626 L301.4757,822.8158 L311.8707,821.3868 L322.2656,821.9792 L332.6606,823.1044 L343.0556,822.0067 L353.4505,822.2206 L363.8455,822.5447 L374.2405,822.6525 L384.6354,822.069 L395.0304,822.4733 L405.4253,821.2794 L415.8203,822.4694 L426.2153,822.8358 L436.6102,822.6918 L447.0052,822.9258 L457.4002,821.4034 L467.7951,821.1686 L478.1901,821.2113 L488.5851,821.9926 L498.98,821.8014 L509.375,822.0744 " fill="#555555" style="stroke:#555555;stroke-width:1.0416666666666667;"/><polygon fill="#555555" points="184.375,803.2552,184.375,803.4741,194.4444,802.8236,204.5139,803.4565,214.5833,803.6715,224.6528,802.5121,234.7222,803.1743,244.7917,802.8109,254.8611,802.8557,264.9306,803.1842,275,802.535,285.0694,803.8319,295.1389,802.5987,305.2083,803.0492,315.2778,803.7052,325.3472,803.1659,335.4167,803.2552,335.4257,803.2771,336.0017,803.489,336.6189,803.8006,337.2162,804.0642,337.8515,804.4194,338.3629,804.4756,338.5782,804.5648,338.8249,805.1551,338.9328,805.6879,339.2439,806.305,339.5645,806.9259,339.5833,807.4219,339.3329,807.4219,339.8189,812.4495,339.4804,817.4772,339.7687,822.5049,339.4115,827.5326,339.5833,832.5602,339.5614,832.5511,339.5772,833.248,339.0795,833.7323,338.8849,834.342,338.7157,834.9622,338.3629,835.5065,338.4183,835.64,337.7732,835.7493,337.2226,836.0868,336.5191,836.0551,336.0437,836.574,335.4167,836.7269,335.4167,837.2979,325.3472,837.1899,315.2778,837.3655,305.2083,836.2237,295.1389,836.0475,285.0694,836.0796,275,836.6656,264.9306,836.5222,254.8611,837.4367,244.7917,836.5449,234.7222,836.3695,224.6528,836.9647,214.5833,836.0323,204.5139,836.1861,194.4444,837.4029,184.375,836.7269,184.4329,836.8666,183.8833,836.7184,183.1537,836.1355,182.6496,836.0971,182.0964,835.94,181.4287,835.5065,181.2772,835.4437,181.1539,834.9045,180.981,834.3447,180.9056,833.8253,180.4511,833.1489,180.2083,832.5602,180.3689,832.5602,180.016,827.5326,179.9732,822.5049,180.3832,817.4772,179.9594,812.4495,180.2083,807.4219,180.3716,807.4895,180.5187,806.8601,180.6105,806.2078,180.8271,805.6071,181.3318,805.1258,181.4287,804.4756,181.3889,804.3796,182.0966,804.4214,182.5338,803.8101,183.2785,803.9414,183.8501,803.6546,184.375,803.2552" style="stroke:#555555;stroke-width:2.0833333333333335;"/><text fill="#FFFFFF" font-family="Segoe Print" font-size="12.5" font-weight="bold" lengthAdjust="spacing" textLength="130.2083" x="191.6667" y="824.7152">&#21487;&#36873;&#65306;Client &#39564;&#35777;&#20196;&#29260;</text><polygon fill="#333333" points="428.125,874.3652,428.1521,874.433,430.1549,875.065,432.3166,876.0942,434.4265,876.9941,436.3663,877.4686,438.5417,878.5319,438.5316,878.5068,436.4033,879.2277,434.3255,880.0749,432.2829,881.0099,430.1192,881.6423,428.125,882.6986,428.2609,882.8345,428.8036,881.7105,429.7431,880.9833,430.7311,880.3046,431.4373,879.3442,432.2917,878.5319,432.3084,878.5487,431.4505,877.6907,430.6688,876.9091,429.8504,876.0906,429.1021,875.3424,428.125,874.3652" style="stroke:#333333;stroke-width:1.0416666666666667;"/><path d="M201.0417,878.5319 L201.0417,878.8238 L211.6477,877.9565 L222.2538,878.8004 L232.8598,879.087 L243.4659,877.5411 L254.072,878.424 L264.678,877.9395 L275.2841,877.9993 L285.8902,878.4372 L296.4962,877.5717 L307.1023,879.3008 L317.7083,877.6565 L328.3144,878.2572 L338.9205,879.1318 L349.5265,878.4128 L360.1326,878.6267 L370.7386,878.4875 L381.3447,878.7799 L391.9508,878.864 L402.5568,879.3454 L413.1629,879.4639 L423.7689,879.4753 L434.375,878.5319 " fill="none" style="stroke:#333333;stroke-width:3.125;"/><text fill="#2E2E2E" font-family="Segoe Print" font-size="12.5" lengthAdjust="spacing" textLength="112.5" x="264.5833" y="868.6035">10. &#39564;&#35777;&#20196;&#29260; (&#21487;&#36873;)</text><!--SRC=[XPHFRn916CRl-obUuqKFtPIo54g2IKLDccZYGJ_0E3l0PhSpTNP8uyq_XxQ6fcWmfYLgJ3WOZQ0d4n3vCYmi9x-2i__ARfV5moRipFF-dcUUsM2R1Zr07ErR39j41ywQLCUCKy8XjwdOLxPjyhH9A2OFY6sZEjcrZ3e5JAWWFAL5dBF3AhCOX-i5X8iulrfoZr4HoWuRXY0fbVmj36mS82fk8spM_OpXH7v7sz9AwqPY-48Hun9QosTS9tmz6s71-7z3-we4BiCz45uzb-28sb8cgysyXFj6JJwK95nGxGd2Mcg6Ca5I9ZKjlrqehDIcpgTS4msoJy0sYS2DPnkiAIpfhIX-VhXBzSUs_0XYNKBLChpuyQKz_Q6YL2gH7Dp1hzdFbsv_idZV3_NW33lppXUeL9H8jN4hsYj3JaqC-RHmSt5qwlGldFORv_Y7vmJkfEj-RhdzdZjuuV52dSHvksNOKfSpeNRuRJeQ1nC-siS4W2YD17chaXAjb26lmkoiFUyDBzVcvoDd_2v-XC1JyvNJFzs0wXnzzwnIm88QsiwEsyxhJyiiauxJ_GYxJT5W70c3KQWodSH2NJQrhMQfuwK5PKv7lVb9QrL7HHMcuubt8IdF-6ZAlRHqnrZ-My0ZPX8ApjiMxDq9Nk8n0e-05VNZtU_imwl5UJiPRDdIZfevwCETiy7Y-SdVtnVH5_Ar9IlDFcnkKqrgRWI4cye_]--></g></svg>