<svg xmlns="http://www.w3.org/2000/svg" xmlns:xlink="http://www.w3.org/1999/xlink" contentStyleType="text/css" height="620.8333px" preserveAspectRatio="none" style="width:1158px;height:620px;" version="1.1" viewBox="0 0 1158 620" width="1158.3333px" zoomAndPan="magnify"><defs/><g><!--class IdP--><g id="elem_IdP"><polygon fill="none" points="594.0729,462.7604,594.0729,462.9794,604.4896,462.3288,614.9063,462.9618,625.3229,463.1767,635.7396,462.0173,646.1563,462.6795,656.5729,462.3162,666.9896,462.3609,677.4063,462.6894,687.8229,462.7604,687.7311,462.5386,688.4857,463.1821,688.9177,463.0464,689.5644,463.4292,690.2373,463.8753,690.7692,463.9808,690.7417,463.9694,691.0352,464.5791,691.2471,465.1551,691.5587,465.7723,691.8222,466.3696,691.9896,466.9271,692.5997,466.9271,692.6886,477.5059,692.6971,488.0847,692.2548,498.6635,692.4725,509.2423,692.7211,519.8211,691.2383,530.3999,692.6964,540.9787,691.6807,551.5575,692.5456,562.1363,691.4739,572.7151,691.9182,583.2939,692.7621,593.8727,691.9896,604.4515,691.9739,604.445,691.7793,605.0547,691.6101,605.675,691.3909,606.2746,691.012,606.808,690.7692,607.3978,690.8074,607.4899,690.1039,607.4582,689.6285,607.9772,689.0743,608.3059,688.4712,608.5167,687.8229,608.6182,687.8229,609.2567,677.4063,608.115,666.9896,607.9388,656.5729,607.9709,646.1563,608.5568,635.7396,608.4134,625.3229,609.328,614.9063,608.4362,604.4896,608.2608,594.0729,608.6182,594.1032,608.6914,593.3951,608.1602,592.8254,607.9635,592.3914,608.0941,591.7738,607.7816,591.1266,607.3978,591.3623,607.4954,590.7793,606.7658,590.7409,606.2617,590.5838,605.7085,589.9988,604.978,589.9063,604.4515,589.8064,604.4515,590.0375,593.8727,590.5852,583.2939,589.9019,572.7151,590.3881,562.1363,589.3294,551.5575,589.2008,540.9787,590.4308,530.3999,589.1594,519.8211,590.4364,509.2423,590.1215,498.6635,589.6272,488.0847,589.5377,477.5059,589.9063,466.9271,590.0534,466.988,590.0543,466.2981,590.5843,465.8272,590.4612,465.0859,591.0806,464.6521,591.1266,463.9808,591.191,464.1362,591.7484,463.8153,592.3114,463.5078,592.991,463.4817,593.5652,463.2013,594.0729,462.7604" style="stroke:#333333;stroke-width:1.0416666666666667;"/><polygon fill="none" points="634.1825,482.3799,632.6556,484.4663,630.8496,487.522,628.2667,489.5814,625.5524,490.7076,623.3883,490.8053,620.6067,489.3969,617.9822,488.4768,615.9901,486.6087,614.9451,484.47,614.3254,482.7672,613.7183,480.5429,612.7329,478.6288,613.4902,476.76,614.1536,474.7129,616.6433,473.0938,618.3949,470.9931,620.5629,470.2955,623.1403,469.6947,626.4455,470.0516,628.2558,470.9054,630.3605,471.2924,632.9197,473.9144,633.8118,476.6823,634.1994,478.571,633.7604,481.6832" style="stroke:#2E2E2E;stroke-width:1.0416666666666667;"/><path d="M625.6126,484.2733 Q625.1895,484.4849 624.7174,484.5988 Q624.2454,484.7127 623.7409,484.7127 Q621.8854,484.7127 620.9089,483.5083 Q619.9486,482.2876 619.9486,479.9927 Q619.9486,477.6815 620.9089,476.4771 Q621.8854,475.2563 623.7409,475.2563 Q624.2454,475.2563 624.7174,475.3703 Q625.2057,475.4679 625.6126,475.6958 L625.6126,477.6978 Q625.1569,477.2746 624.7174,477.0793 Q624.278,476.8677 623.8223,476.8677 Q622.8294,476.8677 622.3249,477.6652 Q621.8203,478.4465 621.8203,479.9927 Q621.8203,481.5226 622.3249,482.3039 Q622.8294,483.0851 623.8223,483.0851 Q624.278,483.0851 624.7174,482.8898 Q625.1569,482.6945 625.6126,482.2713 L625.6126,484.2733 Z " fill="#2E2E2E"/><text fill="#555555" font-family="Segoe Print" font-size="11.4583" lengthAdjust="spacing" textLength="17.7083" x="646.7292" y="483.813">IdP</text><path d="M590.9479,496.932 L590.9479,497.2239 L600.9479,496.3565 L610.9479,497.2004 L620.9479,497.4871 L630.9479,495.9411 L640.9479,496.824 L650.9479,496.3396 L660.9479,496.3993 L670.9479,496.8373 L680.9479,495.9717 L690.9479,496.932 " fill="none" style="stroke:#333333;stroke-width:1.0416666666666667;"/><path d="M590.9479,505.2653 L590.9479,505.5572 L600.9479,504.6899 L610.9479,505.5338 L620.9479,505.8204 L630.9479,504.2745 L640.9479,505.1574 L650.9479,504.6729 L660.9479,504.7327 L670.9479,505.1706 L680.9479,504.3051 L690.9479,505.2653 " fill="none" style="stroke:#333333;stroke-width:1.0416666666666667;"/><polygon fill="none" points="604.5068,523.632,604.0488,524.2579,603.507,525.1747,602.7321,525.7925,601.9178,526.1303,601.2686,526.1596,600.4341,525.7371,599.6467,525.4611,599.0491,524.9007,598.7356,524.2591,598.5497,523.7482,598.3676,523.0809,598.072,522.5067,598.2991,521.9461,598.4982,521.3319,599.2451,520.8462,599.7705,520.216,600.4209,520.0067,601.1942,519.8265,602.1857,519.9335,602.7288,520.1897,603.3602,520.3058,604.128,521.0924,604.3956,521.9227,604.5119,522.4893,604.3802,523.423" style="stroke:#2E2E2E;stroke-width:1.0416666666666667;"/><text fill="#555555" font-family="Segoe Print" font-size="11.4583" lengthAdjust="spacing" textLength="54.1667" x="614.9063" y="525.2762">&#35748;&#35777;&#29992;&#25143;()</text><polygon fill="none" points="604.5068,547.3869,604.0488,548.0128,603.507,548.9295,602.7321,549.5474,601.9178,549.8852,601.2686,549.9145,600.4341,549.492,599.6467,549.216,599.0491,548.6555,598.7356,548.0139,598.5497,547.5031,598.3676,546.8358,598.072,546.2616,598.2991,545.7009,598.4982,545.0868,599.2451,544.6011,599.7705,543.9709,600.4209,543.7616,601.1942,543.5814,602.1857,543.6884,602.7288,543.9446,603.3602,544.0607,604.128,544.8472,604.3956,545.6776,604.5119,546.2442,604.3802,547.1779" style="stroke:#2E2E2E;stroke-width:1.0416666666666667;"/><text fill="#555555" font-family="Segoe Print" font-size="11.4583" lengthAdjust="spacing" textLength="65.625" x="614.9063" y="549.0311">&#21457;&#24067;&#25480;&#26435;&#30721;()</text><polygon fill="none" points="604.5068,571.1418,604.0488,571.7677,603.507,572.6844,602.7321,573.3022,601.9178,573.6401,601.2686,573.6694,600.4341,573.2469,599.6467,572.9709,599.0491,572.4104,598.7356,571.7688,598.5497,571.258,598.3676,570.5907,598.072,570.0165,598.2991,569.4558,598.4982,568.8417,599.2451,568.356,599.7705,567.7257,600.4209,567.5165,601.1942,567.3362,602.1857,567.4433,602.7288,567.6994,603.3602,567.8155,604.128,568.6021,604.3956,569.4325,604.5119,569.9991,604.3802,570.9328" style="stroke:#2E2E2E;stroke-width:1.0416666666666667;"/><text fill="#555555" font-family="Segoe Print" font-size="11.4583" lengthAdjust="spacing" textLength="54.1667" x="614.9063" y="572.7859">&#21457;&#24067;&#20196;&#29260;()</text><polygon fill="none" points="604.5068,594.8967,604.0488,595.5226,603.507,596.4393,602.7321,597.0571,601.9178,597.395,601.2686,597.4243,600.4341,597.0018,599.6467,596.7257,599.0491,596.1653,598.7356,595.5237,598.5497,595.0128,598.3676,594.3456,598.072,593.7713,598.2991,593.2107,598.4982,592.5966,599.2451,592.1108,599.7705,591.4806,600.4209,591.2713,601.1942,591.0911,602.1857,591.1982,602.7288,591.4543,603.3602,591.5704,604.128,592.357,604.3956,593.1874,604.5119,593.754,604.3802,594.6877" style="stroke:#2E2E2E;stroke-width:1.0416666666666667;"/><text fill="#555555" font-family="Segoe Print" font-size="11.4583" lengthAdjust="spacing" textLength="54.1667" x="614.9063" y="596.5408">&#39564;&#35777;&#20196;&#29260;()</text></g><!--class Client--><g id="elem_Client"><polygon fill="none" points="457.6146,228.3542,457.6146,228.5731,468.2049,227.9226,478.7951,228.5555,489.3854,228.7705,499.9757,227.611,510.566,228.2732,521.1563,227.9099,531.7465,227.9547,542.3368,228.2832,552.9271,227.634,563.5174,228.9309,574.1076,227.6976,584.6979,228.3542,584.6716,228.2907,585.3446,228.7368,585.865,228.8148,586.4748,229.1083,587.0507,229.3202,587.6442,229.5746,587.7015,229.5983,587.965,230.1956,588.3202,230.8309,588.5917,231.4315,588.8384,232.0218,588.8646,232.5208,589.1298,232.5208,589.3475,243.0996,589.5961,253.6784,588.1133,264.2572,589.5714,274.836,588.5557,285.4148,589.4206,295.9936,588.3489,306.5724,588.7932,317.1512,589.6371,327.73,588.8138,338.3088,588.9743,348.8876,589.2173,359.4664,588.8646,370.0452,588.9981,370.1006,588.6193,370.634,588.4686,371.2619,587.9487,371.737,587.9795,372.4401,587.6442,372.9915,587.717,373.1674,587.114,373.3782,586.5471,373.6763,585.8122,373.5688,585.2005,373.7586,584.6979,374.2119,584.6979,373.5646,574.1076,374.1506,563.5174,374.0072,552.9271,374.9217,542.3368,374.03,531.7465,373.8546,521.1563,374.4497,510.566,373.5173,499.9757,373.6712,489.3854,374.8879,478.7951,374.6657,468.2049,374.977,457.6146,374.2119,457.5718,374.1087,457.0677,374.0702,456.5145,373.9132,455.784,373.3281,455.2448,373.2049,454.6683,372.9915,454.7087,373.0083,454.6333,372.4889,454.1788,371.8125,454.0845,371.2852,453.5143,370.5609,453.4479,370.0452,452.7424,370.0452,453.9725,359.4664,452.7011,348.8876,453.9781,338.3088,453.6632,327.73,453.1688,317.1512,453.0794,306.5724,453.9258,295.9936,453.1361,285.4148,454.0644,274.836,452.8721,264.2572,454.0911,253.6784,453.9524,243.0996,453.4479,232.5208,453.5265,232.5534,453.7071,231.9379,454.1692,231.4389,454.377,230.8346,454.4785,230.1863,454.6683,229.5746,454.7039,229.6606,455.2403,229.2887,455.942,229.3162,456.4567,228.892,457.0483,228.6536,457.6146,228.3542" style="stroke:#333333;stroke-width:1.0416666666666667;"/><polygon fill="none" points="505.693,247.9737,504.1661,250.06,502.36,253.1158,499.7771,255.1752,497.0629,256.3013,494.8987,256.3991,492.1171,254.9906,489.4926,254.0705,487.5005,252.2024,486.4556,250.0638,485.8359,248.3609,485.2288,246.1366,484.2434,244.2226,485.0006,242.3538,485.664,240.3066,488.1537,238.6876,489.9053,236.5868,492.0733,235.8892,494.6507,235.2885,497.9559,235.6454,499.7662,236.4992,501.8709,236.8861,504.4301,239.5081,505.3222,242.2761,505.7098,244.1647,505.2708,247.2769" style="stroke:#2E2E2E;stroke-width:1.0416666666666667;"/><path d="M497.123,249.867 Q496.6999,250.0786 496.2279,250.1925 Q495.7559,250.3065 495.2513,250.3065 Q493.3958,250.3065 492.4193,249.1021 Q491.459,247.8813 491.459,245.5864 Q491.459,243.2752 492.4193,242.0708 Q493.3958,240.8501 495.2513,240.8501 Q495.7559,240.8501 496.2279,240.964 Q496.7161,241.0617 497.123,241.2896 L497.123,243.2915 Q496.6673,242.8683 496.2279,242.673 Q495.7884,242.4614 495.3327,242.4614 Q494.3398,242.4614 493.8353,243.259 Q493.3307,244.0402 493.3307,245.5864 Q493.3307,247.1164 493.8353,247.8976 Q494.3398,248.6789 495.3327,248.6789 Q495.7884,248.6789 496.2279,248.4836 Q496.6673,248.2882 497.123,247.8651 L497.123,249.867 Z " fill="#2E2E2E"/><text fill="#555555" font-family="Segoe Print" font-size="11.4583" lengthAdjust="spacing" textLength="33.3333" x="520.0104" y="249.4067">Client</text><path d="M454.4896,262.5257 L454.4896,262.8176 L464.746,261.9503 L475.0024,262.7942 L485.2588,263.0808 L495.5152,261.5349 L505.7716,262.4178 L516.028,261.9334 L526.2845,261.9931 L536.5409,262.4311 L546.7973,261.5655 L557.0537,263.2947 L567.3101,261.6503 L577.5665,262.251 L587.8229,262.5257 " fill="none" style="stroke:#333333;stroke-width:1.0416666666666667;"/><path d="M454.4896,270.859 L454.4896,271.151 L464.746,270.2836 L475.0024,271.1275 L485.2588,271.4142 L495.5152,269.8682 L505.7716,270.7511 L516.028,270.2667 L526.2845,270.3264 L536.5409,270.7644 L546.7973,269.8988 L557.0537,271.628 L567.3101,269.9837 L577.5665,270.5844 L587.8229,270.859 " fill="none" style="stroke:#333333;stroke-width:1.0416666666666667;"/><polygon fill="none" points="468.0485,289.2258,467.5904,289.8517,467.0486,290.7684,466.2738,291.3862,465.4595,291.7241,464.8102,291.7534,463.9758,291.3309,463.1884,291.0548,462.5908,290.4944,462.2773,289.8528,462.0914,289.3419,461.9093,288.6747,461.6136,288.1005,461.8408,287.5398,462.0398,286.9257,462.7867,286.4399,463.3122,285.8097,463.9626,285.6004,464.7358,285.4202,465.7274,285.5273,466.2705,285.7834,466.9019,285.8995,467.6697,286.6861,467.9373,287.5165,468.0536,288.0831,467.9219,289.0168" style="stroke:#2E2E2E;stroke-width:1.0416666666666667;"/><text fill="#555555" font-family="Segoe Print" font-size="11.4583" lengthAdjust="spacing" textLength="98.9583" x="478.4479" y="290.8699">&#37325;&#23450;&#21521;&#29992;&#25143;&#21040; IdP()</text><polygon fill="none" points="468.0485,312.9807,467.5904,313.6066,467.0486,314.5233,466.2738,315.1411,465.4595,315.479,464.8102,315.5083,463.9758,315.0858,463.1884,314.8097,462.5908,314.2493,462.2773,313.6077,462.0914,313.0968,461.9093,312.4295,461.6136,311.8553,461.8408,311.2947,462.0398,310.6805,462.7867,310.1948,463.3122,309.5646,463.9626,309.3553,464.7358,309.1751,465.7274,309.2822,466.2705,309.5383,466.9019,309.6544,467.6697,310.441,467.9373,311.2714,468.0536,311.838,467.9219,312.7716" style="stroke:#2E2E2E;stroke-width:1.0416666666666667;"/><text fill="#555555" font-family="Segoe Print" font-size="11.4583" lengthAdjust="spacing" textLength="65.625" x="478.4479" y="314.6248">&#22788;&#29702;&#25480;&#26435;&#30721;()</text><polygon fill="none" points="468.0485,336.7355,467.5904,337.3614,467.0486,338.2782,466.2738,338.896,465.4595,339.2338,464.8102,339.2632,463.9758,338.8406,463.1884,338.5646,462.5908,338.0042,462.2773,337.3626,462.0914,336.8517,461.9093,336.1844,461.6136,335.6102,461.8408,335.0496,462.0398,334.4354,462.7867,333.9497,463.3122,333.3195,463.9626,333.1102,464.7358,332.93,465.7274,333.0371,466.2705,333.2932,466.9019,333.4093,467.6697,334.1959,467.9373,335.0263,468.0536,335.5929,467.9219,336.5265" style="stroke:#2E2E2E;stroke-width:1.0416666666666667;"/><text fill="#555555" font-family="Segoe Print" font-size="11.4583" lengthAdjust="spacing" textLength="54.1667" x="478.4479" y="338.3797">&#35831;&#27714;&#20196;&#29260;()</text><polygon fill="none" points="468.0485,360.4904,467.5904,361.1163,467.0486,362.0331,466.2738,362.6509,465.4595,362.9887,464.8102,363.018,463.9758,362.5955,463.1884,362.3195,462.5908,361.7591,462.2773,361.1175,462.0914,360.6066,461.9093,359.9393,461.6136,359.3651,461.8408,358.8045,462.0398,358.1903,462.7867,357.7046,463.3122,357.0744,463.9626,356.8651,464.7358,356.6849,465.7274,356.7919,466.2705,357.0481,466.9019,357.1642,467.6697,357.9508,467.9373,358.7811,468.0536,359.3477,467.9219,360.2814" style="stroke:#2E2E2E;stroke-width:1.0416666666666667;"/><text fill="#555555" font-family="Segoe Print" font-size="11.4583" lengthAdjust="spacing" textLength="54.1667" x="478.4479" y="362.1346">&#20351;&#29992;&#20196;&#29260;()</text></g><!--class EndUser--><g id="elem_EndUser"><polygon fill="none" points="712.8229,17.7083,712.8229,17.9273,723.2396,17.2767,733.6563,17.9097,744.0729,18.1247,754.4896,16.9652,764.9063,17.6274,775.3229,17.2641,785.7396,17.3089,796.1563,17.6373,806.5729,17.7083,806.4811,17.4865,807.2357,18.13,807.6677,17.9943,808.3144,18.3771,808.9873,18.8232,809.5192,18.9287,809.4917,18.9173,809.7852,19.527,809.9971,20.103,810.3087,20.7202,810.5722,21.3175,810.7396,21.875,811.3497,21.875,811.4386,32.2177,811.4471,42.5604,811.0048,52.9031,811.2225,63.2457,811.4711,73.5884,809.9883,83.9311,811.4464,94.2738,810.4307,104.6165,811.2956,114.9592,810.2239,125.3018,810.7396,135.6445,810.7176,135.6354,810.7334,136.3323,810.2358,136.8166,810.0411,137.4263,809.8719,138.0465,809.5192,138.5908,809.5745,138.7243,808.9294,138.8336,808.3788,139.1711,807.6754,139.1394,807.2,139.6583,806.5729,139.8112,806.5729,140.3822,796.1563,140.2743,785.7396,140.4498,775.3229,139.308,764.9063,139.1318,754.4896,139.1639,744.0729,139.7499,733.6563,139.6065,723.2396,140.521,712.8229,139.8112,712.7997,139.7552,712.1881,139.4571,711.6747,139.3963,710.9665,138.865,710.3969,138.6684,709.8766,138.5908,710.0848,138.677,709.7723,138.0594,709.6241,137.5099,709.0412,136.7803,709.0027,136.2762,708.6563,135.6445,709.2713,135.6445,708.1642,125.3018,708.5564,114.9592,708.7875,104.6165,709.3352,94.2738,708.6519,83.9311,709.1381,73.5884,708.0794,63.2457,707.9508,52.9031,709.1808,42.5604,707.9094,32.2177,708.6563,21.875,708.8195,21.9426,708.9666,21.3132,709.0585,20.6609,709.275,20.0602,709.7797,19.5789,709.8766,18.9287,709.8369,18.8327,710.5445,18.8745,710.9817,18.2633,711.7264,18.3946,712.298,18.1078,712.8229,17.7083" style="stroke:#333333;stroke-width:1.0416666666666667;"/><polygon fill="none" points="738.4013,37.3279,736.8744,39.4142,735.0684,42.47,732.4854,44.5293,729.7712,45.6555,727.607,45.7532,724.8255,44.3448,722.2009,43.4247,720.2088,41.5566,719.1639,39.4179,718.5442,37.7151,717.9371,35.4908,716.9517,33.5768,717.7089,31.7079,718.3723,29.6608,720.862,28.0417,722.6136,25.941,724.7816,25.2434,727.359,24.6426,730.6642,24.9996,732.4745,25.8533,734.5793,26.2403,737.1384,28.8623,738.0306,31.6302,738.4182,33.5189,737.9791,36.6311" style="stroke:#2E2E2E;stroke-width:1.0416666666666667;"/><path d="M729.8314,39.2212 Q729.4082,39.4328 728.9362,39.5467 Q728.4642,39.6606 727.9596,39.6606 Q726.1042,39.6606 725.1276,38.4562 Q724.1673,37.2355 724.1673,34.9406 Q724.1673,32.6294 725.1276,31.425 Q726.1042,30.2043 727.9596,30.2043 Q728.4642,30.2043 728.9362,30.3182 Q729.4245,30.4159 729.8314,30.6437 L729.8314,32.6457 Q729.3757,32.2225 728.9362,32.0272 Q728.4967,31.8156 728.041,31.8156 Q727.0482,31.8156 726.5436,32.6131 Q726.0391,33.3944 726.0391,34.9406 Q726.0391,36.4705 726.5436,37.2518 Q727.0482,38.033 728.041,38.033 Q728.4967,38.033 728.9362,37.8377 Q729.3757,37.6424 729.8314,37.2192 L729.8314,39.2212 Z " fill="#2E2E2E"/><text fill="#555555" font-family="Segoe Print" font-size="11.4583" lengthAdjust="spacing" textLength="50" x="747.7188" y="38.7609">EndUser</text><path d="M709.6979,51.8799 L709.6979,52.1718 L719.6979,51.3044 L729.6979,52.1483 L739.6979,52.435 L749.6979,50.8891 L759.6979,51.7719 L769.6979,51.2875 L779.6979,51.3472 L789.6979,51.7852 L799.6979,50.9196 L809.6979,51.8799 " fill="none" style="stroke:#333333;stroke-width:1.0416666666666667;"/><path d="M709.6979,60.2132 L709.6979,60.5051 L719.6979,59.6378 L729.6979,60.4817 L739.6979,60.7683 L749.6979,59.2224 L759.6979,60.1053 L769.6979,59.6209 L779.6979,59.6806 L789.6979,60.1186 L799.6979,59.253 L809.6979,60.2132 " fill="none" style="stroke:#333333;stroke-width:1.0416666666666667;"/><polygon fill="none" points="723.2568,78.5799,722.7988,79.2058,722.257,80.1226,721.4821,80.7404,720.6678,81.0782,720.0186,81.1076,719.1841,80.685,718.3967,80.409,717.7991,79.8486,717.4856,79.207,717.2997,78.6961,717.1176,78.0288,716.822,77.4546,717.0491,76.894,717.2482,76.2798,717.9951,75.7941,718.5205,75.1639,719.1709,74.9546,719.9442,74.7744,720.9357,74.8815,721.4788,75.1376,722.1102,75.2537,722.878,76.0403,723.1456,76.8707,723.2619,77.4373,723.1302,78.3709" style="stroke:#2E2E2E;stroke-width:1.0416666666666667;"/><text fill="#555555" font-family="Segoe Print" font-size="11.4583" lengthAdjust="spacing" textLength="54.1667" x="733.6563" y="80.2241">&#25552;&#20379;&#20973;&#35777;()</text><polygon fill="none" points="723.2568,102.3348,722.7988,102.9607,722.257,103.8775,721.4821,104.4953,720.6678,104.8331,720.0186,104.8624,719.1841,104.4399,718.3967,104.1639,717.7991,103.6035,717.4856,102.9619,717.2997,102.451,717.1176,101.7837,716.822,101.2095,717.0491,100.6489,717.2482,100.0347,717.9951,99.549,718.5205,98.9188,719.1709,98.7095,719.9442,98.5293,720.9357,98.6363,721.4788,98.8925,722.1102,99.0086,722.878,99.7952,723.1456,100.6255,723.2619,101.1921,723.1302,102.1258" style="stroke:#2E2E2E;stroke-width:1.0416666666666667;"/><text fill="#555555" font-family="Segoe Print" font-size="11.4583" lengthAdjust="spacing" textLength="65.625" x="733.6563" y="103.979">&#25480;&#26435;&#23458;&#25143;&#31471;()</text><polygon fill="none" points="723.2568,126.0897,722.7988,126.7156,722.257,127.6323,721.4821,128.2502,720.6678,128.588,720.0186,128.6173,719.1841,128.1948,718.3967,127.9188,717.7991,127.3583,717.4856,126.7167,717.2997,126.2059,717.1176,125.5386,716.822,124.9644,717.0491,124.4037,717.2482,123.7896,717.9951,123.3039,718.5205,122.6737,719.1709,122.4644,719.9442,122.2841,720.9357,122.3912,721.4788,122.6474,722.1102,122.7635,722.878,123.55,723.1456,124.3804,723.2619,124.947,723.1302,125.8807" style="stroke:#2E2E2E;stroke-width:1.0416666666666667;"/><text fill="#555555" font-family="Segoe Print" font-size="11.4583" lengthAdjust="spacing" textLength="54.1667" x="733.6563" y="127.7339">&#35775;&#38382;&#36164;&#28304;()</text></g><!--reverse link EndUser to IdP--><!--link IdP to EndUser--><g id="link_IdP_EndUser"><path d="M692.1771,528.1979 L692.1908,528.2943 L695.8623,527.4791 L699.6142,527.2286 L703.3399,526.7943 L706.9795,525.7552 L710.7383,525.5533 L710.733,525.5177 L714.8077,524.7384 L718.9095,524.1385 L723.0301,523.6633 L727.0859,522.7584 L731.2325,522.4553 L731.2733,522.7084 L735.5983,521.457 L740.0423,520.9444 L744.5008,520.522 L748.8749,519.5751 L753.2933,518.9041 L753.2987,518.9352 L757.943,518.0886 L762.6118,517.3837 L767.2687,516.6105 L771.9482,515.9677 L776.5544,514.8996 L776.6109,515.2051 L781.4305,514.3173 L786.2138,513.2324 L791.0503,512.436 L795.8894,511.6531 L800.6492,510.4419 L800.5838,510.1145 L805.6233,509.7678 L810.4473,508.343 L815.4351,507.7378 L820.2542,506.2885 L825.2116,505.5311 L825.2049,505.5001 L830.2173,504.7938 L835.0722,503.3635 L840.0201,502.3604 L844.9758,501.3932 L849.8751,500.1672 L849.9198,500.3547 L854.7544,499.0021 L859.6653,497.9698 L864.4527,496.4193 L869.4243,495.6417 L874.2734,494.3503 L874.3366,494.5961 L876.7217,493.9339 L879.1381,493.3938 L881.4089,492.2866 L883.7865,491.5951 L886.2586,491.2719 L886.1834,490.9942 L888.6078,490.6073 L890.9474,489.9074 L893.41,489.6614 L895.6627,488.6406 L898.0401,488.0803 L897.9964,487.9276 L900.3757,487.5209 L902.5679,486.4616 L904.8931,485.8664 L907.3485,485.7253 L909.5721,484.7755 L909.6308,484.9684 L911.9185,484.4172 L914.0235,483.2657 L916.3572,482.866 L918.6411,482.3025 L920.8089,481.3574 L920.7414,481.1493 L922.9743,480.6089 L925.1851,480.0004 L927.4393,479.5257 L929.5248,478.5305 L931.7045,477.8261 L931.7747,478.0284 L933.7223,476.855 L935.8053,476.0721 L938.0862,475.8597 L940.0028,474.5969 L942.2133,474.1816 L942.2956,474.4024 L944.262,473.5197 L946.2004,472.5623 L948.2017,471.7735 L950.3484,471.3744 L952.2894,470.4238 L952.2376,470.2953 L954.3114,469.9038 L956.0327,468.6381 L958.1549,468.3664 L960.0514,467.535 L961.887,466.5529 L961.9344,466.6559 L965.4115,464.9565 L969.0582,463.6259 L972.5517,461.9621 L975.9811,460.1589 L979.4637,458.4714 L979.5248,458.5795 L982.4567,456.712 L985.6721,455.3465 L988.567,453.4133 L991.5937,451.7135 L994.577,449.9371 L994.4107,449.7098 L996.923,447.9883 L999.6355,446.5406 L1002.0646,444.7055 L1004.3921,442.7315 L1006.8605,440.9501 L1006.7531,440.8467 L1008.605,438.9919 L1010.2666,436.9539 L1012.4513,435.4195 L1014.3771,433.6358 L1015.9479,431.5104 L1016.1437,431.6556 L1017.4787,429.9864 L1018.4418,428.0413 L1019.7975,426.3874 L1020.8933,424.5407 L1022.3098,422.9319 L1022.4175,423.0073 L1023.5899,421.3017 L1024.8923,419.6871 L1025.7822,417.7838 L1027.0048,416.1133 L1028.2423,414.4533 L1028.4157,414.5632 L1030.581,411.2567 L1032.2758,407.6517 L1034.5173,404.3935 L1036.7684,401.1414 L1038.8269,397.7671 L1038.5784,397.6322 L1040.7487,394.5707 L1042.4879,391.2751 L1044.1199,387.9214 L1045.9968,384.7006 L1047.7169,381.3947 L1048.0249,381.5325 L1049.0268,378.1124 L1050.7342,375.0079 L1052.1639,371.7792 L1053.5342,368.5239 L1054.9274,365.2788 L1054.989,365.3003 L1056.0862,362.1128 L1056.873,358.8171 L1058.0798,355.6678 L1059.1625,352.4752 L1060.4734,349.3622 L1060.5021,349.3693 L1061.2924,346.2171 L1062.1048,343.0703 L1062.6807,339.8651 L1063.5605,336.735 L1064.3702,333.5876 L1064.3151,333.5797 L1065.087,330.4878 L1065.4706,327.3399 L1065.5052,324.1417 L1066.1467,321.031 L1066.6327,317.8979 L1066.3656,317.8869 L1066.8947,314.7709 L1067.1715,311.6446 L1067.2706,308.5109 L1066.9459,305.3598 L1067.276,302.2357 L1067.4904,302.2488 L1066.7407,299.0763 L1066.9843,295.9646 L1066.5614,292.8121 L1066.5522,289.6849 L1066.3154,286.5438 L1066.4253,286.5616 L1066.0213,283.4229 L1064.9666,280.1792 L1065.003,277.1117 L1064.3572,273.934 L1063.7659,270.7651 L1063.9252,270.8063 L1063.2764,267.6673 L1062.119,264.3966 L1061.3705,261.2317 L1060.5629,258.0515 L1059.6426,254.8422 L1059.7287,254.8725 L1058.5059,251.6172 L1057.6801,248.5018 L1055.9672,245.0738 L1055.3438,242.0298 L1053.9606,238.7179 L1053.6963,238.6014 L1052.2866,235.3404 L1051.0873,232.1723 L1049.6372,228.8935 L1047.9714,225.5196 L1046.735,222.3351 L1046.9047,222.424 L1045.0289,219.0187 L1043.5314,215.8118 L1041.7562,212.4593 L1039.548,208.8798 L1037.981,205.6364 L1037.8231,205.5414 L1035.8763,202.1912 L1034.0151,198.8925 L1031.9804,195.4895 L1029.8865,192.0508 L1027.7136,188.5646 L1027.5812,188.4778 L1026.8207,186.9873 L1025.6804,185.2479 L1024.2774,183.3364 L1023.0638,181.549 L1022.0171,179.8709 L1021.8641,179.7655 L1020.7215,178.0529 L1019.6418,176.3836 L1018.3495,174.5679 L1017.0025,172.7144 L1015.9479,171.0625 L1016.1257,171.2015 L1013.9398,168.5777 L1012.4497,166.4979 L1010.5816,164.1226 L1008.7207,161.7529 L1006.7444,159.2929 L1006.9769,159.5136 L1004.6304,157.0734 L1002.5807,154.9149 L1000.8246,153.0348 L998.4185,150.5382 L996.5876,148.5872 L996.516,148.5059 L994.4235,146.6888 L992.2097,144.7341 L989.8794,142.6473 L987.7765,140.8183 L985.5902,138.8948 L985.7961,139.1713 L983.4244,137.3896 L980.7351,135.1814 L978.5766,133.6861 L976.0677,131.7201 L973.8647,130.165 L973.8581,130.1547 L971.469,128.716 L969.0322,127.2021 L966.2953,125.2144 L964.091,124.0675 L961.5235,122.3473 L961.5253,122.3507 L958.8322,120.73 L956.2819,119.3731 L953.8889,118.3065 L951.3032,116.8841 L948.6792,115.3911 L948.676,115.3842 L945.9012,113.8798 L943.5136,113.2093 L940.6775,111.573 L937.9884,110.2531 L935.4444,109.2458 L935.4329,109.2168 L932.8429,108.4224 L930.1447,107.3565 L927.3427,106.0299 L924.6082,104.8728 L921.9315,103.8608 L921.9569,103.9352 L919.2237,103.0073 L916.3841,101.7682 L913.7864,101.237 L911.0724,100.3654 L908.2531,99.1855 L908.225,99.0896 L905.451,98.1916 L902.8482,97.8788 L900.017,96.7852 L897.2679,95.9725 L894.5217,95.1694 L894.5551,95.3037 L891.715,94.1978 L889.1122,94.0444 L886.3168,93.1179 L883.659,92.7437 L880.8498,91.7617 L880.8291,91.664 L878.1889,91.3771 L875.4074,90.4208 L872.7733,90.1629 L870.0861,89.6538 L867.3499,88.9121 L867.3235,88.7628 L864.7362,88.6091 L862.0176,87.7146 L859.3827,87.2922 L856.8328,87.3495 L854.1346,86.5697 L854.1807,86.8832 L851.6093,86.453 L848.983,85.6505 L846.4696,85.6144 L843.8482,84.8451 L841.3164,84.6842 L841.3196,84.7109 L838.8546,84.3877 L836.3785,83.9718 L833.9653,84.0797 L831.494,83.7044 L829.0078,83.2048 L828.9936,83.057 L826.6938,83.2227 L824.3373,82.7976 L821.9701,82.2616 L819.6483,82.1982 L817.3213,82.081 " fill="none" style="stroke:#333333;stroke-width:3.125;"/><polygon fill="#333333" points="811.0938,81.5521,811.1289,81.616,812.8222,82.415,814.7216,83.5889,816.5539,84.6407,818.1654,85.2911,820.0825,86.4971,820.0619,86.4797,819.2095,85.5008,818.4611,84.6096,817.785,83.7793,816.8597,82.7389,816.2834,81.9928,816.4073,82.1398,817.0432,81.0657,818.0409,80.4207,819.0827,79.828,819.8677,78.9308,820.7877,78.1937,820.7955,78.2161,818.8453,78.8549,816.9304,79.5956,814.9985,80.2872,813.0991,81.0726,811.0938,81.5521" style="stroke:#333333;stroke-width:3.125;"/><text fill="#2E2E2E" font-family="Segoe Print" font-size="12.5" lengthAdjust="spacing" textLength="66.6667" x="1073.2396" y="306.1132">3. &#35748;&#35777;&#29992;&#25143;</text></g><!--link EndUser to IdP--><g id="link_EndUser_IdP"><path d="M795.6354,140.1146 L795.7256,140.1511 L796.7014,143.1108 L798.2058,146.2847 L799.5381,149.3888 L800.3043,152.2634 L801.8542,155.4557 L801.8197,155.4453 L802.6089,158.5199 L803.5717,161.6471 L804.6552,164.8107 L805.3228,167.8485 L806.5729,171.0625 L806.8148,171.1474 L807.4128,174.1414 L808.7168,177.3834 L810.1071,180.6556 L810.9961,183.7518 L812.1487,186.9405 L812.1778,186.9527 L813.8587,191.0527 L815.6722,195.2082 L817.4218,199.3369 L819.2934,203.5168 L820.7669,207.5299 L821.0563,207.643 L822.0027,210.0583 L822.7624,212.4008 L823.7953,214.85 L824.8411,217.3041 L825.481,219.5998 L825.1656,219.4906 L826.6962,222.3542 L827.188,224.858 L828.4695,227.6354 L828.9378,230.1311 L830.0727,232.8577 L830.0422,232.8489 L831.2375,235.8428 L831.7209,238.631 L832.6244,241.5407 L833.5631,244.4605 L834.2474,247.3068 L834.4356,247.3484 L834.9384,250.4351 L835.7627,253.593 L836.0668,256.6357 L837.1468,259.8502 L837.7109,262.9505 L837.9621,262.9872 L838.4062,266.3486 L838.9749,269.7282 L838.9644,273.0233 L839.3785,276.3803 L840.1688,279.7923 L839.8817,279.7738 L840.3732,283.3991 L840.5412,287.0037 L841.1784,290.6383 L841.0145,294.2216 L841.3267,297.8354 L841.168,297.8318 L841.3451,301.6873 L840.8435,305.5275 L840.8246,309.3786 L841.2779,313.2404 L840.8903,317.0832 L841.0907,317.106 L840.7631,321.2128 L839.8122,325.2487 L839.642,329.3734 L839.3017,333.4788 L838.5651,337.5391 L838.35,337.4995 L838.1289,339.6674 L837.8373,341.8224 L837.6842,344.0028 L836.9929,346.0843 L836.6022,348.2211 L836.8109,348.2694 L835.8434,350.3603 L835.2786,352.5444 L835.3021,354.8649 L834.2425,356.9344 L834.0568,359.2064 L834.2837,359.27 L833.516,361.49 L832.6715,363.6885 L832.0002,365.9356 L831.7295,368.2949 L830.892,370.4954 L830.7604,370.452 L830.3881,372.8998 L829.1206,375.0525 L828.8709,377.5407 L828.0482,379.84 L827.071,382.0885 L827.1771,382.1287 L826.1887,384.4757 L825.58,386.9668 L824.6283,389.3278 L823.5332,391.6344 L822.5571,393.9861 L822.6712,394.0351 L821.453,396.4028 L820.7644,398.9981 L819.4768,401.336 L818.4356,403.7797 L817.3134,406.1887 L817.0596,406.0667 L815.9423,408.609 L815.1308,411.2983 L813.8866,413.7796 L812.4873,416.1865 L811.3032,418.6967 L811.1715,418.6266 L809.851,421.2118 L808.2973,423.673 L807.3846,426.4751 L806.1546,429.1084 L804.4896,431.5104 L804.6943,431.6427 L802.7908,434.733 L800.4984,437.572 L798.6165,440.6763 L796.4628,443.605 L794.6446,446.7503 L794.7455,446.8347 L792.4452,449.5601 L790.2668,452.3873 L787.702,454.8917 L785.4488,457.6565 L783.2096,460.4329 L783.3518,460.5809 L780.8471,463.0666 L777.9562,465.1504 L775.5139,467.7011 L773.0795,470.2599 L770.4871,472.6544 L770.3115,472.4327 L767.8472,474.9541 L765.0783,477.0909 L762.2336,479.1321 L759.562,481.3917 L756.7796,483.5115 L756.9666,483.7922 L753.8212,485.3087 L751.1044,487.4684 L748.2188,489.3749 L745.2972,491.2272 L742.3894,493.1004 L742.4217,493.1571 L739.4613,494.8296 L736.3382,496.2163 L733.4353,497.9896 L730.4673,499.6487 L727.6191,501.5178 L727.6322,501.5443 L724.6675,503.0228 L721.713,504.5218 L718.6505,505.8024 L715.7268,507.3635 L712.771,508.86 L712.7488,508.809 L709.9529,510.3776 L707.0005,511.5865 L703.9073,512.472 L701.0589,513.9198 L698.1477,515.2234 " fill="none" style="stroke:#333333;stroke-width:3.125;"/><polygon fill="#333333" points="692.3646,517.5938,692.3667,517.6667,694.4113,517.5099,696.4685,517.7808,698.5215,517.9124,700.5612,517.5861,702.6194,517.8937,702.609,517.8688,701.4751,517.3021,700.3938,516.8608,699.3489,516.5067,698.1783,515.8521,697.1838,515.6185,697.3612,515.6927,697.437,514.4469,698.0306,513.4177,698.6873,512.4151,698.9765,511.2585,699.459,510.1829,699.4761,510.1993,698.0321,511.6574,696.666,513.1901,695.2623,514.6868,693.9304,516.2522,692.3646,517.5938" style="stroke:#333333;stroke-width:3.125;"/><text fill="#2E2E2E" font-family="Segoe Print" font-size="12.5" lengthAdjust="spacing" textLength="66.6667" x="847.1979" y="306.1132">4. &#25552;&#20379;&#20973;&#35777;</text></g><!--reverse link Client to IdP--><!--link Client to IdP--><g id="link_Client_IdP"><path d="M453.0104,301.6354 L453.0116,301.7327 L447.4385,301.5134 L441.8726,301.8644 L436.3043,302.0297 L430.7284,301.5842 L425.163,301.9842 L425.1621,301.9483 L419.0105,301.9472 L412.8636,302.1274 L406.7201,302.4337 L400.5652,302.3056 L394.4261,302.7859 L394.4369,303.042 L387.8493,302.7702 L381.2932,303.2461 L374.7409,303.8133 L368.1663,303.8497 L361.6034,304.1652 L361.6051,304.1968 L358.2141,304.3395 L354.831,304.6259 L351.4441,304.843 L348.0645,305.1922 L344.6609,305.1106 L344.6815,305.4206 L341.2492,305.6517 L337.8037,305.6829 L334.3776,306.0067 L330.9524,306.3443 L327.4984,306.2472 L327.4725,305.9144 L324.0663,306.8291 L320.5748,306.6478 L317.1482,307.2997 L313.6548,307.0936 L310.2161,307.5908 L310.2133,307.5592 L306.7868,308.2459 L303.2935,308.1947 L299.8397,308.579 L296.3891,308.9997 L292.9147,309.1568 L292.9348,309.3485 L289.4705,309.5159 L286.0405,310.0107 L282.555,309.9758 L279.1523,310.7311 L275.6945,310.961 L275.725,311.213 L272.3115,311.5769 L268.9132,312.0659 L265.4446,311.9737 L262.0275,312.3076 L258.656,313.0189 L258.6165,312.734 L255.301,313.4574 L251.941,313.8597 L248.6456,314.7277 L245.2399,314.8006 L241.8997,315.3462 L241.8747,315.1893 L238.6416,315.973 L235.3016,316.0862 L232.0376,316.6762 L228.8481,317.7326 L225.526,317.9584 L225.5623,318.1568 L222.4091,318.8754 L219.1428,318.977 L216.0182,319.8515 L212.8627,320.5575 L209.6353,320.8712 L209.5902,320.6572 L206.5647,321.4736 L203.5245,322.2199 L200.5133,323.1039 L197.3892,323.4526 L194.3281,324.1003 L194.3788,324.3083 L191.3428,324.5633 L188.4047,325.22 L185.6094,326.4633 L182.551,326.6264 L179.7049,327.6611 L179.769,327.8879 L176.9632,328.5348 L174.1357,329.1051 L171.3571,329.8485 L168.6916,330.9921 L165.8661,331.5694 L165.8227,331.4378 L163.3611,332.6839 L160.6044,333.0349 L158.1833,334.4036 L155.5732,335.1994 L152.9122,335.8407 L152.9533,335.9464 L150.5264,336.7911 L148.2466,338.0143 L145.8339,338.8955 L143.3657,339.6337 L140.9436,340.4907 L140.9958,340.6034 L138.7416,341.4448 L136.7299,342.8093 L134.444,343.5823 L132.2709,344.5986 L130.0607,345.535 L129.9226,345.2895 L128.0294,346.4623 L126.3025,347.9308 L124.3403,348.9809 L122.2937,349.881 L120.3641,350.9891 L120.2716,350.8721 L117.2147,353.3497 L113.994,355.6201 L111.2235,358.46 L108.2302,361.0181 L104.9313,363.1896 L105.1332,363.3261 L103.3014,366.1753 L101.0859,368.7651 L99.2753,371.6287 L97.1967,374.3111 L95.4489,377.2171 L95.5785,377.2392 L95.0158,380.4322 L94.6095,383.6518 L93.7069,386.7868 L93.2047,389.9901 L92.7203,393.1964 L92.9187,393.2494 L93.9399,396.8755 L94.4227,400.3575 L95.531,404.0069 L96.6503,407.6592 L97.5494,411.2525 L97.3025,411.1146 L98.7922,413.3015 L99.8535,415.2491 L100.8085,417.1373 L102.0067,419.1614 L103.0491,421.0985 L103.3205,421.2989 L104.4707,423.0948 L106.2426,425.3499 L107.7698,427.4242 L109.2446,429.4599 L110.7396,431.5104 L110.7844,431.5579 L113.5637,434.1798 L116.1173,436.5625 L118.9763,439.2688 L121.745,441.8795 L124.6797,444.6661 L124.6966,444.6903 L126.4657,445.9274 L128.2478,447.1831 L129.8907,448.239 L131.7124,449.5517 L133.4929,450.8051 L133.4647,450.7572 L135.6173,452.2063 L137.5708,453.3175 L139.3454,454.1247 L141.4311,455.4603 L143.4371,456.6605 L143.3163,456.4222 L145.6978,457.8953 L147.9652,459.1431 L150.1522,460.2324 L152.1474,460.9433 L154.4389,462.2389 L154.5259,462.4353 L156.6969,462.986 L159.2709,464.4467 L161.5745,465.2969 L164.0459,466.5261 L166.425,467.5468 L166.4655,467.6504 L169.084,468.7591 L171.4624,469.254 L174.2434,470.7782 L176.7727,471.6589 L179.322,472.5909 L179.3762,472.7462 L182.1829,473.8752 L184.8167,474.508 L187.5895,475.5396 L190.3423,476.5137 L193.0567,477.3778 L193.0839,477.4649 L195.9563,478.2847 L198.9545,479.5063 L201.6717,479.8302 L204.7339,481.2566 L207.5556,481.9141 L207.477,481.6361 L210.5255,482.5319 L213.6365,483.6489 L216.673,484.5022 L219.6454,485.1285 L222.7454,486.2066 L222.793,486.3921 L225.9194,487.0664 L229.1519,488.1545 L232.3065,488.9388 L235.3397,489.2496 L238.5527,490.2617 L238.5108,490.0823 L241.8094,490.9683 L245.1309,491.9517 L248.4062,492.738 L251.6658,493.457 L254.9044,494.0861 L254.8712,493.9313 L258.3305,495.0943 L261.6948,495.8132 L264.9933,496.2249 L268.3392,496.8582 L271.7269,497.6865 L271.691,497.5041 L275.1517,498.2656 L278.6271,499.1021 L282.0528,499.6852 L285.4656,500.203 L288.9469,501.0694 L288.9871,501.2914 L292.418,501.4947 L296.006,502.5671 L299.5087,503.1673 L303.0129,503.7765 L306.4912,504.2415 L306.5439,504.5577 L310.0315,504.7228 L313.5863,505.2914 L317.2078,506.2592 L320.6818,506.3433 L324.2863,507.2094 L324.2698,507.1024 L327.889,507.8163 L331.4802,508.349 L335.0446,508.7076 L338.6614,509.406 L342.2589,509.9798 L342.3076,510.321 L345.9167,510.7929 L349.4506,510.7382 L353.1101,511.5634 L356.6868,511.8077 L360.3357,512.5592 L360.3341,512.5471 L363.975,513.1726 L367.6043,513.7099 L371.16,513.6911 L374.8462,514.659 L378.4434,514.9542 L378.4439,514.9581 L382.0251,515.1425 L385.6429,515.6247 L389.3009,516.4347 L392.9096,516.8429 L396.5085,517.1716 L396.5077,517.164 L403.6164,517.6479 L410.8256,519.0457 L417.9184,519.385 L425.0493,520.0711 L432.2179,521.0997 L432.215,521.0687 L439.1756,522.0309 L446.1086,522.7021 L453.015,523.094 L459.9387,523.6675 L466.8772,524.3965 L466.8837,524.4749 L473.4888,525.0261 L480.0669,525.2496 L486.7064,526.2186 L493.3164,526.8291 L499.8996,527.115 L499.8925,527.0154 L506.0453,527.3554 L512.2413,528.3038 L518.3796,528.4406 L524.5387,528.8694 L530.6984,529.3081 L530.7069,529.4463 L536.2778,529.3539 L541.9089,530.2413 L547.4911,530.3335 L553.1082,530.9938 L558.6869,531.0289 L558.6816,530.9291 L563.6152,531.4783 L568.5126,531.3442 L573.4477,531.923 L578.3693,532.2454 L583.2783,532.3303 " fill="none" style="stroke:#333333;stroke-width:3.125;"/><polygon fill="#333333" points="589.5208,532.6354,589.5537,532.7006,587.624,531.5831,585.8869,530.8476,584.0871,529.9877,582.081,528.7187,580.3604,528.016,580.3404,527.9979,581.0424,528.7896,581.8451,529.6726,582.7179,530.6192,583.3492,531.3469,584.3187,532.3812,584.4478,532.5236,583.2987,533.0107,582.5265,533.9136,581.8004,534.8672,580.8066,535.5257,579.9536,536.3394,579.9622,536.3615,581.863,535.5883,583.8029,534.9156,585.7239,534.1945,587.6808,533.5659,589.5208,532.6354" style="stroke:#333333;stroke-width:3.125;"/><text fill="#2E2E2E" font-family="Segoe Print" font-size="12.5" lengthAdjust="spacing" textLength="129.1667" x="116.9896" y="423.3215">2. &#37325;&#23450;&#21521;&#36827;&#34892;&#36523;&#20221;&#35748;&#35777;</text></g><!--link IdP to Client--><g id="link_IdP_Client"><path d="M623.125,462.4583 L623.2174,462.489 L621.9834,459.5064 L621.2909,456.7034 L620.422,453.8419 L618.9734,450.788 L618.3273,448.0005 L618.2936,447.988 L617.0629,445.0236 L616.0023,442.1224 L615.0599,439.265 L613.7102,436.2564 L612.931,433.4596 L613.1673,433.5589 L611.462,430.4889 L610.4466,427.7086 L609.5155,424.9637 L608.0945,422.0131 L606.9312,419.1707 L606.9596,419.1845 L605.5962,416.4239 L604.3623,413.7258 L603.0659,410.9976 L601.8888,408.3269 L600.3229,405.4688 L600.5958,405.6172 L599.1841,403.0169 L597.5963,400.3209 L596.2663,397.7651 L594.9483,395.2158 L593.2476,392.4584 L592.9668,392.2778 L591.8764,390.0856 L589.8614,387.2988 L588.5493,384.964 L586.5133,382.1637 L585.0707,379.7449 " fill="none" style="stroke:#333333;stroke-width:3.125;"/><polygon fill="#333333" points="581.5313,374.5938,581.603,374.6071,581.7648,376.5847,582.3472,378.6406,582.7927,380.671,582.7877,382.6176,583.4063,384.6802,583.3797,384.6753,583.4756,383.4944,583.7052,382.3384,584.0277,381.1996,584.0298,380.0014,584.4808,378.8864,584.5158,379.0754,585.5996,378.8861,586.7858,379.2487,587.9844,379.6786,589.1104,379.7167,590.2745,379.9609,590.2869,379.9811,588.5201,378.878,586.8097,377.8669,585.072,376.8114,583.3863,375.8405,581.5313,374.5938" style="stroke:#333333;stroke-width:3.125;"/><text fill="#2E2E2E" font-family="Segoe Print" font-size="12.5" lengthAdjust="spacing" textLength="79.1667" x="616.9896" y="423.3215">5. &#36820;&#22238;&#25480;&#26435;&#30721;</text></g><!--link Client to IdP--><g id="link_Client_IdP"><path d="M453.0833,313.8333 L453.1038,313.9285 L449.8484,314.332 L446.7129,315.2932 L443.5383,316.0728 L440.2355,316.2552 L437.1102,317.2643 L437.102,317.2293 L433.742,317.8538 L430.4235,318.6549 L427.134,319.5788 L423.7449,320.0797 L420.4952,321.173 L420.5595,321.4211 L417.0325,321.7698 L413.6934,322.8428 L410.3772,324.0043 L406.9276,324.6515 L403.5482,325.5692 L403.557,325.5995 L400.1503,326.5336 L396.7835,327.6059 L393.3975,328.6116 L390.0482,329.7444 L386.5793,330.4626 L386.675,330.7581 L383.3399,331.8418 L379.9432,332.7349 L376.6368,333.907 L373.3347,335.0922 L369.8984,335.8629 L369.7831,335.5496 L366.7902,337.3411 L363.4178,338.1009 L360.3339,339.6451 L356.9529,340.3815 L353.8155,341.78 L353.8031,341.7508 L350.9147,343.3847 L347.7367,344.3366 L344.7296,345.691 L341.7368,347.0791 L338.6405,348.2235 L338.7267,348.3958 L335.8483,349.6178 L333.1172,351.1343 L330.1478,352.1742 L327.5339,353.925 L324.6836,355.2031 L324.815,355.4202 L322.3044,356.8843 L319.859,358.4561 L317.1104,359.5271 L314.584,360.9653 L312.2546,362.7287 L312.0801,362.5 L310.1199,364.3232 L307.963,365.8888 L306.0913,367.8282 L303.7327,369.1293 L301.6636,370.8099 L301.5499,370.6989 L300.0505,372.613 L298.0654,374.0528 L296.4257,375.8299 L295.124,377.937 L293.2204,379.4564 L293.3896,379.5662 L292.3086,381.4859 L290.7014,383.064 L289.7532,385.0699 L288.6615,386.9825 L287.2352,388.6781 L287.0194,388.6422 L286.52,392.7123 L285.95,396.7706 L285.5188,400.852 L284.5478,404.8438 L283.8784,408.8856 L284.0837,408.9462 L284.2821,411.0141 L284.877,413.199 L286.051,415.5548 L286.1587,417.596 L287.1267,419.891 L287.329,420.0119 L288.5981,422.264 L289.7987,424.4751 L291.1539,426.7786 L292.866,429.2955 L294.0729,431.5104 L293.9714,431.416 L295.9004,433.446 L297.1393,434.834 L299.1628,436.952 L300.7445,438.6589 L302.2072,440.2552 L302.2764,440.345 L304.3979,441.95 L306.7671,443.8766 L308.9125,445.5126 L310.9643,447.0272 L313.0938,448.6426 L313.1578,448.749 L315.7293,450.196 L318.598,452.1369 L321.1305,453.5192 L323.8013,455.1313 L326.4267,456.668 L326.3018,456.4155 L329.4382,458.0316 L332.7251,459.9516 L335.7991,461.4415 L338.7967,462.7771 L341.9003,464.3266 L341.8424,464.1891 L345.3226,465.6907 L348.7003,466.9487 L352.3597,468.8759 L355.8797,470.472 L359.2085,471.6139 L359.2925,471.8427 L363.0868,473.2981 L366.7216,474.3189 L370.5248,475.7985 L374.2165,476.9743 L378.0458,478.525 L378.0875,478.6497 L380.0613,479.296 L382.0855,480.0928 L383.9498,480.4121 L385.9431,481.1165 L387.9421,481.8381 L388.0041,482.0339 L390.0542,482.732 L391.9361,482.8988 L394.0134,483.6829 L396.0941,484.4779 L398.1061,485.0554 L398.0266,484.784 L402.3476,486.4414 L406.5307,487.628 L410.6795,488.6976 L414.9067,490.0346 L419.0837,491.2004 L419.1706,491.5263 L423.3642,492.2114 L427.7569,493.6432 L432.0712,494.781 L436.3687,495.856 L440.6727,496.9552 L440.6882,497.0186 L445.0641,498.0782 L449.3619,498.8185 L453.7654,499.9909 L458.1376,501.0356 L462.5674,502.3152 L462.5739,502.344 L466.9553,503.3471 L471.3417,504.3724 L475.6743,505.1601 L480.0761,506.2531 L484.4619,507.2757 L484.4504,507.2212 L488.8347,508.4482 L493.138,509.2914 L497.3685,509.7895 L501.7256,510.8877 L506.0503,511.8319 L505.9985,511.5698 L510.2715,512.7924 L514.4956,513.7673 L518.6852,514.5677 L522.7925,514.9521 L527.0269,515.9794 L527.0662,516.1905 L530.9757,516.3881 L535.0674,517.564 L539.0369,518.0835 L543.0822,519.0105 L547.0858,519.7132 L547.1051,519.8228 L550.8908,520.5916 L554.5622,520.7112 L558.4252,521.9194 L562.1684,522.447 L565.9212,523.0289 L565.9483,523.1911 L569.4395,523.9489 L572.844,524.1885 L576.3182,524.8445 L579.7823,525.4405 L583.2272,525.9216 " fill="none" style="stroke:#333333;stroke-width:3.125;"/><polygon fill="#333333" points="589.3958,526.9271,589.4358,526.9881,587.6005,525.6826,585.9996,524.735,584.3223,523.6708,582.3941,522.2233,580.8133,521.3064,580.7914,521.2907,581.3815,522.1765,582.082,523.1417,582.8593,524.1623,583.3721,524.9924,584.2553,526.0892,584.3676,526.2452,583.171,526.5999,582.3021,527.4103,581.4733,528.2761,580.4118,528.8186,579.4726,529.5312,579.4786,529.5541,581.4544,528.9997,583.4576,528.5495,585.4476,528.0491,587.4628,527.6446,589.3958,526.9271" style="stroke:#333333;stroke-width:3.125;"/><text fill="#2E2E2E" font-family="Segoe Print" font-size="12.5" lengthAdjust="spacing" textLength="129.1667" x="300.3229" y="423.3215">6. &#20351;&#29992;&#25480;&#26435;&#30721;&#35831;&#27714;&#20196;&#29260;</text></g><!--link IdP to Client--><g id="link_IdP_Client"><path d="M692.3438,486.2708 L692.4215,486.3293 L693.6059,484.2713 L695.2464,482.5559 L696.7384,480.7289 L697.7419,478.535 L699.4215,476.849 L699.3912,476.8297 L700.5134,474.776 L701.7883,472.82 L703.1694,470.932 L704.1845,468.8098 L705.7122,467.0156 L705.9402,467.1329 L706.4957,464.8549 L707.7166,462.9193 L709.0188,461.0254 L709.8485,458.8885 L710.9268,456.8795 L710.9564,456.8905 L711.6828,454.8083 L712.5439,452.7763 L713.3401,450.7201 L714.2603,448.7102 L714.776,446.5495 L715.08,446.6135 L715.5228,444.5313 L715.7694,442.4078 L716.303,440.3448 L716.8502,438.2846 L716.971,436.1345 L716.6372,436.1264 L717.3354,434.0639 L716.9344,431.9748 L717.3691,429.9059 L716.9432,427.8161 L717.2227,425.7435 L717.1915,425.7375 L717.1636,423.7569 L716.4082,421.6359 L716.082,419.5978 L715.7919,417.5666 L715.2419,415.4853 L715.4176,415.5643 L714.3398,413.4812 L713.5622,411.5332 L712.2988,409.3667 L711.7601,407.526 L710.7396,405.4688 L710.9488,405.6124 L708.7608,402.4569 L706.6768,399.3728 L704.1101,395.9572 L701.8971,392.7846 L699.9977,389.8272 L699.7827,389.636 L697.5036,387.0266 L694.9824,384.2018 L692.8125,381.6894 L690.0426,378.6436 L687.6294,375.9149 L687.5233,375.7966 L684.9567,373.5325 L681.9368,370.763 L679.2392,368.3529 L676.8571,366.2944 L673.9132,363.6098 L674.0323,363.7726 L671.1569,361.7203 L667.911,359.1617 L665.1291,357.2372 L662.2461,355.1746 L659.1276,352.79 L659.0141,352.6031 L655.9892,350.8608 L652.9272,349.0573 L649.9382,347.3741 L646.6653,345.2232 L643.551,343.3335 L643.6483,343.5243 L640.2165,341.4622 L636.9727,339.7682 L634.0035,338.6121 L630.5286,336.4658 L627.4617,335.1183 L627.5557,335.3344 L624.2352,333.7869 L620.8829,332.1662 L617.6024,330.7106 L614.4877,329.6364 L611.1384,328.0224 L611.0898,327.8926 L607.9787,327.0593 L604.537,325.3433 L601.4713,324.6309 L598.1938,323.3535 L594.8594,321.9238 " fill="none" style="stroke:#333333;stroke-width:3.125;"/><polygon fill="#333333" points="588.9583,319.8646,589.0083,319.9178,590.3556,321.1643,591.9958,322.7226,593.5406,324.1795,594.7717,325.3023,596.4371,326.8874,596.4128,326.8757,595.7914,325.7617,595.2926,324.7068,594.879,323.6931,594.1719,322.5376,593.8759,321.5806,593.9594,321.7537,594.8421,320.8713,595.9687,320.4943,597.1251,320.179,598.1084,319.5048,599.1827,319.0194,599.1846,319.043,597.1369,319.1774,595.0981,319.4193,593.0549,319.6093,591.02,319.8982,588.9583,319.8646" style="stroke:#333333;stroke-width:3.125;"/><text fill="#2E2E2E" font-family="Segoe Print" font-size="12.5" lengthAdjust="spacing" textLength="66.6667" x="723.2396" y="423.3215">7. &#21457;&#24067;&#20196;&#29260;</text></g><!--link Client to IdP--><g id="link_Client_IdP"><path d="M472.3021,374.4792 L472.3955,374.5064 L471.2748,377.3178 L470.7017,380.2888 L469.9502,383.2078 L468.6124,385.9559 L468.0863,388.9406 L468.0505,388.9365 L467.5551,391.8281 L467.24,394.7404 L467.05,397.6672 L466.4284,400.5442 L466.4115,403.4909 L466.6664,403.5177 L466.4222,406.3208 L466.9224,409.2022 L467.5133,412.0932 L467.5759,414.9285 L467.9163,417.7931 L467.9458,417.8046 L468.9672,420.5312 L470.1227,423.3099 L471.2135,426.0636 L472.4277,428.8651 L473.2396,431.5104 L473.5,431.6799 L475.5462,434.8205 L477.4245,437.8518 L479.5487,441.0431 L481.6843,444.2419 L483.4549,447.203 L483.2005,446.9869 L486.0776,450.2125 L488.1168,452.7264 L490.793,455.7813 L492.8132,458.2791 L495.3712,461.2335 L495.3495,461.2104 L498.263,463.9785 L500.6693,466.2064 L503.3749,468.753 L506.1057,471.3264 L508.6552,473.7067 L508.7727,473.8594 L511.5178,475.9094 L514.4638,478.2204 L517.0848,480.1092 L520.1905,482.6277 L522.9739,484.7275 L523.1113,484.9408 L526.0894,486.8351 L529.1357,488.8353 L531.8651,490.3433 L534.8268,492.2121 L537.9943,494.4006 L537.8561,494.1482 L541.059,496.0627 L544.1062,497.6929 L547.3793,499.7354 L550.2667,501.0738 L553.3833,502.8308 L553.3154,502.6872 L556.5134,504.3848 L559.4212,505.4686 L562.5353,506.9888 L565.8513,508.9362 L568.8078,510.123 L568.8849,510.3094 L571.9632,511.689 L574.8017,512.489 L577.9405,514.015 L581.0139,515.3828 L583.9348,516.382 " fill="none" style="stroke:#333333;stroke-width:3.125;"/><polygon fill="#333333" points="589.7604,518.6458,589.8122,518.6973,588.2125,517.0886,586.9164,515.7813,585.5214,514.376,583.8013,512.6477,582.5312,511.3664,582.5065,511.3555,582.8706,512.3853,583.3592,513.4699,583.9343,514.5926,584.2111,515.584,584.9057,516.7593,584.9832,516.9353,583.739,517.0339,582.7209,517.6463,581.7304,518.3213,580.5794,518.6317,579.5128,519.1339,579.5139,519.1575,581.5618,519.0252,583.6148,519.0006,585.6653,518.924,587.7206,518.9466,589.7604,518.6458" style="stroke:#333333;stroke-width:3.125;"/><text fill="#2E2E2E" font-family="Segoe Print" font-size="12.5" lengthAdjust="spacing" textLength="106.25" x="479.4896" y="423.3215">9. &#39564;&#35777;&#20196;&#29260; (&#21487;&#36873;)</text></g><!--reverse link EndUser to Client--><!--link EndUser to Client--><g id="link_EndUser_Client"><path d="M708.5625,90.4896 L708.5893,90.5831 L704.9461,91.3261 L701.4599,92.6174 L697.9226,93.7301 L694.2171,94.2556 L690.7444,95.594 L690.7331,95.5599 L686.8597,96.6716 L683.0433,97.9554 L679.2665,99.359 L675.3531,100.3501 L671.631,101.9189 L671.7199,102.1594 L669.5548,102.3755 L667.6491,103.2935 L665.7752,104.2972 L663.717,104.8026 L661.7557,105.5701 L661.7674,105.5995 L659.7505,106.3551 L657.7869,107.2443 L655.7976,108.0691 L653.8574,109.0168 L651.7571,109.5637 L651.8805,109.8488 L649.871,110.722 L647.7819,111.4112 L645.8093,112.3697 L643.8422,113.3408 L641.7021,113.912 L641.5602,113.6098 L639.8267,115.1395 L637.626,115.674 L635.7804,116.9651 L633.5691,117.477 L631.6576,118.6276 L631.6431,118.5994 L629.8204,119.9524 L627.6604,120.6456 L625.6994,121.7281 L623.7551,122.8434 L621.6902,123.7228 L621.7842,123.891 L619.7247,124.8187 L617.8258,126.0338 L615.6671,126.7838 L613.8959,128.2276 L611.867,129.2101 L611.9997,129.4265 L610.0521,130.5639 L608.1705,131.8088 L605.9828,132.5545 L604.0195,133.6661 L602.2548,135.1018 L602.0937,134.8635 L600.3727,136.341 L598.4701,137.5499 L596.8308,139.1484 L594.742,140.0817 L592.9204,141.4105 L592.8252,141.2834 L591.1858,142.8426 L589.1394,143.8586 L587.3824,145.261 L585.9088,147.0413 L583.9307,148.1485 L584.0601,148.3031 L582.4333,149.8452 L580.4038,150.9061 L578.8786,152.5696 L577.2435,154.1018 L575.3524,155.3282 L575.2024,155.169 L573.702,156.8226 L572.1525,158.4242 L570.6995,160.1281 L568.8712,161.4339 L567.2526,162.962 L567.4092,163.1081 L565.5541,164.4073 L564.0014,165.9884 L562.8903,167.9813 L560.9661,169.216 L559.6979,171.0625 L559.8837,171.2074 L557.9224,173.4949 L555.8983,175.7333 L554.016,178.0824 L552.4617,180.6872 L550.4433,182.9301 L550.3245,182.8588 L549.2328,185.4807 L547.3329,187.6176 L546.352,190.3059 L544.8537,192.6838 L543.216,194.978 L543.3197,195.0239 L542.0991,197.5566 L541.2498,200.2535 L540.0651,202.8021 L538.7401,205.2886 L537.5316,207.8266 L537.6497,207.8649 L536.5491,210.662 L535.9968,213.6369 L534.8244,216.4107 L533.907,219.2672 L532.9059,222.0966 " fill="none" style="stroke:#333333;stroke-width:3.125;"/><polygon fill="#333333" points="531.2188,228.1146,531.275,228.1611,532.4165,226.4424,533.8875,224.9965,535.2513,223.4618,536.2621,221.6348,537.7614,220.2124,537.7482,220.1889,536.6615,220.6607,535.6415,221.2512,534.6678,221.9241,533.5344,222.3129,532.6247,223.0996,532.7923,223.1938,531.8565,221.965,531.4099,221.0113,531.0231,220.091,530.289,218.9756,529.7375,217.9629,529.7609,217.9663,530.0228,219.9916,530.3913,222.0325,530.7084,224.0659,531.1237,226.1136,531.2188,228.1146" style="stroke:#333333;stroke-width:3.125;"/><text fill="#2E2E2E" font-family="Segoe Print" font-size="12.5" lengthAdjust="spacing" textLength="66.6667" x="565.9479" y="188.9153">1. &#35831;&#27714;&#35775;&#38382;</text></g><!--link Client to EndUser--><g id="link_Client_EndUser"><path d="M589.1042,244.5208 L589.1674,244.5948 L591.6864,242.0638 L594.5759,239.9666 L597.3447,237.7281 L599.7169,235.025 L602.6382,232.965 L602.6146,232.9378 L605.247,230.4378 L607.9983,228.0746 L610.8322,225.8067 L613.3813,223.2107 L616.3294,221.0742 L616.4995,221.266 L618.8479,218.4515 L621.6928,216.197 L624.5983,214.0109 L627.1514,211.4272 L629.8898,209.0526 L629.9111,209.0759 L632.5081,206.6519 L635.202,204.3344 L637.8492,201.9654 L640.5854,199.6945 L643.0313,197.1042 L643.2435,197.331 L646.44,194.3444 L649.4995,191.2115 L652.7594,188.2928 L656.0288,185.3841 L659.0004,182.1573 L658.7689,181.9168 L662.2651,179.4503 L664.9988,176.1918 L668.3121,173.5354 L671.0285,170.259 L674.2342,167.4907 L674.212,167.4682 L677.4496,164.7974 L680.1666,161.5994 L683.1908,158.7126 L686.2408,155.8518 L689.1047,152.8026 L689.2416,152.9383 L692.0793,149.7991 L695.1509,146.8917 L697.8441,143.6093 L701.1017,140.8863 L703.9841,137.7913 " fill="none" style="stroke:#333333;stroke-width:3.125;"/><polygon fill="#333333" points="708.3646,133.3333,708.3914,133.4012,706.4032,133.9529,704.5721,134.9024,702.6899,135.7224,700.6395,136.1163,698.8219,137.1,698.8216,137.073,699.999,136.9416,701.1776,136.9462,702.357,137.0454,703.5336,136.8186,704.7142,137.0483,704.9064,137.05,704.5057,138.2249,704.6662,139.4047,704.8952,140.5851,704.7257,141.7619,704.7659,142.9407,704.7881,142.949,705.4752,141.0153,706.2634,139.1195,707.0029,137.2054,707.8353,135.3261,708.3646,133.3333" style="stroke:#333333;stroke-width:3.125;"/><text fill="#2E2E2E" font-family="Segoe Print" font-size="12.5" lengthAdjust="spacing" textLength="116.6667" x="675.3229" y="188.9153">8. &#20351;&#29992;&#20196;&#29260;&#25552;&#20379;&#35775;&#38382;</text></g><!--SRC=[TP9DIm9H58RtyokkEoLceEzo4OH8114HjOeMuLnHcYoQSH4HP4agM8uW14bHuIAIPceHXcBpP-REnx_e3iUvNhDsb_FnlEyvvqQq33x0IDt7MYfp8XxcDIMRmu8GaN6QFj1cCh6rlBwobaGfPKzL1M4OM9KtqAc0q8Hdj3opu3PUd78d6WiYf5OdNvVEJTcvltGV2tpGxhNSIXKY_ckLDhB86KzFA5cSqq30BrqJuuxeTT0WvVT0V41j5LtzwfUKPtQSZmjUokvRjFblgMHEtbRnCMWvDTt-RfBI6tK6hS0cnZELTjlcGC6m_5l3-omwNHrumJh4dKnMbd5kLy5fJLmAoQEv_17Dm7Z2OChHNDWbXCP4re3YQ592C1vOO0XQ4yZ4qPI4sC8yg-azLRrks-xruKpWPQX26wOfaJlXY2mWPoJ4xuKncAbPYh0QfFd03Z7kQqv2S0LMmvzfd3al8VxByC2XzuKG2aNWyh_DBDBDS5yEHKdDzCyhiHy0]--></g></svg>