<svg xmlns="http://www.w3.org/2000/svg" xmlns:xlink="http://www.w3.org/1999/xlink" contentStyleType="text/css" height="833.3333px" preserveAspectRatio="none" style="width:1047px;height:833px;" version="1.1" viewBox="0 0 1047 833" width="1047.9167px" zoomAndPan="magnify"><defs/><g><polygon fill="#17A2B8" points="317.5055,23.3671,315.9786,25.4534,314.1725,28.5092,311.5896,30.5686,308.8754,31.6947,306.7112,31.7924,303.9296,30.384,301.3051,29.4639,299.313,27.5958,298.2681,25.4572,297.6484,23.7543,297.0413,21.53,296.0559,19.616,296.8131,17.7472,297.4765,15.7,299.9662,14.0809,301.7178,11.9802,303.8858,11.2826,306.4632,10.6819,309.7684,11.0388,311.5787,11.8925,313.6834,12.2795,316.2426,14.9015,317.1347,17.6695,317.5223,19.5581,317.0833,22.6703" style="stroke:#2E2E2E;stroke-width:1.0416666666666667;"/><polygon fill="none" points="249.2188,52.0833,249.2188,52.3023,259.7301,51.6517,270.2415,52.2847,280.7528,52.4997,291.2642,51.3402,301.7756,52.0024,312.2869,51.6391,322.7983,51.6839,333.3097,52.0123,343.821,51.3632,354.3324,52.66,364.8438,52.0833,364.76,51.8811,365.4067,52.264,366.0797,52.7101,366.6001,52.788,367.2098,53.0815,367.79,53.3037,367.7798,53.2995,368.0914,53.9167,368.3549,54.514,368.7101,55.1493,368.9816,55.7499,369.0104,56.25,369.2463,56.25,369.0988,62.0768,369.1714,67.9036,369.2542,73.7305,368.76,79.5573,369.0104,85.3841,369.2281,85.4743,368.6712,85.934,368.6935,86.6336,368.1194,87.0861,368.0121,87.732,367.79,88.3304,367.8886,88.5683,367.1943,88.5588,366.6255,88.8523,366.0673,89.1713,365.4883,89.4402,364.8438,89.5508,364.8438,89.5467,354.3324,89.85,343.821,88.9545,333.3097,89.847,322.7983,90.1218,312.2869,90.0138,301.7756,90.1893,291.2642,89.0476,280.7528,88.8714,270.2415,88.9035,259.7301,89.4894,249.2188,89.5508,249.1926,89.4877,248.72,89.5253,248.017,89.0066,247.4054,88.7085,246.8921,88.6477,246.2725,88.3304,246.0586,88.2418,245.8619,87.6722,245.9925,87.2381,245.68,86.6205,245.5318,86.071,245.0521,85.3841,244.9403,85.3841,245.1629,79.5573,245.2571,73.7305,244.8881,67.9036,245.0188,62.0768,245.0521,56.25,245.0925,56.2667,245.5052,55.7473,245.5389,55.0709,245.9327,54.5437,245.8507,53.8194,246.2725,53.3037,246.1825,53.0865,246.9286,53.2212,247.3557,52.5856,248.1079,52.7348,248.657,52.3937,249.2188,52.0833" style="stroke:#333333;stroke-width:1.0416666666666667;"/><text fill="#2E2E2E" font-family="Segoe Print" font-size="12.5" lengthAdjust="spacing" textLength="101.0417" x="256.5104" y="75.1444">&#36755;&#20837;&#21024;&#38500;&#20540; value</text><polygon fill="none" points="262.2396,110.3841,262.2396,110.6031,272.1933,109.9525,282.147,110.5855,292.1007,110.8004,302.0544,109.641,312.0081,110.3032,321.9618,109.9399,331.9155,109.9846,341.8692,110.3131,351.8229,110.3841,351.7311,110.1623,352.4857,110.8058,352.9177,110.6701,353.5644,111.0529,354.2373,111.499,354.7692,111.6045,354.7417,111.5931,355.0352,112.2028,355.2471,112.7788,355.5587,113.396,355.8222,113.9933,355.9896,114.5508,356.1929,114.5508,356.2226,120.3776,356.2254,126.2044,356.078,132.0313,356.1506,137.8581,355.9896,143.6849,356.2149,143.7782,355.5142,144.1783,355.7191,144.9536,355.1622,145.4133,355.1845,146.1128,354.7692,146.6312,354.7034,146.4724,354.1708,146.8533,353.6892,147.3572,352.995,147.3478,352.4262,147.6413,351.8229,147.8516,351.8229,148.2043,341.8692,148.2851,331.9155,147.8475,321.9618,148.1507,312.0081,147.2553,302.0544,148.1478,292.1007,148.4226,282.147,148.3146,272.1933,148.4901,262.2396,147.8516,262.1754,147.6966,261.5637,147.3983,260.9785,147.1641,260.464,147.1004,259.8564,146.8122,259.2933,146.6312,259.5119,146.7217,258.9932,146.0187,258.6951,145.4071,258.6343,144.8937,258.1031,144.1855,258.0729,143.6849,257.8927,143.6849,258.2982,137.8581,258.2242,132.0313,258.3279,126.2044,257.9612,120.3776,258.0729,114.5508,258.1753,114.5932,258.5064,114.04,258.4095,113.3095,258.7744,112.7703,259.0896,112.2105,259.2933,111.6045,259.3799,111.8136,259.882,111.3591,260.5333,111.2647,260.9875,110.6946,261.5603,110.4109,262.2396,110.3841" style="stroke:#333333;stroke-width:1.0416666666666667;"/><text fill="#2E2E2E" font-family="Segoe Print" font-size="12.5" lengthAdjust="spacing" textLength="75" x="269.5313" y="133.4452">&#20174;&#26681;&#33410;&#28857;&#24320;&#22987;</text><polygon fill="none" points="237.7604,232.8918,237.7604,233.1108,248.4175,232.4603,259.0745,233.0932,269.7316,233.3082,280.3886,232.1487,291.0457,232.8109,301.7027,232.4476,312.3598,232.4924,323.0168,232.8208,333.6739,232.1717,344.3309,233.4686,354.988,232.2353,365.645,232.6858,376.3021,232.8918,376.4081,232.9979,378.781,235.3708,381.3188,237.9086,383.7942,240.384,386.3459,242.9357,388.8021,245.3918,388.8608,245.4506,386.4459,248.0356,383.9668,250.5566,381.4689,253.0586,378.8646,255.4544,376.3021,257.8918,376.3021,258.3747,365.645,258.6233,354.988,257.1406,344.3309,258.5986,333.6739,257.583,323.0168,258.4479,312.3598,257.3762,301.7027,257.8205,291.0457,258.6644,280.3886,257.8411,269.7316,258.0015,259.0745,258.2446,248.4175,258.3254,237.7604,257.8918,237.7595,257.8909,235.3309,255.4624,232.6199,252.7513,230.3302,250.4617,227.895,248.0264,225.2604,245.3918,225.3696,245.501,227.9109,243.0424,230.1418,240.2732,232.6003,237.7317,235.1078,235.2393,237.7604,232.8918" style="stroke:#18A2B8;stroke-width:1.0416666666666667;"/><text fill="#2E2E2E" font-family="Segoe Print" font-size="12.5" lengthAdjust="spacing" textLength="128.125" x="242.9688" y="249.7192">value &lt; &#24403;&#21069;&#33410;&#28857;&#30340;&#20540;</text><text fill="#2E2E2E" font-family="Segoe Print" font-size="12.5" lengthAdjust="spacing" textLength="12.5" x="207.5521" y="237.2355">&#26159;</text><text fill="#2E2E2E" font-family="Segoe Print" font-size="12.5" lengthAdjust="spacing" textLength="12.5" x="394.0104" y="237.2355">&#21542;</text><polygon fill="none" points="71.875,268.3085,71.875,268.5275,82.0833,267.8769,92.2917,268.5099,102.5,268.7248,112.7083,267.5654,122.9167,268.2276,133.125,267.8642,143.3333,267.909,153.5417,268.2375,163.75,267.5883,173.9583,268.3085,174.0319,268.4861,174.4638,268.3504,175.1106,268.7332,175.7835,269.1793,176.304,269.2573,176.9046,269.5289,176.9265,269.538,177.1384,270.1139,177.45,270.7311,177.7136,271.3284,178.0688,271.9637,178.125,272.4752,178.358,272.4752,178.3609,278.302,178.2134,284.1288,178.286,289.9556,178.3688,295.7825,178.125,301.6093,177.8936,301.5135,178.0986,302.2887,177.5417,302.7484,177.564,303.448,176.9899,303.9005,176.9046,304.5556,176.8955,304.5336,176.4139,305.0376,175.7196,305.0281,175.1508,305.3216,174.5926,305.6405,173.9583,305.776,173.9583,306.2095,163.75,305.7719,153.5417,306.0751,143.3333,305.1797,133.125,306.0722,122.9167,306.347,112.7083,306.239,102.5,306.4145,92.2917,305.2728,82.0833,305.0966,71.875,305.776,71.7924,305.5766,71.2779,305.513,70.6704,305.2248,70.1978,305.2623,69.4948,304.7436,68.9287,304.5556,68.8187,304.51,68.7579,303.9966,68.2267,303.2885,68.03,302.7188,68.1606,302.2848,67.7083,301.6093,67.8596,301.6093,67.9634,295.7825,67.5966,289.9556,67.8192,284.1288,67.9133,278.302,67.7083,272.4752,67.5568,272.4124,67.9217,271.8732,68.2369,271.3134,68.6496,270.794,68.6833,270.1176,68.9287,269.5289,68.9902,269.6773,69.4444,269.1072,70.0172,268.8235,70.7634,268.9582,71.1905,268.3226,71.875,268.3085" style="stroke:#333333;stroke-width:1.0416666666666667;"/><text fill="#2E2E2E" font-family="Segoe Print" font-size="12.5" lengthAdjust="spacing" textLength="87.5" x="79.1667" y="291.3696">&#31227;&#21160;&#21040;&#24038;&#23376;&#33410;&#28857;</text><polygon fill="none" points="43.75,342.2343,43.75,342.4532,54.3056,341.8027,64.8611,342.4356,75.4167,342.6506,85.9722,341.4912,96.5278,342.1533,107.0833,341.79,117.6389,341.8348,128.1944,342.1633,138.75,341.5141,149.3056,342.811,159.8611,341.5778,170.4167,342.0283,180.9722,342.6842,191.5278,342.1449,202.0833,342.2343,202.0924,342.2562,202.6683,342.4681,203.2856,342.7797,203.8829,343.0432,204.5182,343.3985,205.0296,343.4547,205.2449,343.5438,205.4916,344.1342,205.5994,344.667,205.9106,345.284,206.2312,345.905,206.25,346.401,205.9996,346.401,206.4856,352.2278,206.147,358.0546,206.4354,363.8814,206.0781,369.7083,206.25,375.5351,206.228,375.526,206.2438,376.2229,205.7462,376.7071,205.5515,377.3168,205.3823,377.9371,205.0296,378.4814,205.0849,378.6149,204.4398,378.7242,203.8893,379.0616,203.1858,379.03,202.7104,379.5489,202.0833,379.7017,202.0833,380.2728,191.5278,380.1648,180.9722,380.3403,170.4167,379.1985,159.8611,379.0224,149.3056,379.0544,138.75,379.6404,128.1944,379.497,117.6389,380.4115,107.0833,379.5198,96.5278,379.3444,85.9722,379.9395,75.4167,379.0071,64.8611,379.161,54.3056,380.3777,43.75,379.7017,43.8079,379.8415,43.2583,379.6933,42.5287,379.1104,42.0246,379.0719,41.4714,378.9148,40.8037,378.4814,40.6522,378.4186,40.5289,377.8794,40.356,377.3196,40.2806,376.8002,39.8261,376.1238,39.5833,375.5351,39.7439,375.5351,39.391,369.7083,39.3482,363.8814,39.7582,358.0546,39.3344,352.2278,39.5833,346.401,39.7466,346.4686,39.8937,345.8392,39.9855,345.1868,40.2021,344.5862,40.7068,344.1049,40.8037,343.4547,40.7639,343.3587,41.4716,343.4005,41.9088,342.7892,42.6535,342.9205,43.2251,342.6337,43.75,342.2343" style="stroke:#333333;stroke-width:1.0416666666666667;"/><text fill="#2E2E2E" font-family="Segoe Print" font-size="12.5" lengthAdjust="spacing" textLength="143.75" x="51.0417" y="365.2954">&#35774;&#32622;&#24403;&#21069;&#33410;&#28857; = &#24038;&#23376;&#33410;&#28857;</text><polygon fill="none" points="421.875,268.3085,421.875,268.5275,432.5321,267.8769,443.1891,268.5099,453.8462,268.7248,464.5032,267.5654,475.1603,268.2276,485.8173,267.8642,496.4744,267.909,507.1314,268.2375,517.7885,267.5883,528.4455,268.8852,539.1026,267.652,549.7596,268.1025,560.4167,268.3085,560.5227,268.4146,562.8956,270.7875,565.4334,273.3253,567.9088,275.8007,570.4605,278.3523,572.9167,280.8085,572.9754,280.8672,570.5605,283.4523,568.0814,285.9733,565.5834,288.4753,562.9792,290.871,560.4167,293.3085,560.4167,293.7914,549.7596,294.04,539.1026,292.5573,528.4455,294.0153,517.7885,292.9997,507.1314,293.8646,496.4744,292.7929,485.8173,293.2372,475.1603,294.081,464.5032,293.2577,453.8462,293.4182,443.1891,293.6612,432.5321,293.7421,421.875,293.3085,421.874,293.3076,419.4455,290.879,416.7345,288.168,414.4448,285.8783,412.0096,283.4431,409.375,280.8085,409.4841,280.9177,412.0255,278.459,414.2564,275.6899,416.7149,273.1484,419.2224,270.6559,421.875,268.3085" style="stroke:#18A2B8;stroke-width:1.0416666666666667;"/><text fill="#2E2E2E" font-family="Segoe Print" font-size="12.5" lengthAdjust="spacing" textLength="128.125" x="427.0833" y="285.1359">value &gt; &#24403;&#21069;&#33410;&#28857;&#30340;&#20540;</text><text fill="#2E2E2E" font-family="Segoe Print" font-size="12.5" lengthAdjust="spacing" textLength="12.5" x="391.6667" y="272.6522">&#26159;</text><text fill="#2E2E2E" font-family="Segoe Print" font-size="12.5" lengthAdjust="spacing" textLength="12.5" x="578.125" y="272.6522">&#21542;</text><polygon fill="none" points="269.7917,303.7252,269.7917,303.9441,280,303.2936,290.2083,303.9265,300.4167,304.1415,310.625,302.9821,320.8333,303.6442,331.0417,303.2809,341.25,303.3257,351.4583,303.6542,361.6667,303.005,371.875,303.7252,371.9486,303.9028,372.3805,303.7671,373.0272,304.1499,373.7002,304.596,374.2206,304.674,374.8213,304.9456,374.8432,304.9546,375.0551,305.5306,375.3667,306.1478,375.6302,306.7451,375.9855,307.3804,376.0417,307.8918,376.2747,307.8918,376.2775,313.7187,376.1301,319.5455,376.2026,325.3723,376.2855,331.1991,376.0417,337.026,375.8103,336.9301,376.0152,337.7054,375.4584,338.1651,375.4807,338.8647,374.9066,339.3172,374.8213,339.9722,374.8122,339.9503,374.3306,340.4542,373.6363,340.4448,373.0675,340.7383,372.5093,341.0572,371.875,341.1926,371.875,341.6262,361.6667,341.1886,351.4583,341.4918,341.25,340.5964,331.0417,341.4889,320.8333,341.7637,310.625,341.6557,300.4167,341.8312,290.2083,340.6894,280,340.5133,269.7917,341.1926,269.7091,340.9933,269.1946,340.9297,268.587,340.6414,268.1144,340.679,267.4114,340.1603,266.8454,339.9722,266.7353,339.9267,266.6745,339.4133,266.1433,338.7051,265.9466,338.1355,266.0773,337.7014,265.625,337.026,265.7763,337.026,265.88,331.1991,265.5133,325.3723,265.7358,319.5455,265.83,313.7187,265.625,307.8918,265.4735,307.8291,265.8383,307.2899,266.1536,306.7301,266.5663,306.2107,266.6,305.5343,266.8454,304.9456,266.9069,305.094,267.3611,304.5238,267.9339,304.2402,268.6801,304.3749,269.1071,303.7393,269.7917,303.7252" style="stroke:#333333;stroke-width:1.0416666666666667;"/><text fill="#2E2E2E" font-family="Segoe Print" font-size="12.5" lengthAdjust="spacing" textLength="87.5" x="277.0833" y="326.7863">&#31227;&#21160;&#21040;&#21491;&#23376;&#33410;&#28857;</text><polygon fill="none" points="241.6667,377.651,241.6667,377.8699,252.2222,377.2194,262.7778,377.8523,273.3333,378.0673,283.8889,376.9078,294.4444,377.57,305,377.2067,315.5556,377.2515,326.1111,377.58,336.6667,376.9308,347.2222,378.2277,357.7778,376.9944,368.3333,377.445,378.8889,378.1009,389.4444,377.5616,400,377.651,400.0091,377.6729,400.585,377.8848,401.2022,378.1964,401.7995,378.4599,402.4348,378.8152,402.9463,378.8713,403.1615,378.9605,403.4083,379.5509,403.5161,380.0837,403.8272,380.7007,404.1479,381.3217,404.1667,381.8176,403.9163,381.8176,404.4023,387.6444,404.0637,393.4713,404.352,399.2981,403.9948,405.1249,404.1667,410.9517,404.1447,410.9426,404.1605,411.6395,403.6629,412.1238,403.4682,412.7335,403.299,413.3538,402.9463,413.898,403.0016,414.0315,402.3565,414.1408,401.8059,414.4783,401.1025,414.4466,400.627,414.9656,400,415.1184,400,415.6894,389.4444,415.5815,378.8889,415.757,368.3333,414.6152,357.7778,414.4391,347.2222,414.4711,336.6667,415.0571,326.1111,414.9137,315.5556,415.8282,305,414.9365,294.4444,414.7611,283.8889,415.3562,273.3333,414.4238,262.7778,414.5777,252.2222,415.7944,241.6667,415.1184,241.7246,415.2582,241.175,415.1099,240.4454,414.527,239.9413,414.4886,239.3881,414.3315,238.7204,413.898,238.5688,413.8352,238.4456,413.296,238.2726,412.7362,238.1972,412.2169,237.7427,411.5404,237.5,410.9517,237.6606,410.9517,237.3077,405.1249,237.2648,399.2981,237.6749,393.4713,237.2511,387.6444,237.5,381.8176,237.6633,381.8853,237.8104,381.2558,237.9022,380.6035,238.1187,380.0029,238.6235,379.5216,238.7204,378.8713,238.6806,378.7753,239.3883,378.8171,239.8255,378.2059,240.5702,378.3372,241.1418,378.0504,241.6667,377.651" style="stroke:#333333;stroke-width:1.0416666666666667;"/><text fill="#2E2E2E" font-family="Segoe Print" font-size="12.5" lengthAdjust="spacing" textLength="143.75" x="248.9583" y="400.7121">&#35774;&#32622;&#24403;&#21069;&#33410;&#28857; = &#21491;&#23376;&#33410;&#28857;</text><polygon fill="none" points="604.1667,303.7252,604.1667,303.9441,614.5833,303.2936,625,303.9265,635.4167,304.1415,645.8333,302.9821,656.25,303.6442,666.6667,303.2809,677.0833,303.3257,687.5,303.6542,697.9167,303.005,708.3333,304.3019,718.75,303.7252,718.6663,303.523,719.313,303.9058,719.9859,304.3519,720.5064,304.4299,721.1161,304.7234,721.6963,304.9456,721.686,304.9413,721.9976,305.5585,722.2611,306.1559,722.6164,306.7912,722.8879,307.3918,722.9167,307.8918,723.1525,307.8918,723.0051,313.7187,723.0776,319.5455,723.1605,325.3723,722.6663,331.1991,722.9167,337.026,723.1343,337.1161,722.5775,337.5758,722.5998,338.2754,722.0256,338.728,721.9184,339.3739,721.6963,339.9722,721.7948,340.2101,721.1005,340.2007,720.5318,340.4942,719.9735,340.8131,719.3946,341.0821,718.75,341.1926,718.75,341.1886,708.3333,341.4918,697.9167,340.5964,687.5,341.4889,677.0833,341.7637,666.6667,341.6557,656.25,341.8312,645.8333,340.6894,635.4167,340.5133,625,340.5453,614.5833,341.1313,604.1667,341.1926,604.1406,341.1296,603.668,341.1671,602.9649,340.6484,602.3533,340.3503,601.84,340.2895,601.2204,339.9722,601.0065,339.8836,600.8098,339.314,600.9404,338.88,600.6279,338.2624,600.4797,337.7128,600,337.026,599.8883,337.026,600.1108,331.1991,600.205,325.3723,599.836,319.5455,599.9667,313.7187,600,307.8918,600.0404,307.9086,600.4532,307.3892,600.4868,306.7128,600.8806,306.1855,600.7987,305.4612,601.2204,304.9456,601.1304,304.7283,601.8766,304.863,602.3036,304.2274,603.0558,304.3766,603.6049,304.0355,604.1667,303.7252" style="stroke:#333333;stroke-width:1.0416666666666667;"/><text fill="#2E2E2E" font-family="Segoe Print" font-size="12.5" lengthAdjust="spacing" textLength="100" x="611.4583" y="326.7863">&#25214;&#21040;&#35201;&#21024;&#38500;&#30340;&#33410;&#28857;</text><polygon fill="none" points="593.75,377.651,593.75,377.8699,604.1667,377.2194,614.5833,377.8523,625,378.0673,635.4167,376.9078,645.8333,377.57,656.25,377.2067,666.6667,377.2515,677.0833,377.58,687.5,376.9308,697.9167,378.2277,708.3333,376.9944,718.75,377.445,729.1667,377.651,729.2727,377.757,731.6456,380.1299,734.1834,382.6677,736.6588,385.1431,739.2105,387.6948,741.6667,390.151,741.7254,390.2097,739.3105,392.7948,736.8314,395.3157,734.3334,397.8177,731.7292,400.2135,729.1667,402.651,729.1667,403.1339,718.75,403.3825,708.3333,401.8997,697.9167,403.3577,687.5,402.3421,677.0833,403.207,666.6667,402.1353,656.25,402.5796,645.8333,403.4235,635.4167,402.6002,625,402.7607,614.5833,403.0037,604.1667,403.0845,593.75,402.651,593.749,402.65,591.3205,400.2215,588.6095,397.5104,586.3198,395.2208,583.8846,392.7856,581.25,390.151,581.3591,390.2601,583.9005,387.8015,586.1314,385.0324,588.5899,382.4908,591.0974,379.9984,593.75,377.651" style="stroke:#18A2B8;stroke-width:1.0416666666666667;"/><text fill="#2E2E2E" font-family="Segoe Print" font-size="12.5" lengthAdjust="spacing" textLength="125" x="598.9583" y="394.4784">&#24403;&#21069;&#33410;&#28857;&#27809;&#26377;&#24038;&#23376;&#33410;&#28857;</text><text fill="#2E2E2E" font-family="Segoe Print" font-size="12.5" lengthAdjust="spacing" textLength="12.5" x="563.5417" y="381.9946">&#26159;</text><text fill="#2E2E2E" font-family="Segoe Print" font-size="12.5" lengthAdjust="spacing" textLength="12.5" x="746.875" y="381.9946">&#21542;</text><polygon fill="none" points="439.5833,413.0676,439.5833,413.2866,449.7222,412.636,459.8611,413.269,470,413.484,480.1389,412.3245,490.2778,412.9867,500.4167,412.6234,510.5556,412.6681,520.6944,412.9966,530.8333,412.3475,540.9722,413.6443,551.1111,412.4111,561.25,412.8616,571.3889,413.5176,581.5278,412.9783,591.6667,413.0676,591.6757,413.0895,592.2517,413.3015,592.8689,413.6131,593.4662,413.8766,594.1015,414.2318,594.6129,414.288,594.8282,414.3772,595.0749,414.9675,595.1828,415.5004,595.4939,416.1174,595.8145,416.7383,595.8333,417.2343,595.5829,417.2343,596.0689,423.0611,595.7304,428.8879,596.0187,434.7148,595.6615,440.5416,595.8333,446.3684,595.8114,446.3593,595.8272,447.0562,595.3295,447.5404,595.1349,448.1502,594.9657,448.7704,594.6129,449.3147,594.6683,449.4482,594.0232,449.5575,593.4726,449.895,592.7691,449.8633,592.2937,450.3822,591.6667,450.5351,591.6667,451.1061,581.5278,450.9981,571.3889,451.1736,561.25,450.0319,551.1111,449.8557,540.9722,449.8878,530.8333,450.4737,520.6944,450.3304,510.5556,451.2449,500.4167,450.3531,490.2778,450.1777,480.1389,450.7729,470,449.8405,459.8611,449.9943,449.7222,451.2111,439.5833,450.5351,439.6412,450.6748,439.0917,450.5266,438.3621,449.9437,437.858,449.9052,437.3048,449.7482,436.6371,449.3147,436.4855,449.2519,436.3622,448.7127,436.1893,448.1529,436.1139,447.6335,435.6594,446.9571,435.4167,446.3684,435.5773,446.3684,435.2244,440.5416,435.1815,434.7148,435.5915,428.8879,435.1677,423.0611,435.4167,417.2343,435.5799,417.3019,435.727,416.6725,435.8189,416.0202,436.0354,415.4195,436.5401,414.9382,436.6371,414.288,436.5973,414.192,437.305,414.2338,437.7421,413.6225,438.4869,413.7538,439.0584,413.4671,439.5833,413.0676" style="stroke:#333333;stroke-width:1.0416666666666667;"/><text fill="#2E2E2E" font-family="Segoe Print" font-size="12.5" lengthAdjust="spacing" textLength="137.5" x="446.875" y="436.1287">&#29992;&#21491;&#23376;&#33410;&#28857;&#26367;&#20195;&#24403;&#21069;&#33410;&#28857;</text><polygon fill="none" points="527.1466,501.2389,525.467,503.5338,523.4804,506.8952,520.6392,509.1605,517.6535,510.3993,515.2729,510.5068,512.2132,508.9575,509.3262,507.9454,507.1349,505.8905,505.9855,503.538,505.3038,501.6648,504.636,499.2181,503.5521,497.1127,504.385,495.057,505.1148,492.8051,507.8534,491.0241,509.7802,488.7133,512.165,487.946,515.0001,487.2851,518.6358,487.6777,520.6272,488.6169,522.9424,489.0426,525.7575,491.9267,526.7388,494.9715,527.1652,497.049,526.6822,500.4724" style="stroke:#2E2E2E;stroke-width:1.0416666666666667;"/><polygon fill="none" points="521.9095,499.972,520.9934,501.2238,519.9098,503.0573,518.36,504.2929,516.7315,504.9686,515.433,505.0272,513.764,504.1822,512.1893,503.6301,510.9941,502.5092,510.3671,501.226,509.9953,500.2043,509.631,498.8698,509.0398,497.7213,509.4941,496.6,509.8922,495.3718,511.386,494.4003,512.4369,493.1399,513.7377,492.7213,515.2842,492.3609,517.2673,492.575,518.3535,493.0873,519.6163,493.3195,521.1518,494.8926,521.6871,496.5534,521.9196,497.6866,521.6562,499.5539" style="stroke:#2E2E2E;stroke-width:1.0416666666666667;"/><polygon fill="none" points="739.5833,413.0676,739.5833,413.2866,750,412.636,760.4167,413.269,770.8333,413.484,781.25,412.3245,791.6667,412.9867,802.0833,412.6234,812.5,412.6681,822.9167,412.9966,833.3333,412.3475,843.75,413.6443,854.1667,412.4111,864.5833,412.8616,875,413.0676,875.1061,413.1737,877.4789,415.5466,880.0168,418.0844,882.4922,420.5598,885.0438,423.1115,887.5,425.5676,887.5587,425.6263,885.1438,428.2114,882.6648,430.7324,880.1668,433.2344,877.5625,435.6301,875,438.0676,875,438.5505,864.5833,438.7991,854.1667,437.3164,843.75,438.7744,833.3333,437.7588,822.9167,438.6237,812.5,437.552,802.0833,437.9963,791.6667,438.8401,781.25,438.0169,770.8333,438.1773,760.4167,438.4204,750,438.5012,739.5833,438.0676,739.5824,438.0667,737.1539,435.6381,734.4428,432.9271,732.1532,430.6375,729.7179,428.2022,727.0833,425.5676,727.1925,425.6768,729.7338,423.2181,731.9647,420.449,734.4232,417.9075,736.9308,415.4151,739.5833,413.0676" style="stroke:#18A2B8;stroke-width:1.0416666666666667;"/><text fill="#2E2E2E" font-family="Segoe Print" font-size="12.5" lengthAdjust="spacing" textLength="125" x="744.7917" y="429.895">&#24403;&#21069;&#33410;&#28857;&#27809;&#26377;&#21491;&#23376;&#33410;&#28857;</text><text fill="#2E2E2E" font-family="Segoe Print" font-size="12.5" lengthAdjust="spacing" textLength="12.5" x="709.375" y="417.4113">&#26159;</text><text fill="#2E2E2E" font-family="Segoe Print" font-size="12.5" lengthAdjust="spacing" textLength="12.5" x="892.7083" y="417.4113">&#21542;</text><polygon fill="none" points="631.25,448.4843,631.25,448.7032,641.3889,448.0527,651.5278,448.6856,661.6667,448.9006,671.8056,447.7412,681.9444,448.4033,692.0833,448.04,702.2222,448.0848,712.3611,448.4133,722.5,447.7641,732.6389,449.061,742.7778,447.8278,752.9167,448.2783,763.0556,448.9342,773.1944,448.3949,783.3333,448.4843,783.3424,448.5062,783.9183,448.7181,784.5356,449.0297,785.1329,449.2932,785.7682,449.6485,786.2796,449.7047,786.4949,449.7938,786.7416,450.3842,786.8494,450.917,787.1606,451.534,787.4812,452.155,787.5,452.651,787.2496,452.651,787.7356,458.4778,787.397,464.3046,787.6854,470.1314,787.3281,475.9583,787.5,481.7851,787.478,481.776,787.4938,482.4729,786.9962,482.9571,786.8015,483.5668,786.6323,484.1871,786.2796,484.7314,786.3349,484.8649,785.6898,484.9742,785.1393,485.3116,784.4358,485.28,783.9604,485.7989,783.3333,485.9517,783.3333,486.5228,773.1944,486.4148,763.0556,486.5903,752.9167,485.4485,742.7778,485.2724,732.6389,485.3044,722.5,485.8904,712.3611,485.747,702.2222,486.6615,692.0833,485.7698,681.9444,485.5944,671.8056,486.1895,661.6667,485.2571,651.5278,485.411,641.3889,486.6277,631.25,485.9517,631.3079,486.0915,630.7583,485.9433,630.0287,485.3604,629.5246,485.3219,628.9714,485.1648,628.3037,484.7314,628.1522,484.6686,628.0289,484.1294,627.856,483.5696,627.7806,483.0502,627.3261,482.3738,627.0833,481.7851,627.2439,481.7851,626.891,475.9583,626.8482,470.1314,627.2582,464.3046,626.8344,458.4778,627.0833,452.651,627.2466,452.7186,627.3937,452.0892,627.4855,451.4368,627.7021,450.8362,628.2068,450.3549,628.3037,449.7047,628.2639,449.6087,628.9716,449.6505,629.4088,449.0392,630.1535,449.1705,630.7251,448.8837,631.25,448.4843" style="stroke:#333333;stroke-width:1.0416666666666667;"/><text fill="#2E2E2E" font-family="Segoe Print" font-size="12.5" lengthAdjust="spacing" textLength="137.5" x="638.5417" y="471.5454">&#29992;&#24038;&#23376;&#33410;&#28857;&#26367;&#20195;&#24403;&#21069;&#33410;&#28857;</text><polygon fill="none" points="718.8133,536.6555,717.1337,538.9505,715.1471,542.3119,712.3059,544.5772,709.3202,545.8159,706.9396,545.9234,703.8799,544.3742,700.9929,543.3621,698.8016,541.3071,697.6521,538.9546,696.9705,537.0815,696.3027,534.6348,695.2187,532.5293,696.0517,530.4736,696.7815,528.2218,699.5201,526.4408,701.4468,524.13,703.8317,523.3626,706.6668,522.7018,710.3025,523.0944,712.2938,524.0335,714.6091,524.4592,717.4241,527.3434,718.4055,530.3881,718.8318,532.4656,718.3489,535.8891" style="stroke:#2E2E2E;stroke-width:1.0416666666666667;"/><polygon fill="none" points="713.5762,535.3887,712.6601,536.6404,711.5764,538.4739,710.0267,539.7095,708.3981,540.3852,707.0996,540.4439,705.4307,539.5988,703.856,539.0468,702.6607,537.9259,702.0337,536.6427,701.6619,535.621,701.2977,534.2864,700.7064,533.138,701.1608,532.0167,701.5588,530.7884,703.0526,529.817,704.1036,528.5565,705.4044,528.138,706.9508,527.7775,708.9339,527.9917,710.0201,528.5039,711.283,528.7361,712.8185,530.3093,713.3537,531.9701,713.5863,533.1033,713.3229,534.9706" style="stroke:#2E2E2E;stroke-width:1.0416666666666667;"/><polygon fill="none" points="825,448.4843,825,448.7032,835.2865,448.0527,845.5729,448.6856,855.8594,448.9006,866.1458,447.7412,876.4323,448.4033,886.7188,448.04,897.0052,448.0848,907.2917,448.4133,917.5781,447.7641,927.8646,449.061,938.151,447.8278,948.4375,448.2783,958.724,448.9342,969.0104,448.3949,979.2969,448.5554,989.5833,448.4843,989.5791,448.474,990.1963,448.7856,990.7936,449.0492,991.4289,449.4044,992.0295,449.6759,992.5296,449.7047,992.7475,449.7949,992.8554,450.3278,993.1665,450.9448,993.4871,451.5658,993.2746,451.9659,993.75,452.651,993.9856,452.651,993.647,458.4778,993.9354,464.3046,993.5781,470.1314,993.7262,475.9583,993.75,481.7851,993.9879,481.8836,993.4903,482.3679,993.2956,482.9776,993.1264,483.5978,992.9072,484.1974,992.5296,484.7314,992.5291,484.7301,991.9785,485.0676,991.275,485.0359,990.7996,485.5548,990.2454,485.8835,989.5833,485.9517,989.5833,486.4148,979.2969,486.5903,969.0104,485.4485,958.724,485.2724,948.4375,485.3044,938.151,485.8904,927.8646,485.747,917.5781,486.6615,907.2917,485.7698,897.0052,485.5944,886.7188,486.1895,876.4323,485.2571,866.1458,485.411,855.8594,486.6277,845.5729,486.4056,835.2865,486.7168,825,485.9517,824.9572,485.8485,824.4532,485.8101,823.8999,485.653,823.1695,485.068,822.6302,484.9447,822.0537,484.7314,822.0941,484.7481,822.0187,484.2287,821.5642,483.5523,821.4699,483.0251,820.8998,482.3007,820.8333,481.7851,820.5982,481.7851,821.0082,475.9583,820.5844,470.1314,821.0101,464.3046,820.9051,458.4778,820.8333,452.651,820.7474,452.6154,820.9639,452.0147,821.4687,451.5334,821.4695,450.8434,821.9995,450.3726,822.0537,449.7047,821.9803,449.5274,822.725,449.6587,823.2966,449.3719,823.854,449.051,824.417,448.7435,825,448.4843" style="stroke:#333333;stroke-width:1.0416666666666667;"/><text fill="#2E2E2E" font-family="Segoe Print" font-size="12.5" lengthAdjust="spacing" textLength="150" x="832.2917" y="471.5454">&#25214;&#21040;&#21491;&#23376;&#26641;&#20013;&#30340;&#26368;&#23567;&#20540;&#33410;&#28857;</text><polygon fill="none" points="812.5,522.4101,812.5,522.629,823.0324,521.9785,833.5648,522.6114,844.0972,522.8264,854.6296,521.667,865.162,522.3291,875.6944,521.9658,886.2269,522.0106,896.7593,522.3391,907.2917,521.6899,917.8241,522.9868,928.3565,521.7535,938.8889,522.2041,949.4213,522.86,959.9537,522.3207,970.4861,522.4812,981.0185,522.3768,991.5509,522.596,1002.0833,522.4101,1002.1151,522.4868,1002.7504,522.842,1003.351,523.1135,1003.9414,523.3602,1004.4742,523.4681,1005.0296,523.6305,1005.1783,523.6921,1005.499,524.313,1005.2864,524.7131,1005.9795,525.4884,1005.9108,525.9481,1006.25,526.5767,1006.4354,526.5767,1006.0781,532.4036,1006.2262,538.2304,1006.5075,544.0572,1006.2331,549.884,1006.25,555.7109,1006.2838,555.7248,1006.1146,556.3451,1005.8954,556.9447,1005.5165,557.4781,1005.3658,558.106,1005.0296,558.6571,1004.9536,558.4735,1004.4781,558.9924,1003.9239,559.3211,1003.3209,559.532,1002.754,559.8301,1002.0833,559.8775,1002.0833,559.3743,991.5509,559.1982,981.0185,559.2302,970.4861,559.8162,959.9537,559.6728,949.4213,560.5873,938.8889,559.6956,928.3565,559.5202,917.8241,560.1153,907.2917,559.1829,896.7593,559.3368,886.2269,560.5535,875.6944,560.3313,865.162,560.6426,854.6296,559.5423,844.0972,560.21,833.5648,560.4925,823.0324,559.3854,812.5,559.8775,812.4873,559.8468,811.9275,559.6739,811.4081,559.5984,810.7317,559.1439,810.2044,559.0496,809.5537,558.6571,809.3761,558.5835,809.0924,557.9779,809.2271,557.5455,808.5915,556.7941,808.7407,556.3677,808.3333,555.7109,808.4051,555.7109,808.2403,549.884,808.2105,544.0572,808.4926,538.2304,808.2294,532.4036,808.3333,526.5767,808.5232,526.6554,808.4001,525.914,809.0196,525.4803,809.2209,524.8733,809.3882,524.2523,809.5537,523.6305,809.56,523.6456,810.2395,523.6195,810.8138,523.3391,811.344,522.9525,811.9464,522.7402,812.5,522.4101" style="stroke:#333333;stroke-width:1.0416666666666667;"/><text fill="#2E2E2E" font-family="Segoe Print" font-size="12.5" lengthAdjust="spacing" textLength="175" x="819.7917" y="545.4712">&#29992;&#26368;&#23567;&#20540;&#33410;&#28857;&#26367;&#20195;&#24403;&#21069;&#33410;&#28857;&#30340;&#20540;</text><polygon fill="none" points="856.25,580.7109,856.25,580.9298,866.4583,580.2793,876.6667,580.9122,886.875,581.1272,897.0833,579.9677,907.2917,580.6299,917.5,580.2666,927.7083,580.3114,937.9167,580.6399,948.125,579.9907,958.3333,580.7109,958.4069,580.8885,958.8388,580.7527,959.4856,581.1356,960.1585,581.5817,960.679,581.6597,961.2796,581.9312,961.3015,581.9403,961.5134,582.5163,961.825,583.1335,962.0886,583.7308,962.4438,584.3661,962.5,584.8775,962.733,584.8775,962.7359,590.7043,962.5884,596.5312,962.661,602.358,962.7438,608.1848,962.5,614.0116,962.2686,613.9158,962.4736,614.6911,961.9167,615.1508,961.939,615.8503,961.3649,616.3029,961.2796,616.9579,961.2705,616.9359,960.7889,617.4399,960.0946,617.4304,959.5258,617.7239,958.9676,618.0429,958.3333,618.1783,958.3333,618.6119,948.125,618.1742,937.9167,618.4775,927.7083,617.582,917.5,618.4745,907.2917,618.7493,897.0833,618.6414,886.875,618.8169,876.6667,617.6751,866.4583,617.4989,856.25,618.1783,856.1674,617.979,855.6529,617.9153,855.0454,617.6271,854.5728,617.6647,853.8698,617.146,853.3037,616.9579,853.1937,616.9123,853.1329,616.399,852.6017,615.6908,852.405,615.1212,852.5356,614.6871,852.0833,614.0116,852.2346,614.0116,852.3384,608.1848,851.9716,602.358,852.1942,596.5312,852.2883,590.7043,852.0833,584.8775,851.9318,584.8148,852.2967,584.2755,852.6119,583.7158,853.0246,583.1964,853.0583,582.5199,853.3037,581.9312,853.3652,582.0796,853.8194,581.5095,854.3922,581.2258,855.1384,581.3606,855.5655,580.7249,856.25,580.7109" style="stroke:#333333;stroke-width:1.0416666666666667;"/><text fill="#2E2E2E" font-family="Segoe Print" font-size="12.5" lengthAdjust="spacing" textLength="87.5" x="863.5417" y="603.772">&#21024;&#38500;&#26368;&#23567;&#20540;&#33410;&#28857;</text><polygon fill="none" points="918.8133,653.2571,917.1337,655.552,915.1471,658.9134,912.3059,661.1787,909.3202,662.4175,906.9396,662.525,903.8799,660.9757,900.9929,659.9636,898.8016,657.9087,897.6521,655.5562,896.9705,653.683,896.3027,651.2363,895.2187,649.1309,896.0517,647.0752,896.7815,644.8233,899.5201,643.0423,901.4468,640.7315,903.8317,639.9642,906.6668,639.3034,910.3025,639.696,912.2938,640.6351,914.6091,641.0608,917.4241,643.945,918.4055,646.9897,918.8318,649.0672,918.3489,652.4907" style="stroke:#2E2E2E;stroke-width:1.0416666666666667;"/><polygon fill="none" points="913.5762,651.9902,912.6601,653.242,911.5764,655.0755,910.0267,656.3111,908.3981,656.9868,907.0996,657.0454,905.4307,656.2004,903.856,655.6483,902.6607,654.5275,902.0337,653.2443,901.6619,652.2225,901.2977,650.888,900.7064,649.7396,901.1608,648.6183,901.5588,647.39,903.0526,646.4185,904.1036,645.1581,905.4044,644.7395,906.9508,644.3791,908.9339,644.5932,910.0201,645.1055,911.283,645.3377,912.8185,646.9109,913.3537,648.5716,913.5863,649.7048,913.3229,651.5722" style="stroke:#2E2E2E;stroke-width:1.0416666666666667;"/><polygon fill="none" points="307.0313,672.345,307.0829,672.3966,309.4295,674.7432,312.0787,677.3924,314.6294,679.9431,316.8561,682.1698,319.5313,684.845,319.5122,684.8259,316.9265,687.2403,314.4371,689.7508,312.0145,692.3282,309.3615,694.6752,307.0313,697.345,307.1672,697.4809,304.3765,694.6902,301.9827,692.2964,299.6373,689.951,297.0102,687.3239,294.5313,684.845,294.548,684.8617,297.0234,682.3371,299.5751,679.8888,302.09,677.4037,304.6751,674.9888,307.0313,672.345" style="stroke:#18A2B8;stroke-width:1.0416666666666667;"/><polygon fill="none" points="254.9479,168.6849,254.9479,168.9038,265.3646,168.2533,275.7813,168.8862,286.1979,169.1012,296.6146,167.9418,307.0313,168.6039,317.4479,168.2406,327.8646,168.2854,338.2813,168.6139,348.6979,167.9647,359.1146,168.6849,359.2505,168.8208,361.4598,171.0301,364.066,173.6363,366.7206,176.2909,369.0935,178.6638,371.6146,181.1849,371.6313,181.2016,369.1067,183.6771,366.6584,186.2287,364.1733,188.7436,361.7584,191.3287,359.1146,193.6849,359.1146,194.3839,348.6979,194.3925,338.2813,193.9501,327.8646,194.1678,317.4479,194.4164,307.0313,192.9337,296.6146,194.3917,286.1979,193.376,275.7813,194.2409,265.3646,193.1692,254.9479,193.6849,254.9311,193.6681,252.63,191.367,249.936,188.6729,247.4738,186.2107,245.0311,183.768,242.4479,181.1849,242.5501,181.2871,244.947,178.6839,247.5184,176.2554,249.8074,173.5444,252.5177,171.2547,254.9479,168.6849" style="stroke:#18A2B8;stroke-width:1.0416666666666667;"/><text fill="#2E2E2E" font-family="Segoe Print" font-size="12.5" lengthAdjust="spacing" textLength="12.5" x="316.4063" y="210.496">&#26159;</text><text fill="#2E2E2E" font-family="Segoe Print" font-size="12.5" lengthAdjust="spacing" textLength="93.75" x="260.1563" y="185.5123">&#24403;&#21069;&#33410;&#28857;&#19981;&#20026;&#31354;?</text><polygon fill="none" points="268.4896,741.095,268.4896,741.3139,279.5015,740.6634,290.5134,741.2963,301.5253,741.5113,312.5372,740.3519,323.5491,741.014,334.561,740.6507,345.5729,741.095,345.522,740.9719,346.1531,741.3172,346.6596,741.3613,347.4142,742.0048,347.8462,741.8691,348.5192,742.3154,348.4558,742.2891,348.9018,742.962,348.9798,743.4825,349.2733,744.0922,349.4853,744.6681,349.7396,745.2616,349.8016,745.2616,349.8226,751.0885,349.9429,756.9153,349.9726,762.7421,349.9754,768.5689,349.7396,774.3958,349.8213,774.4296,349.6442,775.0466,349.4767,775.6676,348.776,776.0677,348.9809,776.8429,348.5192,777.342,348.4798,777.2469,348.0009,777.7574,347.2749,777.6714,346.7423,778.0523,346.2607,778.5562,345.5729,778.5624,345.5729,778.5117,334.561,778.6721,323.5491,778.9152,312.5372,778.996,301.5253,778.5583,290.5134,778.8616,279.5015,777.9662,268.4896,778.5624,268.5274,778.6536,267.9732,778.4942,267.3701,778.2169,266.8033,778.0268,266.0684,777.4311,265.5433,777.342,265.3341,777.2554,265.0999,776.6702,265.0363,776.1557,264.748,775.5481,264.7856,775.0756,264.3229,774.3958,264.2623,774.3958,264.2038,768.5689,264.4022,762.7421,264.0914,756.9153,264.1427,751.0885,264.3229,745.2616,264.5311,745.3479,264.7068,744.7303,265.0467,744.1807,264.9519,743.4511,265.4016,742.947,265.5433,742.3154,265.6218,742.5048,266.0698,741.9197,266.7091,741.7965,267.3278,741.6235,267.9869,741.5481,268.4896,741.095" style="stroke:#333333;stroke-width:1.0416666666666667;"/><text fill="#2E2E2E" font-family="Segoe Print" font-size="12.5" lengthAdjust="spacing" textLength="62.5" x="275.7813" y="764.1561">&#33410;&#28857;&#26410;&#25214;&#21040;</text><polygon fill="none" points="318.5529,813.6412,316.8733,815.9362,314.8867,819.2975,312.0454,821.5628,309.0598,822.8016,306.6792,822.9091,303.6195,821.3599,300.7325,820.3478,298.5412,818.2928,297.3917,815.9403,296.7101,814.0671,296.0423,811.6204,294.9583,809.515,295.7913,807.4593,296.521,805.2074,299.2597,803.4265,301.1864,801.1156,303.5712,800.3483,306.4064,799.6875,310.0421,800.0801,312.0334,801.0192,314.3487,801.4449,317.1637,804.3291,318.1451,807.3738,318.5714,809.4513,318.0885,812.8748" style="stroke:#2E2E2E;stroke-width:1.0416666666666667;"/><polygon fill="none" points="313.3158,812.3743,312.3996,813.6261,311.316,815.4596,309.7663,816.6952,308.1377,817.3709,306.8392,817.4296,305.1703,816.5845,303.5955,816.0324,302.4003,814.9116,301.7733,813.6284,301.4015,812.6067,301.0373,811.2721,300.446,810.1237,300.9004,809.0024,301.2984,807.7741,302.7922,806.8027,303.8432,805.5422,305.144,805.1237,306.6904,804.7632,308.6735,804.9774,309.7597,805.4896,311.0226,805.7218,312.5581,807.295,313.0933,808.9558,313.3259,810.0889,313.0625,811.9563" style="stroke:#2E2E2E;stroke-width:1.0416666666666667;"/><path d="M307.0313,31.25 L307.1286,31.25 L306.8394,35.4167 L307.1207,39.5833 L307.2163,43.75 L306.701,47.9167 L307.0313,52.0833 " fill="#333333" style="stroke:#333333;stroke-width:3.125;"/><polygon fill="#333333" points="302.8646,41.6667,302.9323,41.6938,303.5643,43.6966,304.5936,45.8583,305.4934,47.9682,305.9679,49.908,307.0313,52.0833,307.0062,52.0733,307.7271,49.945,308.5743,47.8672,309.5093,45.8245,310.1417,43.6608,311.1979,41.6667,311.3338,41.8026,310.2098,42.3453,309.4827,43.2848,308.804,44.2727,307.8435,44.9789,307.0313,45.8333,307.048,45.8501,306.1901,44.9922,305.4084,44.2105,304.59,43.392,303.8417,42.6438,302.8646,41.6667" style="stroke:#333333;stroke-width:1.0416666666666667;"/><path d="M307.0313,89.5508 L307.1286,89.5508 L306.8394,93.7174 L307.1207,97.8841 L307.2163,102.0508 L306.701,106.2174 L307.0313,110.3841 " fill="#333333" style="stroke:#333333;stroke-width:3.125;"/><polygon fill="#333333" points="302.8646,99.9674,302.9323,99.9946,303.5643,101.9974,304.5936,104.159,305.4934,106.269,305.9679,108.2088,307.0313,110.3841,307.0062,110.3741,307.7271,108.2458,308.5743,106.168,309.5093,104.1253,310.1417,101.9616,311.1979,99.9674,311.3338,100.1034,310.2098,100.646,309.4827,101.5856,308.804,102.5735,307.8435,103.2797,307.0313,104.1341,307.048,104.1509,306.1901,103.2929,305.4084,102.5113,304.59,101.6928,303.8417,100.9446,302.8646,99.9674" style="stroke:#333333;stroke-width:1.0416666666666667;"/><path d="M122.9167,305.776 L123.014,305.776 L122.7249,313.0676 L123.0062,320.3593 L123.1017,327.651 L122.5864,334.9426 L122.9167,342.2343 " fill="#333333" style="stroke:#333333;stroke-width:3.125;"/><polygon fill="#333333" points="118.75,331.8176,118.8178,331.8447,119.4498,333.8475,120.479,336.0092,121.3789,338.1192,121.8533,340.059,122.9167,342.2343,122.8916,342.2243,123.6125,340.096,124.4597,338.0182,125.3947,335.9755,126.0271,333.8118,127.0833,331.8176,127.2193,331.9536,126.0953,332.4962,125.3681,333.4357,124.6894,334.4237,123.7289,335.1299,122.9167,335.9843,122.9334,336.001,122.0755,335.1431,121.2938,334.3615,120.4754,333.543,119.7271,332.7948,118.75,331.8176" style="stroke:#333333;stroke-width:1.0416666666666667;"/><path d="M320.8333,341.1926 L320.9306,341.1926 L320.6415,348.4843 L320.9228,355.776 L321.0184,363.0676 L320.5031,370.3593 L320.8333,377.651 " fill="#333333" style="stroke:#333333;stroke-width:3.125;"/><polygon fill="#333333" points="316.6667,367.2343,316.7344,367.2614,317.3664,369.2642,318.3956,371.4259,319.2955,373.5358,319.77,375.4756,320.8333,377.651,320.8083,377.6409,321.5292,375.5126,322.3764,373.4348,323.3114,371.3922,323.9438,369.2285,325,367.2343,325.1359,367.3702,324.0119,367.9129,323.2848,368.8524,322.6061,369.8403,321.6456,370.5466,320.8333,371.401,320.8501,371.4177,319.9922,370.5598,319.2105,369.7781,318.392,368.9597,317.6438,368.2114,316.6667,367.2343" style="stroke:#333333;stroke-width:1.0416666666666667;"/><path d="M515.625,450.5351 L515.7223,450.5351 L515.4332,457.8267 L515.7145,465.1184 L515.81,472.4101 L515.2947,479.7017 L515.625,486.9934 " fill="#333333" style="stroke:#333333;stroke-width:3.125;"/><polygon fill="#333333" points="511.4583,476.5767,511.5261,476.6038,512.1581,478.6066,513.1873,480.7683,514.0872,482.8783,514.5617,484.8181,515.625,486.9934,515.5999,486.9834,516.3208,484.8551,517.168,482.7773,518.103,480.7346,518.7354,478.5709,519.7917,476.5767,519.9276,476.7127,518.8036,477.2553,518.0764,478.1949,517.3977,479.1828,516.4373,479.889,515.625,480.7434,515.6418,480.7602,514.7838,479.9022,514.0022,479.1206,513.1837,478.3021,512.4355,477.5539,511.4583,476.5767" style="stroke:#333333;stroke-width:1.0416666666666667;"/><path d="M707.2917,485.9517 L707.389,485.9517 L707.0999,493.2434 L707.3812,500.5351 L707.4767,507.8267 L706.9614,515.1184 L707.2917,522.4101 " fill="#333333" style="stroke:#333333;stroke-width:3.125;"/><polygon fill="#333333" points="703.125,511.9934,703.1928,512.0205,703.8248,514.0233,704.854,516.185,705.7539,518.2949,706.2283,520.2347,707.2917,522.4101,707.2666,522.4001,707.9875,520.2717,708.8347,518.194,709.7697,516.1513,710.4021,513.9876,711.4583,511.9934,711.5943,512.1293,710.4703,512.672,709.7431,513.6115,709.0644,514.5995,708.1039,515.3057,707.2917,516.1601,707.3084,516.1768,706.4505,515.3189,705.6688,514.5372,704.8504,513.7188,704.1021,512.9705,703.125,511.9934" style="stroke:#333333;stroke-width:1.0416666666666667;"/><path d="M907.2917,485.9517 L907.389,485.9517 L907.0999,493.2434 L907.3812,500.5351 L907.4767,507.8267 L906.9614,515.1184 L907.2917,522.4101 " fill="#333333" style="stroke:#333333;stroke-width:3.125;"/><polygon fill="#333333" points="903.125,511.9934,903.1928,512.0205,903.8248,514.0233,904.854,516.185,905.7539,518.2949,906.2283,520.2347,907.2917,522.4101,907.2666,522.4001,907.9875,520.2717,908.8347,518.194,909.7697,516.1513,910.4021,513.9876,911.4583,511.9934,911.5943,512.1293,910.4703,512.672,909.7431,513.6115,909.0644,514.5995,908.1039,515.3057,907.2917,516.1601,907.3084,516.1768,906.4505,515.3189,905.6688,514.5372,904.8504,513.7188,904.1021,512.9705,903.125,511.9934" style="stroke:#333333;stroke-width:1.0416666666666667;"/><path d="M907.2917,559.8775 L907.389,559.8775 L907.0999,564.0442 L907.3812,568.2109 L907.4767,572.3775 L906.9614,576.5442 L907.2917,580.7109 " fill="#333333" style="stroke:#333333;stroke-width:3.125;"/><polygon fill="#333333" points="903.125,570.2942,903.1928,570.3213,903.8248,572.3241,904.854,574.4858,905.7539,576.5957,906.2283,578.5355,907.2917,580.7109,907.2666,580.7008,907.9875,578.5725,908.8347,576.4947,909.7697,574.4521,910.4021,572.2884,911.4583,570.2942,911.5943,570.4301,910.4703,570.9728,909.7431,571.9123,909.0644,572.9002,908.1039,573.6065,907.2917,574.4609,907.3084,574.4776,906.4505,573.6197,905.6688,572.838,904.8504,572.0196,904.1021,571.2713,903.125,570.2942" style="stroke:#333333;stroke-width:1.0416666666666667;"/><path d="M907.2917,618.1783 L907.389,618.1783 L907.0999,622.345 L907.3812,626.5116 L907.4767,630.6783 L906.9614,634.845 L907.2917,639.0116 " fill="#333333" style="stroke:#333333;stroke-width:3.125;"/><polygon fill="#333333" points="903.125,628.595,903.1928,628.6221,903.8248,630.6249,904.854,632.7866,905.7539,634.8965,906.2283,636.8363,907.2917,639.0116,907.2666,639.0016,907.9875,636.8733,908.8347,634.7955,909.7697,632.7528,910.4021,630.5891,911.4583,628.595,911.5943,628.7309,910.4703,629.2736,909.7431,630.2131,909.0644,631.201,908.1039,631.9072,907.2917,632.7616,907.3084,632.7784,906.4505,631.9205,905.6688,631.1388,904.8504,630.3204,904.1021,629.5721,903.125,628.595" style="stroke:#333333;stroke-width:1.0416666666666667;"/><path d="M727.0833,425.5676 L727.0833,425.6649 L723.125,425.3758 L719.1667,425.6571 L715.2083,425.7527 L711.25,425.2374 L707.2917,425.5676 " fill="#333333" style="stroke:#333333;stroke-width:3.125;"/><path d="M707.2917,425.5676 L707.389,425.5676 L707.0999,430.151 L707.3812,434.7343 L707.4767,439.3176 L706.9614,443.901 L707.2917,448.4843 " fill="#333333" style="stroke:#333333;stroke-width:3.125;"/><polygon fill="#333333" points="703.125,438.0676,703.1928,438.0947,703.8248,440.0975,704.854,442.2592,705.7539,444.3692,706.2283,446.309,707.2917,448.4843,707.2666,448.4743,707.9875,446.346,708.8347,444.2682,709.7697,442.2255,710.4021,440.0618,711.4583,438.0676,711.5943,438.2036,710.4703,438.7462,709.7431,439.6857,709.0644,440.6737,708.1039,441.3799,707.2917,442.2343,707.3084,442.251,706.4505,441.3931,705.6688,440.6115,704.8504,439.793,704.1021,439.0448,703.125,438.0676" style="stroke:#333333;stroke-width:1.0416666666666667;"/><path d="M887.5,425.5676 L887.5,425.6649 L891.4583,425.3758 L895.4167,425.6571 L899.375,425.7527 L903.3333,425.2374 L907.2917,425.5676 " fill="#333333" style="stroke:#333333;stroke-width:3.125;"/><path d="M907.2917,425.5676 L907.389,425.5676 L907.0999,430.151 L907.3812,434.7343 L907.4767,439.3176 L906.9614,443.901 L907.2917,448.4843 " fill="#333333" style="stroke:#333333;stroke-width:3.125;"/><polygon fill="#333333" points="903.125,438.0676,903.1928,438.0947,903.8248,440.0975,904.854,442.2592,905.7539,444.3692,906.2283,446.309,907.2917,448.4843,907.2666,448.4743,907.9875,446.346,908.8347,444.2682,909.7697,442.2255,910.4021,440.0618,911.4583,438.0676,911.5943,438.2036,910.4703,438.7462,909.7431,439.6857,909.0644,440.6737,908.1039,441.3799,907.2917,442.2343,907.3084,442.251,906.4505,441.3931,905.6688,440.6115,904.8504,439.793,904.1021,439.0448,903.125,438.0676" style="stroke:#333333;stroke-width:1.0416666666666667;"/><path d="M581.25,390.151 L581.25,390.4429 L570.3125,389.5755 L559.375,390.4194 L548.4375,390.7061 L537.5,389.1601 L526.5625,390.043 L515.625,390.151 " fill="#333333" style="stroke:#333333;stroke-width:3.125;"/><path d="M515.625,390.151 L515.7223,390.151 L515.4332,394.7343 L515.7145,399.3176 L515.81,403.901 L515.2947,408.4843 L515.625,413.0676 " fill="#333333" style="stroke:#333333;stroke-width:3.125;"/><polygon fill="#333333" points="511.4583,402.651,511.5261,402.6781,512.1581,404.6809,513.1873,406.8426,514.0872,408.9525,514.5617,410.8923,515.625,413.0676,515.5999,413.0576,516.3208,410.9293,517.168,408.8515,518.103,406.8088,518.7354,404.6451,519.7917,402.651,519.9276,402.7869,518.8036,403.3295,518.0764,404.2691,517.3977,405.257,516.4373,405.9632,515.625,406.8176,515.6418,406.8344,514.7838,405.9764,514.0022,405.1948,513.1837,404.3763,512.4355,403.6281,511.4583,402.651" style="stroke:#333333;stroke-width:1.0416666666666667;"/><path d="M741.6667,390.151 L741.6667,390.4429 L752.6042,389.5755 L763.5417,390.4194 L774.4792,390.7061 L785.4167,389.1601 L796.3542,390.043 L807.2917,390.151 " fill="#333333" style="stroke:#333333;stroke-width:3.125;"/><path d="M807.2917,390.151 L807.389,390.151 L807.0999,394.7343 L807.3812,399.3176 L807.4767,403.901 L806.9614,408.4843 L807.2917,413.0676 " fill="#333333" style="stroke:#333333;stroke-width:3.125;"/><polygon fill="#333333" points="803.125,402.651,803.1928,402.6781,803.8248,404.6809,804.854,406.8426,805.7539,408.9525,806.2283,410.8923,807.2917,413.0676,807.2666,413.0576,807.9875,410.9293,808.8347,408.8515,809.7697,406.8088,810.4021,404.6451,811.4583,402.651,811.5943,402.7869,810.4703,403.3295,809.7431,404.2691,809.0644,405.257,808.1039,405.9632,807.2917,406.8176,807.3084,406.8344,806.4505,405.9764,805.6688,405.1948,804.8504,404.3763,804.1021,403.6281,803.125,402.651" style="stroke:#333333;stroke-width:1.0416666666666667;"/><path d="M661.4583,341.1926 L661.5556,341.1926 L661.2665,348.4843 L661.5478,355.776 L661.6434,363.0676 L661.1281,370.3593 L661.4583,377.651 " fill="#333333" style="stroke:#333333;stroke-width:3.125;"/><polygon fill="#333333" points="657.2917,367.2343,657.3594,367.2614,657.9914,369.2642,659.0206,371.4259,659.9205,373.5358,660.395,375.4756,661.4583,377.651,661.4333,377.6409,662.1542,375.5126,663.0014,373.4348,663.9364,371.3922,664.5688,369.2285,665.625,367.2343,665.7609,367.3702,664.6369,367.9129,663.9098,368.8524,663.2311,369.8403,662.2706,370.5466,661.4583,371.401,661.4751,371.4177,660.6172,370.5598,659.8355,369.7781,659.017,368.9597,658.2688,368.2114,657.2917,367.2343" style="stroke:#333333;stroke-width:1.0416666666666667;"/><path d="M409.375,280.8085 L409.375,281.1004 L399.537,280.2331 L389.6991,281.077 L379.8611,281.3636 L370.0231,279.8177 L360.1852,280.7006 L350.3472,280.2162 L340.5093,280.2759 L330.6713,280.7139 L320.8333,280.8085 " fill="#333333" style="stroke:#333333;stroke-width:3.125;"/><path d="M320.8333,280.8085 L320.9306,280.8085 L320.6415,285.3918 L320.9228,289.9752 L321.0184,294.5585 L320.5031,299.1418 L320.8333,303.7252 " fill="#333333" style="stroke:#333333;stroke-width:3.125;"/><polygon fill="#333333" points="316.6667,293.3085,316.7344,293.3356,317.3664,295.3384,318.3956,297.5001,319.2955,299.6101,319.77,301.5498,320.8333,303.7252,320.8083,303.7152,321.5292,301.5868,322.3764,299.5091,323.3114,297.4664,323.9438,295.3027,325,293.3085,325.1359,293.4444,324.0119,293.9871,323.2848,294.9266,322.6061,295.9146,321.6456,296.6208,320.8333,297.4752,320.8501,297.4919,319.9922,296.634,319.2105,295.8523,318.392,295.0339,317.6438,294.2856,316.6667,293.3085" style="stroke:#333333;stroke-width:1.0416666666666667;"/><path d="M572.9167,280.8085 L572.9167,281.1004 L582.7546,280.2331 L592.5926,281.077 L602.4306,281.3636 L612.2685,279.8177 L622.1065,280.7006 L631.9444,280.2162 L641.7824,280.2759 L651.6204,280.7139 L661.4583,280.8085 " fill="#333333" style="stroke:#333333;stroke-width:3.125;"/><path d="M661.4583,280.8085 L661.5556,280.8085 L661.2665,285.3918 L661.5478,289.9752 L661.6434,294.5585 L661.1281,299.1418 L661.4583,303.7252 " fill="#333333" style="stroke:#333333;stroke-width:3.125;"/><polygon fill="#333333" points="657.2917,293.3085,657.3594,293.3356,657.9914,295.3384,659.0206,297.5001,659.9205,299.6101,660.395,301.5498,661.4583,303.7252,661.4333,303.7152,662.1542,301.5868,663.0014,299.5091,663.9364,297.4664,664.5688,295.3027,665.625,293.3085,665.7609,293.4444,664.6369,293.9871,663.9098,294.9266,663.2311,295.9146,662.2706,296.6208,661.4583,297.4752,661.4751,297.4919,660.6172,296.634,659.8355,295.8523,659.017,295.0339,658.2688,294.2856,657.2917,293.3085" style="stroke:#333333;stroke-width:1.0416666666666667;"/><path d="M320.8333,415.1184 L321.1253,415.1184 L320.2579,425.6192 L321.1018,436.1199 L321.3884,446.6207 L319.8425,457.1214 L320.7254,467.6222 L320.241,478.123 L320.3007,488.6237 L320.7387,499.1245 L319.8731,509.6252 L321.6023,520.126 L319.9579,530.6268 L320.5587,541.1275 L321.4333,551.6283 L320.7142,562.129 L320.9281,572.6298 L320.789,583.1306 L321.0813,593.6313 L321.1655,604.1321 L321.6468,614.6328 L321.7654,625.1336 L321.7767,635.6344 L321.187,646.1351 L321.4772,656.6359 L320.8333,667.1366 " fill="#333333" style="stroke:#333333;stroke-width:3.125;"/><path d="M320.8333,667.1366 L320.8333,667.4286 L331.4779,666.5612 L342.1224,667.4051 L352.7669,667.6917 L363.4115,666.1458 L374.056,667.0287 L384.7005,666.5443 L395.3451,666.604 L405.9896,667.042 L416.6341,666.1764 L427.2786,667.9056 L437.9232,666.2612 L448.5677,666.862 L459.2122,667.7366 L469.8568,667.0175 L480.5013,667.2314 L491.1458,667.1366 " fill="#333333" style="stroke:#333333;stroke-width:3.125;"/><path d="M491.1458,667.1366 L491.2431,667.1366 L490.954,670.6783 L491.2353,674.22 L491.3309,677.7616 L490.8156,681.3033 L491.1458,684.845 " fill="#333333" style="stroke:#333333;stroke-width:3.125;"/><path d="M491.1458,684.845 L491.1458,685.1369 L480.4199,684.2695 L469.694,685.1134 L458.9681,685.4001 L448.2422,683.8541 L437.5163,684.737 L426.7904,684.2526 L416.0645,684.3123 L405.3385,684.7503 L394.6126,683.8847 L383.8867,685.6139 L373.1608,683.9696 L362.4349,684.5703 L351.709,685.4449 L340.9831,684.7258 L330.2572,684.9397 L319.5313,684.845 " fill="#333333" style="stroke:#333333;stroke-width:3.125;"/><polygon fill="#333333" points="329.9479,680.6783,329.975,680.7461,327.8112,681.3781,325.8062,682.4073,323.7495,683.3072,321.5226,683.7816,319.5313,684.845,319.5212,684.8199,321.5596,685.5408,323.6485,686.388,325.7725,687.323,327.7754,687.9554,329.9479,689.0116,330.0838,689.1476,328.9598,688.0236,328.2327,687.2964,327.554,686.6177,326.5935,685.6572,325.7813,684.845,325.798,684.8617,326.6067,684.0038,327.4917,683.2221,328.34,682.4037,329.2584,681.6554,329.9479,680.6783" style="stroke:#333333;stroke-width:1.0416666666666667;"/><path d="M225.2604,245.3918 L225.2604,245.6838 L215.026,244.8164 L204.7917,245.6603 L194.5573,245.947 L184.3229,244.401 L174.0885,245.2839 L163.8542,244.7995 L153.6198,244.8592 L143.3854,245.2972 L133.151,244.4316 L122.9167,245.3918 " fill="#333333" style="stroke:#333333;stroke-width:3.125;"/><path d="M122.9167,245.3918 L123.014,245.3918 L122.7249,249.9752 L123.0062,254.5585 L123.1017,259.1418 L122.5864,263.7252 L122.9167,268.3085 " fill="#333333" style="stroke:#333333;stroke-width:3.125;"/><polygon fill="#333333" points="118.75,257.8918,118.8178,257.9189,119.4498,259.9218,120.479,262.0834,121.3789,264.1934,121.8533,266.1332,122.9167,268.3085,122.8916,268.2985,123.6125,266.1702,124.4597,264.0924,125.3947,262.0497,126.0271,259.886,127.0833,257.8918,127.2193,258.0278,126.0953,258.5704,125.3681,259.51,124.6894,260.4979,123.7289,261.2041,122.9167,262.0585,122.9334,262.0753,122.0755,261.2173,121.2938,260.4357,120.4754,259.6172,119.7271,258.869,118.75,257.8918" style="stroke:#333333;stroke-width:1.0416666666666667;"/><path d="M388.8021,245.3918 L388.8021,245.6838 L399.0365,244.8164 L409.2708,245.6603 L419.5052,245.947 L429.7396,244.401 L439.974,245.2839 L450.2083,244.7995 L460.4427,244.8592 L470.6771,245.2972 L480.9115,244.4316 L491.1458,245.3918 " fill="#333333" style="stroke:#333333;stroke-width:3.125;"/><path d="M491.1458,245.3918 L491.2431,245.3918 L490.954,249.9752 L491.2353,254.5585 L491.3309,259.1418 L490.8156,263.7252 L491.1458,268.3085 " fill="#333333" style="stroke:#333333;stroke-width:3.125;"/><polygon fill="#333333" points="486.9792,257.8918,487.0469,257.9189,487.6789,259.9218,488.7081,262.0834,489.608,264.1934,490.0825,266.1332,491.1458,268.3085,491.1208,268.2985,491.8417,266.1702,492.6889,264.0924,493.6239,262.0497,494.2563,259.886,495.3125,257.8918,495.4484,258.0278,494.3244,258.5704,493.5973,259.51,492.9186,260.4979,491.9581,261.2041,491.1458,262.0585,491.1626,262.0753,490.3047,261.2173,489.523,260.4357,488.7045,259.6172,487.9563,258.869,486.9792,257.8918" style="stroke:#333333;stroke-width:1.0416666666666667;"/><path d="M122.9167,379.7017 L123.2086,379.7017 L122.3412,390.2239 L123.1851,400.7461 L123.4718,411.2683 L121.9258,421.7905 L122.8087,432.3126 L122.3243,442.8348 L122.384,453.357 L122.822,463.8792 L121.9564,474.4014 L123.6856,484.9235 L122.0413,495.4457 L122.642,505.9679 L123.5166,516.4901 L122.7975,527.0123 L123.0114,537.5344 L122.8723,548.0566 L123.1646,558.5788 L123.2488,569.101 L123.7301,579.6232 L123.8487,590.1453 L123.8601,600.6675 L123.2703,611.1897 L123.5605,621.7119 L123.892,632.2341 L121.915,642.7562 L123.859,653.2784 L122.5049,663.8006 L123.6581,674.3228 L122.9167,684.845 " fill="#333333" style="stroke:#333333;stroke-width:3.125;"/><path d="M122.9167,684.845 L122.9167,685.1369 L133.6426,684.2695 L144.3685,685.1134 L155.0944,685.4001 L165.8203,683.8541 L176.5462,684.737 L187.2721,684.2526 L197.998,684.3123 L208.724,684.7503 L219.4499,683.8847 L230.1758,685.6139 L240.9017,683.9696 L251.6276,684.5703 L262.3535,685.4449 L273.0794,684.7258 L283.8053,684.9397 L294.5313,684.845 " fill="#333333" style="stroke:#333333;stroke-width:3.125;"/><polygon fill="#333333" points="284.1146,680.6783,284.1417,680.7461,286.1445,681.3781,288.3062,682.4073,290.4161,683.3072,292.3559,683.7816,294.5313,684.845,294.5212,684.8199,292.3929,685.5408,290.3151,686.388,288.2725,687.323,286.1088,687.9554,284.1146,689.0116,284.2505,689.1476,284.7932,688.0236,285.7327,687.2964,286.7206,686.6177,287.4269,685.6572,288.2813,684.845,288.298,684.8617,287.4401,684.0038,286.6584,683.2221,285.84,682.4037,285.0917,681.6554,284.1146,680.6783" style="stroke:#333333;stroke-width:1.0416666666666667;"/><path d="M307.0313,193.6849 L307.1286,193.6849 L306.8394,201.5263 L307.1207,209.3677 L307.2163,217.2091 L306.701,225.0505 L307.0313,232.8918 " fill="#333333" style="stroke:#333333;stroke-width:3.125;"/><polygon fill="#333333" points="302.8646,222.4752,302.9323,222.5023,303.5643,224.5051,304.5936,226.6668,305.4934,228.7767,305.9679,230.7165,307.0313,232.8918,307.0062,232.8818,307.7271,230.7535,308.5743,228.6757,309.5093,226.6331,310.1417,224.4694,311.1979,222.4752,311.3338,222.6111,310.2098,223.1538,309.4827,224.0933,308.804,225.0812,307.8435,225.7875,307.0313,226.6418,307.048,226.6586,306.1901,225.8007,305.4084,225.019,304.59,224.2006,303.8417,223.4523,302.8646,222.4752" style="stroke:#333333;stroke-width:1.0416666666666667;"/><path d="M307.0313,697.345 L307.1286,697.345 L306.8394,699.4283 L307.1207,701.5116 L307.2163,703.595 L306.701,705.6783 L307.0313,707.7616 " fill="#333333" style="stroke:#333333;stroke-width:3.125;"/><path d="M307.0313,707.7616 L307.0313,708.0536 L317.3762,707.1862 L327.7212,708.0301 L338.0661,708.3167 L348.4111,706.7708 L358.756,707.6537 L369.101,707.1693 L379.446,707.229 L389.7909,707.667 L400.1359,706.8014 L410.4808,708.5306 L420.8258,706.8862 L431.1707,707.487 L441.5157,708.3616 L451.8607,707.6425 L462.2056,707.8564 L472.5506,707.7173 L482.8955,708.0096 L493.2405,708.0938 L503.5854,708.5751 L513.9304,708.6937 L524.2754,708.7051 L534.6203,708.1153 L544.9653,708.4055 L555.3102,708.737 L565.6552,706.76 L576.0002,708.704 L586.3451,707.3498 L596.6901,708.503 L607.035,707.0741 L617.38,707.6665 L627.7249,708.7916 L638.0699,707.694 L648.4149,707.9079 L658.7598,708.232 L669.1048,708.3397 L679.4497,707.7562 L689.7947,708.1605 L700.1396,706.9666 L710.4846,708.1566 L720.8296,708.523 L731.1745,708.379 L741.5195,708.6131 L751.8644,707.0907 L762.2094,706.8558 L772.5543,706.8986 L782.8993,707.6799 L793.2443,707.4887 L803.5892,708.708 L813.9342,707.519 L824.2791,707.2852 L834.6241,708.0787 L844.9691,706.8355 L855.314,707.0406 L865.659,708.663 L876.0039,708.3667 L886.3489,708.7818 L896.6938,707.3147 L907.0388,708.205 L917.3838,708.5817 L927.7287,707.1055 L938.0737,707.6285 L948.4186,707.9366 L958.7636,708.6669 L969.1085,707.7558 L979.4535,708.4041 L989.7985,706.9925 L1000.1434,706.821 L1010.4884,708.4611 L1020.8333,707.7616 " fill="#333333" style="stroke:#333333;stroke-width:3.125;"/><polygon fill="#333333" points="1016.6667,478.6764,1016.7344,478.7035,1017.3664,476.5396,1018.3956,474.5346,1019.2955,472.4779,1019.77,470.251,1020.8333,468.2597,1020.8083,468.2497,1021.5292,470.288,1022.3764,472.3769,1023.3114,474.5009,1023.9438,476.5039,1025,478.6764,1025.1359,478.8123,1024.0119,477.6883,1023.2848,476.9611,1022.6061,476.2824,1021.6456,475.322,1020.8333,474.5097,1020.8501,474.5264,1019.9922,475.3352,1019.2105,476.2202,1018.392,477.0684,1017.6438,477.9868,1016.6667,478.6764" style="stroke:#333333;stroke-width:3.125;"/><path d="M1020.8333,181.1849 L1021.1253,181.1849 L1020.2579,191.5099 L1021.1018,201.835 L1021.3884,212.16 L1019.8425,222.485 L1020.7254,232.8101 L1020.241,243.1351 L1020.3007,253.4601 L1020.7387,263.7852 L1019.8731,274.1102 L1021.6023,284.4352 L1019.9579,294.7603 L1020.5587,305.0853 L1021.4333,315.4103 L1020.7142,325.7354 L1020.9281,336.0604 L1020.789,346.3854 L1021.0813,356.7105 L1021.1655,367.0355 L1021.6468,377.3605 L1021.7654,387.6856 L1021.7767,398.0106 L1021.187,408.3356 L1021.4772,418.6607 L1021.8087,428.9857 L1019.8317,439.3107 L1021.7757,449.6358 L1020.4215,459.9608 L1021.5747,470.2859 L1020.1458,480.6109 L1020.7382,490.9359 L1021.8633,501.261 L1020.7656,511.586 L1020.9796,521.911 L1021.3036,532.2361 L1021.4114,542.5611 L1020.8279,552.8861 L1021.2322,563.2112 L1020.0383,573.5362 L1021.2283,583.8612 L1021.5947,594.1863 L1021.4507,604.5113 L1021.6848,614.8363 L1020.1624,625.1614 L1019.9275,635.4864 L1019.9703,645.8114 L1020.7516,656.1365 L1020.5604,666.4615 L1021.7797,676.7865 L1020.5907,687.1116 L1020.3569,697.4366 L1020.8333,707.7616 " fill="#333333" style="stroke:#333333;stroke-width:3.125;"/><path d="M1020.8333,181.1849 L1020.8333,181.4768 L1010.3621,180.6095 L999.8908,181.4533 L989.4195,181.74 L978.9483,180.1941 L968.477,181.077 L958.0057,180.5925 L947.5344,180.6523 L937.0632,181.0902 L926.5919,180.2247 L916.1206,181.9538 L905.6494,180.3095 L895.1781,180.9102 L884.7068,181.7848 L874.2356,181.0658 L863.7643,181.2797 L853.293,181.1405 L842.8217,181.4328 L832.3505,181.517 L821.8792,181.9984 L811.4079,182.1169 L800.9367,182.1283 L790.4654,181.5385 L779.9941,181.8288 L769.5228,182.1602 L759.0516,180.1832 L748.5803,182.1273 L738.109,180.7731 L727.6378,181.9263 L717.1665,180.4974 L706.6952,181.0898 L696.224,182.2149 L685.7527,181.1172 L675.2814,181.3311 L664.8101,181.6552 L654.3389,181.763 L643.8676,181.1795 L633.3963,181.5838 L622.9251,180.3899 L612.4538,181.5799 L601.9825,181.9463 L591.5113,181.8023 L581.04,182.0363 L570.5687,180.514 L560.0974,180.2791 L549.6262,180.3218 L539.1549,181.1031 L528.6836,180.9119 L518.2124,182.1313 L507.7411,180.9423 L497.2698,180.7084 L486.7986,181.5019 L476.3273,180.2587 L465.856,180.4639 L455.3847,182.0862 L444.9135,181.79 L434.4422,182.205 L423.9709,180.738 L413.4997,181.6282 L403.0284,182.0049 L392.5571,180.5288 L382.0859,181.0518 L371.6146,181.1849 " fill="#333333" style="stroke:#333333;stroke-width:3.125;"/><polygon fill="#333333" points="382.0313,177.0182,382.0584,177.086,379.8945,177.718,377.8895,178.7472,375.8328,179.6471,373.6059,180.1216,371.6146,181.1849,371.6046,181.1598,373.6429,181.8807,375.7318,182.7279,377.8558,183.6629,379.8588,184.2953,382.0313,185.3516,382.1672,185.4875,381.0432,184.3635,380.316,183.6363,379.6373,182.9576,378.6769,181.9972,377.8646,181.1849,377.8813,181.2016,378.6901,180.3437,379.5751,179.5621,380.4233,178.7436,381.3417,177.9954,382.0313,177.0182" style="stroke:#333333;stroke-width:1.0416666666666667;"/><path d="M242.4479,181.1849 L242.4479,181.4768 L232.0933,180.6095 L221.7386,181.4533 L211.3839,181.74 L201.0293,180.1941 L190.6746,181.077 L180.3199,180.5925 L169.9653,180.6523 L159.6106,181.0902 L149.256,180.2247 L138.9013,181.9538 L128.5466,180.3095 L118.192,180.9102 L107.8373,181.7848 L97.4826,181.0658 L87.128,181.2797 L76.7733,181.1405 L66.4187,181.4328 L56.064,181.517 L45.7093,181.9984 L35.3547,182.1169 L25,181.1849 " fill="#333333" style="stroke:#333333;stroke-width:3.125;"/><polygon fill="#333333" points="20.8333,469.3014,20.9011,469.3285,21.5331,471.3313,22.5623,473.4929,23.4622,475.6029,23.9367,477.5427,25,479.718,24.9749,479.708,25.6958,477.5797,26.543,475.5019,27.478,473.4592,28.1104,471.2955,29.1667,469.3014,29.3026,469.4373,28.1786,469.9799,27.4514,470.9195,26.7727,471.9074,25.8123,472.6136,25,473.468,25.0168,473.4848,24.1588,472.6268,23.3772,471.8452,22.5587,471.0267,21.8105,470.2785,20.8333,469.3014" style="stroke:#333333;stroke-width:3.125;"/><path d="M25,181.1849 L25.2919,181.1849 L24.4246,191.6519 L25.2685,202.1189 L25.5551,212.586 L24.0092,223.053 L24.8921,233.52 L24.4076,243.987 L24.4674,254.454 L24.9053,264.9211 L24.0398,275.3881 L25.7689,285.8551 L24.1246,296.3221 L24.7253,306.7891 L25.5999,317.2562 L24.8809,327.7232 L25.0948,338.1902 L24.9556,348.6572 L25.248,359.1242 L25.3321,369.5913 L25.8135,380.0583 L25.932,390.5253 L25.9434,400.9923 L25.3536,411.4594 L25.6439,421.9264 L25.9753,432.3934 L23.9984,442.8604 L25.9424,453.3274 L24.5882,463.7945 L25.7414,474.2615 L24.3125,484.7285 L24.9049,495.1955 L26.03,505.6625 L24.9323,516.1296 L25.1463,526.5966 L25.4703,537.0636 L25.5781,547.5306 L24.9946,557.9976 L25.3989,568.4647 L24.205,578.9317 L25.395,589.3987 L25.7614,599.8657 L25.6174,610.3327 L25.8514,620.7998 L24.3291,631.2668 L24.0942,641.7338 L24.1369,652.2008 L24.9182,662.6678 L24.727,673.1349 L25.9464,683.6019 L24.7574,694.0689 L24.5235,704.5359 L25.317,715.003 L25,725.47 " fill="#333333" style="stroke:#333333;stroke-width:3.125;"/><path d="M25,725.47 L25,725.7619 L35.4456,724.8945 L45.8912,725.7384 L56.3368,726.0251 L66.7824,724.4791 L77.228,725.362 L87.6736,724.8776 L98.1192,724.9373 L108.5648,725.3753 L119.0104,724.5097 L129.456,726.2389 L139.9016,724.5946 L150.3472,725.1953 L160.7928,726.0699 L171.2384,725.3508 L181.684,725.5647 L192.1296,725.4256 L202.5752,725.7179 L213.0208,725.8021 L223.4664,726.2834 L233.912,726.402 L244.3576,726.4134 L254.8032,725.8236 L265.2488,726.1138 L275.6944,726.4453 L286.14,724.4683 L296.5856,726.4123 L307.0313,725.47 " fill="#333333" style="stroke:#333333;stroke-width:3.125;"/><path d="M307.0313,725.47 L307.1286,725.47 L306.8394,728.595 L307.1207,731.72 L307.2163,734.845 L306.701,737.97 L307.0313,741.095 " fill="#333333" style="stroke:#333333;stroke-width:3.125;"/><polygon fill="#333333" points="302.8646,730.6783,302.9323,730.7054,303.5643,732.7082,304.5936,734.8699,305.4934,736.9798,305.9679,738.9196,307.0313,741.095,307.0062,741.0849,307.7271,738.9566,308.5743,736.8788,309.5093,734.8362,310.1417,732.6725,311.1979,730.6783,311.3338,730.8142,310.2098,731.3569,309.4827,732.2964,308.804,733.2844,307.8435,733.9906,307.0313,734.845,307.048,734.8617,306.1901,734.0038,305.4084,733.2221,304.59,732.4037,303.8417,731.6554,302.8646,730.6783" style="stroke:#333333;stroke-width:1.0416666666666667;"/><path d="M307.0313,147.8516 L307.1286,147.8516 L306.8394,152.0182 L307.1207,156.1849 L307.2163,160.3516 L306.701,164.5182 L307.0313,168.6849 " fill="#333333" style="stroke:#333333;stroke-width:3.125;"/><polygon fill="#333333" points="302.8646,158.2682,302.9323,158.2953,303.5643,160.2981,304.5936,162.4598,305.4934,164.5698,305.9679,166.5096,307.0313,168.6849,307.0062,168.6749,307.7271,166.5466,308.5743,164.4688,309.5093,162.4261,310.1417,160.2624,311.1979,158.2682,311.3338,158.4042,310.2098,158.9468,309.4827,159.8863,308.804,160.8743,307.8435,161.5805,307.0313,162.4349,307.048,162.4516,306.1901,161.5937,305.4084,160.8121,304.59,159.9936,303.8417,159.2454,302.8646,158.2682" style="stroke:#333333;stroke-width:1.0416666666666667;"/><path d="M307.0313,778.5624 L307.1286,778.5624 L306.8394,782.7291 L307.1207,786.8958 L307.2163,791.0624 L306.701,795.2291 L307.0313,799.3958 " fill="#333333" style="stroke:#333333;stroke-width:3.125;"/><polygon fill="#333333" points="302.8646,788.9791,302.9323,789.0062,303.5643,791.009,304.5936,793.1707,305.4934,795.2806,305.9679,797.2204,307.0313,799.3958,307.0062,799.3857,307.7271,797.2574,308.5743,795.1796,309.5093,793.137,310.1417,790.9733,311.1979,788.9791,311.3338,789.115,310.2098,789.6577,309.4827,790.5972,308.804,791.5851,307.8435,792.2914,307.0313,793.1458,307.048,793.1625,306.1901,792.3046,305.4084,791.5229,304.59,790.7045,303.8417,789.9562,302.8646,788.9791" style="stroke:#333333;stroke-width:1.0416666666666667;"/><!--SRC=[ZPFDJi9058NtynJNk865CReY576XIr-YGf69XHewO8WXGQ89O10CBlnXWL41JK2Y2_dtPJejleLJ1h0KC6xQszupvtmpDxD2Wb980lLG8hvWV4s94Xc79OGyAedBaXU9Fe9ZcCHtiNWG4KDmWW3yM0mfOV-e1jXZ-Xr5LYAmkk4ID_TTx6y29P1dVMo1L296278F1qLw_apJvU_R9vhiGKoKevA0t5htKY-tXzcKaMhJNf9MBmI4ZeDObi11-qMQoV6UriffhOxnqjbs0bR1eT-yELaM3e1ZP0KUiCgDkpEMuWIsmV1K3E0sgbsQhT5qatvMQBt0nGBl3Hi3ez-mki0Ms7MIh9faXGet_Ctt_YT_XY3_OIDOoZ2dj56mXNfcm3o7bLD-n2n_eXyhJ5Ahh_x-e9Sorkqje3LvhslMVFt-I-i-Mes4gLOboj7uOmvmAO35Uo706C72-HV23CH2ZEbPyMIzVAMrwkouz5AIDlDiQFEM9e2jFS_09pwpZ8_Y3-DPrh0V1v2zdbJypPwZku7OXU8SfLU-6m6PPZy0]--></g></svg>