<svg xmlns="http://www.w3.org/2000/svg" xmlns:xlink="http://www.w3.org/1999/xlink" contentStyleType="text/css" height="607.2917px" preserveAspectRatio="none" style="width:951px;height:607px;" version="1.1" viewBox="0 0 951 607" width="951.0417px" zoomAndPan="magnify"><defs/><g><polygon fill="#17A2B8" points="469.8492,23.3671,468.3223,25.4534,466.5163,28.5092,463.9334,30.5686,461.2191,31.6947,459.0549,31.7924,456.2734,30.384,453.6488,29.4639,451.6568,27.5958,450.6118,25.4572,449.9921,23.7543,449.385,21.53,448.3996,19.616,449.1568,17.7472,449.8203,15.7,452.3099,14.0809,454.0615,11.9802,456.2295,11.2826,458.8069,10.6819,462.1121,11.0388,463.9224,11.8925,466.0272,12.2795,468.5863,14.9015,469.4785,17.6695,469.8661,19.5581,469.427,22.6703" style="stroke:#2E2E2E;stroke-width:1.0416666666666667;"/><polygon fill="none" points="401.5625,52.0833,401.5625,52.3023,412.0739,51.6517,422.5852,52.2847,433.0966,52.4997,443.608,51.3402,454.1193,52.0024,464.6307,51.6391,475.142,51.6839,485.6534,52.0123,496.1648,51.3632,506.6761,52.66,517.1875,52.0833,517.1038,51.8811,517.7505,52.264,518.4234,52.7101,518.9439,52.788,519.5536,53.0815,520.1338,53.3037,520.1235,53.2995,520.4351,53.9167,520.6986,54.514,521.0539,55.1493,521.3254,55.7499,521.3542,56.25,521.59,56.25,521.4426,62.0768,521.5151,67.9036,521.598,73.7305,521.1038,79.5573,521.3542,85.3841,521.5718,85.4743,521.015,85.934,521.0373,86.6336,520.4631,87.0861,520.3559,87.732,520.1338,88.3304,520.2323,88.5683,519.538,88.5588,518.9693,88.8523,518.411,89.1713,517.8321,89.4402,517.1875,89.5508,517.1875,89.5467,506.6761,89.85,496.1648,88.9545,485.6534,89.847,475.142,90.1218,464.6307,90.0138,454.1193,90.1893,443.608,89.0476,433.0966,88.8714,422.5852,88.9035,412.0739,89.4894,401.5625,89.5508,401.5364,89.4877,401.0638,89.5253,400.3608,89.0066,399.7491,88.7085,399.2358,88.6477,398.6162,88.3304,398.4023,88.2418,398.2056,87.6722,398.3362,87.2381,398.0237,86.6205,397.8755,86.071,397.3958,85.3841,397.2841,85.3841,397.5067,79.5573,397.6008,73.7305,397.2318,67.9036,397.3625,62.0768,397.3958,56.25,397.4362,56.2667,397.849,55.7473,397.8826,55.0709,398.2765,54.5437,398.1945,53.8194,398.6162,53.3037,398.5262,53.0865,399.2724,53.2212,399.6995,52.5856,400.4516,52.7348,401.0007,52.3937,401.5625,52.0833" style="stroke:#333333;stroke-width:1.0416666666666667;"/><text fill="#2E2E2E" font-family="Segoe Print" font-size="12.5" lengthAdjust="spacing" textLength="101.0417" x="408.8542" y="75.1444">&#36755;&#20837;&#25554;&#20837;&#20540; value</text><polygon fill="none" points="388.5417,110.3841,388.5417,110.6031,398.6607,109.9525,408.7798,110.5855,418.8988,110.8004,429.0179,109.641,439.1369,110.3032,449.256,109.9399,459.375,109.9846,469.494,110.3131,479.6131,109.6639,489.7321,110.9608,499.8512,109.7276,509.9702,110.1781,520.0893,110.8341,530.2083,110.3841,530.1969,110.3566,530.8067,110.6501,531.3826,110.862,531.9998,111.1736,532.5971,111.4371,533.1546,111.6045,533.3425,111.6823,533.614,112.2829,533.8607,112.8733,533.9685,113.4061,534.2796,114.0231,534.375,114.5508,534.6188,114.5508,534.1246,120.3776,534.6106,126.2044,534.272,132.0313,534.5604,137.8581,534.375,143.6849,534.2162,143.6191,534.1089,144.265,534.1247,144.9619,533.6271,145.4462,533.4325,146.0559,533.1546,146.6312,533.1996,146.7398,532.6207,147.0088,531.9756,147.1181,531.425,147.4555,530.7215,147.4239,530.2083,147.8516,530.2083,148.1478,520.0893,148.4226,509.9702,148.3146,499.8512,148.4901,489.7321,147.3484,479.6131,147.1722,469.494,147.2043,459.375,147.7902,449.256,147.6468,439.1369,148.5614,429.0179,147.6696,418.8988,147.4942,408.7798,148.0893,398.6607,147.1569,388.5417,147.8516,388.4727,147.685,388.0386,147.8157,387.421,147.5032,386.8715,147.3549,386.1419,146.772,385.5954,146.6312,385.6978,146.6736,385.5407,146.1204,384.9557,145.3899,384.8324,144.8507,384.6595,144.2909,384.375,143.6849,384.6013,143.6849,384.3735,137.8581,384.5356,132.0313,384.1827,126.2044,384.1398,120.3776,384.375,114.5508,384.5366,114.6177,384.3891,113.8663,385.0264,113.4399,385.1735,112.8105,385.2654,112.1582,385.5954,111.6045,385.5484,111.491,386.2456,111.5076,386.7341,111.0203,387.4418,111.0621,387.879,110.4509,388.5417,110.3841" style="stroke:#333333;stroke-width:1.0416666666666667;"/><text fill="#2E2E2E" font-family="Segoe Print" font-size="12.5" lengthAdjust="spacing" textLength="127.0833" x="395.8333" y="133.4452">&#21019;&#24314;&#26032;&#33410;&#28857; newNode</text><polygon fill="none" points="407.2917,168.6849,407.2917,168.9038,417.7083,168.2533,428.125,168.8862,438.5417,169.1012,448.9583,167.9418,459.375,168.6039,469.7917,168.2406,480.2083,168.2854,490.625,168.6139,501.0417,167.9647,511.4583,168.6849,511.5943,168.8208,513.8036,171.0301,516.4098,173.6363,519.0644,176.2909,521.4373,178.6638,523.9583,181.1849,523.9751,181.2016,521.4505,183.6771,519.0022,186.2287,516.517,188.7436,514.1021,191.3287,511.4583,193.6849,511.4583,194.3839,501.0417,194.3925,490.625,193.9501,480.2083,194.1678,469.7917,194.4164,459.375,192.9337,448.9583,194.3917,438.5417,193.376,428.125,194.2409,417.7083,193.1692,407.2917,193.6849,407.2748,193.6681,404.9737,191.367,402.2797,188.6729,399.8175,186.2107,397.3748,183.768,394.7917,181.1849,394.8939,181.2871,397.2907,178.6839,399.8622,176.2554,402.1511,173.5444,404.8615,171.2547,407.2917,168.6849" style="stroke:#4D4D4D;stroke-width:1.0416666666666667;"/><text fill="#2E2E2E" font-family="Segoe Print" font-size="12.5" lengthAdjust="spacing" textLength="93.75" x="412.5" y="185.5123">&#26681;&#33410;&#28857;&#26159;&#21542;&#20026;&#31354;?</text><text fill="#2E2E2E" font-family="Segoe Print" font-size="12.5" lengthAdjust="spacing" textLength="12.5" x="377.0833" y="173.0286">&#26159;</text><text fill="#2E2E2E" font-family="Segoe Print" font-size="12.5" lengthAdjust="spacing" textLength="12.5" x="529.1667" y="173.0286">&#21542;</text><polygon fill="none" points="277.0833,204.1016,277.0833,204.3205,287.6389,203.67,298.1944,204.3029,308.75,204.5179,319.3056,203.3584,329.8611,204.0206,340.4167,203.6573,350.9722,203.7021,361.5278,204.0306,372.0833,203.3814,382.6389,204.6783,393.1944,203.445,403.75,203.8956,414.3056,204.5515,424.8611,204.0122,435.4167,204.1016,435.4257,204.1235,436.0017,204.3354,436.6189,204.647,437.2162,204.9105,437.8515,205.2658,438.3629,205.322,438.5782,205.4111,438.8249,206.0015,438.9328,206.5343,439.2439,207.1513,439.5645,207.7723,439.5833,208.2682,439.3329,208.2682,439.8189,214.0951,439.4804,219.9219,439.7687,225.7487,439.4115,231.5755,439.5833,237.4023,439.5614,237.3932,439.5772,238.0901,439.0795,238.5744,438.8849,239.1841,438.7157,239.8044,438.3629,240.3486,438.4183,240.4821,437.7732,240.5914,437.2226,240.9289,436.5191,240.8972,436.0437,241.4162,435.4167,241.569,435.4167,242.14,424.8611,242.0321,414.3056,242.2076,403.75,241.0658,393.1944,240.8897,382.6389,240.9217,372.0833,241.5077,361.5278,241.3643,350.9722,242.2788,340.4167,241.3871,329.8611,241.2117,319.3056,241.8068,308.75,240.8744,298.1944,241.0283,287.6389,242.245,277.0833,241.569,277.1412,241.7088,276.5917,241.5606,275.8621,240.9776,275.358,240.9392,274.8048,240.7821,274.1371,240.3486,273.9855,240.2859,273.8622,239.7466,273.6893,239.1869,273.6139,238.6675,273.1594,237.991,272.9167,237.4023,273.0773,237.4023,272.7244,231.5755,272.6815,225.7487,273.0915,219.9219,272.6677,214.0951,272.9167,208.2682,273.0799,208.3359,273.227,207.7064,273.3189,207.0541,273.5354,206.4535,274.0401,205.9722,274.1371,205.322,274.0973,205.2259,274.805,205.2677,275.2421,204.6565,275.9869,204.7878,276.5584,204.501,277.0833,204.1016" style="stroke:#333333;stroke-width:1.0416666666666667;"/><text fill="#2E2E2E" font-family="Segoe Print" font-size="12.5" lengthAdjust="spacing" textLength="143.75" x="284.375" y="227.1627">&#23558; newNode &#35774;&#20026;&#26681;&#33410;&#28857;</text><polygon fill="none" points="367.7716,276.6478,366.092,278.9428,364.1054,282.3041,361.2642,284.5694,358.2785,285.8082,355.8979,285.9157,352.8382,284.3665,349.9512,283.3543,347.7599,281.2994,346.6105,278.9469,345.9288,277.0737,345.261,274.627,344.1771,272.5216,345.01,270.4659,345.7398,268.214,348.4784,266.433,350.4052,264.1222,352.79,263.3549,355.6251,262.6941,359.2608,263.0867,361.2522,264.0258,363.5674,264.4515,366.3825,267.3357,367.3638,270.3804,367.7902,272.4579,367.3072,275.8814" style="stroke:#2E2E2E;stroke-width:1.0416666666666667;"/><polygon fill="none" points="362.5345,275.3809,361.6184,276.6327,360.5348,278.4662,358.985,279.7018,357.3565,280.3775,356.058,280.4361,354.389,279.5911,352.8143,279.039,351.6191,277.9182,350.9921,276.635,350.6203,275.6133,350.256,274.2787,349.6648,273.1303,350.1191,272.009,350.5172,270.7807,352.011,269.8092,353.0619,268.5488,354.3627,268.1302,355.9092,267.7698,357.8923,267.984,358.9785,268.4962,360.2413,268.7284,361.7768,270.3016,362.3121,271.9624,362.5446,273.0955,362.2812,274.9629" style="stroke:#2E2E2E;stroke-width:1.0416666666666667;"/><polygon fill="none" points="464.5833,204.1016,464.5833,204.3205,474.8904,203.67,485.1974,204.3029,495.5044,204.5179,505.8114,203.3584,516.1184,204.0206,526.4254,203.6573,536.7325,203.7021,547.0395,204.0306,557.3465,203.3814,567.6535,204.6783,577.9605,203.445,588.2675,203.8956,598.5746,204.5515,608.8816,204.0122,619.1886,204.1726,629.4956,204.0683,639.8026,204.2875,650.1096,204.3507,660.4167,204.1016,660.4945,204.2894,661.0951,204.5609,661.6854,204.8076,662.2183,204.9155,662.8353,205.2266,663.3629,205.322,663.5882,205.4153,663.3757,205.8154,664.0688,206.5906,664.0001,207.0503,664.5105,207.7499,664.5833,208.2682,664.4115,208.2682,664.5595,214.0951,664.8408,219.9219,664.5664,225.7487,664.6199,231.5755,664.5833,237.4023,664.692,237.4473,664.4728,238.0469,664.0939,238.5803,663.9432,239.2083,663.4234,239.6833,663.3629,240.3486,663.4007,240.4399,662.8465,240.7686,662.2435,240.9794,661.6766,241.2775,660.9417,241.17,660.4167,241.569,660.4167,240.8897,650.1096,240.9217,639.8026,241.5077,629.4956,241.3643,619.1886,242.2788,608.8816,241.3871,598.5746,241.2117,588.2675,241.8068,577.9605,240.8744,567.6535,241.0283,557.3465,242.245,547.0395,242.0228,536.7325,242.3341,526.4254,241.2338,516.1184,241.9015,505.8114,242.184,495.5044,241.0769,485.1974,241.4692,474.8904,241.7002,464.5833,241.569,464.6699,241.7781,463.9935,241.3236,463.4663,241.2292,462.742,240.6591,462.1363,240.3754,461.6371,240.3486,461.7986,240.4155,461.163,239.6641,461.3122,239.2377,460.9711,238.6083,460.5748,237.956,460.4167,237.4023,460.2938,237.4023,460.576,231.5755,460.3127,225.7487,460.6222,219.9219,460.2247,214.0951,460.4167,208.2682,460.6147,208.3503,460.8161,207.7433,460.9834,207.1223,461.164,206.5067,461.6261,206.0078,461.6371,205.322,461.7186,205.5188,462.2488,205.1322,462.8512,204.9198,463.3875,204.5479,464.0893,204.5755,464.5833,204.1016" style="stroke:#333333;stroke-width:1.0416666666666667;"/><text fill="#2E2E2E" font-family="Segoe Print" font-size="12.5" lengthAdjust="spacing" textLength="181.25" x="471.875" y="227.1627">&#35774;&#32622;&#24403;&#21069;&#33410;&#28857; current &#20026;&#26681;&#33410;&#28857;</text><polygon fill="none" points="384.375,370.3593,384.375,370.5782,395.0893,369.9277,405.8036,370.5606,416.5179,370.7756,427.2321,369.6162,437.9464,370.2783,448.6607,369.915,459.375,369.9598,470.0893,370.2883,480.8036,369.6391,491.5179,370.936,502.2321,369.7028,512.9464,370.1533,523.6607,370.8092,534.375,370.3593,534.3539,370.3382,536.8918,372.876,539.3672,375.3514,541.9188,377.9031,544.4337,380.418,546.875,382.8593,547.0188,383.0031,544.5398,385.5241,542.0418,388.0261,539.4375,390.4218,536.9888,392.9731,534.375,395.3593,534.375,396.0908,523.6607,394.6081,512.9464,396.0661,502.2321,395.0504,491.5179,395.9153,480.8036,394.8436,470.0893,395.2879,459.375,396.1318,448.6607,395.3085,437.9464,395.469,427.2321,395.712,416.5179,395.7929,405.8036,395.3552,395.0893,395.6585,384.375,395.3593,384.2345,395.2188,381.9448,392.9291,379.5096,390.4939,376.9841,387.9684,374.5255,385.5098,371.875,382.8593,371.7564,382.7407,374.2149,380.1992,376.7224,377.7067,379.3605,375.3448,381.8267,372.811,384.375,370.3593" style="stroke:#4D4D4D;stroke-width:1.0416666666666667;"/><text fill="#2E2E2E" font-family="Segoe Print" font-size="12.5" lengthAdjust="spacing" textLength="139.5833" x="389.5833" y="387.1867">value &lt; current.value</text><text fill="#2E2E2E" font-family="Segoe Print" font-size="12.5" lengthAdjust="spacing" textLength="12.5" x="354.1667" y="374.703">&#26159;</text><text fill="#2E2E2E" font-family="Segoe Print" font-size="12.5" lengthAdjust="spacing" textLength="12.5" x="552.0833" y="374.703">&#21542;</text><polygon fill="none" points="152.6042,405.776,152.6042,405.9949,162.872,405.3444,173.1399,405.9773,183.4077,406.1923,193.6756,405.0328,203.9435,405.695,214.2113,405.3317,224.4792,405.3765,234.747,405.705,245.0149,405.0558,255.2827,406.3527,265.5506,405.1194,275.8185,405.57,286.0863,406.2259,296.3542,405.776,296.3331,405.7549,298.8709,408.2927,301.3463,410.7681,303.898,413.3198,306.4129,415.8347,308.8542,418.276,308.998,418.4198,306.5189,420.9407,304.0209,423.4427,301.4167,425.8385,298.968,428.3898,296.3542,430.776,296.3542,431.5075,286.0863,430.0247,275.8185,431.4827,265.5506,430.4671,255.2827,431.332,245.0149,430.2603,234.747,430.7046,224.4792,431.5485,214.2113,430.7252,203.9435,430.8857,193.6756,431.1287,183.4077,431.2095,173.1399,430.7719,162.872,431.0751,152.6042,430.776,152.4636,430.6354,150.174,428.3458,147.7388,425.9106,145.2133,423.3851,142.7547,420.9265,140.1042,418.276,139.9856,418.1574,142.444,415.6158,144.9516,413.1234,147.5897,410.7615,150.0559,408.2277,152.6042,405.776" style="stroke:#4D4D4D;stroke-width:1.0416666666666667;"/><text fill="#2E2E2E" font-family="Segoe Print" font-size="12.5" lengthAdjust="spacing" textLength="133.3333" x="157.8125" y="422.6034">current.left &#26159;&#21542;&#20026;&#31354;?</text><text fill="#2E2E2E" font-family="Segoe Print" font-size="12.5" lengthAdjust="spacing" textLength="12.5" x="122.3958" y="410.1196">&#26159;</text><text fill="#2E2E2E" font-family="Segoe Print" font-size="12.5" lengthAdjust="spacing" textLength="12.5" x="314.0625" y="410.1196">&#21542;</text><polygon fill="none" points="15.625,441.1926,15.625,441.4116,26.0417,440.761,36.4583,441.394,46.875,441.609,57.2917,440.4495,67.7083,441.1117,78.125,440.7484,88.5417,440.7931,98.9583,441.1216,109.375,440.4725,119.7917,441.7693,130.2083,440.5361,140.625,440.9866,151.0417,441.6426,161.4583,441.1033,171.875,441.2637,182.2917,441.1593,192.7083,441.3786,203.125,441.4417,213.5417,441.1926,213.6195,441.3805,214.2201,441.652,214.8104,441.8987,215.3433,442.0065,215.9603,442.3177,216.4879,442.413,216.7132,442.5063,216.5007,442.9064,217.1938,443.6817,217.1251,444.1414,217.6355,444.841,217.7083,445.3593,217.5365,445.3593,217.6845,451.1861,217.9658,457.0129,217.6914,462.8398,217.7449,468.6666,217.7083,474.4934,217.817,474.5384,217.5978,475.138,217.2189,475.6714,217.0682,476.2993,216.5484,476.7744,216.4879,477.4397,216.5257,477.5309,215.9715,477.8596,215.3685,478.0704,214.8016,478.3686,214.0667,478.261,213.5417,478.6601,213.5417,477.9807,203.125,478.0128,192.7083,478.5987,182.2917,478.4554,171.875,479.3699,161.4583,478.4781,151.0417,478.3027,140.625,478.8979,130.2083,477.9655,119.7917,478.1193,109.375,479.3361,98.9583,479.1139,88.5417,479.4252,78.125,478.3249,67.7083,478.9926,57.2917,479.2751,46.875,478.168,36.4583,478.5602,26.0417,478.7913,15.625,478.6601,15.7116,478.8692,15.0352,478.4147,14.508,478.3203,13.7836,477.7502,13.178,477.4665,12.6787,477.4397,12.8403,477.5066,12.2047,476.7552,12.3538,476.3288,12.0128,475.6994,11.6165,475.0471,11.4583,474.4934,11.3355,474.4934,11.6176,468.6666,11.3544,462.8398,11.6638,457.0129,11.2664,451.1861,11.4583,445.3593,11.6564,445.4413,11.8578,444.8344,12.0251,444.2133,12.2057,443.5978,12.6677,443.0988,12.6787,442.413,12.7603,442.6098,13.2905,442.2232,13.8929,442.0109,14.4292,441.639,15.1309,441.6665,15.625,441.1926" style="stroke:#333333;stroke-width:1.0416666666666667;"/><text fill="#2E2E2E" font-family="Segoe Print" font-size="12.5" lengthAdjust="spacing" textLength="183.3333" x="22.9167" y="464.2537">&#23558; newNode &#35774;&#20026; current.left</text><polygon fill="none" points="126.105,513.7389,124.4254,516.0338,122.4388,519.3952,119.5975,521.6605,116.6119,522.8993,114.2313,523.0068,111.1716,521.4575,108.2845,520.4454,106.0933,518.3905,104.9438,516.038,104.2622,514.1648,103.5943,511.7181,102.5104,509.6127,103.3434,507.557,104.0731,505.3051,106.8118,503.5241,108.7385,501.2133,111.1233,500.446,113.9585,499.7851,117.5942,500.1777,119.5855,501.1169,121.9007,501.5426,124.7158,504.4267,125.6971,507.4715,126.1235,509.549,125.6406,512.9724" style="stroke:#2E2E2E;stroke-width:1.0416666666666667;"/><polygon fill="none" points="120.8679,512.472,119.9517,513.7238,118.8681,515.5573,117.3183,516.7929,115.6898,517.4686,114.3913,517.5272,112.7224,516.6822,111.1476,516.1301,109.9524,515.0092,109.3254,513.726,108.9536,512.7043,108.5893,511.3698,107.9981,510.2213,108.4524,509.1,108.8505,507.8718,110.3443,506.9003,111.3952,505.6399,112.6961,505.2213,114.2425,504.8609,116.2256,505.075,117.3118,505.5873,118.5746,505.8195,120.1101,507.3926,120.6454,509.0534,120.878,510.1866,120.6146,512.0539" style="stroke:#2E2E2E;stroke-width:1.0416666666666667;"/><polygon fill="none" points="283.3333,441.1926,283.3333,441.4116,293.5417,440.761,303.75,441.394,313.9583,441.609,324.1667,440.4495,334.375,441.1117,344.5833,440.7484,354.7917,440.7931,365,441.1216,375.2083,440.4725,385.4167,441.1926,385.4902,441.3702,385.9222,441.2345,386.5689,441.6173,387.2418,442.0634,387.7623,442.1414,388.3629,442.413,388.3848,442.4221,388.5968,442.998,388.9084,443.6152,389.1719,444.2126,389.5271,444.8479,389.5833,445.3593,389.8163,445.3593,389.8192,451.1861,389.6717,457.0129,389.7443,462.8398,389.8272,468.6666,389.5833,474.4934,389.352,474.3976,389.5569,475.1728,389.0001,475.6325,389.0223,476.3321,388.4482,476.7847,388.3629,477.4397,388.3538,477.4177,387.8722,477.9217,387.178,477.9122,386.6092,478.2057,386.0509,478.5246,385.4167,478.6601,385.4167,479.0936,375.2083,478.656,365,478.9593,354.7917,478.0638,344.5833,478.9563,334.375,479.2311,324.1667,479.1231,313.9583,479.2986,303.75,478.1569,293.5417,477.9807,283.3333,478.6601,283.2508,478.4607,282.7363,478.3971,282.1287,478.1089,281.6561,478.1464,280.9531,477.6277,280.3871,477.4397,280.277,477.3941,280.2162,476.8808,279.685,476.1726,279.4883,475.6029,279.6189,475.1689,279.1667,474.4934,279.3179,474.4934,279.4217,468.6666,279.0549,462.8398,279.2775,457.0129,279.3717,451.1861,279.1667,445.3593,279.0151,445.2965,279.38,444.7573,279.6952,444.1975,280.108,443.6781,280.1416,443.0017,280.3871,442.413,280.4485,442.5614,280.9027,441.9913,281.4756,441.7076,282.2217,441.8423,282.6488,441.2067,283.3333,441.1926" style="stroke:#333333;stroke-width:1.0416666666666667;"/><text fill="#2E2E2E" font-family="Segoe Print" font-size="12.5" lengthAdjust="spacing" textLength="87.5" x="290.625" y="464.2537">&#31227;&#21160;&#21040;&#24038;&#23376;&#33410;&#28857;</text><polygon fill="none" points="242.7083,499.4934,242.7083,499.7123,252.8935,499.0618,263.0787,499.6947,273.2639,499.9097,283.4491,498.7503,293.6343,499.4125,303.8194,499.0491,314.0046,499.0939,324.1898,499.4224,334.375,498.7732,344.5602,500.0701,354.7454,498.8369,364.9306,499.2874,375.1157,499.9434,385.3009,499.4041,395.4861,499.5645,405.6713,499.4601,415.8565,499.6794,426.0417,499.4934,426.0734,499.5701,426.7087,499.9254,427.3093,500.1968,427.8997,500.4435,428.4325,500.5514,428.9879,500.7138,429.1367,500.7754,429.4573,501.3964,429.2448,501.7965,429.9378,502.5717,429.8691,503.0314,430.2083,503.6601,430.3937,503.6601,430.0365,509.4869,430.1845,515.3137,430.4658,521.1405,430.1914,526.9674,430.2083,532.7942,430.2421,532.8082,430.0729,533.4284,429.8537,534.028,429.4748,534.5614,429.3242,535.1894,428.9879,535.7405,428.9119,535.5568,428.4365,536.0758,427.8823,536.4045,427.2792,536.6153,426.7124,536.9134,426.0417,536.9609,426.0417,536.4576,415.8565,536.2815,405.6713,536.3136,395.4861,536.8995,385.3009,536.7561,375.1157,537.6707,364.9306,536.7789,354.7454,536.6035,344.5602,537.1986,334.375,536.2662,324.1898,536.4201,314.0046,537.6368,303.8194,537.4147,293.6343,537.726,283.4491,536.6257,273.2639,537.2934,263.0787,537.5759,252.8935,536.4688,242.7083,536.9609,242.6956,536.9301,242.1358,536.7572,241.6164,536.6818,240.94,536.2273,240.4128,536.1329,239.7621,535.7405,239.5844,535.6669,239.3007,535.0612,239.4355,534.6289,238.7998,533.8774,238.949,533.4511,238.5417,532.7942,238.6134,532.7942,238.4486,526.9674,238.4188,521.1405,238.701,515.3137,238.4377,509.4869,238.5417,503.6601,238.7315,503.7387,238.6084,502.9974,239.2279,502.5636,239.4293,501.9567,239.5966,501.3356,239.7621,500.7138,239.7683,500.7289,240.4479,500.7028,241.0221,500.4225,241.5523,500.0359,242.1547,499.8235,242.7083,499.4934" style="stroke:#333333;stroke-width:1.0416666666666667;"/><text fill="#2E2E2E" font-family="Segoe Print" font-size="12.5" lengthAdjust="spacing" textLength="168.75" x="250" y="522.5545">&#35774;&#32622; current = current.left</text><polygon fill="none" points="617.7083,405.776,617.7083,405.9949,627.9167,405.3444,638.125,405.9773,648.3333,406.1923,658.5417,405.0328,668.75,405.695,678.9583,405.3317,689.1667,405.3765,699.375,405.705,709.5833,405.0558,719.7917,406.3527,730,405.1194,740.2083,405.57,750.4167,406.2259,760.625,405.6866,770.8333,405.776,770.8501,405.7927,773.3255,408.2681,775.8772,410.8198,778.392,413.3347,780.9771,415.9198,783.3333,418.276,783.4981,418.4407,781.0001,420.9427,778.3959,423.3385,775.9472,425.8898,773.5057,428.4484,770.8333,430.776,770.8333,430.0247,760.625,431.4827,750.4167,430.4671,740.2083,431.332,730,430.2603,719.7917,430.7046,709.5833,431.5485,699.375,430.7252,689.1667,430.8857,678.9583,431.1287,668.75,431.2095,658.5417,430.7719,648.3333,431.0751,638.125,430.1797,627.9167,431.0722,617.7083,430.776,617.8429,430.9106,615.3175,428.3851,612.8588,425.9265,610.0897,423.1574,607.5482,420.6158,605.2083,418.276,605.0558,418.1234,607.6939,415.7615,610.1601,413.2277,612.8756,410.9433,615.1654,408.2331,617.7083,405.776" style="stroke:#4D4D4D;stroke-width:1.0416666666666667;"/><text fill="#2E2E2E" font-family="Segoe Print" font-size="12.5" lengthAdjust="spacing" textLength="142.7083" x="622.9167" y="422.6034">current.right &#26159;&#21542;&#20026;&#31354;?</text><text fill="#2E2E2E" font-family="Segoe Print" font-size="12.5" lengthAdjust="spacing" textLength="12.5" x="587.5" y="410.1196">&#26159;</text><text fill="#2E2E2E" font-family="Segoe Print" font-size="12.5" lengthAdjust="spacing" textLength="12.5" x="788.5417" y="410.1196">&#21542;</text><polygon fill="none" points="476.0417,441.1926,476.0417,441.4116,486.4063,440.761,496.7708,441.394,507.1354,441.609,517.5,440.4495,527.8646,441.1117,538.2292,440.7484,548.5938,440.7931,558.9583,441.1216,569.3229,440.4725,579.6875,441.7693,590.0521,440.5361,600.4167,440.9866,610.7813,441.6426,621.1458,441.1033,631.5104,441.2637,641.875,441.1593,652.2396,441.3786,662.6042,441.4417,672.9688,441.8027,683.3333,441.1926,683.4225,441.4079,684.0128,441.6546,684.5457,441.7625,685.1627,442.0736,685.7837,442.3942,686.2796,442.413,686.0483,442.3172,686.7413,443.0924,686.6727,443.5521,687.1831,444.2517,687.0971,444.7043,687.5,445.3593,687.4762,445.3593,687.7575,451.1861,687.4831,457.0129,687.5366,462.8398,687.6176,468.6666,687.5,474.4934,687.6335,474.5487,687.2547,475.0821,687.104,475.7101,686.5841,476.1851,686.6149,476.8882,686.2796,477.4397,686.3525,477.6155,685.7494,477.8264,685.1826,478.1245,684.4477,478.017,683.8359,478.2068,683.3333,478.6601,683.3333,478.0128,672.9688,478.5987,662.6042,478.4554,652.2396,479.3699,641.875,478.4781,631.5104,478.3027,621.1458,478.8979,610.7813,477.9655,600.4167,478.1193,590.0521,479.3361,579.6875,479.1139,569.3229,479.4252,558.9583,478.3249,548.5938,478.9926,538.2292,479.2751,527.8646,478.168,517.5,478.5602,507.1354,478.7913,496.7708,479.339,486.4063,478.6557,476.0417,478.6601,476.1031,478.8085,475.3788,478.2383,474.7732,477.9547,474.3408,478.0894,473.5894,477.4538,473.0954,477.4397,473.2587,477.5073,472.9176,476.8779,472.5213,476.2256,472.2497,475.6249,472.2662,475.1436,471.875,474.4934,471.7711,474.4934,472.0805,468.6666,471.6831,462.8398,472.0894,457.0129,472.0432,451.1861,471.875,445.3593,471.9536,445.3918,472.1342,444.7763,472.5962,444.2773,472.8041,443.6731,472.9056,443.0248,473.0954,442.413,473.131,442.499,473.6673,442.1271,474.3691,442.1547,474.8837,441.7305,475.4753,441.4921,476.0417,441.1926" style="stroke:#333333;stroke-width:1.0416666666666667;"/><text fill="#2E2E2E" font-family="Segoe Print" font-size="12.5" lengthAdjust="spacing" textLength="192.7083" x="483.3333" y="464.2537">&#23558; newNode &#35774;&#20026; current.right</text><polygon fill="none" points="591.2091,513.7389,589.5295,516.0338,587.5429,519.3952,584.7017,521.6605,581.716,522.8993,579.3354,523.0068,576.2757,521.4575,573.3887,520.4454,571.1974,518.3905,570.048,516.038,569.3663,514.1648,568.6985,511.7181,567.6146,509.6127,568.4475,507.557,569.1773,505.3051,571.9159,503.5241,573.8427,501.2133,576.2275,500.446,579.0626,499.7851,582.6983,500.1777,584.6897,501.1169,587.0049,501.5426,589.82,504.4267,590.8013,507.4715,591.2277,509.549,590.7447,512.9724" style="stroke:#2E2E2E;stroke-width:1.0416666666666667;"/><polygon fill="none" points="585.972,512.472,585.0559,513.7238,583.9723,515.5573,582.4225,516.7929,580.794,517.4686,579.4955,517.5272,577.8265,516.6822,576.2518,516.1301,575.0566,515.0092,574.4296,513.726,574.0578,512.7043,573.6935,511.3698,573.1023,510.2213,573.5566,509.1,573.9547,507.8718,575.4485,506.9003,576.4994,505.6399,577.8002,505.2213,579.3467,504.8609,581.3298,505.075,582.416,505.5873,583.6788,505.8195,585.2143,507.3926,585.7496,509.0534,585.9821,510.1866,585.7187,512.0539" style="stroke:#2E2E2E;stroke-width:1.0416666666666667;"/><polygon fill="none" points="757.8125,441.1926,757.8125,441.4116,768.0208,440.761,778.2292,441.394,788.4375,441.609,798.6458,440.4495,808.8542,441.1117,819.0625,440.7484,829.2708,440.7931,839.4792,441.1216,849.6875,440.4725,859.8958,441.1926,859.9694,441.3702,860.4013,441.2345,861.0481,441.6173,861.721,442.0634,862.2415,442.1414,862.8421,442.413,862.864,442.4221,863.0759,442.998,863.3875,443.6152,863.6511,444.2126,864.0063,444.8479,864.0625,445.3593,864.2955,445.3593,864.2984,451.1861,864.1509,457.0129,864.2235,462.8398,864.3063,468.6666,864.0625,474.4934,863.8311,474.3976,864.0361,475.1728,863.4792,475.6325,863.5015,476.3321,862.9274,476.7847,862.8421,477.4397,862.833,477.4177,862.3514,477.9217,861.6571,477.9122,861.0883,478.2057,860.5301,478.5246,859.8958,478.6601,859.8958,479.0936,849.6875,478.656,839.4792,478.9593,829.2708,478.0638,819.0625,478.9563,808.8542,479.2311,798.6458,479.1231,788.4375,479.2986,778.2292,478.1569,768.0208,477.9807,757.8125,478.6601,757.7299,478.4607,757.2154,478.3971,756.6079,478.1089,756.1353,478.1464,755.4323,477.6277,754.8662,477.4397,754.7562,477.3941,754.6954,476.8808,754.1642,476.1726,753.9675,475.6029,754.0981,475.1689,753.6458,474.4934,753.7971,474.4934,753.9009,468.6666,753.5341,462.8398,753.7567,457.0129,753.8508,451.1861,753.6458,445.3593,753.4943,445.2965,753.8592,444.7573,754.1744,444.1975,754.5871,443.6781,754.6208,443.0017,754.8662,442.413,754.9277,442.5614,755.3819,441.9913,755.9547,441.7076,756.7009,441.8423,757.128,441.2067,757.8125,441.1926" style="stroke:#333333;stroke-width:1.0416666666666667;"/><text fill="#2E2E2E" font-family="Segoe Print" font-size="12.5" lengthAdjust="spacing" textLength="87.5" x="765.1042" y="464.2537">&#31227;&#21160;&#21040;&#21491;&#23376;&#33410;&#28857;</text><polygon fill="none" points="712.5,499.4934,712.5,499.7123,722.6425,499.0618,732.7851,499.6947,742.9276,499.9097,753.0702,498.7503,763.2127,499.4125,773.3553,499.0491,783.4978,499.0939,793.6404,499.4224,803.7829,498.7732,813.9254,500.0701,824.068,498.8369,834.2105,499.2874,844.3531,499.9434,854.4956,499.4041,864.6382,499.5645,874.7807,499.4601,884.9232,499.6794,895.0658,499.7425,905.2083,499.4934,905.2862,499.6813,905.8868,499.9528,906.4771,500.1995,907.0099,500.3073,907.627,500.6184,908.1546,500.7138,908.3799,500.8071,908.1673,501.2072,908.8604,501.9825,908.7917,502.4422,909.3022,503.1418,909.375,503.6601,909.2031,503.6601,909.3512,509.4869,909.6325,515.3137,909.3581,521.1405,909.4116,526.9674,909.375,532.7942,909.4836,532.8392,909.2644,533.4388,908.8856,533.9722,908.7349,534.6001,908.2151,535.0752,908.1546,535.7405,908.1924,535.8317,907.6382,536.1604,907.0352,536.3712,906.4683,536.6694,905.7334,536.5618,905.2083,536.9609,905.2083,536.2815,895.0658,536.3136,884.9232,536.8995,874.7807,536.7561,864.6382,537.6707,854.4956,536.7789,844.3531,536.6035,834.2105,537.1986,824.068,536.2662,813.9254,536.4201,803.7829,537.6368,793.6404,537.4147,783.4978,537.726,773.3553,536.6257,763.2127,537.2934,753.0702,537.5759,742.9276,536.4688,732.7851,536.861,722.6425,537.0921,712.5,536.9609,712.5866,537.1699,711.9102,536.7154,711.383,536.6211,710.6586,536.051,710.053,535.7673,709.5537,535.7405,709.7153,535.8074,709.0797,535.0559,709.2288,534.6296,708.8878,534.0002,708.4915,533.3478,708.3333,532.7942,708.2105,532.7942,708.4926,526.9674,708.2294,521.1405,708.5388,515.3137,708.1414,509.4869,708.3333,503.6601,708.5314,503.7421,708.7328,503.1352,708.9001,502.5141,709.0807,501.8986,709.5427,501.3996,709.5537,500.7138,709.6353,500.9106,710.1655,500.524,710.7679,500.3117,711.3042,499.9398,712.0059,499.9673,712.5,499.4934" style="stroke:#333333;stroke-width:1.0416666666666667;"/><text fill="#2E2E2E" font-family="Segoe Print" font-size="12.5" lengthAdjust="spacing" textLength="178.125" x="719.7917" y="522.5545">&#35774;&#32622; current = current.right</text><polygon fill="none" points="459.375,547.3775,459.4266,547.4291,461.7733,549.7758,464.4225,552.425,466.9731,554.9757,469.1998,557.2024,471.875,559.8775,471.8559,559.8584,469.2703,562.2728,466.7808,564.7834,464.3583,567.3608,461.7053,569.7078,459.375,572.3775,459.5109,572.5135,456.7203,569.7228,454.3264,567.329,451.9811,564.9836,449.3539,562.3565,446.875,559.8775,446.8918,559.8943,449.3672,557.3697,451.9188,554.9214,454.4337,552.4362,457.0188,550.0213,459.375,547.3775" style="stroke:#4D4D4D;stroke-width:1.0416666666666667;"/><polygon fill="none" points="440.625,306.1523,440.625,306.2253,448.125,306.0085,455.625,306.2195,463.125,306.2911,470.625,305.9046,478.125,306.1523,478.1059,306.1333,480.5203,308.5476,483.0308,311.0582,485.6083,313.6356,487.9553,315.9826,490.625,318.6523,490.7609,318.7883,487.9703,320.9976,485.5764,323.6038,483.2311,326.2584,480.6039,328.6313,478.125,331.1523,478.125,331.176,470.625,331.1413,463.125,331.2143,455.625,331.2354,448.125,331.3557,440.625,331.1523,440.7898,331.3171,438.2918,328.8191,435.6875,326.2149,433.2388,323.7662,430.7974,321.3248,428.125,318.6523,427.9479,318.4753,430.7916,316.3189,433.0522,313.5795,435.7561,311.2834,438.0035,308.5308,440.625,306.1523" style="stroke:#4D4D4D;stroke-width:1.0416666666666667;"/><text fill="#2E2E2E" font-family="Segoe Print" font-size="12.5" lengthAdjust="spacing" textLength="27.0833" x="468.75" y="347.9635">true</text><text fill="#2E2E2E" font-family="Segoe Print" font-size="12.5" lengthAdjust="spacing" textLength="27.0833" x="445.8333" y="322.9797">true</text><path d="M459.375,31.25 L459.4723,31.25 L459.1832,35.4167 L459.4645,39.5833 L459.56,43.75 L459.0447,47.9167 L459.375,52.0833 " fill="#333333" style="stroke:#333333;stroke-width:3.125;"/><polygon fill="#333333" points="455.2083,41.6667,455.2761,41.6938,455.9081,43.6966,456.9373,45.8583,457.8372,47.9682,458.3117,49.908,459.375,52.0833,459.3499,52.0733,460.0708,49.945,460.918,47.8672,461.853,45.8245,462.4854,43.6608,463.5417,41.6667,463.6776,41.8026,462.5536,42.3453,461.8264,43.2848,461.1477,44.2727,460.1873,44.9789,459.375,45.8333,459.3918,45.8501,458.5338,44.9922,457.7522,44.2105,456.9337,43.392,456.1855,42.6438,455.2083,41.6667" style="stroke:#333333;stroke-width:1.0416666666666667;"/><path d="M459.375,89.5508 L459.4723,89.5508 L459.1832,93.7174 L459.4645,97.8841 L459.56,102.0508 L459.0447,106.2174 L459.375,110.3841 " fill="#333333" style="stroke:#333333;stroke-width:3.125;"/><polygon fill="#333333" points="455.2083,99.9674,455.2761,99.9946,455.9081,101.9974,456.9373,104.159,457.8372,106.269,458.3117,108.2088,459.375,110.3841,459.3499,110.3741,460.0708,108.2458,460.918,106.168,461.853,104.1253,462.4854,101.9616,463.5417,99.9674,463.6776,100.1034,462.5536,100.646,461.8264,101.5856,461.1477,102.5735,460.1873,103.2797,459.375,104.1341,459.3918,104.1509,458.5338,103.2929,457.7522,102.5113,456.9337,101.6928,456.1855,100.9446,455.2083,99.9674" style="stroke:#333333;stroke-width:1.0416666666666667;"/><path d="M356.25,241.569 L356.3473,241.569 L356.0582,245.7357 L356.3395,249.9023 L356.435,254.069 L355.9197,258.2357 L356.25,262.4023 " fill="#333333" style="stroke:#333333;stroke-width:3.125;"/><polygon fill="#333333" points="352.0833,251.9857,352.1511,252.0128,352.7831,254.0156,353.8123,256.1773,354.7122,258.2872,355.1867,260.227,356.25,262.4023,356.2249,262.3923,356.9458,260.264,357.793,258.1862,358.728,256.1436,359.3604,253.9799,360.4167,251.9857,360.5526,252.1216,359.4286,252.6643,358.7014,253.6038,358.0227,254.5917,357.0623,255.298,356.25,256.1523,356.2668,256.1691,355.4088,255.3112,354.6272,254.5295,353.8087,253.7111,353.0605,252.9628,352.0833,251.9857" style="stroke:#333333;stroke-width:1.0416666666666667;"/><path d="M394.7917,181.1849 L394.7917,181.2822 L387.0833,180.9931 L379.375,181.2744 L371.6667,181.3699 L363.9583,180.8546 L356.25,181.1849 " fill="#333333" style="stroke:#333333;stroke-width:3.125;"/><path d="M356.25,181.1849 L356.3473,181.1849 L356.0582,185.7682 L356.3395,190.3516 L356.435,194.9349 L355.9197,199.5182 L356.25,204.1016 " fill="#333333" style="stroke:#333333;stroke-width:3.125;"/><polygon fill="#333333" points="352.0833,193.6849,352.1511,193.712,352.7831,195.7148,353.8123,197.8765,354.7122,199.9864,355.1867,201.9262,356.25,204.1016,356.2249,204.0915,356.9458,201.9632,357.793,199.8854,358.728,197.8428,359.3604,195.6791,360.4167,193.6849,360.5526,193.8208,359.4286,194.3635,358.7014,195.303,358.0227,196.2909,357.0623,196.9972,356.25,197.8516,356.2668,197.8683,355.4088,197.0104,354.6272,196.2287,353.8087,195.4103,353.0605,194.662,352.0833,193.6849" style="stroke:#333333;stroke-width:1.0416666666666667;"/><path d="M523.9583,181.1849 L523.9583,181.2822 L531.6667,180.9931 L539.375,181.2744 L547.0833,181.3699 L554.7917,180.8546 L562.5,181.1849 " fill="#333333" style="stroke:#333333;stroke-width:3.125;"/><path d="M562.5,181.1849 L562.5973,181.1849 L562.3082,185.7682 L562.5895,190.3516 L562.685,194.9349 L562.1697,199.5182 L562.5,204.1016 " fill="#333333" style="stroke:#333333;stroke-width:3.125;"/><polygon fill="#333333" points="558.3333,193.6849,558.4011,193.712,559.0331,195.7148,560.0623,197.8765,560.9622,199.9864,561.4367,201.9262,562.5,204.1016,562.4749,204.0915,563.1958,201.9632,564.043,199.8854,564.978,197.8428,565.6104,195.6791,566.6667,193.6849,566.8026,193.8208,565.6786,194.3635,564.9514,195.303,564.2727,196.2909,563.3123,196.9972,562.5,197.8516,562.5168,197.8683,561.6588,197.0104,560.8772,196.2287,560.0587,195.4103,559.3105,194.662,558.3333,193.6849" style="stroke:#333333;stroke-width:1.0416666666666667;"/><path d="M562.5,241.569 L562.7919,241.569 L561.9246,251.3607 L562.7685,261.1523 L563.0551,270.944 L561.5092,280.7357 L562.5,290.5273 " fill="#333333" style="stroke:#333333;stroke-width:3.125;"/><path d="M562.5,290.5273 L562.5,290.8193 L552.1875,289.9519 L541.875,290.7958 L531.5625,291.0825 L521.25,289.5365 L510.9375,290.4194 L500.625,289.935 L490.3125,289.9947 L480,290.4327 L469.6875,289.5671 L459.375,290.5273 " fill="#333333" style="stroke:#333333;stroke-width:3.125;"/><path d="M459.375,290.5273 L459.4723,290.5273 L459.1832,293.6523 L459.4645,296.7773 L459.56,299.9023 L459.0447,303.0273 L459.375,306.1523 " fill="#333333" style="stroke:#333333;stroke-width:3.125;"/><polygon fill="#333333" points="455.2083,295.7357,455.2761,295.7628,455.9081,297.7656,456.9373,299.9273,457.8372,302.0372,458.3117,303.977,459.375,306.1523,459.3499,306.1423,460.0708,304.014,460.918,301.9362,461.853,299.8936,462.4854,297.7299,463.5417,295.7357,463.6776,295.8716,462.5536,296.4143,461.8264,297.3538,461.1477,298.3417,460.1873,299.048,459.375,299.9023,459.3918,299.9191,458.5338,299.0612,457.7522,298.2795,456.9337,297.4611,456.1855,296.7128,455.2083,295.7357" style="stroke:#333333;stroke-width:1.0416666666666667;"/><path d="M459.375,147.8516 L459.4723,147.8516 L459.1832,152.0182 L459.4645,156.1849 L459.56,160.3516 L459.0447,164.5182 L459.375,168.6849 " fill="#333333" style="stroke:#333333;stroke-width:3.125;"/><polygon fill="#333333" points="455.2083,158.2682,455.2761,158.2953,455.9081,160.2981,456.9373,162.4598,457.8372,164.5698,458.3117,166.5096,459.375,168.6849,459.3499,168.6749,460.0708,166.5466,460.918,164.4688,461.853,162.4261,462.4854,160.2624,463.5417,158.2682,463.6776,158.4042,462.5536,158.9468,461.8264,159.8863,461.1477,160.8743,460.1873,161.5805,459.375,162.4349,459.3918,162.4516,458.5338,161.5937,457.7522,160.8121,456.9337,159.9936,456.1855,159.2454,455.2083,158.2682" style="stroke:#333333;stroke-width:1.0416666666666667;"/><path d="M114.5833,478.6601 L114.6806,478.6601 L114.3915,482.8267 L114.6728,486.9934 L114.7684,491.1601 L114.2531,495.3267 L114.5833,499.4934 " fill="#333333" style="stroke:#333333;stroke-width:3.125;"/><polygon fill="#333333" points="110.4167,489.0767,110.4844,489.1038,111.1164,491.1066,112.1456,493.2683,113.0455,495.3783,113.52,497.3181,114.5833,499.4934,114.5583,499.4834,115.2792,497.3551,116.1264,495.2773,117.0614,493.2346,117.6938,491.0709,118.75,489.0767,118.8859,489.2127,117.7619,489.7553,117.0348,490.6949,116.3561,491.6828,115.3956,492.389,114.5833,493.2434,114.6001,493.2602,113.7422,492.4022,112.9605,491.6206,112.142,490.8021,111.3938,490.0539,110.4167,489.0767" style="stroke:#333333;stroke-width:1.0416666666666667;"/><path d="M334.375,478.6601 L334.4723,478.6601 L334.1832,482.8267 L334.4645,486.9934 L334.56,491.1601 L334.0447,495.3267 L334.375,499.4934 " fill="#333333" style="stroke:#333333;stroke-width:3.125;"/><polygon fill="#333333" points="330.2083,489.0767,330.2761,489.1038,330.9081,491.1066,331.9373,493.2683,332.8372,495.3783,333.3117,497.3181,334.375,499.4934,334.3499,499.4834,335.0708,497.3551,335.918,495.2773,336.853,493.2346,337.4854,491.0709,338.5417,489.0767,338.6776,489.2127,337.5536,489.7553,336.8264,490.6949,336.1477,491.6828,335.1873,492.389,334.375,493.2434,334.3918,493.2602,333.5338,492.4022,332.7522,491.6206,331.9337,490.8021,331.1855,490.0539,330.2083,489.0767" style="stroke:#333333;stroke-width:1.0416666666666667;"/><path d="M140.1042,418.276 L140.1042,418.3733 L135,418.0841 L129.8958,418.3654 L124.7917,418.461 L119.6875,417.9457 L114.5833,418.276 " fill="#333333" style="stroke:#333333;stroke-width:3.125;"/><path d="M114.5833,418.276 L114.6806,418.276 L114.3915,422.8593 L114.6728,427.4426 L114.7684,432.026 L114.2531,436.6093 L114.5833,441.1926 " fill="#333333" style="stroke:#333333;stroke-width:3.125;"/><polygon fill="#333333" points="110.4167,430.776,110.4844,430.8031,111.1164,432.8059,112.1456,434.9676,113.0455,437.0775,113.52,439.0173,114.5833,441.1926,114.5583,441.1826,115.2792,439.0543,116.1264,436.9765,117.0614,434.9338,117.6938,432.7701,118.75,430.776,118.8859,430.9119,117.7619,431.4545,117.0348,432.3941,116.3561,433.382,115.3956,434.0882,114.5833,434.9426,114.6001,434.9594,113.7422,434.1014,112.9605,433.3198,112.142,432.5013,111.3938,431.7531,110.4167,430.776" style="stroke:#333333;stroke-width:1.0416666666666667;"/><path d="M308.8542,418.276 L308.8542,418.3733 L313.9583,418.0841 L319.0625,418.3654 L324.1667,418.461 L329.2708,417.9457 L334.375,418.276 " fill="#333333" style="stroke:#333333;stroke-width:3.125;"/><path d="M334.375,418.276 L334.4723,418.276 L334.1832,422.8593 L334.4645,427.4426 L334.56,432.026 L334.0447,436.6093 L334.375,441.1926 " fill="#333333" style="stroke:#333333;stroke-width:3.125;"/><polygon fill="#333333" points="330.2083,430.776,330.2761,430.8031,330.9081,432.8059,331.9373,434.9676,332.8372,437.0775,333.3117,439.0173,334.375,441.1926,334.3499,441.1826,335.0708,439.0543,335.918,436.9765,336.853,434.9338,337.4854,432.7701,338.5417,430.776,338.6776,430.9119,337.5536,431.4545,336.8264,432.3941,336.1477,433.382,335.1873,434.0882,334.375,434.9426,334.3918,434.9594,333.5338,434.1014,332.7522,433.3198,331.9337,432.5013,331.1855,431.7531,330.2083,430.776" style="stroke:#333333;stroke-width:1.0416666666666667;"/><path d="M334.375,536.9609 L334.4723,536.9609 L334.1832,541.5442 L334.4645,546.1275 L334.56,550.7109 L334.0447,555.2942 L334.375,559.8775 " fill="#333333" style="stroke:#333333;stroke-width:3.125;"/><path d="M334.375,559.8775 L334.375,560.1694 L344.6023,559.3021 L354.8295,560.146 L365.0568,560.4326 L375.2841,558.8867 L385.5114,559.7696 L395.7386,559.2852 L405.9659,559.3449 L416.1932,559.7829 L426.4205,558.9173 L436.6477,560.6465 L446.875,559.8775 " fill="#333333" style="stroke:#333333;stroke-width:3.125;"/><polygon fill="#333333" points="436.4583,555.7109,436.4854,555.7786,438.4882,556.4106,440.6499,557.4398,442.7599,558.3397,444.6997,558.8142,446.875,559.8775,446.865,559.8525,444.7367,560.5734,442.6589,561.4206,440.6162,562.3555,438.4525,562.988,436.4583,564.0442,436.5943,564.1801,437.1369,563.0561,438.0764,562.329,439.0644,561.6502,439.7706,560.6898,440.625,559.8775,440.6418,559.8943,439.7838,559.0363,439.0022,558.2547,438.1837,557.4362,437.4355,556.688,436.4583,555.7109" style="stroke:#333333;stroke-width:1.0416666666666667;"/><path d="M579.6875,478.6601 L579.7848,478.6601 L579.4957,482.8267 L579.777,486.9934 L579.8725,491.1601 L579.3572,495.3267 L579.6875,499.4934 " fill="#333333" style="stroke:#333333;stroke-width:3.125;"/><polygon fill="#333333" points="575.5208,489.0767,575.5886,489.1038,576.2206,491.1066,577.2498,493.2683,578.1497,495.3783,578.6242,497.3181,579.6875,499.4934,579.6624,499.4834,580.3833,497.3551,581.2305,495.2773,582.1655,493.2346,582.7979,491.0709,583.8542,489.0767,583.9901,489.2127,582.8661,489.7553,582.1389,490.6949,581.4602,491.6828,580.4998,492.389,579.6875,493.2434,579.7043,493.2602,578.8463,492.4022,578.0647,491.6206,577.2462,490.8021,576.498,490.0539,575.5208,489.0767" style="stroke:#333333;stroke-width:1.0416666666666667;"/><path d="M808.8542,478.6601 L808.9515,478.6601 L808.6624,482.8267 L808.9437,486.9934 L809.0392,491.1601 L808.5239,495.3267 L808.8542,499.4934 " fill="#333333" style="stroke:#333333;stroke-width:3.125;"/><polygon fill="#333333" points="804.6875,489.0767,804.7553,489.1038,805.3873,491.1066,806.4165,493.2683,807.3164,495.3783,807.7908,497.3181,808.8542,499.4934,808.8291,499.4834,809.55,497.3551,810.3972,495.2773,811.3322,493.2346,811.9646,491.0709,813.0208,489.0767,813.1568,489.2127,812.0328,489.7553,811.3056,490.6949,810.6269,491.6828,809.6664,492.389,808.8542,493.2434,808.8709,493.2602,808.013,492.4022,807.2313,491.6206,806.4129,490.8021,805.6646,490.0539,804.6875,489.0767" style="stroke:#333333;stroke-width:1.0416666666666667;"/><path d="M605.2083,418.276 L605.2083,418.3733 L600.1042,418.0841 L595,418.3654 L589.8958,418.461 L584.7917,417.9457 L579.6875,418.276 " fill="#333333" style="stroke:#333333;stroke-width:3.125;"/><path d="M579.6875,418.276 L579.7848,418.276 L579.4957,422.8593 L579.777,427.4426 L579.8725,432.026 L579.3572,436.6093 L579.6875,441.1926 " fill="#333333" style="stroke:#333333;stroke-width:3.125;"/><polygon fill="#333333" points="575.5208,430.776,575.5886,430.8031,576.2206,432.8059,577.2498,434.9676,578.1497,437.0775,578.6242,439.0173,579.6875,441.1926,579.6624,441.1826,580.3833,439.0543,581.2305,436.9765,582.1655,434.9338,582.7979,432.7701,583.8542,430.776,583.9901,430.9119,582.8661,431.4545,582.1389,432.3941,581.4602,433.382,580.4998,434.0882,579.6875,434.9426,579.7043,434.9594,578.8463,434.1014,578.0647,433.3198,577.2462,432.5013,576.498,431.7531,575.5208,430.776" style="stroke:#333333;stroke-width:1.0416666666666667;"/><path d="M783.3333,418.276 L783.3333,418.3733 L788.4375,418.0841 L793.5417,418.3654 L798.6458,418.461 L803.75,417.9457 L808.8542,418.276 " fill="#333333" style="stroke:#333333;stroke-width:3.125;"/><path d="M808.8542,418.276 L808.9515,418.276 L808.6624,422.8593 L808.9437,427.4426 L809.0392,432.026 L808.5239,436.6093 L808.8542,441.1926 " fill="#333333" style="stroke:#333333;stroke-width:3.125;"/><polygon fill="#333333" points="804.6875,430.776,804.7553,430.8031,805.3873,432.8059,806.4165,434.9676,807.3164,437.0775,807.7908,439.0173,808.8542,441.1926,808.8291,441.1826,809.55,439.0543,810.3972,436.9765,811.3322,434.9338,811.9646,432.7701,813.0208,430.776,813.1568,430.9119,812.0328,431.4545,811.3056,432.3941,810.6269,433.382,809.6664,434.0882,808.8542,434.9426,808.8709,434.9594,808.013,434.1014,807.2313,433.3198,806.4129,432.5013,805.6646,431.7531,804.6875,430.776" style="stroke:#333333;stroke-width:1.0416666666666667;"/><path d="M808.8542,536.9609 L808.9515,536.9609 L808.6624,541.5442 L808.9437,546.1275 L809.0392,550.7109 L808.5239,555.2942 L808.8542,559.8775 " fill="#333333" style="stroke:#333333;stroke-width:3.125;"/><path d="M808.8542,559.8775 L808.8542,560.1694 L798.3236,559.3021 L787.793,560.146 L777.2624,560.4326 L766.7318,558.8867 L756.2012,559.7696 L745.6706,559.2852 L735.14,559.3449 L724.6094,559.7829 L714.0788,558.9173 L703.5482,560.6465 L693.0176,559.0021 L682.487,559.6028 L671.9564,560.4774 L661.4258,559.7584 L650.8952,559.9723 L640.3646,559.8332 L629.834,560.1255 L619.3034,560.2097 L608.7728,560.691 L598.2422,560.8095 L587.7116,560.8209 L577.181,560.2312 L566.6504,560.5214 L556.1198,560.8528 L545.5892,558.8759 L535.0586,560.8199 L524.528,559.4657 L513.9974,560.6189 L503.4668,559.19 L492.9362,559.7824 L482.4056,560.9075 L471.875,559.8775 " fill="#333333" style="stroke:#333333;stroke-width:3.125;"/><polygon fill="#333333" points="482.2917,555.7109,482.3188,555.7786,480.1549,556.4106,478.1499,557.4398,476.0932,558.3397,473.8663,558.8142,471.875,559.8775,471.865,559.8525,473.9033,560.5734,475.9922,561.4206,478.1162,562.3555,480.1192,562.988,482.2917,564.0442,482.4276,564.1801,481.3036,563.0561,480.5764,562.329,479.8977,561.6502,478.9373,560.6898,478.125,559.8775,478.1418,559.8943,478.9505,559.0363,479.8355,558.2547,480.6837,557.4362,481.6021,556.688,482.2917,555.7109" style="stroke:#333333;stroke-width:1.0416666666666667;"/><path d="M371.875,382.8593 L371.875,383.1512 L361.3467,382.2838 L350.8185,383.1277 L340.2902,383.4144 L329.7619,381.8685 L319.2336,382.7514 L308.7054,382.2669 L298.1771,382.3267 L287.6488,382.7646 L277.1205,381.8991 L266.5923,383.6282 L256.064,381.9839 L245.5357,382.5846 L235.0074,383.4592 L224.4792,382.8593 " fill="#333333" style="stroke:#333333;stroke-width:3.125;"/><path d="M224.4792,382.8593 L224.5765,382.8593 L224.2874,387.4426 L224.5687,392.026 L224.6642,396.6093 L224.1489,401.1926 L224.4792,405.776 " fill="#333333" style="stroke:#333333;stroke-width:3.125;"/><polygon fill="#333333" points="220.3125,395.3593,220.3803,395.3864,221.0123,397.3892,222.0415,399.5509,222.9414,401.6608,223.4158,403.6006,224.4792,405.776,224.4541,405.7659,225.175,403.6376,226.0222,401.5598,226.9572,399.5172,227.5896,397.3535,228.6458,395.3593,228.7818,395.4952,227.6578,396.0379,226.9306,396.9774,226.2519,397.9653,225.2914,398.6716,224.4792,399.526,224.4959,399.5427,223.638,398.6848,222.8563,397.9031,222.0379,397.0847,221.2896,396.3364,220.3125,395.3593" style="stroke:#333333;stroke-width:1.0416666666666667;"/><path d="M546.875,382.8593 L546.875,383.1512 L557.4033,382.2838 L567.9315,383.1277 L578.4598,383.4144 L588.9881,381.8685 L599.5164,382.7514 L610.0446,382.2669 L620.5729,382.3267 L631.1012,382.7646 L641.6295,381.8991 L652.1577,383.6282 L662.686,381.9839 L673.2143,382.5846 L683.7426,383.4592 L694.2708,382.8593 " fill="#333333" style="stroke:#333333;stroke-width:3.125;"/><path d="M694.2708,382.8593 L694.3681,382.8593 L694.079,387.4426 L694.3603,392.026 L694.4559,396.6093 L693.9406,401.1926 L694.2708,405.776 " fill="#333333" style="stroke:#333333;stroke-width:3.125;"/><polygon fill="#333333" points="690.1042,395.3593,690.1719,395.3864,690.8039,397.3892,691.8331,399.5509,692.733,401.6608,693.2075,403.6006,694.2708,405.776,694.2458,405.7659,694.9667,403.6376,695.8139,401.5598,696.7489,399.5172,697.3813,397.3535,698.4375,395.3593,698.5734,395.4952,697.4494,396.0379,696.7223,396.9774,696.0436,397.9653,695.0831,398.6716,694.2708,399.526,694.2876,399.5427,693.4297,398.6848,692.648,397.9031,691.8295,397.0847,691.0813,396.3364,690.1042,395.3593" style="stroke:#333333;stroke-width:1.0416666666666667;"/><path d="M459.375,331.1523 L459.4723,331.1523 L459.1832,338.9937 L459.4645,346.8351 L459.56,354.6765 L459.0447,362.5179 L459.375,370.3593 " fill="#333333" style="stroke:#333333;stroke-width:3.125;"/><polygon fill="#333333" points="455.2083,359.9426,455.2761,359.9697,455.9081,361.9725,456.9373,364.1342,457.8372,366.2442,458.3117,368.184,459.375,370.3593,459.3499,370.3493,460.0708,368.221,460.918,366.1432,461.853,364.1005,462.4854,361.9368,463.5417,359.9426,463.6776,360.0786,462.5536,360.6212,461.8264,361.5607,461.1477,362.5487,460.1873,363.2549,459.375,364.1093,459.3918,364.126,458.5338,363.2681,457.7522,362.4865,456.9337,361.668,456.1855,360.9198,455.2083,359.9426" style="stroke:#333333;stroke-width:1.0416666666666667;"/><path d="M459.375,572.3775 L459.4723,572.3775 L459.1832,574.4609 L459.4645,576.5442 L459.56,578.6275 L459.0447,580.7109 L459.375,582.7942 " fill="#333333" style="stroke:#333333;stroke-width:3.125;"/><path d="M459.375,582.7942 L459.375,583.0861 L469.6991,582.2187 L480.0231,583.0626 L490.3472,583.3493 L500.6713,581.8034 L510.9954,582.6863 L521.3194,582.2018 L531.6435,582.2616 L541.9676,582.6995 L552.2917,581.834 L562.6157,583.5631 L572.9398,581.9188 L583.2639,582.5195 L593.588,583.3941 L603.912,582.6751 L614.2361,582.889 L624.5602,582.7498 L634.8843,583.0421 L645.2083,583.1263 L655.5324,583.6076 L665.8565,583.7262 L676.1806,583.7376 L686.5046,583.1478 L696.8287,583.4381 L707.1528,583.7695 L717.4769,581.7925 L727.8009,583.7366 L738.125,582.3824 L748.4491,583.5356 L758.7731,582.1067 L769.0972,582.6991 L779.4213,583.8242 L789.7454,582.7265 L800.0694,582.9404 L810.3935,583.2645 L820.7176,583.3723 L831.0417,582.7888 L841.3657,583.1931 L851.6898,581.9992 L862.0139,583.1892 L872.338,583.5556 L882.662,583.4116 L892.9861,583.6456 L903.3102,582.1232 L913.6343,581.8884 L923.9583,582.7942 " fill="#333333" style="stroke:#333333;stroke-width:3.125;"/><polygon fill="#333333" points="919.7917,470.8639,919.8594,470.891,920.4914,468.7271,921.5206,466.7221,922.4205,464.6654,922.895,462.4385,923.9583,460.4472,923.9333,460.4372,924.6542,462.4755,925.5014,464.5644,926.4364,466.6884,927.0688,468.6914,928.125,470.8639,928.2609,470.9998,927.1369,469.8758,926.4098,469.1486,925.7311,468.4699,924.7706,467.5095,923.9583,466.6972,923.9751,466.7139,923.1172,467.5227,922.3355,468.4077,921.517,469.2559,920.7688,470.1743,919.7917,470.8639" style="stroke:#333333;stroke-width:3.125;"/><path d="M923.9583,318.6523 L924.2503,318.6523 L923.3829,329.218 L924.2268,339.7837 L924.5134,350.3494 L922.9675,360.915 L923.8504,371.4807 L923.366,382.0464 L923.4257,392.6121 L923.8637,403.1777 L922.9981,413.7434 L924.7273,424.3091 L923.0829,434.8748 L923.6837,445.4404 L924.5583,456.0061 L923.8392,466.5718 L924.0531,477.1375 L923.914,487.7031 L924.2063,498.2688 L924.2905,508.8345 L924.7718,519.4001 L924.8904,529.9658 L924.9017,540.5315 L924.312,551.0972 L924.6022,561.6628 L924.9337,572.2285 L923.9583,582.7942 " fill="#333333" style="stroke:#333333;stroke-width:3.125;"/><path d="M923.9583,318.6523 L923.9583,318.9443 L913.6409,318.0769 L903.3234,318.9208 L893.006,319.2075 L882.6885,317.6615 L872.371,318.5444 L862.0536,318.06 L851.7361,318.1197 L841.4187,318.5577 L831.1012,317.6921 L820.7837,319.4213 L810.4663,317.777 L800.1488,318.3777 L789.8313,319.2523 L779.5139,318.5332 L769.1964,318.7471 L758.879,318.608 L748.5615,318.9003 L738.244,318.9845 L727.9266,319.4658 L717.6091,319.5844 L707.2917,319.5958 L696.9742,319.006 L686.6567,319.2962 L676.3393,319.6277 L666.0218,317.6507 L655.7044,319.5947 L645.3869,318.2405 L635.0694,319.3937 L624.752,317.9648 L614.4345,318.5572 L604.1171,319.6824 L593.7996,318.5847 L583.4821,318.7986 L573.1647,319.1227 L562.8472,319.2304 L552.5298,318.6469 L542.2123,319.0513 L531.8948,317.8573 L521.5774,319.0473 L511.2599,319.4137 L500.9425,319.2698 L490.625,318.6523 " fill="#333333" style="stroke:#333333;stroke-width:3.125;"/><polygon fill="#333333" points="501.0417,314.4857,501.0688,314.5534,498.9049,315.1854,496.8999,316.2147,494.8432,317.1145,492.6163,317.589,490.625,318.6523,490.615,318.6273,492.6533,319.3482,494.7422,320.1954,496.8662,321.1304,498.8692,321.7628,501.0417,322.819,501.1776,322.9549,500.0536,321.8309,499.3264,321.1038,498.6477,320.4251,497.6873,319.4646,496.875,318.6523,496.8918,318.6691,497.7005,317.8112,498.5855,317.0295,499.4337,316.2111,500.3521,315.4628,501.0417,314.4857" style="stroke:#333333;stroke-width:1.0416666666666667;"/><!--SRC=[Kop9ICrDLIZEJYr9pgZKpIyjoSdCI-KgBaaiAk6oUh5lyjFMfS_w9m79fmrx5CeISqfJhRciddRCVhfxrxDf6rvqDJrlsgcGbrhkbvy2bE7AJ5FGUBPW9qJysOprJoSiUx9Zr_ELk-mr5O1MvG5bPwpNv5800gkd6zfWEXLUhDi7L0VNQGrMKLoINy2LcbESgg01D0Ug2wZo-TvrJ_TEVjhP2xK-kRIeA3MlH07LXDIybCmqBgxoZCmSe04bHQMfcWgPnL0Ms2oGOy5UKh21cQ47vcEu5QOQfYedDQr40R_tO02BDnMGZR56KGtsCeo3vdMuYS-NxtxQjU9fnuQdsvSzNJi1ESZWQY3110yQMnnsGW89XsN8FYxAJC-WXfV1vb3av_xD9FiPpL8aJqFI29029nCktUYCp9IKrBnONJi0]--></g></svg>