<svg xmlns="http://www.w3.org/2000/svg" xmlns:xlink="http://www.w3.org/1999/xlink" contentStyleType="text/css" height="518.75px" preserveAspectRatio="none" style="width:480px;height:518px;" version="1.1" viewBox="0 0 480 518" width="480.2083px" zoomAndPan="magnify"><defs/><g><polygon fill="#17A2B8" points="194.068,23.3671,192.5411,25.4534,190.735,28.5092,188.1521,30.5686,185.4379,31.6947,183.2737,31.7924,180.4921,30.384,177.8676,29.4639,175.8755,27.5958,174.8306,25.4572,174.2109,23.7543,173.6038,21.53,172.6184,19.616,173.3756,17.7472,174.039,15.7,176.5287,14.0809,178.2803,11.9802,180.4483,11.2826,183.0257,10.6819,186.3309,11.0388,188.1412,11.8925,190.2459,12.2795,192.8051,14.9015,193.6972,17.6695,194.0848,19.5581,193.6458,22.6703" style="stroke:#2E2E2E;stroke-width:1.0416666666666667;"/><polygon fill="none" points="125.7813,52.0833,125.7813,52.3023,136.2926,51.6517,146.804,52.2847,157.3153,52.4997,167.8267,51.3402,178.3381,52.0024,188.8494,51.6391,199.3608,51.6839,209.8722,52.0123,220.3835,51.3632,230.8949,52.66,241.4063,52.0833,241.3225,51.8811,241.9692,52.264,242.6422,52.7101,243.1626,52.788,243.7723,53.0815,244.3525,53.3037,244.3423,53.2995,244.6539,53.9167,244.9174,54.514,245.2726,55.1493,245.5441,55.7499,245.5729,56.25,245.8088,56.25,245.6613,62.0768,245.7339,67.9036,245.8167,73.7305,245.3225,79.5573,245.5729,85.3841,245.7906,85.4743,245.2337,85.934,245.256,86.6336,244.6819,87.0861,244.5746,87.732,244.3525,88.3304,244.4511,88.5683,243.7568,88.5588,243.188,88.8523,242.6298,89.1713,242.0508,89.4402,241.4063,89.5508,241.4063,89.5467,230.8949,89.85,220.3835,88.9545,209.8722,89.847,199.3608,90.1218,188.8494,90.0138,178.3381,90.1893,167.8267,89.0476,157.3153,88.8714,146.804,88.9035,136.2926,89.4894,125.7813,89.5508,125.7551,89.4877,125.2825,89.5253,124.5795,89.0066,123.9679,88.7085,123.4546,88.6477,122.835,88.3304,122.6211,88.2418,122.4244,87.6722,122.555,87.2381,122.2425,86.6205,122.0943,86.071,121.6146,85.3841,121.5028,85.3841,121.7254,79.5573,121.8196,73.7305,121.4506,67.9036,121.5813,62.0768,121.6146,56.25,121.655,56.2667,122.0677,55.7473,122.1014,55.0709,122.4952,54.5437,122.4132,53.8194,122.835,53.3037,122.745,53.0865,123.4911,53.2212,123.9182,52.5856,124.6704,52.7348,125.2195,52.3937,125.7813,52.0833" style="stroke:#333333;stroke-width:1.0416666666666667;"/><text fill="#2E2E2E" font-family="Segoe Print" font-size="12.5" lengthAdjust="spacing" textLength="101.0417" x="133.0729" y="75.1444">&#36755;&#20837;&#26597;&#25214;&#20540; value</text><polygon fill="none" points="138.8021,110.3841,138.8021,110.6031,148.7558,109.9525,158.7095,110.5855,168.6632,110.8004,178.6169,109.641,188.5706,110.3032,198.5243,109.9399,208.478,109.9846,218.4317,110.3131,228.3854,110.3841,228.2936,110.1623,229.0482,110.8058,229.4802,110.6701,230.1269,111.0529,230.7998,111.499,231.3317,111.6045,231.3042,111.5931,231.5977,112.2028,231.8096,112.7788,232.1212,113.396,232.3847,113.9933,232.5521,114.5508,232.7554,114.5508,232.7851,120.3776,232.7879,126.2044,232.6405,132.0313,232.7131,137.8581,232.5521,143.6849,232.7774,143.7782,232.0767,144.1783,232.2816,144.9536,231.7247,145.4133,231.747,146.1128,231.3317,146.6312,231.2659,146.4724,230.7333,146.8533,230.2517,147.3572,229.5575,147.3478,228.9887,147.6413,228.3854,147.8516,228.3854,148.2043,218.4317,148.2851,208.478,147.8475,198.5243,148.1507,188.5706,147.2553,178.6169,148.1478,168.6632,148.4226,158.7095,148.3146,148.7558,148.4901,138.8021,147.8516,138.7379,147.6966,138.1262,147.3983,137.541,147.1641,137.0265,147.1004,136.4189,146.8122,135.8558,146.6312,136.0744,146.7217,135.5557,146.0187,135.2576,145.4071,135.1968,144.8937,134.6656,144.1855,134.6354,143.6849,134.4552,143.6849,134.8607,137.8581,134.7867,132.0313,134.8904,126.2044,134.5237,120.3776,134.6354,114.5508,134.7378,114.5932,135.0689,114.04,134.972,113.3095,135.3369,112.7703,135.6521,112.2105,135.8558,111.6045,135.9424,111.8136,136.4445,111.3591,137.0958,111.2647,137.55,110.6946,138.1228,110.4109,138.8021,110.3841" style="stroke:#333333;stroke-width:1.0416666666666667;"/><text fill="#2E2E2E" font-family="Segoe Print" font-size="12.5" lengthAdjust="spacing" textLength="75" x="146.0938" y="133.4452">&#20174;&#26681;&#33410;&#28857;&#24320;&#22987;</text><polygon fill="none" points="109.1146,232.8918,109.1146,233.1108,119.7545,232.4603,130.3943,233.0932,141.0342,233.3082,151.6741,232.1487,162.314,232.8109,172.9539,232.4476,183.5938,232.4924,194.2336,232.8208,204.8735,232.1717,215.5134,233.4686,226.1533,232.2353,236.7932,232.6858,247.433,233.3418,258.0729,232.8918,258.0519,232.8708,260.5897,235.4086,263.0651,237.884,265.6167,240.4357,268.1316,242.9506,270.5729,245.3918,270.7167,245.5356,268.2377,248.0566,265.7397,250.5586,263.1354,252.9544,260.6867,255.5057,258.0729,257.8918,258.0729,258.6233,247.433,257.1406,236.7932,258.5986,226.1533,257.583,215.5134,258.4479,204.8735,257.3762,194.2336,257.8205,183.5938,258.6644,172.9539,257.8411,162.314,258.0015,151.6741,258.2446,141.0342,258.3254,130.3943,257.8878,119.7545,258.191,109.1146,257.8918,108.974,257.7513,106.6844,255.4617,104.2492,253.0264,101.7237,250.501,99.2651,248.0424,96.6146,245.3918,96.496,245.2732,98.9545,242.7317,101.462,240.2393,104.1001,237.8774,106.5663,235.3436,109.1146,232.8918" style="stroke:#4D4D4D;stroke-width:1.0416666666666667;"/><text fill="#2E2E2E" font-family="Segoe Print" font-size="12.5" lengthAdjust="spacing" textLength="138.5417" x="114.3229" y="249.7192">&#24403;&#21069;&#33410;&#28857;&#30340;&#20540; == value</text><text fill="#2E2E2E" font-family="Segoe Print" font-size="12.5" lengthAdjust="spacing" textLength="12.5" x="78.9063" y="237.2355">&#26159;</text><text fill="#2E2E2E" font-family="Segoe Print" font-size="12.5" lengthAdjust="spacing" textLength="12.5" x="275.7813" y="237.2355">&#21542;</text><polygon fill="none" points="43.75,268.3085,43.75,268.5275,54.5139,267.8769,65.2778,268.5099,76.0417,268.7248,86.8056,267.5654,97.5694,268.2276,108.3333,268.3085,108.2767,268.1717,108.8716,268.4296,109.5028,268.7748,110.0092,268.819,110.7639,269.4624,111.2796,269.5289,111.0774,269.4452,111.4602,270.0919,111.9063,270.7648,111.9843,271.2853,112.2778,271.895,112.5,272.4752,112.4889,272.4752,112.562,278.302,112.583,284.1288,112.7034,289.9556,112.733,295.7825,112.5,301.6093,112.7179,301.6996,112.3376,302.2324,112.1606,302.8494,111.993,303.4704,111.2923,303.8705,111.2796,304.5556,111.3698,304.7732,110.651,304.7045,110.172,305.215,109.4461,305.129,108.9135,305.5099,108.3333,305.776,108.3333,306.5485,97.5694,305.7252,86.8056,305.8857,76.0417,306.1287,65.2778,306.2095,54.5139,305.7719,43.75,305.776,43.7882,305.8681,43.0847,305.3483,42.6093,305.379,42.0551,305.2196,41.452,304.9423,40.8037,304.5556,41.0004,304.637,40.4047,303.9021,40.1064,303.2904,39.8721,302.7052,39.8085,302.1907,39.5833,301.6093,39.5151,301.6093,39.8199,295.7825,39.5227,289.9556,39.4642,284.1288,39.6626,278.302,39.5833,272.4752,39.3694,272.3866,39.6609,271.8169,40.2797,271.3829,40.4553,270.7653,40.7953,270.2158,40.8037,269.5289,40.761,269.4257,41.4354,269.3872,42.0607,269.2301,42.5087,268.6451,43.148,268.5218,43.75,268.3085" style="stroke:#333333;stroke-width:1.0416666666666667;"/><text fill="#2E2E2E" font-family="Segoe Print" font-size="12.5" lengthAdjust="spacing" textLength="50" x="51.0417" y="291.3696">&#25214;&#21040;&#33410;&#28857;</text><polygon fill="none" points="87.5633,356.4797,85.8837,358.7747,83.8971,362.1361,81.0559,364.4014,78.0702,365.6401,75.6896,365.7477,72.6299,364.1984,69.7429,363.1863,67.5516,361.1314,66.4021,358.7789,65.7205,356.9057,65.0527,354.459,63.9687,352.3535,64.8017,350.2978,65.5315,348.046,68.2701,346.265,70.1968,343.9542,72.5817,343.1868,75.4168,342.526,79.0525,342.9186,81.0438,343.8578,83.3591,344.2834,86.1741,347.1676,87.1555,350.2124,87.5818,352.2899,87.0989,355.7133" style="stroke:#2E2E2E;stroke-width:1.0416666666666667;"/><polygon fill="none" points="82.3262,355.2129,81.4101,356.4647,80.3264,358.2981,78.7767,359.5338,77.1481,360.2095,75.8496,360.2681,74.1807,359.423,72.606,358.871,71.4107,357.7501,70.7837,356.4669,70.4119,355.4452,70.0477,354.1106,69.4564,352.9622,69.9108,351.8409,70.3088,350.6126,71.8026,349.6412,72.8536,348.3808,74.1544,347.9622,75.7008,347.6017,77.6839,347.8159,78.7701,348.3282,80.033,348.5603,81.5685,350.1335,82.1037,351.7943,82.3363,352.9275,82.0729,354.7948" style="stroke:#2E2E2E;stroke-width:1.0416666666666667;"/><polygon fill="none" points="221.875,268.3085,221.875,268.5275,232.5321,267.8769,243.1891,268.5099,253.8462,268.7248,264.5032,267.5654,275.1603,268.2276,285.8173,267.8642,296.4744,267.909,307.1314,268.2375,317.7885,267.5883,328.4455,268.8852,339.1026,267.652,349.7596,268.1025,360.4167,268.3085,360.5227,268.4146,362.8956,270.7875,365.4334,273.3253,367.9088,275.8007,370.4605,278.3523,372.9167,280.8085,372.9754,280.8672,370.5605,283.4523,368.0814,285.9733,365.5834,288.4753,362.9792,290.871,360.4167,293.3085,360.4167,293.7914,349.7596,294.04,339.1026,292.5573,328.4455,294.0153,317.7885,292.9997,307.1314,293.8646,296.4744,292.7929,285.8173,293.2372,275.1603,294.081,264.5032,293.2577,253.8462,293.4182,243.1891,293.6612,232.5321,293.7421,221.875,293.3085,221.874,293.3076,219.4455,290.879,216.7345,288.168,214.4448,285.8783,212.0096,283.4431,209.375,280.8085,209.4841,280.9177,212.0255,278.459,214.2564,275.6899,216.7149,273.1484,219.2224,270.6559,221.875,268.3085" style="stroke:#4D4D4D;stroke-width:1.0416666666666667;"/><text fill="#2E2E2E" font-family="Segoe Print" font-size="12.5" lengthAdjust="spacing" textLength="128.125" x="227.0833" y="285.1359">&#24403;&#21069;&#33410;&#28857;&#30340;&#20540; &gt; value</text><text fill="#2E2E2E" font-family="Segoe Print" font-size="12.5" lengthAdjust="spacing" textLength="12.5" x="191.6667" y="272.6522">&#26159;</text><text fill="#2E2E2E" font-family="Segoe Print" font-size="12.5" lengthAdjust="spacing" textLength="12.5" x="378.125" y="272.6522">&#21542;</text><polygon fill="none" points="147.9167,303.7252,147.9167,303.9441,158.125,303.2936,168.3333,303.9265,178.5417,304.1415,188.75,302.9821,198.9583,303.6442,209.1667,303.2809,219.375,303.3257,229.5833,303.6542,239.7917,303.005,250,303.7252,250.0736,303.9028,250.5055,303.7671,251.1522,304.1499,251.8252,304.596,252.3456,304.674,252.9463,304.9456,252.9682,304.9546,253.1801,305.5306,253.4917,306.1478,253.7552,306.7451,254.1105,307.3804,254.1667,307.8918,254.3997,307.8918,254.4025,313.7187,254.2551,319.5455,254.3276,325.3723,254.4105,331.1991,254.1667,337.026,253.9353,336.9301,254.1402,337.7054,253.5834,338.1651,253.6057,338.8647,253.0316,339.3172,252.9463,339.9722,252.9372,339.9503,252.4556,340.4542,251.7613,340.4448,251.1925,340.7383,250.6343,341.0572,250,341.1926,250,341.6262,239.7917,341.1886,229.5833,341.4918,219.375,340.5964,209.1667,341.4889,198.9583,341.7637,188.75,341.6557,178.5417,341.8312,168.3333,340.6894,158.125,340.5133,147.9167,341.1926,147.8341,340.9933,147.3196,340.9297,146.712,340.6414,146.2394,340.679,145.5364,340.1603,144.9704,339.9722,144.8603,339.9267,144.7995,339.4133,144.2683,338.7051,144.0716,338.1355,144.2023,337.7014,143.75,337.026,143.9013,337.026,144.005,331.1991,143.6383,325.3723,143.8608,319.5455,143.955,313.7187,143.75,307.8918,143.5985,307.8291,143.9633,307.2899,144.2786,306.7301,144.6913,306.2107,144.725,305.5343,144.9704,304.9456,145.0319,305.094,145.4861,304.5238,146.0589,304.2402,146.8051,304.3749,147.2321,303.7393,147.9167,303.7252" style="stroke:#333333;stroke-width:1.0416666666666667;"/><text fill="#2E2E2E" font-family="Segoe Print" font-size="12.5" lengthAdjust="spacing" textLength="87.5" x="155.2083" y="326.7863">&#31227;&#21160;&#21040;&#24038;&#23376;&#33410;&#28857;</text><polygon fill="none" points="332.2917,303.7252,332.2917,303.9441,342.5,303.2936,352.7083,303.9265,362.9167,304.1415,373.125,302.9821,383.3333,303.6442,393.5417,303.2809,403.75,303.3257,413.9583,303.6542,424.1667,303.005,434.375,303.7252,434.4486,303.9028,434.8805,303.7671,435.5272,304.1499,436.2002,304.596,436.7206,304.674,437.3213,304.9456,437.3432,304.9546,437.5551,305.5306,437.8667,306.1478,438.1302,306.7451,438.4855,307.3804,438.5417,307.8918,438.7747,307.8918,438.7775,313.7187,438.6301,319.5455,438.7026,325.3723,438.7855,331.1991,438.5417,337.026,438.3103,336.9301,438.5152,337.7054,437.9584,338.1651,437.9807,338.8647,437.4066,339.3172,437.3213,339.9722,437.3122,339.9503,436.8306,340.4542,436.1363,340.4448,435.5675,340.7383,435.0093,341.0572,434.375,341.1926,434.375,341.6262,424.1667,341.1886,413.9583,341.4918,403.75,340.5964,393.5417,341.4889,383.3333,341.7637,373.125,341.6557,362.9167,341.8312,352.7083,340.6894,342.5,340.5133,332.2917,341.1926,332.2091,340.9933,331.6946,340.9297,331.087,340.6414,330.6144,340.679,329.9114,340.1603,329.3454,339.9722,329.2353,339.9267,329.1745,339.4133,328.6433,338.7051,328.4466,338.1355,328.5773,337.7014,328.125,337.026,328.2763,337.026,328.38,331.1991,328.0133,325.3723,328.2358,319.5455,328.33,313.7187,328.125,307.8918,327.9735,307.8291,328.3383,307.2899,328.6536,306.7301,329.0663,306.2107,329.1,305.5343,329.3454,304.9456,329.4069,305.094,329.8611,304.5238,330.4339,304.2402,331.1801,304.3749,331.6071,303.7393,332.2917,303.7252" style="stroke:#333333;stroke-width:1.0416666666666667;"/><text fill="#2E2E2E" font-family="Segoe Print" font-size="12.5" lengthAdjust="spacing" textLength="87.5" x="339.5833" y="326.7863">&#31227;&#21160;&#21040;&#21491;&#23376;&#33410;&#28857;</text><polygon fill="none" points="291.1458,357.8593,291.1974,357.9109,293.5441,360.2576,296.1933,362.9067,298.744,365.4574,300.9707,367.6841,303.6458,370.3593,303.6268,370.3402,301.0411,372.7546,298.5517,375.2651,296.1291,377.8426,293.4761,380.1895,291.1458,382.8593,291.2818,382.9952,288.4911,380.2045,286.0973,377.8107,283.7519,375.4653,281.1248,372.8382,278.6458,370.3593,278.6626,370.376,281.138,367.8514,283.6897,365.4031,286.2045,362.918,288.7896,360.5031,291.1458,357.8593" style="stroke:#4D4D4D;stroke-width:1.0416666666666667;"/><polygon fill="none" points="131.5104,168.6849,131.5104,168.9038,141.9271,168.2533,152.3438,168.8862,162.7604,169.1012,173.1771,167.9418,183.5938,168.6039,194.0104,168.2406,204.4271,168.2854,214.8438,168.6139,225.2604,167.9647,235.6771,168.6849,235.813,168.8208,238.0223,171.0301,240.6285,173.6363,243.2831,176.2909,245.656,178.6638,248.1771,181.1849,248.1938,181.2016,245.6692,183.6771,243.2209,186.2287,240.7358,188.7436,238.3209,191.3287,235.6771,193.6849,235.6771,194.3839,225.2604,194.3925,214.8438,193.9501,204.4271,194.1678,194.0104,194.4164,183.5938,192.9337,173.1771,194.3917,162.7604,193.376,152.3438,194.2409,141.9271,193.1692,131.5104,193.6849,131.4936,193.6681,129.1925,191.367,126.4985,188.6729,124.0363,186.2107,121.5936,183.768,119.0104,181.1849,119.1126,181.2871,121.5095,178.6839,124.0809,176.2554,126.3699,173.5444,129.0802,171.2547,131.5104,168.6849" style="stroke:#4D4D4D;stroke-width:1.0416666666666667;"/><text fill="#2E2E2E" font-family="Segoe Print" font-size="12.5" lengthAdjust="spacing" textLength="12.5" x="192.9688" y="210.496">&#26159;</text><text fill="#2E2E2E" font-family="Segoe Print" font-size="12.5" lengthAdjust="spacing" textLength="93.75" x="136.7188" y="185.5123">&#24403;&#21069;&#33410;&#28857;&#19981;&#20026;&#31354;?</text><polygon fill="none" points="145.0521,426.6093,145.0521,426.8282,156.064,426.1777,167.0759,426.8106,178.0878,427.0256,189.0997,425.8662,200.1116,426.5283,211.1235,426.165,222.1354,426.6093,222.0845,426.4863,222.7156,426.8315,223.2221,426.8757,223.9767,427.5191,224.4087,427.3834,225.0817,427.8297,225.0183,427.8034,225.4643,428.4763,225.5423,428.9968,225.8358,429.6065,226.0478,430.1825,226.3021,430.776,226.3641,430.776,226.3851,436.6028,226.5054,442.4296,226.5351,448.2564,226.5379,454.0833,226.3021,459.9101,226.3838,459.9439,226.2067,460.5609,226.0392,461.1819,225.3385,461.582,225.5434,462.3573,225.0817,462.8564,225.0423,462.7612,224.5634,463.2717,223.8374,463.1857,223.3048,463.5666,222.8232,464.0706,222.1354,464.0767,222.1354,464.026,211.1235,464.1864,200.1116,464.4295,189.0997,464.5103,178.0878,464.0727,167.0759,464.3759,156.064,463.4805,145.0521,464.0767,145.0899,464.168,144.5357,464.0085,143.9326,463.7312,143.3658,463.5412,142.6309,462.9455,142.1058,462.8564,141.8966,462.7697,141.6624,462.1845,141.5988,461.67,141.3105,461.0625,141.3481,460.5899,140.8854,459.9101,140.8248,459.9101,140.7663,454.0833,140.9647,448.2564,140.6539,442.4296,140.7052,436.6028,140.8854,430.776,141.0936,430.8622,141.2693,430.2446,141.6092,429.695,141.5144,428.9654,141.9641,428.4614,142.1058,427.8297,142.1843,428.0191,142.6323,427.4341,143.2716,427.3108,143.8903,427.1379,144.5494,427.0625,145.0521,426.6093" style="stroke:#333333;stroke-width:1.0416666666666667;"/><text fill="#2E2E2E" font-family="Segoe Print" font-size="12.5" lengthAdjust="spacing" textLength="62.5" x="152.3438" y="449.6704">&#26410;&#25214;&#21040;&#33410;&#28857;</text><polygon fill="none" points="195.1154,499.1555,193.4358,501.4505,191.4492,504.8119,188.6079,507.0772,185.6223,508.3159,183.2417,508.4234,180.182,506.8742,177.295,505.8621,175.1037,503.8071,173.9542,501.4546,173.2726,499.5815,172.6048,497.1348,171.5208,495.0293,172.3538,492.9736,173.0835,490.7218,175.8222,488.9408,177.7489,486.63,180.1337,485.8626,182.9689,485.2018,186.6046,485.5944,188.5959,486.5335,190.9112,486.9592,193.7262,489.8434,194.7076,492.8881,195.1339,494.9656,194.651,498.3891" style="stroke:#2E2E2E;stroke-width:1.0416666666666667;"/><polygon fill="none" points="189.8783,497.8887,188.9621,499.1404,187.8785,500.9739,186.3288,502.2095,184.7002,502.8852,183.4017,502.9439,181.7328,502.0988,180.158,501.5468,178.9628,500.4259,178.3358,499.1427,177.964,498.121,177.5998,496.7864,177.0085,495.638,177.4629,494.5167,177.8609,493.2884,179.3547,492.317,180.4057,491.0565,181.7065,490.638,183.2529,490.2775,185.236,490.4917,186.3222,491.0039,187.5851,491.2361,189.1206,492.8093,189.6558,494.4701,189.8884,495.6033,189.625,497.4706" style="stroke:#2E2E2E;stroke-width:1.0416666666666667;"/><path d="M183.5938,31.25 L183.6911,31.25 L183.4019,35.4167 L183.6832,39.5833 L183.7788,43.75 L183.2635,47.9167 L183.5938,52.0833 " fill="#333333" style="stroke:#333333;stroke-width:3.125;"/><polygon fill="#333333" points="179.4271,41.6667,179.4948,41.6938,180.1268,43.6966,181.1561,45.8583,182.0559,47.9682,182.5304,49.908,183.5938,52.0833,183.5687,52.0733,184.2896,49.945,185.1368,47.8672,186.0718,45.8245,186.7042,43.6608,187.7604,41.6667,187.8963,41.8026,186.7723,42.3453,186.0452,43.2848,185.3665,44.2727,184.406,44.9789,183.5938,45.8333,183.6105,45.8501,182.7526,44.9922,181.9709,44.2105,181.1525,43.392,180.4042,42.6438,179.4271,41.6667" style="stroke:#333333;stroke-width:1.0416666666666667;"/><path d="M183.5938,89.5508 L183.6911,89.5508 L183.4019,93.7174 L183.6832,97.8841 L183.7788,102.0508 L183.2635,106.2174 L183.5938,110.3841 " fill="#333333" style="stroke:#333333;stroke-width:3.125;"/><polygon fill="#333333" points="179.4271,99.9674,179.4948,99.9946,180.1268,101.9974,181.1561,104.159,182.0559,106.269,182.5304,108.2088,183.5938,110.3841,183.5687,110.3741,184.2896,108.2458,185.1368,106.168,186.0718,104.1253,186.7042,101.9616,187.7604,99.9674,187.8963,100.1034,186.7723,100.646,186.0452,101.5856,185.3665,102.5735,184.406,103.2797,183.5938,104.1341,183.6105,104.1509,182.7526,103.2929,181.9709,102.5113,181.1525,101.6928,180.4042,100.9446,179.4271,99.9674" style="stroke:#333333;stroke-width:1.0416666666666667;"/><path d="M76.0417,305.776 L76.139,305.776 L75.8499,313.0676 L76.1312,320.3593 L76.2267,327.651 L75.7114,334.9426 L76.0417,342.2343 " fill="#333333" style="stroke:#333333;stroke-width:3.125;"/><polygon fill="#333333" points="71.875,331.8176,71.9428,331.8447,72.5748,333.8475,73.604,336.0092,74.5039,338.1192,74.9783,340.059,76.0417,342.2343,76.0166,342.2243,76.7375,340.096,77.5847,338.0182,78.5197,335.9755,79.1521,333.8118,80.2083,331.8176,80.3443,331.9536,79.2203,332.4962,78.4931,333.4357,77.8144,334.4237,76.8539,335.1299,76.0417,335.9843,76.0584,336.001,75.2005,335.1431,74.4188,334.3615,73.6004,333.543,72.8521,332.7948,71.875,331.8176" style="stroke:#333333;stroke-width:1.0416666666666667;"/><path d="M209.375,280.8085 L209.375,280.9058 L207.2917,280.6167 L205.2083,280.898 L203.125,280.9935 L201.0417,280.4782 L198.9583,280.8085 " fill="#333333" style="stroke:#333333;stroke-width:3.125;"/><path d="M198.9583,280.8085 L199.0556,280.8085 L198.7665,285.3918 L199.0478,289.9752 L199.1434,294.5585 L198.6281,299.1418 L198.9583,303.7252 " fill="#333333" style="stroke:#333333;stroke-width:3.125;"/><polygon fill="#333333" points="194.7917,293.3085,194.8594,293.3356,195.4914,295.3384,196.5206,297.5001,197.4205,299.6101,197.895,301.5498,198.9583,303.7252,198.9333,303.7152,199.6542,301.5868,200.5014,299.5091,201.4364,297.4664,202.0688,295.3027,203.125,293.3085,203.2609,293.4444,202.1369,293.9871,201.4098,294.9266,200.7311,295.9146,199.7706,296.6208,198.9583,297.4752,198.9751,297.4919,198.1172,296.634,197.3355,295.8523,196.517,295.0339,195.7688,294.2856,194.7917,293.3085" style="stroke:#333333;stroke-width:1.0416666666666667;"/><path d="M372.9167,280.8085 L372.9167,280.9058 L375,280.6167 L377.0833,280.898 L379.1667,280.9935 L381.25,280.4782 L383.3333,280.8085 " fill="#333333" style="stroke:#333333;stroke-width:3.125;"/><path d="M383.3333,280.8085 L383.4306,280.8085 L383.1415,285.3918 L383.4228,289.9752 L383.5184,294.5585 L383.0031,299.1418 L383.3333,303.7252 " fill="#333333" style="stroke:#333333;stroke-width:3.125;"/><polygon fill="#333333" points="379.1667,293.3085,379.2344,293.3356,379.8664,295.3384,380.8956,297.5001,381.7955,299.6101,382.27,301.5498,383.3333,303.7252,383.3083,303.7152,384.0292,301.5868,384.8764,299.5091,385.8114,297.4664,386.4438,295.3027,387.5,293.3085,387.6359,293.4444,386.5119,293.9871,385.7848,294.9266,385.1061,295.9146,384.1456,296.6208,383.3333,297.4752,383.3501,297.4919,382.4922,296.634,381.7105,295.8523,380.892,295.0339,380.1438,294.2856,379.1667,293.3085" style="stroke:#333333;stroke-width:1.0416666666666667;"/><path d="M198.9583,341.1926 L199.0556,341.1926 L198.7665,347.026 L199.0478,352.8593 L199.1434,358.6926 L198.6281,364.526 L198.9583,370.3593 " fill="#333333" style="stroke:#333333;stroke-width:3.125;"/><path d="M198.9583,370.3593 L198.9583,370.6512 L208.9193,369.7838 L218.8802,370.6277 L228.8411,370.9144 L238.8021,369.3685 L248.763,370.2514 L258.724,369.7669 L268.6849,369.8267 L278.6458,370.3593 " fill="#333333" style="stroke:#333333;stroke-width:3.125;"/><polygon fill="#333333" points="268.2292,366.1926,268.2563,366.2604,270.2591,366.8924,272.4208,367.9216,274.5307,368.8215,276.4705,369.296,278.6458,370.3593,278.6358,370.3342,276.5075,371.0551,274.4297,371.9023,272.387,372.8373,270.2233,373.4697,268.2292,374.526,268.3651,374.6619,268.9078,373.5379,269.8473,372.8107,270.8352,372.132,271.5414,371.1716,272.3958,370.3593,272.4126,370.376,271.5547,369.5181,270.773,368.7365,269.9545,367.918,269.2063,367.1698,268.2292,366.1926" style="stroke:#333333;stroke-width:1.0416666666666667;"/><path d="M383.3333,341.1926 L383.4306,341.1926 L383.1415,347.026 L383.4228,352.8593 L383.5184,358.6926 L383.0031,364.526 L383.3333,370.3593 " fill="#333333" style="stroke:#333333;stroke-width:3.125;"/><path d="M383.3333,370.3593 L383.3333,370.6512 L373.3724,369.7838 L363.4115,370.6277 L353.4505,370.9144 L343.4896,369.3685 L333.5286,370.2514 L323.5677,369.7669 L313.6068,369.8267 L303.6458,370.3593 " fill="#333333" style="stroke:#333333;stroke-width:3.125;"/><polygon fill="#333333" points="314.0625,366.1926,314.0896,366.2604,311.9257,366.8924,309.9208,367.9216,307.864,368.8215,305.6372,369.296,303.6458,370.3593,303.6358,370.3342,305.6742,371.0551,307.763,371.9023,309.887,372.8373,311.89,373.4697,314.0625,374.526,314.1984,374.6619,313.0744,373.5379,312.3473,372.8107,311.6686,372.132,310.7081,371.1716,309.8958,370.3593,309.9126,370.376,310.7213,369.5181,311.6063,368.7365,312.4545,367.918,313.373,367.1698,314.0625,366.1926" style="stroke:#333333;stroke-width:1.0416666666666667;"/><path d="M96.6146,245.3918 L96.6146,245.4892 L92.5,245.2 L88.3854,245.4813 L84.2708,245.5769 L80.1563,245.0616 L76.0417,245.3918 " fill="#333333" style="stroke:#333333;stroke-width:3.125;"/><path d="M76.0417,245.3918 L76.139,245.3918 L75.8499,249.9752 L76.1312,254.5585 L76.2267,259.1418 L75.7114,263.7252 L76.0417,268.3085 " fill="#333333" style="stroke:#333333;stroke-width:3.125;"/><polygon fill="#333333" points="71.875,257.8918,71.9428,257.9189,72.5748,259.9218,73.604,262.0834,74.5039,264.1934,74.9783,266.1332,76.0417,268.3085,76.0166,268.2985,76.7375,266.1702,77.5847,264.0924,78.5197,262.0497,79.1521,259.886,80.2083,257.8918,80.3443,258.0278,79.2203,258.5704,78.4931,259.51,77.8144,260.4979,76.8539,261.2041,76.0417,262.0585,76.0584,262.0753,75.2005,261.2173,74.4188,260.4357,73.6004,259.6172,72.8521,258.869,71.875,257.8918" style="stroke:#333333;stroke-width:1.0416666666666667;"/><path d="M270.5729,245.3918 L270.5729,245.4892 L274.6875,245.2 L278.8021,245.4813 L282.9167,245.5769 L287.0313,245.0616 L291.1458,245.3918 " fill="#333333" style="stroke:#333333;stroke-width:3.125;"/><path d="M291.1458,245.3918 L291.2431,245.3918 L290.954,249.9752 L291.2353,254.5585 L291.3309,259.1418 L290.8156,263.7252 L291.1458,268.3085 " fill="#333333" style="stroke:#333333;stroke-width:3.125;"/><polygon fill="#333333" points="286.9792,257.8918,287.0469,257.9189,287.6789,259.9218,288.7081,262.0834,289.608,264.1934,290.0825,266.1332,291.1458,268.3085,291.1208,268.2985,291.8417,266.1702,292.6889,264.0924,293.6239,262.0497,294.2563,259.886,295.3125,257.8918,295.4484,258.0278,294.3244,258.5704,293.5973,259.51,292.9186,260.4979,291.9581,261.2041,291.1458,262.0585,291.1626,262.0753,290.3047,261.2173,289.523,260.4357,288.7045,259.6172,287.9563,258.869,286.9792,257.8918" style="stroke:#333333;stroke-width:1.0416666666666667;"/><path d="M291.1458,382.8593 L291.2431,382.8593 L290.954,383.901 L291.2353,384.9426 L291.3309,385.9843 L290.8156,387.026 L291.1458,388.0676 " fill="#333333" style="stroke:#333333;stroke-width:3.125;"/><path d="M291.1458,388.0676 L291.1458,388.3595 L280.3906,387.4922 L269.6354,388.3361 L258.8802,388.6227 L248.125,387.0768 L237.3698,387.9597 L226.6146,387.4753 L215.8594,387.535 L205.1042,387.973 L194.349,387.1074 L183.5938,388.0676 " fill="#333333" style="stroke:#333333;stroke-width:3.125;"/><path d="M183.5938,193.6849 L183.6911,193.6849 L183.4019,201.5263 L183.6832,209.3677 L183.7788,217.2091 L183.2635,225.0505 L183.5938,232.8918 " fill="#333333" style="stroke:#333333;stroke-width:3.125;"/><polygon fill="#333333" points="179.4271,222.4752,179.4948,222.5023,180.1268,224.5051,181.1561,226.6668,182.0559,228.7767,182.5304,230.7165,183.5938,232.8918,183.5687,232.8818,184.2896,230.7535,185.1368,228.6757,186.0718,226.6331,186.7042,224.4694,187.7604,222.4752,187.8963,222.6111,186.7723,223.1538,186.0452,224.0933,185.3665,225.0812,184.406,225.7875,183.5938,226.6418,183.6105,226.6586,182.7526,225.8007,181.9709,225.019,181.1525,224.2006,180.4042,223.4523,179.4271,222.4752" style="stroke:#333333;stroke-width:1.0416666666666667;"/><path d="M183.5938,388.0676 L183.6911,388.0676 L183.4019,389.1093 L183.6832,390.151 L183.7788,391.1926 L183.2635,392.2343 L183.5938,393.276 " fill="#333333" style="stroke:#333333;stroke-width:3.125;"/><path d="M183.5938,393.276 L183.5938,393.5679 L193.9603,392.7005 L204.3269,393.5444 L214.6935,393.8311 L225.0601,392.2851 L235.4267,393.168 L245.7933,392.6836 L256.1599,392.7433 L266.5264,393.1813 L276.893,392.3157 L287.2596,394.0449 L297.6262,392.4006 L307.9928,393.0013 L318.3594,393.8759 L328.726,393.1568 L339.0925,393.3707 L349.4591,393.2316 L359.8257,393.5239 L370.1923,393.6081 L380.5589,394.0894 L390.9255,394.208 L401.2921,394.2194 L411.6587,393.6296 L422.0252,393.9198 L432.3918,394.2513 L442.7584,392.2743 L453.125,393.276 " fill="#333333" style="stroke:#333333;stroke-width:3.125;"/><polygon fill="#333333" points="448.9583,296.4335,449.0261,296.4606,449.6581,294.2968,450.6873,292.2918,451.5872,290.2351,452.0617,288.0082,453.125,286.0168,453.0999,286.0068,453.8208,288.0452,454.668,290.1341,455.603,292.2581,456.2354,294.261,457.2917,296.4335,457.4276,296.5694,456.3036,295.4454,455.5764,294.7183,454.8977,294.0396,453.9373,293.0791,453.125,292.2668,453.1418,292.2836,452.2838,293.0923,451.5022,293.9773,450.6837,294.8256,449.9355,295.744,448.9583,296.4335" style="stroke:#333333;stroke-width:3.125;"/><path d="M453.125,181.1849 L453.4169,181.1849 L452.5496,191.7894 L453.3935,202.394 L453.6801,212.9986 L452.1342,223.6031 L453.0171,234.2077 L452.5326,244.8122 L452.5924,255.4168 L453.0303,266.0213 L452.1648,276.6259 L453.8939,287.2304 L452.2496,297.835 L452.8503,308.4395 L453.7249,319.0441 L453.0059,329.6486 L453.2198,340.2532 L453.0806,350.8577 L453.373,361.4623 L453.4571,372.0669 L453.9385,382.6714 L453.125,393.276 " fill="#333333" style="stroke:#333333;stroke-width:3.125;"/><path d="M453.125,181.1849 L453.125,181.4768 L442.8776,180.6095 L432.6302,181.4533 L422.3828,181.74 L412.1354,180.1941 L401.888,181.077 L391.6406,180.5925 L381.3932,180.6523 L371.1458,181.0902 L360.8984,180.2247 L350.651,181.9538 L340.4036,180.3095 L330.1563,180.9102 L319.9089,181.7848 L309.6615,181.0658 L299.4141,181.2797 L289.1667,181.1405 L278.9193,181.4328 L268.6719,181.517 L258.4245,181.9984 L248.1771,181.1849 " fill="#333333" style="stroke:#333333;stroke-width:3.125;"/><polygon fill="#333333" points="258.5938,177.0182,258.6209,177.086,256.457,177.718,254.452,178.7472,252.3953,179.6471,250.1684,180.1216,248.1771,181.1849,248.1671,181.1598,250.2054,181.8807,252.2943,182.7279,254.4183,183.6629,256.4213,184.2953,258.5938,185.3516,258.7297,185.4875,257.6057,184.3635,256.8785,183.6363,256.1998,182.9576,255.2394,181.9972,254.4271,181.1849,254.4438,181.2016,255.2526,180.3437,256.1376,179.5621,256.9858,178.7436,257.9042,177.9954,258.5938,177.0182" style="stroke:#333333;stroke-width:1.0416666666666667;"/><path d="M119.0104,181.1849 L119.0104,181.4768 L108.5648,180.6095 L98.1192,181.4533 L87.6736,181.74 L77.228,180.1941 L66.7824,181.077 L56.3368,180.5925 L45.8912,180.6523 L35.4456,181.0902 L25,181.1849 " fill="#333333" style="stroke:#333333;stroke-width:3.125;"/><polygon fill="#333333" points="20.8333,287.0585,20.9011,287.0856,21.5331,289.0884,22.5623,291.2501,23.4622,293.3601,23.9367,295.2998,25,297.4752,24.9749,297.4652,25.6958,295.3368,26.543,293.2591,27.478,291.2164,28.1104,289.0527,29.1667,287.0585,29.3026,287.1944,28.1786,287.7371,27.4514,288.6766,26.7727,289.6646,25.8123,290.3708,25,291.2252,25.0168,291.2419,24.1588,290.384,23.3772,289.6023,22.5587,288.7839,21.8105,288.0356,20.8333,287.0585" style="stroke:#333333;stroke-width:3.125;"/><path d="M25,181.1849 L25.2919,181.1849 L24.4246,191.6303 L25.2685,202.0758 L25.5551,212.5212 L24.0092,222.9666 L24.8921,233.412 L24.4076,243.8575 L24.4674,254.3029 L24.9053,264.7483 L24.0398,275.1937 L25.7689,285.6392 L24.1246,296.0846 L24.7253,306.53 L25.5999,316.9754 L24.8809,327.4209 L25.0948,337.8663 L24.9556,348.3117 L25.248,358.7572 L25.3321,369.2026 L25.8135,379.648 L25.932,390.0934 L25.9434,400.5389 L25,410.9843 " fill="#333333" style="stroke:#333333;stroke-width:3.125;"/><path d="M25,410.9843 L25,411.2762 L35.5729,410.4088 L46.1458,411.2527 L56.7188,411.5394 L67.2917,409.9935 L77.8646,410.8764 L88.4375,410.3919 L99.0104,410.4517 L109.5833,410.8896 L120.1563,410.0241 L130.7292,411.7532 L141.3021,410.1089 L151.875,410.7096 L162.4479,411.5842 L173.0208,410.8652 L183.5938,410.9843 " fill="#333333" style="stroke:#333333;stroke-width:3.125;"/><path d="M183.5938,410.9843 L183.6911,410.9843 L183.4019,414.1093 L183.6832,417.2343 L183.7788,420.3593 L183.2635,423.4843 L183.5938,426.6093 " fill="#333333" style="stroke:#333333;stroke-width:3.125;"/><polygon fill="#333333" points="179.4271,416.1926,179.4948,416.2197,180.1268,418.2225,181.1561,420.3842,182.0559,422.4942,182.5304,424.434,183.5938,426.6093,183.5687,426.5993,184.2896,424.471,185.1368,422.3932,186.0718,420.3505,186.7042,418.1868,187.7604,416.1926,187.8963,416.3286,186.7723,416.8712,186.0452,417.8107,185.3665,418.7987,184.406,419.5049,183.5938,420.3593,183.6105,420.376,182.7526,419.5181,181.9709,418.7365,181.1525,417.918,180.4042,417.1698,179.4271,416.1926" style="stroke:#333333;stroke-width:1.0416666666666667;"/><path d="M183.5938,147.8516 L183.6911,147.8516 L183.4019,152.0182 L183.6832,156.1849 L183.7788,160.3516 L183.2635,164.5182 L183.5938,168.6849 " fill="#333333" style="stroke:#333333;stroke-width:3.125;"/><polygon fill="#333333" points="179.4271,158.2682,179.4948,158.2953,180.1268,160.2981,181.1561,162.4598,182.0559,164.5698,182.5304,166.5096,183.5938,168.6849,183.5687,168.6749,184.2896,166.5466,185.1368,164.4688,186.0718,162.4261,186.7042,160.2624,187.7604,158.2682,187.8963,158.4042,186.7723,158.9468,186.0452,159.8863,185.3665,160.8743,184.406,161.5805,183.5938,162.4349,183.6105,162.4516,182.7526,161.5937,181.9709,160.8121,181.1525,159.9936,180.4042,159.2454,179.4271,158.2682" style="stroke:#333333;stroke-width:1.0416666666666667;"/><path d="M183.5938,464.0767 L183.6911,464.0767 L183.4019,468.2434 L183.6832,472.4101 L183.7788,476.5767 L183.2635,480.7434 L183.5938,484.9101 " fill="#333333" style="stroke:#333333;stroke-width:3.125;"/><polygon fill="#333333" points="179.4271,474.4934,179.4948,474.5205,180.1268,476.5233,181.1561,478.685,182.0559,480.7949,182.5304,482.7347,183.5938,484.9101,183.5687,484.9001,184.2896,482.7717,185.1368,480.694,186.0718,478.6513,186.7042,476.4876,187.7604,474.4934,187.8963,474.6293,186.7723,475.172,186.0452,476.1115,185.3665,477.0995,184.406,477.8057,183.5938,478.6601,183.6105,478.6768,182.7526,477.8189,181.9709,477.0372,181.1525,476.2188,180.4042,475.4705,179.4271,474.4934" style="stroke:#333333;stroke-width:1.0416666666666667;"/><!--SRC=[Kop9ICrDLIZEJYr9pgZKpIyjoSdCI-NYAYv9B2hXidgnR_BJrgNFvYzzrhdlQSCUXRB4dD9KQowh9xlxdYtO-QAhwNdJpgTx6fukxxRcuYhFoCn9LT1ukdVoqyvUYDoJ7RrFTknwldANlQP2Ph62nhCPwpMv51Goqr2LFP_L0ZBTrXPYWQO2q5LvSDKA2bOWwpisG1HRWuMAI_8BW8pKd6AGbHEMGHJYCDWEXxb0avylt_sqQmNGyAVRbprTEm7P2ZIpKHJtRqPNd9UIcSO5eu4aE3IukAoUpLc5wdgGom40]--></g></svg>