<?xml version="1.0" encoding="UTF-8"?><svg xmlns="http://www.w3.org/2000/svg" width="400" height="400" fill="grey"><path d="M0 0 20 0" fill="none" stroke="black"/><path d="M20 0 40 0" fill="none" stroke="black"/><path d="M40 0 60 0" fill="none" stroke="black"/><path d="M40 20 60 20" fill="none" stroke="black"/><path d="M60 0 80 0" fill="none" stroke="black"/><path d="M60 20 80 20" fill="none" stroke="black"/><path d="M80 0 100 0" fill="none" stroke="black"/><path d="M100 0 120 0" fill="none" stroke="black"/><path d="M100 20 120 20" fill="none" stroke="black"/><path d="M120 0 140 0" fill="none" stroke="black"/><path d="M140 0 160 0" fill="none" stroke="black"/><path d="M160 0 180 0" fill="none" stroke="black"/><path d="M160 20 180 20" fill="none" stroke="black"/><path d="M180 0 200 0" fill="none" stroke="black"/><path d="M200 0 220 0" fill="none" stroke="black"/><path d="M200 20 220 20" fill="none" stroke="black"/><path d="M220 0 240 0" fill="none" stroke="black"/><path d="M220 20 240 20" fill="none" stroke="black"/><path d="M240 0 260 0" fill="none" stroke="black"/><path d="M260 0 280 0" fill="none" stroke="black"/><path d="M280 0 300 0" fill="none" stroke="black"/><path d="M280 20 300 20" fill="none" stroke="black"/><path d="M300 0 320 0" fill="none" stroke="black"/><path d="M300 20 320 20" fill="none" stroke="black"/><path d="M320 0 340 0" fill="none" stroke="black"/><path d="M340 0 360 0" fill="none" stroke="black"/><path d="M340 20 360 20" fill="none" stroke="black"/><path d="M360 0 380 0" fill="none" stroke="black"/><path d="M360 20 380 20" fill="none" stroke="black"/><path d="M380 0 400 0" fill="none" stroke="black"/><path d="M400 0 400 20" fill="none" stroke="black"/><path d="M20 20 20 40" fill="none" stroke="black"/><path d="M0 40 0 20" fill="none" stroke="black"/><path d="M20 40 20 20" fill="none" stroke="black"/><path d="M40 20 60 20" fill="none" stroke="black"/><path d="M60 20 80 20" fill="none" stroke="black"/><path d="M80 20 80 40" fill="none" stroke="black"/><path d="M80 40 80 20" fill="none" stroke="black"/><path d="M100 20 120 20" fill="none" stroke="black"/><path d="M120 20 120 40" fill="none" stroke="black"/><path d="M140 20 140 40" fill="none" stroke="black"/><path d="M120 40 140 40" fill="none" stroke="black"/><path d="M120 40 120 20" fill="none" stroke="black"/><path d="M140 40 140 20" fill="none" stroke="black"/><path d="M160 20 180 20" fill="none" stroke="black"/><path d="M180 20 180 40" fill="none" stroke="black"/><path d="M180 40 180 20" fill="none" stroke="black"/><path d="M200 20 220 20" fill="none" stroke="black"/><path d="M200 40 220 40" fill="none" stroke="black"/><path d="M220 20 240 20" fill="none" stroke="black"/><path d="M240 20 240 40" fill="none" stroke="black"/><path d="M220 40 240 40" fill="none" stroke="black"/><path d="M260 20 260 40" fill="none" stroke="black"/><path d="M240 40 260 40" fill="none" stroke="black"/><path d="M240 40 240 20" fill="none" stroke="black"/><path d="M260 40 280 40" fill="none" stroke="black"/><path d="M260 40 260 20" fill="none" stroke="black"/><path d="M280 20 300 20" fill="none" stroke="black"/><path d="M280 40 300 40" fill="none" stroke="black"/><path d="M300 20 320 20" fill="none" stroke="black"/><path d="M320 20 320 40" fill="none" stroke="black"/><path d="M320 40 340 40" fill="none" stroke="black"/><path d="M320 40 320 20" fill="none" stroke="black"/><path d="M340 20 360 20" fill="none" stroke="black"/><path d="M340 40 360 40" fill="none" stroke="black"/><path d="M360 20 380 20" fill="none" stroke="black"/><path d="M380 20 380 40" fill="none" stroke="black"/><path d="M360 40 380 40" fill="none" stroke="black"/><path d="M400 20 400 40" fill="none" stroke="black"/><path d="M380 40 380 20" fill="none" stroke="black"/><path d="M20 40 20 60" fill="none" stroke="black"/><path d="M0 60 0 40" fill="none" stroke="black"/><path d="M40 40 40 60" fill="none" stroke="black"/><path d="M20 60 20 40" fill="none" stroke="black"/><path d="M60 40 60 60" fill="none" stroke="black"/><path d="M40 60 60 60" fill="none" stroke="black"/><path d="M40 60 40 40" fill="none" stroke="black"/><path d="M80 40 80 60" fill="none" stroke="black"/><path d="M60 60 80 60" fill="none" stroke="black"/><path d="M60 60 60 40" fill="none" stroke="black"/><path d="M100 40 100 60" fill="none" stroke="black"/><path d="M80 60 80 40" fill="none" stroke="black"/><path d="M100 60 120 60" fill="none" stroke="black"/><path d="M100 60 100 40" fill="none" stroke="black"/><path d="M120 40 140 40" fill="none" stroke="black"/><path d="M140 40 140 60" fill="none" stroke="black"/><path d="M160 40 160 60" fill="none" stroke="black"/><path d="M140 60 160 60" fill="none" stroke="black"/><path d="M140 60 140 40" fill="none" stroke="black"/><path d="M180 40 180 60" fill="none" stroke="black"/><path d="M160 60 180 60" fill="none" stroke="black"/><path d="M160 60 160 40" fill="none" stroke="black"/><path d="M180 60 200 60" fill="none" stroke="black"/><path d="M180 60 180 40" fill="none" stroke="black"/><path d="M200 40 220 40" fill="none" stroke="black"/><path d="M220 40 240 40" fill="none" stroke="black"/><path d="M220 60 240 60" fill="none" stroke="black"/><path d="M240 40 260 40" fill="none" stroke="black"/><path d="M260 40 280 40" fill="none" stroke="black"/><path d="M280 40 300 40" fill="none" stroke="black"/><path d="M300 40 300 60" fill="none" stroke="black"/><path d="M300 60 300 40" fill="none" stroke="black"/><path d="M320 40 340 40" fill="none" stroke="black"/><path d="M340 40 360 40" fill="none" stroke="black"/><path d="M340 60 360 60" fill="none" stroke="black"/><path d="M360 40 380 40" fill="none" stroke="black"/><path d="M380 40 380 60" fill="none" stroke="black"/><path d="M360 60 380 60" fill="none" stroke="black"/><path d="M400 40 400 60" fill="none" stroke="black"/><path d="M380 60 400 60" fill="none" stroke="black"/><path d="M380 60 380 40" fill="none" stroke="black"/><path d="M20 60 20 80" fill="none" stroke="black"/><path d="M0 80 0 60" fill="none" stroke="black"/><path d="M20 80 40 80" fill="none" stroke="black"/><path d="M20 80 20 60" fill="none" stroke="black"/><path d="M40 60 60 60" fill="none" stroke="black"/><path d="M40 80 60 80" fill="none" stroke="black"/><path d="M60 60 80 60" fill="none" stroke="black"/><path d="M80 60 80 80" fill="none" stroke="black"/><path d="M80 80 100 80" fill="none" stroke="black"/><path d="M80 80 80 60" fill="none" stroke="black"/><path d="M100 60 120 60" fill="none" stroke="black"/><path d="M120 60 120 80" fill="none" stroke="black"/><path d="M100 80 120 80" fill="none" stroke="black"/><path d="M120 80 120 60" fill="none" stroke="black"/><path d="M140 60 160 60" fill="none" stroke="black"/><path d="M140 80 160 80" fill="none" stroke="black"/><path d="M160 60 180 60" fill="none" stroke="black"/><path d="M160 80 180 80" fill="none" stroke="black"/><path d="M180 60 200 60" fill="none" stroke="black"/><path d="M200 60 200 80" fill="none" stroke="black"/><path d="M200 80 220 80" fill="none" stroke="black"/><path d="M200 80 200 60" fill="none" stroke="black"/><path d="M220 60 240 60" fill="none" stroke="black"/><path d="M240 60 240 80" fill="none" stroke="black"/><path d="M220 80 240 80" fill="none" stroke="black"/><path d="M260 60 260 80" fill="none" stroke="black"/><path d="M240 80 240 60" fill="none" stroke="black"/><path d="M280 60 280 80" fill="none" stroke="black"/><path d="M260 80 260 60" fill="none" stroke="black"/><path d="M300 60 300 80" fill="none" stroke="black"/><path d="M280 80 300 80" fill="none" stroke="black"/><path d="M280 80 280 60" fill="none" stroke="black"/><path d="M320 60 320 80" fill="none" stroke="black"/><path d="M300 80 300 60" fill="none" stroke="black"/><path d="M320 80 320 60" fill="none" stroke="black"/><path d="M340 60 360 60" fill="none" stroke="black"/><path d="M340 80 360 80" fill="none" stroke="black"/><path d="M360 60 380 60" fill="none" stroke="black"/><path d="M360 80 380 80" fill="none" stroke="black"/><path d="M380 60 400 60" fill="none" stroke="black"/><path d="M400 60 400 80" fill="none" stroke="black"/><path d="M380 80 400 80" fill="none" stroke="black"/><path d="M0 100 0 80" fill="none" stroke="black"/><path d="M20 80 40 80" fill="none" stroke="black"/><path d="M40 80 60 80" fill="none" stroke="black"/><path d="M60 80 60 100" fill="none" stroke="black"/><path d="M60 100 80 100" fill="none" stroke="black"/><path d="M60 100 60 80" fill="none" stroke="black"/><path d="M80 80 100 80" fill="none" stroke="black"/><path d="M80 100 100 100" fill="none" stroke="black"/><path d="M100 80 120 80" fill="none" stroke="black"/><path d="M120 80 120 100" fill="none" stroke="black"/><path d="M120 100 120 80" fill="none" stroke="black"/><path d="M140 80 160 80" fill="none" stroke="black"/><path d="M140 100 160 100" fill="none" stroke="black"/><path d="M160 80 180 80" fill="none" stroke="black"/><path d="M180 80 180 100" fill="none" stroke="black"/><path d="M160 100 180 100" fill="none" stroke="black"/><path d="M180 100 200 100" fill="none" stroke="black"/><path d="M180 100 180 80" fill="none" stroke="black"/><path d="M200 80 220 80" fill="none" stroke="black"/><path d="M200 100 220 100" fill="none" stroke="black"/><path d="M220 80 240 80" fill="none" stroke="black"/><path d="M240 80 240 100" fill="none" stroke="black"/><path d="M220 100 240 100" fill="none" stroke="black"/><path d="M260 80 260 100" fill="none" stroke="black"/><path d="M240 100 260 100" fill="none" stroke="black"/><path d="M240 100 240 80" fill="none" stroke="black"/><path d="M260 100 280 100" fill="none" stroke="black"/><path d="M260 100 260 80" fill="none" stroke="black"/><path d="M280 80 300 80" fill="none" stroke="black"/><path d="M300 80 300 100" fill="none" stroke="black"/><path d="M320 80 320 100" fill="none" stroke="black"/><path d="M300 100 320 100" fill="none" stroke="black"/><path d="M300 100 300 80" fill="none" stroke="black"/><path d="M320 100 340 100" fill="none" stroke="black"/><path d="M320 100 320 80" fill="none" stroke="black"/><path d="M340 80 360 80" fill="none" stroke="black"/><path d="M340 100 360 100" fill="none" stroke="black"/><path d="M360 80 380 80" fill="none" stroke="black"/><path d="M360 100 380 100" fill="none" stroke="black"/><path d="M380 80 400 80" fill="none" stroke="black"/><path d="M400 80 400 100" fill="none" stroke="black"/><path d="M380 100 400 100" fill="none" stroke="black"/><path d="M20 100 20 120" fill="none" stroke="black"/><path d="M0 120 0 100" fill="none" stroke="black"/><path d="M40 100 40 120" fill="none" stroke="black"/><path d="M20 120 20 100" fill="none" stroke="black"/><path d="M40 120 40 100" fill="none" stroke="black"/><path d="M60 100 80 100" fill="none" stroke="black"/><path d="M80 100 100 100" fill="none" stroke="black"/><path d="M100 100 100 120" fill="none" stroke="black"/><path d="M120 100 120 120" fill="none" stroke="black"/><path d="M100 120 100 100" fill="none" stroke="black"/><path d="M120 120 140 120" fill="none" stroke="black"/><path d="M120 120 120 100" fill="none" stroke="black"/><path d="M140 100 160 100" fill="none" stroke="black"/><path d="M140 120 160 120" fill="none" stroke="black"/><path d="M160 100 180 100" fill="none" stroke="black"/><path d="M180 100 200 100" fill="none" stroke="black"/><path d="M200 100 220 100" fill="none" stroke="black"/><path d="M200 120 220 120" fill="none" stroke="black"/><path d="M220 100 240 100" fill="none" stroke="black"/><path d="M220 120 240 120" fill="none" stroke="black"/><path d="M240 100 260 100" fill="none" stroke="black"/><path d="M240 120 260 120" fill="none" stroke="black"/><path d="M260 100 280 100" fill="none" stroke="black"/><path d="M280 100 280 120" fill="none" stroke="black"/><path d="M280 120 300 120" fill="none" stroke="black"/><path d="M280 120 280 100" fill="none" stroke="black"/><path d="M300 100 320 100" fill="none" stroke="black"/><path d="M300 120 320 120" fill="none" stroke="black"/><path d="M320 100 340 100" fill="none" stroke="black"/><path d="M320 120 340 120" fill="none" stroke="black"/><path d="M340 100 360 100" fill="none" stroke="black"/><path d="M360 100 380 100" fill="none" stroke="black"/><path d="M360 120 380 120" fill="none" stroke="black"/><path d="M380 100 400 100" fill="none" stroke="black"/><path d="M400 100 400 120" fill="none" stroke="black"/><path d="M20 120 20 140" fill="none" stroke="black"/><path d="M0 140 0 120" fill="none" stroke="black"/><path d="M40 120 40 140" fill="none" stroke="black"/><path d="M20 140 20 120" fill="none" stroke="black"/><path d="M60 120 60 140" fill="none" stroke="black"/><path d="M40 140 40 120" fill="none" stroke="black"/><path d="M80 120 80 140" fill="none" stroke="black"/><path d="M60 140 60 120" fill="none" stroke="black"/><path d="M100 120 100 140" fill="none" stroke="black"/><path d="M80 140 100 140" fill="none" stroke="black"/><path d="M80 140 80 120" fill="none" stroke="black"/><path d="M100 140 120 140" fill="none" stroke="black"/><path d="M100 140 100 120" fill="none" stroke="black"/><path d="M120 120 140 120" fill="none" stroke="black"/><path d="M120 140 140 140" fill="none" stroke="black"/><path d="M140 120 160 120" fill="none" stroke="black"/><path d="M160 120 160 140" fill="none" stroke="black"/><path d="M140 140 160 140" fill="none" stroke="black"/><path d="M180 120 180 140" fill="none" stroke="black"/><path d="M160 140 180 140" fill="none" stroke="black"/><path d="M160 140 160 120" fill="none" stroke="black"/><path d="M180 140 200 140" fill="none" stroke="black"/><path d="M180 140 180 120" fill="none" stroke="black"/><path d="M200 120 220 120" fill="none" stroke="black"/><path d="M220 120 240 120" fill="none" stroke="black"/><path d="M220 140 240 140" fill="none" stroke="black"/><path d="M240 120 260 120" fill="none" stroke="black"/><path d="M260 120 260 140" fill="none" stroke="black"/><path d="M260 140 280 140" fill="none" stroke="black"/><path d="M260 140 260 120" fill="none" stroke="black"/><path d="M280 120 300 120" fill="none" stroke="black"/><path d="M300 120 320 120" fill="none" stroke="black"/><path d="M300 140 320 140" fill="none" stroke="black"/><path d="M320 120 340 120" fill="none" stroke="black"/><path d="M340 120 340 140" fill="none" stroke="black"/><path d="M340 140 340 120" fill="none" stroke="black"/><path d="M360 120 380 120" fill="none" stroke="black"/><path d="M380 120 380 140" fill="none" stroke="black"/><path d="M400 120 400 140" fill="none" stroke="black"/><path d="M380 140 380 120" fill="none" stroke="black"/><path d="M20 140 20 160" fill="none" stroke="black"/><path d="M0 160 0 140" fill="none" stroke="black"/><path d="M40 140 40 160" fill="none" stroke="black"/><path d="M20 160 20 140" fill="none" stroke="black"/><path d="M60 140 60 160" fill="none" stroke="black"/><path d="M40 160 40 140" fill="none" stroke="black"/><path d="M60 160 60 140" fill="none" stroke="black"/><path d="M80 140 100 140" fill="none" stroke="black"/><path d="M80 160 100 160" fill="none" stroke="black"/><path d="M100 140 120 140" fill="none" stroke="black"/><path d="M100 160 120 160" fill="none" stroke="black"/><path d="M120 140 140 140" fill="none" stroke="black"/><path d="M120 160 140 160" fill="none" stroke="black"/><path d="M140 140 160 140" fill="none" stroke="black"/><path d="M160 140 180 140" fill="none" stroke="black"/><path d="M180 140 200 140" fill="none" stroke="black"/><path d="M200 140 200 160" fill="none" stroke="black"/><path d="M180 160 200 160" fill="none" stroke="black"/><path d="M200 160 200 140" fill="none" stroke="black"/><path d="M220 140 240 140" fill="none" stroke="black"/><path d="M240 140 240 160" fill="none" stroke="black"/><path d="M240 160 240 140" fill="none" stroke="black"/><path d="M260 140 280 140" fill="none" stroke="black"/><path d="M280 140 280 160" fill="none" stroke="black"/><path d="M280 160 280 140" fill="none" stroke="black"/><path d="M300 140 320 140" fill="none" stroke="black"/><path d="M320 140 320 160" fill="none" stroke="black"/><path d="M300 160 320 160" fill="none" stroke="black"/><path d="M340 140 340 160" fill="none" stroke="black"/><path d="M320 160 320 140" fill="none" stroke="black"/><path d="M360 140 360 160" fill="none" stroke="black"/><path d="M340 160 340 140" fill="none" stroke="black"/><path d="M380 140 380 160" fill="none" stroke="black"/><path d="M360 160 380 160" fill="none" stroke="black"/><path d="M360 160 360 140" fill="none" stroke="black"/><path d="M400 140 400 160" fill="none" stroke="black"/><path d="M380 160 400 160" fill="none" stroke="black"/><path d="M380 160 380 140" fill="none" stroke="black"/><path d="M20 160 20 180" fill="none" stroke="black"/><path d="M0 180 0 160" fill="none" stroke="black"/><path d="M40 160 40 180" fill="none" stroke="black"/><path d="M20 180 40 180" fill="none" stroke="black"/><path d="M20 180 20 160" fill="none" stroke="black"/><path d="M60 160 60 180" fill="none" stroke="black"/><path d="M40 180 40 160" fill="none" stroke="black"/><path d="M60 180 60 160" fill="none" stroke="black"/><path d="M80 160 100 160" fill="none" stroke="black"/><path d="M80 180 100 180" fill="none" stroke="black"/><path d="M100 160 120 160" fill="none" stroke="black"/><path d="M100 180 120 180" fill="none" stroke="black"/><path d="M120 160 140 160" fill="none" stroke="black"/><path d="M140 160 140 180" fill="none" stroke="black"/><path d="M160 160 160 180" fill="none" stroke="black"/><path d="M140 180 140 160" fill="none" stroke="black"/><path d="M160 180 160 160" fill="none" stroke="black"/><path d="M180 160 200 160" fill="none" stroke="black"/><path d="M200 160 200 180" fill="none" stroke="black"/><path d="M220 160 220 180" fill="none" stroke="black"/><path d="M200 180 200 160" fill="none" stroke="black"/><path d="M240 160 240 180" fill="none" stroke="black"/><path d="M220 180 240 180" fill="none" stroke="black"/><path d="M220 180 220 160" fill="none" stroke="black"/><path d="M260 160 260 180" fill="none" stroke="black"/><path d="M240 180 240 160" fill="none" stroke="black"/><path d="M280 160 280 180" fill="none" stroke="black"/><path d="M260 180 260 160" fill="none" stroke="black"/><path d="M280 180 280 160" fill="none" stroke="black"/><path d="M300 160 320 160" fill="none" stroke="black"/><path d="M320 160 320 180" fill="none" stroke="black"/><path d="M340 160 340 180" fill="none" stroke="black"/><path d="M320 180 340 180" fill="none" stroke="black"/><path d="M320 180 320 160" fill="none" stroke="black"/><path d="M340 180 340 160" fill="none" stroke="black"/><path d="M360 160 380 160" fill="none" stroke="black"/><path d="M380 160 400 160" fill="none" stroke="black"/><path d="M400 160 400 180" fill="none" stroke="black"/><path d="M0 200 0 180" fill="none" stroke="black"/><path d="M20 180 40 180" fill="none" stroke="black"/><path d="M40 180 40 200" fill="none" stroke="black"/><path d="M20 200 40 200" fill="none" stroke="black"/><path d="M60 180 60 200" fill="none" stroke="black"/><path d="M40 200 40 180" fill="none" stroke="black"/><path d="M60 200 80 200" fill="none" stroke="black"/><path d="M60 200 60 180" fill="none" stroke="black"/><path d="M80 180 100 180" fill="none" stroke="black"/><path d="M80 200 100 200" fill="none" stroke="black"/><path d="M100 180 120 180" fill="none" stroke="black"/><path d="M120 180 120 200" fill="none" stroke="black"/><path d="M100 200 120 200" fill="none" stroke="black"/><path d="M140 180 140 200" fill="none" stroke="black"/><path d="M120 200 140 200" fill="none" stroke="black"/><path d="M120 200 120 180" fill="none" stroke="black"/><path d="M160 180 160 200" fill="none" stroke="black"/><path d="M140 200 160 200" fill="none" stroke="black"/><path d="M140 200 140 180" fill="none" stroke="black"/><path d="M180 180 180 200" fill="none" stroke="black"/><path d="M160 200 160 180" fill="none" stroke="black"/><path d="M200 180 200 200" fill="none" stroke="black"/><path d="M180 200 180 180" fill="none" stroke="black"/><path d="M200 200 200 180" fill="none" stroke="black"/><path d="M220 180 240 180" fill="none" stroke="black"/><path d="M240 180 240 200" fill="none" stroke="black"/><path d="M220 200 240 200" fill="none" stroke="black"/><path d="M260 180 260 200" fill="none" stroke="black"/><path d="M240 200 240 180" fill="none" stroke="black"/><path d="M280 180 280 200" fill="none" stroke="black"/><path d="M260 200 260 180" fill="none" stroke="black"/><path d="M300 180 300 200" fill="none" stroke="black"/><path d="M280 200 280 180" fill="none" stroke="black"/><path d="M300 200 300 180" fill="none" stroke="black"/><path d="M320 180 340 180" fill="none" stroke="black"/><path d="M340 180 340 200" fill="none" stroke="black"/><path d="M360 180 360 200" fill="none" stroke="black"/><path d="M340 200 340 180" fill="none" stroke="black"/><path d="M380 180 380 200" fill="none" stroke="black"/><path d="M360 200 360 180" fill="none" stroke="black"/><path d="M400 180 400 200" fill="none" stroke="black"/><path d="M380 200 380 180" fill="none" stroke="black"/><path d="M0 220 0 200" fill="none" stroke="black"/><path d="M20 200 40 200" fill="none" stroke="black"/><path d="M40 200 40 220" fill="none" stroke="black"/><path d="M40 220 40 200" fill="none" stroke="black"/><path d="M60 200 80 200" fill="none" stroke="black"/><path d="M60 220 80 220" fill="none" stroke="black"/><path d="M80 200 100 200" fill="none" stroke="black"/><path d="M80 220 100 220" fill="none" stroke="black"/><path d="M100 200 120 200" fill="none" stroke="black"/><path d="M120 200 140 200" fill="none" stroke="black"/><path d="M120 220 140 220" fill="none" stroke="black"/><path d="M140 200 160 200" fill="none" stroke="black"/><path d="M160 200 160 220" fill="none" stroke="black"/><path d="M140 220 160 220" fill="none" stroke="black"/><path d="M180 200 180 220" fill="none" stroke="black"/><path d="M160 220 180 220" fill="none" stroke="black"/><path d="M160 220 160 200" fill="none" stroke="black"/><path d="M200 200 200 220" fill="none" stroke="black"/><path d="M180 220 200 220" fill="none" stroke="black"/><path d="M180 220 180 200" fill="none" stroke="black"/><path d="M200 220 200 200" fill="none" stroke="black"/><path d="M220 200 240 200" fill="none" stroke="black"/><path d="M240 200 240 220" fill="none" stroke="black"/><path d="M260 200 260 220" fill="none" stroke="black"/><path d="M240 220 240 200" fill="none" stroke="black"/><path d="M280 200 280 220" fill="none" stroke="black"/><path d="M260 220 280 220" fill="none" stroke="black"/><path d="M260 220 260 200" fill="none" stroke="black"/><path d="M300 200 300 220" fill="none" stroke="black"/><path d="M280 220 300 220" fill="none" stroke="black"/><path d="M280 220 280 200" fill="none" stroke="black"/><path d="M320 200 320 220" fill="none" stroke="black"/><path d="M300 220 300 200" fill="none" stroke="black"/><path d="M340 200 340 220" fill="none" stroke="black"/><path d="M320 220 340 220" fill="none" stroke="black"/><path d="M320 220 320 200" fill="none" stroke="black"/><path d="M360 200 360 220" fill="none" stroke="black"/><path d="M340 220 340 200" fill="none" stroke="black"/><path d="M380 200 380 220" fill="none" stroke="black"/><path d="M360 220 380 220" fill="none" stroke="black"/><path d="M360 220 360 200" fill="none" stroke="black"/><path d="M400 200 400 220" fill="none" stroke="black"/><path d="M380 220 400 220" fill="none" stroke="black"/><path d="M380 220 380 200" fill="none" stroke="black"/><path d="M20 220 20 240" fill="none" stroke="black"/><path d="M0 240 0 220" fill="none" stroke="black"/><path d="M40 220 40 240" fill="none" stroke="black"/><path d="M20 240 40 240" fill="none" stroke="black"/><path d="M20 240 20 220" fill="none" stroke="black"/><path d="M40 240 40 220" fill="none" stroke="black"/><path d="M60 220 80 220" fill="none" stroke="black"/><path d="M60 240 80 240" fill="none" stroke="black"/><path d="M80 220 100 220" fill="none" stroke="black"/><path d="M100 220 100 240" fill="none" stroke="black"/><path d="M80 240 100 240" fill="none" stroke="black"/><path d="M100 240 120 240" fill="none" stroke="black"/><path d="M100 240 100 220" fill="none" stroke="black"/><path d="M120 220 140 220" fill="none" stroke="black"/><path d="M140 220 160 220" fill="none" stroke="black"/><path d="M140 240 160 240" fill="none" stroke="black"/><path d="M160 220 180 220" fill="none" stroke="black"/><path d="M180 220 200 220" fill="none" stroke="black"/><path d="M200 220 200 240" fill="none" stroke="black"/><path d="M180 240 200 240" fill="none" stroke="black"/><path d="M220 220 220 240" fill="none" stroke="black"/><path d="M200 240 220 240" fill="none" stroke="black"/><path d="M200 240 200 220" fill="none" stroke="black"/><path d="M240 220 240 240" fill="none" stroke="black"/><path d="M220 240 220 220" fill="none" stroke="black"/><path d="M240 240 260 240" fill="none" stroke="black"/><path d="M240 240 240 220" fill="none" stroke="black"/><path d="M260 220 280 220" fill="none" stroke="black"/><path d="M280 220 300 220" fill="none" stroke="black"/><path d="M300 220 300 240" fill="none" stroke="black"/><path d="M300 240 300 220" fill="none" stroke="black"/><path d="M320 220 340 220" fill="none" stroke="black"/><path d="M340 220 340 240" fill="none" stroke="black"/><path d="M320 240 340 240" fill="none" stroke="black"/><path d="M340 240 360 240" fill="none" stroke="black"/><path d="M340 240 340 220" fill="none" stroke="black"/><path d="M360 220 380 220" fill="none" stroke="black"/><path d="M360 240 380 240" fill="none" stroke="black"/><path d="M380 220 400 220" fill="none" stroke="black"/><path d="M400 220 400 240" fill="none" stroke="black"/><path d="M0 260 0 240" fill="none" stroke="black"/><path d="M20 240 40 240" fill="none" stroke="black"/><path d="M40 240 40 260" fill="none" stroke="black"/><path d="M20 260 40 260" fill="none" stroke="black"/><path d="M40 260 60 260" fill="none" stroke="black"/><path d="M40 260 40 240" fill="none" stroke="black"/><path d="M60 240 80 240" fill="none" stroke="black"/><path d="M60 260 80 260" fill="none" stroke="black"/><path d="M80 240 100 240" fill="none" stroke="black"/><path d="M80 260 100 260" fill="none" stroke="black"/><path d="M100 240 120 240" fill="none" stroke="black"/><path d="M120 240 120 260" fill="none" stroke="black"/><path d="M120 260 140 260" fill="none" stroke="black"/><path d="M120 260 120 240" fill="none" stroke="black"/><path d="M140 240 160 240" fill="none" stroke="black"/><path d="M160 240 160 260" fill="none" stroke="black"/><path d="M140 260 160 260" fill="none" stroke="black"/><path d="M160 260 160 240" fill="none" stroke="black"/><path d="M180 240 200 240" fill="none" stroke="black"/><path d="M180 260 200 260" fill="none" stroke="black"/><path d="M200 240 220 240" fill="none" stroke="black"/><path d="M220 240 220 260" fill="none" stroke="black"/><path d="M220 260 220 240" fill="none" stroke="black"/><path d="M240 240 260 240" fill="none" stroke="black"/><path d="M260 240 260 260" fill="none" stroke="black"/><path d="M280 240 280 260" fill="none" stroke="black"/><path d="M260 260 260 240" fill="none" stroke="black"/><path d="M300 240 300 260" fill="none" stroke="black"/><path d="M280 260 300 260" fill="none" stroke="black"/><path d="M280 260 280 240" fill="none" stroke="black"/><path d="M300 260 300 240" fill="none" stroke="black"/><path d="M320 240 340 240" fill="none" stroke="black"/><path d="M320 260 340 260" fill="none" stroke="black"/><path d="M340 240 360 240" fill="none" stroke="black"/><path d="M340 260 360 260" fill="none" stroke="black"/><path d="M360 240 380 240" fill="none" stroke="black"/><path d="M380 240 380 260" fill="none" stroke="black"/><path d="M400 240 400 260" fill="none" stroke="black"/><path d="M380 260 400 260" fill="none" stroke="black"/><path d="M380 260 380 240" fill="none" stroke="black"/><path d="M0 280 0 260" fill="none" stroke="black"/><path d="M20 260 40 260" fill="none" stroke="black"/><path d="M20 280 40 280" fill="none" stroke="black"/><path d="M40 260 60 260" fill="none" stroke="black"/><path d="M60 260 80 260" fill="none" stroke="black"/><path d="M80 260 100 260" fill="none" stroke="black"/><path d="M100 260 100 280" fill="none" stroke="black"/><path d="M100 280 100 260" fill="none" stroke="black"/><path d="M120 260 140 260" fill="none" stroke="black"/><path d="M140 260 160 260" fill="none" stroke="black"/><path d="M160 260 160 280" fill="none" stroke="black"/><path d="M140 280 160 280" fill="none" stroke="black"/><path d="M160 280 160 260" fill="none" stroke="black"/><path d="M180 260 200 260" fill="none" stroke="black"/><path d="M200 260 200 280" fill="none" stroke="black"/><path d="M220 260 220 280" fill="none" stroke="black"/><path d="M200 280 200 260" fill="none" stroke="black"/><path d="M240 260 240 280" fill="none" stroke="black"/><path d="M220 280 220 260" fill="none" stroke="black"/><path d="M260 260 260 280" fill="none" stroke="black"/><path d="M240 280 240 260" fill="none" stroke="black"/><path d="M260 280 280 280" fill="none" stroke="black"/><path d="M260 280 260 260" fill="none" stroke="black"/><path d="M280 260 300 260" fill="none" stroke="black"/><path d="M300 260 300 280" fill="none" stroke="black"/><path d="M300 280 320 280" fill="none" stroke="black"/><path d="M300 280 300 260" fill="none" stroke="black"/><path d="M320 260 340 260" fill="none" stroke="black"/><path d="M340 260 360 260" fill="none" stroke="black"/><path d="M360 260 360 280" fill="none" stroke="black"/><path d="M340 280 360 280" fill="none" stroke="black"/><path d="M360 280 360 260" fill="none" stroke="black"/><path d="M380 260 400 260" fill="none" stroke="black"/><path d="M400 260 400 280" fill="none" stroke="black"/><path d="M380 280 400 280" fill="none" stroke="black"/><path d="M0 300 0 280" fill="none" stroke="black"/><path d="M20 280 40 280" fill="none" stroke="black"/><path d="M40 280 40 300" fill="none" stroke="black"/><path d="M20 300 40 300" fill="none" stroke="black"/><path d="M60 280 60 300" fill="none" stroke="black"/><path d="M40 300 60 300" fill="none" stroke="black"/><path d="M40 300 40 280" fill="none" stroke="black"/><path d="M80 280 80 300" fill="none" stroke="black"/><path d="M60 300 60 280" fill="none" stroke="black"/><path d="M100 280 100 300" fill="none" stroke="black"/><path d="M80 300 100 300" fill="none" stroke="black"/><path d="M80 300 80 280" fill="none" stroke="black"/><path d="M120 280 120 300" fill="none" stroke="black"/><path d="M100 300 100 280" fill="none" stroke="black"/><path d="M120 300 120 280" fill="none" stroke="black"/><path d="M140 280 160 280" fill="none" stroke="black"/><path d="M160 280 160 300" fill="none" stroke="black"/><path d="M140 300 160 300" fill="none" stroke="black"/><path d="M180 280 180 300" fill="none" stroke="black"/><path d="M160 300 160 280" fill="none" stroke="black"/><path d="M200 280 200 300" fill="none" stroke="black"/><path d="M180 300 200 300" fill="none" stroke="black"/><path d="M180 300 180 280" fill="none" stroke="black"/><path d="M220 280 220 300" fill="none" stroke="black"/><path d="M200 300 220 300" fill="none" stroke="black"/><path d="M200 300 200 280" fill="none" stroke="black"/><path d="M240 280 240 300" fill="none" stroke="black"/><path d="M220 300 220 280" fill="none" stroke="black"/><path d="M240 300 260 300" fill="none" stroke="black"/><path d="M240 300 240 280" fill="none" stroke="black"/><path d="M260 280 280 280" fill="none" stroke="black"/><path d="M280 280 280 300" fill="none" stroke="black"/><path d="M280 300 280 280" fill="none" stroke="black"/><path d="M300 280 320 280" fill="none" stroke="black"/><path d="M320 280 320 300" fill="none" stroke="black"/><path d="M300 300 320 300" fill="none" stroke="black"/><path d="M320 300 340 300" fill="none" stroke="black"/><path d="M320 300 320 280" fill="none" stroke="black"/><path d="M340 280 360 280" fill="none" stroke="black"/><path d="M360 280 360 300" fill="none" stroke="black"/><path d="M340 300 360 300" fill="none" stroke="black"/><path d="M360 300 360 280" fill="none" stroke="black"/><path d="M380 280 400 280" fill="none" stroke="black"/><path d="M400 280 400 300" fill="none" stroke="black"/><path d="M0 320 0 300" fill="none" stroke="black"/><path d="M20 300 40 300" fill="none" stroke="black"/><path d="M20 320 40 320" fill="none" stroke="black"/><path d="M40 300 60 300" fill="none" stroke="black"/><path d="M60 300 60 320" fill="none" stroke="black"/><path d="M40 320 60 320" fill="none" stroke="black"/><path d="M60 320 80 320" fill="none" stroke="black"/><path d="M60 320 60 300" fill="none" stroke="black"/><path d="M80 300 100 300" fill="none" stroke="black"/><path d="M100 300 100 320" fill="none" stroke="black"/><path d="M80 320 100 320" fill="none" stroke="black"/><path d="M120 300 120 320" fill="none" stroke="black"/><path d="M100 320 100 300" fill="none" stroke="black"/><path d="M120 320 120 300" fill="none" stroke="black"/><path d="M140 300 160 300" fill="none" stroke="black"/><path d="M160 300 160 320" fill="none" stroke="black"/><path d="M140 320 160 320" fill="none" stroke="black"/><path d="M160 320 160 300" fill="none" stroke="black"/><path d="M180 300 200 300" fill="none" stroke="black"/><path d="M200 300 220 300" fill="none" stroke="black"/><path d="M220 300 220 320" fill="none" stroke="black"/><path d="M220 320 240 320" fill="none" stroke="black"/><path d="M220 320 220 300" fill="none" stroke="black"/><path d="M240 300 260 300" fill="none" stroke="black"/><path d="M260 300 260 320" fill="none" stroke="black"/><path d="M280 300 280 320" fill="none" stroke="black"/><path d="M260 320 260 300" fill="none" stroke="black"/><path d="M280 320 300 320" fill="none" stroke="black"/><path d="M280 320 280 300" fill="none" stroke="black"/><path d="M300 300 320 300" fill="none" stroke="black"/><path d="M320 300 340 300" fill="none" stroke="black"/><path d="M320 320 340 320" fill="none" stroke="black"/><path d="M340 300 360 300" fill="none" stroke="black"/><path d="M360 300 360 320" fill="none" stroke="black"/><path d="M380 300 380 320" fill="none" stroke="black"/><path d="M360 320 380 320" fill="none" stroke="black"/><path d="M360 320 360 300" fill="none" stroke="black"/><path d="M400 300 400 320" fill="none" stroke="black"/><path d="M380 320 400 320" fill="none" stroke="black"/><path d="M380 320 380 300" fill="none" stroke="black"/><path d="M0 340 0 320" fill="none" stroke="black"/><path d="M20 320 40 320" fill="none" stroke="black"/><path d="M20 340 40 340" fill="none" stroke="black"/><path d="M40 320 60 320" fill="none" stroke="black"/><path d="M60 320 80 320" fill="none" stroke="black"/><path d="M80 320 100 320" fill="none" stroke="black"/><path d="M100 320 100 340" fill="none" stroke="black"/><path d="M120 320 120 340" fill="none" stroke="black"/><path d="M100 340 100 320" fill="none" stroke="black"/><path d="M120 340 120 320" fill="none" stroke="black"/><path d="M140 320 160 320" fill="none" stroke="black"/><path d="M160 320 160 340" fill="none" stroke="black"/><path d="M140 340 160 340" fill="none" stroke="black"/><path d="M180 320 180 340" fill="none" stroke="black"/><path d="M160 340 160 320" fill="none" stroke="black"/><path d="M200 320 200 340" fill="none" stroke="black"/><path d="M180 340 180 320" fill="none" stroke="black"/><path d="M200 340 200 320" fill="none" stroke="black"/><path d="M220 320 240 320" fill="none" stroke="black"/><path d="M240 320 240 340" fill="none" stroke="black"/><path d="M260 320 260 340" fill="none" stroke="black"/><path d="M240 340 260 340" fill="none" stroke="black"/><path d="M240 340 240 320" fill="none" stroke="black"/><path d="M260 340 280 340" fill="none" stroke="black"/><path d="M260 340 260 320" fill="none" stroke="black"/><path d="M280 320 300 320" fill="none" stroke="black"/><path d="M300 320 300 340" fill="none" stroke="black"/><path d="M280 340 300 340" fill="none" stroke="black"/><path d="M300 340 300 320" fill="none" stroke="black"/><path d="M320 320 340 320" fill="none" stroke="black"/><path d="M340 320 340 340" fill="none" stroke="black"/><path d="M340 340 360 340" fill="none" stroke="black"/><path d="M340 340 340 320" fill="none" stroke="black"/><path d="M360 320 380 320" fill="none" stroke="black"/><path d="M380 320 400 320" fill="none" stroke="black"/><path d="M400 320 400 340" fill="none" stroke="black"/><path d="M0 360 0 340" fill="none" stroke="black"/><path d="M20 340 40 340" fill="none" stroke="black"/><path d="M40 340 40 360" fill="none" stroke="black"/><path d="M20 360 40 360" fill="none" stroke="black"/><path d="M60 340 60 360" fill="none" stroke="black"/><path d="M40 360 40 340" fill="none" stroke="black"/><path d="M80 340 80 360" fill="none" stroke="black"/><path d="M60 360 80 360" fill="none" stroke="black"/><path d="M60 360 60 340" fill="none" stroke="black"/><path d="M100 340 100 360" fill="none" stroke="black"/><path d="M80 360 100 360" fill="none" stroke="black"/><path d="M80 360 80 340" fill="none" stroke="black"/><path d="M120 340 120 360" fill="none" stroke="black"/><path d="M100 360 120 360" fill="none" stroke="black"/><path d="M100 360 100 340" fill="none" stroke="black"/><path d="M120 360 140 360" fill="none" stroke="black"/><path d="M120 360 120 340" fill="none" stroke="black"/><path d="M140 340 160 340" fill="none" stroke="black"/><path d="M160 340 160 360" fill="none" stroke="black"/><path d="M140 360 160 360" fill="none" stroke="black"/><path d="M180 340 180 360" fill="none" stroke="black"/><path d="M160 360 160 340" fill="none" stroke="black"/><path d="M200 340 200 360" fill="none" stroke="black"/><path d="M180 360 200 360" fill="none" stroke="black"/><path d="M180 360 180 340" fill="none" stroke="black"/><path d="M220 340 220 360" fill="none" stroke="black"/><path d="M200 360 220 360" fill="none" stroke="black"/><path d="M200 360 200 340" fill="none" stroke="black"/><path d="M220 360 240 360" fill="none" stroke="black"/><path d="M220 360 220 340" fill="none" stroke="black"/><path d="M240 340 260 340" fill="none" stroke="black"/><path d="M240 360 260 360" fill="none" stroke="black"/><path d="M260 340 280 340" fill="none" stroke="black"/><path d="M260 360 280 360" fill="none" stroke="black"/><path d="M280 340 300 340" fill="none" stroke="black"/><path d="M300 340 300 360" fill="none" stroke="black"/><path d="M320 340 320 360" fill="none" stroke="black"/><path d="M300 360 300 340" fill="none" stroke="black"/><path d="M320 360 340 360" fill="none" stroke="black"/><path d="M320 360 320 340" fill="none" stroke="black"/><path d="M340 340 360 340" fill="none" stroke="black"/><path d="M360 340 360 360" fill="none" stroke="black"/><path d="M380 340 380 360" fill="none" stroke="black"/><path d="M360 360 360 340" fill="none" stroke="black"/><path d="M400 340 400 360" fill="none" stroke="black"/><path d="M380 360 400 360" fill="none" stroke="black"/><path d="M380 360 380 340" fill="none" stroke="black"/><path d="M0 380 0 360" fill="none" stroke="black"/><path d="M20 360 40 360" fill="none" stroke="black"/><path d="M40 360 40 380" fill="none" stroke="black"/><path d="M20 380 40 380" fill="none" stroke="black"/><path d="M40 380 60 380" fill="none" stroke="black"/><path d="M40 380 40 360" fill="none" stroke="black"/><path d="M60 360 80 360" fill="none" stroke="black"/><path d="M60 380 80 380" fill="none" stroke="black"/><path d="M80 360 100 360" fill="none" stroke="black"/><path d="M80 380 100 380" fill="none" stroke="black"/><path d="M100 360 120 360" fill="none" stroke="black"/><path d="M120 360 140 360" fill="none" stroke="black"/><path d="M140 360 160 360" fill="none" stroke="black"/><path d="M160 360 160 380" fill="none" stroke="black"/><path d="M160 380 180 380" fill="none" stroke="black"/><path d="M160 380 160 360" fill="none" stroke="black"/><path d="M180 360 200 360" fill="none" stroke="black"/><path d="M200 360 220 360" fill="none" stroke="black"/><path d="M220 360 240 360" fill="none" stroke="black"/><path d="M240 360 260 360" fill="none" stroke="black"/><path d="M240 380 260 380" fill="none" stroke="black"/><path d="M260 360 280 360" fill="none" stroke="black"/><path d="M280 360 280 380" fill="none" stroke="black"/><path d="M260 380 280 380" fill="none" stroke="black"/><path d="M300 360 300 380" fill="none" stroke="black"/><path d="M280 380 280 360" fill="none" stroke="black"/><path d="M300 380 300 360" fill="none" stroke="black"/><path d="M320 360 340 360" fill="none" stroke="black"/><path d="M340 360 340 380" fill="none" stroke="black"/><path d="M360 360 360 380" fill="none" stroke="black"/><path d="M340 380 340 360" fill="none" stroke="black"/><path d="M360 380 380 380" fill="none" stroke="black"/><path d="M360 380 360 360" fill="none" stroke="black"/><path d="M380 360 400 360" fill="none" stroke="black"/><path d="M400 360 400 380" fill="none" stroke="black"/><path d="M0 400 20 400" fill="none" stroke="black"/><path d="M0 400 0 380" fill="none" stroke="black"/><path d="M20 380 40 380" fill="none" stroke="black"/><path d="M20 400 40 400" fill="none" stroke="black"/><path d="M40 380 60 380" fill="none" stroke="black"/><path d="M40 400 60 400" fill="none" stroke="black"/><path d="M60 380 80 380" fill="none" stroke="black"/><path d="M60 400 80 400" fill="none" stroke="black"/><path d="M80 380 100 380" fill="none" stroke="black"/><path d="M100 380 100 400" fill="none" stroke="black"/><path d="M80 400 100 400" fill="none" stroke="black"/><path d="M120 380 120 400" fill="none" stroke="black"/><path d="M100 400 120 400" fill="none" stroke="black"/><path d="M100 400 100 380" fill="none" stroke="black"/><path d="M140 380 140 400" fill="none" stroke="black"/><path d="M120 400 140 400" fill="none" stroke="black"/><path d="M120 400 120 380" fill="none" stroke="black"/><path d="M140 400 160 400" fill="none" stroke="black"/><path d="M140 400 140 380" fill="none" stroke="black"/><path d="M160 380 180 380" fill="none" stroke="black"/><path d="M180 380 180 400" fill="none" stroke="black"/><path d="M160 400 180 400" fill="none" stroke="black"/><path d="M200 380 200 400" fill="none" stroke="black"/><path d="M180 400 200 400" fill="none" stroke="black"/><path d="M180 400 180 380" fill="none" stroke="black"/><path d="M220 380 220 400" fill="none" stroke="black"/><path d="M200 400 220 400" fill="none" stroke="black"/><path d="M200 400 200 380" fill="none" stroke="black"/><path d="M220 400 240 400" fill="none" stroke="black"/><path d="M220 400 220 380" fill="none" stroke="black"/><path d="M240 380 260 380" fill="none" stroke="black"/><path d="M240 400 260 400" fill="none" stroke="black"/><path d="M260 380 280 380" fill="none" stroke="black"/><path d="M280 380 280 400" fill="none" stroke="black"/><path d="M260 400 280 400" fill="none" stroke="black"/><path d="M300 380 300 400" fill="none" stroke="black"/><path d="M280 400 300 400" fill="none" stroke="black"/><path d="M280 400 280 380" fill="none" stroke="black"/><path d="M320 380 320 400" fill="none" stroke="black"/><path d="M300 400 320 400" fill="none" stroke="black"/><path d="M300 400 300 380" fill="none" stroke="black"/><path d="M340 380 340 400" fill="none" stroke="black"/><path d="M320 400 340 400" fill="none" stroke="black"/><path d="M320 400 320 380" fill="none" stroke="black"/><path d="M340 400 360 400" fill="none" stroke="black"/><path d="M340 400 340 380" fill="none" stroke="black"/><path d="M360 380 380 380" fill="none" stroke="black"/><path d="M380 380 380 400" fill="none" stroke="black"/><path d="M360 400 380 400" fill="none" stroke="black"/><path d="M380 400 400 400" fill="none" stroke="black"/><path d="M380 400 380 380" fill="none" stroke="black"/></svg>