<?xml version="1.0" encoding="UTF-8" standalone="no"?>
<!DOCTYPE svg PUBLIC "-//W3C//DTD SVG 1.0//EN"
 "http://www.w3.org/TR/2001/REC-SVG-20010904/DTD/svg10.dtd" [
 <!ATTLIST svg xmlns:xlink CDATA #FIXED "http://www.w3.org/1999/xlink">
]>
<!-- Generated by Graphviz version 2.20.2 (Wed Sep 16 11:12:21 UTC 2009)
 -->
<!-- Title: _anonymous_0 Pages: 1 -->
<svg width="285pt" height="205pt"
 viewBox="0.00 0.00 285.00 205.00" xmlns="http://www.w3.org/2000/svg" xmlns:xlink="http://www.w3.org/1999/xlink">
<g id="graph0" class="graph" transform="scale(1 1) rotate(0) translate(4 201)">
<title>_anonymous_0</title>
<!-- <polygon style="fill:white;stroke:white;" points="-4,4 -4,-201 281,-201 281,4 -4,4"/> -->
<!-- 7 -->
<g id="node1" class="node"><title>7</title>
<ellipse style="fill:none;stroke:black;" cx="126" cy="-19" rx="27" ry="18"/>
<text text-anchor="middle" x="126" y="-14.9" style="font-family:Times New Roman;font-size:14.00;">7</text>
</g>
<!-- 11 -->
<g id="node3" class="node"><title>11</title>
<ellipse style="fill:none;stroke:black;" cx="106" cy="-105" rx="27" ry="18"/>
<text text-anchor="middle" x="106" y="-100.9" style="font-family:Times New Roman;font-size:14.00;">11</text>
</g>
<!-- 7&#45;&gt;11 -->
<g id="edge2" class="edge"><title>7&#45;&gt;11</title>
<path style="fill:none;stroke:black;" d="M122,-37C119,-49 116,-64 113,-77"/>
<polygon style="fill:black;stroke:black;" points="109.521,-76.416 110,-87 116.226,-78.4275 109.521,-76.416"/>
</g>
<!-- 8 -->
<g id="node5" class="node"><title>8</title>
<ellipse style="fill:none;stroke:black;" cx="211" cy="-20" rx="27" ry="18"/>
<text text-anchor="middle" x="211" y="-15.9" style="font-family:Times New Roman;font-size:14.00;">8</text>
</g>
<!-- 7&#45;&gt;8 -->
<g id="edge4" class="edge"><title>7&#45;&gt;8</title>
<path style="fill:none;stroke:black;" d="M153,-19C160,-19 167,-19 174,-20"/>
<polygon style="fill:black;stroke:black;" points="174,-23.5001 184,-20 174,-16.5001 174,-23.5001"/>
</g>
<!-- 10 -->
<g id="node11" class="node"><title>10</title>
<ellipse style="fill:none;stroke:black;" cx="184" cy="-147" rx="27" ry="18"/>
<text text-anchor="middle" x="184" y="-142.9" style="font-family:Times New Roman;font-size:14.00;">10</text>
</g>
<!-- 11&#45;&gt;10 -->
<g id="edge16" class="edge"><title>11&#45;&gt;10</title>
<path style="fill:none;stroke:black;" d="M127,-116C135,-120 145,-126 154,-131"/>
<polygon style="fill:black;stroke:black;" points="152.559,-134.203 163,-136 155.958,-128.084 152.559,-134.203"/>
</g>
<!-- 2 -->
<g id="node13" class="node"><title>2</title>
<ellipse style="fill:none;stroke:black;" cx="28" cy="-84" rx="27" ry="18"/>
<text text-anchor="middle" x="28" y="-79.9" style="font-family:Times New Roman;font-size:14.00;">2</text>
</g>
<!-- 11&#45;&gt;2 -->
<g id="edge12" class="edge"><title>11&#45;&gt;2</title>
<path style="fill:none;stroke:black;" d="M81,-98C75,-97 69,-95 63,-93"/>
<polygon style="fill:black;stroke:black;" points="63.4922,-89.5292 53,-91 62.1194,-96.3933 63.4922,-89.5292"/>
</g>
<!-- 9 -->
<g id="node15" class="node"><title>9</title>
<ellipse style="fill:none;stroke:black;" cx="160" cy="-64" rx="27" ry="18"/>
<text text-anchor="middle" x="160" y="-59.9" style="font-family:Times New Roman;font-size:14.00;">9</text>
</g>
<!-- 11&#45;&gt;9 -->
<g id="edge14" class="edge"><title>11&#45;&gt;9</title>
<path style="fill:none;stroke:black;" d="M124,-91C127,-89 131,-86 134,-83"/>
<polygon style="fill:black;stroke:black;" points="136.1,-85.8 142,-77 131.9,-80.2 136.1,-85.8"/>
</g>
<!-- 8&#45;&gt;9 -->
<g id="edge18" class="edge"><title>8&#45;&gt;9</title>
<path style="fill:none;stroke:black;" d="M194,-34C191,-37 187,-40 184,-43"/>
<polygon style="fill:black;stroke:black;" points="181.221,-40.7809 176,-50 185.831,-46.0489 181.221,-40.7809"/>
</g>
<!-- 5 -->
<g id="node6" class="node"><title>5</title>
<ellipse style="fill:none;stroke:black;" cx="72" cy="-178" rx="27" ry="18"/>
<text text-anchor="middle" x="72" y="-173.9" style="font-family:Times New Roman;font-size:14.00;">5</text>
</g>
<!-- 5&#45;&gt;11 -->
<g id="edge6" class="edge"><title>5&#45;&gt;11</title>
<path style="fill:none;stroke:black;" d="M80,-161C84,-152 89,-141 94,-131"/>
<polygon style="fill:black;stroke:black;" points="97.1369,-132.56 98,-122 90.7402,-129.717 97.1369,-132.56"/>
</g>
<!-- 3 -->
<g id="node8" class="node"><title>3</title>
<ellipse style="fill:none;stroke:black;" cx="249" cy="-95" rx="27" ry="18"/>
<text text-anchor="middle" x="249" y="-90.9" style="font-family:Times New Roman;font-size:14.00;">3</text>
</g>
<!-- 3&#45;&gt;8 -->
<g id="edge8" class="edge"><title>3&#45;&gt;8</title>
<path style="fill:none;stroke:black;" d="M240,-78C235,-68 230,-56 224,-46"/>
<polygon style="fill:black;stroke:black;" points="227.26,-44.7166 220,-37 220.863,-47.5596 227.26,-44.7166"/>
</g>
<!-- 3&#45;&gt;10 -->
<g id="edge10" class="edge"><title>3&#45;&gt;10</title>
<path style="fill:none;stroke:black;" d="M232,-109C225,-114 217,-120 209,-126"/>
<polygon style="fill:black;stroke:black;" points="206.221,-123.781 201,-133 210.831,-129.049 206.221,-123.781"/>
</g>
</g>
</svg>
