<?xml version="1.0" encoding="utf-8"?>
<!DOCTYPE svg PUBLIC "-//W3C//DTD SVG 1.1//EN" "http://www.w3.org/Graphics/SVG/1.1/DTD/svg11.dtd">
<svg version="1.1" id="Layer_1" xmlns="http://www.w3.org/2000/svg" xmlns:xlink="http://www.w3.org/1999/xlink" x="0px" y="0px"
	 width="324px" height="324px" viewBox="0 0 324 324" enable-background="new 0 0 324 324" xml:space="preserve">
<g>
	<g>
		<path fill="none" stroke="#BC1E47" stroke-miterlimit="10" d="M132.5,140.8c0,72.113,39.656,93.68,80.068,95.562"/>
		<g>
			<path fill="#BC1E47" d="M218.6,236.5c-2.871,0.967-6.447,2.656-8.688,4.492l1.864-4.701l-1.574-4.805
				C212.326,233.456,215.793,235.361,218.6,236.5z"/>
		</g>
	</g>
</g>
<g>
	<g>
		<path fill="none" stroke="#BC1E47" stroke-miterlimit="10" d="M32.8,6c189.483,0,243.237,21.651,244.188,241.91"/>
		<g>
			<path fill="#BC1E47" d="M277,253.945c-1.1-2.822-2.953-6.316-4.893-8.47l4.783,1.644l4.727-1.796
				C279.748,247.537,278.007,251.089,277,253.945z"/>
		</g>
	</g>
</g>
<g>
	<g>
		<path fill="none" stroke="#BC1E47" stroke-miterlimit="10" d="M32.8,14.5c116.871,0,168.769,89.337,171.554,160.467"/>
		<g>
			<path fill="#BC1E47" d="M204.473,181c-1.116-2.815-2.992-6.299-4.944-8.439l4.793,1.614l4.715-1.825
				C207.182,174.575,205.462,178.138,204.473,181z"/>
		</g>
	</g>
</g>
<g>
	<g>
		<path fill="none" stroke="#BC1E47" stroke-miterlimit="10" d="M13,32.8c0,88.809,33.729,130.63,126.91,132.336"/>
		<g>
			<path fill="#BC1E47" d="M145.945,165.19c-2.868,0.975-6.44,2.673-8.676,4.516l1.852-4.706l-1.587-4.801
				C139.664,162.164,143.136,164.059,145.945,165.19z"/>
		</g>
	</g>
</g>
<g>
	<g>
		<path fill="none" stroke="#BC1E47" stroke-miterlimit="10" d="M32.8,11c124.862,0,208.414,15.066,210.172,200.91"/>
		<g>
			<path fill="#BC1E47" d="M243,217.945c-1.094-2.825-2.94-6.322-4.875-8.479l4.779,1.653l4.73-1.787
				C245.761,211.543,244.013,215.091,243,217.945z"/>
		</g>
	</g>
</g>
<g>
	<g>
		<path fill="none" stroke="#BC1E47" stroke-miterlimit="10" d="M32.8,18c41.973,0,55.555,22.483,57.056,52.962"/>
		<g>
			<path fill="#BC1E47" d="M90,77c-1.132-2.81-3.027-6.282-4.991-8.412l4.802,1.587l4.705-1.851C92.673,70.56,90.974,74.132,90,77z"
				/>
		</g>
	</g>
</g>
<g>
	<path fill="none" d="M210.891,165.19"/>
</g>
<g>
	<g>
		<path fill="none" stroke="#BC1E47" stroke-miterlimit="10" d="M9,32.8c0,118.423-30.597,280.078,273.965,282.18"/>
		<g>
			<path fill="#BC1E47" d="M289,315c-2.857,1.006-6.41,2.745-8.626,4.612l1.8-4.727l-1.641-4.783
				C282.686,312.043,286.178,313.9,289,315z"/>
		</g>
	</g>
</g>
<g>
	<g>
		<path fill="none" stroke="#BC1E47" stroke-miterlimit="10" d="M68,47.5c161.412,0,201.307,2.94,201.991,200.41"/>
		<g>
			<path fill="#BC1E47" d="M270,253.945c-1.09-2.826-2.934-6.326-4.865-8.485l4.777,1.659l4.732-1.781
				C272.769,247.546,271.017,251.092,270,253.945z"/>
		</g>
	</g>
</g>
<g>
	<g>
		<path fill="none" stroke="#BC1E47" stroke-miterlimit="10" d="M140,118.439c62.95,0,122.999,10.595,124.951,129.47"/>
		<g>
			<path fill="#BC1E47" d="M265,253.945c-1.098-2.823-2.95-6.318-4.889-8.473l4.782,1.646l4.728-1.794
				C267.751,247.538,266.009,251.09,265,253.945z"/>
		</g>
	</g>
</g>
<g>
	<g>
		<path fill="none" stroke="#BC1E47" stroke-miterlimit="10" d="M197.154,210.947c0,29.603,32.675,45.526,51.03,51.761"/>
		<g>
			<path fill="#BC1E47" d="M253.945,264.5c-3.025,0.146-6.928,0.793-9.586,1.947l3.079-4.013l-0.202-5.053
				C248.742,259.858,251.557,262.638,253.945,264.5z"/>
		</g>
	</g>
</g>
<path fill="none" stroke="#FFFFFF" stroke-width="8" stroke-miterlimit="10" d="M197.154,174.984
	C192.254,148.74,166.791,126,140,126"/>
<path fill="none" stroke="#FFFFFF" stroke-width="8" stroke-miterlimit="10" d="M68,54c123.078,0,163.801,49.864,165.912,156.947"/>
<path fill="none" stroke="#1B80C4" stroke-width="3" stroke-miterlimit="10" d="M197.154,174.984
	C192.255,148.74,166.792,126,140,126"/>
<path fill="none" stroke="#1B80C4" stroke-width="3" stroke-miterlimit="10" d="M68,54c123.079,0,163.802,49.864,165.913,156.947"/>
<line fill="none" stroke="#FFFFFF" stroke-width="8" stroke-miterlimit="10" x1="27" y1="27" x2="38.599" y2="38.599"/>
<line fill="none" stroke="#FFFFFF" stroke-width="8" stroke-miterlimit="10" x1="63" y1="63" x2="74.599" y2="74.599"/>
<line fill="none" stroke="#FFFFFF" stroke-width="8" stroke-miterlimit="10" x1="135" y1="135" x2="146.6" y2="146.599"/>
<line fill="none" stroke="#FFFFFF" stroke-width="8" stroke-miterlimit="10" x1="207" y1="207" x2="218.6" y2="218.6"/>
<line fill="none" stroke="#FFFFFF" stroke-width="8" stroke-miterlimit="10" x1="243" y1="243" x2="254.6" y2="254.6"/>
<path fill="none" stroke="#FFFFFF" stroke-width="8" stroke-miterlimit="10" d="M102.948,125.744C44.182,122.334,18,85.237,18,32"/>
<path fill="none" stroke="#FFFFFF" stroke-width="8" stroke-miterlimit="10" d="M246.945,269.768
	C180.617,266.25,162,223.607,162,176"/>
<path fill="none" stroke="#FFFFFF" stroke-width="8" stroke-miterlimit="10" d="M176,162c89.506,0,126.715,55.256,129.789,120.951"
	/>
<path fill="none" stroke="#FFFFFF" stroke-width="8" stroke-miterlimit="10" d="M282.945,305.936
	C141.084,303.83,126,251.236,126,140"/>
<path fill="#1B80C4" d="M198,184c1.132-4.4,3.268-9.936,5.771-13.49l-6.83,3.305l-7.36-1.83C192.762,174.949,195.99,179.927,198,184
	z"/>
<path fill="#1B80C4" d="M234,220c-1.68-4.223-4.497-9.443-7.428-12.652l7.191,2.414l7.071-2.744
	C238.055,210.359,235.48,215.706,234,220z"/>
<path fill="none" stroke="#FFFFFF" stroke-width="8" stroke-miterlimit="10" d="M306,288"/>
<path fill="none" stroke="#FFFFFF" stroke-width="8" stroke-miterlimit="10" d="M180,162"/>
<circle fill="#ABD5EE" stroke="#000000" stroke-miterlimit="10" cx="18" cy="18" r="9"/>
<circle fill="#ABD5EE" stroke="#000000" stroke-miterlimit="10" cx="54" cy="54" r="9"/>
<circle fill="#ABD5EE" stroke="#000000" stroke-miterlimit="10" cx="90" cy="90" r="9"/>
<circle fill="#ABD5EE" stroke="#000000" stroke-miterlimit="10" cx="126" cy="126" r="9"/>
<circle fill="#ABD5EE" stroke="#000000" stroke-miterlimit="10" cx="162" cy="162" r="9"/>
<circle fill="#ABD5EE" stroke="#000000" stroke-miterlimit="10" cx="198" cy="198" r="9"/>
<circle fill="#ABD5EE" stroke="#000000" stroke-miterlimit="10" cx="234" cy="234" r="9"/>
<circle fill="#ABD5EE" stroke="#000000" stroke-miterlimit="10" cx="270" cy="270" r="9"/>
<circle fill="#ABD5EE" stroke="#000000" stroke-miterlimit="10" cx="306" cy="306" r="9"/>
<line fill="none" stroke="#1B80C4" stroke-width="3" stroke-miterlimit="10" x1="27" y1="27" x2="38.599" y2="38.599"/>
<path fill="#1B80C4" d="M45,45c-4.13-1.895-9.774-3.725-14.11-4.021l6.869-3.22l3.219-6.868C41.275,35.228,43.105,40.872,45,45z"/>
<line fill="none" stroke="#1B80C4" stroke-width="3" stroke-miterlimit="10" x1="63" y1="63" x2="74.599" y2="74.599"/>
<path fill="#1B80C4" d="M81,81c-4.13-1.895-9.774-3.725-14.11-4.021l6.869-3.22l3.219-6.868C77.275,71.228,79.105,76.872,81,81z"/>
<line fill="none" stroke="#1B80C4" stroke-width="3" stroke-miterlimit="10" x1="135" y1="135" x2="146.599" y2="146.599"/>
<path fill="#1B80C4" d="M153,153c-4.13-1.895-9.774-3.725-14.11-4.021l6.869-3.22l3.219-6.868
	C149.275,143.228,151.105,148.872,153,153z"/>
<line fill="none" stroke="#1B80C4" stroke-width="3" stroke-miterlimit="10" x1="207" y1="207" x2="218.6" y2="218.6"/>
<path fill="#1B80C4" d="M225,225c-4.13-1.895-9.773-3.725-14.109-4.021l6.868-3.22l3.22-6.868
	C221.275,215.229,223.105,220.872,225,225z"/>
<line fill="none" stroke="#1B80C4" stroke-width="3" stroke-miterlimit="10" x1="243" y1="243" x2="254.6" y2="254.6"/>
<path fill="#1B80C4" d="M261,261c-4.13-1.895-9.773-3.725-14.109-4.021l6.868-3.22l3.22-6.868
	C257.275,251.229,259.105,256.872,261,261z"/>
<path fill="none" stroke="#1B80C4" stroke-width="3" stroke-miterlimit="10" d="M102.948,125.744C44.182,122.334,18,85.237,18,32"/>
<path fill="#1B80C4" d="M112,126c-4.204-1.723-9.396-4.596-12.574-7.561l2.339,7.217l-2.818,7.042
	C102.317,129.954,107.69,127.436,112,126z"/>
<path fill="none" stroke="#1B80C4" stroke-width="3" stroke-miterlimit="10" d="M246.945,269.768
	C180.617,266.25,162,223.607,162,176"/>
<path fill="#1B80C4" d="M256,270c-4.208-1.714-9.404-4.577-12.589-7.536l2.354,7.211l-2.806,7.048
	C246.325,273.973,251.693,271.443,256,270z"/>
<path fill="none" stroke="#1B80C4" stroke-width="3" stroke-miterlimit="10" d="M176,162c89.507,0,126.715,55.256,129.79,120.95"/>
<path fill="#1B80C4" d="M306,292c-1.723-4.205-4.594-9.396-7.559-12.576l7.217,2.342l7.042-2.817
	C309.956,282.318,307.436,287.689,306,292z"/>
<path fill="none" stroke="#1B80C4" stroke-width="3" stroke-miterlimit="10" d="M282.945,305.936
	C141.085,303.83,126,251.236,126,140"/>
<path fill="#1B80C4" d="M292,306c-4.242-1.628-9.496-4.384-12.74-7.277l2.5,7.162l-2.66,7.104
	C282.408,310.169,287.723,307.532,292,306z"/>
</svg>
