<?xml version="1.0" encoding="us-ascii" standalone="no"?><svg xmlns="http://www.w3.org/2000/svg" xmlns:xlink="http://www.w3.org/1999/xlink" contentStyleType="text/css" height="360.4167px" preserveAspectRatio="none" style="width:289px;height:360px;" version="1.1" viewBox="0 0 289 360" width="289.5833px" zoomAndPan="magnify"><defs/><g><path d="M86.4583,51.18 L86.7503,51.18 L85.8829,61.5465 L86.7268,71.9131 L87.0134,82.2796 L85.4675,92.6462 L86.3504,103.0127 L85.866,113.3792 L85.9257,123.7458 L86.3637,134.1123 L85.4981,144.4788 L87.2273,154.8454 L85.5829,165.2119 L86.1837,175.5785 L87.0583,185.945 L86.3392,196.3115 L86.5531,206.6781 L86.414,217.0446 L86.7063,227.4111 L86.7905,237.7777 L87.2718,248.1442 L87.3904,258.5107 L87.4017,268.8773 L86.812,279.2438 L87.1022,289.6104 L87.4337,299.9769 L86.4583,310.3434 " fill="none" style="stroke:#555555;stroke-width:1.0416666666666667;stroke-dasharray:5.0,5.0;"/><path d="M246.875,51.18 L247.1669,51.18 L246.2996,61.5465 L247.1435,71.9131 L247.4301,82.2796 L245.8842,92.6462 L246.7671,103.0127 L246.2826,113.3792 L246.3424,123.7458 L246.7803,134.1123 L245.9148,144.4788 L247.6439,154.8454 L245.9996,165.2119 L246.6003,175.5785 L247.4749,185.945 L246.7559,196.3115 L246.9698,206.6781 L246.8306,217.0446 L247.123,227.4111 L247.2071,237.7777 L247.6885,248.1442 L247.807,258.5107 L247.8184,268.8773 L247.2286,279.2438 L247.5189,289.6104 L247.8503,299.9769 L246.875,310.3434 " fill="none" style="stroke:#555555;stroke-width:1.0416666666666667;stroke-dasharray:5.0,5.0;"/><polygon fill="none" points="61.4583,10.4167,61.4583,10.6356,71.4583,9.9851,81.4583,10.618,91.4583,10.833,101.4583,9.6735,111.4583,10.4167,111.448,10.3917,111.9909,10.5239,112.5859,10.7818,113.217,11.127,113.7235,11.1712,114.4046,11.6371,114.5822,11.7106,114.4465,12.1426,114.8293,12.7893,115.2754,13.4622,115.3534,13.9827,115.625,14.5833,115.6487,14.5833,115.6139,20.861,115.687,27.1387,115.708,33.4163,115.8284,39.694,115.625,45.9717,115.8403,46.0608,115.5988,46.6512,115.2185,47.184,115.0415,47.801,114.874,48.422,114.4046,48.918,114.3088,48.6866,113.9055,49.3797,113.1867,49.311,112.7078,49.8214,111.9818,49.7355,111.4583,50.1383,111.4583,50.067,101.4583,50.9109,91.4583,50.0876,81.4583,50.248,71.4583,50.4911,61.4583,50.1383,61.5136,50.2719,60.8686,49.893,60.318,49.7423,59.6145,49.2225,59.1391,49.2533,58.5121,48.918,58.6879,48.9908,58.4106,48.3878,58.2206,47.8209,57.6249,47.086,57.3265,46.4743,57.2917,45.9717,57.0759,45.9717,57.2712,39.694,57.2234,33.4163,57.5283,27.1387,57.231,20.861,57.2917,14.5833,57.1816,14.5377,57.609,14.0244,57.5659,13.3162,57.8574,12.7466,58.4762,12.3125,58.5121,11.6371,58.5699,11.7768,59.1989,11.6286,59.6478,11.0457,60.3222,11.0072,60.9475,10.8501,61.4583,10.4167" style="stroke:#333333;stroke-width:1.0416666666666667;"/><text fill="#2E2E2E" font-family="Segoe Print" font-size="12.5" lengthAdjust="spacing" textLength="33.3333" x="69.7917" y="35.0016">Client</text><polygon fill="none" points="61.4583,309.3018,61.4583,309.5207,71.4583,308.8702,81.4583,309.5031,91.4583,309.7181,101.4583,308.5586,111.4583,309.3018,111.448,309.2768,111.9909,309.409,112.5859,309.6669,113.217,310.0121,113.7235,310.0563,114.4046,310.5221,114.5822,310.5957,114.4465,311.0277,114.8293,311.6744,115.2754,312.3473,115.3534,312.8678,115.625,313.4684,115.6487,313.4684,115.6139,319.7461,115.687,326.0238,115.708,332.3014,115.8284,338.5791,115.625,344.8568,115.8403,344.9459,115.5988,345.5363,115.2185,346.0691,115.0415,346.6861,114.874,347.3071,114.4046,347.803,114.3088,347.5717,113.9055,348.2648,113.1867,348.1961,112.7078,348.7065,111.9818,348.6206,111.4583,349.0234,111.4583,348.9521,101.4583,349.7959,91.4583,348.9727,81.4583,349.1331,71.4583,349.3762,61.4583,349.0234,61.5136,349.157,60.8686,348.7781,60.318,348.6274,59.6145,348.1076,59.1391,348.1384,58.5121,347.803,58.6879,347.8759,58.4106,347.2729,58.2206,346.706,57.6249,345.9711,57.3265,345.3594,57.2917,344.8568,57.0759,344.8568,57.2712,338.5791,57.2234,332.3014,57.5283,326.0238,57.231,319.7461,57.2917,313.4684,57.1816,313.4228,57.609,312.9095,57.5659,312.2013,57.8574,311.6317,58.4762,311.1976,58.5121,310.5221,58.5699,310.6619,59.1989,310.5137,59.6478,309.9308,60.3222,309.8923,60.9475,309.7352,61.4583,309.3018" style="stroke:#333333;stroke-width:1.0416666666666667;"/><text fill="#2E2E2E" font-family="Segoe Print" font-size="12.5" lengthAdjust="spacing" textLength="33.3333" x="69.7917" y="333.8867">Client</text><polygon fill="none" points="219.7917,10.4167,219.7917,10.6356,230.625,9.9851,241.4583,10.618,252.2917,10.833,263.125,9.6735,273.9583,10.4167,273.948,10.3917,274.4909,10.5239,275.0859,10.7818,275.717,11.127,276.2235,11.1712,276.9046,11.6371,277.0822,11.7106,276.9465,12.1426,277.3293,12.7893,277.7754,13.4622,277.8534,13.9827,278.125,14.5833,278.1487,14.5833,278.1139,20.861,278.187,27.1387,278.208,33.4163,278.3284,39.694,278.125,45.9717,278.3403,46.0608,278.0988,46.6512,277.7185,47.184,277.5415,47.801,277.374,48.422,276.9046,48.918,276.8088,48.6866,276.4055,49.3797,275.6867,49.311,275.2078,49.8214,274.4818,49.7355,273.9583,50.1383,273.9583,50.067,263.125,50.9109,252.2917,50.0876,241.4583,50.248,230.625,50.4911,219.7917,50.1383,219.847,50.2719,219.2019,49.893,218.6513,49.7423,217.9478,49.2225,217.4724,49.2533,216.8454,48.918,217.0212,48.9908,216.7439,48.3878,216.5539,47.8209,215.9582,47.086,215.6599,46.4743,215.625,45.9717,215.4092,45.9717,215.6046,39.694,215.5568,33.4163,215.8616,27.1387,215.5643,20.861,215.625,14.5833,215.515,14.5377,215.9423,14.0244,215.8992,13.3162,216.1907,12.7466,216.8095,12.3125,216.8454,11.6371,216.9033,11.7768,217.5322,11.6286,217.9811,11.0457,218.6556,11.0072,219.2809,10.8501,219.7917,10.4167" style="stroke:#333333;stroke-width:1.0416666666666667;"/><text fill="#2E2E2E" font-family="Segoe Print" font-size="12.5" lengthAdjust="spacing" textLength="37.5" x="228.125" y="35.0016">Server</text><polygon fill="none" points="219.7917,309.3018,219.7917,309.5207,230.625,308.8702,241.4583,309.5031,252.2917,309.7181,263.125,308.5586,273.9583,309.3018,273.948,309.2768,274.4909,309.409,275.0859,309.6669,275.717,310.0121,276.2235,310.0563,276.9046,310.5221,277.0822,310.5957,276.9465,311.0277,277.3293,311.6744,277.7754,312.3473,277.8534,312.8678,278.125,313.4684,278.1487,313.4684,278.1139,319.7461,278.187,326.0238,278.208,332.3014,278.3284,338.5791,278.125,344.8568,278.3403,344.9459,278.0988,345.5363,277.7185,346.0691,277.5415,346.6861,277.374,347.3071,276.9046,347.803,276.8088,347.5717,276.4055,348.2648,275.6867,348.1961,275.2078,348.7065,274.4818,348.6206,273.9583,349.0234,273.9583,348.9521,263.125,349.7959,252.2917,348.9727,241.4583,349.1331,230.625,349.3762,219.7917,349.0234,219.847,349.157,219.2019,348.7781,218.6513,348.6274,217.9478,348.1076,217.4724,348.1384,216.8454,347.803,217.0212,347.8759,216.7439,347.2729,216.5539,346.706,215.9582,345.9711,215.6599,345.3594,215.625,344.8568,215.4092,344.8568,215.6046,338.5791,215.5568,332.3014,215.8616,326.0238,215.5643,319.7461,215.625,313.4684,215.515,313.4228,215.9423,312.9095,215.8992,312.2013,216.1907,311.6317,216.8095,311.1976,216.8454,310.5221,216.9033,310.6619,217.5322,310.5137,217.9811,309.9308,218.6556,309.8923,219.2809,309.7352,219.7917,309.3018" style="stroke:#333333;stroke-width:1.0416666666666667;"/><text fill="#2E2E2E" font-family="Segoe Print" font-size="12.5" lengthAdjust="spacing" textLength="37.5" x="228.125" y="333.8867">Server</text><polygon fill="#333333" points="234.375,88.8184,234.4021,88.8861,236.4049,89.5181,238.5666,90.5473,240.6765,91.4472,242.6163,91.9217,244.7917,92.985,244.7816,92.96,242.6533,93.6809,240.5755,94.5281,238.5329,95.4631,236.3692,96.0955,234.375,97.1517,234.5109,97.2876,235.0536,96.1636,235.9931,95.4365,236.9811,94.7577,237.6873,93.7973,238.5417,92.985,238.5584,93.0018,237.7005,92.1438,236.9188,91.3622,236.1004,90.5437,235.3521,89.7955,234.375,88.8184" style="stroke:#333333;stroke-width:1.0416666666666667;"/><path d="M86.4583,92.985 L86.4583,93.2769 L96.7361,92.4096 L107.0139,93.2535 L117.2917,93.5401 L127.5694,91.9942 L137.8472,92.8771 L148.125,92.3927 L158.4028,92.4524 L168.6806,92.8904 L178.9583,92.0248 L189.2361,93.754 L199.5139,92.1096 L209.7917,92.7104 L220.0694,93.585 L230.3472,92.8659 L240.625,92.985 " fill="none" style="stroke:#333333;stroke-width:3.125;"/><text fill="#2E2E2E" font-family="Segoe Print" font-size="12.5" lengthAdjust="spacing" textLength="75" x="129.1667" y="83.0566">&#35831;&#27714;&#36719;&#20214;&#26356;&#26032;</text><polygon fill="#333333" points="97.9167,128.54,97.9438,128.6078,95.7799,129.2398,93.7749,130.269,91.7182,131.1689,89.4913,131.6434,87.5,132.7067,87.49,132.6817,89.5283,133.4025,91.6172,134.2497,93.7412,135.1847,95.7442,135.8172,97.9167,136.8734,98.0526,137.0093,96.9286,135.8853,96.2014,135.1581,95.5227,134.4794,94.5623,133.519,93.75,132.7067,93.7668,132.7235,94.5755,131.8655,95.4605,131.0839,96.3087,130.2654,97.2271,129.5172,97.9167,128.54" style="stroke:#333333;stroke-width:1.0416666666666667;"/><path d="M91.6667,132.7067 L91.6667,132.9986 L101.9444,132.1313 L112.2222,132.9752 L122.5,133.2618 L132.7778,131.7159 L143.0556,132.5988 L153.3333,132.1144 L163.6111,132.1741 L173.8889,132.612 L184.1667,131.7465 L194.4444,133.4757 L204.7222,131.8313 L215,132.432 L225.2778,133.3066 L235.5556,132.5876 L245.8333,132.7067 " fill="none" style="stroke:#333333;stroke-width:3.125;stroke-dasharray:2.0,2.0;"/><text fill="#2E2E2E" font-family="Segoe Print" font-size="12.5" lengthAdjust="spacing" textLength="125" x="104.1667" y="122.7783">&#36820;&#22238;&#21487;&#29992;&#26356;&#26032;&#29256;&#26412;&#20449;&#24687;</text><polygon fill="#333333" points="234.375,168.2617,234.4021,168.3295,236.4049,168.9615,238.5666,169.9907,240.6765,170.8906,242.6163,171.3651,244.7917,172.4284,244.7816,172.4033,242.6533,173.1242,240.5755,173.9714,238.5329,174.9064,236.3692,175.5388,234.375,176.5951,234.5109,176.731,235.0536,175.607,235.9931,174.8798,236.9811,174.2011,237.6873,173.2407,238.5417,172.4284,238.5584,172.4451,237.7005,171.5872,236.9188,170.8056,236.1004,169.9871,235.3521,169.2389,234.375,168.2617" style="stroke:#333333;stroke-width:1.0416666666666667;"/><path d="M86.4583,172.4284 L86.4583,172.7203 L96.7361,171.8529 L107.0139,172.6968 L117.2917,172.9835 L127.5694,171.4376 L137.8472,172.3205 L148.125,171.836 L158.4028,171.8957 L168.6806,172.3337 L178.9583,171.4682 L189.2361,173.1973 L199.5139,171.553 L209.7917,172.1537 L220.0694,173.0283 L230.3472,172.3093 L240.625,172.4284 " fill="none" style="stroke:#333333;stroke-width:3.125;"/><text fill="#2E2E2E" font-family="Segoe Print" font-size="12.5" lengthAdjust="spacing" textLength="75" x="129.1667" y="162.5">&#35831;&#27714;&#19979;&#36733;&#26356;&#26032;</text><polygon fill="#333333" points="97.9167,207.9834,97.9438,208.0512,95.7799,208.6832,93.7749,209.7124,91.7182,210.6123,89.4913,211.0867,87.5,212.1501,87.49,212.125,89.5283,212.8459,91.6172,213.6931,93.7412,214.6281,95.7442,215.2605,97.9167,216.3167,98.0526,216.4527,96.9286,215.3286,96.2014,214.6015,95.5227,213.9228,94.5623,212.9623,93.75,212.1501,93.7668,212.1668,94.5755,211.3089,95.4605,210.5272,96.3087,209.7088,97.2271,208.9605,97.9167,207.9834" style="stroke:#333333;stroke-width:1.0416666666666667;"/><path d="M91.6667,212.1501 L91.6667,212.442 L101.9444,211.5746 L112.2222,212.4185 L122.5,212.7052 L132.7778,211.1592 L143.0556,212.0421 L153.3333,211.5577 L163.6111,211.6174 L173.8889,212.0554 L184.1667,211.1898 L194.4444,212.919 L204.7222,211.2747 L215,211.8754 L225.2778,212.75 L235.5556,212.0309 L245.8333,212.1501 " fill="none" style="stroke:#333333;stroke-width:3.125;stroke-dasharray:2.0,2.0;"/><text fill="#2E2E2E" font-family="Segoe Print" font-size="12.5" lengthAdjust="spacing" textLength="75" x="129.1667" y="202.2217">&#36820;&#22238;&#26356;&#26032;&#25991;&#20214;</text><polygon fill="#333333" points="234.375,247.7051,234.4021,247.7728,236.4049,248.4048,238.5666,249.4341,240.6765,250.3339,242.6163,250.8084,244.7917,251.8717,244.7816,251.8467,242.6533,252.5676,240.5755,253.4148,238.5329,254.3498,236.3692,254.9822,234.375,256.0384,234.5109,256.1743,235.0536,255.0503,235.9931,254.3232,236.9811,253.6445,237.6873,252.684,238.5417,251.8717,238.5584,251.8885,237.7005,251.0306,236.9188,250.2489,236.1004,249.4305,235.3521,248.6822,234.375,247.7051" style="stroke:#333333;stroke-width:1.0416666666666667;"/><path d="M86.4583,251.8717 L86.4583,252.1637 L96.7361,251.2963 L107.0139,252.1402 L117.2917,252.4269 L127.5694,250.8809 L137.8472,251.7638 L148.125,251.2794 L158.4028,251.3391 L168.6806,251.7771 L178.9583,250.9115 L189.2361,252.6407 L199.5139,250.9964 L209.7917,251.5971 L220.0694,252.4717 L230.3472,251.7526 L240.625,251.8717 " fill="none" style="stroke:#333333;stroke-width:3.125;"/><text fill="#2E2E2E" font-family="Segoe Print" font-size="12.5" lengthAdjust="spacing" textLength="75" x="129.1667" y="241.9434">&#30830;&#35748;&#25509;&#25910;&#26356;&#26032;</text><polygon fill="#333333" points="97.9167,287.4268,97.9438,287.4945,95.7799,288.1265,93.7749,289.1557,91.7182,290.0556,89.4913,290.5301,87.5,291.5934,87.49,291.5684,89.5283,292.2893,91.6172,293.1365,93.7412,294.0715,95.7442,294.7039,97.9167,295.7601,98.0526,295.896,96.9286,294.772,96.2014,294.0449,95.5227,293.3661,94.5623,292.4057,93.75,291.5934,93.7668,291.6102,94.5755,290.7522,95.4605,289.9706,96.3087,289.1521,97.2271,288.4039,97.9167,287.4268" style="stroke:#333333;stroke-width:1.0416666666666667;"/><path d="M91.6667,291.5934 L91.6667,291.8853 L101.9444,291.018 L112.2222,291.8619 L122.5,292.1485 L132.7778,290.6026 L143.0556,291.4855 L153.3333,291.0011 L163.6111,291.0608 L173.8889,291.4988 L184.1667,290.6332 L194.4444,292.3624 L204.7222,290.718 L215,291.3187 L225.2778,292.1934 L235.5556,291.4743 L245.8333,291.5934 " fill="none" style="stroke:#333333;stroke-width:3.125;stroke-dasharray:2.0,2.0;"/><text fill="#2E2E2E" font-family="Segoe Print" font-size="12.5" lengthAdjust="spacing" textLength="50" x="141.6667" y="281.665">&#30830;&#35748;&#25509;&#25910;</text><!--SRC=[XPB1IWCn48Rl-nGHpmLrTstr86Z1avvyWfXEsx3Rf2PPYqUzg0XwARrKX8A21-agY0fI-ZBRT1_3sErXssstXq2O-UQVVoQH7cLDB733vyI32X8yO1N21GE1DZSiEPUMS1O08t0CKk8QxFkqnX01fa1aM2m4RvMvpmLQTp4f4dinSiYPccAjEbMGeSnTKKARcAa3JBpQnEEqmjvnjfnINabAtYqIKiAv-bnKGEHhOwAuM6bwGit8BUcUWFDpAO6PD9XPxT97EA9LSnZCTC7LKqoSJ0tZ2Z9DgewzxReBsSnyrfggGmEGz42H-aM11yetlIqhjJrKzkc_uNJe1CIv-HnMaaA5lMba5yNXj_wuYWTXzFkbkv-wysubALGmLC8RQjWUTPz63-6u_PfGuziR_VWM3NlwCbmg6_tSnOF1AjaahplNni82gN6l7_UVzVsBRkSuJ5D_]--></g></svg>