<svg xmlns="http://www.w3.org/2000/svg" xmlns:xlink="http://www.w3.org/1999/xlink" contentStyleType="text/css" data-diagram-type="ACTIVITY" height="767px" preserveAspectRatio="none" style="width:940px;height:767px;" version="1.1" viewBox="0 0 940 767" width="940px" zoomAndPan="magnify"><title>CPU&#25351;&#20196;&#21608;&#26399;&#65288;Instruction Cycle&#65289;</title><defs/><g><text fill="#000000" font-family="sans-serif" font-size="14" font-weight="bold" lengthAdjust="spacing" textLength="249.2174" x="344.1151" y="32.9951">CPU&#25351;&#20196;&#21608;&#26399;&#65288;Instruction Cycle&#65289;</text><ellipse cx="475.2238" cy="57.2969" fill="#222222" rx="10" ry="10" style="stroke:#222222;stroke-width:1;"/><rect fill="#F1F1F1" height="33.9688" rx="12.5" ry="12.5" style="stroke:#181818;stroke-width:0.5;" width="143.6161" x="403.4158" y="87.2969"/><text fill="#000000" font-family="sans-serif" font-size="12" lengthAdjust="spacing" textLength="123.6161" x="413.4158" y="108.4355">PC&#25351;&#21521;&#19979;&#19968;&#26465;&#25351;&#20196;&#22320;&#22336;</text><rect fill="#555555" height="6" rx="2.5" ry="2.5" style="stroke:#555555;stroke-width:1;" width="918.4477" x="11" y="141.2656"/><rect fill="#F1F1F1" height="33.9688" rx="12.5" ry="12.5" style="stroke:#181818;stroke-width:0.5;" width="129.7291" x="65.7064" y="167.2656"/><text fill="#000000" font-family="sans-serif" font-size="12" font-weight="bold" lengthAdjust="spacing" textLength="109.7291" x="75.7064" y="188.4043">&#21462;&#25351;&#38454;&#27573;&#65288;Fetch&#65289;</text><rect fill="#F1F1F1" height="33.9688" rx="12.5" ry="12.5" style="stroke:#181818;stroke-width:0.5;" width="194.88" x="33.131" y="236.2344"/><text fill="#000000" font-family="sans-serif" font-size="12" lengthAdjust="spacing" textLength="174.88" x="43.131" y="257.373">1. &#36890;&#36807;&#22320;&#22336;&#24635;&#32447;&#21457;&#36865;PC&#20540;&#21040;&#20869;&#23384;</text><rect fill="#F1F1F1" height="33.9688" rx="12.5" ry="12.5" style="stroke:#181818;stroke-width:0.5;" width="215.1419" x="23" y="305.2031"/><text fill="#000000" font-family="sans-serif" font-size="12" lengthAdjust="spacing" textLength="195.1419" x="33" y="326.3418">2. &#20869;&#23384;&#36820;&#22238;&#25351;&#20196;&#21040;IR&#65288;&#25351;&#20196;&#23492;&#23384;&#22120;&#65289;</text><rect fill="#F1F1F1" height="33.9688" rx="12.5" ry="12.5" style="stroke:#181818;stroke-width:0.5;" width="74.8791" x="93.1314" y="374.1719"/><text fill="#000000" font-family="sans-serif" font-size="12" lengthAdjust="spacing" textLength="54.8791" x="103.1314" y="395.3105">3. PC&#36882;&#22686;</text><rect fill="#F1F1F1" height="33.9688" rx="12.5" ry="12.5" style="stroke:#181818;stroke-width:0.5;" width="142.1861" x="276.8883" y="201.75"/><text fill="#000000" font-family="sans-serif" font-size="12" font-weight="bold" lengthAdjust="spacing" textLength="122.1861" x="286.8883" y="222.8887">&#35299;&#30721;&#38454;&#27573;&#65288;Decode&#65289;</text><rect fill="#F1F1F1" height="33.9688" rx="12.5" ry="12.5" style="stroke:#181818;stroke-width:0.5;" width="151.8779" x="272.0424" y="270.7188"/><text fill="#000000" font-family="sans-serif" font-size="12" lengthAdjust="spacing" textLength="131.8779" x="282.0424" y="291.8574">&#25511;&#21046;&#21333;&#20803;&#35299;&#26512;IR&#20013;&#30340;&#25351;&#20196;</text><rect fill="#F1F1F1" height="33.9688" rx="12.5" ry="12.5" style="stroke:#181818;stroke-width:0.5;" width="199.6789" x="248.1419" y="339.6875"/><text fill="#000000" font-family="sans-serif" font-size="12" lengthAdjust="spacing" textLength="179.6789" x="258.1419" y="360.8262">&#29983;&#25104;&#25511;&#21046;&#20449;&#21495;&#65288;&#22914;ALU&#25805;&#20316;&#31867;&#22411;&#65289;</text><rect fill="#F1F1F1" height="33.9688" rx="12.5" ry="12.5" style="stroke:#181818;stroke-width:0.5;" width="145.608" x="553.9693" y="204.2344"/><text fill="#000000" font-family="sans-serif" font-size="12" font-weight="bold" lengthAdjust="spacing" textLength="125.608" x="563.9693" y="225.373">&#25191;&#34892;&#38454;&#27573;&#65288;Execute&#65289;</text><polygon fill="#F1F1F1" points="596.3543,273.2031,657.1923,273.2031,669.1923,285.2031,657.1923,297.2031,596.3543,297.2031,584.3543,285.2031,596.3543,273.2031" style="stroke:#181818;stroke-width:0.5;"/><text fill="#000000" font-family="sans-serif" font-size="11" lengthAdjust="spacing" textLength="60.838" x="596.3543" y="289.0112">&#38656;&#35201;&#25805;&#20316;&#25968;?</text><text fill="#000000" font-family="sans-serif" font-size="11" lengthAdjust="spacing" textLength="10.9999" x="573.3543" y="282.6089">&#26159;</text><text fill="#000000" font-family="sans-serif" font-size="11" lengthAdjust="spacing" textLength="10.9999" x="669.1923" y="282.6089">&#21542;</text><rect fill="#F1F1F1" height="33.9688" rx="12.5" ry="12.5" style="stroke:#181818;stroke-width:0.5;" width="144.0439" x="485.8208" y="307.2031"/><text fill="#000000" font-family="sans-serif" font-size="12" lengthAdjust="spacing" textLength="124.0439" x="495.8208" y="328.3418">&#20174;&#20869;&#23384;/&#23492;&#23384;&#22120;&#35835;&#21462;&#25968;&#25454;</text><rect fill="#F1F1F1" height="33.9688" rx="12.5" ry="12.5" style="stroke:#181818;stroke-width:0.5;" width="91.6781" x="649.8647" y="307.2031"/><text fill="#000000" font-family="sans-serif" font-size="12" lengthAdjust="spacing" textLength="71.6781" x="659.8647" y="328.3418">ALU&#25191;&#34892;&#36816;&#31639;</text><polygon fill="#F1F1F1" points="626.7733,347.1719,638.7733,359.1719,626.7733,371.1719,614.7733,359.1719,626.7733,347.1719" style="stroke:#181818;stroke-width:0.5;"/><rect fill="#F1F1F1" height="33.9688" rx="12.5" ry="12.5" style="stroke:#181818;stroke-width:0.5;" width="165.9048" x="751.5428" y="236.2344"/><text fill="#000000" font-family="sans-serif" font-size="12" font-weight="bold" lengthAdjust="spacing" textLength="145.9048" x="761.5428" y="257.373">&#20889;&#22238;&#38454;&#27573;&#65288;Write-back&#65289;</text><rect fill="#F1F1F1" height="33.9688" rx="12.5" ry="12.5" style="stroke:#181818;stroke-width:0.5;" width="152.001" x="758.4947" y="305.2031"/><text fill="#000000" font-family="sans-serif" font-size="12" lengthAdjust="spacing" textLength="132.001" x="768.4947" y="326.3418">&#23558;&#32467;&#26524;&#20889;&#20837;&#23492;&#23384;&#22120;&#25110;&#20869;&#23384;</text><rect fill="#555555" height="6" rx="2.5" ry="2.5" style="stroke:#555555;stroke-width:1;" width="918.4477" x="11" y="428.1406"/><polygon fill="#F1F1F1" points="444.8048,454.1406,505.6428,454.1406,517.6428,466.1406,505.6428,478.1406,444.8048,478.1406,432.8048,466.1406,444.8048,454.1406" style="stroke:#181818;stroke-width:0.5;"/><text fill="#000000" font-family="sans-serif" font-size="11" lengthAdjust="spacing" textLength="60.838" x="444.8048" y="469.9487">&#26377;&#20013;&#26029;&#35831;&#27714;?</text><text fill="#000000" font-family="sans-serif" font-size="11" lengthAdjust="spacing" textLength="10.9999" x="421.8049" y="463.5464">&#26159;</text><text fill="#000000" font-family="sans-serif" font-size="11" lengthAdjust="spacing" textLength="10.9999" x="517.6428" y="463.5464">&#21542;</text><rect fill="#F1F1F1" height="33.9688" rx="12.5" ry="12.5" style="stroke:#181818;stroke-width:0.5;" width="68.0004" x="365.5036" y="488.1406"/><text fill="#000000" font-family="sans-serif" font-size="12" font-weight="bold" lengthAdjust="spacing" textLength="48.0004" x="375.5036" y="509.2793">&#20013;&#26029;&#22788;&#29702;</text><rect fill="#F1F1F1" height="33.9688" rx="12.5" ry="12.5" style="stroke:#181818;stroke-width:0.5;" width="158.8797" x="320.0639" y="542.1094"/><text fill="#000000" font-family="sans-serif" font-size="12" lengthAdjust="spacing" textLength="138.8797" x="330.0639" y="563.248">1. &#20445;&#23384;&#24403;&#21069;PC&#21644;&#29366;&#24577;&#21040;&#26632;</text><rect fill="#F1F1F1" height="33.9688" rx="12.5" ry="12.5" style="stroke:#181818;stroke-width:0.5;" width="143.2645" x="327.8715" y="596.0781"/><text fill="#000000" font-family="sans-serif" font-size="12" lengthAdjust="spacing" textLength="123.2645" x="337.8715" y="617.2168">2. &#36339;&#36716;&#21040;&#20013;&#26029;&#22788;&#29702;&#31243;&#24207;</text><rect fill="#F1F1F1" height="33.9688" rx="12.5" ry="12.5" style="stroke:#181818;stroke-width:0.5;" width="155.2646" x="321.8714" y="650.0469"/><text fill="#000000" font-family="sans-serif" font-size="12" lengthAdjust="spacing" textLength="135.2646" x="331.8714" y="671.1855">3. &#22788;&#29702;&#23436;&#25104;&#21518;&#24674;&#22797;&#19978;&#19979;&#25991;</text><rect fill="#F1F1F1" height="33.9688" rx="12.5" ry="12.5" style="stroke:#181818;stroke-width:0.5;" width="104.0006" x="498.9436" y="488.1406"/><text fill="#000000" font-family="sans-serif" font-size="12" lengthAdjust="spacing" textLength="84.0006" x="508.9436" y="509.2793">&#32487;&#32493;&#19979;&#19968;&#26465;&#25351;&#20196;</text><polygon fill="#F1F1F1" points="475.2238,690.0156,487.2238,702.0156,475.2238,714.0156,463.2238,702.0156,475.2238,690.0156" style="stroke:#181818;stroke-width:0.5;"/><ellipse cx="475.2238" cy="745.0156" fill="#FFFFFF" fill-opacity="0.00000" rx="11" ry="11" style="stroke:#222222;stroke-width:1;"/><ellipse cx="475.2238" cy="745.0156" fill="#222222" rx="6" ry="6" style="stroke:#222222;stroke-width:1;"/><line style="stroke:#181818;stroke-width:1;" x1="475.2238" x2="475.2238" y1="67.2969" y2="87.2969"/><polygon fill="#181818" points="471.2238,77.2969,475.2238,87.2969,479.2238,77.2969,475.2238,81.2969" style="stroke:#181818;stroke-width:1;"/><line style="stroke:#181818;stroke-width:1;" x1="130.571" x2="130.571" y1="201.2344" y2="236.2344"/><polygon fill="#181818" points="126.571,226.2344,130.571,236.2344,134.571,226.2344,130.571,230.2344" style="stroke:#181818;stroke-width:1;"/><line style="stroke:#181818;stroke-width:1;" x1="130.571" x2="130.571" y1="270.2031" y2="305.2031"/><polygon fill="#181818" points="126.571,295.2031,130.571,305.2031,134.571,295.2031,130.571,299.2031" style="stroke:#181818;stroke-width:1;"/><line style="stroke:#181818;stroke-width:1;" x1="130.571" x2="130.571" y1="339.1719" y2="374.1719"/><polygon fill="#181818" points="126.571,364.1719,130.571,374.1719,134.571,364.1719,130.571,368.1719" style="stroke:#181818;stroke-width:1;"/><line style="stroke:#181818;stroke-width:1;" x1="347.9814" x2="347.9814" y1="235.7188" y2="270.7188"/><polygon fill="#181818" points="343.9814,260.7188,347.9814,270.7188,351.9814,260.7188,347.9814,264.7188" style="stroke:#181818;stroke-width:1;"/><line style="stroke:#181818;stroke-width:1;" x1="347.9814" x2="347.9814" y1="304.6875" y2="339.6875"/><polygon fill="#181818" points="343.9814,329.6875,347.9814,339.6875,351.9814,329.6875,347.9814,333.6875" style="stroke:#181818;stroke-width:1;"/><line style="stroke:#181818;stroke-width:1;" x1="584.3543" x2="557.8428" y1="285.2031" y2="285.2031"/><line style="stroke:#181818;stroke-width:1;" x1="557.8428" x2="557.8428" y1="285.2031" y2="307.2031"/><polygon fill="#181818" points="553.8428,297.2031,557.8428,307.2031,561.8428,297.2031,557.8428,301.2031" style="stroke:#181818;stroke-width:1;"/><line style="stroke:#181818;stroke-width:1;" x1="669.1923" x2="695.7038" y1="285.2031" y2="285.2031"/><line style="stroke:#181818;stroke-width:1;" x1="695.7038" x2="695.7038" y1="285.2031" y2="307.2031"/><polygon fill="#181818" points="691.7038,297.2031,695.7038,307.2031,699.7038,297.2031,695.7038,301.2031" style="stroke:#181818;stroke-width:1;"/><line style="stroke:#181818;stroke-width:1;" x1="557.8428" x2="557.8428" y1="341.1719" y2="359.1719"/><line style="stroke:#181818;stroke-width:1;" x1="557.8428" x2="614.7733" y1="359.1719" y2="359.1719"/><polygon fill="#181818" points="604.7733,355.1719,614.7733,359.1719,604.7733,363.1719,608.7733,359.1719" style="stroke:#181818;stroke-width:1;"/><line style="stroke:#181818;stroke-width:1;" x1="695.7038" x2="695.7038" y1="341.1719" y2="359.1719"/><line style="stroke:#181818;stroke-width:1;" x1="695.7038" x2="638.7733" y1="359.1719" y2="359.1719"/><polygon fill="#181818" points="648.7733,355.1719,638.7733,359.1719,648.7733,363.1719,644.7733,359.1719" style="stroke:#181818;stroke-width:1;"/><line style="stroke:#181818;stroke-width:1;" x1="626.7733" x2="626.7733" y1="238.2031" y2="273.2031"/><polygon fill="#181818" points="622.7733,263.2031,626.7733,273.2031,630.7733,263.2031,626.7733,267.2031" style="stroke:#181818;stroke-width:1;"/><line style="stroke:#181818;stroke-width:1;" x1="834.4952" x2="834.4952" y1="270.2031" y2="305.2031"/><polygon fill="#181818" points="830.4952,295.2031,834.4952,305.2031,838.4952,295.2031,834.4952,299.2031" style="stroke:#181818;stroke-width:1;"/><line style="stroke:#181818;stroke-width:1;" x1="130.571" x2="130.571" y1="147.2656" y2="167.2656"/><polygon fill="#181818" points="126.571,157.2656,130.571,167.2656,134.571,157.2656,130.571,161.2656" style="stroke:#181818;stroke-width:1;"/><line style="stroke:#181818;stroke-width:1;" x1="347.9814" x2="347.9814" y1="147.2656" y2="201.75"/><polygon fill="#181818" points="343.9814,191.75,347.9814,201.75,351.9814,191.75,347.9814,195.75" style="stroke:#181818;stroke-width:1;"/><line style="stroke:#181818;stroke-width:1;" x1="626.7733" x2="626.7733" y1="147.2656" y2="204.2344"/><polygon fill="#181818" points="622.7733,194.2344,626.7733,204.2344,630.7733,194.2344,626.7733,198.2344" style="stroke:#181818;stroke-width:1;"/><line style="stroke:#181818;stroke-width:1;" x1="834.4952" x2="834.4952" y1="147.2656" y2="236.2344"/><polygon fill="#181818" points="830.4952,226.2344,834.4952,236.2344,838.4952,226.2344,834.4952,230.2344" style="stroke:#181818;stroke-width:1;"/><line style="stroke:#181818;stroke-width:1;" x1="130.571" x2="130.571" y1="408.1406" y2="428.1406"/><polygon fill="#181818" points="126.571,418.1406,130.571,428.1406,134.571,418.1406,130.571,422.1406" style="stroke:#181818;stroke-width:1;"/><line style="stroke:#181818;stroke-width:1;" x1="347.9814" x2="347.9814" y1="373.6563" y2="428.1406"/><polygon fill="#181818" points="343.9814,418.1406,347.9814,428.1406,351.9814,418.1406,347.9814,422.1406" style="stroke:#181818;stroke-width:1;"/><line style="stroke:#181818;stroke-width:1;" x1="626.7733" x2="626.7733" y1="371.1719" y2="428.1406"/><polygon fill="#181818" points="622.7733,418.1406,626.7733,428.1406,630.7733,418.1406,626.7733,422.1406" style="stroke:#181818;stroke-width:1;"/><line style="stroke:#181818;stroke-width:1;" x1="834.4952" x2="834.4952" y1="339.1719" y2="428.1406"/><polygon fill="#181818" points="830.4952,418.1406,834.4952,428.1406,838.4952,418.1406,834.4952,422.1406" style="stroke:#181818;stroke-width:1;"/><line style="stroke:#181818;stroke-width:1;" x1="475.2238" x2="475.2238" y1="121.2656" y2="141.2656"/><polygon fill="#181818" points="471.2238,131.2656,475.2238,141.2656,479.2238,131.2656,475.2238,135.2656" style="stroke:#181818;stroke-width:1;"/><line style="stroke:#181818;stroke-width:1;" x1="399.5037" x2="399.5037" y1="522.1094" y2="542.1094"/><polygon fill="#181818" points="395.5037,532.1094,399.5037,542.1094,403.5037,532.1094,399.5037,536.1094" style="stroke:#181818;stroke-width:1;"/><line style="stroke:#181818;stroke-width:1;" x1="399.5037" x2="399.5037" y1="576.0781" y2="596.0781"/><polygon fill="#181818" points="395.5037,586.0781,399.5037,596.0781,403.5037,586.0781,399.5037,590.0781" style="stroke:#181818;stroke-width:1;"/><line style="stroke:#181818;stroke-width:1;" x1="399.5037" x2="399.5037" y1="630.0469" y2="650.0469"/><polygon fill="#181818" points="395.5037,640.0469,399.5037,650.0469,403.5037,640.0469,399.5037,644.0469" style="stroke:#181818;stroke-width:1;"/><line style="stroke:#181818;stroke-width:1;" x1="432.8048" x2="399.5037" y1="466.1406" y2="466.1406"/><line style="stroke:#181818;stroke-width:1;" x1="399.5037" x2="399.5037" y1="466.1406" y2="488.1406"/><polygon fill="#181818" points="395.5037,478.1406,399.5037,488.1406,403.5037,478.1406,399.5037,482.1406" style="stroke:#181818;stroke-width:1;"/><line style="stroke:#181818;stroke-width:1;" x1="517.6428" x2="550.9439" y1="466.1406" y2="466.1406"/><line style="stroke:#181818;stroke-width:1;" x1="550.9439" x2="550.9439" y1="466.1406" y2="488.1406"/><polygon fill="#181818" points="546.9439,478.1406,550.9439,488.1406,554.9439,478.1406,550.9439,482.1406" style="stroke:#181818;stroke-width:1;"/><line style="stroke:#181818;stroke-width:1;" x1="399.5037" x2="399.5037" y1="684.0156" y2="702.0156"/><line style="stroke:#181818;stroke-width:1;" x1="399.5037" x2="463.2238" y1="702.0156" y2="702.0156"/><polygon fill="#181818" points="453.2238,698.0156,463.2238,702.0156,453.2238,706.0156,457.2238,702.0156" style="stroke:#181818;stroke-width:1;"/><line style="stroke:#181818;stroke-width:1;" x1="550.9439" x2="550.9439" y1="522.1094" y2="702.0156"/><line style="stroke:#181818;stroke-width:1;" x1="550.9439" x2="487.2238" y1="702.0156" y2="702.0156"/><polygon fill="#181818" points="497.2238,698.0156,487.2238,702.0156,497.2238,706.0156,493.2238,702.0156" style="stroke:#181818;stroke-width:1;"/><line style="stroke:#181818;stroke-width:1;" x1="475.2238" x2="475.2238" y1="434.1406" y2="454.1406"/><polygon fill="#181818" points="471.2238,444.1406,475.2238,454.1406,479.2238,444.1406,475.2238,448.1406" style="stroke:#181818;stroke-width:1;"/><line style="stroke:#181818;stroke-width:1;" x1="475.2238" x2="475.2238" y1="714.0156" y2="734.0156"/><polygon fill="#181818" points="471.2238,724.0156,475.2238,734.0156,479.2238,724.0156,475.2238,728.0156" style="stroke:#181818;stroke-width:1;"/><!--SRC=[PLDDRzf04BtxL-mnGMggjZTog2hQIaWze4XHpwvn4WjgHyP8xSsaV9W0mOH0I0eaf3JaKC1HrGJ58FwCPsrE-GiTsnGYUjoTD- -zcNsRY0dYFYkpdyadbeljob9IZ8Qak2GJHMR519PuKM4OHL3YF0b5jcanPvbTgDpGviNZM0kB2KLESeeWYIJqbOlpZ-CymoGKLbQOO2I4QD0hrgXWZLJQwioRcmQqr4rcHv9Z3271G03ATIpD6dTqy0T9t_CAjuT4WS2cMt-nGMRgkJFD-OrKDUs7APGhCpKL2O4w1is0R0Rw3G_zSeFu9sTw0j_RSqdD26yXy_mqJ6CTpcvGm-jvjK4YePbw35TjtnPXTrb1zCqvlH_sPMfXxYtFIL5-wOuUzK2xWr8DCjyGIjjwUCiQzUtpj2_cWUoJ2whfFjIQTg1yZqnmVV3cmpQjbgn9qxureLtm_ApgqtpFwHGN-k- -y5nIMHeGTiZQhAawrocVYTQCr-j4sUD5iaORmtM488rb7lbRURuOtXcQxjvh1YqDN28-dk396kZNynRNcoVjJ7LxSEf1nAYmyvz1o9xXeXS6Fyg2mZzpqxHS4XXPswpITjF5PdukF52j_k_fa9juYM3SYMWpZqkazRuplAUt1wiJeQfVXcxQrhE-YXyLQzfokITLo9Sm7iT5-_2EgYbC0BtKvZ3CY7F_svdymjkdFFPD0HxASn26mh-5GH4V3_GZchg2RiaQ7MAWQJs7df-kB6YRFTlihuJT6moNXdz2slyB]--></g></svg>