<svg xmlns="http://www.w3.org/2000/svg" xmlns:xlink="http://www.w3.org/1999/xlink" contentStyleType="text/css" data-diagram-type="ACTIVITY" height="746px" preserveAspectRatio="none" style="width:551px;height:746px;" version="1.1" viewBox="0 0 551 746" width="551px" zoomAndPan="magnify"><defs/><g><ellipse cx="248.5013" cy="20" fill="#222222" rx="10" ry="10" style="stroke:#222222;stroke-width:1;"/><rect fill="#F1F1F1" height="33.9688" rx="12.5" ry="12.5" style="stroke:#181818;stroke-width:0.5;" width="104.0006" x="196.501" y="50"/><text fill="#000000" font-family="sans-serif" font-size="12" lengthAdjust="spacing" textLength="84.0006" x="206.501" y="71.1387">&#35843;&#35797;&#22120;&#35774;&#32622;&#26029;&#28857;</text><polygon fill="#F1F1F1" points="207.0824,103.9688,289.9202,103.9688,301.9202,115.9688,289.9202,127.9688,207.0824,127.9688,195.0824,115.9688,207.0824,103.9688" style="stroke:#181818;stroke-width:0.5;"/><text fill="#000000" font-family="sans-serif" font-size="11" lengthAdjust="spacing" textLength="82.8378" x="207.0824" y="119.7769">&#31867;&#22411;&#20026;&#36719;&#20214;&#26029;&#28857;?</text><text fill="#000000" font-family="sans-serif" font-size="11" lengthAdjust="spacing" textLength="10.9999" x="184.0825" y="113.3745">&#26159;</text><text fill="#000000" font-family="sans-serif" font-size="11" lengthAdjust="spacing" textLength="43.9997" x="301.9202" y="113.3745">&#30828;&#20214;&#26029;&#28857;</text><rect fill="#F1F1F1" height="33.9688" rx="12.5" ry="12.5" style="stroke:#181818;stroke-width:0.5;" width="190.7899" x="54.7662" y="137.9688"/><text fill="#000000" font-family="sans-serif" font-size="12" lengthAdjust="spacing" textLength="170.7899" x="64.7662" y="159.1074">&#26367;&#25442;&#30446;&#26631;&#25351;&#20196;&#20026; INT3&#65288;0xCC&#65289;</text><rect fill="#F1F1F1" height="33.9688" rx="12.5" ry="12.5" style="stroke:#181818;stroke-width:0.5;" width="162.571" x="265.556" y="137.9688"/><text fill="#000000" font-family="sans-serif" font-size="12" lengthAdjust="spacing" textLength="142.571" x="275.556" y="159.1074">&#37197;&#32622;&#35843;&#35797;&#23492;&#23384;&#22120; DR0-DR3</text><polygon fill="#F1F1F1" points="248.5013,177.9375,260.5013,189.9375,248.5013,201.9375,236.5013,189.9375,248.5013,177.9375" style="stroke:#181818;stroke-width:0.5;"/><rect fill="#F1F1F1" height="33.9688" rx="12.5" ry="12.5" style="stroke:#181818;stroke-width:0.5;" width="128.0008" x="184.5009" y="221.9375"/><text fill="#000000" font-family="sans-serif" font-size="12" lengthAdjust="spacing" textLength="108.0008" x="194.5009" y="243.0762">&#31243;&#24207;&#25191;&#34892;&#21040;&#26029;&#28857;&#20301;&#32622;</text><path d="M336.6296,265.9063 L336.6296,297.1719 L316.6296,301.1719 L336.6296,305.1719 L336.6296,336.4375 A0,0 0 0 0 336.6296,336.4375 L539.2743,336.4375 A0,0 0 0 0 539.2743,336.4375 L539.2743,275.9063 L529.2743,265.9063 L336.6296,265.9063 A0,0 0 0 0 336.6296,265.9063 " fill="#FEFFDD" style="stroke:#181818;stroke-width:0.5;"/><path d="M529.2743,265.9063 L529.2743,275.9063 L539.2743,275.9063 L529.2743,265.9063 " fill="#FEFFDD" style="stroke:#181818;stroke-width:0.5;"/><text fill="#000000" font-family="sans-serif" font-size="13" font-weight="bold" lengthAdjust="spacing" textLength="104.0001" x="342.6296" y="282.9731">&#35302;&#21457;&#30340;&#20013;&#26029;&#31867;&#22411;&#65306;</text><text fill="#000000" font-family="sans-serif" font-size="13" lengthAdjust="spacing" textLength="168.5939" x="342.6296" y="298.106">- &#36719;&#20214;&#26029;&#28857;&#65306;INT3&#65288;&#36719;&#20013;&#26029;&#65289;</text><text fill="#000000" font-family="sans-serif" font-size="13" lengthAdjust="spacing" textLength="181.6447" x="342.6296" y="313.2388">- &#30828;&#20214;&#26029;&#28857;&#65306;&#35843;&#35797;&#24322;&#24120;&#65288;#DB&#65289;</text><text fill="#000000" font-family="sans-serif" font-size="13" lengthAdjust="spacing" textLength="178.0329" x="342.6296" y="328.3716">- &#20869;&#23384;&#26029;&#28857;&#65306;&#32570;&#39029;&#24322;&#24120;&#65288;#PF&#65289;</text><rect fill="#F1F1F1" height="33.9688" rx="12.5" ry="12.5" style="stroke:#181818;stroke-width:0.5;" width="136.2565" x="180.3731" y="284.1875"/><text fill="#000000" font-family="sans-serif" font-size="12" lengthAdjust="spacing" textLength="116.2565" x="190.3731" y="305.3262">CPU &#26816;&#27979;&#21040;&#20013;&#26029;/&#24322;&#24120;</text><rect fill="#F1F1F1" height="33.9688" rx="12.5" ry="12.5" style="stroke:#181818;stroke-width:0.5;" width="204.2141" x="146.3943" y="356.4375"/><text fill="#000000" font-family="sans-serif" font-size="12" lengthAdjust="spacing" textLength="184.2141" x="156.3943" y="377.5762">CPU &#20445;&#23384;&#19978;&#19979;&#25991;&#24182;&#36339;&#36716;&#33267;&#22788;&#29702;&#31243;&#24207;</text><rect fill="#F1F1F1" height="33.9688" rx="12.5" ry="12.5" style="stroke:#181818;stroke-width:0.5;" width="219.3839" x="138.8094" y="410.4063"/><text fill="#000000" font-family="sans-serif" font-size="12" lengthAdjust="spacing" textLength="199.3839" x="148.8094" y="431.5449">&#35843;&#35797;&#22120;&#25429;&#33719;&#20013;&#26029;&#20449;&#21495;&#65288;&#22914; SIGTRAP&#65289;</text><rect fill="#F1F1F1" height="33.9688" rx="12.5" ry="12.5" style="stroke:#181818;stroke-width:0.5;" width="188.0013" x="154.5007" y="464.375"/><text fill="#000000" font-family="sans-serif" font-size="12" lengthAdjust="spacing" textLength="168.0013" x="164.5007" y="485.5137">&#35843;&#35797;&#22120;&#26242;&#20572;&#31243;&#24207;&#65292;&#23637;&#31034;&#35843;&#35797;&#30028;&#38754;</text><polygon fill="#F1F1F1" points="201.5824,518.3438,295.4202,518.3438,307.4202,530.3438,295.4202,542.3438,201.5824,542.3438,189.5824,530.3438,201.5824,518.3438" style="stroke:#181818;stroke-width:0.5;"/><text fill="#000000" font-family="sans-serif" font-size="11" lengthAdjust="spacing" textLength="93.8378" x="201.5824" y="534.1519">&#29992;&#25143;&#36873;&#25321;&#32487;&#32493;&#25191;&#34892;?</text><text fill="#000000" font-family="sans-serif" font-size="11" lengthAdjust="spacing" textLength="10.9999" x="178.5825" y="527.7495">&#26159;</text><text fill="#000000" font-family="sans-serif" font-size="11" lengthAdjust="spacing" textLength="10.9999" x="307.4202" y="527.7495">&#21542;</text><polygon fill="#F1F1F1" points="133.0819,552.3438,182.9199,552.3438,194.9199,564.3438,182.9199,576.3438,133.0819,576.3438,121.0819,564.3438,133.0819,552.3438" style="stroke:#181818;stroke-width:0.5;"/><text fill="#000000" font-family="sans-serif" font-size="11" lengthAdjust="spacing" textLength="49.8381" x="133.0819" y="568.1519">&#36719;&#20214;&#26029;&#28857;?</text><text fill="#000000" font-family="sans-serif" font-size="11" lengthAdjust="spacing" textLength="10.9999" x="110.0819" y="561.7495">&#26159;</text><text fill="#000000" font-family="sans-serif" font-size="11" lengthAdjust="spacing" textLength="69.7056" x="194.9199" y="561.7495">&#30828;&#20214;/&#20869;&#23384;&#26029;&#28857;</text><rect fill="#F1F1F1" height="33.9688" rx="12.5" ry="12.5" style="stroke:#181818;stroke-width:0.5;" width="80.0005" x="47.0003" y="586.3438"/><text fill="#000000" font-family="sans-serif" font-size="12" lengthAdjust="spacing" textLength="60.0005" x="57.0003" y="607.4824">&#24674;&#22797;&#21407;&#25351;&#20196;</text><rect fill="#F1F1F1" height="33.9688" rx="12.5" ry="12.5" style="stroke:#181818;stroke-width:0.5;" width="152.001" x="11" y="640.3125"/><text fill="#000000" font-family="sans-serif" font-size="12" lengthAdjust="spacing" textLength="132.001" x="21" y="661.4512">&#21333;&#27493;&#25191;&#34892;&#21518;&#37325;&#26032;&#25554;&#20837;&#26029;&#28857;</text><rect fill="#F1F1F1" height="33.9688" rx="12.5" ry="12.5" style="stroke:#181818;stroke-width:0.5;" width="92.0005" x="183.001" y="586.3438"/><text fill="#000000" font-family="sans-serif" font-size="12" lengthAdjust="spacing" textLength="72.0005" x="193.001" y="607.4824">&#30452;&#25509;&#24674;&#22797;&#25191;&#34892;</text><polygon fill="#F1F1F1" points="158.0009,680.2813,170.0009,692.2813,158.0009,704.2813,146.0009,692.2813,158.0009,680.2813" style="stroke:#181818;stroke-width:0.5;"/><rect fill="#F1F1F1" height="33.9688" rx="12.5" ry="12.5" style="stroke:#181818;stroke-width:0.5;" width="68.0004" x="305.0016" y="552.3438"/><text fill="#000000" font-family="sans-serif" font-size="12" lengthAdjust="spacing" textLength="48.0004" x="315.0016" y="573.4824">&#32456;&#27490;&#31243;&#24207;</text><polygon fill="#F1F1F1" points="248.5013,710.2813,260.5013,722.2813,248.5013,734.2813,236.5013,722.2813,248.5013,710.2813" style="stroke:#181818;stroke-width:0.5;"/><line style="stroke:#181818;stroke-width:1;" x1="248.5013" x2="248.5013" y1="30" y2="50"/><polygon fill="#181818" points="244.5013,40,248.5013,50,252.5013,40,248.5013,44" style="stroke:#181818;stroke-width:1;"/><line style="stroke:#181818;stroke-width:1;" x1="195.0824" x2="150.1611" y1="115.9688" y2="115.9688"/><line style="stroke:#181818;stroke-width:1;" x1="150.1611" x2="150.1611" y1="115.9688" y2="137.9688"/><polygon fill="#181818" points="146.1611,127.9688,150.1611,137.9688,154.1611,127.9688,150.1611,131.9688" style="stroke:#181818;stroke-width:1;"/><line style="stroke:#181818;stroke-width:1;" x1="301.9202" x2="346.8415" y1="115.9688" y2="115.9688"/><line style="stroke:#181818;stroke-width:1;" x1="346.8415" x2="346.8415" y1="115.9688" y2="137.9688"/><polygon fill="#181818" points="342.8415,127.9688,346.8415,137.9688,350.8415,127.9688,346.8415,131.9688" style="stroke:#181818;stroke-width:1;"/><line style="stroke:#181818;stroke-width:1;" x1="150.1611" x2="150.1611" y1="171.9375" y2="189.9375"/><line style="stroke:#181818;stroke-width:1;" x1="150.1611" x2="236.5013" y1="189.9375" y2="189.9375"/><polygon fill="#181818" points="226.5013,185.9375,236.5013,189.9375,226.5013,193.9375,230.5013,189.9375" style="stroke:#181818;stroke-width:1;"/><line style="stroke:#181818;stroke-width:1;" x1="346.8415" x2="346.8415" y1="171.9375" y2="189.9375"/><line style="stroke:#181818;stroke-width:1;" x1="346.8415" x2="260.5013" y1="189.9375" y2="189.9375"/><polygon fill="#181818" points="270.5013,185.9375,260.5013,189.9375,270.5013,193.9375,266.5013,189.9375" style="stroke:#181818;stroke-width:1;"/><line style="stroke:#181818;stroke-width:1;" x1="248.5013" x2="248.5013" y1="83.9688" y2="103.9688"/><polygon fill="#181818" points="244.5013,93.9688,248.5013,103.9688,252.5013,93.9688,248.5013,97.9688" style="stroke:#181818;stroke-width:1;"/><line style="stroke:#181818;stroke-width:1;" x1="248.5013" x2="248.5013" y1="201.9375" y2="221.9375"/><polygon fill="#181818" points="244.5013,211.9375,248.5013,221.9375,252.5013,211.9375,248.5013,215.9375" style="stroke:#181818;stroke-width:1;"/><line style="stroke:#181818;stroke-width:1;" x1="248.5013" x2="248.5013" y1="255.9063" y2="284.1875"/><polygon fill="#181818" points="244.5013,274.1875,248.5013,284.1875,252.5013,274.1875,248.5013,278.1875" style="stroke:#181818;stroke-width:1;"/><line style="stroke:#181818;stroke-width:1;" x1="248.5013" x2="248.5013" y1="318.1563" y2="356.4375"/><polygon fill="#181818" points="244.5013,346.4375,248.5013,356.4375,252.5013,346.4375,248.5013,350.4375" style="stroke:#181818;stroke-width:1;"/><line style="stroke:#181818;stroke-width:1;" x1="248.5013" x2="248.5013" y1="390.4063" y2="410.4063"/><polygon fill="#181818" points="244.5013,400.4063,248.5013,410.4063,252.5013,400.4063,248.5013,404.4063" style="stroke:#181818;stroke-width:1;"/><line style="stroke:#181818;stroke-width:1;" x1="248.5013" x2="248.5013" y1="444.375" y2="464.375"/><polygon fill="#181818" points="244.5013,454.375,248.5013,464.375,252.5013,454.375,248.5013,458.375" style="stroke:#181818;stroke-width:1;"/><line style="stroke:#181818;stroke-width:1;" x1="87.0005" x2="87.0005" y1="620.3125" y2="640.3125"/><polygon fill="#181818" points="83.0005,630.3125,87.0005,640.3125,91.0005,630.3125,87.0005,634.3125" style="stroke:#181818;stroke-width:1;"/><line style="stroke:#181818;stroke-width:1;" x1="121.0819" x2="87.0005" y1="564.3438" y2="564.3438"/><line style="stroke:#181818;stroke-width:1;" x1="87.0005" x2="87.0005" y1="564.3438" y2="586.3438"/><polygon fill="#181818" points="83.0005,576.3438,87.0005,586.3438,91.0005,576.3438,87.0005,580.3438" style="stroke:#181818;stroke-width:1;"/><line style="stroke:#181818;stroke-width:1;" x1="194.9199" x2="229.0013" y1="564.3438" y2="564.3438"/><line style="stroke:#181818;stroke-width:1;" x1="229.0013" x2="229.0013" y1="564.3438" y2="586.3438"/><polygon fill="#181818" points="225.0013,576.3438,229.0013,586.3438,233.0013,576.3438,229.0013,580.3438" style="stroke:#181818;stroke-width:1;"/><line style="stroke:#181818;stroke-width:1;" x1="87.0005" x2="87.0005" y1="674.2813" y2="692.2813"/><line style="stroke:#181818;stroke-width:1;" x1="87.0005" x2="146.0009" y1="692.2813" y2="692.2813"/><polygon fill="#181818" points="136.0009,688.2813,146.0009,692.2813,136.0009,696.2813,140.0009,692.2813" style="stroke:#181818;stroke-width:1;"/><line style="stroke:#181818;stroke-width:1;" x1="229.0013" x2="229.0013" y1="620.3125" y2="692.2813"/><line style="stroke:#181818;stroke-width:1;" x1="229.0013" x2="170.0009" y1="692.2813" y2="692.2813"/><polygon fill="#181818" points="180.0009,688.2813,170.0009,692.2813,180.0009,696.2813,176.0009,692.2813" style="stroke:#181818;stroke-width:1;"/><line style="stroke:#181818;stroke-width:1;" x1="189.5824" x2="158.0009" y1="530.3438" y2="530.3438"/><line style="stroke:#181818;stroke-width:1;" x1="158.0009" x2="158.0009" y1="530.3438" y2="552.3438"/><polygon fill="#181818" points="154.0009,542.3438,158.0009,552.3438,162.0009,542.3438,158.0009,546.3438" style="stroke:#181818;stroke-width:1;"/><line style="stroke:#181818;stroke-width:1;" x1="307.4202" x2="339.0017" y1="530.3438" y2="530.3438"/><line style="stroke:#181818;stroke-width:1;" x1="339.0017" x2="339.0017" y1="530.3438" y2="552.3438"/><polygon fill="#181818" points="335.0017,542.3438,339.0017,552.3438,343.0017,542.3438,339.0017,546.3438" style="stroke:#181818;stroke-width:1;"/><line style="stroke:#181818;stroke-width:1;" x1="158.0009" x2="158.0009" y1="704.2813" y2="722.2813"/><line style="stroke:#181818;stroke-width:1;" x1="158.0009" x2="236.5013" y1="722.2813" y2="722.2813"/><polygon fill="#181818" points="226.5013,718.2813,236.5013,722.2813,226.5013,726.2813,230.5013,722.2813" style="stroke:#181818;stroke-width:1;"/><line style="stroke:#181818;stroke-width:1;" x1="339.0017" x2="339.0017" y1="586.3125" y2="722.2813"/><line style="stroke:#181818;stroke-width:1;" x1="339.0017" x2="260.5013" y1="722.2813" y2="722.2813"/><polygon fill="#181818" points="270.5013,718.2813,260.5013,722.2813,270.5013,726.2813,266.5013,722.2813" style="stroke:#181818;stroke-width:1;"/><line style="stroke:#181818;stroke-width:1;" x1="248.5013" x2="248.5013" y1="498.3438" y2="518.3438"/><polygon fill="#181818" points="244.5013,508.3438,248.5013,518.3438,252.5013,508.3438,248.5013,512.3438" style="stroke:#181818;stroke-width:1;"/><!--SRC=[VL9DRzD04BtlhrY9InkfQgNUuWE2HA1UK1JA3p3KRQCM1pb6ujY6f4vmdAG8HoMXG4A-aEeaLMdZnWxvCzvT-vI_mDhh5ei3rvdttioRURc3ZFY6b_ZNy2N_wc1FohuLTnBPmwm4POaNSxGbY380EPcNP11t9-_TiOu-3ztHRp8VuOP1yhSSoEp25N9feQ-gOyxS-TYnRbZhuIgKzmKHhk2pyIg0C8vR2wnrI6k4lokueZXMbpBWrhFjpQLTsdYNI2pjCWU4mvn05TiNzq81sIjgT6YumxY0Z3Ew2KocDzQIwKtA4dSokm34oL15inek3zns1PKcJC2P-rmEn1Ef5n3_ECBNAkqvfa7RwyZE8zFaW9YL1IXbzlPb48kvWpwgdP9cWO6OlwNTZCN06eoQfBNGW5yDmDG51KKDK52uU32BWXya7pCOEYbIA_SmOi-yzlLVMEg93wFceByUO0wSnJdbEEO7nrHnGq6tD-xqofrVkCeLwXP8_OGTWOky36kwMvso_Pn56zMcL1try_3vrjFjzADKSFa8l9b7nr-OpDAke4kTT6UiI_IATzxX0Flxfo4kJRsZCbP_4cj0B8DT_j_N-zZ_HSCFnt47TJLK_SQImR4gqdHizC9trgkUek761DS-ecBlBdyGHXEp7ZreA4rQlt2rnmOmgO0L98PnKRqVX8nO9MnqxiuN8Fu0]--></g></svg>