<?xml version="1.0" standalone="no"?><!DOCTYPE svg PUBLIC "-//W3C//DTD SVG 1.1//EN" "http://www.w3.org/Graphics/SVG/1.1/DTD/svg11.dtd"><svg xmlns="http://www.w3.org/2000/svg" viewBox="0 0 650 400" version="1.1"><clipPath id="box"><rect x="0" y="0" width="650" height="400" style="fill:none;stroke:none;" /></clipPath><g clip-path="url(#box)"><rect x="0.00" y="0.00" width="650.00" height="400.00" style="fill:#FFFFFF;stroke:none;" /><path d="M0.00 380.00 L650.00 380.00 M0.00 327.00 L650.00 327.00 M0.00 275.00 L650.00 275.00 M0.00 223.00 L650.00 223.00 M0.00 170.00 L650.00 170.00 M0.00 118.00 L650.00 118.00 M0.00 65.00 L650.00 65.00 M0.00 13.00 L650.00 13.00 M44.00 0.00 L44.00 400.00 M97.00 0.00 L97.00 400.00 M149.00 0.00 L149.00 400.00 M201.00 0.00 L201.00 400.00 M254.00 0.00 L254.00 400.00 M306.00 0.00 L306.00 400.00 M359.00 0.00 L359.00 400.00 M411.00 0.00 L411.00 400.00 M464.00 0.00 L464.00 400.00 M516.00 0.00 L516.00 400.00 M568.00 0.00 L568.00 400.00 M621.00 0.00 L621.00 400.00 " style="fill:none;stroke:#D0D0D0;stroke-width:1;" /><path d="M201.95 0.00 L201.95 400.00 " style="fill:none;stroke:#000000;stroke-width:1;" /><path d="M195.45 432.85 L208.45 432.85 M195.45 380.42 L208.45 380.42 M195.45 327.99 L208.45 327.99 M195.45 275.56 L208.45 275.56 M195.45 223.13 L208.45 223.13 M195.45 170.70 L208.45 170.70 M195.45 118.27 L208.45 118.27 M195.45 65.85 L208.45 65.85 M195.45 13.42 L208.45 13.42 " style="fill:none;stroke:#000000;stroke-width:1;" /><path d="M0.00 170.70 L650.00 170.70 " style="fill:none;stroke:#000000;stroke-width:1;" /><path d="M-7.76 164.20 L-7.76 177.20 M44.67 164.20 L44.67 177.20 M97.10 164.20 L97.10 177.20 M149.52 164.20 L149.52 177.20 M201.95 164.20 L201.95 177.20 M254.38 164.20 L254.38 177.20 M306.81 164.20 L306.81 177.20 M359.24 164.20 L359.24 177.20 M411.67 164.20 L411.67 177.20 M464.10 164.20 L464.10 177.20 M516.53 164.20 L516.53 177.20 M568.95 164.20 L568.95 177.20 M621.38 164.20 L621.38 177.20 " style="fill:none;stroke:#000000;stroke-width:1;" /><text x="210.07812499999994" y="382.9183250000007" text-anchor="start" style="font:10px Droid Sans,Trebuchet MS,Arial,Helvetica,sans-serif;stroke:none;fill:#000000">-20</text><text x="210.07812499999994" y="330.4895250000005" text-anchor="start" style="font:10px Droid Sans,Trebuchet MS,Arial,Helvetica,sans-serif;stroke:none;fill:#000000">-15</text><text x="210.07812499999994" y="278.0607250000004" text-anchor="start" style="font:10px Droid Sans,Trebuchet MS,Arial,Helvetica,sans-serif;stroke:none;fill:#000000">-10</text><text x="210.07812499999994" y="225.63192500000017" text-anchor="start" style="font:10px Droid Sans,Trebuchet MS,Arial,Helvetica,sans-serif;stroke:none;fill:#000000">-5</text><text x="210.07812499999994" y="173.20312499999994" text-anchor="start" style="font:10px Droid Sans,Trebuchet MS,Arial,Helvetica,sans-serif;stroke:none;fill:#000000">0</text><text x="210.07812499999994" y="120.77432499999976" text-anchor="start" style="font:10px Droid Sans,Trebuchet MS,Arial,Helvetica,sans-serif;stroke:none;fill:#000000">5</text><text x="210.07812499999994" y="68.34552499999957" text-anchor="start" style="font:10px Droid Sans,Trebuchet MS,Arial,Helvetica,sans-serif;stroke:none;fill:#000000">10</text><text x="210.07812499999994" y="15.91672499999938" text-anchor="start" style="font:10px Droid Sans,Trebuchet MS,Arial,Helvetica,sans-serif;stroke:none;fill:#000000">15</text><text x="44.66672499999935" y="186.82812499999994" text-anchor="middle" style="font:10px Droid Sans,Trebuchet MS,Arial,Helvetica,sans-serif;stroke:none;fill:#000000">-15</text><text x="97.09552499999955" y="186.82812499999994" text-anchor="middle" style="font:10px Droid Sans,Trebuchet MS,Arial,Helvetica,sans-serif;stroke:none;fill:#000000">-10</text><text x="149.52432499999975" y="186.82812499999994" text-anchor="middle" style="font:10px Droid Sans,Trebuchet MS,Arial,Helvetica,sans-serif;stroke:none;fill:#000000">-5</text><text x="201.95312499999994" y="186.82812499999994" text-anchor="middle" style="font:10px Droid Sans,Trebuchet MS,Arial,Helvetica,sans-serif;stroke:none;fill:#000000">0</text><text x="254.38192500000017" y="186.82812499999994" text-anchor="middle" style="font:10px Droid Sans,Trebuchet MS,Arial,Helvetica,sans-serif;stroke:none;fill:#000000">5</text><text x="306.8107250000004" y="186.82812499999994" text-anchor="middle" style="font:10px Droid Sans,Trebuchet MS,Arial,Helvetica,sans-serif;stroke:none;fill:#000000">10</text><text x="359.2395250000005" y="186.82812499999994" text-anchor="middle" style="font:10px Droid Sans,Trebuchet MS,Arial,Helvetica,sans-serif;stroke:none;fill:#000000">15</text><text x="411.6683250000008" y="186.82812499999994" text-anchor="middle" style="font:10px Droid Sans,Trebuchet MS,Arial,Helvetica,sans-serif;stroke:none;fill:#000000">20</text><text x="464.09712500000103" y="186.82812499999994" text-anchor="middle" style="font:10px Droid Sans,Trebuchet MS,Arial,Helvetica,sans-serif;stroke:none;fill:#000000">25</text><text x="516.5259250000013" y="186.82812499999994" text-anchor="middle" style="font:10px Droid Sans,Trebuchet MS,Arial,Helvetica,sans-serif;stroke:none;fill:#000000">30</text><text x="568.9547250000014" y="186.82812499999994" text-anchor="middle" style="font:10px Droid Sans,Trebuchet MS,Arial,Helvetica,sans-serif;stroke:none;fill:#000000">35</text><text x="621.3835250000016" y="186.82812499999994" text-anchor="middle" style="font:10px Droid Sans,Trebuchet MS,Arial,Helvetica,sans-serif;stroke:none;fill:#000000">40</text><path d="M201.95 118.27 L201.95 118.27 L201.95 118.25 L201.95 118.19 L201.96 118.08 L201.96 117.93 L201.97 117.74 L201.99 117.50 L202.01 117.23 L202.04 116.91 L202.07 116.55 L202.12 116.15 L202.18 115.70 L202.24 115.22 L202.32 114.70 L202.41 114.14 L202.51 113.54 L202.63 112.91 L202.77 112.24 L202.92 111.53 L203.08 110.79 L203.27 110.01 L203.47 109.20 L203.70 108.36 L203.94 107.48 L204.21 106.58 L204.49 105.65 L204.80 104.69 L205.14 103.70 L205.49 102.68 L205.88 101.65 L206.28 100.58 L206.72 99.50 L207.18 98.40 L207.66 97.27 L208.18 96.13 L208.72 94.97 L209.29 93.79 L209.89 92.61 L210.51 91.40 L211.17 90.19 L211.86 88.97 L212.58 87.74 L213.33 86.50 L214.11 85.26 L214.92 84.01 L215.76 82.76 L216.63 81.51 L217.54 80.26 L218.47 79.01 L219.44 77.76 L220.44 76.52 L221.47 75.29 L222.53 74.06 L223.63 72.84 L224.75 71.64 L225.91 70.44 L227.10 69.26 L228.32 68.09 L229.57 66.94 L230.85 65.81 L232.16 64.70 L233.49 63.61 L234.86 62.53 L236.26 61.49 L237.69 60.46 L239.14 59.46 L240.62 58.49 L242.13 57.54 L243.66 56.63 L245.22 55.74 L246.81 54.89 L248.42 54.07 L250.05 53.28 L251.71 52.52 L253.39 51.80 L255.09 51.12 L256.81 50.47 L258.55 49.86 L260.31 49.29 L262.09 48.76 L263.89 48.27 L265.70 47.82 L267.53 47.41 L269.37 47.04 L271.23 46.72 L273.10 46.44 L274.98 46.20 L276.87 46.01 L278.77 45.86 L280.68 45.75 L282.59 45.69 L284.52 45.68 L286.44 45.71 L288.38 45.79 L290.31 45.91 L292.25 46.08 L294.18 46.30 L296.12 46.56 L298.06 46.87 L299.99 47.22 L301.92 47.62 L303.84 48.06 L305.75 48.55 L307.66 49.09 L309.56 49.67 L311.45 50.30 L313.33 50.97 L315.20 51.68 L317.05 52.44 L318.89 53.24 L320.71 54.09 L322.51 54.97 L324.30 55.90 L326.07 56.87 L327.81 57.88 L329.54 58.93 L331.24 60.02 L332.92 61.15 L334.57 62.31 L336.19 63.52 L337.79 64.76 L339.36 66.04 L340.90 67.35 L342.41 68.69 L343.89 70.07 L345.34 71.48 L346.75 72.93 L348.13 74.40 L349.47 75.91 L350.77 77.44 L352.04 79.00 L353.27 80.59 L354.47 82.21 L355.62 83.85 L356.73 85.52 L357.80 87.21 L358.83 88.92 L359.81 90.66 L360.76 92.41 L361.65 94.19 L362.51 95.99 L363.32 97.80 L364.08 99.63 L364.79 101.48 L365.46 103.34 L366.08 105.22 L366.66 107.11 L367.18 109.02 L367.66 110.94 L368.09 112.86 L368.47 114.80 L368.80 116.75 L369.08 118.71 L369.31 120.68 L369.49 122.65 L369.62 124.63 L369.70 126.61 L369.73 128.60 L369.70 130.60 L369.63 132.59 L369.51 134.59 L369.34 136.60 L369.12 138.60 L368.85 140.61 L368.52 142.61 L368.15 144.62 L367.73 146.62 L367.26 148.62 L366.74 150.63 L366.18 152.63 L365.56 154.62 L364.90 156.61 L364.20 158.60 L363.44 160.59 L362.64 162.57 L361.79 164.55 L360.90 166.52 L359.97 168.49 L358.99 170.45 L357.97 172.40 L356.90 174.35 L355.80 176.29 L354.65 178.22 L353.47 180.15 L352.24 182.07 L350.98 183.99 L349.68 185.89 L348.34 187.79 L346.97 189.68 L345.56 191.57 L344.12 193.44 L342.65 195.31 L341.14 197.17 L339.61 199.02 L338.04 200.87 L336.45 202.70 L334.83 204.53 L333.18 206.35 L331.51 208.17 L329.81 209.97 L328.09 211.77 L326.35 213.56 L324.58 215.34 L322.80 217.12 L321.00 218.89 L319.18 220.65 L317.34 222.40 L315.49 224.15 L313.63 225.88 L311.75 227.62 L309.86 229.34 L307.97 231.06 L306.06 232.77 L304.14 234.48 L302.22 236.17 L300.30 237.87 L298.36 239.55 L296.43 241.23 L294.49 242.91 L292.56 244.57 L290.62 246.23 L288.68 247.89 L286.75 249.54 L284.82 251.18 L282.90 252.82 L280.98 254.45 L279.07 256.08 L277.17 257.70 L275.28 259.32 L273.39 260.93 L271.52 262.53 L269.66 264.13 L267.82 265.72 L265.99 267.31 L264.17 268.89 L262.38 270.46 L260.59 272.03 L258.83 273.59 L257.09 275.15 L255.36 276.70 L253.66 278.24 L251.97 279.78 L250.31 281.31 L248.68 282.83 L247.06 284.34 L245.47 285.85 L243.91 287.35 L242.37 288.84 L240.86 290.32 L239.37 291.79 L237.92 293.25 L236.49 294.71 L235.08 296.15 L233.71 297.59 L232.37 299.01 L231.05 300.43 L229.77 301.83 L228.51 303.22 L227.29 304.60 L226.10 305.97 L224.94 307.32 L223.81 308.66 L222.71 309.99 L221.64 311.31 L220.60 312.61 L219.60 313.89 L218.63 315.16 L217.68 316.41 L216.77 317.65 L215.90 318.87 L215.05 320.07 L214.23 321.26 L213.45 322.42 L212.70 323.57 L211.97 324.70 L211.28 325.81 L210.62 326.90 L209.98 327.97 L209.38 329.01 L208.81 330.04 L208.26 331.04 L207.74 332.02 L207.25 332.98 L206.79 333.91 L206.35 334.82 L205.94 335.71 L205.55 336.57 L205.19 337.40 L204.86 338.21 L204.54 338.99 L204.25 339.74 L203.98 340.47 L203.73 341.17 L203.51 341.84 L203.30 342.49 L203.11 343.10 L202.94 343.69 L202.79 344.25 L202.65 344.77 L202.53 345.27 L202.42 345.74 L202.33 346.17 L202.25 346.58 L202.18 346.95 L202.13 347.29 L202.08 347.60 L202.04 347.88 L202.01 348.13 L201.99 348.35 L201.98 348.53 L201.97 348.68 L201.96 348.80 L201.95 348.89 L201.95 348.94 L201.95 348.96 L201.95 348.95 L201.95 348.91 L201.95 348.83 L201.94 348.72 L201.93 348.58 L201.92 348.41 L201.90 348.20 L201.87 347.96 L201.84 347.70 L201.79 347.39 L201.74 347.06 L201.68 346.70 L201.60 346.30 L201.51 345.88 L201.41 345.42 L201.29 344.93 L201.16 344.42 L201.02 343.87 L200.85 343.29 L200.67 342.69 L200.47 342.05 L200.25 341.39 L200.01 340.70 L199.74 339.98 L199.46 339.23 L199.15 338.46 L198.82 337.66 L198.47 336.83 L198.09 335.98 L197.69 335.11 L197.26 334.21 L196.81 333.28 L196.32 332.33 L195.81 331.36 L195.28 330.36 L194.71 329.34 L194.12 328.30 L193.49 327.24 L192.84 326.16 L192.16 325.06 L191.44 323.93 L190.70 322.79 L189.93 321.63 L189.12 320.45 L188.28 319.25 L187.41 318.04 L186.52 316.81 L185.58 315.56 L184.62 314.30 L183.63 313.02 L182.60 311.72 L181.54 310.41 L180.45 309.09 L179.33 307.75 L178.18 306.40 L177.00 305.04 L175.79 303.66 L174.54 302.27 L173.27 300.88 L171.96 299.46 L170.63 298.04 L169.26 296.61 L167.87 295.17 L166.45 293.72 L165.00 292.26 L163.52 290.79 L162.02 289.31 L160.49 287.82 L158.93 286.33 L157.35 284.82 L155.75 283.31 L154.12 281.79 L152.46 280.26 L150.79 278.73 L149.09 277.19 L147.37 275.64 L145.63 274.09 L143.88 272.53 L142.10 270.96 L140.31 269.39 L138.50 267.81 L136.67 266.23 L134.83 264.64 L132.98 263.04 L131.11 261.44 L129.23 259.83 L127.34 258.22 L125.44 256.60 L123.53 254.97 L121.62 253.34 L119.70 251.71 L117.77 250.06 L115.84 248.42 L113.90 246.76 L111.97 245.10 L110.03 243.44 L108.09 241.77 L106.16 240.09 L104.23 238.40 L102.30 236.71 L100.37 235.02 L98.46 233.31 L96.55 231.60 L94.65 229.89 L92.75 228.17 L90.87 226.44 L89.01 224.70 L87.15 222.96 L85.31 221.21 L83.49 219.45 L81.68 217.68 L79.89 215.91 L78.12 214.13 L76.37 212.34 L74.64 210.55 L72.94 208.74 L71.26 206.93 L69.60 205.11 L67.97 203.29 L66.37 201.45 L64.79 199.61 L63.25 197.76 L61.73 195.90 L60.25 194.04 L58.80 192.17 L57.38 190.28 L56.00 188.40 L54.65 186.50 L53.34 184.59 L52.06 182.68 L50.83 180.76 L49.63 178.84 L48.47 176.91 L47.35 174.97 L46.27 173.02 L45.24 171.07 L44.25 169.11 L43.30 167.15 L42.39 165.18 L41.53 163.20 L40.72 161.22 L39.95 159.24 L39.22 157.25 L38.55 155.26 L37.92 153.26 L37.34 151.26 L36.80 149.26 L36.32 147.26 L35.88 145.25 L35.50 143.25 L35.16 141.24 L34.87 139.24 L34.63 137.23 L34.44 135.23 L34.31 133.23 L34.22 131.23 L34.18 129.24 L34.20 127.25 L34.26 125.26 L34.37 123.28 L34.54 121.30 L34.75 119.34 L35.01 117.38 L35.33 115.42 L35.69 113.48 L36.10 111.55 L36.57 109.63 L37.08 107.72 L37.63 105.82 L38.24 103.94 L38.89 102.07 L39.60 100.22 L40.34 98.38 L41.14 96.56 L41.97 94.76 L42.86 92.98 L43.79 91.21 L44.76 89.47 L45.77 87.75 L46.83 86.05 L47.93 84.38 L49.07 82.73 L50.25 81.10 L51.47 79.51 L52.72 77.93 L54.02 76.39 L55.35 74.88 L56.72 73.39 L58.12 71.94 L59.55 70.52 L61.02 69.13 L62.52 67.77 L64.05 66.45 L65.61 65.16 L67.20 63.91 L68.82 62.69 L70.46 61.52 L72.13 60.38 L73.82 59.27 L75.54 58.21 L77.28 57.19 L79.04 56.20 L80.82 55.26 L82.62 54.36 L84.44 53.51 L86.27 52.69 L88.12 51.92 L89.98 51.19 L91.85 50.51 L93.74 49.87 L95.64 49.27 L97.54 48.72 L99.46 48.21 L101.38 47.76 L103.30 47.34 L105.23 46.97 L107.17 46.65 L109.11 46.37 L111.04 46.14 L112.98 45.96 L114.91 45.82 L116.85 45.73 L118.78 45.68 L120.70 45.68 L122.62 45.73 L124.53 45.82 L126.44 45.95 L128.33 46.13 L130.21 46.36 L132.09 46.62 L133.95 46.93 L135.79 47.29 L137.63 47.68 L139.44 48.12 L141.25 48.60 L143.03 49.12 L144.80 49.68 L146.54 50.27 L148.27 50.91 L149.98 51.58 L151.67 52.29 L153.33 53.03 L154.97 53.81 L156.59 54.62 L158.18 55.47 L159.75 56.34 L161.29 57.25 L162.81 58.18 L164.30 59.15 L165.76 60.14 L167.19 61.16 L168.60 62.20 L169.98 63.26 L171.33 64.35 L172.65 65.46 L173.94 66.58 L175.19 67.73 L176.42 68.89 L177.62 70.06 L178.79 71.26 L179.92 72.46 L181.03 73.67 L182.10 74.90 L183.14 76.13 L184.15 77.37 L185.13 78.61 L186.07 79.86 L186.99 81.11 L187.87 82.36 L188.72 83.61 L189.54 84.86 L190.33 86.10 L191.09 87.34 L191.82 88.58 L192.52 89.80 L193.19 91.02 L193.82 92.22 L194.43 93.42 L195.01 94.60 L195.56 95.76 L196.08 96.91 L196.58 98.04 L197.05 99.15 L197.49 100.24 L197.90 101.31 L198.29 102.36 L198.66 103.38 L199.00 104.37 L199.32 105.34 L199.61 106.29 L199.88 107.20 L200.13 108.08 L200.36 108.93 L200.57 109.76 L200.77 110.54 L200.94 111.30 L201.09 112.02 L201.23 112.70 L201.36 113.35 L201.47 113.96 L201.56 114.53 L201.64 115.06 L201.71 115.56 L201.77 116.01 L201.82 116.42 L201.86 116.80 L201.89 117.13 L201.91 117.42 L201.93 117.67 L201.94 117.87 L201.95 118.04 L201.95 118.16 L201.95 118.24 L201.95 118.27 " style="fill:none;stroke:#ff0000;stroke-width:1;" /></g></svg>