<?xml version="1.0" encoding="UTF-8" standalone="no"?><svg xmlns="http://www.w3.org/2000/svg" xmlns:xlink="http://www.w3.org/1999/xlink" contentStyleType="text/css" height="831.25px" preserveAspectRatio="none" style="width:418px;height:831px;background:#00000000;" version="1.1" viewBox="0 0 418 831" width="418.75px" zoomAndPan="magnify"><defs/><g><polygon fill="#4D4D4D" points="322.9167,147.29,322.9167,147.363,325,147.1462,327.0833,147.3572,329.1667,147.4288,331.25,147.0423,333.3333,147.29,333.2524,147.29,332.8891,157.1708,332.9339,167.0515,333.2623,176.9322,332.6132,186.8129,333.91,196.6936,332.6768,206.5744,333.3333,216.4551,333.3333,216.3864,331.25,216.6051,329.1667,216.4253,327.0833,216.4788,325,216.444,322.9167,216.4551,323.1026,216.4551,323.1658,206.5744,323.5268,196.6936,323.6157,186.8129,323.6242,176.9322,323.1819,167.0515,323.3996,157.1708,322.9167,147.29" style="stroke:#555555;stroke-width:1.0416666666666667;"/><polygon fill="#4D4D4D" points="322.9167,632.5602,322.9167,632.6332,325,632.4164,327.0833,632.6273,329.1667,632.699,331.25,632.3125,333.3333,632.5602,333.2524,632.5602,332.8891,642.4409,332.9339,652.3217,333.2623,662.2024,332.6132,672.0831,333.91,681.9638,332.6768,691.8445,333.3333,701.7253,333.3333,701.6566,331.25,701.8752,329.1667,701.6955,327.0833,701.749,325,701.7142,322.9167,701.7253,323.1026,701.7253,323.1658,691.8445,323.5268,681.9638,323.6157,672.0831,323.6242,662.2024,323.1819,652.3217,323.3996,642.4409,322.9167,632.5602" style="stroke:#555555;stroke-width:1.0416666666666667;"/><path d="M93.75,51.18 L94.0419,51.18 L93.1746,61.6084 L94.0185,72.0368 L94.3051,82.4652 L92.7592,92.8936 L93.6421,103.3221 L93.1576,113.7505 L93.2174,124.1789 L93.6553,134.6073 L92.7898,145.0357 L94.5189,155.4641 L92.8746,165.8925 L93.4753,176.3209 L94.3499,186.7493 L93.6309,197.1777 L93.8448,207.6061 L93.7056,218.0346 L93.998,228.463 L94.0821,238.8914 L94.5635,249.3198 L94.682,259.7482 L94.6934,270.1766 L94.1036,280.605 L94.3939,291.0334 L94.7253,301.4618 L92.7484,311.8902 L94.6924,322.3186 L93.3382,332.747 L94.4914,343.1755 L93.0625,353.6039 L93.6549,364.0323 L94.78,374.4607 L93.6823,384.8891 L93.8963,395.3175 L94.2203,405.7459 L94.3281,416.1743 L93.7446,426.6027 L94.1489,437.0311 L92.955,447.4595 L94.145,457.888 L94.5114,468.3164 L94.3674,478.7448 L94.6014,489.1732 L93.0791,499.6016 L92.8442,510.03 L92.8869,520.4584 L93.6682,530.8868 L93.477,541.3152 L94.6964,551.7436 L93.5074,562.172 L93.2735,572.6004 L94.067,583.0289 L92.8238,593.4573 L93.029,603.8857 L94.6513,614.3141 L94.3551,624.7425 L94.7701,635.1709 L93.3031,645.5993 L94.1933,656.0277 L94.57,666.4561 L93.0939,676.8845 L93.6169,687.3129 L93.925,697.7414 L94.6552,708.1698 L93.7442,718.5982 L94.3925,729.0266 L92.9809,739.455 L92.8094,749.8834 L94.4495,760.3118 L92.7542,770.7402 L93.75,781.1686 " fill="none" style="stroke:#555555;stroke-width:1.0416666666666667;stroke-dasharray:5.0,5.0;"/><path d="M328.125,51.18 L328.4169,51.18 L327.5496,61.6084 L328.3935,72.0368 L328.6801,82.4652 L327.1342,92.8936 L328.0171,103.3221 L327.5326,113.7505 L327.5924,124.1789 L328.0303,134.6073 L327.1648,145.0357 L328.8939,155.4641 L327.2496,165.8925 L327.8503,176.3209 L328.7249,186.7493 L328.0059,197.1777 L328.2198,207.6061 L328.0806,218.0346 L328.373,228.463 L328.4571,238.8914 L328.9385,249.3198 L329.057,259.7482 L329.0684,270.1766 L328.4786,280.605 L328.7689,291.0334 L329.1003,301.4618 L327.1234,311.8902 L329.0674,322.3186 L327.7132,332.747 L328.8664,343.1755 L327.4375,353.6039 L328.0299,364.0323 L329.155,374.4607 L328.0573,384.8891 L328.2713,395.3175 L328.5953,405.7459 L328.7031,416.1743 L328.1196,426.6027 L328.5239,437.0311 L327.33,447.4595 L328.52,457.888 L328.8864,468.3164 L328.7424,478.7448 L328.9764,489.1732 L327.4541,499.6016 L327.2192,510.03 L327.2619,520.4584 L328.0432,530.8868 L327.852,541.3152 L329.0714,551.7436 L327.8824,562.172 L327.6485,572.6004 L328.442,583.0289 L327.1988,593.4573 L327.404,603.8857 L329.0263,614.3141 L328.7301,624.7425 L329.1451,635.1709 L327.6781,645.5993 L328.5683,656.0277 L328.945,666.4561 L327.4689,676.8845 L327.9919,687.3129 L328.3,697.7414 L329.0302,708.1698 L328.1192,718.5982 L328.7675,729.0266 L327.3559,739.455 L327.1844,749.8834 L328.8245,760.3118 L327.1292,770.7402 L328.125,781.1686 " fill="none" style="stroke:#555555;stroke-width:1.0416666666666667;stroke-dasharray:5.0,5.0;"/><polygon fill="none" points="61.4583,10.4167,61.4583,10.6356,72.2222,9.9851,82.9861,10.618,93.75,10.833,104.5139,9.6735,115.2778,10.3357,126.0417,10.4167,125.985,10.2799,126.58,10.5377,127.2111,10.883,127.7176,10.9271,128.4723,11.5706,128.9879,11.6371,128.7858,11.5533,129.1686,12.2,129.6147,12.873,129.6927,13.3934,129.9861,14.0031,130.2083,14.5833,130.1972,14.5833,130.2703,20.861,130.2914,27.1387,130.4117,33.4163,130.4413,39.694,130.2083,45.9717,130.4262,46.0619,130.0459,46.5948,129.8689,47.2118,129.7014,47.8328,129.0007,48.2329,128.9879,48.918,129.0781,49.1356,128.3593,49.0669,127.8804,49.5774,127.1544,49.4914,126.6218,49.8723,126.0417,50.1383,126.0417,50.9109,115.2778,50.0876,104.5139,50.248,93.75,50.4911,82.9861,50.5719,72.2222,50.1343,61.4583,50.1383,61.4965,50.2305,60.793,49.7106,60.3176,49.7414,59.7634,49.582,59.1604,49.3046,58.5121,48.918,58.7087,48.9994,58.113,48.2645,57.8147,47.6528,57.5805,47.0676,57.5169,46.5531,57.2917,45.9717,57.2234,45.9717,57.5283,39.694,57.231,33.4163,57.1726,27.1387,57.3709,20.861,57.2917,14.5833,57.0778,14.4947,57.3692,13.9251,57.988,13.4911,58.1637,12.8735,58.5036,12.3239,58.5121,11.6371,58.4693,11.5338,59.1437,11.4954,59.769,11.3383,60.2171,10.7533,60.8563,10.63,61.4583,10.4167" style="stroke:#333333;stroke-width:1.0416666666666667;"/><text fill="#2E2E2E" font-family="&quot;Segoe Print&quot;" font-size="12.5" lengthAdjust="spacing" textLength="47.9167" x="69.7917" y="35.0016">Browser</text><polygon fill="none" points="61.4583,780.127,61.4583,780.3459,72.2222,779.6954,82.9861,780.3283,93.75,780.5433,104.5139,779.3838,115.2778,780.046,126.0417,780.127,125.985,779.9901,126.58,780.248,127.2111,780.5932,127.7176,780.6374,128.4723,781.2809,128.9879,781.3473,128.7858,781.2636,129.1686,781.9103,129.6147,782.5832,129.6927,783.1037,129.9861,783.7134,130.2083,784.2936,130.1972,784.2936,130.2703,790.5713,130.2914,796.849,130.4117,803.1266,130.4413,809.4043,130.2083,815.682,130.4262,815.7722,130.0459,816.3051,129.8689,816.9221,129.7014,817.543,129.0007,817.9432,128.9879,818.6282,129.0781,818.8459,128.3593,818.7772,127.8804,819.2876,127.1544,819.2017,126.6218,819.5826,126.0417,819.8486,126.0417,820.6211,115.2778,819.7979,104.5139,819.9583,93.75,820.2014,82.9861,820.2822,72.2222,819.8446,61.4583,819.8486,61.4965,819.9408,60.793,819.4209,60.3176,819.4517,59.7634,819.2923,59.1604,819.0149,58.5121,818.6282,58.7087,818.7097,58.113,817.9748,57.8147,817.3631,57.5805,816.7779,57.5169,816.2634,57.2917,815.682,57.2234,815.682,57.5283,809.4043,57.231,803.1266,57.1726,796.849,57.3709,790.5713,57.2917,784.2936,57.0778,784.205,57.3692,783.6354,57.988,783.2013,58.1637,782.5837,58.5036,782.0342,58.5121,781.3473,58.4693,781.2441,59.1437,781.2057,59.769,781.0486,60.2171,780.4636,60.8563,780.3403,61.4583,780.127" style="stroke:#333333;stroke-width:1.0416666666666667;"/><text fill="#2E2E2E" font-family="&quot;Segoe Print&quot;" font-size="12.5" lengthAdjust="spacing" textLength="47.9167" x="69.7917" y="804.7119">Browser</text><polygon fill="none" points="301.0417,10.4167,301.0417,10.6356,311.875,9.9851,322.7083,10.618,333.5417,10.833,344.375,9.6735,355.2083,10.4167,355.198,10.3917,355.7409,10.5239,356.3359,10.7818,356.967,11.127,357.4735,11.1712,358.1546,11.6371,358.3322,11.7106,358.1965,12.1426,358.5793,12.7893,359.0254,13.4622,359.1034,13.9827,359.375,14.5833,359.3987,14.5833,359.3639,20.861,359.437,27.1387,359.458,33.4163,359.5784,39.694,359.375,45.9717,359.5903,46.0608,359.3488,46.6512,358.9685,47.184,358.7915,47.801,358.624,48.422,358.1546,48.918,358.0588,48.6866,357.6555,49.3797,356.9367,49.311,356.4578,49.8214,355.7318,49.7355,355.2083,50.1383,355.2083,50.067,344.375,50.9109,333.5417,50.0876,322.7083,50.248,311.875,50.4911,301.0417,50.1383,301.097,50.2719,300.4519,49.893,299.9013,49.7423,299.1978,49.2225,298.7224,49.2533,298.0954,48.918,298.2712,48.9908,297.9939,48.3878,297.8039,47.8209,297.2082,47.086,296.9099,46.4743,296.875,45.9717,296.6592,45.9717,296.8546,39.694,296.8068,33.4163,297.1116,27.1387,296.8143,20.861,296.875,14.5833,296.765,14.5377,297.1923,14.0244,297.1492,13.3162,297.4407,12.7466,298.0595,12.3125,298.0954,11.6371,298.1533,11.7768,298.7822,11.6286,299.2311,11.0457,299.9056,11.0072,300.5309,10.8501,301.0417,10.4167" style="stroke:#333333;stroke-width:1.0416666666666667;"/><text fill="#2E2E2E" font-family="&quot;Segoe Print&quot;" font-size="12.5" lengthAdjust="spacing" textLength="37.5" x="309.375" y="35.0016">Server</text><polygon fill="none" points="301.0417,780.127,301.0417,780.3459,311.875,779.6954,322.7083,780.3283,333.5417,780.5433,344.375,779.3838,355.2083,780.127,355.198,780.102,355.7409,780.2342,356.3359,780.4921,356.967,780.8373,357.4735,780.8815,358.1546,781.3473,358.3322,781.4209,358.1965,781.8528,358.5793,782.4996,359.0254,783.1725,359.1034,783.693,359.375,784.2936,359.3987,784.2936,359.3639,790.5713,359.437,796.849,359.458,803.1266,359.5784,809.4043,359.375,815.682,359.5903,815.7711,359.3488,816.3615,358.9685,816.8943,358.7915,817.5113,358.624,818.1323,358.1546,818.6282,358.0588,818.3969,357.6555,819.09,356.9367,819.0213,356.4578,819.5317,355.7318,819.4458,355.2083,819.8486,355.2083,819.7773,344.375,820.6211,333.5417,819.7979,322.7083,819.9583,311.875,820.2014,301.0417,819.8486,301.097,819.9822,300.4519,819.6033,299.9013,819.4526,299.1978,818.9328,298.7224,818.9636,298.0954,818.6282,298.2712,818.7011,297.9939,818.0981,297.8039,817.5312,297.2082,816.7963,296.9099,816.1846,296.875,815.682,296.6592,815.682,296.8546,809.4043,296.8068,803.1266,297.1116,796.849,296.8143,790.5713,296.875,784.2936,296.765,784.248,297.1923,783.7347,297.1492,783.0265,297.4407,782.4569,298.0595,782.0228,298.0954,781.3473,298.1533,781.4871,298.7822,781.3389,299.2311,780.756,299.9056,780.7175,300.5309,780.5604,301.0417,780.127" style="stroke:#333333;stroke-width:1.0416666666666667;"/><text fill="#2E2E2E" font-family="&quot;Segoe Print&quot;" font-size="12.5" lengthAdjust="spacing" textLength="37.5" x="309.375" y="804.7119">Server</text><polygon fill="#4D4D4D" points="322.9167,147.29,322.9167,147.363,325,147.1462,327.0833,147.3572,329.1667,147.4288,331.25,147.0423,333.3333,147.29,333.2524,147.29,332.8891,157.1708,332.9339,167.0515,333.2623,176.9322,332.6132,186.8129,333.91,196.6936,332.6768,206.5744,333.3333,216.4551,333.3333,216.3864,331.25,216.6051,329.1667,216.4253,327.0833,216.4788,325,216.444,322.9167,216.4551,323.1026,216.4551,323.1658,206.5744,323.5268,196.6936,323.6157,186.8129,323.6242,176.9322,323.1819,167.0515,323.3996,157.1708,322.9167,147.29" style="stroke:#555555;stroke-width:1.0416666666666667;"/><polygon fill="#4D4D4D" points="322.9167,632.5602,322.9167,632.6332,325,632.4164,327.0833,632.6273,329.1667,632.699,331.25,632.3125,333.3333,632.5602,333.2524,632.5602,332.8891,642.4409,332.9339,652.3217,333.2623,662.2024,332.6132,672.0831,333.91,681.9638,332.6768,691.8445,333.3333,701.7253,333.3333,701.6566,331.25,701.8752,329.1667,701.6955,327.0833,701.749,325,701.7142,322.9167,701.7253,323.1026,701.7253,323.1658,691.8445,323.5268,681.9638,323.6157,672.0831,323.6242,662.2024,323.1819,652.3217,323.3996,642.4409,322.9167,632.5602" style="stroke:#555555;stroke-width:1.0416666666666667;"/><polygon fill="#555555" points="14.5833,87.7075,14.5833,87.9265,25.0563,87.2759,35.5293,87.9089,46.0023,88.1239,56.4752,86.9644,66.9482,87.6266,77.4212,87.2633,87.8941,87.308,98.3671,87.6365,108.8401,86.9873,119.3131,88.2842,129.786,87.051,140.259,87.5015,150.732,88.1575,161.205,87.6182,171.6779,87.7786,182.1509,87.6742,192.6239,87.8935,203.0968,87.9566,213.5698,88.3176,224.0428,88.4065,234.5158,88.4151,244.9887,87.9728,255.4617,88.1904,265.9347,88.439,276.4077,86.9563,286.8806,88.4143,297.3536,87.3987,307.8266,88.2636,318.2995,87.1919,328.7725,87.6362,339.2455,88.48,349.7185,87.6568,360.1914,87.8172,370.6644,88.0603,381.1374,88.1411,391.6104,87.7035,402.0833,87.7075,402.0986,87.8061,402.6421,87.6026,403.277,87.9882,403.8803,88.1702,404.464,88.2262,405.0296,88.1652,405.1725,88.323,405.1611,88.2618,405.3658,88.4392,405.617,88.6681,405.9922,89.0339,406.25,89.27,406.2042,89.2194,406.1647,89.6664,405.7211,89.667,405.4378,89.8446,405.3269,90.2127,405.0296,90.3749,404.9941,90.1461,404.4127,90.2883,403.8857,90.7806,403.2851,90.7989,402.7117,90.993,402.0833,90.8325,402.0833,90.4973,391.6104,91.165,381.1374,91.4475,370.6644,90.3404,360.1914,90.7327,349.7185,90.9638,339.2455,91.5114,328.7725,90.8282,318.2995,91.3144,307.8266,90.2557,297.3536,90.127,286.8806,91.3571,276.4077,90.0857,265.9347,91.3627,255.4617,91.0478,244.9887,90.5534,234.5158,90.464,224.0428,91.3104,213.5698,90.5207,203.0968,91.449,192.6239,90.2567,182.1509,91.4757,171.6779,91.337,161.205,91.0877,150.732,90.8817,140.259,91.5894,129.786,91.4717,119.3131,91.0088,108.8401,91.1119,98.3671,90.6968,87.8941,91.5788,77.4212,90.9938,66.9482,91.0123,56.4752,90.1988,46.0023,90.4104,35.5293,91.3854,25.0563,91.2802,14.5833,90.8325,14.581,90.8178,13.9769,90.6305,13.3932,90.5743,12.779,90.3225,12.2484,90.6087,11.6371,90.3749,11.8094,90.5652,11.5156,90.2894,11.3108,90.1118,10.873,89.6768,10.6811,89.5134,10.4167,89.27,10.3263,89.1703,10.7269,89.1222,10.9623,88.8916,11.2776,88.7493,11.3395,88.327,11.6371,88.1652,11.6299,88.119,12.2499,88.2258,12.8458,88.1768,13.3775,87.7147,13.9837,87.7325,14.5833,87.7075" style="stroke:#555555;stroke-width:1.0416666666666667;"/><path d="M10.4167,87.7075 L10.4167,87.9994 L20.8333,87.1321 L31.25,87.976 L41.6667,88.2626 L52.0833,86.7167 L62.5,87.5996 L72.9167,87.1152 L83.3333,87.1749 L93.75,87.6129 L104.1667,86.7473 L114.5833,88.4765 L125,86.8321 L135.4167,87.4328 L145.8333,88.3074 L156.25,87.5884 L166.6667,87.8023 L177.0833,87.6631 L187.5,87.9555 L197.9167,88.0396 L208.3333,88.521 L218.75,88.6395 L229.1667,88.6509 L239.5833,88.0612 L250,88.3514 L260.4167,88.6828 L270.8333,86.7059 L281.25,88.6499 L291.6667,87.2957 L302.0833,88.4489 L312.5,87.02 L322.9167,87.6124 L333.3333,88.7375 L343.75,87.6398 L354.1667,87.8538 L364.5833,88.1778 L375,88.2856 L385.4167,87.7021 L395.8333,88.1064 L406.25,87.7075 " fill="#555555" style="stroke:#555555;stroke-width:1.0416666666666667;"/><path d="M10.4167,90.8325 L10.4167,91.1244 L20.8333,90.2571 L31.25,91.101 L41.6667,91.3876 L52.0833,89.8417 L62.5,90.7246 L72.9167,90.2402 L83.3333,90.2999 L93.75,90.7379 L104.1667,89.8723 L114.5833,91.6015 L125,89.9571 L135.4167,90.5578 L145.8333,91.4324 L156.25,90.7134 L166.6667,90.9273 L177.0833,90.7881 L187.5,91.0805 L197.9167,91.1646 L208.3333,91.646 L218.75,91.7645 L229.1667,91.7759 L239.5833,91.1862 L250,91.4764 L260.4167,91.8078 L270.8333,89.8309 L281.25,91.7749 L291.6667,90.4207 L302.0833,91.5739 L312.5,90.145 L322.9167,90.7374 L333.3333,91.8625 L343.75,90.7648 L354.1667,90.9788 L364.5833,91.3028 L375,91.4106 L385.4167,90.8271 L395.8333,91.2314 L406.25,90.8325 " fill="#555555" style="stroke:#555555;stroke-width:1.0416666666666667;"/><polygon fill="#555555" points="166.6667,72.0133,166.6667,72.2323,177.0833,71.5818,187.5,72.2147,197.9167,72.4297,208.3333,71.2702,218.75,71.9324,229.1667,71.5691,239.5833,71.6139,250,72.0133,249.9909,71.9915,250.4974,72.0356,251.2521,72.6791,251.684,72.5434,252.3307,72.9262,252.9463,73.2337,253.0848,73.2911,253.1628,73.8116,253.4563,74.4213,253.6683,74.9973,253.9799,75.6145,254.1667,76.18,254.2497,76.18,254.37,81.2077,254.3997,86.2354,254.4025,91.263,254.2551,96.2907,254.1667,101.3184,254.3154,101.38,254.1479,102.0009,253.4472,102.401,253.6521,103.1763,253.0952,103.636,252.9463,104.2646,253.0172,104.4359,252.2912,104.3499,251.7587,104.7308,251.2771,105.2348,250.5828,105.2253,250,105.485,250,105.5947,239.5833,105.8378,229.1667,105.9186,218.75,105.481,208.3333,105.7842,197.9167,104.8888,187.5,105.7813,177.0833,106.0561,166.6667,105.485,166.7257,105.6276,166.1589,105.4376,165.424,104.8419,164.8122,104.5436,164.2271,104.3094,163.7204,104.2646,163.7015,104.2568,163.4133,103.6493,163.4508,103.1767,162.9321,102.4737,162.634,101.862,162.5,101.3184,162.5793,101.3184,162.2685,96.2907,162.3197,91.263,162.7253,86.2354,162.6513,81.2077,162.5,76.18,162.7356,76.2776,162.6408,75.548,163.0906,75.0439,163.4216,74.4907,163.3248,73.7602,163.7204,73.2337,163.7077,73.203,164.3264,73.0301,164.9855,72.9547,165.4876,72.5002,166.1389,72.4058,166.6667,72.0133" style="stroke:#555555;stroke-width:2.0833333333333335;"/><text fill="#FFFFFF" font-family="&quot;Segoe Print&quot;" font-size="12.5" font-weight="bold" lengthAdjust="spacing" textLength="62.5" x="173.9583" y="93.4733">第一次请求</text><polygon fill="#333333" points="310.4167,143.1234,310.4438,143.1911,312.4466,143.8231,314.6083,144.8524,316.7182,145.7522,318.658,146.2267,320.8333,147.29,320.8233,147.265,318.695,147.9859,316.6172,148.8331,314.5745,149.7681,312.4108,150.4005,310.4167,151.4567,310.5526,151.5926,311.0953,150.4686,312.0348,149.7415,313.0227,149.0628,313.7289,148.1023,314.5833,147.29,314.6001,147.3068,313.7422,146.4489,312.9605,145.6672,312.142,144.8488,311.3938,144.1005,310.4167,143.1234" style="stroke:#333333;stroke-width:1.0416666666666667;"/><path d="M93.75,147.29 L93.75,147.582 L104.3651,146.7146 L114.9802,147.5585 L125.5952,147.8451 L136.2103,146.2992 L146.8254,147.1821 L157.4405,146.6977 L168.0556,146.7574 L178.6706,147.1954 L189.2857,146.3298 L199.9008,148.059 L210.5159,146.4146 L221.131,147.0154 L231.746,147.89 L242.3611,147.1709 L252.9762,147.3848 L263.5913,147.2457 L274.2063,147.538 L284.8214,147.6222 L295.4365,148.1035 L306.0516,148.2221 L316.6667,147.29 " fill="none" style="stroke:#333333;stroke-width:3.125;"/><text fill="#2E2E2E" font-family="&quot;Segoe Print&quot;" font-size="12.5" lengthAdjust="spacing" textLength="87.5" x="164.5833" y="137.3617">GET /resource</text><polygon fill="#333333" points="105.2083,212.2884,105.2354,212.3562,103.0716,212.9882,101.0666,214.0174,99.0099,214.9173,96.783,215.3918,94.7917,216.4551,94.7816,216.43,96.82,217.1509,98.9089,217.9981,101.0329,218.9331,103.0358,219.5655,105.2083,220.6217,105.3443,220.7577,104.2203,219.6337,103.4931,218.9065,102.8144,218.2278,101.8539,217.2674,101.0417,216.4551,101.0584,216.4718,101.8672,215.6139,102.7522,214.8322,103.6004,214.0138,104.5188,213.2655,105.2083,212.2884" style="stroke:#333333;stroke-width:1.0416666666666667;"/><path d="M98.9583,216.4551 L98.9583,216.747 L109.3277,215.8796 L119.697,216.7235 L130.0663,217.0102 L140.4356,215.4643 L150.8049,216.3471 L161.1742,215.8627 L171.5436,215.9224 L181.9129,216.3604 L192.2822,215.4948 L202.6515,217.224 L213.0208,215.5797 L223.3902,216.1804 L233.7595,217.055 L244.1288,216.3359 L254.4981,216.5499 L264.8674,216.4107 L275.2367,216.703 L285.6061,216.7872 L295.9754,217.2685 L306.3447,217.3871 L316.714,217.3985 L327.0833,216.4551 " fill="none" style="stroke:#333333;stroke-width:3.125;stroke-dasharray:2.0,2.0;"/><text fill="#2E2E2E" font-family="&quot;Segoe Print&quot;" font-size="12.5" lengthAdjust="spacing" textLength="46.875" x="187.5" y="177.0833">200 OK</text><text fill="#2E2E2E" font-family="&quot;Segoe Print&quot;" font-size="12.5" lengthAdjust="spacing" textLength="193.75" x="114.0625" y="191.805">Cache-Control: max-age=3600</text><text fill="#2E2E2E" font-family="&quot;Segoe Print&quot;" font-size="12.5" lengthAdjust="spacing" textLength="112.5" x="154.6875" y="206.5267">Content: [资源内容]</text><path d="M98.9583,234.1634 L99.1529,234.1634 L98.5747,242.4967 L99.1373,250.8301 L99.3284,259.1634 L98.2978,267.4967 L98.9583,275.8301 L103.125,279.9967 L103.125,279.7809 L113.2576,278.812 L123.3902,278.9315 L133.5227,279.8074 L143.6553,278.0763 L153.7879,281.5346 L163.9205,278.246 L174.053,279.4474 L184.1856,281.1966 L194.3182,279.7585 L204.4508,280.1863 L214.5833,279.9967 L218.75,275.8301 L218.7204,275.8301 L218.9153,268.7467 L218.9714,261.6634 L219.2923,254.5801 L219.3713,247.4967 L218.75,240.4134 L219.1947,240.8581 L216.8334,238.4968 L214.8869,236.5503 L212.9598,234.6232 L209.9445,231.6079 L208.3333,229.9967 L208.3333,231.8815 L197.8125,229.1731 L187.2917,231.4796 L176.7708,228.6217 L166.25,229.8065 L155.7292,232.0568 L145.2083,229.8614 L134.6875,230.2893 L124.1667,230.9374 L113.6458,231.1529 L103.125,229.9967 L98.9583,234.1634 " fill="#17A2B8" style="stroke:#2E2E2E;stroke-width:1.0416666666666667;"/><path d="M208.3333,229.9967 L208.3297,229.9967 L208.5993,231.6634 L207.8033,233.3301 L208.5967,234.9967 L208.8409,236.6634 L208.3333,238.3301 L210.4167,240.4134 L210.4167,240.825 L212.0833,240.981 L213.75,239.9661 L215.4167,239.8095 L217.0833,239.838 L218.75,240.4134 L218.7114,240.3749 L216.538,238.2014 L215.0295,236.6929 L212.3856,234.049 L210.1921,231.8555 L208.3333,229.9967 " fill="#17A2B8" style="stroke:#2E2E2E;stroke-width:1.0416666666666667;"/><text fill="#FFFFFF" font-family="&quot;Segoe Print&quot;" font-size="12.5" lengthAdjust="spacing" textLength="87.5" x="110.4167" y="252.4984">浏览器缓存资源</text><text fill="#FFFFFF" font-family="&quot;Segoe Print&quot;" font-size="12.5" lengthAdjust="spacing" textLength="87.5" x="110.4167" y="267.2201">并记录缓存时间</text><polygon fill="#555555" points="14.5833,311.5926,14.5833,311.8116,25.0563,311.161,35.5293,311.794,46.0023,312.0089,56.4752,310.8495,66.9482,311.5117,77.4212,311.1483,87.8941,311.1931,98.3671,311.5216,108.8401,310.8724,119.3131,312.1693,129.786,310.9361,140.259,311.3866,150.732,312.0426,161.205,311.5033,171.6779,311.6637,182.1509,311.5593,192.6239,311.7786,203.0968,311.8417,213.5698,312.2027,224.0428,312.2916,234.5158,312.3002,244.9887,311.8578,255.4617,312.0755,265.9347,312.3241,276.4077,310.8414,286.8806,312.2994,297.3536,311.2838,307.8266,312.1487,318.2995,311.077,328.7725,311.5213,339.2455,312.3651,349.7185,311.5418,360.1914,311.7023,370.6644,311.9453,381.1374,312.0262,391.6104,311.5885,402.0833,311.5926,402.0986,311.6912,402.6421,311.4877,403.277,311.8732,403.8803,312.0553,404.464,312.1112,405.0296,312.0503,405.1725,312.2081,405.1611,312.1469,405.3658,312.3243,405.617,312.5532,405.9922,312.919,406.25,313.1551,406.2042,313.1045,406.1647,313.5515,405.7211,313.5521,405.4378,313.7297,405.3269,314.0978,405.0296,314.26,404.9941,314.0312,404.4127,314.1734,403.8857,314.6657,403.2851,314.684,402.7117,314.8781,402.0833,314.7176,402.0833,314.3824,391.6104,315.0501,381.1374,315.3326,370.6644,314.2255,360.1914,314.6178,349.7185,314.8488,339.2455,315.3965,328.7725,314.7132,318.2995,315.1995,307.8266,314.1408,297.3536,314.0121,286.8806,315.2422,276.4077,313.9708,265.9347,315.2478,255.4617,314.9328,244.9887,314.4385,234.5158,314.3491,224.0428,315.1955,213.5698,314.4058,203.0968,315.3341,192.6239,314.1418,182.1509,315.3608,171.6779,315.2221,161.205,314.9728,150.732,314.7668,140.259,315.4745,129.786,315.3568,119.3131,314.8939,108.8401,314.997,98.3671,314.5819,87.8941,315.4639,77.4212,314.8789,66.9482,314.8974,56.4752,314.0839,46.0023,314.2955,35.5293,315.2705,25.0563,315.1653,14.5833,314.7176,14.581,314.7029,13.9769,314.5155,13.3932,314.4594,12.779,314.2076,12.2484,314.4938,11.6371,314.26,11.8094,314.4503,11.5156,314.1745,11.3108,313.9969,10.873,313.5619,10.6811,313.3985,10.4167,313.1551,10.3263,313.0553,10.7269,313.0073,10.9623,312.7767,11.2776,312.6344,11.3395,312.2121,11.6371,312.0503,11.6299,312.0041,12.2499,312.1109,12.8458,312.0619,13.3775,311.5998,13.9837,311.6176,14.5833,311.5926" style="stroke:#555555;stroke-width:1.0416666666666667;"/><path d="M10.4167,311.5926 L10.4167,311.8845 L20.8333,311.0172 L31.25,311.8611 L41.6667,312.1477 L52.0833,310.6018 L62.5,311.4847 L72.9167,311.0003 L83.3333,311.06 L93.75,311.4979 L104.1667,310.6324 L114.5833,312.3616 L125,310.7172 L135.4167,311.3179 L145.8333,312.1925 L156.25,311.4735 L166.6667,311.6874 L177.0833,311.5482 L187.5,311.8406 L197.9167,311.9247 L208.3333,312.4061 L218.75,312.5246 L229.1667,312.536 L239.5833,311.9463 L250,312.2365 L260.4167,312.5679 L270.8333,310.591 L281.25,312.535 L291.6667,311.1808 L302.0833,312.334 L312.5,310.9051 L322.9167,311.4975 L333.3333,312.6226 L343.75,311.5249 L354.1667,311.7389 L364.5833,312.0629 L375,312.1707 L385.4167,311.5872 L395.8333,311.9915 L406.25,311.5926 " fill="#555555" style="stroke:#555555;stroke-width:1.0416666666666667;"/><path d="M10.4167,314.7176 L10.4167,315.0095 L20.8333,314.1422 L31.25,314.9861 L41.6667,315.2727 L52.0833,313.7268 L62.5,314.6097 L72.9167,314.1253 L83.3333,314.185 L93.75,314.6229 L104.1667,313.7574 L114.5833,315.4866 L125,313.8422 L135.4167,314.4429 L145.8333,315.3175 L156.25,314.5985 L166.6667,314.8124 L177.0833,314.6732 L187.5,314.9656 L197.9167,315.0497 L208.3333,315.5311 L218.75,315.6496 L229.1667,315.661 L239.5833,315.0713 L250,315.3615 L260.4167,315.6929 L270.8333,313.716 L281.25,315.66 L291.6667,314.3058 L302.0833,315.459 L312.5,314.0301 L322.9167,314.6225 L333.3333,315.7476 L343.75,314.6499 L354.1667,314.8639 L364.5833,315.1879 L375,315.2957 L385.4167,314.7122 L395.8333,315.1165 L406.25,314.7176 " fill="#555555" style="stroke:#555555;stroke-width:1.0416666666666667;"/><polygon fill="#555555" points="125,295.8984,125,296.1174,135.4167,295.4669,145.8333,296.0998,156.25,296.3148,166.6667,295.1553,177.0833,295.8175,187.5,295.4542,197.9167,295.499,208.3333,295.8274,218.75,295.1783,229.1667,296.4751,239.5833,295.2419,250,295.6924,260.4167,296.3484,270.8333,295.8091,281.25,295.9695,291.6667,295.8984,291.6624,295.8882,292.2796,296.1998,292.877,296.4633,293.5123,296.8186,294.1129,297.09,294.6129,297.1188,294.8308,297.2091,294.9387,297.7419,295.2498,298.3589,295.5704,298.9799,295.3579,299.38,295.8333,300.0651,296.0689,300.0651,295.7304,305.0928,296.0187,310.1204,295.6615,315.1481,295.8095,320.1758,295.8333,325.2035,296.0712,325.302,295.5736,325.7862,295.379,326.396,295.2097,327.0162,294.9905,327.6158,294.6129,328.1497,294.6124,328.1485,294.0619,328.4859,293.3584,328.4543,292.883,328.9732,292.3288,329.3019,291.6667,329.3701,291.6667,329.8332,281.25,330.0087,270.8333,328.8669,260.4167,328.6908,250,328.7228,239.5833,329.3088,229.1667,329.1654,218.75,330.0799,208.3333,329.1882,197.9167,329.0128,187.5,329.6079,177.0833,328.6755,166.6667,328.8294,156.25,330.0461,145.8333,329.8239,135.4167,330.1352,125,329.3701,124.9572,329.2669,124.4532,329.2284,123.8999,329.0714,123.1695,328.4863,122.6302,328.3631,122.0537,328.1497,122.0941,328.1665,122.0187,327.6471,121.5642,326.9707,121.4699,326.4434,120.8998,325.7191,120.8333,325.2035,120.5982,325.2035,121.0082,320.1758,120.5844,315.1481,121.0101,310.1204,120.9051,305.0928,120.8333,300.0651,120.7474,300.0295,120.9639,299.4288,121.4687,298.9476,121.4695,298.2576,121.9995,297.7867,122.0537,297.1188,121.9803,296.9415,122.725,297.0728,123.2966,296.786,123.854,296.4652,124.417,296.1577,125,295.8984" style="stroke:#555555;stroke-width:2.0833333333333335;"/><text fill="#FFFFFF" font-family="&quot;Segoe Print&quot;" font-size="12.5" font-weight="bold" lengthAdjust="spacing" textLength="145.8333" x="132.2917" y="317.3584">再次请求（在3600秒内）</text><path d="M98.9583,349.1618 L99.1529,349.1618 L98.5747,357.4951 L99.1373,365.8285 L99.3284,374.1618 L98.2978,382.4951 L98.9583,390.8285 L103.125,394.9951 L103.125,394.7792 L113.8393,393.8104 L124.5536,393.9298 L135.2679,394.8058 L145.9821,393.0746 L156.6964,396.533 L167.4107,393.2443 L178.125,394.4458 L188.8393,396.195 L199.5536,394.7568 L210.2679,395.1847 L220.9821,394.9064 L231.6964,395.491 L242.4107,395.6594 L253.125,394.9951 L257.2917,390.8285 L257.834,390.8285 L257.913,383.7451 L257.9206,376.6618 L257.5274,369.5785 L257.7209,362.4951 L257.2917,355.4118 L257.7514,355.8716 L254.7362,352.8563 L253.5692,351.6894 L250.8475,348.9677 L249.3078,347.428 L246.875,344.9951 L246.875,343.6201 L236.6071,344.8048 L226.3393,347.0551 L216.0714,344.8597 L205.8036,345.2876 L195.5357,345.9358 L185.2679,346.1513 L175,344.9843 L164.7321,345.7929 L154.4643,343.4051 L144.1964,345.7851 L133.9286,346.5179 L123.6607,346.2299 L113.3929,346.698 L103.125,344.9951 L98.9583,349.1618 " fill="#17A2B8" style="stroke:#2E2E2E;stroke-width:1.0416666666666667;"/><path d="M246.875,344.9951 L246.4277,344.9951 L246.2711,346.6618 L246.2996,348.3285 L246.8205,349.9951 L246.693,351.6618 L246.875,353.3285 L248.9583,355.4118 L248.9583,356.0427 L250.625,355.25 L252.2917,355.0941 L253.9583,355.6231 L255.625,354.7943 L257.2917,355.4118 L256.9518,355.0719 L255.6332,353.7533 L253.4102,351.5304 L251.5226,349.6427 L248.7476,346.8678 L246.875,344.9951 " fill="#17A2B8" style="stroke:#2E2E2E;stroke-width:1.0416666666666667;"/><text fill="#FFFFFF" font-family="&quot;Segoe Print&quot;" font-size="12.5" lengthAdjust="spacing" textLength="50" x="110.4167" y="367.4967">检查缓存</text><text fill="#FFFFFF" font-family="&quot;Segoe Print&quot;" font-size="12.5" lengthAdjust="spacing" textLength="126.0417" x="110.4167" y="382.2184">资源仍在 max-age 内</text><polygon fill="#333333" points="315.625,427.7018,315.6521,427.7696,317.6549,428.4016,319.8166,429.4308,321.9265,430.3307,323.8663,430.8052,326.0417,431.8685,326.0316,431.8434,323.9033,432.5643,321.8255,433.4115,319.7829,434.3465,317.6192,434.9789,315.625,436.0352,315.7609,436.1711,316.3036,435.0471,317.2431,434.3199,318.2311,433.6412,318.9373,432.6808,319.7917,431.8685,319.8084,431.8852,318.9505,431.0273,318.1688,430.2457,317.3504,429.4272,316.6021,428.679,315.625,427.7018" style="stroke:#333333;stroke-width:1.0416666666666667;"/><path d="M93.75,431.8685 L93.75,432.1604 L104.1193,431.293 L114.4886,432.1369 L124.858,432.4236 L135.2273,430.8777 L145.5966,431.7606 L155.9659,431.2761 L166.3352,431.3359 L176.7045,431.7738 L187.0739,430.9083 L197.4432,432.6374 L207.8125,430.9931 L218.1818,431.5938 L228.5511,432.4684 L238.9205,431.7494 L249.2898,431.9633 L259.6591,431.8241 L270.0284,432.1164 L280.3977,432.2006 L290.767,432.6819 L301.1364,432.8005 L311.5057,432.8119 L321.875,431.8685 " fill="none" style="stroke:#333333;stroke-width:3.125;"/><text fill="#2E2E2E" font-family="&quot;Segoe Print&quot;" font-size="12.5" lengthAdjust="spacing" textLength="95.8333" x="163.0208" y="421.9401">[资源从缓存加载]</text><path d="M98.9583,449.5768 L99.1529,449.5768 L98.5747,454.9935 L99.1373,460.4102 L99.3284,465.8268 L98.2978,471.2435 L98.9583,476.6602 L103.125,480.8268 L103.125,480.611 L113.4549,479.6421 L123.7847,479.7615 L134.1146,480.6375 L144.4444,478.9064 L154.7743,482.3647 L165.1042,479.076 L175.434,480.2775 L185.7639,482.0267 L196.0938,480.5886 L206.4236,481.0164 L216.7535,480.7381 L227.0833,480.8268 L231.25,476.6602 L231.4153,476.6602 L231.4714,472.4935 L231.7923,468.3268 L231.8713,464.1602 L231.8789,459.9935 L231.25,455.8268 L231.4167,455.9935 L229.4702,454.047 L227.5431,452.1199 L224.5278,449.1046 L223.3609,447.9377 L220.8333,445.4102 L220.8333,444.5865 L210.1326,446.893 L199.4318,444.0351 L188.7311,445.2199 L178.0303,447.4702 L167.3295,445.2748 L156.6288,445.7027 L145.928,446.3508 L135.2273,446.5664 L124.5265,445.3993 L113.8258,446.208 L103.125,445.4102 L98.9583,449.5768 " fill="#17A2B8" style="stroke:#2E2E2E;stroke-width:1.0416666666666667;"/><path d="M220.8333,445.4102 L220.3033,445.4102 L221.0967,447.0768 L221.3409,448.7435 L221.2449,450.4102 L221.4009,452.0768 L220.8333,453.7435 L222.9167,455.8268 L222.9167,455.3795 L224.5833,455.2229 L226.25,455.2515 L227.9167,455.7723 L229.5833,455.6449 L231.25,455.8268 L231.6961,456.273 L229.0523,453.6291 L226.8587,451.4355 L225.1495,449.7263 L222.4801,447.0569 L220.8333,445.4102 " fill="#17A2B8" style="stroke:#2E2E2E;stroke-width:1.0416666666666667;"/><text fill="#FFFFFF" font-family="&quot;Segoe Print&quot;" font-size="12.5" lengthAdjust="spacing" textLength="100" x="110.4167" y="467.9118">无需向服务器请求</text><polygon fill="#555555" points="14.5833,512.2843,14.5833,512.5033,25.0563,511.8528,35.5293,512.4857,46.0023,512.7007,56.4752,511.5412,66.9482,512.2034,77.4212,511.8401,87.8941,511.8849,98.3671,512.2133,108.8401,511.5642,119.3131,512.8611,129.786,511.6278,140.259,512.0783,150.732,512.7343,161.205,512.195,171.6779,512.3554,182.1509,512.2511,192.6239,512.4703,203.0968,512.5334,213.5698,512.8944,224.0428,512.9834,234.5158,512.9919,244.9887,512.5496,255.4617,512.7672,265.9347,513.0158,276.4077,511.5331,286.8806,512.9911,297.3536,511.9755,307.8266,512.8404,318.2995,511.7687,328.7725,512.213,339.2455,513.0568,349.7185,512.2336,360.1914,512.394,370.6644,512.6371,381.1374,512.7179,391.6104,512.2803,402.0833,512.2843,402.0986,512.3829,402.6421,512.1795,403.277,512.565,403.8803,512.747,404.464,512.803,405.0296,512.742,405.1725,512.8998,405.1611,512.8386,405.3658,513.0161,405.617,513.2449,405.9922,513.6107,406.25,513.8468,406.2042,513.7963,406.1647,514.2432,405.7211,514.2438,405.4378,514.4215,405.3269,514.7895,405.0296,514.9517,404.9941,514.7229,404.4127,514.8651,403.8857,515.3574,403.2851,515.3758,402.7117,515.5698,402.0833,515.4093,402.0833,515.0741,391.6104,515.7418,381.1374,516.0244,370.6644,514.9173,360.1914,515.3095,349.7185,515.5406,339.2455,516.0883,328.7725,515.405,318.2995,515.8912,307.8266,514.8325,297.3536,514.7039,286.8806,515.9339,276.4077,514.6625,265.9347,515.9395,255.4617,515.6246,244.9887,515.1303,234.5158,515.0408,224.0428,515.8872,213.5698,515.0975,203.0968,516.0259,192.6239,514.8336,182.1509,516.0525,171.6779,515.9138,161.205,515.6645,150.732,515.4585,140.259,516.1662,129.786,516.0485,119.3131,515.5857,108.8401,515.6887,98.3671,515.2736,87.8941,516.1556,77.4212,515.5707,66.9482,515.5891,56.4752,514.7756,46.0023,514.9872,35.5293,515.9622,25.0563,515.857,14.5833,515.4093,14.581,515.3946,13.9769,515.2073,13.3932,515.1512,12.779,514.8993,12.2484,515.1855,11.6371,514.9517,11.8094,515.1421,11.5156,514.8662,11.3108,514.6886,10.873,514.2536,10.6811,514.0903,10.4167,513.8468,10.3263,513.7471,10.7269,513.699,10.9623,513.4684,11.2776,513.3261,11.3395,512.9038,11.6371,512.742,11.6299,512.6959,12.2499,512.8026,12.8458,512.7536,13.3775,512.2915,13.9837,512.3093,14.5833,512.2843" style="stroke:#555555;stroke-width:1.0416666666666667;"/><path d="M10.4167,512.2843 L10.4167,512.5763 L20.8333,511.7089 L31.25,512.5528 L41.6667,512.8395 L52.0833,511.2935 L62.5,512.1764 L72.9167,511.692 L83.3333,511.7517 L93.75,512.1897 L104.1667,511.3241 L114.5833,513.0533 L125,511.409 L135.4167,512.0097 L145.8333,512.8843 L156.25,512.1652 L166.6667,512.3791 L177.0833,512.24 L187.5,512.5323 L197.9167,512.6165 L208.3333,513.0978 L218.75,513.2164 L229.1667,513.2278 L239.5833,512.638 L250,512.9282 L260.4167,513.2597 L270.8333,511.2827 L281.25,513.2267 L291.6667,511.8725 L302.0833,513.0257 L312.5,511.5968 L322.9167,512.1892 L333.3333,513.3144 L343.75,512.2167 L354.1667,512.4306 L364.5833,512.7547 L375,512.8624 L385.4167,512.2789 L395.8333,512.6833 L406.25,512.2843 " fill="#555555" style="stroke:#555555;stroke-width:1.0416666666666667;"/><path d="M10.4167,515.4093 L10.4167,515.7013 L20.8333,514.8339 L31.25,515.6778 L41.6667,515.9645 L52.0833,514.4185 L62.5,515.3014 L72.9167,514.817 L83.3333,514.8767 L93.75,515.3147 L104.1667,514.4491 L114.5833,516.1783 L125,514.534 L135.4167,515.1347 L145.8333,516.0093 L156.25,515.2902 L166.6667,515.5041 L177.0833,515.365 L187.5,515.6573 L197.9167,515.7415 L208.3333,516.2228 L218.75,516.3414 L229.1667,516.3528 L239.5833,515.763 L250,516.0532 L260.4167,516.3847 L270.8333,514.4077 L281.25,516.3517 L291.6667,514.9975 L302.0833,516.1507 L312.5,514.7218 L322.9167,515.3142 L333.3333,516.4394 L343.75,515.3417 L354.1667,515.5556 L364.5833,515.8797 L375,515.9874 L385.4167,515.4039 L395.8333,515.8083 L406.25,515.4093 " fill="#555555" style="stroke:#555555;stroke-width:1.0416666666666667;"/><polygon fill="#555555" points="118.75,496.5902,118.75,496.8091,129.2892,496.1586,139.8284,496.7915,150.3676,497.0065,160.9069,495.847,171.4461,496.5092,181.9853,496.1459,192.5245,496.1907,203.0637,496.5192,213.6029,495.87,224.1422,497.1669,234.6814,495.9336,245.2206,496.3842,255.7598,497.0401,266.299,496.5008,276.8382,496.6613,287.3775,496.5569,297.9167,496.5902,297.9404,496.6474,298.5377,496.911,299.173,497.2662,299.7736,497.5377,300.3639,497.7844,300.8629,497.8106,300.9446,497.8444,301.2557,498.4614,301.5764,499.0824,301.3638,499.4825,302.0569,500.2577,302.0833,500.7568,301.9804,500.7568,302.2687,505.7845,301.9115,510.8122,302.0595,515.8398,302.3408,520.8675,302.0833,525.8952,302.0677,525.8887,301.873,526.4984,301.7038,527.1187,301.4846,527.7183,301.1058,528.2517,300.8629,528.8415,300.9011,528.9336,300.1976,528.9019,299.7222,529.4208,299.168,529.7495,298.565,529.9604,297.9167,530.0618,297.9167,530.7004,287.3775,529.5586,276.8382,529.3825,266.299,529.4146,255.7598,530.0005,245.2206,529.8571,234.6814,530.7717,224.1422,529.8799,213.6029,529.7045,203.0637,530.2996,192.5245,529.3672,181.9853,529.5211,171.4461,530.7378,160.9069,530.5157,150.3676,530.8269,139.8284,529.7266,129.2892,530.3943,118.75,530.0618,118.8285,530.2513,118.098,529.6662,117.5588,529.5429,116.999,529.37,116.4796,529.2946,115.8037,528.8415,115.8024,528.8409,115.708,528.3137,115.1379,527.5894,114.8542,526.9837,114.989,526.5514,114.5833,525.8952,114.3344,525.8952,114.7601,520.8675,114.6551,515.8398,114.4903,510.8122,114.4605,505.7845,114.5833,500.7568,114.7305,500.8178,114.7314,500.1278,115.2614,499.657,115.1383,498.9156,115.7577,498.4819,115.8037,497.8106,115.8681,497.9659,116.4255,497.6451,116.9885,497.3375,117.668,497.3114,118.2423,497.0311,118.75,496.5902" style="stroke:#555555;stroke-width:2.0833333333333335;"/><text fill="#FFFFFF" font-family="&quot;Segoe Print&quot;" font-size="12.5" font-weight="bold" lengthAdjust="spacing" textLength="158.3333" x="126.0417" y="518.0501">再次请求（超过3600秒后）</text><path d="M98.9583,549.8535 L99.1529,549.8535 L98.5747,558.1868 L99.1373,566.5202 L99.3284,574.8535 L98.2978,583.1868 L98.9583,591.5202 L103.125,595.6868 L103.125,595.471 L113.3814,594.5021 L123.6378,594.6216 L133.8942,595.4975 L144.1506,593.7664 L154.4071,597.2247 L164.6635,593.9361 L174.9199,595.1375 L185.1763,596.8867 L195.4327,595.4486 L205.6891,595.8764 L215.9455,595.5981 L226.2019,596.1828 L236.4583,595.6868 L240.625,591.5202 L240.8464,591.5202 L241.1673,584.4368 L241.2463,577.3535 L241.2539,570.2702 L240.8608,563.1868 L240.625,556.1035 L240.9285,556.407 L239.0014,554.48 L235.9862,551.4647 L234.8192,550.2978 L232.0975,547.5761 L230.2083,545.6868 L230.2083,547.1697 L219.6181,544.3118 L209.0278,545.4966 L198.4375,547.7469 L187.8472,545.5515 L177.2569,545.9794 L166.6667,546.6275 L156.0764,546.843 L145.4861,545.676 L134.8958,546.4847 L124.3056,544.0968 L113.7153,546.4768 L103.125,545.6868 L98.9583,549.8535 " fill="#17A2B8" style="stroke:#2E2E2E;stroke-width:1.0416666666666667;"/><path d="M230.2083,545.6868 L230.7159,545.6868 L230.6199,547.3535 L230.7759,549.0202 L229.761,550.6868 L229.6045,552.3535 L230.2083,554.0202 L232.2917,556.1035 L232.2917,555.5281 L233.9583,556.049 L235.625,555.9215 L237.2917,556.7345 L238.9583,555.9418 L240.625,556.1035 L240.4004,555.8789 L238.6911,554.1696 L236.0217,551.5003 L234.0351,549.5136 L232.7166,548.1951 L230.2083,545.6868 " fill="#17A2B8" style="stroke:#2E2E2E;stroke-width:1.0416666666666667;"/><text fill="#FFFFFF" font-family="&quot;Segoe Print&quot;" font-size="12.5" lengthAdjust="spacing" textLength="50" x="110.4167" y="568.1885">检查缓存</text><text fill="#FFFFFF" font-family="&quot;Segoe Print&quot;" font-size="12.5" lengthAdjust="spacing" textLength="109.375" x="110.4167" y="582.9102">资源超过 max-age</text><polygon fill="#333333" points="310.4167,628.3936,310.4438,628.4613,312.4466,629.0933,314.6083,630.1225,316.7182,631.0224,318.658,631.4969,320.8333,632.5602,320.8233,632.5352,318.695,633.2561,316.6172,634.1033,314.5745,635.0382,312.4108,635.6707,310.4167,636.7269,310.5526,636.8628,311.0953,635.7388,312.0348,635.0117,313.0227,634.3329,313.7289,633.3725,314.5833,632.5602,314.6001,632.577,313.7422,631.719,312.9605,630.9374,312.142,630.1189,311.3938,629.3707,310.4167,628.3936" style="stroke:#333333;stroke-width:1.0416666666666667;"/><path d="M93.75,632.5602 L93.75,632.8521 L104.3651,631.9848 L114.9802,632.8287 L125.5952,633.1153 L136.2103,631.5694 L146.8254,632.4523 L157.4405,631.9679 L168.0556,632.0276 L178.6706,632.4656 L189.2857,631.6 L199.9008,633.3292 L210.5159,631.6848 L221.131,632.2855 L231.746,633.1601 L242.3611,632.4411 L252.9762,632.655 L263.5913,632.5158 L274.2063,632.8082 L284.8214,632.8924 L295.4365,633.3737 L306.0516,633.4922 L316.6667,632.5602 " fill="none" style="stroke:#333333;stroke-width:3.125;"/><text fill="#2E2E2E" font-family="&quot;Segoe Print&quot;" font-size="12.5" lengthAdjust="spacing" textLength="87.5" x="164.5833" y="622.6318">GET /resource</text><polygon fill="#333333" points="105.2083,697.5586,105.2354,697.6264,103.0716,698.2584,101.0666,699.2876,99.0099,700.1874,96.783,700.6619,94.7917,701.7253,94.7816,701.7002,96.82,702.4211,98.9089,703.2683,101.0329,704.2033,103.0358,704.8357,105.2083,705.8919,105.3443,706.0279,104.2203,704.9038,103.4931,704.1767,102.8144,703.498,101.8539,702.5375,101.0417,701.7253,101.0584,701.742,101.8672,700.8841,102.7522,700.1024,103.6004,699.284,104.5188,698.5357,105.2083,697.5586" style="stroke:#333333;stroke-width:1.0416666666666667;"/><path d="M98.9583,701.7253 L98.9583,702.0172 L109.3277,701.1498 L119.697,701.9937 L130.0663,702.2804 L140.4356,700.7344 L150.8049,701.6173 L161.1742,701.1329 L171.5436,701.1926 L181.9129,701.6306 L192.2822,700.765 L202.6515,702.4942 L213.0208,700.8499 L223.3902,701.4506 L233.7595,702.3252 L244.1288,701.6061 L254.4981,701.82 L264.8674,701.6809 L275.2367,701.9732 L285.6061,702.0574 L295.9754,702.5387 L306.3447,702.6573 L316.714,702.6687 L327.0833,701.7253 " fill="none" style="stroke:#333333;stroke-width:3.125;stroke-dasharray:2.0,2.0;"/><text fill="#2E2E2E" font-family="&quot;Segoe Print&quot;" font-size="12.5" lengthAdjust="spacing" textLength="46.875" x="187.5" y="662.3535">200 OK</text><text fill="#2E2E2E" font-family="&quot;Segoe Print&quot;" font-size="12.5" lengthAdjust="spacing" textLength="193.75" x="114.0625" y="677.0752">Cache-Control: max-age=3600</text><text fill="#2E2E2E" font-family="&quot;Segoe Print&quot;" font-size="12.5" lengthAdjust="spacing" textLength="125" x="148.4375" y="691.7969">Content: [新资源内容]</text><path d="M98.9583,719.4336 L99.1529,719.4336 L98.5747,727.7669 L99.1373,736.1003 L99.3284,744.4336 L98.2978,752.7669 L98.9583,761.1003 L103.125,765.2669 L103.125,765.0511 L113.4549,764.0822 L123.7847,764.2017 L134.1146,765.0776 L144.4444,763.3465 L154.7743,766.8048 L165.1042,763.5161 L175.434,764.7176 L185.7639,766.4668 L196.0938,765.0287 L206.4236,765.4565 L216.7535,765.1782 L227.0833,765.2669 L231.25,761.1003 L231.4153,761.1003 L231.4714,754.0169 L231.7923,746.9336 L231.8713,739.8503 L231.8789,732.7669 L231.25,725.6836 L231.4167,725.8503 L229.4702,723.9038 L227.5431,721.9767 L224.5278,718.9614 L223.3609,717.7945 L220.8333,715.2669 L220.8333,714.4433 L210.1326,716.7497 L199.4318,713.8919 L188.7311,715.0767 L178.0303,717.3269 L167.3295,715.1316 L156.6288,715.5594 L145.928,716.2076 L135.2273,716.4231 L124.5265,715.2561 L113.8258,716.0647 L103.125,715.2669 L98.9583,719.4336 " fill="#17A2B8" style="stroke:#2E2E2E;stroke-width:1.0416666666666667;"/><path d="M220.8333,715.2669 L220.3033,715.2669 L221.0967,716.9336 L221.3409,718.6003 L221.2449,720.2669 L221.4009,721.9336 L220.8333,723.6003 L222.9167,725.6836 L222.9167,725.2363 L224.5833,725.0797 L226.25,725.1082 L227.9167,725.6291 L229.5833,725.5016 L231.25,725.6836 L231.6961,726.1297 L229.0523,723.4859 L226.8587,721.2923 L225.1495,719.583 L222.4801,716.9137 L220.8333,715.2669 " fill="#17A2B8" style="stroke:#2E2E2E;stroke-width:1.0416666666666667;"/><text fill="#FFFFFF" font-family="&quot;Segoe Print&quot;" font-size="12.5" lengthAdjust="spacing" textLength="100" x="110.4167" y="737.7686">浏览器缓存新资源</text><text fill="#FFFFFF" font-family="&quot;Segoe Print&quot;" font-size="12.5" lengthAdjust="spacing" textLength="87.5" x="110.4167" y="752.4902">并更新缓存时间</text><!--MD5=[02b68b82214c3b37ab7baf71ba1baaea]
@startuml
skinparamlocked roundcorner 10
skinparamlocked sequenceMessageAlign center
skinparamlocked arrowColor #5ac7c3
skinparamlocked arrowFontColor #white
skinparamlocked participantBackgroundColor #394248
skinparamlocked participantFontColor #57cc8a
skinparamlocked participantBorderColor #394248
skinparamlocked actorFontColor #white
skinparamlocked actorBorderColor #57cc8a
skinparamlocked actorBackgroundColor #transparent
skinparamlocked sequenceLifeLineBorderColor #afbac4
skinparamlocked noteBackgroundColor #f43655
skinparamlocked noteFontColor #white

!theme sketchy-outline

participant Browser
participant Server

== 第一次请求 ==
Browser -> Server: GET /resource
activate Server
Server - -> Browser: 200 OK\nCache-Control: max-age=3600\nContent: [资源内容]
deactivate Server

note right of Browser: 浏览器缓存资源\n并记录缓存时间

== 再次请求（在3600秒内） ==
note right of Browser: 检查缓存\n资源仍在 max-age 内
Browser -> Server: [资源从缓存加载]
note right of Browser: 无需向服务器请求

== 再次请求（超过3600秒后） ==
note right of Browser: 检查缓存\n资源超过 max-age
Browser -> Server: GET /resource
activate Server
Server - -> Browser: 200 OK\nCache-Control: max-age=3600\nContent: [新资源内容]
deactivate Server

note right of Browser: 浏览器缓存新资源\n并更新缓存时间
@enduml

@startuml
skinparamlocked roundcorner 10
skinparamlocked sequenceMessageAlign center
skinparamlocked arrowColor #5ac7c3
skinparamlocked arrowFontColor #white
skinparamlocked participantBackgroundColor #394248
skinparamlocked participantFontColor #57cc8a
skinparamlocked participantBorderColor #394248
skinparamlocked actorFontColor #white
skinparamlocked actorBorderColor #57cc8a
skinparamlocked actorBackgroundColor #transparent
skinparamlocked sequenceLifeLineBorderColor #afbac4
skinparamlocked noteBackgroundColor #f43655
skinparamlocked noteFontColor #white




skinparam backgroundColor transparent
skinparam useBetaStyle false
skinparam handwritten true
skinparam shadowing false






<style>
  root {
    BackgroundColor transparent
    FontColor #2e2e2e
    HyperLinkColor #fd7e14
    LineColor #2e2e2e
    LineThickness 1
    Margin 10
    Padding 6
    Shadowing 0.0
  }
  node {
   Padding 15
   roundcorner 20
   BackgroundColor transparent
  }
  caption {
    LineThickness 0
  }
  footer {
    LineThickness 0
  }
  groupHeader {
    BackgroundColor #555555
    FontColor #17a2b8
    FontStyle bold
  }
  header {
    LineThickness 0
  }
  referenceHeader {
    BackgroundColor transparent
    FontColor #555555
    FontStyle bold
  }
  separator {
    BackgroundColor #ffffff
    FontColor transparent
    FontStyle bold
  }
  title {
	FontSize 20
	BorderRoundCorner            8
	BorderThickness 	         1
	BackgroundColor  transparent
	FontColor #333333
	BorderColor #555555
  }
  nwdiagDiagram {
	network {
			FontColor #2e2e2e
	BorderColor #333333
	BackgroundColor transparent    
		LineColor #333333
		LineThickness 1.0
		FontColor #2e2e2e
	}
	server {
			FontColor #2e2e2e
	BorderColor #333333
	BackgroundColor transparent
	}
	arrow {
		FontColor #2e2e2e
		LineColor #2e2e2e
	}
	group {
		BackGroundColor #ffffff
		LineColor #e6e6e6
		LineThickness 2.0
		Margin 5
		Padding 5
	}
  }
  ganttDiagram {
	task {
			FontColor #2e2e2e
	BorderColor #333333
	BackgroundColor transparent
		LineColor #333333
		Margin 10
		Padding 6
	}
	note {
		FontColor #ffffff
		LineColor #1592a6
		BackGroundColor transparent
	}
	separator {
		LineColor #4d4d4d
		BackGroundColor transparent
		FontColor #ffffff
	}
	milestone {
		FontColor #17a2b8
		FontSize 16
		FontStyle italic
		BackGroundColor #555555
		LineColor #4d4d4d
	}
	timeline {
		BackgroundColor #555555
		FontColor #ffffff
	}
	closed {
		BackgroundColor #e6ae06
		FontColor #ffffff
	}
  }
</style>
skinparam defaultFontName       "Segoe Print"
skinparam defaultFontSize       12
skinparam dpi                   100
skinparam shadowing             false
skinparam roundcorner           8
skinparam ParticipantPadding    40
skinparam BoxPadding            40
skinparam Padding               5
skinparam ArrowColor            #555555
skinparam stereotype {
    CBackgroundColor transparent
    CBorderColor #4d4d4d
    ABackgroundColor transparent
    ABorderColor #24963e
    IBackgroundColor transparent
    IBorderColor #c6303e
    EBackgroundColor transparent
    EBorderColor #e6ae06
    NBackgroundColor transparent
    NBorderColor #1592a6
}
skinparam title {
	FontColor	                 #2e2e2e
	BorderColor	                 #4d4d4d
	FontSize	    	         20
	BorderRoundCorner            8
	BorderThickness 	         1
	BackgroundColor              transparent
}

skinparam legend {
	BackgroundColor transparent
	BorderColor #4d4d4d
	FontColor #2e2e2e
}

skinparam swimlane {
	BorderColor #17a2b8
	BorderThickness 2
	TitleBackgroundColor  transparent
	TitleFontColor #2e2e2e
}


skinparam activity {
		FontColor #2e2e2e
	BorderColor #333333
	BackgroundColor transparent
	BarColor #28a745
	StartColor #17a2b8
	EndColor #17a2b8
	DiamondBackgroundColor transparent
  	DiamondBorderColor #4d4d4d
  	DiamondFontColor #2e2e2e
}


skinparam participant {
		FontColor #2e2e2e
	BorderColor #333333
	BackgroundColor transparent
	ParticipantBorderThickness 2
}


skinparam actor {
		FontColor #2e2e2e
	BorderColor #333333
	BackgroundColor transparent
}


skinparam arrow {
	Thickness 3
	Color #333333
	FontColor #2e2e2e
}


skinparam sequence {
	BorderColor #333333
	TitleFontColor #2e2e2e
	BackgroundColor transparent
	StartColor #333333
	EndColor #333333
	BoxBackgroundColor transparent
	BoxBorderColor #555555
	BoxFontColor #555555
	DelayFontColor #555555
	LifeLineBorderColor #555555
	LifeLineBorderThickness 2
	LifeLineBackgroundColor #4d4d4d
	GroupBorderColor #555555
	GroupFontColor #555555
	GroupHeaderFontColor #17a2b8
	GroupBackgroundColor #555555
	GroupHeaderBackgroundColor transparent
	DividerBackgroundColor #555555
    DividerBorderColor #555555
    DividerBorderThickness 2
    DividerFontColor #ffffff
	ReferenceBackgroundColor transparent
	ReferenceBorderColor #555555
	ReferenceFontColor #555555
	ReferenceHeaderFontColor #17a2b8
	ReferenceHeaderBackgroundColor #555555
	StereotypeFontColor #2e2e2e
}


skinparam partition {
	BorderColor #333333
	FontColor #333333
	BackgroundColor transparent
}


skinparam collections {
		FontColor #2e2e2e
	BorderColor #333333
	BackgroundColor transparent
}


skinparam control {
		FontColor #2e2e2e
	BorderColor #333333
	BackgroundColor transparent
}


skinparam entity {
		FontColor #2e2e2e
	BorderColor #333333
	BackgroundColor transparent
}


skinparam boundary {
		FontColor #2e2e2e
	BorderColor #333333
	BackgroundColor transparent
}


skinparam agent {
	BackgroundColor #ffc107
	BorderColor #ffc720
	FontColor #555555
}


skinparam note {
	BorderThickness 1
	BackgroundColor #17a2b8
	BorderColor #1592a6
	FontColor #ffffff
}


skinparam artifact {
	BackgroundColor transparent
	BorderColor #4d4d4d
	FontColor #4d4d4d
}


skinparam component {
		FontColor #2e2e2e
	BorderColor #333333
	BackgroundColor transparent
}


skinparam interface {
	BackgroundColor  transparent
	BorderColor  #dc3545
	FontColor #555555
}


skinparam storage {
	BackgroundColor transparent
  	BorderColor #e6ae06
	FontColor #e6ae06
}


skinparam node {
	BackgroundColor  transparent
	BorderColor #ffffff
	FontColor #ffffff
}


skinparam cloud {
	BackgroundColor transparent
	BorderColor #F2FCFE
	FontColor #2e2e2e
}


skinparam database {
		FontColor #2e2e2e
	BorderColor #333333
	BackgroundColor transparent
}


skinparam class {
		FontColor #2e2e2e
	BorderColor #333333
	BackgroundColor transparent
	HeaderBackgroundColor transparent
	StereotypeFontColor #555555
	BorderThickness 1
	AttributeFontColor #555555
	AttributeFontSize 11
}


skinparam object {
		FontColor #2e2e2e
	BorderColor #333333
	BackgroundColor transparent
	StereotypeFontColor #2e2e2e
	BorderThickness 1
	AttributeFontColor #2e2e2e
	AttributeFontSize 11
}


skinparam usecase {
		FontColor #2e2e2e
	BorderColor #333333
	BackgroundColor transparent
	BorderThickness 2
	StereotypeFontColor #333333
}


skinparam rectangle {
		FontColor #2e2e2e
	BorderColor #333333
	BackgroundColor transparent
	BorderThickness 2
	StereotypeFontColor #333333
}


skinparam package {
	BackgroundColor transparent
  	BorderColor #333333
	FontColor #333333
	BorderThickness 2
}


skinparam folder {
	BackgroundColor transparent
  	BorderColor #ffc107
	FontColor #ffc107
	BorderThickness 2
}


skinparam frame {
	BackgroundColor transparent
  	BorderColor #17a2b8
	FontColor #17a2b8
	BorderThickness 2
}


skinparam state {
		FontColor #2e2e2e
	BorderColor #333333
	BackgroundColor transparent
	StartColor #17a2b8
	EndColor #17a2b8
	AttributeFontColor #ffffff
	AttributeFontSize 11
}


skinparam queue {
		FontColor #2e2e2e
	BorderColor #333333
	BackgroundColor transparent
}


skinparam card {
	BackgroundColor transparent
	BorderColor #1592a6
	FontColor #1592a6
}


skinparam file {
	BackgroundColor transparent
	BorderColor #ffffff
	FontColor #ffffff
}


skinparam stack {
		FontColor #2e2e2e
	BorderColor #333333
	BackgroundColor transparent
}

participant Browser
participant Server

== 第一次请求 ==
Browser -> Server: GET /resource
activate Server
Server - -> Browser: 200 OK\nCache-Control: max-age=3600\nContent: [资源内容]
deactivate Server

note right of Browser: 浏览器缓存资源\n并记录缓存时间

== 再次请求（在3600秒内） ==
note right of Browser: 检查缓存\n资源仍在 max-age 内
Browser -> Server: [资源从缓存加载]
note right of Browser: 无需向服务器请求

== 再次请求（超过3600秒后） ==
note right of Browser: 检查缓存\n资源超过 max-age
Browser -> Server: GET /resource
activate Server
Server - -> Browser: 200 OK\nCache-Control: max-age=3600\nContent: [新资源内容]
deactivate Server

note right of Browser: 浏览器缓存新资源\n并更新缓存时间
@enduml

PlantUML version 1.2022.7(Tue Aug 23 01:01:30 CST 2022)
(GPL source distribution)
Java Runtime: Java(TM) SE Runtime Environment
JVM: Java HotSpot(TM) 64-Bit Server VM
Default Encoding: UTF-8
Language: en
Country: CN
--></g></svg>