<?xml version="1.0" encoding="UTF-8" standalone="no"?><svg xmlns="http://www.w3.org/2000/svg" xmlns:xlink="http://www.w3.org/1999/xlink" contentStyleType="text/css" height="569.7917px" preserveAspectRatio="none" style="width:415px;height:569px;background:#00000000;" version="1.1" viewBox="0 0 415 569" width="415.625px" zoomAndPan="magnify"><defs/><g><polygon fill="#4D4D4D" points="319.7917,147.29,319.7917,147.363,321.875,147.1462,323.9583,147.3572,326.0417,147.4288,328.125,147.0423,330.2083,147.29,330.1274,147.29,329.7641,157.1708,329.8089,167.0515,330.1373,176.9322,329.4882,186.8129,330.785,196.6936,329.5518,206.5744,330.2083,216.4551,330.2083,216.3864,328.125,216.6051,326.0417,216.4253,323.9583,216.4788,321.875,216.444,319.7917,216.4551,319.9776,216.4551,320.0408,206.5744,320.4018,196.6936,320.4907,186.8129,320.4992,176.9322,320.0569,167.0515,320.2746,157.1708,319.7917,147.29" style="stroke:#555555;stroke-width:1.0416666666666667;"/><polygon fill="#4D4D4D" points="319.7917,400.6185,319.7917,400.6915,321.875,400.4746,323.9583,400.6856,326.0417,400.7573,328.125,400.3708,330.2083,400.6185,330.1813,400.6185,330.0602,408.5628,330.0752,416.5072,330.1847,424.4515,329.9683,432.3958,330.2083,440.3402,330.2083,440.5324,328.125,440.1213,326.0417,440.2715,323.9583,440.4902,321.875,440.3104,319.7917,440.3402,319.8154,440.3402,319.7806,432.3958,319.8537,424.4515,319.8747,416.5072,319.995,408.5628,319.7917,400.6185" style="stroke:#555555;stroke-width:1.0416666666666667;"/><path d="M93.75,51.18 L94.0419,51.18 L93.1746,61.5934 L94.0185,72.0068 L94.3051,82.4202 L92.7592,92.8337 L93.6421,103.2471 L93.1576,113.6605 L93.2174,124.0739 L93.6553,134.4873 L92.7898,144.9007 L94.5189,155.3141 L92.8746,165.7275 L93.4753,176.141 L94.3499,186.5544 L93.6309,196.9678 L93.8448,207.3812 L93.7056,217.7946 L93.998,228.208 L94.0821,238.6214 L94.5635,249.0348 L94.682,259.4482 L94.6934,269.8617 L94.1036,280.2751 L94.3939,290.6885 L94.7253,301.1019 L92.7484,311.5153 L94.6924,321.9287 L93.3382,332.3421 L94.4914,342.7555 L93.0625,353.1689 L93.6549,363.5824 L94.78,373.9958 L93.6823,384.4092 L93.8963,394.8226 L94.2203,405.236 L94.3281,415.6494 L93.7446,426.0628 L94.1489,436.4762 L92.955,446.8896 L94.145,457.3031 L94.5114,467.7165 L94.3674,478.1299 L94.6014,488.5433 L93.0791,498.9567 L92.8442,509.3701 L93.75,519.7835 " fill="none" style="stroke:#555555;stroke-width:1.0416666666666667;stroke-dasharray:5.0,5.0;"/><path d="M325,51.18 L325.2919,51.18 L324.4246,61.5934 L325.2685,72.0068 L325.5551,82.4202 L324.0092,92.8337 L324.8921,103.2471 L324.4076,113.6605 L324.4674,124.0739 L324.9053,134.4873 L324.0398,144.9007 L325.7689,155.3141 L324.1246,165.7275 L324.7253,176.141 L325.5999,186.5544 L324.8809,196.9678 L325.0948,207.3812 L324.9556,217.7946 L325.248,228.208 L325.3321,238.6214 L325.8135,249.0348 L325.932,259.4482 L325.9434,269.8617 L325.3536,280.2751 L325.6439,290.6885 L325.9753,301.1019 L323.9984,311.5153 L325.9424,321.9287 L324.5882,332.3421 L325.7414,342.7555 L324.3125,353.1689 L324.9049,363.5824 L326.03,373.9958 L324.9323,384.4092 L325.1463,394.8226 L325.4703,405.236 L325.5781,415.6494 L324.9946,426.0628 L325.3989,436.4762 L324.205,446.8896 L325.395,457.3031 L325.7614,467.7165 L325.6174,478.1299 L325.8514,488.5433 L324.3291,498.9567 L324.0942,509.3701 L325,519.7835 " fill="none" style="stroke:#555555;stroke-width:1.0416666666666667;stroke-dasharray:5.0,5.0;"/><polygon fill="none" points="61.4583,10.4167,61.4583,10.6356,72.2222,9.9851,82.9861,10.618,93.75,10.833,104.5139,9.6735,115.2778,10.3357,126.0417,10.4167,125.985,10.2799,126.58,10.5377,127.2111,10.883,127.7176,10.9271,128.4723,11.5706,128.9879,11.6371,128.7858,11.5533,129.1686,12.2,129.6147,12.873,129.6927,13.3934,129.9861,14.0031,130.2083,14.5833,130.1972,14.5833,130.2703,20.861,130.2914,27.1387,130.4117,33.4163,130.4413,39.694,130.2083,45.9717,130.4262,46.0619,130.0459,46.5948,129.8689,47.2118,129.7014,47.8328,129.0007,48.2329,128.9879,48.918,129.0781,49.1356,128.3593,49.0669,127.8804,49.5774,127.1544,49.4914,126.6218,49.8723,126.0417,50.1383,126.0417,50.9109,115.2778,50.0876,104.5139,50.248,93.75,50.4911,82.9861,50.5719,72.2222,50.1343,61.4583,50.1383,61.4965,50.2305,60.793,49.7106,60.3176,49.7414,59.7634,49.582,59.1604,49.3046,58.5121,48.918,58.7087,48.9994,58.113,48.2645,57.8147,47.6528,57.5805,47.0676,57.5169,46.5531,57.2917,45.9717,57.2234,45.9717,57.5283,39.694,57.231,33.4163,57.1726,27.1387,57.3709,20.861,57.2917,14.5833,57.0778,14.4947,57.3692,13.9251,57.988,13.4911,58.1637,12.8735,58.5036,12.3239,58.5121,11.6371,58.4693,11.5338,59.1437,11.4954,59.769,11.3383,60.2171,10.7533,60.8563,10.63,61.4583,10.4167" style="stroke:#333333;stroke-width:1.0416666666666667;"/><text fill="#2E2E2E" font-family="&quot;Segoe Print&quot;" font-size="12.5" lengthAdjust="spacing" textLength="47.9167" x="69.7917" y="35.0016">Browser</text><polygon fill="none" points="61.4583,518.7419,61.4583,518.9608,72.2222,518.3103,82.9861,518.9432,93.75,519.1582,104.5139,517.9987,115.2778,518.6609,126.0417,518.7419,125.985,518.605,126.58,518.8629,127.2111,519.2082,127.7176,519.2523,128.4723,519.8958,128.9879,519.9623,128.7858,519.8785,129.1686,520.5252,129.6147,521.1982,129.6927,521.7186,129.9861,522.3283,130.2083,522.9085,130.1972,522.9085,130.2703,529.1862,130.2914,535.4639,130.4117,541.7415,130.4413,548.0192,130.2083,554.2969,130.4262,554.3871,130.0459,554.92,129.8689,555.537,129.7014,556.158,129.0007,556.5581,128.9879,557.2432,129.0781,557.4608,128.3593,557.3921,127.8804,557.9026,127.1544,557.8166,126.6218,558.1975,126.0417,558.4635,126.0417,559.236,115.2778,558.4128,104.5139,558.5732,93.75,558.8163,82.9861,558.8971,72.2222,558.4595,61.4583,558.4635,61.4965,558.5557,60.793,558.0358,60.3176,558.0666,59.7634,557.9072,59.1604,557.6298,58.5121,557.2432,58.7087,557.3246,58.113,556.5897,57.8147,555.978,57.5805,555.3928,57.5169,554.8783,57.2917,554.2969,57.2234,554.2969,57.5283,548.0192,57.231,541.7415,57.1726,535.4639,57.3709,529.1862,57.2917,522.9085,57.0778,522.8199,57.3692,522.2503,57.988,521.8162,58.1637,521.1987,58.5036,520.6491,58.5121,519.9623,58.4693,519.859,59.1437,519.8206,59.769,519.6635,60.2171,519.0785,60.8563,518.9552,61.4583,518.7419" style="stroke:#333333;stroke-width:1.0416666666666667;"/><text fill="#2E2E2E" font-family="&quot;Segoe Print&quot;" font-size="12.5" lengthAdjust="spacing" textLength="47.9167" x="69.7917" y="543.3268">Browser</text><polygon fill="none" points="297.9167,10.4167,297.9167,10.6356,308.75,9.9851,319.5833,10.618,330.4167,10.833,341.25,9.6735,352.0833,10.4167,352.073,10.3917,352.6159,10.5239,353.2109,10.7818,353.842,11.127,354.3485,11.1712,355.0296,11.6371,355.2072,11.7106,355.0715,12.1426,355.4543,12.7893,355.9004,13.4622,355.9784,13.9827,356.25,14.5833,356.2737,14.5833,356.2389,20.861,356.312,27.1387,356.333,33.4163,356.4534,39.694,356.25,45.9717,356.4653,46.0608,356.2238,46.6512,355.8435,47.184,355.6665,47.801,355.499,48.422,355.0296,48.918,354.9338,48.6866,354.5305,49.3797,353.8117,49.311,353.3328,49.8214,352.6068,49.7355,352.0833,50.1383,352.0833,50.067,341.25,50.9109,330.4167,50.0876,319.5833,50.248,308.75,50.4911,297.9167,50.1383,297.972,50.2719,297.3269,49.893,296.7763,49.7423,296.0728,49.2225,295.5974,49.2533,294.9704,48.918,295.1462,48.9908,294.8689,48.3878,294.6789,47.8209,294.0832,47.086,293.7849,46.4743,293.75,45.9717,293.5342,45.9717,293.7296,39.694,293.6818,33.4163,293.9866,27.1387,293.6893,20.861,293.75,14.5833,293.64,14.5377,294.0673,14.0244,294.0242,13.3162,294.3157,12.7466,294.9345,12.3125,294.9704,11.6371,295.0283,11.7768,295.6572,11.6286,296.1061,11.0457,296.7806,11.0072,297.4059,10.8501,297.9167,10.4167" style="stroke:#333333;stroke-width:1.0416666666666667;"/><text fill="#2E2E2E" font-family="&quot;Segoe Print&quot;" font-size="12.5" lengthAdjust="spacing" textLength="37.5" x="306.25" y="35.0016">Server</text><polygon fill="none" points="297.9167,518.7419,297.9167,518.9608,308.75,518.3103,319.5833,518.9432,330.4167,519.1582,341.25,517.9987,352.0833,518.7419,352.073,518.7169,352.6159,518.8491,353.2109,519.107,353.842,519.4522,354.3485,519.4964,355.0296,519.9623,355.2072,520.0358,355.0715,520.4678,355.4543,521.1145,355.9004,521.7874,355.9784,522.3079,356.25,522.9085,356.2737,522.9085,356.2389,529.1862,356.312,535.4639,356.333,541.7415,356.4534,548.0192,356.25,554.2969,356.4653,554.386,356.2238,554.9764,355.8435,555.5092,355.6665,556.1262,355.499,556.7472,355.0296,557.2432,354.9338,557.0118,354.5305,557.7049,353.8117,557.6362,353.3328,558.1466,352.6068,558.0607,352.0833,558.4635,352.0833,558.3922,341.25,559.236,330.4167,558.4128,319.5833,558.5732,308.75,558.8163,297.9167,558.4635,297.972,558.5971,297.3269,558.2182,296.7763,558.0675,296.0728,557.5477,295.5974,557.5785,294.9704,557.2432,295.1462,557.316,294.8689,556.713,294.6789,556.1461,294.0832,555.4112,293.7849,554.7995,293.75,554.2969,293.5342,554.2969,293.7296,548.0192,293.6818,541.7415,293.9866,535.4639,293.6893,529.1862,293.75,522.9085,293.64,522.8629,294.0673,522.3496,294.0242,521.6414,294.3157,521.0718,294.9345,520.6377,294.9704,519.9623,295.0283,520.102,295.6572,519.9538,296.1061,519.3709,296.7806,519.3324,297.4059,519.1753,297.9167,518.7419" style="stroke:#333333;stroke-width:1.0416666666666667;"/><text fill="#2E2E2E" font-family="&quot;Segoe Print&quot;" font-size="12.5" lengthAdjust="spacing" textLength="37.5" x="306.25" y="543.3268">Server</text><polygon fill="#4D4D4D" points="319.7917,147.29,319.7917,147.363,321.875,147.1462,323.9583,147.3572,326.0417,147.4288,328.125,147.0423,330.2083,147.29,330.1274,147.29,329.7641,157.1708,329.8089,167.0515,330.1373,176.9322,329.4882,186.8129,330.785,196.6936,329.5518,206.5744,330.2083,216.4551,330.2083,216.3864,328.125,216.6051,326.0417,216.4253,323.9583,216.4788,321.875,216.444,319.7917,216.4551,319.9776,216.4551,320.0408,206.5744,320.4018,196.6936,320.4907,186.8129,320.4992,176.9322,320.0569,167.0515,320.2746,157.1708,319.7917,147.29" style="stroke:#555555;stroke-width:1.0416666666666667;"/><polygon fill="#4D4D4D" points="319.7917,400.6185,319.7917,400.6915,321.875,400.4746,323.9583,400.6856,326.0417,400.7573,328.125,400.3708,330.2083,400.6185,330.1813,400.6185,330.0602,408.5628,330.0752,416.5072,330.1847,424.4515,329.9683,432.3958,330.2083,440.3402,330.2083,440.5324,328.125,440.1213,326.0417,440.2715,323.9583,440.4902,321.875,440.3104,319.7917,440.3402,319.8154,440.3402,319.7806,432.3958,319.8537,424.4515,319.8747,416.5072,319.995,408.5628,319.7917,400.6185" style="stroke:#555555;stroke-width:1.0416666666666667;"/><polygon fill="#555555" points="14.5833,87.7075,14.5833,87.9265,24.9718,87.2759,35.3604,87.9089,45.7489,88.1239,56.1374,86.9644,66.5259,87.6266,76.9144,87.2633,87.3029,87.308,97.6914,87.6365,108.08,86.9873,118.4685,88.2842,128.857,87.051,139.2455,87.5015,149.634,88.1575,160.0225,87.6182,170.411,87.7786,180.7995,87.6742,191.1881,87.8935,201.5766,87.9566,211.9651,88.3176,222.3536,88.4065,232.7421,88.4151,243.1306,87.9728,253.5191,88.1904,263.9077,88.439,274.2962,86.9563,284.6847,88.4143,295.0732,87.3987,305.4617,88.2636,315.8502,87.1919,326.2387,87.6362,336.6273,88.48,347.0158,87.6568,357.4043,87.8172,367.7928,88.0603,378.1813,88.1411,388.5698,87.7035,398.9583,87.7075,398.9736,87.8061,399.5171,87.6026,400.152,87.9882,400.7553,88.1702,401.339,88.2262,401.9046,88.1652,402.0475,88.323,402.0361,88.2618,402.2408,88.4392,402.492,88.6681,402.8672,89.0339,403.125,89.27,403.0792,89.2194,403.0397,89.6664,402.5961,89.667,402.3128,89.8446,402.2019,90.2127,401.9046,90.3749,401.8691,90.1461,401.2877,90.2883,400.7607,90.7806,400.1601,90.7989,399.5867,90.993,398.9583,90.8325,398.9583,90.4973,388.5698,91.165,378.1813,91.4475,367.7928,90.3404,357.4043,90.7327,347.0158,90.9638,336.6273,91.5114,326.2387,90.8282,315.8502,91.3144,305.4617,90.2557,295.0732,90.127,284.6847,91.3571,274.2962,90.0857,263.9077,91.3627,253.5191,91.0478,243.1306,90.5534,232.7421,90.464,222.3536,91.3104,211.9651,90.5207,201.5766,91.449,191.1881,90.2567,180.7995,91.4757,170.411,91.337,160.0225,91.0877,149.634,90.8817,139.2455,91.5894,128.857,91.4717,118.4685,91.0088,108.08,91.1119,97.6914,90.6968,87.3029,91.5788,76.9144,90.9938,66.5259,91.0123,56.1374,90.1988,45.7489,90.4104,35.3604,91.3854,24.9718,91.2802,14.5833,90.8325,14.581,90.8178,13.9769,90.6305,13.3932,90.5743,12.779,90.3225,12.2484,90.6087,11.6371,90.3749,11.8094,90.5652,11.5156,90.2894,11.3108,90.1118,10.873,89.6768,10.6811,89.5134,10.4167,89.27,10.3263,89.1703,10.7269,89.1222,10.9623,88.8916,11.2776,88.7493,11.3395,88.327,11.6371,88.1652,11.6299,88.119,12.2499,88.2258,12.8458,88.1768,13.3775,87.7147,13.9837,87.7325,14.5833,87.7075" style="stroke:#555555;stroke-width:1.0416666666666667;"/><path d="M10.4167,87.7075 L10.4167,87.9994 L20.7511,87.1321 L31.0855,87.976 L41.42,88.2626 L51.7544,86.7167 L62.0888,87.5996 L72.4232,87.1152 L82.7577,87.1749 L93.0921,87.6129 L103.4265,86.7473 L113.761,88.4765 L124.0954,86.8321 L134.4298,87.4328 L144.7643,88.3074 L155.0987,87.5884 L165.4331,87.8023 L175.7675,87.6631 L186.102,87.9555 L196.4364,88.0396 L206.7708,88.521 L217.1053,88.6395 L227.4397,88.6509 L237.7741,88.0612 L248.1086,88.3514 L258.443,88.6828 L268.7774,86.7059 L279.1118,88.6499 L289.4463,87.2957 L299.7807,88.4489 L310.1151,87.02 L320.4496,87.6124 L330.784,88.7375 L341.1184,87.6398 L351.4529,87.8538 L361.7873,88.1778 L372.1217,88.2856 L382.4561,87.7021 L392.7906,88.1064 L403.125,87.7075 " fill="#555555" style="stroke:#555555;stroke-width:1.0416666666666667;"/><path d="M10.4167,90.8325 L10.4167,91.1244 L20.7511,90.2571 L31.0855,91.101 L41.42,91.3876 L51.7544,89.8417 L62.0888,90.7246 L72.4232,90.2402 L82.7577,90.2999 L93.0921,90.7379 L103.4265,89.8723 L113.761,91.6015 L124.0954,89.9571 L134.4298,90.5578 L144.7643,91.4324 L155.0987,90.7134 L165.4331,90.9273 L175.7675,90.7881 L186.102,91.0805 L196.4364,91.1646 L206.7708,91.646 L217.1053,91.7645 L227.4397,91.7759 L237.7741,91.1862 L248.1086,91.4764 L258.443,91.8078 L268.7774,89.8309 L279.1118,91.7749 L289.4463,90.4207 L299.7807,91.5739 L310.1151,90.145 L320.4496,90.7374 L330.784,91.8625 L341.1184,90.7648 L351.4529,90.9788 L361.7873,91.3028 L372.1217,91.4106 L382.4561,90.8271 L392.7906,91.2314 L403.125,90.8325 " fill="#555555" style="stroke:#555555;stroke-width:1.0416666666666667;"/><polygon fill="#555555" points="165.1042,72.0133,165.1042,72.2323,175.5208,71.5818,185.9375,72.2147,196.3542,72.4297,206.7708,71.2702,217.1875,71.9324,227.6042,71.5691,238.0208,71.6139,248.4375,72.0133,248.4284,71.9915,248.9349,72.0356,249.6896,72.6791,250.1215,72.5434,250.7682,72.9262,251.3838,73.2337,251.5223,73.2911,251.6003,73.8116,251.8938,74.4213,252.1058,74.9973,252.4174,75.6145,252.6042,76.18,252.6872,76.18,252.8075,81.2077,252.8372,86.2354,252.84,91.263,252.6926,96.2907,252.6042,101.3184,252.7529,101.38,252.5854,102.0009,251.8847,102.401,252.0896,103.1763,251.5327,103.636,251.3838,104.2646,251.4547,104.4359,250.7287,104.3499,250.1962,104.7308,249.7146,105.2348,249.0203,105.2253,248.4375,105.485,248.4375,105.5947,238.0208,105.8378,227.6042,105.9186,217.1875,105.481,206.7708,105.7842,196.3542,104.8888,185.9375,105.7813,175.5208,106.0561,165.1042,105.485,165.1632,105.6276,164.5964,105.4376,163.8615,104.8419,163.2497,104.5436,162.6646,104.3094,162.1579,104.2646,162.139,104.2568,161.8508,103.6493,161.8883,103.1767,161.3696,102.4737,161.0715,101.862,160.9375,101.3184,161.0168,101.3184,160.706,96.2907,160.7572,91.263,161.1628,86.2354,161.0888,81.2077,160.9375,76.18,161.1731,76.2776,161.0783,75.548,161.5281,75.0439,161.8591,74.4907,161.7623,73.7602,162.1579,73.2337,162.1452,73.203,162.7639,73.0301,163.423,72.9547,163.9251,72.5002,164.5764,72.4058,165.1042,72.0133" style="stroke:#555555;stroke-width:2.0833333333333335;"/><text fill="#FFFFFF" font-family="&quot;Segoe Print&quot;" font-size="12.5" font-weight="bold" lengthAdjust="spacing" textLength="62.5" x="172.3958" y="93.4733">第一次请求</text><polygon fill="#333333" points="307.2917,143.1234,307.3188,143.1911,309.3216,143.8231,311.4833,144.8524,313.5932,145.7522,315.533,146.2267,317.7083,147.29,317.6983,147.265,315.57,147.9859,313.4922,148.8331,311.4495,149.7681,309.2858,150.4005,307.2917,151.4567,307.4276,151.5926,307.9703,150.4686,308.9098,149.7415,309.8977,149.0628,310.6039,148.1023,311.4583,147.29,311.4751,147.3068,310.6172,146.4489,309.8355,145.6672,309.017,144.8488,308.2688,144.1005,307.2917,143.1234" style="stroke:#333333;stroke-width:1.0416666666666667;"/><path d="M93.75,147.29 L93.75,147.582 L104.2163,146.7146 L114.6825,147.5585 L125.1488,147.8451 L135.6151,146.2992 L146.0813,147.1821 L156.5476,146.6977 L167.0139,146.7574 L177.4802,147.1954 L187.9464,146.3298 L198.4127,148.059 L208.879,146.4146 L219.3452,147.0154 L229.8115,147.89 L240.2778,147.1709 L250.744,147.3848 L261.2103,147.2457 L271.6766,147.538 L282.1429,147.6222 L292.6091,148.1035 L303.0754,148.2221 L313.5417,147.29 " fill="none" style="stroke:#333333;stroke-width:3.125;"/><text fill="#2E2E2E" font-family="&quot;Segoe Print&quot;" font-size="12.5" lengthAdjust="spacing" textLength="87.5" x="163.0208" y="137.3617">GET /resource</text><polygon fill="#333333" points="105.2083,212.2884,105.2354,212.3562,103.0716,212.9882,101.0666,214.0174,99.0099,214.9173,96.783,215.3918,94.7917,216.4551,94.7816,216.43,96.82,217.1509,98.9089,217.9981,101.0329,218.9331,103.0358,219.5655,105.2083,220.6217,105.3443,220.7577,104.2203,219.6337,103.4931,218.9065,102.8144,218.2278,101.8539,217.2674,101.0417,216.4551,101.0584,216.4718,101.8672,215.6139,102.7522,214.8322,103.6004,214.0138,104.5188,213.2655,105.2083,212.2884" style="stroke:#333333;stroke-width:1.0416666666666667;"/><path d="M98.9583,216.4551 L98.9583,216.747 L109.1856,215.8796 L119.4129,216.7235 L129.6402,217.0102 L139.8674,215.4643 L150.0947,216.3471 L160.322,215.8627 L170.5492,215.9224 L180.7765,216.3604 L191.0038,215.4948 L201.2311,217.224 L211.4583,215.5797 L221.6856,216.1804 L231.9129,217.055 L242.1402,216.3359 L252.3674,216.5499 L262.5947,216.4107 L272.822,216.703 L283.0492,216.7872 L293.2765,217.2685 L303.5038,217.3871 L313.7311,217.3985 L323.9583,216.4551 " fill="none" style="stroke:#333333;stroke-width:3.125;stroke-dasharray:2.0,2.0;"/><text fill="#2E2E2E" font-family="&quot;Segoe Print&quot;" font-size="12.5" lengthAdjust="spacing" textLength="46.875" x="185.9375" y="177.0833">200 OK</text><text fill="#2E2E2E" font-family="&quot;Segoe Print&quot;" font-size="12.5" lengthAdjust="spacing" textLength="137.5" x="140.625" y="191.805">Last-Modified: [时间戳]</text><text fill="#2E2E2E" font-family="&quot;Segoe Print&quot;" font-size="12.5" lengthAdjust="spacing" textLength="80.2083" x="169.2708" y="206.5267">ETag: "[标签]"</text><path d="M98.9583,234.1634 L99.1529,234.1634 L98.5747,242.4967 L99.1373,250.8301 L99.3284,259.1634 L98.2978,267.4967 L98.9583,275.8301 L103.125,279.9967 L103.125,279.7809 L113.6513,278.812 L124.1776,278.9315 L134.7039,279.8074 L145.2303,278.0763 L155.7566,281.5346 L166.2829,278.246 L176.8092,279.4474 L187.3355,281.1966 L197.8618,279.7585 L208.3882,280.1863 L218.9145,279.908 L229.4408,280.4927 L239.9671,280.661 L250.4934,281.6237 L261.0197,281.8608 L271.5461,281.8836 L282.0724,280.704 L292.5987,281.2845 L303.125,279.9967 L307.2917,275.8301 L307.9419,275.8301 L306.6239,268.7467 L307.9199,261.6634 L307.0171,254.5801 L307.7859,247.4967 L307.2917,240.4134 L306.9676,240.0893 L305.1635,238.2852 L303.6106,236.7323 L301.0098,234.1315 L299.0273,232.149 L296.875,229.9967 L296.875,230.9374 L286.6776,231.1529 L276.4803,229.9859 L266.2829,230.7946 L256.0855,228.4067 L245.8882,230.7867 L235.6908,231.5195 L225.4934,231.2316 L215.2961,231.6996 L205.0987,228.6549 L194.9013,228.1851 L184.7039,228.2706 L174.5066,229.8332 L164.3092,229.4508 L154.1118,231.8896 L143.9145,229.5115 L133.7171,229.0438 L123.5197,230.6308 L113.3224,228.1444 L103.125,229.9967 L98.9583,234.1634 " fill="#17A2B8" style="stroke:#2E2E2E;stroke-width:1.0416666666666667;"/><path d="M296.875,229.9967 L296.3943,229.9967 L297.4759,231.6634 L297.2784,233.3301 L297.5551,234.9967 L296.577,236.6634 L296.875,238.3301 L298.9583,240.4134 L298.9583,240.709 L300.625,240.9601 L302.2917,239.976 L303.9583,240.3247 L305.625,240.5301 L307.2917,240.4134 L307.7184,240.8401 L305.2056,238.3273 L303.4279,236.5496 L300.6791,233.8008 L298.5149,231.6367 L296.875,229.9967 " fill="#17A2B8" style="stroke:#2E2E2E;stroke-width:1.0416666666666667;"/><text fill="#FFFFFF" font-family="&quot;Segoe Print&quot;" font-size="12.5" lengthAdjust="spacing" textLength="87.5" x="110.4167" y="252.4984">浏览器缓存资源</text><text fill="#FFFFFF" font-family="&quot;Segoe Print&quot;" font-size="12.5" lengthAdjust="spacing" textLength="176.0417" x="110.4167" y="267.2201">并记录 Last-Modified 和 ETag</text><polygon fill="#555555" points="14.5833,311.5926,14.5833,311.8116,24.9718,311.161,35.3604,311.794,45.7489,312.0089,56.1374,310.8495,66.5259,311.5117,76.9144,311.1483,87.3029,311.1931,97.6914,311.5216,108.08,310.8724,118.4685,312.1693,128.857,310.9361,139.2455,311.3866,149.634,312.0426,160.0225,311.5033,170.411,311.6637,180.7995,311.5593,191.1881,311.7786,201.5766,311.8417,211.9651,312.2027,222.3536,312.2916,232.7421,312.3002,243.1306,311.8578,253.5191,312.0755,263.9077,312.3241,274.2962,310.8414,284.6847,312.2994,295.0732,311.2838,305.4617,312.1487,315.8502,311.077,326.2387,311.5213,336.6273,312.3651,347.0158,311.5418,357.4043,311.7023,367.7928,311.9453,378.1813,312.0262,388.5698,311.5885,398.9583,311.5926,398.9736,311.6912,399.5171,311.4877,400.152,311.8732,400.7553,312.0553,401.339,312.1112,401.9046,312.0503,402.0475,312.2081,402.0361,312.1469,402.2408,312.3243,402.492,312.5532,402.8672,312.919,403.125,313.1551,403.0792,313.1045,403.0397,313.5515,402.5961,313.5521,402.3128,313.7297,402.2019,314.0978,401.9046,314.26,401.8691,314.0312,401.2877,314.1734,400.7607,314.6657,400.1601,314.684,399.5867,314.8781,398.9583,314.7176,398.9583,314.3824,388.5698,315.0501,378.1813,315.3326,367.7928,314.2255,357.4043,314.6178,347.0158,314.8488,336.6273,315.3965,326.2387,314.7132,315.8502,315.1995,305.4617,314.1408,295.0732,314.0121,284.6847,315.2422,274.2962,313.9708,263.9077,315.2478,253.5191,314.9328,243.1306,314.4385,232.7421,314.3491,222.3536,315.1955,211.9651,314.4058,201.5766,315.3341,191.1881,314.1418,180.7995,315.3608,170.411,315.2221,160.0225,314.9728,149.634,314.7668,139.2455,315.4745,128.857,315.3568,118.4685,314.8939,108.08,314.997,97.6914,314.5819,87.3029,315.4639,76.9144,314.8789,66.5259,314.8974,56.1374,314.0839,45.7489,314.2955,35.3604,315.2705,24.9718,315.1653,14.5833,314.7176,14.581,314.7029,13.9769,314.5155,13.3932,314.4594,12.779,314.2076,12.2484,314.4938,11.6371,314.26,11.8094,314.4503,11.5156,314.1745,11.3108,313.9969,10.873,313.5619,10.6811,313.3985,10.4167,313.1551,10.3263,313.0553,10.7269,313.0073,10.9623,312.7767,11.2776,312.6344,11.3395,312.2121,11.6371,312.0503,11.6299,312.0041,12.2499,312.1109,12.8458,312.0619,13.3775,311.5998,13.9837,311.6176,14.5833,311.5926" style="stroke:#555555;stroke-width:1.0416666666666667;"/><path d="M10.4167,311.5926 L10.4167,311.8845 L20.7511,311.0172 L31.0855,311.8611 L41.42,312.1477 L51.7544,310.6018 L62.0888,311.4847 L72.4232,311.0003 L82.7577,311.06 L93.0921,311.4979 L103.4265,310.6324 L113.761,312.3616 L124.0954,310.7172 L134.4298,311.3179 L144.7643,312.1925 L155.0987,311.4735 L165.4331,311.6874 L175.7675,311.5482 L186.102,311.8406 L196.4364,311.9247 L206.7708,312.4061 L217.1053,312.5246 L227.4397,312.536 L237.7741,311.9463 L248.1086,312.2365 L258.443,312.5679 L268.7774,310.591 L279.1118,312.535 L289.4463,311.1808 L299.7807,312.334 L310.1151,310.9051 L320.4496,311.4975 L330.784,312.6226 L341.1184,311.5249 L351.4529,311.7389 L361.7873,312.0629 L372.1217,312.1707 L382.4561,311.5872 L392.7906,311.9915 L403.125,311.5926 " fill="#555555" style="stroke:#555555;stroke-width:1.0416666666666667;"/><path d="M10.4167,314.7176 L10.4167,315.0095 L20.7511,314.1422 L31.0855,314.9861 L41.42,315.2727 L51.7544,313.7268 L62.0888,314.6097 L72.4232,314.1253 L82.7577,314.185 L93.0921,314.6229 L103.4265,313.7574 L113.761,315.4866 L124.0954,313.8422 L134.4298,314.4429 L144.7643,315.3175 L155.0987,314.5985 L165.4331,314.8124 L175.7675,314.6732 L186.102,314.9656 L196.4364,315.0497 L206.7708,315.5311 L217.1053,315.6496 L227.4397,315.661 L237.7741,315.0713 L248.1086,315.3615 L258.443,315.6929 L268.7774,313.716 L279.1118,315.66 L289.4463,314.3058 L299.7807,315.459 L310.1151,314.0301 L320.4496,314.6225 L330.784,315.7476 L341.1184,314.6499 L351.4529,314.8639 L361.7873,315.1879 L372.1217,315.2957 L382.4561,314.7122 L392.7906,315.1165 L403.125,314.7176 " fill="#555555" style="stroke:#555555;stroke-width:1.0416666666666667;"/><polygon fill="#555555" points="115.1042,295.8984,115.1042,296.1174,125.2894,295.4669,135.4745,296.0998,145.6597,296.3148,155.8449,295.1553,166.0301,295.8175,176.2153,295.4542,186.4005,295.499,196.5856,295.8274,206.7708,295.1783,216.956,296.4751,227.1412,295.2419,237.3264,295.6924,247.5116,296.3484,257.6968,295.8091,267.8819,295.9695,278.0671,295.8652,288.2523,296.0844,298.4375,295.8984,298.4693,295.9751,299.1046,296.3304,299.7052,296.6019,300.2955,296.8486,300.8284,296.9564,301.3838,297.1188,301.5325,297.1804,301.8531,297.8014,301.6406,298.2015,302.3337,298.9768,302.265,299.4365,302.6042,300.0651,302.7895,300.0651,302.4323,305.0928,302.5804,310.1204,302.8617,315.1481,302.5872,320.1758,302.6042,325.2035,302.6379,325.2174,302.4687,325.8377,302.2495,326.4373,301.8707,326.9707,301.72,327.5986,301.3838,328.1497,301.3077,327.9661,300.8323,328.485,300.2781,328.8137,299.6751,329.0246,299.1082,329.3227,298.4375,329.3701,298.4375,328.8669,288.2523,328.6908,278.0671,328.7228,267.8819,329.3088,257.6968,329.1654,247.5116,330.0799,237.3264,329.1882,227.1412,329.0128,216.956,329.6079,206.7708,328.6755,196.5856,328.8294,186.4005,330.0461,176.2153,329.8239,166.0301,330.1352,155.8449,329.0349,145.6597,329.7026,135.4745,329.9851,125.2894,328.878,115.1042,329.3701,115.0914,329.3394,114.5317,329.1665,114.0123,329.091,113.3358,328.6365,112.8086,328.5422,112.1579,328.1497,111.9802,328.0761,111.6966,327.4705,111.8313,327.0381,111.1957,326.2867,111.3448,325.8603,110.9375,325.2035,111.0092,325.2035,110.8445,320.1758,110.8147,315.1481,111.0968,310.1204,110.8336,305.0928,110.9375,300.0651,111.1274,300.1437,111.0043,299.4024,111.6237,298.9686,111.8251,298.3617,111.9924,297.7406,112.1579,297.1188,112.1642,297.134,112.8437,297.1078,113.4179,296.8275,113.9481,296.4409,114.5505,296.2285,115.1042,295.8984" style="stroke:#555555;stroke-width:2.0833333333333335;"/><text fill="#FFFFFF" font-family="&quot;Segoe Print&quot;" font-size="12.5" font-weight="bold" lengthAdjust="spacing" textLength="162.5" x="122.3958" y="317.3584">再次请求（资源可能已更新）</text><polygon fill="#333333" points="307.2917,396.4518,307.3188,396.5196,309.3216,397.1516,311.4833,398.1808,313.5932,399.0807,315.533,399.5552,317.7083,400.6185,317.6983,400.5934,315.57,401.3143,313.4922,402.1615,311.4495,403.0965,309.2858,403.7289,307.2917,404.7852,307.4276,404.9211,307.9703,403.7971,308.9098,403.0699,309.8977,402.3912,310.6039,401.4308,311.4583,400.6185,311.4751,400.6352,310.6172,399.7773,309.8355,398.9957,309.017,398.1772,308.2688,397.429,307.2917,396.4518" style="stroke:#333333;stroke-width:1.0416666666666667;"/><path d="M93.75,400.6185 L93.75,400.9104 L104.2163,400.043 L114.6825,400.8869 L125.1488,401.1736 L135.6151,399.6277 L146.0813,400.5106 L156.5476,400.0261 L167.0139,400.0859 L177.4802,400.5238 L187.9464,399.6583 L198.4127,401.3874 L208.879,399.7431 L219.3452,400.3438 L229.8115,401.2184 L240.2778,400.4994 L250.744,400.7133 L261.2103,400.5741 L271.6766,400.8664 L282.1429,400.9506 L292.6091,401.4319 L303.0754,401.5505 L313.5417,400.6185 " fill="none" style="stroke:#333333;stroke-width:3.125;"/><text fill="#2E2E2E" font-family="&quot;Segoe Print&quot;" font-size="12.5" lengthAdjust="spacing" textLength="87.5" x="163.0208" y="361.2467">GET /resource</text><text fill="#2E2E2E" font-family="&quot;Segoe Print&quot;" font-size="12.5" lengthAdjust="spacing" textLength="195.8333" x="108.8542" y="375.9684">If-Modified-Since: [上次的时间戳]</text><text fill="#2E2E2E" font-family="&quot;Segoe Print&quot;" font-size="12.5" lengthAdjust="spacing" textLength="176.0417" x="118.75" y="390.6901">If-None-Match: "[上次的标签]"</text><polygon fill="#333333" points="105.2083,436.1735,105.2354,436.2413,103.0716,436.8733,101.0666,437.9025,99.0099,438.8024,96.783,439.2768,94.7917,440.3402,94.7816,440.3151,96.82,441.036,98.9089,441.8832,101.0329,442.8182,103.0358,443.4506,105.2083,444.5068,105.3443,444.6428,104.2203,443.5188,103.4931,442.7916,102.8144,442.1129,101.8539,441.1524,101.0417,440.3402,101.0584,440.3569,101.8672,439.499,102.7522,438.7173,103.6004,437.8989,104.5188,437.1506,105.2083,436.1735" style="stroke:#333333;stroke-width:1.0416666666666667;"/><path d="M98.9583,440.3402 L98.9583,440.6321 L109.1856,439.7647 L119.4129,440.6086 L129.6402,440.8953 L139.8674,439.3493 L150.0947,440.2322 L160.322,439.7478 L170.5492,439.8075 L180.7765,440.2455 L191.0038,439.3799 L201.2311,441.1091 L211.4583,439.4648 L221.6856,440.0655 L231.9129,440.9401 L242.1402,440.221 L252.3674,440.4349 L262.5947,440.2958 L272.822,440.5881 L283.0492,440.6723 L293.2765,441.1536 L303.5038,441.2722 L313.7311,441.2836 L323.9583,440.3402 " fill="none" style="stroke:#333333;stroke-width:3.125;stroke-dasharray:2.0,2.0;"/><text fill="#2E2E2E" font-family="&quot;Segoe Print&quot;" font-size="12.5" lengthAdjust="spacing" textLength="106.25" x="156.25" y="430.4118">304 Not Modified</text><path d="M98.9583,458.0485 L99.1529,458.0485 L98.5747,466.3818 L99.1373,474.7152 L99.3284,483.0485 L98.2978,491.3818 L98.9583,499.7152 L103.125,503.8818 L103.125,503.666 L113.4673,502.6971 L123.8095,502.8166 L134.1518,503.6925 L144.494,501.9614 L154.8363,505.4197 L165.1786,502.1311 L175.5208,503.3325 L185.8631,505.0817 L196.2054,503.6436 L206.5476,504.0714 L216.8899,503.7931 L227.2321,504.3777 L237.5744,504.5461 L247.9167,503.8818 L252.0833,499.7152 L252.6256,499.7152 L252.7047,492.6318 L252.7123,485.5485 L252.3191,478.4652 L252.5126,471.3818 L252.0833,464.2985 L252.5431,464.7583 L249.5278,461.743 L248.3609,460.5761 L245.6392,457.8544 L244.0995,456.3147 L241.6667,453.8818 L241.6667,452.5068 L231.0096,453.6916 L220.3526,455.9419 L209.6955,453.7465 L199.0385,454.1743 L188.3814,454.8225 L177.7244,455.038 L167.0673,453.871 L156.4103,454.6797 L145.7532,452.2918 L135.0962,454.6718 L124.4391,455.4046 L113.7821,455.1167 L103.125,453.8818 L98.9583,458.0485 " fill="#17A2B8" style="stroke:#2E2E2E;stroke-width:1.0416666666666667;"/><path d="M241.6667,453.8818 L242.2343,453.8818 L241.2194,455.5485 L241.0628,457.2152 L241.0913,458.8818 L241.6121,460.5485 L241.6667,462.2152 L243.75,464.2985 L243.75,464.1165 L245.4167,464.9294 L247.0833,464.1368 L248.75,463.9809 L250.4167,464.5099 L252.0833,464.2985 L251.6467,463.8619 L249.6601,461.8753 L248.3416,460.5567 L246.1186,458.3337 L244.2309,456.4461 L241.6667,453.8818 " fill="#17A2B8" style="stroke:#2E2E2E;stroke-width:1.0416666666666667;"/><text fill="#FFFFFF" font-family="&quot;Segoe Print&quot;" font-size="12.5" lengthAdjust="spacing" textLength="120.8333" x="110.4167" y="476.3835">浏览器收到 304 响应</text><text fill="#FFFFFF" font-family="&quot;Segoe Print&quot;" font-size="12.5" lengthAdjust="spacing" textLength="100" x="110.4167" y="491.1051">继续使用缓存资源</text><!--MD5=[0c261cc0af82c12eb288d0b6c4513846]
@startuml
skinparamlocked roundcorner 10
skinparamlocked sequenceMessageAlign center
skinparamlocked arrowColor #5ac7c3
skinparamlocked arrowFontColor #white
skinparamlocked participantBackgroundColor #394248
skinparamlocked participantFontColor #57cc8a
skinparamlocked participantBorderColor #394248
skinparamlocked actorFontColor #white
skinparamlocked actorBorderColor #57cc8a
skinparamlocked actorBackgroundColor #transparent
skinparamlocked sequenceLifeLineBorderColor #afbac4
skinparamlocked noteBackgroundColor #f43655
skinparamlocked noteFontColor #white
!theme sketchy-outline
participant Browser
participant Server

== 第一次请求 ==
Browser -> Server: GET /resource
activate Server
Server - -> Browser: 200 OK\nLast-Modified: [时间戳]\nETag: "[标签]"
deactivate Server

note right of Browser: 浏览器缓存资源\n并记录 Last-Modified 和 ETag

== 再次请求（资源可能已更新） ==
Browser -> Server: GET /resource\nIf-Modified-Since: [上次的时间戳]\nIf-None-Match: "[上次的标签]"
activate Server
Server - -> Browser: 304 Not Modified
deactivate Server

note right of Browser: 浏览器收到 304 响应\n继续使用缓存资源
@enduml

@startuml
skinparamlocked roundcorner 10
skinparamlocked sequenceMessageAlign center
skinparamlocked arrowColor #5ac7c3
skinparamlocked arrowFontColor #white
skinparamlocked participantBackgroundColor #394248
skinparamlocked participantFontColor #57cc8a
skinparamlocked participantBorderColor #394248
skinparamlocked actorFontColor #white
skinparamlocked actorBorderColor #57cc8a
skinparamlocked actorBackgroundColor #transparent
skinparamlocked sequenceLifeLineBorderColor #afbac4
skinparamlocked noteBackgroundColor #f43655
skinparamlocked noteFontColor #white



skinparam backgroundColor transparent
skinparam useBetaStyle false
skinparam handwritten true
skinparam shadowing false






<style>
  root {
    BackgroundColor transparent
    FontColor #2e2e2e
    HyperLinkColor #fd7e14
    LineColor #2e2e2e
    LineThickness 1
    Margin 10
    Padding 6
    Shadowing 0.0
  }
  node {
   Padding 15
   roundcorner 20
   BackgroundColor transparent
  }
  caption {
    LineThickness 0
  }
  footer {
    LineThickness 0
  }
  groupHeader {
    BackgroundColor #555555
    FontColor #17a2b8
    FontStyle bold
  }
  header {
    LineThickness 0
  }
  referenceHeader {
    BackgroundColor transparent
    FontColor #555555
    FontStyle bold
  }
  separator {
    BackgroundColor #ffffff
    FontColor transparent
    FontStyle bold
  }
  title {
	FontSize 20
	BorderRoundCorner            8
	BorderThickness 	         1
	BackgroundColor  transparent
	FontColor #333333
	BorderColor #555555
  }
  nwdiagDiagram {
	network {
			FontColor #2e2e2e
	BorderColor #333333
	BackgroundColor transparent    
		LineColor #333333
		LineThickness 1.0
		FontColor #2e2e2e
	}
	server {
			FontColor #2e2e2e
	BorderColor #333333
	BackgroundColor transparent
	}
	arrow {
		FontColor #2e2e2e
		LineColor #2e2e2e
	}
	group {
		BackGroundColor #ffffff
		LineColor #e6e6e6
		LineThickness 2.0
		Margin 5
		Padding 5
	}
  }
  ganttDiagram {
	task {
			FontColor #2e2e2e
	BorderColor #333333
	BackgroundColor transparent
		LineColor #333333
		Margin 10
		Padding 6
	}
	note {
		FontColor #ffffff
		LineColor #1592a6
		BackGroundColor transparent
	}
	separator {
		LineColor #4d4d4d
		BackGroundColor transparent
		FontColor #ffffff
	}
	milestone {
		FontColor #17a2b8
		FontSize 16
		FontStyle italic
		BackGroundColor #555555
		LineColor #4d4d4d
	}
	timeline {
		BackgroundColor #555555
		FontColor #ffffff
	}
	closed {
		BackgroundColor #e6ae06
		FontColor #ffffff
	}
  }
</style>
skinparam defaultFontName       "Segoe Print"
skinparam defaultFontSize       12
skinparam dpi                   100
skinparam shadowing             false
skinparam roundcorner           8
skinparam ParticipantPadding    40
skinparam BoxPadding            40
skinparam Padding               5
skinparam ArrowColor            #555555
skinparam stereotype {
    CBackgroundColor transparent
    CBorderColor #4d4d4d
    ABackgroundColor transparent
    ABorderColor #24963e
    IBackgroundColor transparent
    IBorderColor #c6303e
    EBackgroundColor transparent
    EBorderColor #e6ae06
    NBackgroundColor transparent
    NBorderColor #1592a6
}
skinparam title {
	FontColor	                 #2e2e2e
	BorderColor	                 #4d4d4d
	FontSize	    	         20
	BorderRoundCorner            8
	BorderThickness 	         1
	BackgroundColor              transparent
}

skinparam legend {
	BackgroundColor transparent
	BorderColor #4d4d4d
	FontColor #2e2e2e
}

skinparam swimlane {
	BorderColor #17a2b8
	BorderThickness 2
	TitleBackgroundColor  transparent
	TitleFontColor #2e2e2e
}


skinparam activity {
		FontColor #2e2e2e
	BorderColor #333333
	BackgroundColor transparent
	BarColor #28a745
	StartColor #17a2b8
	EndColor #17a2b8
	DiamondBackgroundColor transparent
  	DiamondBorderColor #4d4d4d
  	DiamondFontColor #2e2e2e
}


skinparam participant {
		FontColor #2e2e2e
	BorderColor #333333
	BackgroundColor transparent
	ParticipantBorderThickness 2
}


skinparam actor {
		FontColor #2e2e2e
	BorderColor #333333
	BackgroundColor transparent
}


skinparam arrow {
	Thickness 3
	Color #333333
	FontColor #2e2e2e
}


skinparam sequence {
	BorderColor #333333
	TitleFontColor #2e2e2e
	BackgroundColor transparent
	StartColor #333333
	EndColor #333333
	BoxBackgroundColor transparent
	BoxBorderColor #555555
	BoxFontColor #555555
	DelayFontColor #555555
	LifeLineBorderColor #555555
	LifeLineBorderThickness 2
	LifeLineBackgroundColor #4d4d4d
	GroupBorderColor #555555
	GroupFontColor #555555
	GroupHeaderFontColor #17a2b8
	GroupBackgroundColor #555555
	GroupHeaderBackgroundColor transparent
	DividerBackgroundColor #555555
    DividerBorderColor #555555
    DividerBorderThickness 2
    DividerFontColor #ffffff
	ReferenceBackgroundColor transparent
	ReferenceBorderColor #555555
	ReferenceFontColor #555555
	ReferenceHeaderFontColor #17a2b8
	ReferenceHeaderBackgroundColor #555555
	StereotypeFontColor #2e2e2e
}


skinparam partition {
	BorderColor #333333
	FontColor #333333
	BackgroundColor transparent
}


skinparam collections {
		FontColor #2e2e2e
	BorderColor #333333
	BackgroundColor transparent
}


skinparam control {
		FontColor #2e2e2e
	BorderColor #333333
	BackgroundColor transparent
}


skinparam entity {
		FontColor #2e2e2e
	BorderColor #333333
	BackgroundColor transparent
}


skinparam boundary {
		FontColor #2e2e2e
	BorderColor #333333
	BackgroundColor transparent
}


skinparam agent {
	BackgroundColor #ffc107
	BorderColor #ffc720
	FontColor #555555
}


skinparam note {
	BorderThickness 1
	BackgroundColor #17a2b8
	BorderColor #1592a6
	FontColor #ffffff
}


skinparam artifact {
	BackgroundColor transparent
	BorderColor #4d4d4d
	FontColor #4d4d4d
}


skinparam component {
		FontColor #2e2e2e
	BorderColor #333333
	BackgroundColor transparent
}


skinparam interface {
	BackgroundColor  transparent
	BorderColor  #dc3545
	FontColor #555555
}


skinparam storage {
	BackgroundColor transparent
  	BorderColor #e6ae06
	FontColor #e6ae06
}


skinparam node {
	BackgroundColor  transparent
	BorderColor #ffffff
	FontColor #ffffff
}


skinparam cloud {
	BackgroundColor transparent
	BorderColor #F2FCFE
	FontColor #2e2e2e
}


skinparam database {
		FontColor #2e2e2e
	BorderColor #333333
	BackgroundColor transparent
}


skinparam class {
		FontColor #2e2e2e
	BorderColor #333333
	BackgroundColor transparent
	HeaderBackgroundColor transparent
	StereotypeFontColor #555555
	BorderThickness 1
	AttributeFontColor #555555
	AttributeFontSize 11
}


skinparam object {
		FontColor #2e2e2e
	BorderColor #333333
	BackgroundColor transparent
	StereotypeFontColor #2e2e2e
	BorderThickness 1
	AttributeFontColor #2e2e2e
	AttributeFontSize 11
}


skinparam usecase {
		FontColor #2e2e2e
	BorderColor #333333
	BackgroundColor transparent
	BorderThickness 2
	StereotypeFontColor #333333
}


skinparam rectangle {
		FontColor #2e2e2e
	BorderColor #333333
	BackgroundColor transparent
	BorderThickness 2
	StereotypeFontColor #333333
}


skinparam package {
	BackgroundColor transparent
  	BorderColor #333333
	FontColor #333333
	BorderThickness 2
}


skinparam folder {
	BackgroundColor transparent
  	BorderColor #ffc107
	FontColor #ffc107
	BorderThickness 2
}


skinparam frame {
	BackgroundColor transparent
  	BorderColor #17a2b8
	FontColor #17a2b8
	BorderThickness 2
}


skinparam state {
		FontColor #2e2e2e
	BorderColor #333333
	BackgroundColor transparent
	StartColor #17a2b8
	EndColor #17a2b8
	AttributeFontColor #ffffff
	AttributeFontSize 11
}


skinparam queue {
		FontColor #2e2e2e
	BorderColor #333333
	BackgroundColor transparent
}


skinparam card {
	BackgroundColor transparent
	BorderColor #1592a6
	FontColor #1592a6
}


skinparam file {
	BackgroundColor transparent
	BorderColor #ffffff
	FontColor #ffffff
}


skinparam stack {
		FontColor #2e2e2e
	BorderColor #333333
	BackgroundColor transparent
}
participant Browser
participant Server

== 第一次请求 ==
Browser -> Server: GET /resource
activate Server
Server - -> Browser: 200 OK\nLast-Modified: [时间戳]\nETag: "[标签]"
deactivate Server

note right of Browser: 浏览器缓存资源\n并记录 Last-Modified 和 ETag

== 再次请求（资源可能已更新） ==
Browser -> Server: GET /resource\nIf-Modified-Since: [上次的时间戳]\nIf-None-Match: "[上次的标签]"
activate Server
Server - -> Browser: 304 Not Modified
deactivate Server

note right of Browser: 浏览器收到 304 响应\n继续使用缓存资源
@enduml

PlantUML version 1.2022.7(Tue Aug 23 01:01:30 CST 2022)
(GPL source distribution)
Java Runtime: Java(TM) SE Runtime Environment
JVM: Java HotSpot(TM) 64-Bit Server VM
Default Encoding: UTF-8
Language: en
Country: CN
--></g></svg>