<svg xmlns="http://www.w3.org/2000/svg" xmlns:xlink="http://www.w3.org/1999/xlink" contentStyleType="text/css" data-diagram-type="CLASS" height="814px" preserveAspectRatio="none" style="width:719px;height:814px;" version="1.1" viewBox="0 0 719 814" width="719px" zoomAndPan="magnify"><defs/><g><!--class Client--><g class="entity" data-entity="Client" data-source-line="4" data-uid="ent0002" id="entity_Client"><rect fill="#F0F8FF" height="80.5938" rx="2.5" ry="2.5" style="stroke:#181818;stroke-width:0.5;" width="165.9994" x="421.26" y="7"/><ellipse cx="479.7446" cy="23" fill="#ADD1B2" rx="11" ry="11" style="stroke:#181818;stroke-width:1;"/><path d="M482.7133,28.6406 Q482.1352,28.9375 481.4946,29.0781 Q480.8539,29.2344 480.1508,29.2344 Q477.6508,29.2344 476.3227,27.5938 Q475.0102,25.9375 475.0102,22.8125 Q475.0102,19.6875 476.3227,18.0313 Q477.6508,16.375 480.1508,16.375 Q480.8539,16.375 481.4946,16.5313 Q482.1508,16.6875 482.7133,16.9844 L482.7133,19.7031 Q482.0883,19.125 481.4946,18.8594 Q480.9008,18.5781 480.2758,18.5781 Q478.9321,18.5781 478.2446,19.6563 Q477.5571,20.7188 477.5571,22.8125 Q477.5571,24.9063 478.2446,25.9844 Q478.9321,27.0469 480.2758,27.0469 Q480.9008,27.0469 481.4946,26.7813 Q482.0883,26.5 482.7133,25.9219 L482.7133,28.6406 Z " fill="#000000"/><text fill="#000000" font-family="sans-serif" font-size="14" lengthAdjust="spacing" textLength="40.5303" x="500.2446" y="27.8467">Client</text><line style="stroke:#181818;stroke-width:0.5;" x1="422.26" x2="586.2594" y1="39" y2="39"/><ellipse cx="432.26" cy="52.6484" fill="none" rx="3" ry="3" style="stroke:#038048;stroke-width:1;"/><text fill="#000000" font-family="sans-serif" font-size="14" lengthAdjust="spacing" textLength="139.9994" x="441.26" y="55.9951">&#21019;&#24314;&#21629;&#20196;&#24182;&#32465;&#23450;&#25509;&#25910;&#32773;</text><ellipse cx="432.26" cy="68.9453" fill="none" rx="3" ry="3" style="stroke:#038048;stroke-width:1;"/><text fill="#000000" font-family="sans-serif" font-size="14" lengthAdjust="spacing" textLength="111.9995" x="441.26" y="72.292">&#35774;&#32622;&#35843;&#29992;&#32773;&#30340;&#21629;&#20196;</text><line style="stroke:#181818;stroke-width:0.5;" x1="422.26" x2="586.2594" y1="79.5938" y2="79.5938"/></g><!--class Invoker--><g class="entity" data-entity="Invoker" data-source-line="9" data-uid="ent0003" id="entity_Invoker"><rect fill="#FFFACD" height="113.1875" rx="2.5" ry="2.5" style="stroke:#181818;stroke-width:0.5;" width="241.6191" x="108.45" y="164.59"/><ellipse cx="198.845" cy="180.59" fill="#ADD1B2" rx="11" ry="11" style="stroke:#181818;stroke-width:1;"/><path d="M201.8138,186.2306 Q201.2356,186.5275 200.595,186.6681 Q199.9544,186.8244 199.2513,186.8244 Q196.7513,186.8244 195.4231,185.1838 Q194.1106,183.5275 194.1106,180.4025 Q194.1106,177.2775 195.4231,175.6213 Q196.7513,173.965 199.2513,173.965 Q199.9544,173.965 200.595,174.1213 Q201.2513,174.2775 201.8138,174.5744 L201.8138,177.2931 Q201.1888,176.715 200.595,176.4494 Q200.0013,176.1681 199.3763,176.1681 Q198.0325,176.1681 197.345,177.2463 Q196.6575,178.3088 196.6575,180.4025 Q196.6575,182.4963 197.345,183.5744 Q198.0325,184.6369 199.3763,184.6369 Q200.0013,184.6369 200.595,184.3713 Q201.1888,184.09 201.8138,183.5119 L201.8138,186.2306 Z " fill="#000000"/><text fill="#000000" font-family="sans-serif" font-size="14" lengthAdjust="spacing" textLength="52.3291" x="219.345" y="185.4367">Invoker</text><line style="stroke:#181818;stroke-width:0.5;" x1="109.45" x2="349.0691" y1="196.59" y2="196.59"/><rect fill="none" height="6" style="stroke:#C82930;stroke-width:1;" width="6" x="116.45" y="207.2384"/><text fill="#000000" font-family="sans-serif" font-size="14" lengthAdjust="spacing" textLength="150.999" x="128.45" y="213.5851">command: Command</text><line style="stroke:#181818;stroke-width:0.5;" x1="109.45" x2="349.0691" y1="220.8869" y2="220.8869"/><ellipse cx="119.45" cy="234.5353" fill="#84BE84" rx="3" ry="3" style="stroke:#038048;stroke-width:1;"/><text fill="#000000" font-family="sans-serif" font-size="14" lengthAdjust="spacing" textLength="215.6191" x="128.45" y="237.882">setCommand(cmd: Command)</text><ellipse cx="119.45" cy="250.8322" fill="#84BE84" rx="3" ry="3" style="stroke:#038048;stroke-width:1;"/><text fill="#000000" font-family="sans-serif" font-size="14" lengthAdjust="spacing" textLength="139.0635" x="128.45" y="254.1789">executeCommand()</text><ellipse cx="119.45" cy="267.1291" fill="#84BE84" rx="3" ry="3" style="stroke:#038048;stroke-width:1;"/><text fill="#000000" font-family="sans-serif" font-size="14" lengthAdjust="spacing" textLength="118.0771" x="128.45" y="270.4757">undoCommand()</text></g><!--class Command--><g class="entity" data-entity="Command" data-source-line="16" data-uid="ent0004" id="entity_Command"><rect fill="#D3D3D3" height="88.8594" rx="2.5" ry="2.5" style="stroke:#181818;stroke-width:0.5;" width="103.9551" x="203.28" y="354.78"/><ellipse cx="218.28" cy="374.9128" fill="#B4A7E5" rx="11" ry="11" style="stroke:#181818;stroke-width:1;"/><path d="M214.2019,370.6784 L214.2019,368.5222 L221.5925,368.5222 L221.5925,370.6784 L219.1238,370.6784 L219.1238,378.7566 L221.5925,378.7566 L221.5925,380.9128 L214.2019,380.9128 L214.2019,378.7566 L216.6706,378.7566 L216.6706,370.6784 L214.2019,370.6784 Z " fill="#000000"/><text fill="#000000" font-family="sans-serif" font-size="12" font-style="italic" lengthAdjust="spacing" textLength="68.2031" x="234.156" y="370.9187">&#171;interface&#187;</text><text fill="#000000" font-family="sans-serif" font-size="14" font-style="italic" lengthAdjust="spacing" textLength="71.9551" x="232.28" y="386.7439">Command</text><line style="stroke:#181818;stroke-width:0.5;" x1="204.28" x2="306.2351" y1="395.0456" y2="395.0456"/><line style="stroke:#181818;stroke-width:0.5;" x1="204.28" x2="306.2351" y1="403.0456" y2="403.0456"/><ellipse cx="214.28" cy="416.6941" fill="#84BE84" rx="3" ry="3" style="stroke:#038048;stroke-width:1;"/><text fill="#000000" font-family="sans-serif" font-size="14" lengthAdjust="spacing" textLength="67.1084" x="223.28" y="420.0407">execute()</text><ellipse cx="214.28" cy="432.9909" fill="#84BE84" rx="3" ry="3" style="stroke:#038048;stroke-width:1;"/><text fill="#000000" font-family="sans-serif" font-size="14" lengthAdjust="spacing" textLength="46.1221" x="223.28" y="436.3376">undo()</text></g><!--class ConcreteCommandA--><g class="entity" data-entity="ConcreteCommandA" data-source-line="21" data-uid="ent0005" id="entity_ConcreteCommandA"><rect fill="#E6E6FA" height="96.8906" rx="2.5" ry="2.5" style="stroke:#181818;stroke-width:0.5;" width="176.915" x="166.8" y="520.64"/><ellipse cx="181.8" cy="536.64" fill="#ADD1B2" rx="11" ry="11" style="stroke:#181818;stroke-width:1;"/><path d="M184.7688,542.2806 Q184.1906,542.5775 183.55,542.7181 Q182.9094,542.8744 182.2063,542.8744 Q179.7063,542.8744 178.3781,541.2338 Q177.0656,539.5775 177.0656,536.4525 Q177.0656,533.3275 178.3781,531.6713 Q179.7063,530.015 182.2063,530.015 Q182.9094,530.015 183.55,530.1713 Q184.2063,530.3275 184.7688,530.6244 L184.7688,533.3431 Q184.1438,532.765 183.55,532.4994 Q182.9563,532.2181 182.3313,532.2181 Q180.9875,532.2181 180.3,533.2963 Q179.6125,534.3588 179.6125,536.4525 Q179.6125,538.5463 180.3,539.6244 Q180.9875,540.6869 182.3313,540.6869 Q182.9563,540.6869 183.55,540.4213 Q184.1438,540.14 184.7688,539.5619 L184.7688,542.2806 Z " fill="#000000"/><text fill="#000000" font-family="sans-serif" font-size="14" lengthAdjust="spacing" textLength="144.915" x="195.8" y="541.4867">ConcreteCommandA</text><line style="stroke:#181818;stroke-width:0.5;" x1="167.8" x2="342.715" y1="552.64" y2="552.64"/><rect fill="none" height="6" style="stroke:#C82930;stroke-width:1;" width="6" x="174.8" y="563.2884"/><text fill="#000000" font-family="sans-serif" font-size="14" lengthAdjust="spacing" textLength="127.5859" x="186.8" y="569.6351">receiver: Receiver</text><line style="stroke:#181818;stroke-width:0.5;" x1="167.8" x2="342.715" y1="576.9369" y2="576.9369"/><ellipse cx="177.8" cy="590.5853" fill="#84BE84" rx="3" ry="3" style="stroke:#038048;stroke-width:1;"/><text fill="#000000" font-family="sans-serif" font-size="14" lengthAdjust="spacing" textLength="67.1084" x="186.8" y="593.932">execute()</text><ellipse cx="177.8" cy="606.8822" fill="#84BE84" rx="3" ry="3" style="stroke:#038048;stroke-width:1;"/><text fill="#000000" font-family="sans-serif" font-size="14" lengthAdjust="spacing" textLength="46.1221" x="186.8" y="610.2289">undo()</text></g><!--class ConcreteCommandB--><g class="entity" data-entity="ConcreteCommandB" data-source-line="27" data-uid="ent0006" id="entity_ConcreteCommandB"><rect fill="#E6E6FA" height="96.8906" rx="2.5" ry="2.5" style="stroke:#181818;stroke-width:0.5;" width="176.9424" x="429.79" y="520.64"/><ellipse cx="444.79" cy="536.64" fill="#ADD1B2" rx="11" ry="11" style="stroke:#181818;stroke-width:1;"/><path d="M447.7588,542.2806 Q447.1806,542.5775 446.54,542.7181 Q445.8994,542.8744 445.1963,542.8744 Q442.6963,542.8744 441.3681,541.2338 Q440.0556,539.5775 440.0556,536.4525 Q440.0556,533.3275 441.3681,531.6713 Q442.6963,530.015 445.1963,530.015 Q445.8994,530.015 446.54,530.1713 Q447.1963,530.3275 447.7588,530.6244 L447.7588,533.3431 Q447.1338,532.765 446.54,532.4994 Q445.9463,532.2181 445.3213,532.2181 Q443.9775,532.2181 443.29,533.2963 Q442.6025,534.3588 442.6025,536.4525 Q442.6025,538.5463 443.29,539.6244 Q443.9775,540.6869 445.3213,540.6869 Q445.9463,540.6869 446.54,540.4213 Q447.1338,540.14 447.7588,539.5619 L447.7588,542.2806 Z " fill="#000000"/><text fill="#000000" font-family="sans-serif" font-size="14" lengthAdjust="spacing" textLength="144.9424" x="458.79" y="541.4867">ConcreteCommandB</text><line style="stroke:#181818;stroke-width:0.5;" x1="430.79" x2="605.7324" y1="552.64" y2="552.64"/><rect fill="none" height="6" style="stroke:#C82930;stroke-width:1;" width="6" x="437.79" y="563.2884"/><text fill="#000000" font-family="sans-serif" font-size="14" lengthAdjust="spacing" textLength="127.5859" x="449.79" y="569.6351">receiver: Receiver</text><line style="stroke:#181818;stroke-width:0.5;" x1="430.79" x2="605.7324" y1="576.9369" y2="576.9369"/><ellipse cx="440.79" cy="590.5853" fill="#84BE84" rx="3" ry="3" style="stroke:#038048;stroke-width:1;"/><text fill="#000000" font-family="sans-serif" font-size="14" lengthAdjust="spacing" textLength="67.1084" x="449.79" y="593.932">execute()</text><ellipse cx="440.79" cy="606.8822" fill="#84BE84" rx="3" ry="3" style="stroke:#038048;stroke-width:1;"/><text fill="#000000" font-family="sans-serif" font-size="14" lengthAdjust="spacing" textLength="46.1221" x="449.79" y="610.2289">undo()</text></g><!--class Receiver--><g class="entity" data-entity="Receiver" data-source-line="33" data-uid="ent0007" id="entity_Receiver"><rect fill="#6CE66C" height="113.1875" rx="2.5" ry="2.5" style="stroke:#181818;stroke-width:0.5;" width="125.8184" x="455.35" y="694.53"/><ellipse cx="485.0304" cy="710.53" fill="#ADD1B2" rx="11" ry="11" style="stroke:#181818;stroke-width:1;"/><path d="M487.9991,716.1706 Q487.421,716.4675 486.7804,716.6081 Q486.1397,716.7644 485.4366,716.7644 Q482.9366,716.7644 481.6085,715.1238 Q480.296,713.4675 480.296,710.3425 Q480.296,707.2175 481.6085,705.5613 Q482.9366,703.905 485.4366,703.905 Q486.1397,703.905 486.7804,704.0613 Q487.4366,704.2175 487.9991,704.5144 L487.9991,707.2331 Q487.3741,706.655 486.7804,706.3894 Q486.1866,706.1081 485.5616,706.1081 Q484.2179,706.1081 483.5304,707.1863 Q482.8429,708.2488 482.8429,710.3425 Q482.8429,712.4363 483.5304,713.5144 Q484.2179,714.5769 485.5616,714.5769 Q486.1866,714.5769 486.7804,714.3113 Q487.3741,714.03 487.9991,713.4519 L487.9991,716.1706 Z " fill="#000000"/><text fill="#000000" font-family="sans-serif" font-size="14" lengthAdjust="spacing" textLength="61.1953" x="502.2927" y="715.3767">Receiver</text><line style="stroke:#181818;stroke-width:0.5;" x1="456.35" x2="580.1684" y1="726.53" y2="726.53"/><line style="stroke:#181818;stroke-width:0.5;" x1="456.35" x2="580.1684" y1="734.53" y2="734.53"/><ellipse cx="466.35" cy="748.1784" fill="#84BE84" rx="3" ry="3" style="stroke:#038048;stroke-width:1;"/><text fill="#000000" font-family="sans-serif" font-size="14" lengthAdjust="spacing" textLength="63.5947" x="475.35" y="751.5251">actionA()</text><ellipse cx="466.35" cy="764.4753" fill="#84BE84" rx="3" ry="3" style="stroke:#038048;stroke-width:1;"/><text fill="#000000" font-family="sans-serif" font-size="14" lengthAdjust="spacing" textLength="63.6221" x="475.35" y="767.822">actionB()</text><ellipse cx="466.35" cy="780.7722" fill="#84BE84" rx="3" ry="3" style="stroke:#038048;stroke-width:1;"/><text fill="#000000" font-family="sans-serif" font-size="14" lengthAdjust="spacing" textLength="99.791" x="475.35" y="784.1189">undoActionA()</text><ellipse cx="466.35" cy="797.0691" fill="#84BE84" rx="3" ry="3" style="stroke:#038048;stroke-width:1;"/><text fill="#000000" font-family="sans-serif" font-size="14" lengthAdjust="spacing" textLength="99.8184" x="475.35" y="800.4157">undoActionB()</text></g><g class="entity" data-entity="GMN17" data-source-line="56" data-uid="ent0018" id="entity_GMN17"><path d="M384.78,193.49 L384.78,217.19 L350.43,221.19 L384.78,225.19 L384.78,248.8884 A0,0 0 0 0 384.78,248.8884 L543.7336,248.8884 A0,0 0 0 0 543.7336,248.8884 L543.7336,203.49 L533.7336,193.49 L384.78,193.49 A0,0 0 0 0 384.78,193.49 " fill="#FEFFDD" style="stroke:#181818;stroke-width:0.5;"/><path d="M533.7336,193.49 L533.7336,203.49 L543.7336,203.49 L533.7336,193.49 " fill="#FEFFDD" style="stroke:#181818;stroke-width:0.5;"/><text fill="#000000" font-family="sans-serif" font-size="13" lengthAdjust="spacing" textLength="91.0001" x="390.78" y="210.5569">&#35302;&#21457;&#21629;&#20196;&#25191;&#34892;&#65306;</text><text fill="#000000" font-family="sans-serif" font-size="13" lengthAdjust="spacing" textLength="137.9536" x="390.78" y="225.6897">- executeCommand()</text><text fill="#000000" font-family="sans-serif" font-size="13" lengthAdjust="spacing" textLength="118.4663" x="390.78" y="240.8225">- undoCommand()</text></g><g class="entity" data-entity="GMN20" data-source-line="62" data-uid="ent0021" id="entity_GMN20"><path d="M226.14,723.43 L226.14,778.8284 A0,0 0 0 0 226.14,778.8284 L420.3739,778.8284 A0,0 0 0 0 420.3739,778.8284 L420.3739,755.13 L455.03,751.13 L420.3739,747.13 L420.3739,733.43 L410.3739,723.43 L226.14,723.43 A0,0 0 0 0 226.14,723.43 " fill="#FEFFDD" style="stroke:#181818;stroke-width:0.5;"/><path d="M410.3739,723.43 L410.3739,733.43 L420.3739,733.43 L410.3739,723.43 " fill="#FEFFDD" style="stroke:#181818;stroke-width:0.5;"/><text fill="#000000" font-family="sans-serif" font-size="13" lengthAdjust="spacing" textLength="91.0001" x="232.14" y="740.4969">&#23454;&#38469;&#25191;&#34892;&#25805;&#20316;&#65306;</text><text fill="#000000" font-family="sans-serif" font-size="13" lengthAdjust="spacing" textLength="173.1831" x="232.14" y="755.6297">- actionA() / undoActionA()</text><text fill="#000000" font-family="sans-serif" font-size="13" lengthAdjust="spacing" textLength="173.2339" x="232.14" y="770.7625">- actionB() / undoActionB()</text></g><!--link Client to Invoker--><g class="link" data-entity-1="Client" data-entity-2="Invoker" data-source-line="41" data-uid="lnk8" id="link_Client_Invoker"><path codeLine="41" d="M440.82,87.95 C404.66,110.55 363.8381,136.0701 324.0281,160.9501 " fill="none" id="Client-to-Invoker" style="stroke:#181818;stroke-width:1;"/><polygon fill="#181818" points="318.94,164.13,328.692,162.7522,323.1801,161.4801,324.4522,155.9681,318.94,164.13" style="stroke:#181818;stroke-width:1;"/><text fill="#000000" font-family="sans-serif" font-size="13" lengthAdjust="spacing" textLength="52.0001" x="392.26" y="130.6569">&#37197;&#32622;&#21629;&#20196;</text></g><!--link Client to Receiver--><g class="link" data-entity-1="Client" data-entity-2="Receiver" data-source-line="42" data-uid="lnk9" id="link_Client_Receiver"><path codeLine="42" d="M586.62,87.94 C634.02,117.08 684.26,161.75 684.26,220.19 C684.26,220.19 684.26,220.19 684.26,570.09 C684.26,633.22 633.393,680.3628 586.483,711.6228 " fill="none" id="Client-to-Receiver" style="stroke:#181818;stroke-width:1;"/><polygon fill="#181818" points="581.49,714.95,591.1976,713.2878,585.6508,712.1773,586.7613,706.6305,581.49,714.95" style="stroke:#181818;stroke-width:1;"/><text fill="#000000" font-family="sans-serif" font-size="13" lengthAdjust="spacing" textLength="26" x="685.26" y="403.7769">&#21019;&#24314;</text></g><!--link Client to ConcreteCommandA--><g class="link" data-entity-1="Client" data-entity-2="ConcreteCommandA" data-source-line="43" data-uid="lnk10" id="link_Client_ConcreteCommandA"><path codeLine="43" d="M420.99,59.82 C312.22,76.76 130.94,112.19 91.26,164.59 C6,277.17 128.3169,435.8329 202.9369,515.8129 " fill="none" id="Client-to-ConcreteCommandA" style="stroke:#181818;stroke-width:1;"/><polygon fill="#181818" points="207.03,520.2,203.8151,510.8906,203.6191,516.5441,197.9656,516.3481,207.03,520.2" style="stroke:#181818;stroke-width:1;"/><text fill="#000000" font-family="sans-serif" font-size="13" lengthAdjust="spacing" textLength="26" x="78.26" y="320.8469">&#21019;&#24314;</text></g><!--link Client to ConcreteCommandB--><g class="link" data-entity-1="Client" data-entity-2="ConcreteCommandB" data-source-line="44" data-uid="lnk11" id="link_Client_ConcreteCommandB"><path codeLine="44" d="M529.37,88.04 C541.61,109.75 555.01,137.65 561.26,164.59 C590.54,290.87 557.1754,438.3058 535.1654,514.4858 " fill="none" id="Client-to-ConcreteCommandB" style="stroke:#181818;stroke-width:1;"/><polygon fill="#181818" points="533.5,520.25,539.8409,512.7139,534.8878,515.4465,532.1553,510.4934,533.5,520.25" style="stroke:#181818;stroke-width:1;"/><text fill="#000000" font-family="sans-serif" font-size="13" lengthAdjust="spacing" textLength="26" x="572.26" y="320.8469">&#21019;&#24314;</text></g><!--link Invoker to Command--><g class="link" data-entity-1="Invoker" data-entity-2="Command" data-source-line="46" data-uid="lnk12" id="link_Invoker_Command"><path codeLine="46" d="M239.2356,289.7509 C242.8856,314.4309 244.4724,325.2345 247.8924,348.3645 " fill="none" id="Invoker-Command" style="stroke:#181818;stroke-width:1;"/><polygon fill="none" points="237.48,277.88,234.4009,284.4006,239.2356,289.7509,242.3148,283.2302,237.48,277.88" style="stroke:#181818;stroke-width:1;"/><polygon fill="#181818" points="248.77,354.3,251.4106,344.8117,248.0387,349.3538,243.4966,345.9819,248.77,354.3" style="stroke:#181818;stroke-width:1;"/><text fill="#000000" font-family="sans-serif" font-size="13" lengthAdjust="spacing" textLength="26" x="245.26" y="320.8469">&#25345;&#26377;</text></g><!--reverse link Command to ConcreteCommandA--><g class="link" data-entity-1="Command" data-entity-2="ConcreteCommandA" data-source-line="48" data-uid="lnk13" id="link_Command_ConcreteCommandA"><path codeLine="48" d="M255.26,461.88 C255.26,485.29 255.26,496.19 255.26,520.21 " fill="none" id="Command-backto-ConcreteCommandA" style="stroke:#181818;stroke-width:1;stroke-dasharray:7.0,7.0;"/><polygon fill="none" points="255.26,443.88,249.26,461.88,261.26,461.88,255.26,443.88" style="stroke:#181818;stroke-width:1;"/><text fill="#000000" font-family="sans-serif" font-size="13" lengthAdjust="spacing" textLength="26" x="256.26" y="486.7069">&#23454;&#29616;</text></g><!--reverse link Command to ConcreteCommandB--><g class="link" data-entity-1="Command" data-entity-2="ConcreteCommandB" data-source-line="49" data-uid="lnk14" id="link_Command_ConcreteCommandB"><path codeLine="49" d="M322.7019,443.2658 C361.5019,468.0358 399.8,492.47 443.17,520.16 " fill="none" id="Command-backto-ConcreteCommandB" style="stroke:#181818;stroke-width:1;stroke-dasharray:7.0,7.0;"/><polygon fill="none" points="307.53,433.58,319.4733,448.3231,325.9305,438.2085,307.53,433.58" style="stroke:#181818;stroke-width:1;"/><text fill="#000000" font-family="sans-serif" font-size="13" lengthAdjust="spacing" textLength="26" x="395.26" y="486.7069">&#23454;&#29616;</text></g><!--link ConcreteCommandA to Receiver--><g class="link" data-entity-1="ConcreteCommandA" data-entity-2="Receiver" data-source-line="51" data-uid="lnk15" id="link_ConcreteCommandA_Receiver"><path codeLine="51" d="M325.76,617.79 C359.81,640.88 401.21,669.07 438.26,694.53 C443.69,698.27 444.3921,698.7516 450.0421,702.6516 " fill="none" id="ConcreteCommandA-to-Receiver" style="stroke:#181818;stroke-width:1;"/><polygon fill="#181818" points="454.98,706.06,449.8455,697.6554,450.8651,703.2196,445.3009,704.2393,454.98,706.06" style="stroke:#181818;stroke-width:1;"/><text fill="#000000" font-family="sans-serif" font-size="13" lengthAdjust="spacing" textLength="52.0001" x="393.26" y="660.5969">&#35843;&#29992;&#26041;&#27861;</text></g><!--link ConcreteCommandB to Receiver--><g class="link" data-entity-1="ConcreteCommandB" data-entity-2="Receiver" data-source-line="52" data-uid="lnk16" id="link_ConcreteCommandB_Receiver"><path codeLine="52" d="M518.26,617.86 C518.26,641.3 518.26,663.68 518.26,688.14 " fill="none" id="ConcreteCommandB-to-Receiver" style="stroke:#181818;stroke-width:1;"/><polygon fill="#181818" points="518.26,694.14,522.26,685.14,518.26,689.14,514.26,685.14,518.26,694.14" style="stroke:#181818;stroke-width:1;"/><text fill="#000000" font-family="sans-serif" font-size="13" lengthAdjust="spacing" textLength="52.0001" x="519.26" y="660.5969">&#35843;&#29992;&#26041;&#27861;</text></g><!--SRC=[hPFVQXD15CRlvoaEvAAAR1M4HPOIs4sxuArli4udTKao8vDj4LHGRD2KjX9Q1MCf2cfx5Gg1I5oZBvETtLpv2awSsTdyAKN4tPlPSxxvdJrdlcdMGlemu443xWUujiNPDjsii3hZ4F60DcMAq0YX5KZZtN4yI7hTyR2DS3reDg5I3sKIIluj_uxlmsC4yha1oQltIVmjwOp6yQTaE4ZZZjmb3Z-Buq7shAL5MUz7Ekfb5o_IutCPJRkxQWDwYZJzBjrXDS8btlVTohh6Mu1Pen7GJGSgQg61JHBfm3NSABBNTPey8dWx8haa3yjkMH6JjKCQ4LuDCCa1iBPcOkKobDPlJr_JhERE0HL9puXHp8afx49fmzwmVTUqmmacuGxX3jpJgtyZU_-FdCkXP6DYszWq6-0ePDGr6zMtDmTo5pH5p5CrLY1fzTD-dFqybQP0saIMLJOdxi2aTI3TeHqnep1_vcYNpIQNHlqN8gyGeRmyKpfr-Ww8_UVYf8sGySEJrTLBQ_LEqyEBAsLU8KDBX8N-rDKGRuUY_mOjSQuIomcBht6ozq7qpoSlzn1b4G4URZs8W5Np8SlJoSw-9AyxQiYYVPPztF_rlOkcphdaibWBLuN85gTWfF1rKlr3dt6QR7JohgN0ukXWF3h9ySP6S7F9CbPXghciDrFpDm00]--></g></svg>